<svg width="109" height="30" viewBox="0 0 109 30" fill="none" xmlns="http://www.w3.org/2000/svg">
<g clip-path="url(#clip0_543_15064)">
<path d="M23.9769 8.4359C25.0245 -0.660452 18.7747 0.0480257 18.7747 0.0480257C17.0187 0.232736 15.4195 0.880487 13.995 1.81163C13.5825 1.77368 13.1752 1.75343 12.7627 1.75343C5.71084 1.75343 0 7.46174 0 14.5086C0 17.7903 1.24743 20.7862 3.28936 23.0457C3.2008 27.3598 5.34142 28.9413 5.34142 28.9413C7.87929 30.963 11.5077 29.8243 14.7844 27.0967C20.8647 26.1301 25.5128 20.8621 25.5128 14.5111C25.5128 12.3123 24.9561 10.2476 23.9794 8.43843L23.9769 8.4359ZM5.85 28.0456C4.29388 27.0942 4.00543 24.8448 4.00543 24.8448C3.76252 23.1697 3.71698 21.3403 4.36726 19.1111H4.76451C4.53679 21.7958 5.11116 23.7289 6.46992 24.0401C8.10701 24.4095 10.4172 22.3803 12.3402 19.1542C11.4546 20.0473 10.4779 20.4901 9.72892 20.3054C8.04629 19.9082 7.74265 16.5353 9.04322 12.7728C9.52144 11.3634 9.96424 10.3969 10.6677 9.37969H14.1797C13.4332 10.2147 12.7096 11.2698 12.0998 12.411C11.4242 13.6432 10.9257 14.9868 10.6828 16.0773C10.364 17.426 10.4627 18.5115 11.0067 18.7923C11.7329 19.1516 12.9778 17.9573 13.8988 16.0773C14.0228 15.7889 14.1341 15.508 14.2455 15.2145C15.0273 13.1574 15.589 11.0547 15.7434 9.37969H18.3698C18.5773 6.25986 17.6183 4.14961 15.9509 3.78019C12.9626 3.10966 8.55234 7.90454 5.86013 14.4478H5.42492C5.66782 13.7773 6.03724 12.8614 6.03724 12.8614C6.1334 12.6463 6.23208 12.4261 6.33329 12.2111C9.25323 5.9208 14.9464 -0.0253523 19.4401 0.926032C20.8419 1.21954 21.9552 2.85157 21.8591 5.7285C20.9381 4.68096 19.7058 3.69163 18.3698 3.04387C19.4477 4.17997 19.9184 6.41421 19.2478 9.8984C18.9518 11.5659 18.4052 13.3497 17.5677 15.2474C14.8578 21.5326 10.24 26.1807 7.05948 25.9226C8.24871 26.5198 9.56698 26.912 11.0371 27.0208C8.38281 29.4853 5.85 28.0456 5.85 28.0456Z" fill="#0068D1"/>
</g>
<g clip-path="url(#clip1_543_15064)">
<path d="M63.3713 16.9732L63.184 18.5876H55.5928L55.7699 16.9732H52.6398L52.0097 22.9501C52.0097 22.9501 51.9085 23.4486 52.1109 23.6864C52.3108 23.9268 52.7486 23.9091 52.7486 23.9091H65.7473L66.4963 16.9707H63.3738L63.3713 16.9732ZM62.9158 22.1808H55.3169L55.489 20.3412H63.0929L62.9158 22.1808Z" fill="#001455"/>
<path d="M67.3023 9.61561L67.6212 6.52344H64.491L63.4688 16.0909H66.5913L67.0923 11.5514L69.7594 11.559L69.9846 9.61561H67.3023Z" fill="#001455"/>
<path d="M58.2418 7.44358L58.3962 6.02148H55.1623L55.0206 7.44358H50.5899L50.3672 9.50587H51.6273C51.0631 10.1764 50.6961 10.9431 50.6202 11.7832C50.352 14.2681 52.6446 16.2823 55.7342 16.2823C58.8238 16.2823 61.5415 14.2681 61.8021 11.7832C61.8882 10.9533 61.6857 10.1815 61.2733 9.51346H62.4879L62.703 7.47647V7.44611H58.2418V7.44358ZM55.9341 14.1669C54.4892 14.1669 53.4341 13.0586 53.5884 11.6896C53.7428 10.3207 55.0485 9.20475 56.4959 9.20475C57.9433 9.20475 58.9959 10.3207 58.8416 11.6896C58.6872 13.0586 57.3891 14.1669 55.9341 14.1669Z" fill="#001455"/>
<path d="M72.2772 12.7226L72.9174 6.82422H76.0324L75.5212 11.5941H87.6166L87.3864 13.8183H72.9807C72.9807 13.8183 72.5961 13.8335 72.3658 13.6032C72.1431 13.3881 72.2798 12.7252 72.2798 12.7252L72.2772 12.7226Z" fill="#001455"/>
<path d="M70.8043 15.8066L70.5664 18.0739H73.9951L73.3347 23.9824H76.4648L77.1177 18.0739H81.6952L81.0322 23.9824H84.051L84.714 18.0739H88.0086L88.2464 15.8066H70.8043Z" fill="#001455"/>
<path d="M39.8448 14.8367H44.2983L43.8403 18.9587H46.7908L48.1369 6.5293H45.1915L44.9916 8.47519H40.5457C39.569 7.30614 38.076 6.61533 36.33 6.61533C33.1063 6.6128 30.5151 8.83451 30.2089 11.5901C29.9053 14.3356 31.9929 16.5675 35.2166 16.5675C36.993 16.5675 38.6555 15.8994 39.8473 14.8367M41.4845 10.5147H44.769L44.5109 12.8073H41.2618C41.6768 11.6003 41.4845 10.5147 41.4845 10.5147ZM33.3391 11.6913C33.4858 10.2136 34.6574 8.93066 36.1934 8.93825C37.7167 8.93825 38.7466 10.2237 38.5973 11.6913C38.4632 13.1691 37.1018 14.3533 35.5709 14.3533C34.04 14.3533 33.1923 13.1615 33.3416 11.6913H33.3391Z" fill="#001455"/>
<path d="M35.935 22.0739L36.35 17.6912L33.2426 17.6836L32.6935 22.9747C32.6935 22.9747 32.605 23.4276 32.8757 23.6984C33.144 23.9666 33.5817 23.9059 33.5817 23.9059H46.5653L46.7905 22.0764H35.935V22.0739Z" fill="#001455"/>
<path d="M107.548 22.35L107.763 20.2422H89.6885L89.4531 22.35H107.548Z" fill="#001455"/>
<path d="M97.9762 6.54492C97.9762 6.54492 97.3537 13.5744 90.8075 14.245L90.5469 16.4363C90.5469 16.4363 96.7464 16.1985 99.5071 10.9833C99.5071 10.9833 101.42 15.4216 107.506 16.5527L107.713 14.4373C107.713 14.4373 102.222 14.0982 101.552 6.54492H97.9762Z" fill="#001455"/>
</g>
<defs>
<clipPath id="clip0_543_15064">
<rect width="26.125" height="29.9348" fill="white" transform="translate(0 0.0351562)"/>
</clipPath>
<clipPath id="clip1_543_15064">
<rect width="77.5902" height="17.9609" fill="white" transform="translate(30.1758 6.02148)"/>
</clipPath>
</defs>
</svg>
