<svg width="103" height="39" viewBox="0 0 103 39" fill="none" xmlns="http://www.w3.org/2000/svg">
<g clip-path="url(#clip0_3472_8495)">
<path d="M0 15.1889C0 11.1285 3.46831 7.66016 7.52877 7.66016C11.0958 7.66016 13.3751 9.93947 14.0659 12.3175L10.9971 12.7122C10.4002 11.5232 9.31463 10.4329 7.43008 10.4329C5.15077 10.4329 3.06885 12.5149 3.06885 15.1889C3.06885 17.863 5.15077 19.9449 7.43008 19.9449C9.51201 19.9449 10.701 18.7559 11.3919 17.3695L14.4607 17.7643C13.7699 20.241 11.2885 22.7177 7.52408 22.7177C3.46831 22.7177 0 19.2494 0 15.1889Z" fill="white"/>
<path d="M16.5289 10.7289H15.2412V8.2522H19.3017V22.1207H16.5289V10.7289Z" fill="white"/>
<path d="M24.4857 12.6138H21.7129V22.1258H24.4857V12.6138Z" fill="white"/>
<path d="M24.4857 8.2522H21.7129V10.7289H24.4857V8.2522Z" fill="white"/>
<path d="M26.4023 17.3693C26.4023 14.5965 28.7803 12.2185 31.4544 12.2185C34.1285 12.2185 35.7123 13.901 36.1117 15.4894L33.339 15.8842C33.0429 15.2921 32.446 14.6952 31.4544 14.6952C30.2654 14.6952 29.1751 15.7855 29.1751 17.3693C29.1751 18.953 30.2654 20.0434 31.4544 20.0434C32.5447 20.0434 33.2356 19.3525 33.5364 18.5583L36.3091 18.953C35.9144 20.8376 34.2272 22.52 31.4544 22.52C28.6817 22.52 26.4023 20.142 26.4023 17.3693Z" fill="white"/>
<path d="M44.5373 22.1256L41.5296 18.3612H40.773V22.1256H38.0049V8.25708H40.773V15.5791H41.1536L43.9687 12.623H47.2443L43.4376 16.8198L47.6391 22.1256H44.5373Z" fill="white"/>
<path d="M65.2963 5.46509H52.4946C51.6816 5.46509 51.0283 6.12303 51.0283 6.93137V22.6375C51.0283 23.4505 51.6863 24.1037 52.4946 24.1037H65.2963C66.1094 24.1037 66.7626 23.4458 66.7626 22.6375V6.93607C66.7626 6.12303 66.1047 5.46979 65.2963 5.46979V5.46509ZM63.3648 21.19H54.4214V9.71354H63.3131V12.1479H57.2506V14.3051H62.8196V16.5985H57.2506V18.7556H63.3648V21.19Z" fill="white"/>
<path d="M83.0336 0.610596H70.2319C69.4189 0.610596 68.7656 1.26854 68.7656 2.07687V22.6377C68.7656 23.4507 69.4236 24.1039 70.2319 24.1039H83.0336C83.8467 24.1039 84.4999 23.446 84.4999 22.6377V2.07687C84.4999 1.26384 83.842 0.610596 83.0336 0.610596ZM80.1528 20.4711C79.2505 21.1244 78.1272 21.4487 76.7785 21.4487C75.4297 21.4487 74.3065 21.1432 73.3759 20.5322C72.4454 19.9213 71.905 19.066 71.7593 17.971L74.673 17.407C74.9456 18.5396 75.7022 19.1036 76.9335 19.1036C77.4599 19.1036 77.8735 18.9955 78.1742 18.7793C78.475 18.5631 78.6301 18.2764 78.6301 17.924C78.6301 17.6514 78.5549 17.4305 78.3998 17.2707C78.2447 17.1109 77.9675 16.9887 77.568 16.9088L75.1712 16.3966C73.1175 15.9266 72.0882 14.8222 72.0882 13.074C72.0882 11.9649 72.5065 11.086 73.3383 10.4375C74.1702 9.78893 75.2699 9.45996 76.6281 9.45996C77.8829 9.45996 78.9356 9.75604 79.7815 10.3435C80.6274 10.9309 81.1585 11.744 81.3747 12.7826L78.5972 13.3465C78.4938 12.8343 78.2541 12.4348 77.8782 12.1575C77.5022 11.8756 77.0745 11.7393 76.5952 11.7393C76.1158 11.7393 75.768 11.8521 75.4814 12.0729C75.1947 12.2938 75.0537 12.5711 75.0537 12.9048C75.0537 13.4076 75.3639 13.7272 75.9795 13.8635L78.3622 14.3946C80.463 14.8645 81.5157 15.9783 81.5157 17.736C81.5157 18.9109 81.0645 19.8273 80.1622 20.4758L80.1528 20.4711Z" fill="white"/>
<path d="M100.769 4.00806H87.9673C87.1542 4.00806 86.501 4.666 86.501 5.47433V22.6373C86.501 23.4503 87.1589 24.1036 87.9673 24.1036H100.769C101.582 24.1036 102.235 23.4456 102.235 22.6373V5.47903C102.235 4.666 101.577 4.01276 100.769 4.01276V4.00806ZM98.7529 19.7611C97.6344 20.8844 96.2104 21.4483 94.4856 21.4483C92.7609 21.4483 91.2852 20.8703 90.0915 19.7189C88.8978 18.5674 88.3009 17.1435 88.3009 15.4516C88.3009 13.7597 88.8931 12.3546 90.0727 11.1938C91.257 10.033 92.7092 9.4549 94.4339 9.4549C95.7498 9.4549 96.9106 9.75568 97.9304 10.3525C98.7482 10.8319 99.3544 11.4804 99.768 12.2794L97.0986 13.318C96.5205 12.4674 95.637 12.0397 94.4386 12.0397C93.5034 12.0397 92.7186 12.364 92.0935 13.0172C91.4638 13.6658 91.1489 14.4788 91.1489 15.4516C91.1489 16.4244 91.4732 17.2375 92.117 17.8907C92.7609 18.5486 93.5645 18.8776 94.5232 18.8776C95.2658 18.8776 95.9002 18.6943 96.4313 18.3278C96.9623 17.9612 97.3383 17.4583 97.5545 16.8192H94.0439V14.4224H100.365C100.412 14.789 100.435 15.1367 100.435 15.4657C100.435 17.1999 99.8761 18.6332 98.7576 19.7564L98.7529 19.7611Z" fill="white"/>
</g>
<path d="M10.718 34.5547H13.7873V33.493H10.718V31.5738H14.0323V30.5054H9.45215V37.5559H14.0527V36.4875H10.718V34.5547Z" fill="white"/>
<path d="M19.375 33.936C19.0756 33.7726 18.7217 33.6433 18.327 33.548L17.6668 33.3847C17.3061 33.2962 17.0135 33.1805 16.7957 33.0308C16.5711 32.8811 16.4623 32.6769 16.4691 32.4115C16.4691 32.2346 16.5235 32.078 16.6256 31.9351C16.7277 31.7922 16.8774 31.6833 17.0679 31.6085C17.2585 31.5336 17.4899 31.4928 17.7485 31.4928C18.0071 31.4928 18.2249 31.5336 18.4223 31.6085C18.6128 31.6833 18.7693 31.7922 18.885 31.9351C19.0007 32.078 19.0688 32.2482 19.0892 32.4523H20.3142C20.3074 32.0576 20.1985 31.7037 19.9807 31.3975C19.7629 31.0912 19.4703 30.853 19.0892 30.6761C18.7081 30.506 18.2725 30.4175 17.7757 30.4175C17.2789 30.4175 16.8434 30.506 16.4486 30.6761C16.0539 30.853 15.7477 31.098 15.5231 31.4111C15.2985 31.7241 15.1896 32.0848 15.1896 32.4932C15.1896 32.9832 15.3461 33.3847 15.6728 33.691C15.9995 33.9972 16.4623 34.2286 17.0679 34.3851L17.871 34.5893C18.15 34.6642 18.3814 34.739 18.5652 34.8207C18.7489 34.9023 18.885 35.0044 18.9871 35.1269C19.0892 35.2494 19.1368 35.3992 19.1436 35.5693C19.1436 35.7667 19.0824 35.9436 18.9599 36.1001C18.8442 36.2499 18.6741 36.3724 18.4631 36.454C18.2521 36.5357 18.0071 36.5833 17.7281 36.5833C17.4491 36.5833 17.2109 36.5425 16.9999 36.4608C16.7821 36.3792 16.612 36.2567 16.4759 36.0933C16.3466 35.93 16.2717 35.7258 16.2513 35.4876H15.0059C15.0263 35.9504 15.1488 36.3451 15.3734 36.6718C15.5979 36.9985 15.911 37.2503 16.3193 37.4136C16.7209 37.5837 17.1973 37.6654 17.7417 37.6654C18.2861 37.6654 18.7761 37.5769 19.1777 37.4068C19.5792 37.2367 19.8855 36.9849 20.0964 36.6718C20.3074 36.3587 20.4163 35.9912 20.4163 35.5829C20.4163 35.195 20.321 34.8615 20.1305 34.5893C19.9399 34.3171 19.6949 34.0993 19.3954 33.9428L19.375 33.936Z" fill="white"/>
<path d="M24.6694 34.868H26.2959C26.2959 35.1879 26.2211 35.4737 26.085 35.7187C25.9421 35.9705 25.7379 36.1679 25.4725 36.3108C25.2071 36.4469 24.9008 36.5218 24.5401 36.5218C24.1454 36.5218 23.7983 36.4265 23.4921 36.2292C23.1926 36.0318 22.9544 35.7528 22.7911 35.3785C22.6277 35.0042 22.5393 34.555 22.5393 34.031C22.5393 33.5069 22.6209 33.0646 22.7911 32.6971C22.9612 32.3228 23.1926 32.0437 23.4852 31.8464C23.7847 31.6558 24.1182 31.5537 24.5061 31.5537C24.7851 31.5537 25.0369 31.6014 25.2615 31.6967C25.4861 31.7919 25.6698 31.928 25.8264 32.1118C25.9761 32.2887 26.0918 32.5065 26.1734 32.7583H27.4665C27.3916 32.3023 27.2215 31.894 26.9493 31.5401C26.6771 31.1862 26.33 30.9072 25.9012 30.7098C25.4725 30.5125 25.0097 30.4104 24.4925 30.4104C23.8732 30.4104 23.3219 30.5533 22.8387 30.846C22.3487 31.1386 21.9676 31.5537 21.6886 32.105C21.4095 32.6494 21.2734 33.296 21.2734 34.0378C21.2734 34.7796 21.4095 35.4057 21.6818 35.9569C21.954 36.5014 22.3351 36.9233 22.8251 37.216C23.3151 37.5086 23.8868 37.6515 24.5333 37.6515C25.1118 37.6515 25.629 37.5358 26.0782 37.2908C26.5341 37.0526 26.888 36.7124 27.1398 36.2632C27.3916 35.8208 27.5209 35.2968 27.5209 34.7047V33.8608H24.6626V34.8544L24.6694 34.868Z" fill="white"/>
<path d="M34.8091 32.3225C34.8636 32.2068 34.9112 32.0911 34.9589 31.9754H36.9733V32.9282H34.8772V33.7993H36.9733V34.7725H38.0554V29.6343H36.9733V31.1179H35.1971C35.2447 30.8389 35.2787 30.5462 35.2787 30.2468H31.243V31.1247H34.1014C34.0537 31.4854 33.938 31.8189 33.7543 32.1319C33.5025 32.5539 33.135 32.9214 32.6314 33.248C32.1346 33.5679 31.5152 33.8333 30.7734 34.0375L31.2022 34.8882C32.0869 34.6432 32.8287 34.3029 33.4276 33.8809C34.0333 33.4522 34.4893 32.935 34.8023 32.3225H34.8091Z" fill="white"/>
<path d="M36.7014 35.0855C36.2523 34.9426 35.735 34.8745 35.1429 34.8745C34.5509 34.8745 34.02 34.9426 33.5709 35.0855C33.1217 35.2284 32.7746 35.4326 32.5296 35.6912C32.2846 35.9566 32.1621 36.2628 32.1621 36.6167C32.1621 36.9706 32.2846 37.2837 32.5296 37.5491C32.7746 37.8145 33.1217 38.0187 33.5709 38.1616C34.02 38.3045 34.5441 38.3726 35.1429 38.3726C35.7418 38.3726 36.2523 38.3045 36.7014 38.1616C37.1506 38.0187 37.4977 37.8145 37.7427 37.5491C37.9877 37.2837 38.117 36.9706 38.117 36.6167C38.117 36.2628 37.9945 35.9566 37.7427 35.6912C37.4977 35.4258 37.1506 35.2284 36.7014 35.0855ZM36.8035 37.1067C36.6538 37.2429 36.436 37.3449 36.1502 37.413C35.8643 37.481 35.5309 37.5151 35.1429 37.5151C34.755 37.5151 34.4079 37.481 34.1221 37.413C33.8363 37.3449 33.6185 37.2429 33.4688 37.1067C33.3191 36.9706 33.2442 36.8073 33.2442 36.6167C33.2442 36.4262 33.3191 36.2628 33.4688 36.1267C33.6185 35.9906 33.8363 35.8953 34.1221 35.8205C34.4079 35.7524 34.7482 35.7184 35.1429 35.7184C35.5309 35.7184 35.8643 35.7524 36.1502 35.8205C36.4292 35.8885 36.647 35.9906 36.8035 36.1267C36.96 36.2628 37.0349 36.4194 37.0349 36.6167C37.0349 36.8073 36.9532 36.9706 36.8035 37.1067Z" fill="white"/>
<path d="M45.2901 35.1878C44.8409 35.0517 44.3101 34.9836 43.6976 34.9836C43.0851 34.9836 42.5542 35.0517 42.1051 35.1878C41.6559 35.3239 41.3088 35.5213 41.0638 35.7731C40.8256 36.0317 40.7031 36.338 40.7031 36.6986C40.7031 37.0593 40.8256 37.3588 41.0638 37.6174C41.302 37.876 41.6491 38.0734 42.1051 38.2095C42.561 38.3456 43.0851 38.4136 43.6976 38.4136C44.3101 38.4136 44.8409 38.3456 45.2901 38.2095C45.7392 38.0734 46.0863 37.876 46.3313 37.6174C46.5763 37.3588 46.6988 37.0525 46.6988 36.6986C46.6988 36.3448 46.5763 36.0317 46.3313 35.7731C46.0863 35.5145 45.7392 35.3171 45.2901 35.1878ZM45.4126 37.1682C45.2629 37.2975 45.0383 37.3996 44.7524 37.4609C44.4598 37.5289 44.1127 37.5561 43.6976 37.5561C43.2892 37.5561 42.9422 37.5289 42.6495 37.4609C42.3569 37.3928 42.1391 37.2975 41.9894 37.1682C41.8397 37.0389 41.7648 36.8824 41.7648 36.6986C41.7648 36.5081 41.8397 36.3448 41.9894 36.2155C42.1391 36.0861 42.3637 35.9841 42.6495 35.916C42.9353 35.848 43.2892 35.8139 43.6976 35.8139C44.1059 35.8139 44.4666 35.848 44.7524 35.916C45.0383 35.9841 45.2629 36.0861 45.4126 36.2155C45.5623 36.3448 45.6372 36.5081 45.6372 36.6986C45.6372 36.8892 45.5623 37.0389 45.4126 37.1682Z" fill="white"/>
<path d="M42.9219 34.0989C43.1397 33.99 43.3166 33.8403 43.4732 33.677H45.5965V34.7931H46.6786V29.6208H45.5965V30.8186H43.48C43.3166 30.6485 43.1397 30.4988 42.9219 30.3831C42.568 30.1993 42.1801 30.1108 41.7514 30.1108C41.3226 30.1108 40.9143 30.1993 40.5604 30.3831C40.2065 30.5668 39.9275 30.8186 39.7301 31.1385C39.5259 31.4652 39.4307 31.8327 39.4307 32.241C39.4307 32.6425 39.5259 33.01 39.7301 33.3367C39.9343 33.6634 40.2065 33.9152 40.5604 34.0989C40.9143 34.2827 41.309 34.3711 41.7514 34.3711C42.1801 34.3711 42.5748 34.2827 42.9219 34.0989ZM45.5965 32.8059H43.9836C44.0312 32.6289 44.0584 32.4452 44.0584 32.2478C44.0584 32.0504 44.0312 31.8667 43.9836 31.6897H45.5965V32.8059ZM40.6216 32.8807C40.5127 32.697 40.4583 32.486 40.4583 32.2478C40.4583 32.0096 40.5127 31.7918 40.6216 31.6081C40.7305 31.4243 40.8803 31.2882 41.0776 31.1861C41.275 31.0909 41.4996 31.0364 41.7446 31.0432C41.9896 31.0432 42.2073 31.0909 42.3979 31.1861C42.5884 31.2882 42.7382 31.4243 42.8471 31.6081C42.9559 31.7918 43.0104 32.0028 43.0104 32.2478C43.0104 32.4928 42.9559 32.697 42.8471 32.8807C42.7382 33.0645 42.5884 33.2074 42.3911 33.3095C42.2005 33.4115 41.9828 33.4592 41.7378 33.4592C41.4859 33.4592 41.2682 33.4115 41.0708 33.3095C40.8734 33.2074 40.7237 33.0645 40.6148 32.8875L40.6216 32.8807Z" fill="white"/>
<path d="M50.2315 35.6235H49.1426V37.3726V37.6516V38.2505H55.2199V37.3726H50.2315V35.6235Z" fill="white"/>
<path d="M51.734 32.0507C51.7067 32.4046 51.6455 32.8198 51.557 33.2961L52.6255 33.3914C52.714 32.9218 52.7684 32.4931 52.7956 32.112C52.8229 31.7309 52.8365 31.3157 52.8433 30.8734V30.2881H48.3584V31.1796H51.7748C51.768 31.4927 51.7544 31.7853 51.734 32.0575V32.0507Z" fill="white"/>
<path d="M54.9414 29.6272H53.8389V36.215H54.9414V33.275H56.0779V32.363H54.9414V29.6272Z" fill="white"/>
<path d="M53.3814 34.5893L53.3202 33.8067C52.5239 33.9224 51.68 33.9972 50.7749 34.0313C50.7273 34.0313 50.666 34.0313 50.6116 34.0313V32.2822H49.5363V34.0653C48.9918 34.0789 48.4202 34.0857 47.8213 34.0857L47.9166 34.95C48.9374 34.95 49.897 34.9228 50.7953 34.8751C51.6937 34.8275 52.5512 34.7322 53.3678 34.5893H53.3814Z" fill="white"/>
<path d="M60.0373 35.3986C59.4657 35.4394 58.8259 35.453 58.1454 35.4598V33.6972H61.167V30.3965H57.0225V31.2744H60.0645V32.8397H57.0293V36.3582H57.7983C58.6626 36.3582 59.4316 36.3377 60.1122 36.2901C60.7927 36.2493 61.4869 36.1608 62.1879 36.0451L62.0926 35.1604C61.3848 35.2761 60.6975 35.3577 60.0305 35.4054L60.0373 35.3986Z" fill="white"/>
<path d="M63.8761 29.6279H62.8008V38.4411H63.8761V29.6279Z" fill="white"/>
<path d="M75.5472 33.405H67.5303V34.2625H75.5472V33.405Z" fill="white"/>
<path d="M69.545 36.9368H74.5471V34.8542H68.4766V35.6369H73.4787V36.1949H68.4834V37.5424V37.8555V38.3455H74.7921V37.5424H69.545V36.9368Z" fill="white"/>
<path d="M69.4633 32.0299H68.2996V32.8466H74.7649V32.0299H73.6011V30.6892H74.8125V29.8726H68.252V30.6892H69.4633V32.0299ZM72.5122 32.0299H70.5386V30.6892H72.5122V32.0299Z" fill="white"/>
<path d="M79.373 34.6501C79.6996 34.6161 80.0331 34.5617 80.3734 34.4936L80.2713 33.6429C79.7881 33.7382 79.3049 33.8063 78.8421 33.8403C78.4814 33.8675 78.0595 33.8811 77.5763 33.8879V32.8739H79.8561V30.2742H76.5078V31.1453H78.8081V32.0913H76.5214V34.7454H77.1203C77.6103 34.7454 78.0255 34.7454 78.3657 34.7318C78.706 34.7182 79.0395 34.6978 79.3662 34.6638L79.373 34.6501Z" fill="white"/>
<path d="M81.7269 32.6968H82.6457V35.5687H83.6733V29.6343H82.6457V31.8189H81.7269V29.7908H80.7197V34.8269H81.7269V32.6968Z" fill="white"/>
<path d="M81.5568 36.3111C81.3186 36.0116 81.2029 35.6849 81.2029 35.3515V35.1677H80.1209V35.3515C80.1209 35.6918 79.9983 36.0116 79.7602 36.3111C79.522 36.6173 79.1885 36.8759 78.7461 37.0937C78.3038 37.3115 77.8002 37.4612 77.2217 37.5361L77.6572 38.3731C78.3174 38.2779 78.9095 38.0805 79.4199 37.8015C79.9303 37.5225 80.3318 37.1686 80.6177 36.7466C80.6313 36.7194 80.6449 36.699 80.6585 36.6718C80.6721 36.699 80.6857 36.7262 80.7061 36.7466C80.992 37.1686 81.3867 37.5225 81.8971 37.8015C82.4075 38.0805 82.9996 38.2711 83.6666 38.3731L84.1021 37.5361C83.5236 37.4612 83.0132 37.3115 82.5709 37.0937C82.1285 36.8759 81.795 36.6173 81.5568 36.3111Z" fill="white"/>
<path d="M85.7158 38.3114H91.8136V35.4871H85.7158V38.3114ZM86.7843 36.331H90.7655V37.4335H86.7843V36.331Z" fill="white"/>
<path d="M89.3088 33.9492V33.1393H92.0039V32.2682H90.8401V30.7642H92.0515V29.8931H85.4909V30.7642H86.7023V32.2682H85.5386V33.1393H88.22V33.9492H84.7695V34.8067H92.7865V33.9492H89.3088ZM87.7776 30.7574H89.7512V32.2614H87.7776V30.7574Z" fill="white"/>
<defs>
<clipPath id="clip0_3472_8495">
<rect width="102.24" height="37.6007" fill="white" transform="translate(0 0.840088)"/>
</clipPath>
</defs>
</svg>
