<svg width="75" height="38" viewBox="0 0 75 38" fill="none" xmlns="http://www.w3.org/2000/svg">
<g id="sk magic ci" clip-path="url(#clip0_14720_7530)">
<path id="Vector" d="M6.46731 25.2391C5.24878 24.6646 4.24228 24.2043 4.24228 23.27C4.24228 22.5573 4.81456 22.036 5.94266 22.036C6.35812 22.036 6.69632 22.0866 7.04719 22.1492C7.23136 22.1829 7.42744 22.2105 7.58806 22.2105C8.5753 22.2105 9.12959 21.621 9.50199 20.5041L9.65475 20.0519C9.49515 19.987 7.88572 19.2774 5.78534 19.2774C2.4464 19.2774 0.683203 21.4211 0.683203 23.6446C0.683203 24.7661 1.03356 25.575 1.58355 26.2167C2.29086 27.0418 3.30191 27.5797 4.24608 28.0395C5.62118 28.7156 6.86276 29.2154 6.86276 30.2161C6.86276 31.104 5.94646 31.6084 4.71956 31.6084C3.03946 31.6084 1.56936 30.6496 1.38215 30.534L0.000976562 33.1193C0.247217 33.2581 2.02384 34.3872 4.95187 34.3872C8.06863 34.3857 10.4287 32.5979 10.4287 29.846C10.4287 27.11 8.24318 26.0972 6.46731 25.2391ZM18.6638 26.5157L24.3189 19.5827H20.2879L15.7781 25.5631H15.7102V19.5829H12.389V34.2674H12.5866C14.0222 34.2674 15.7332 33.6049 15.7332 31.2051V27.834H15.7996L20.3968 34.0875H24.6252L18.6638 26.5157ZM24.5067 3.84766C23.3368 4.06856 21.6019 5.13028 21.6078 7.00622C21.6154 8.70963 23.0062 9.74602 23.0107 11.9764C23.0188 13.6575 22.0921 14.7871 21.0915 15.4161C21.4943 15.3812 21.9391 15.3579 22.4271 15.3558C23.448 15.352 24.0664 15.4496 24.1016 15.4579L29.3501 9.02072C27.8912 6.83826 26.1916 5.14599 24.5067 3.84766ZM28.9131 21.2283C29.5751 20.2039 29.6564 18.5651 29.7117 16.8953C29.7742 15.3401 30.0998 14.1687 32.1852 14.1614C32.6432 14.1583 33.0812 14.2232 33.8782 14.2217C36.9271 14.2054 38.9208 13.1577 40.1586 12.4661C37.6253 10.8543 33.9332 9.20515 29.3501 9.02072C29.0494 9.86179 26.7264 16.3215 26.5539 16.8429C26.5769 16.8743 26.9853 17.3288 27.494 18.2198C28.2433 19.4403 28.6461 20.477 28.9131 21.2283Z" fill="#E1002A"/>
<path id="Vector_2" d="M17.8344 15.9552C17.5681 15.9582 17.4359 15.7806 17.3986 15.4754C17.3657 15.1696 16.0555 3.16895 15.8594 1.35204C15.8303 1.08579 15.7646 0.601418 15.7646 0.426871C15.7646 0.146938 15.945 4.88922e-06 16.1616 4.88922e-06C16.7823 -0.00227511 20.1699 0.792431 23.7626 3.31006C22.73 3.60468 20.8549 4.68008 20.8645 6.91322C20.8721 8.88542 22.2832 9.97247 22.2908 11.9528C22.3047 15.1754 18.5984 15.9529 17.8346 15.9554M29.2151 22.0871C29.2711 22.2379 29.3233 22.3607 29.3785 22.4512C29.4576 22.5905 29.5673 22.6571 29.6995 22.6548C29.7839 22.6526 29.8844 22.6257 29.9984 22.5728C30.2756 22.4481 41.2312 17.3483 42.8827 16.5865C43.1201 16.4707 43.5768 16.2686 43.7258 16.1812C43.8803 16.09 43.952 15.9641 43.952 15.8313C43.952 15.7573 43.9295 15.6826 43.8887 15.6155C43.681 15.2811 42.623 14.1575 40.8495 12.9271C39.443 13.7038 37.246 14.9016 33.9801 14.9127C33.1765 14.915 32.9966 14.8605 32.4469 14.8621C30.8537 14.8686 30.4547 15.5521 30.3964 16.949C30.3888 17.2145 30.3853 17.5689 30.3673 17.9593C30.3166 19.2098 30.1679 20.935 29.2151 22.0871ZM41.8737 25.933C40.1186 25.933 39.2213 27.0902 39.0741 27.2597C38.6333 26.427 37.8191 25.933 36.749 25.933C35.2075 25.933 34.3271 26.8298 34.1815 26.9739C34.1194 26.7322 33.8032 26.0791 32.8041 26.0791C32.5183 26.0791 32.096 26.1678 32.0601 26.1807C32.1019 26.3672 32.2914 27.2805 32.2914 28.5393V34.0893H34.3226V28.4319C34.3629 28.3977 35.1231 27.6275 36.0341 27.6275C36.9654 27.6275 37.4026 28.3095 37.4026 29.2407V34.0895H39.4427V28.4316C39.4822 28.3921 40.229 27.6273 41.1537 27.6273C42.0834 27.6273 42.5065 28.3092 42.5065 29.2405V34.0893H44.559V28.9241C44.559 27.111 43.5272 25.933 41.8737 25.933ZM65.7752 23.6433C65.7752 24.3185 65.2095 24.8685 64.5118 24.8685C63.8134 24.8685 63.2525 24.3187 63.2525 23.6433C63.2525 22.9634 63.8134 22.4129 64.5118 22.4129C65.2095 22.4129 65.7752 22.9634 65.7752 23.6433ZM65.5282 34.0895H63.4957V26.1085H65.5282V34.0895ZM50.5483 32.0844C50.426 32.1553 49.8775 32.6499 49.059 32.6499C48.357 32.6499 47.8235 32.2237 47.8235 31.5195C47.8235 30.9241 48.3965 30.4068 49.4985 30.4068H50.5483V32.0844ZM50.7244 33.2865C50.867 33.6589 51.2095 34.0893 51.9184 34.0893C52.2973 34.0893 52.7832 33.9923 52.8615 33.9601C52.8002 33.7296 52.6138 33.1028 52.6138 31.7029V28.902C52.6138 26.8232 51.2767 25.933 49.2105 25.933C47.4696 25.933 46.228 26.7664 46.0856 26.8627C46.0856 26.8627 46.1684 27.0051 46.2237 27.112C46.3975 27.4074 46.5535 27.8423 47.0637 27.8423C47.5704 27.8423 48.0023 27.453 48.9703 27.453C50.0328 27.453 50.5486 27.9693 50.5486 28.7571V29.0355H49.8805C47.1554 29.0355 45.7221 30.0899 45.7221 31.7814C45.7221 33.2766 46.8608 34.2699 48.433 34.2699C49.9327 34.2699 50.5947 33.3977 50.7244 33.2865ZM61.7543 26.4581C61.6116 26.4054 60.0073 25.9292 58.4001 25.9292C56.0236 25.9292 54.0276 27.3934 54.0276 30.0922C54.0276 32.7091 55.9124 34.2603 58.4001 34.2603C58.906 34.2603 59.6529 34.1924 59.7261 34.1797V34.6877C59.7261 35.5855 58.9283 36.4914 57.7113 36.4914C56.7816 36.4914 56.398 36.1616 55.9279 36.1616C55.4065 36.1616 55.255 36.6062 55.0832 36.898C55.026 36.9963 54.8806 37.259 54.8806 37.259C55.0169 37.3368 56.1645 38 57.6733 38C60.0714 38 61.754 36.3913 61.754 34.1483L61.7543 26.4581ZM59.7261 32.4837C59.6678 32.4986 59.0335 32.5941 58.5268 32.5941C57.0912 32.5941 56.0489 31.6517 56.0489 30.0922C56.0489 28.6401 56.9736 27.5948 58.5268 27.5948C58.9641 27.5948 59.6663 27.6873 59.7261 27.7V32.4837ZM71.4367 32.6205C70.0555 32.6205 69.069 31.5281 69.069 30.1036C69.069 28.5165 70.1905 27.5718 71.4344 27.5718C72.1052 27.5718 72.3902 27.7777 72.8341 27.7777C73.3088 27.7777 73.5611 27.5442 73.7967 27.0897C73.9267 26.8346 74.0019 26.6907 74.0019 26.6907C73.9011 26.6256 72.8746 25.9294 71.1268 25.9294C68.5661 25.9294 67.035 27.7613 67.035 30.1036C67.035 32.6597 68.7863 34.2633 71.1268 34.2633C72.8229 34.2633 73.8512 33.5717 74.0311 33.4418L73.3268 32.0525C73.173 32.1518 72.4462 32.6205 71.4367 32.6205Z" fill="#EE7601"/>
</g>
<defs>
<clipPath id="clip0_14720_7530">
<rect width="74.0293" height="38" fill="white"/>
</clipPath>
</defs>
</svg>
