<svg width="157" height="36" viewBox="0 0 157 36" fill="none" xmlns="http://www.w3.org/2000/svg">
<g id="&#236;&#151;&#148;&#236;&#189;&#148;&#236;&#149;&#132; ci" clip-path="url(#clip0_14720_4031)">
<g id="Group">
<path id="Vector" d="M47.0249 19.2382C47.1134 21.3569 48.3375 22.7582 50.4846 22.7582C51.7069 22.7582 52.9009 22.1913 53.3774 21.0575H58.1214C57.1967 24.6359 53.8858 26.1877 50.4243 26.1877C45.3845 26.1877 41.9531 23.1461 41.9531 17.9575C41.9531 13.2152 45.7423 9.81396 50.3057 9.81396C55.8539 9.81396 58.6281 13.9893 58.3907 19.24H47.0249V19.2382ZM53.3189 16.4039C53.2286 14.6731 52.0063 13.2418 50.3057 13.2418C48.5165 13.2418 47.3242 14.5243 47.0249 16.4039H53.3189Z" fill="white"/>
<path id="Vector_2" d="M59.7733 10.2604H64.6944V12.3773H64.7547C65.6776 10.7971 67.7662 9.81396 69.6156 9.81396C74.7759 9.81396 75.194 13.5713 75.194 15.8087V25.7413H70.1222V18.2551C70.1222 16.1364 70.3614 13.9893 67.5872 13.9893C65.6776 13.9893 64.8432 15.6014 64.8432 17.302V25.7431H59.7715V10.2604H59.7733Z" fill="white"/>
<path id="Vector_3" d="M98.9505 15.9273C98.9204 14.6147 97.7565 13.69 96.474 13.69C93.6414 13.69 93.1932 16.1063 93.1932 18.2551C93.1932 20.2533 94.0577 22.31 96.2065 22.31C97.9656 22.31 98.8602 21.2967 99.0993 19.6563H104.022C103.576 23.8016 100.354 26.1877 96.2366 26.1877C91.5829 26.1877 88.125 22.9955 88.125 18.2551C88.125 13.5146 91.2552 9.81396 96.2366 9.81396C100.084 9.81396 103.517 11.8423 103.873 15.9291H98.9505V15.9273Z" fill="white"/>
<path id="Vector_4" d="M122.441 10.2605H127.362V12.9744H127.421C128.167 11.0045 129.896 9.96289 132.075 9.96289C132.462 9.96289 132.881 9.99123 133.267 10.0816V14.7051C132.611 14.5262 132.014 14.4075 131.327 14.4075C128.822 14.4075 127.509 16.1383 127.509 18.0763V25.7432H122.439V10.2605H122.441Z" fill="white"/>
<path id="Vector_5" d="M138.574 19.2382C138.664 21.3569 139.886 22.7582 142.033 22.7582C143.258 22.7582 144.45 22.1913 144.926 21.0575H149.67C148.744 24.6359 145.433 26.1877 141.975 26.1877C136.933 26.1877 133.504 23.1461 133.504 17.9575C133.504 13.2152 137.291 9.81396 141.856 9.81396C147.405 9.81396 150.179 13.9893 149.94 19.24H138.574V19.2382ZM144.868 16.4039C144.777 14.6731 143.555 13.2418 141.855 13.2418C140.064 13.2418 138.871 14.5243 138.574 16.4039H144.868Z" fill="white"/>
<path id="Vector_6" d="M78.6406 18C78.6406 16.3561 79.9745 15.0239 81.6185 15.0239C83.2624 15.0239 84.5946 16.3579 84.5946 18C84.5946 19.6422 83.2606 20.9779 81.6185 20.9761C79.9745 20.9761 78.6406 19.6439 78.6406 18Z" fill="white"/>
<path id="Vector_7" d="M113.044 9.73608C117.846 9.73608 121.217 13.2861 121.217 17.9398C121.217 22.5935 117.846 26.1134 113.044 26.1134C108.241 26.1134 104.9 22.5935 104.9 17.9398C104.9 13.2861 108.241 9.73608 113.044 9.73608ZM113.044 22.2339C115.402 22.2339 116.146 19.9061 116.146 17.9398C116.146 15.9735 115.402 13.6156 113.044 13.6156C110.686 13.6156 109.972 15.9699 109.972 17.9398C109.972 19.9097 110.688 22.2339 113.044 22.2339Z" fill="white"/>
</g>
<g id="Group_2">
<path id="Vector_8" d="M17.9998 0C8.05828 0 -0.000183105 8.05846 -0.000183105 18C-0.000183105 27.9415 8.05828 36 17.9998 36C27.9414 36 35.9998 27.9398 35.9998 18C35.9998 8.06023 27.9414 0 17.9998 0ZM17.9998 24.4783C14.4214 24.4783 11.5197 21.5784 11.5197 17.9982C11.5197 14.4181 14.4214 11.5182 17.9998 11.5182C21.5782 11.5182 24.4799 14.4198 24.4799 17.9982C24.4799 21.5766 21.5782 24.4783 17.9998 24.4783Z" fill="url(#paint0_linear_14720_4031)"/>
<path id="Vector_9" d="M17.9998 11.5199C21.1796 11.5199 23.7589 8.94066 23.7589 5.76085C23.7589 2.58104 21.1796 0 17.9998 0H17.9945C8.05651 0.00354296 -0.000183105 8.06023 -0.000183105 18C-0.000183105 27.9398 8.05828 36 17.9998 36V24.4801C14.4214 24.4801 11.5197 21.5784 11.5197 18C11.5197 14.4216 14.4214 11.5199 17.9998 11.5199Z" fill="url(#paint1_linear_14720_4031)"/>
</g>
</g>
<defs>
<linearGradient id="paint0_linear_14720_4031" x1="17.9998" y1="0.340124" x2="17.9998" y2="23.9717" gradientUnits="userSpaceOnUse">
<stop stop-color="#00534D"/>
<stop offset="1" stop-color="#007378"/>
</linearGradient>
<linearGradient id="paint1_linear_14720_4031" x1="11.8794" y1="24.1594" x2="11.8794" y2="0.628875" gradientUnits="userSpaceOnUse">
<stop stop-color="#007378"/>
<stop offset="1" stop-color="#70C59C"/>
</linearGradient>
<clipPath id="clip0_14720_4031">
<rect width="157" height="36" fill="white"/>
</clipPath>
</defs>
</svg>
