<svg width="103" height="39" viewBox="0 0 103 39" fill="none" xmlns="http://www.w3.org/2000/svg">
<g clip-path="url(#clip0_3559_1641)">
<path d="M65.2928 5.69922H52.4915C51.6796 5.69922 51.0215 6.35736 51.0215 7.16922V22.8697C51.0215 23.6815 51.6796 24.3397 52.4915 24.3397H65.2928C66.1046 24.3397 66.7628 23.6815 66.7628 22.8697V7.16922C66.7628 6.35736 66.1046 5.69922 65.2928 5.69922Z" fill="#00BEF2"/>
<path d="M83.034 0.839844H70.2327C69.4208 0.839844 68.7627 1.49799 68.7627 2.30985V22.8695C68.7627 23.6813 69.4208 24.3395 70.2327 24.3395H83.034C83.8458 24.3395 84.504 23.6813 84.504 22.8695V2.30985C84.504 1.49799 83.8458 0.839844 83.034 0.839844Z" fill="#0568CC"/>
<path d="M100.769 4.24316H87.968C87.1562 4.24316 86.498 4.90131 86.498 5.71317V22.87C86.498 23.6819 87.1562 24.34 87.968 24.34H100.769C101.581 24.34 102.239 23.6819 102.239 22.87V5.71317C102.239 4.90131 101.581 4.24316 100.769 4.24316Z" fill="#07398F"/>
<path d="M63.3673 21.42H54.4248V9.9458H63.3129V12.3754H57.2491V14.5328H62.8161V16.8262H57.2491V18.9836H63.3673V21.4132V21.42Z" fill="white"/>
<path d="M79.7747 10.5654C80.6186 11.1506 81.1494 11.9673 81.3672 13.0086L78.5905 13.5734C78.4885 13.0562 78.2503 12.6615 77.8691 12.3824C77.4948 12.1034 77.0661 11.9605 76.5829 11.9605C76.0997 11.9605 75.7526 12.0694 75.4668 12.294C75.181 12.5186 75.038 12.7908 75.038 13.1242C75.038 13.6279 75.3443 13.9477 75.9636 14.0838L78.3455 14.6147C80.4485 15.0843 81.4965 16.1936 81.4965 17.9562C81.4965 19.1336 81.0474 20.0455 80.1422 20.6988C79.2371 21.3522 78.1142 21.672 76.7667 21.672C75.4191 21.672 74.2962 21.3658 73.3639 20.7533C72.4315 20.1408 71.8939 19.2901 71.7441 18.1944L74.6569 17.6295C74.9291 18.7593 75.6846 19.3241 76.9164 19.3241C77.4404 19.3241 77.8555 19.2152 78.1618 18.9975C78.468 18.7797 78.6178 18.4938 78.6178 18.14C78.6178 17.8677 78.5429 17.6499 78.3864 17.4866C78.2298 17.3301 77.9576 17.2076 77.5561 17.1259L75.1605 16.6087C73.1053 16.1391 72.0776 15.0298 72.0776 13.2876C72.0776 12.1783 72.4928 11.3004 73.3298 10.647C74.1669 9.99369 75.2626 9.67383 76.6169 9.67383C77.876 9.67383 78.924 9.96647 79.7679 10.5586L79.7747 10.5654Z" fill="white"/>
<path d="M0 15.4171C0 11.3542 3.46403 7.89014 7.52696 7.89014C11.0931 7.89014 13.3729 10.17 14.0671 12.5451L10.9978 12.9399C10.4057 11.7489 9.31682 10.66 7.43168 10.66C5.15181 10.66 3.06931 12.7425 3.06931 15.4171C3.06931 18.0917 5.15181 20.1742 7.43168 20.1742C9.51418 20.1742 10.6983 18.9832 11.3925 17.6017L14.4618 17.9964C13.7677 20.4736 11.2904 22.9509 7.52696 22.9509C3.46403 22.9509 0 19.48 0 15.4239V15.4171Z" fill="#4D4D4D"/>
<path d="M16.5314 10.9601H15.2451V8.48291H19.308V22.3527H16.5314V10.9601Z" fill="#4D4D4D"/>
<path d="M24.4866 12.8452H21.71V22.3594H24.4866V12.8452Z" fill="#4D4D4D"/>
<path d="M24.4866 8.48291H21.71V10.9601H24.4866V8.48291Z" fill="#4D4D4D"/>
<path d="M26.3984 17.5952C26.3984 14.8185 28.7736 12.4434 31.4482 12.4434C34.1228 12.4434 35.7084 14.1243 36.1032 15.71L33.3265 16.1048C33.0271 15.5127 32.435 14.9138 31.4414 14.9138C30.2504 14.9138 29.1615 16.0027 29.1615 17.5884C29.1615 19.1741 30.2504 20.263 31.4414 20.263C32.5303 20.263 33.2244 19.5688 33.5239 18.7793L36.3005 19.1741C35.9058 21.0592 34.218 22.7402 31.4482 22.7402C28.6783 22.7402 26.3984 20.365 26.3984 17.5884V17.5952Z" fill="#4D4D4D"/>
<path d="M44.5412 22.3527L41.5331 18.5892H40.7777V22.3527H38.0078V8.48291H40.7777V15.8057H41.1588L43.9695 12.8453H47.243L43.4387 17.0443L47.6445 22.3527H44.5412Z" fill="#4D4D4D"/>
<path d="M94.0466 14.6546V17.0502H97.5582C97.3405 17.6899 96.9662 18.1935 96.4353 18.561C95.9045 18.9285 95.2648 19.1123 94.523 19.1123C93.5634 19.1123 92.7603 18.7856 92.1138 18.1255C91.4673 17.4653 91.1474 16.6555 91.1474 15.6823C91.1474 14.7091 91.4605 13.8992 92.0866 13.2527C92.7127 12.5993 93.4953 12.2795 94.4345 12.2795C95.6323 12.2795 96.517 12.7082 97.0955 13.5589L99.7632 12.5177C99.3549 11.7146 98.7424 11.0749 97.9257 10.5917C96.9117 9.9928 95.7412 9.69336 94.4277 9.69336C92.7059 9.69336 91.2495 10.2718 90.0653 11.4356C88.8811 12.5925 88.2891 14.0149 88.2891 15.6959C88.2891 17.3768 88.888 18.806 90.0789 19.963C91.2699 21.1199 92.7399 21.6916 94.4753 21.6916C96.2107 21.6916 97.6195 21.1267 98.7424 20.0038C99.8585 18.8809 100.423 17.4517 100.423 15.7095C100.423 15.376 100.403 15.0289 100.355 14.6614H94.033L94.0466 14.6546Z" fill="white"/>
<path d="M10.718 34.5547H13.7873V33.493H10.718V31.5738H14.0323V30.5054H9.45215V37.5559H14.0527V36.4875H10.718V34.5547Z" fill="#4D4D4D"/>
<path d="M19.375 33.936C19.0756 33.7726 18.7217 33.6433 18.327 33.548L17.6668 33.3847C17.3061 33.2962 17.0135 33.1805 16.7957 33.0308C16.5711 32.8811 16.4623 32.6769 16.4691 32.4115C16.4691 32.2346 16.5235 32.078 16.6256 31.9351C16.7277 31.7922 16.8774 31.6833 17.0679 31.6085C17.2585 31.5336 17.4899 31.4928 17.7485 31.4928C18.0071 31.4928 18.2249 31.5336 18.4223 31.6085C18.6128 31.6833 18.7693 31.7922 18.885 31.9351C19.0007 32.078 19.0688 32.2482 19.0892 32.4523H20.3142C20.3074 32.0576 20.1985 31.7037 19.9807 31.3975C19.763 31.0912 19.4703 30.853 19.0892 30.6761C18.7081 30.506 18.2725 30.4175 17.7757 30.4175C17.2789 30.4175 16.8434 30.506 16.4486 30.6761C16.0539 30.853 15.7477 31.098 15.5231 31.4111C15.2985 31.7241 15.1896 32.0848 15.1896 32.4932C15.1896 32.9832 15.3461 33.3847 15.6728 33.691C15.9995 33.9972 16.4623 34.2286 17.0679 34.3851L17.871 34.5893C18.15 34.6642 18.3814 34.739 18.5652 34.8207C18.7489 34.9023 18.885 35.0044 18.9871 35.1269C19.0892 35.2494 19.1368 35.3992 19.1436 35.5693C19.1436 35.7667 19.0824 35.9436 18.9599 36.1001C18.8442 36.2499 18.6741 36.3724 18.4631 36.454C18.2521 36.5357 18.0071 36.5833 17.7281 36.5833C17.4491 36.5833 17.2109 36.5425 16.9999 36.4608C16.7821 36.3792 16.612 36.2567 16.4759 36.0933C16.3466 35.93 16.2717 35.7258 16.2513 35.4876H15.0059C15.0263 35.9504 15.1488 36.3451 15.3734 36.6718C15.5979 36.9985 15.911 37.2503 16.3193 37.4136C16.7209 37.5837 17.1973 37.6654 17.7417 37.6654C18.2861 37.6654 18.7761 37.5769 19.1777 37.4068C19.5792 37.2367 19.8855 36.9849 20.0964 36.6718C20.3074 36.3587 20.4163 35.9912 20.4163 35.5829C20.4163 35.195 20.321 34.8615 20.1305 34.5893C19.9399 34.3171 19.6949 34.0993 19.3954 33.9428L19.375 33.936Z" fill="#4D4D4D"/>
<path d="M24.6694 34.8678H26.2959C26.2959 35.1877 26.2211 35.4735 26.085 35.7185C25.9421 35.9703 25.7379 36.1677 25.4725 36.3106C25.2071 36.4467 24.9008 36.5216 24.5401 36.5216C24.1454 36.5216 23.7983 36.4263 23.4921 36.2289C23.1926 36.0316 22.9544 35.7525 22.7911 35.3782C22.6277 35.0039 22.5393 34.5547 22.5393 34.0307C22.5393 33.5067 22.6209 33.0643 22.7911 32.6968C22.9612 32.3225 23.1926 32.0435 23.4852 31.8461C23.7847 31.6556 24.1182 31.5535 24.5061 31.5535C24.7851 31.5535 25.0369 31.6011 25.2615 31.6964C25.4861 31.7917 25.6698 31.9278 25.8264 32.1115C25.9761 32.2885 26.0918 32.5063 26.1734 32.7581H27.4665C27.3916 32.3021 27.2215 31.8938 26.9493 31.5399C26.6771 31.186 26.33 30.907 25.9012 30.7096C25.4725 30.5122 25.0097 30.4102 24.4925 30.4102C23.8732 30.4102 23.3219 30.5531 22.8387 30.8457C22.3487 31.1384 21.9676 31.5535 21.6886 32.1047C21.4095 32.6492 21.2734 33.2957 21.2734 34.0375C21.2734 34.7793 21.4095 35.4054 21.6818 35.9567C21.954 36.5011 22.3351 36.9231 22.8251 37.2157C23.3151 37.5084 23.8868 37.6513 24.5333 37.6513C25.1118 37.6513 25.629 37.5356 26.0782 37.2906C26.5341 37.0524 26.888 36.7121 27.1398 36.2629C27.3916 35.8206 27.5209 35.2966 27.5209 34.7045V33.8606H24.6626V34.8542L24.6694 34.8678Z" fill="#4D4D4D"/>
<path d="M34.8091 32.322C34.8636 32.2063 34.9112 32.0906 34.9589 31.9749H36.9733V32.9277H34.8772V33.7988H36.9733V34.772H38.0554V29.6338H36.9733V31.1174H35.1971C35.2447 30.8384 35.2787 30.5457 35.2787 30.2463H31.243V31.1242H34.1014C34.0537 31.4849 33.938 31.8184 33.7543 32.1314C33.5025 32.5534 33.135 32.9209 32.6314 33.2475C32.1346 33.5674 31.5152 33.8328 30.7734 34.037L31.2022 34.8877C32.0869 34.6427 32.8287 34.3024 33.4276 33.8805C34.0333 33.4517 34.4893 32.9345 34.8023 32.322H34.8091Z" fill="#4D4D4D"/>
<path d="M36.7014 35.0855C36.2523 34.9426 35.735 34.8745 35.1429 34.8745C34.5509 34.8745 34.02 34.9426 33.5709 35.0855C33.1217 35.2284 32.7746 35.4326 32.5296 35.6912C32.2846 35.9566 32.1621 36.2628 32.1621 36.6167C32.1621 36.9706 32.2846 37.2837 32.5296 37.5491C32.7746 37.8145 33.1217 38.0187 33.5709 38.1616C34.02 38.3045 34.5441 38.3726 35.1429 38.3726C35.7418 38.3726 36.2523 38.3045 36.7014 38.1616C37.1506 38.0187 37.4977 37.8145 37.7427 37.5491C37.9877 37.2837 38.117 36.9706 38.117 36.6167C38.117 36.2628 37.9945 35.9566 37.7427 35.6912C37.4977 35.4258 37.1506 35.2284 36.7014 35.0855ZM36.8035 37.1067C36.6538 37.2429 36.436 37.3449 36.1502 37.413C35.8643 37.481 35.5309 37.5151 35.1429 37.5151C34.755 37.5151 34.4079 37.481 34.1221 37.413C33.8363 37.3449 33.6185 37.2429 33.4688 37.1067C33.3191 36.9706 33.2442 36.8073 33.2442 36.6167C33.2442 36.4262 33.3191 36.2628 33.4688 36.1267C33.6185 35.9906 33.8363 35.8953 34.1221 35.8205C34.4079 35.7524 34.7482 35.7184 35.1429 35.7184C35.5309 35.7184 35.8643 35.7524 36.1502 35.8205C36.4292 35.8885 36.647 35.9906 36.8035 36.1267C36.96 36.2628 37.0349 36.4194 37.0349 36.6167C37.0349 36.8073 36.9532 36.9706 36.8035 37.1067Z" fill="#4D4D4D"/>
<path d="M45.2901 35.1876C44.8409 35.0515 44.3101 34.9834 43.6976 34.9834C43.0851 34.9834 42.5542 35.0515 42.1051 35.1876C41.6559 35.3237 41.3088 35.521 41.0638 35.7728C40.8256 36.0315 40.7031 36.3377 40.7031 36.6984C40.7031 37.0591 40.8256 37.3585 41.0638 37.6172C41.302 37.8758 41.6491 38.0731 42.1051 38.2092C42.561 38.3453 43.0851 38.4134 43.6976 38.4134C44.3101 38.4134 44.8409 38.3453 45.2901 38.2092C45.7392 38.0731 46.0863 37.8758 46.3313 37.6172C46.5763 37.3585 46.6988 37.0523 46.6988 36.6984C46.6988 36.3445 46.5763 36.0315 46.3313 35.7728C46.0863 35.5142 45.7392 35.3169 45.2901 35.1876ZM45.4126 37.168C45.2629 37.2973 45.0383 37.3994 44.7524 37.4606C44.4598 37.5287 44.1127 37.5559 43.6976 37.5559C43.2892 37.5559 42.9422 37.5287 42.6495 37.4606C42.3569 37.3926 42.1391 37.2973 41.9894 37.168C41.8397 37.0387 41.7648 36.8822 41.7648 36.6984C41.7648 36.5078 41.8397 36.3445 41.9894 36.2152C42.1391 36.0859 42.3637 35.9838 42.6495 35.9158C42.9353 35.8477 43.2892 35.8137 43.6976 35.8137C44.1059 35.8137 44.4666 35.8477 44.7524 35.9158C45.0383 35.9838 45.2629 36.0859 45.4126 36.2152C45.5623 36.3445 45.6372 36.5078 45.6372 36.6984C45.6372 36.889 45.5623 37.0387 45.4126 37.168Z" fill="#4D4D4D"/>
<path d="M42.9219 34.0987C43.1397 33.9898 43.3166 33.8401 43.4732 33.6767H45.5965V34.7928H46.6786V29.6206H45.5965V30.8184H43.48C43.3166 30.6482 43.1397 30.4985 42.9219 30.3828C42.568 30.1991 42.1801 30.1106 41.7514 30.1106C41.3226 30.1106 40.9143 30.1991 40.5604 30.3828C40.2065 30.5666 39.9275 30.8184 39.7301 31.1382C39.5259 31.4649 39.4307 31.8324 39.4307 32.2407C39.4307 32.6423 39.5259 33.0098 39.7301 33.3364C39.9343 33.6631 40.2065 33.9149 40.5604 34.0987C40.9143 34.2824 41.309 34.3709 41.7514 34.3709C42.1801 34.3709 42.5748 34.2824 42.9219 34.0987ZM45.5965 32.8056H43.9836C44.0312 32.6287 44.0584 32.4449 44.0584 32.2476C44.0584 32.0502 44.0312 31.8664 43.9836 31.6895H45.5965V32.8056ZM40.6216 32.8805C40.5127 32.6967 40.4583 32.4857 40.4583 32.2476C40.4583 32.0094 40.5127 31.7916 40.6216 31.6078C40.7305 31.4241 40.8803 31.288 41.0776 31.1859C41.275 31.0906 41.4996 31.0362 41.7446 31.043C41.9896 31.043 42.2073 31.0906 42.3979 31.1859C42.5884 31.288 42.7382 31.4241 42.8471 31.6078C42.9559 31.7916 43.0104 32.0026 43.0104 32.2476C43.0104 32.4926 42.9559 32.6967 42.8471 32.8805C42.7382 33.0642 42.5884 33.2071 42.3911 33.3092C42.2005 33.4113 41.9828 33.4589 41.7378 33.4589C41.4859 33.4589 41.2682 33.4113 41.0708 33.3092C40.8734 33.2071 40.7237 33.0642 40.6148 32.8873L40.6216 32.8805Z" fill="#4D4D4D"/>
<path d="M50.2315 35.623H49.1426V37.3721V37.6511V38.25H55.2199V37.3721H50.2315V35.623Z" fill="#4D4D4D"/>
<path d="M51.734 32.0507C51.7067 32.4046 51.6455 32.8198 51.557 33.2961L52.6255 33.3914C52.714 32.9218 52.7684 32.4931 52.7956 32.112C52.8229 31.7309 52.8365 31.3157 52.8433 30.8734V30.2881H48.3584V31.1796H51.7748C51.768 31.4927 51.7544 31.7853 51.734 32.0575V32.0507Z" fill="#4D4D4D"/>
<path d="M54.9414 29.627H53.8389V36.2147H54.9414V33.2747H56.0779V32.3628H54.9414V29.627Z" fill="#4D4D4D"/>
<path d="M53.3814 34.5888L53.3202 33.8062C52.5239 33.9219 51.68 33.9967 50.7749 34.0308C50.7273 34.0308 50.666 34.0308 50.6116 34.0308V32.2817H49.5363V34.0648C48.9918 34.0784 48.4202 34.0852 47.8213 34.0852L47.9166 34.9495C48.9374 34.9495 49.897 34.9223 50.7953 34.8747C51.6937 34.827 52.5512 34.7317 53.3678 34.5888H53.3814Z" fill="#4D4D4D"/>
<path d="M60.0373 35.3981C59.4657 35.4389 58.8259 35.4525 58.1454 35.4593V33.6967H61.167V30.396H57.0225V31.2739H60.0645V32.8392H57.0293V36.3577H57.7983C58.6626 36.3577 59.4316 36.3373 60.1122 36.2896C60.7927 36.2488 61.4869 36.1603 62.1879 36.0446L62.0926 35.1599C61.3848 35.2756 60.6975 35.3573 60.0305 35.4049L60.0373 35.3981Z" fill="#4D4D4D"/>
<path d="M63.8761 29.6274H62.8008V38.4406H63.8761V29.6274Z" fill="#4D4D4D"/>
<path d="M75.5472 33.4048H67.5303V34.2623H75.5472V33.4048Z" fill="#4D4D4D"/>
<path d="M69.545 36.9365H74.5471V34.854H68.4766V35.6366H73.4787V36.1947H68.4834V37.5422V37.8553V38.3453H74.7921V37.5422H69.545V36.9365Z" fill="#4D4D4D"/>
<path d="M69.4633 32.0299H68.2996V32.8466H74.7649V32.0299H73.6011V30.6892H74.8125V29.8726H68.252V30.6892H69.4633V32.0299ZM72.5122 32.0299H70.5386V30.6892H72.5122V32.0299Z" fill="#4D4D4D"/>
<path d="M79.373 34.6499C79.6996 34.6159 80.0331 34.5614 80.3734 34.4934L80.2713 33.6427C79.7881 33.738 79.3049 33.806 78.8421 33.84C78.4814 33.8673 78.0595 33.8809 77.5763 33.8877V32.8737H79.8561V30.2739H76.5078V31.145H78.8081V32.091H76.5214V34.7452H77.1203C77.6103 34.7452 78.0255 34.7452 78.3657 34.7316C78.706 34.718 79.0395 34.6975 79.3662 34.6635L79.373 34.6499Z" fill="#4D4D4D"/>
<path d="M81.7269 32.6963H82.6457V35.5682H83.6733V29.6338H82.6457V31.8184H81.7269V29.7903H80.7197V34.8264H81.7269V32.6963Z" fill="#4D4D4D"/>
<path d="M81.5568 36.3108C81.3186 36.0114 81.2029 35.6847 81.2029 35.3512V35.1675H80.1209V35.3512C80.1209 35.6915 79.9983 36.0114 79.7602 36.3108C79.522 36.6171 79.1885 36.8757 78.7461 37.0935C78.3038 37.3112 77.8002 37.461 77.2217 37.5358L77.6572 38.3729C78.3174 38.2776 78.9095 38.0803 79.4199 37.8012C79.9303 37.5222 80.3318 37.1683 80.6177 36.7464C80.6313 36.7191 80.6449 36.6987 80.6585 36.6715C80.6721 36.6987 80.6857 36.726 80.7061 36.7464C80.992 37.1683 81.3867 37.5222 81.8971 37.8012C82.4075 38.0803 82.9996 38.2708 83.6666 38.3729L84.1021 37.5358C83.5236 37.461 83.0132 37.3112 82.5709 37.0935C82.1285 36.8757 81.795 36.6171 81.5568 36.3108Z" fill="#4D4D4D"/>
<path d="M85.7158 38.3111H91.8136V35.4868H85.7158V38.3111ZM86.7843 36.3307H90.7655V37.4332H86.7843V36.3307Z" fill="#4D4D4D"/>
<path d="M89.3088 33.9487V33.1388H92.0039V32.2677H90.8401V30.7637H92.0515V29.8926H85.4909V30.7637H86.7023V32.2677H85.5386V33.1388H88.22V33.9487H84.7695V34.8062H92.7865V33.9487H89.3088ZM87.7776 30.7569H89.7512V32.2609H87.7776V30.7569Z" fill="#4D4D4D"/>
</g>
<defs>
<clipPath id="clip0_3559_1641">
<rect width="102.24" height="37.6007" fill="white" transform="translate(0 0.839844)"/>
</clipPath>
</defs>
</svg>
