<svg width="104" height="36" viewBox="0 0 104 36" fill="none" xmlns="http://www.w3.org/2000/svg">
<g clip-path="url(#clip0_3443_8276)">
<path d="M88.4041 23.0497H88.8513C89.8497 23.0497 90.505 23.8034 90.505 24.7766V30.3509H90.5416L93.1853 27.4259H95.6688L92.2347 31.0147L95.9331 35.7397H93.4834L90.5388 31.8922H90.5022V35.7397H88.3984V23.0469L88.4041 23.0497Z" fill="white"/>
<path d="M69.0091 35.7419H67.1359L65.3359 30.2687H65.3022L63.5106 35.7419H61.5391C61.5391 35.7419 58.8841 27.6756 58.7969 27.4281C58.8334 27.4197 59.1934 27.2734 59.6406 27.2734C60.8331 27.2734 61.0947 27.9625 61.3056 28.6066C61.5166 29.2534 62.695 33.0278 62.695 33.0278H62.7316L64.4697 27.4281H66.2781L68.0697 33.0447H68.1231L69.8528 27.4281H71.7934L69.0119 35.7419H69.0091Z" fill="white"/>
<path d="M99.0645 35.9225C97.7033 35.9225 96.6795 35.5625 95.9961 35.1434L96.6795 33.5994C97.2983 34.0241 98.0801 34.3475 98.907 34.3475C99.7339 34.3475 100.319 33.9903 100.319 33.425C100.319 32.7866 99.3711 32.4688 98.6708 32.1903C97.6498 31.7797 96.5052 31.2509 96.5052 29.7153C96.5052 28.2809 97.6498 27.2656 99.6411 27.2656C101.132 27.2656 102.158 27.7269 102.243 27.7662C102.243 27.7662 102.161 28.0138 102.133 28.1038C102.049 28.3906 101.835 29.1078 101.16 29.1078C100.673 29.1078 100.372 28.8744 99.6214 28.8744C98.9492 28.8744 98.533 29.1612 98.533 29.6112C98.533 30.1822 99.2755 30.4184 100.105 30.7447C101.053 31.1187 102.42 31.8106 102.42 33.335C102.42 35.1912 100.848 35.9169 99.0617 35.9169L99.0645 35.9225Z" fill="white"/>
<path d="M47.5078 27.2684C45.4856 27.2684 43.7812 28.9109 43.7812 31.6025C43.7812 34.2941 45.435 35.9225 47.9044 35.9225C49.8675 35.9225 50.8856 35.0619 51.0094 34.9831C51.0094 34.9831 50.8181 34.6709 50.7647 34.5837C50.4891 34.1337 50.1741 33.9875 49.8281 33.9875C49.1334 33.9875 49.0434 34.2772 48.1013 34.2772C46.4841 34.2772 45.9244 33.0144 45.885 32.1734H51.2963V31.5463C51.2963 28.9644 49.8112 27.2656 47.5078 27.2656V27.2684ZM45.8794 30.68C45.8794 29.735 46.5431 28.8547 47.4741 28.8547C48.5147 28.8547 49.0884 29.7603 49.1053 30.68H45.8766H45.8794Z" fill="white"/>
<path d="M34.7302 30.1194V35.7416H36.8423V29.9C36.9548 29.7931 37.703 29.0787 38.5383 29.0787C39.6239 29.0787 40.1892 29.8634 40.1892 30.89V35.7444H42.293V30.3641C42.293 27.8075 40.327 27.2422 39.2302 27.2422C37.9139 27.2422 36.9745 28.0719 36.6933 28.3531C36.6061 28.01 36.2011 27.4278 35.2814 27.4278C34.9552 27.4278 34.5305 27.5234 34.4883 27.5319C34.553 27.8525 34.7273 28.6062 34.7273 30.1222L34.7302 30.1194Z" fill="white"/>
<path d="M55.7662 33.1078V29.0044H57.5325L58.1484 27.4181H55.7691V24.9375C55.7691 24.9375 55.5806 24.9375 55.5722 24.9375C54.6328 24.9375 53.6597 25.3369 53.6597 27.3984V27.4181H52.1016V29.0044H53.6597V33.8391C53.6597 35.2059 54.4697 35.9175 55.6172 35.9175C56.5453 35.9175 57.7434 35.6362 57.7434 33.7969C57.6703 33.8419 57.2203 34.1316 56.7281 34.1316C56.0419 34.1316 55.7691 33.7125 55.7691 33.1078H55.7662Z" fill="white"/>
<path d="M86.0841 27.2656C85.0744 27.2656 84.1856 28.0897 83.8228 28.4525C83.6625 28.0672 83.37 27.4231 82.3041 27.4231C82.0228 27.4231 81.75 27.4878 81.75 27.4878C81.8091 27.7747 81.9834 28.3962 81.9834 29.4903V35.7397H84.0956V29.8447C84.3459 29.6478 84.8944 29.1219 85.7213 29.1134C86.2809 29.1078 86.6269 29.3356 86.6775 29.3637L87.4509 27.6144C87.3638 27.5581 86.9869 27.2656 86.0841 27.2656Z" fill="white"/>
<path d="M76.3325 35.9253C73.7506 35.9253 72.1953 34.2209 72.1953 31.5997C72.1953 28.9784 73.7309 27.2656 76.3325 27.2656C78.9341 27.2656 80.4725 28.9897 80.4725 31.5997C80.4725 34.0663 79.055 35.9253 76.3325 35.9253ZM76.3325 34.3025C77.6262 34.3025 78.3716 33.1888 78.3716 31.6025C78.3716 30.0163 77.6431 28.8941 76.3325 28.8941C75.0219 28.8941 74.2962 29.9966 74.2962 31.6025C74.2962 33.2084 75.0247 34.3025 76.3325 34.3025Z" fill="white"/>
<path d="M7.81016 26.5147C6.53609 25.9184 5.48985 25.4375 5.48985 24.4644C5.48985 23.7191 6.08609 23.1791 7.26172 23.1791C7.69484 23.1791 8.04922 23.2297 8.41484 23.2972C8.60609 23.3309 8.80859 23.3591 8.97734 23.3591C10.0039 23.3591 10.5861 22.7459 10.9714 21.5844L11.1317 21.1091C10.9686 21.0416 9.28953 20.3047 7.10141 20.3047C3.61953 20.3047 1.78016 22.5406 1.78297 24.8553C1.78297 26.0253 2.14859 26.8719 2.72234 27.5384C3.45922 28.3963 4.51391 28.9588 5.49828 29.4369C6.93266 30.14 8.22922 30.6603 8.22922 31.7066C8.22922 32.6347 7.27297 33.1578 5.99328 33.1578C4.24109 33.1578 2.70828 32.1566 2.51422 32.0356L1.07422 34.7328C1.33016 34.8762 3.18359 36.0519 6.23234 36.0519C9.48359 36.0519 11.9417 34.1872 11.9417 31.3184C11.9417 28.4497 9.66078 27.4091 7.81297 26.5147H7.81016Z" fill="white"/>
<path d="M20.5234 27.8453L26.4184 20.6172H22.2194L17.5169 26.8553H17.4466V20.6172H13.9844V35.9284H14.1897C15.6859 35.9284 17.4691 35.2366 17.4691 32.7363V29.2206H17.5394L22.3319 35.74H26.7391L20.5262 27.8453H20.5234Z" fill="white"/>
<path d="M26.6114 4.21875C25.3908 4.44937 23.5852 5.55469 23.5908 7.51219C23.5964 9.28969 25.0477 10.3669 25.0533 12.6928C25.0589 14.445 24.0942 15.6234 23.0508 16.2787C23.4727 16.2422 23.9339 16.2169 24.443 16.2169C25.5089 16.2169 26.153 16.3153 26.1923 16.3237L31.6598 9.61312C30.1411 7.34062 28.3692 5.57437 26.6114 4.22156V4.21875Z" fill="white"/>
<path d="M31.2081 22.3359C31.8972 21.2644 31.9844 19.5572 32.0434 17.8191C32.1081 16.1962 32.4456 14.9756 34.6169 14.97C35.0978 14.97 35.5562 15.0347 36.3859 15.0319C39.5641 15.0178 41.6425 13.9238 42.9334 13.2038C40.2953 11.5219 36.445 9.80344 31.6666 9.60938C31.3544 10.4869 28.9328 17.22 28.75 17.7628C28.7781 17.7938 29.2028 18.2691 29.7316 19.1972C30.5134 20.4713 30.9325 21.5484 31.2109 22.3359H31.2081Z" fill="white"/>
<path d="M19.6544 16.8363C19.3788 16.8363 19.2409 16.6534 19.2044 16.3356C19.1678 16.0206 17.8009 3.50782 17.5984 1.6122C17.5675 1.33657 17.5 0.827508 17.5 0.647508C17.5 0.355008 17.6884 0.203132 17.9134 0.203132C18.5603 0.20032 22.0928 1.0272 25.8419 3.65407C24.7619 3.95782 22.8072 5.08282 22.8156 7.40594C22.8213 9.46469 24.2978 10.5981 24.3034 12.6625C24.3147 16.0206 20.4559 16.8334 19.6572 16.8334L19.6544 16.8363Z" fill="white"/>
<path d="M31.5195 23.2331C31.5786 23.3878 31.6348 23.52 31.6883 23.61C31.7755 23.7562 31.888 23.8237 32.0258 23.8209C32.113 23.8209 32.2198 23.79 32.338 23.7366C32.6277 23.6044 44.0464 18.2888 45.7677 17.4956C46.018 17.3747 46.4905 17.1638 46.6452 17.0738C46.8083 16.9809 46.8814 16.8488 46.8814 16.7109C46.8814 16.635 46.8589 16.5591 46.8167 16.4887C46.6002 16.14 45.4977 14.9672 43.6498 13.6875C42.1817 14.4947 39.8923 15.7434 36.4864 15.7575C35.6511 15.7575 35.4627 15.7041 34.8945 15.7041C33.2323 15.7125 32.8161 16.4213 32.757 17.8809C32.7458 18.1566 32.743 18.5278 32.7261 18.9328C32.6727 20.235 32.5208 22.0322 31.5252 23.2359L31.5195 23.2331Z" fill="white"/>
</g>
<defs>
<clipPath id="clip0_3443_8276">
<rect width="104" height="36" fill="white"/>
</clipPath>
</defs>
</svg>
