<svg width="142" height="53" viewBox="0 0 142 53" fill="none" xmlns="http://www.w3.org/2000/svg">
<g clip-path="url(#clip0_3890_8708)">
<path d="M0 19.9293C0 14.2898 4.8171 9.47266 10.4566 9.47266C15.4108 9.47266 18.5765 12.6384 19.536 15.9411L15.2737 16.4894C14.4448 14.838 12.937 13.3237 10.3196 13.3237C7.15385 13.3237 4.26228 16.2153 4.26228 19.9293C4.26228 23.6433 7.15385 26.5348 10.3196 26.5348C13.2111 26.5348 14.8625 24.8835 15.822 22.9579L20.0843 23.5062C19.1248 26.9461 15.6784 30.3859 10.4501 30.3859C4.8171 30.3859 0 25.5688 0 19.9293Z" fill="white"/>
<path d="M22.9564 13.735H21.168V10.2952H26.8075V29.557H22.9564V13.735Z" fill="white"/>
<path d="M34.0073 16.3525H30.1562V29.5637H34.0073V16.3525Z" fill="white"/>
<path d="M34.0073 10.2949H30.1562V13.7348H34.0073V10.2949Z" fill="white"/>
<path d="M36.6699 22.9576C36.6699 19.1065 39.9727 15.8037 43.6867 15.8037C47.4007 15.8037 49.6004 18.1405 50.1552 20.3467L46.3041 20.895C45.8929 20.0725 45.0639 19.2436 43.6867 19.2436C42.0353 19.2436 40.521 20.7579 40.521 22.9576C40.521 25.1572 42.0353 26.6716 43.6867 26.6716C45.201 26.6716 46.1605 25.7121 46.5783 24.6089L50.4293 25.1572C49.881 27.7747 47.5378 30.1114 43.6867 30.1114C39.8356 30.1114 36.6699 26.8086 36.6699 22.9576Z" fill="white"/>
<path d="M61.858 29.5636L57.6806 24.3353H56.6297V29.5636H52.7852V10.3018H56.6297V20.4712H57.1584L61.0682 16.3656H65.6177L60.3306 22.1944L66.166 29.5636H61.858Z" fill="white"/>
<path d="M90.6897 6.42383H72.9095C71.7803 6.42383 70.873 7.33764 70.873 8.46033V30.2743C70.873 31.4036 71.7869 32.3108 72.9095 32.3108H90.6897C91.8189 32.3108 92.7262 31.397 92.7262 30.2743V8.46685C92.7262 7.33764 91.8124 6.43036 90.6897 6.43036V6.42383ZM88.007 28.264H75.5857V12.3244H87.9352V15.7056H79.5151V18.7016H87.2499V21.8868H79.5151V24.8829H88.007V28.264Z" fill="white"/>
<path d="M115.324 -0.318359H97.5443C96.4151 -0.318359 95.5078 0.595454 95.5078 1.71814V30.2748C95.5078 31.404 96.4216 32.3113 97.5443 32.3113H115.324C116.454 32.3113 117.361 31.3975 117.361 30.2748V1.71814C117.361 0.588926 116.447 -0.318359 115.324 -0.318359ZM111.323 27.2657C110.07 28.173 108.51 28.6234 106.637 28.6234C104.763 28.6234 103.203 28.1991 101.911 27.3506C100.619 26.5021 99.868 25.3141 99.6657 23.7932L103.713 23.01C104.091 24.583 105.142 25.3663 106.852 25.3663C107.583 25.3663 108.158 25.2162 108.575 24.9159C108.993 24.6157 109.208 24.2175 109.208 23.728C109.208 23.3494 109.104 23.0426 108.889 22.8207C108.673 22.5988 108.288 22.4291 107.733 22.3181L104.404 21.6066C101.552 20.9539 100.123 19.42 100.123 16.9919C100.123 15.4514 100.703 14.2308 101.859 13.3301C103.014 12.4293 104.542 11.9724 106.428 11.9724C108.171 11.9724 109.633 12.3836 110.808 13.1995C111.983 14.0154 112.72 15.1447 113.02 16.5872L109.163 17.3704C109.019 16.659 108.686 16.1042 108.164 15.7191C107.642 15.3274 107.048 15.1381 106.382 15.1381C105.716 15.1381 105.233 15.2948 104.835 15.6016C104.437 15.9083 104.241 16.2935 104.241 16.7569C104.241 17.4553 104.672 17.8992 105.527 18.0884L108.836 18.826C111.754 19.4787 113.216 21.0257 113.216 23.4669C113.216 25.0987 112.59 26.3715 111.336 27.2723L111.323 27.2657Z" fill="white"/>
<path d="M139.957 4.40039H122.177C121.048 4.40039 120.141 5.3142 120.141 6.43689V30.2744C120.141 31.4036 121.054 32.3109 122.177 32.3109H139.957C141.087 32.3109 141.994 31.397 141.994 30.2744V6.44342C141.994 5.3142 141.08 4.40692 139.957 4.40692V4.40039ZM137.157 26.2797C135.604 27.8397 133.626 28.623 131.23 28.623C128.835 28.623 126.785 27.8201 125.127 26.2209C123.47 24.6218 122.641 22.644 122.641 20.2942C122.641 17.9444 123.463 15.9928 125.101 14.3805C126.746 12.7683 128.763 11.9655 131.159 11.9655C132.986 11.9655 134.598 12.3832 136.015 13.2122C137.151 13.8779 137.993 14.7787 138.567 15.8883L134.86 17.3308C134.057 16.1494 132.83 15.5554 131.165 15.5554C129.866 15.5554 128.776 16.0058 127.908 16.9131C127.033 17.8139 126.596 18.9431 126.596 20.2942C126.596 21.6453 127.046 22.7746 127.941 23.6818C128.835 24.5957 129.951 25.0526 131.283 25.0526C132.314 25.0526 133.195 24.798 133.933 24.2889C134.67 23.7798 135.192 23.0813 135.493 22.1936H130.617V18.8647H139.396C139.461 19.3739 139.494 19.8569 139.494 20.3138C139.494 22.7223 138.717 24.7131 137.164 26.2732L137.157 26.2797Z" fill="white"/>
</g>
<path d="M14.887 46.8262H19.1499V45.3517H14.887V42.6861H19.4902V41.2021H13.1289V50.9946H19.5186V49.5106H14.887V46.8262Z" fill="white"/>
<path d="M26.9101 45.9669C26.4942 45.74 26.0027 45.5604 25.4545 45.4281L24.5376 45.2012C24.0366 45.0783 23.6302 44.9177 23.3277 44.7097C23.0158 44.5018 22.8646 44.2182 22.874 43.8496C22.874 43.6038 22.9496 43.3864 23.0914 43.1879C23.2332 42.9894 23.4411 42.8382 23.7058 42.7342C23.9705 42.6302 24.2918 42.5735 24.651 42.5735C25.0102 42.5735 25.3127 42.6302 25.5868 42.7342C25.8514 42.8382 26.0688 42.9894 26.2295 43.1879C26.3902 43.3864 26.4847 43.6227 26.5131 43.9063H28.2145C28.205 43.3581 28.0538 42.8665 27.7513 42.4412C27.4489 42.0158 27.0424 41.685 26.5131 41.4393C25.9838 41.203 25.3788 41.0801 24.6888 41.0801C23.9988 41.0801 23.3939 41.203 22.8457 41.4393C22.2974 41.685 21.8721 42.0253 21.5602 42.4601C21.2482 42.8949 21.097 43.3959 21.097 43.963C21.097 44.6435 21.3144 45.2012 21.7681 45.6266C22.2218 46.0519 22.8646 46.3733 23.7058 46.5907L24.8212 46.8743C25.2087 46.9782 25.5301 47.0822 25.7853 47.1956C26.0405 47.3091 26.2295 47.4508 26.3713 47.621C26.5131 47.7911 26.5793 47.9991 26.5887 48.2354C26.5887 48.5095 26.5037 48.7552 26.3335 48.9726C26.1728 49.1806 25.9365 49.3507 25.6435 49.4642C25.3505 49.5776 25.0102 49.6437 24.6227 49.6437C24.2351 49.6437 23.9043 49.587 23.6113 49.4736C23.3088 49.3602 23.0725 49.19 22.8835 48.9632C22.7039 48.7363 22.5999 48.4528 22.5715 48.1219H20.8418C20.8702 48.7647 21.0403 49.3129 21.3522 49.7666C21.6641 50.2203 22.0989 50.5701 22.6661 50.7969C23.2237 51.0332 23.8854 51.1466 24.6416 51.1466C25.3977 51.1466 26.0783 51.0238 26.636 50.7875C27.1937 50.5512 27.619 50.2014 27.912 49.7666C28.205 49.3318 28.3563 48.8214 28.3563 48.2543C28.3563 47.7155 28.2239 47.2523 27.9593 46.8743C27.6946 46.4962 27.3543 46.1937 26.9384 45.9763L26.9101 45.9669Z" fill="white"/>
<path d="M34.2635 47.2615H36.5226C36.5226 47.7057 36.4186 48.1027 36.2296 48.443C36.0311 48.7927 35.7475 49.0668 35.3789 49.2653C35.0102 49.4544 34.5849 49.5584 34.0839 49.5584C33.5357 49.5584 33.0536 49.426 32.6283 49.1519C32.2124 48.8778 31.8816 48.4903 31.6547 47.9704C31.4279 47.4505 31.305 46.8267 31.305 46.0989C31.305 45.3711 31.4184 44.7567 31.6547 44.2462C31.891 43.7264 32.2124 43.3388 32.6188 43.0647C33.0347 42.8001 33.4979 42.6583 34.0367 42.6583C34.4242 42.6583 34.7739 42.7244 35.0858 42.8568C35.3978 42.9891 35.653 43.1781 35.8704 43.4334C36.0783 43.6791 36.239 43.9816 36.3524 44.3313H38.1484C38.0444 43.698 37.8081 43.1309 37.43 42.6394C37.0519 42.1479 36.5698 41.7603 35.9744 41.4862C35.3789 41.2121 34.7361 41.0703 34.0178 41.0703C33.1576 41.0703 32.392 41.2688 31.7209 41.6753C31.0403 42.0817 30.511 42.6583 30.1235 43.4239C29.7359 44.1801 29.5469 45.078 29.5469 46.1083C29.5469 47.1386 29.7359 48.0082 30.114 48.7738C30.4921 49.53 31.0214 50.116 31.702 50.5225C32.3825 50.9289 33.1765 51.1274 34.0745 51.1274C34.8779 51.1274 35.5963 50.9667 36.2201 50.6265C36.8534 50.2956 37.3449 49.823 37.6946 49.1992C38.0444 48.5848 38.224 47.857 38.224 47.0346V45.8626H34.2541V47.2426L34.2635 47.2615Z" fill="white"/>
<path d="M48.3473 43.7258C48.4229 43.5651 48.4891 43.4044 48.5553 43.2437H51.3531V44.567H48.4418V45.7769H51.3531V47.1286H52.856V39.9922H51.3531V42.0528H48.8861C48.9523 41.6652 48.9995 41.2588 48.9995 40.8429H43.3944V42.0622H47.3643C47.2981 42.5632 47.1374 43.0263 46.8822 43.4611C46.5325 44.0472 46.0221 44.5576 45.3226 45.0113C44.6326 45.4555 43.7725 45.8242 42.7422 46.1077L43.3377 47.2893C44.5665 46.949 45.5967 46.4764 46.4285 45.8903C47.2698 45.2949 47.9031 44.5765 48.3379 43.7258H48.3473Z" fill="white"/>
<path d="M50.9745 47.5635C50.3507 47.365 49.6323 47.2705 48.81 47.2705C47.9876 47.2705 47.2504 47.365 46.6265 47.5635C46.0027 47.762 45.5206 48.0456 45.1803 48.4048C44.8401 48.7734 44.6699 49.1988 44.6699 49.6903C44.6699 50.1818 44.8401 50.6166 45.1803 50.9852C45.5206 51.3538 46.0027 51.6374 46.6265 51.8359C47.2504 52.0344 47.9782 52.1289 48.81 52.1289C49.6418 52.1289 50.3507 52.0344 50.9745 51.8359C51.5984 51.6374 52.0804 51.3538 52.4207 50.9852C52.761 50.6166 52.9406 50.1818 52.9406 49.6903C52.9406 49.1988 52.7704 48.7734 52.4207 48.4048C52.0804 48.0361 51.5984 47.762 50.9745 47.5635ZM51.1163 50.3708C50.9084 50.5599 50.6059 50.7017 50.2089 50.7962C49.8119 50.8907 49.3487 50.938 48.81 50.938C48.2712 50.938 47.7891 50.8907 47.3921 50.7962C46.9952 50.7017 46.6927 50.5599 46.4847 50.3708C46.2768 50.1818 46.1728 49.9549 46.1728 49.6903C46.1728 49.4256 46.2768 49.1988 46.4847 49.0097C46.6927 48.8207 46.9952 48.6883 47.3921 48.5844C47.7891 48.4898 48.2617 48.4426 48.81 48.4426C49.3487 48.4426 49.8119 48.4898 50.2089 48.5844C50.5964 48.6789 50.8989 48.8207 51.1163 49.0097C51.3337 49.1988 51.4377 49.4162 51.4377 49.6903C51.4377 49.9549 51.3243 50.1818 51.1163 50.3708Z" fill="white"/>
<path d="M62.904 47.7054C62.2801 47.5164 61.5429 47.4219 60.6922 47.4219C59.8415 47.4219 59.1042 47.5164 58.4803 47.7054C57.8565 47.8945 57.3744 48.1686 57.0342 48.5183C56.7033 48.8775 56.5332 49.3029 56.5332 49.8038C56.5332 50.3048 56.7033 50.7207 57.0342 51.0799C57.365 51.4391 57.8471 51.7132 58.4803 51.9022C59.1136 52.0913 59.8415 52.1858 60.6922 52.1858C61.5429 52.1858 62.2801 52.0913 62.904 51.9022C63.5278 51.7132 64.0099 51.4391 64.3502 51.0799C64.6904 50.7207 64.8606 50.2953 64.8606 49.8038C64.8606 49.3123 64.6904 48.8775 64.3502 48.5183C64.0099 48.1591 63.5278 47.885 62.904 47.7054ZM63.0741 50.456C62.8662 50.6356 62.5542 50.7774 62.1572 50.8625C61.7508 50.957 61.2687 50.9948 60.6922 50.9948C60.125 50.9948 59.643 50.957 59.2365 50.8625C58.8301 50.7679 58.5276 50.6356 58.3197 50.456C58.1117 50.2764 58.0077 50.059 58.0077 49.8038C58.0077 49.5392 58.1117 49.3123 58.3197 49.1327C58.5276 48.9531 58.8395 48.8113 59.2365 48.7168C59.6335 48.6223 60.125 48.575 60.6922 48.575C61.2593 48.575 61.7603 48.6223 62.1572 48.7168C62.5542 48.8113 62.8662 48.9531 63.0741 49.1327C63.2821 49.3123 63.386 49.5392 63.386 49.8038C63.386 50.0685 63.2821 50.2764 63.0741 50.456Z" fill="white"/>
<path d="M59.6146 46.1932C59.9171 46.0419 60.1628 45.834 60.3802 45.6071H63.3293V47.1573H64.8322V39.9736H63.3293V41.6372H60.3897C60.1628 41.4009 59.9171 41.193 59.6146 41.0323C59.1231 40.7771 58.5843 40.6542 57.9888 40.6542C57.3933 40.6542 56.8262 40.7771 56.3347 41.0323C55.8432 41.2875 55.4556 41.6372 55.1815 42.0815C54.898 42.5352 54.7656 43.0456 54.7656 43.6127C54.7656 44.1704 54.898 44.6808 55.1815 45.1345C55.4651 45.5882 55.8432 45.938 56.3347 46.1932C56.8262 46.4484 57.3744 46.5712 57.9888 46.5712C58.5843 46.5712 59.1325 46.4484 59.6146 46.1932ZM63.3293 44.3973H61.0891C61.1553 44.1515 61.1931 43.8963 61.1931 43.6222C61.1931 43.3481 61.1553 43.0929 61.0891 42.8471H63.3293V44.3973ZM56.4198 44.5012C56.2685 44.246 56.1929 43.953 56.1929 43.6222C56.1929 43.2913 56.2685 42.9889 56.4198 42.7337C56.571 42.4785 56.7789 42.2894 57.0531 42.1476C57.3272 42.0153 57.6391 41.9397 57.9794 41.9491C58.3196 41.9491 58.6221 42.0153 58.8868 42.1476C59.1514 42.2894 59.3594 42.4785 59.5106 42.7337C59.6619 42.9889 59.7375 43.2819 59.7375 43.6222C59.7375 43.9625 59.6619 44.246 59.5106 44.5012C59.3594 44.7564 59.1514 44.9549 58.8773 45.0967C58.6127 45.2385 58.3102 45.3047 57.9699 45.3047C57.6202 45.3047 57.3177 45.2385 57.0436 45.0967C56.7695 44.9549 56.5615 44.7564 56.4103 44.5107L56.4198 44.5012Z" fill="white"/>
<path d="M69.7663 48.3103H68.2539V50.7395V51.1271V51.9588H76.6947V50.7395H69.7663V48.3103Z" fill="white"/>
<path d="M71.8543 43.3485C71.8165 43.84 71.7314 44.4166 71.6085 45.0782L73.0925 45.2106C73.2154 44.5584 73.291 43.9629 73.3288 43.4336C73.3666 42.9043 73.3855 42.3277 73.395 41.7133V40.9004H67.166V42.1386H71.911C71.9016 42.5734 71.8826 42.9799 71.8543 43.358V43.3485Z" fill="white"/>
<path d="M76.3086 39.9824H74.7773V49.1321H76.3086V45.0488H77.8871V43.7822H76.3086V39.9824Z" fill="white"/>
<path d="M74.1424 46.8742L74.0573 45.7872C72.9514 45.9479 71.7793 46.0519 70.5222 46.0991C70.456 46.0991 70.3709 46.0991 70.2953 46.0991V43.6699H68.8019V46.1464C68.0457 46.1653 67.2517 46.1747 66.4199 46.1747L66.5523 47.3752C67.9701 47.3752 69.3028 47.3374 70.5505 47.2712C71.7982 47.205 72.9892 47.0727 74.1234 46.8742H74.1424Z" fill="white"/>
<path d="M83.3865 47.9981C82.5925 48.0548 81.704 48.0737 80.7588 48.0832V45.6351H84.9556V41.0508H79.1992V42.2701H83.4243V44.4441H79.2087V49.3309H80.2768C81.4772 49.3309 82.5453 49.3025 83.4905 49.2364C84.4357 49.1797 85.3998 49.0568 86.3734 48.8961L86.2411 47.6673C85.2581 47.828 84.3034 47.9414 83.3771 48.0076L83.3865 47.9981Z" fill="white"/>
<path d="M88.7181 39.9834H87.2246V52.224H88.7181V39.9834Z" fill="white"/>
<path d="M104.928 45.2295H93.793V46.4205H104.928V45.2295Z" fill="white"/>
<path d="M96.5914 50.1348H103.539V47.2424H95.1074V48.3294H102.055V49.1045H95.1169V50.976V51.4108V52.0914H103.879V50.976H96.5914V50.1348Z" fill="white"/>
<path d="M96.4774 43.3196H94.8611V44.4538H103.841V43.3196H102.224V41.4575H103.907V40.3232H94.7949V41.4575H96.4774V43.3196ZM100.712 43.3196H97.9709V41.4575H100.712V43.3196Z" fill="white"/>
<path d="M110.241 46.9586C110.695 46.9113 111.158 46.8357 111.631 46.7412L111.489 45.5597C110.818 45.692 110.147 45.7865 109.504 45.8338C109.003 45.8716 108.417 45.8905 107.746 45.9V44.4916H110.912V40.8809H106.262V42.0907H109.457V43.4046H106.281V47.0909H107.112C107.793 47.0909 108.37 47.0909 108.842 47.072C109.315 47.0531 109.778 47.0248 110.232 46.9775L110.241 46.9586Z" fill="white"/>
<path d="M113.51 44.2457H114.786V48.2345H116.214V39.9922H114.786V43.0263H113.51V40.2096H112.111V47.2042H113.51V44.2457Z" fill="white"/>
<path d="M113.275 49.2657C112.944 48.8498 112.783 48.3961 112.783 47.9329V47.6777H111.281V47.9329C111.281 48.4056 111.11 48.8498 110.78 49.2657C110.449 49.691 109.986 50.0502 109.371 50.3527C108.757 50.6552 108.057 50.8631 107.254 50.9671L107.859 52.1297C108.776 51.9974 109.598 51.7233 110.307 51.3357C111.016 50.9482 111.574 50.4567 111.971 49.8706C111.989 49.8328 112.008 49.8045 112.027 49.7667C112.046 49.8045 112.065 49.8423 112.093 49.8706C112.49 50.4567 113.039 50.9482 113.748 51.3357C114.456 51.7233 115.279 51.9879 116.205 52.1297L116.81 50.9671C116.007 50.8631 115.298 50.6552 114.683 50.3527C114.069 50.0502 113.606 49.691 113.275 49.2657Z" fill="white"/>
<path d="M119.051 52.0437H127.52V48.1211H119.051V52.0437ZM120.535 49.2932H126.064V50.8244H120.535V49.2932Z" fill="white"/>
<path d="M124.041 45.9853V44.8605H127.784V43.6506H126.168V41.5617H127.85V40.3518H118.738V41.5617H120.421V43.6506H118.804V44.8605H122.529V45.9853H117.736V47.1763H128.871V45.9853H124.041ZM121.914 41.5522H124.655V43.6412H121.914V41.5522Z" fill="white"/>
<defs>
<clipPath id="clip0_3890_8708">
<rect width="142" height="52.2233" fill="white"/>
</clipPath>
</defs>
</svg>
