<svg width="109" height="30" viewBox="0 0 109 30" fill="none" xmlns="http://www.w3.org/2000/svg">
<g clip-path="url(#clip0_4380_2231)">
<path d="M23.9769 8.43199C25.0245 -0.664358 18.7747 0.0441195 18.7747 0.0441195C17.0187 0.22883 15.4195 0.876581 13.995 1.80772C13.5825 1.76977 13.1752 1.74953 12.7627 1.74953C5.71084 1.74953 0 7.45783 0 14.5047C0 17.7864 1.24743 20.7823 3.28936 23.0418C3.2008 27.3559 5.34142 28.9374 5.34142 28.9374C7.87929 30.9591 11.5077 29.8204 14.7844 27.0928C20.8647 26.1262 25.5128 20.8582 25.5128 14.5072C25.5128 12.3084 24.9561 10.2437 23.9794 8.43452L23.9769 8.43199ZM5.85 28.0416C4.29388 27.0903 4.00543 24.8408 4.00543 24.8408C3.76252 23.1658 3.71698 21.3364 4.36726 19.1072H4.76451C4.53679 21.7919 5.11116 23.725 6.46992 24.0362C8.10701 24.4056 10.4172 22.3764 12.3402 19.1502C11.4546 20.0434 10.4779 20.4862 9.72892 20.3015C8.04629 19.9043 7.74265 16.5314 9.04322 12.7689C9.52144 11.3595 9.96424 10.393 10.6677 9.37578H14.1797C13.4332 10.2108 12.7096 11.2659 12.0998 12.4071C11.4242 13.6393 10.9257 14.9829 10.6828 16.0734C10.364 17.4221 10.4627 18.5076 11.0067 18.7884C11.7329 19.1477 12.9778 17.9534 13.8988 16.0734C14.0228 15.785 14.1341 15.5041 14.2455 15.2106C15.0273 13.1535 15.589 11.0508 15.7434 9.37578H18.3698C18.5773 6.25595 17.6183 4.1457 15.9509 3.77628C12.9626 3.10576 8.55234 7.90063 5.86013 14.4439H5.42492C5.66782 13.7734 6.03724 12.8574 6.03724 12.8574C6.1334 12.6424 6.23208 12.4222 6.33329 12.2072C9.25323 5.91689 14.9464 -0.0292586 19.4401 0.922126C20.8419 1.21564 21.9552 2.84767 21.8591 5.72459C20.9381 4.67706 19.7058 3.68772 18.3698 3.03997C19.4477 4.17606 19.9184 6.4103 19.2478 9.89449C18.9518 11.5619 18.4052 13.3458 17.5677 15.2435C14.8578 21.5287 10.24 26.1768 7.05948 25.9187C8.24871 26.5159 9.56698 26.9081 11.0371 27.0169C8.38281 29.4814 5.85 28.0416 5.85 28.0416Z" fill="white"/>
</g>
<g clip-path="url(#clip1_4380_2231)">
<path d="M63.3634 16.9713L63.1762 18.5857H55.5849L55.7621 16.9713H52.6319L52.0019 22.9481C52.0019 22.9481 51.9006 23.4466 52.1031 23.6845C52.303 23.9249 52.7407 23.9072 52.7407 23.9072H65.7395L66.4885 16.9688H63.366L63.3634 16.9713ZM62.908 22.1789H55.3091L55.4812 20.3393H63.0851L62.908 22.1789Z" fill="white"/>
<path d="M67.2945 9.61561L67.6134 6.52344H64.4832L63.4609 16.0909H66.5835L67.0845 11.5514L69.7516 11.559L69.9768 9.61561H67.2945Z" fill="white"/>
<path d="M58.234 7.44553L58.3884 6.02344H55.1545L55.0128 7.44553H50.5821L50.3594 9.50782H51.6195C51.0552 10.1784 50.6883 10.9451 50.6124 11.7852C50.3442 14.2701 52.6368 16.2843 55.7264 16.2843C58.816 16.2843 61.5337 14.2701 61.7943 11.7852C61.8804 10.9552 61.6779 10.1834 61.2655 9.51541H62.4801L62.6952 7.47843V7.44806H58.234V7.44553ZM55.9263 14.1689C54.4814 14.1689 53.4262 13.0605 53.5806 11.6916C53.735 10.3226 55.0406 9.2067 56.488 9.2067C57.9354 9.2067 58.9881 10.3226 58.8337 11.6916C58.6794 13.0605 57.3813 14.1689 55.9263 14.1689Z" fill="white"/>
<path d="M72.2733 12.7265L72.9135 6.82812H76.0285L75.5173 11.598H87.6127L87.3825 13.8222H72.9768C72.9768 13.8222 72.5922 13.8374 72.3619 13.6071C72.1392 13.392 72.2759 12.7291 72.2759 12.7291L72.2733 12.7265Z" fill="white"/>
<path d="M70.8004 15.8125L70.5625 18.0798H73.9912L73.3308 23.9883H76.4609L77.1138 18.0798H81.6913L81.0283 23.9883H84.0471L84.7101 18.0798H88.0047L88.2425 15.8125H70.8004Z" fill="white"/>
<path d="M39.837 14.8386H44.2905L43.8325 18.9607H46.783L48.1291 6.53125H45.1837L44.9838 8.47714H40.5379C39.5611 7.30809 38.0682 6.61728 36.3222 6.61728C33.0985 6.61475 30.5073 8.83646 30.2011 11.5921C29.8975 14.3376 31.9851 16.5694 35.2088 16.5694C36.9852 16.5694 38.6477 15.9014 39.8395 14.8386M41.4767 10.5167H44.7611L44.503 12.8092H41.254C41.669 11.6022 41.4767 10.5167 41.4767 10.5167ZM33.3313 11.6933C33.478 10.2155 34.6496 8.93262 36.1856 8.94021C37.7089 8.94021 38.7388 10.2257 38.5895 11.6933C38.4553 13.1711 37.094 14.3553 35.5631 14.3553C34.0322 14.3553 33.1845 13.1635 33.3338 11.6933H33.3313Z" fill="white"/>
<path d="M35.9272 22.0778L36.3422 17.6951L33.2348 17.6875L32.6857 22.9786C32.6857 22.9786 32.5972 23.4315 32.8679 23.7023C33.1361 23.9705 33.5739 23.9098 33.5739 23.9098H46.5575L46.7827 22.0803H35.9272V22.0778Z" fill="white"/>
<path d="M107.548 22.35L107.763 20.2422H89.6885L89.4531 22.35H107.548Z" fill="white"/>
<path d="M97.9762 6.54688C97.9762 6.54688 97.3537 13.5764 90.8075 14.2469L90.5469 16.4383C90.5469 16.4383 96.7464 16.2004 99.5071 10.9852C99.5071 10.9852 101.42 15.4236 107.506 16.5547L107.713 14.4392C107.713 14.4392 102.222 14.1002 101.552 6.54688H97.9762Z" fill="white"/>
</g>
<defs>
<clipPath id="clip0_4380_2231">
<rect width="26.125" height="29.9348" fill="white" transform="translate(0 0.03125)"/>
</clipPath>
<clipPath id="clip1_4380_2231">
<rect width="77.5902" height="17.9609" fill="white" transform="translate(30.1719 6.02344)"/>
</clipPath>
</defs>
</svg>
