<svg width="128" height="38" viewBox="0 0 128 38" fill="none" xmlns="http://www.w3.org/2000/svg">
<g id="&#235;&#175;&#188;&#237;&#140;&#131; ci">
<path id="Vector" d="M31.2723 29.4747C34.2357 27.2299 32.6221 24.089 29.8419 24.8069C27.5052 25.4108 27.0617 29.1532 27.0617 31.1949C27.0617 31.9906 26.2275 31.9464 26.2275 31.9464H24.8518C24.2067 31.9475 23.5764 31.7526 23.0445 31.3874C22.5104 31.0206 22.0991 30.5016 21.8641 29.8978C20.5695 26.5936 19.2436 22.9565 18.5886 21.5423C17.313 30.8252 14.4785 34.2 8.15819 34.2C5.08576 34.2 2.89696 33.0392 1.67447 31.2549C1.27167 30.6934 1.03767 30.0285 1 29.3385C1.00839 28.519 1.33583 27.735 1.91281 27.1529C2.48689 26.574 3.2661 26.2449 4.08134 26.2369C4.90458 26.2126 5.48785 26.4789 6.32405 27.2299C6.80081 27.6468 7.41873 27.8659 8.05158 27.8424C10.9408 27.6357 11.7336 21.0401 13.1073 12.46C13.3258 11.0494 14.2755 9.46175 16.5664 9.46175C17.9685 9.46175 18.9161 10.03 19.604 11.1909L25.2819 20.9538L30.9841 11.1155C31.6002 10.0714 32.5933 9.46782 33.9913 9.46782C35.8453 9.46782 37.3475 10.8095 37.3475 12.4661V28.9502C37.3475 30.6068 35.8453 31.9484 33.9913 31.9484H28.7503C28.7503 31.9484 27.7779 31.8824 29.0012 31.0806L31.2723 29.4747ZM43.943 31.9423C43.4884 31.942 43.0383 31.8515 42.6188 31.6762C42.1992 31.5009 41.8186 31.2442 41.4989 30.9209C40.8492 30.2646 40.485 29.3783 40.4855 28.4549V12.9509C40.4742 12.4856 40.5552 12.0227 40.7239 11.5889C40.892 11.1561 41.1447 10.7612 41.4673 10.4272C41.7889 10.0942 42.1742 9.82917 42.6002 9.64779C43.0251 9.46707 43.4821 9.37392 43.9439 9.37392C44.4056 9.37392 44.8626 9.46707 45.2875 9.64779C45.7131 9.82898 46.0982 10.0937 46.4204 10.4272C46.7431 10.7612 46.996 11.1561 47.1642 11.5889C47.3328 12.0227 47.4137 12.4856 47.4022 12.9509V28.4549C47.4023 29.3784 47.0379 30.2647 46.388 30.9209C46.0681 31.2442 45.6873 31.5009 45.2677 31.6762C44.8481 31.8515 44.3978 31.942 43.943 31.9423ZM98.5297 31.9423C98.0749 31.9419 97.6247 31.8514 97.2051 31.6761C96.7854 31.5008 96.4046 31.2441 96.0847 30.9209C95.4352 30.2645 95.0709 29.3783 95.071 28.4549V12.9509C95.0589 12.4862 95.1395 12.0238 95.3079 11.5905C95.4763 11.1572 95.7292 10.7618 96.0519 10.4272C96.3736 10.0943 96.7588 9.82923 97.1848 9.64779C97.8256 9.37525 98.5341 9.30385 99.2164 9.44305C99.8987 9.58225 100.523 9.92547 101.005 10.4272C101.328 10.7618 101.581 11.1572 101.75 11.5905C101.918 12.0237 101.999 12.4861 101.987 12.9509V28.4549C101.987 29.3798 101.623 30.2667 100.974 30.9209C100.655 31.2442 100.274 31.5009 99.8544 31.6762C99.4349 31.8515 98.9848 31.942 98.5301 31.9423H98.5297ZM90.2179 9.46175H76.1107C75.684 9.45038 75.2593 9.52538 74.8623 9.68225C74.4645 9.8396 74.1024 10.0753 73.7975 10.3754C73.4915 10.6761 73.2487 11.035 73.0833 11.4309C72.8337 12.0279 72.7683 12.686 72.8956 13.3205C73.0228 13.9551 73.3369 14.537 73.7975 14.9917C74.1025 15.2918 74.4647 15.5275 74.8627 15.6848C75.2599 15.8413 75.6843 15.9163 76.1107 15.9053H79.7052V28.4617C79.7271 29.3701 80.101 30.2344 80.7481 30.8723C81.3919 31.5069 82.2595 31.8628 83.1635 31.8633C84.0674 31.8627 84.9347 31.5067 85.5785 30.8723C86.2255 30.2344 86.5994 29.3701 86.6214 28.4617V15.9163H90.2183C90.6454 15.927 91.0702 15.8516 91.4676 15.6947C91.8649 15.5378 92.2266 15.3026 92.5312 15.0031C92.8371 14.7021 93.0799 14.3432 93.2454 13.9472C93.4949 13.35 93.5603 12.6919 93.433 12.0573C93.3057 11.4227 92.9917 10.8407 92.5312 10.3859C92.2262 10.086 91.8641 9.85042 91.4663 9.69319C91.0693 9.53639 90.6447 9.46139 90.2179 9.47269M61.3177 29.867C61.5098 31.1138 62.2653 31.9423 63.4031 31.9423C63.4031 31.9423 67.5894 31.9318 67.5784 31.9423C68.0333 31.942 68.4836 31.8516 68.9033 31.6763C69.323 31.501 69.7039 31.2442 70.0238 30.9209C70.6736 30.2646 71.038 29.3784 71.038 28.4549V12.9509C71.0499 12.4861 70.9692 12.0237 70.8006 11.5904C70.6321 11.1572 70.3791 10.7618 70.0562 10.4272C69.7346 10.0942 69.3493 9.82917 68.9233 9.64779C68.4984 9.46707 68.0414 9.37392 67.5797 9.37392C67.1179 9.37392 66.6609 9.46707 66.236 9.64779C65.8104 9.82898 65.4253 10.0937 65.1031 10.4272C64.7804 10.7612 64.5275 11.1561 64.3593 11.5889C64.1908 12.0227 64.1101 12.4856 64.1217 12.9509V23.406L57.0394 11.2898C56.674 10.6096 56.0921 10.0707 55.386 9.75845C54.6821 9.44741 53.8941 9.38202 53.1486 9.57281C52.4016 9.76468 51.7403 10.2008 51.2698 10.8119C50.7969 11.4256 50.5404 12.1785 50.5402 12.9533V28.4573C50.5402 29.3819 50.9046 30.2691 51.5528 30.9229C51.8726 31.2462 52.2533 31.5029 52.6728 31.6783C53.0924 31.8536 53.5426 31.944 53.9973 31.9444H59.4243C59.4243 31.9444 59.9416 31.918 59.627 31.321C59.627 31.321 58.9262 30.186 57.0787 29.0673C57.0787 29.0673 54.4582 27.6332 54.8947 24.9147C54.8947 24.9147 55.1919 22.8661 57.3888 23.2386C57.3888 23.2386 59.6513 23.6285 60.7409 27.4484C61.0077 28.2362 61.1993 29.0476 61.3132 29.8715M123.318 3.80005C122.498 3.80005 121.712 4.12837 121.132 4.71367C120.551 5.30064 120.225 6.09346 120.226 6.91949V6.96124H120.209C120.2 7.6261 119.932 8.26123 119.461 8.73052C118.992 9.19758 118.358 9.46031 117.697 9.46134H106.846C105.999 9.46134 105.185 9.80101 104.587 10.4058C103.987 11.0123 103.65 11.8313 103.651 12.6846C103.65 13.1076 103.731 13.5268 103.89 13.9188C104.05 14.3099 104.284 14.666 104.581 14.9666C104.877 15.2662 105.229 15.5045 105.617 15.6678C106.004 15.8306 106.419 15.915 106.839 15.9159H110.141V28.4727C110.163 29.3811 110.538 30.2453 111.185 30.8832C111.828 31.5178 112.696 31.8737 113.6 31.8742C114.503 31.8736 115.371 31.5177 116.014 30.8832C116.661 30.2453 117.035 29.3811 117.057 28.4727V15.9467H117.52C118.688 15.9456 119.844 15.7132 120.922 15.2629C121.999 14.8125 122.977 14.1532 123.799 13.323C125.466 11.6368 126.4 9.36114 126.4 6.99002V6.91949C126.4 6.09383 126.076 5.30221 125.498 4.71772C125.213 4.42861 124.874 4.19869 124.5 4.0412C124.125 3.88371 123.724 3.80176 123.318 3.80005H123.318Z" fill="#33CCBD"/>
</g>
</svg>
