<svg width="92" height="36" viewBox="0 0 92 36" fill="none" xmlns="http://www.w3.org/2000/svg">
<path d="M54.8977 29.7985V27.6376H62.6457V26.3383H54.8977V24.8356H62.6457V23.5391H54.4034C53.6492 23.5391 53.0391 24.1492 53.0391 24.9034V29.7363C53.0391 30.4877 53.6492 31.1006 54.4034 31.1006H63.0948V29.8013H54.8948L54.8977 29.7985Z" fill="white"/>
<path d="M64.1381 32.9062H51.9922V34.2056H64.1381V32.9062Z" fill="white"/>
<path d="M84.9891 25.1498L88.0199 29.3472C88.2685 29.689 88.6583 29.8782 89.0537 29.881H90.5536L85.9664 23.5312H84.6247C84.2292 23.5369 83.8423 23.7205 83.5909 24.0679L79.3906 29.8782H81.5656L84.9834 25.1498H84.9891Z" fill="white"/>
<path d="M91.0618 32.9062H78.8594V34.2056H91.0618V32.9062Z" fill="white"/>
<path d="M49.5159 23.5391V34.3207C49.5159 35.0749 48.903 35.685 48.1516 35.685H47.6602V23.5391H49.5188H49.5159Z" fill="white"/>
<path d="M44.6525 23.5391V26.5304H42.0312V27.8297H44.6525V35.6878H45.144C45.8954 35.6878 46.5083 35.0777 46.5083 34.3235V23.5419H44.6525V23.5391Z" fill="white"/>
<path d="M40.4563 31.5469V23.5391H38.5977V31.4819C38.5977 32.2361 39.2106 32.8462 39.962 32.8462H44.117V31.5469H40.4534H40.4563Z" fill="white"/>
<path d="M67.375 31.5497V32.849H75.0891V35.685H75.5834C76.3376 35.685 76.9477 35.0748 76.9477 34.3207V31.5469H67.3778L67.375 31.5497Z" fill="white"/>
<path d="M75.0868 23.5391V29.4228H72.2227V30.7249H75.0868V31.1882H76.9426V23.5391H75.0868Z" fill="white"/>
<path d="M74.2519 27.7567H72.3764C73.2209 27.2652 73.7604 26.5195 73.7604 25.6862C73.7604 24.2005 72.06 23 69.9641 23C67.8682 23 66.1706 24.2005 66.1706 25.6862C66.1706 26.5195 66.7101 27.268 67.5547 27.7567H65.5859V29.056H69.0376V31.0502H70.8963V29.056H74.2547V27.7567H74.2519ZM69.9641 24.2174C71.0149 24.2174 71.8679 24.9066 71.8679 25.7512C71.8679 26.5958 71.0149 27.2878 69.9641 27.2878C68.9134 27.2878 68.0603 26.6014 68.0603 25.7512C68.0603 24.901 68.9105 24.2174 69.9641 24.2174Z" fill="white"/>
<path d="M7.76783 26.4243C6.48827 25.8255 5.43751 25.3425 5.43751 24.3651C5.43751 23.6166 6.03633 23.0743 7.21703 23.0743C7.65202 23.0743 8.00793 23.1251 8.37513 23.1929C8.56721 23.2268 8.7734 23.2551 8.94288 23.2551C9.97387 23.2551 10.5558 22.6393 10.9456 21.4727L11.1066 20.9953C10.9427 20.9276 9.25642 20.1875 7.05602 20.1875C3.55912 20.1875 1.71181 22.4303 1.71463 24.7578C1.71463 25.9328 2.08184 26.783 2.65806 27.4525C3.39812 28.314 4.45736 28.8789 5.44598 29.3591C6.88655 30.0653 8.18588 30.5878 8.18588 31.6358C8.18588 32.5651 7.2255 33.0933 5.94029 33.0933C4.18054 33.0933 2.64112 32.0877 2.44622 31.9662L1 34.6751C1.25704 34.8191 3.11848 36.0026 6.18039 36.0026C9.44284 36.0026 11.9144 34.1299 11.9144 31.2488C11.9144 28.3676 9.62362 27.3225 7.76783 26.4215V26.4243Z" fill="white"/>
<path d="M20.531 27.7593L26.4515 20.5H22.2315L17.5087 26.765H17.4381V20.5H13.9609V35.8773H14.17C15.6727 35.8773 17.4635 35.1825 17.4635 32.6714V29.1406H17.5341L22.3473 35.6853H26.7735L20.531 27.7593Z" fill="white"/>
<path d="M26.6502 4.03125C25.4271 4.26287 23.6109 5.37295 23.6166 7.3389C23.6222 9.12407 25.0797 10.2059 25.0854 12.5419C25.0938 14.3016 24.1222 15.4852 23.0742 16.1433C23.4979 16.1066 23.9612 16.0812 24.4724 16.0812C25.543 16.0812 26.1898 16.18 26.2293 16.1857L31.7204 9.44608C30.1951 7.16377 28.4156 5.3899 26.6502 4.03125Z" fill="white"/>
<path d="M31.2606 22.2246C31.9527 21.1484 32.0402 19.4339 32.0995 17.6854C32.1645 16.0556 32.5035 14.8297 34.6841 14.8213C35.1671 14.8213 35.6275 14.8862 36.4608 14.8834C39.6554 14.8693 41.74 13.7705 43.0365 13.0474C40.387 11.3583 36.5173 9.6324 31.7182 9.4375C31.4047 10.3188 28.9727 17.081 28.7891 17.629C28.8173 17.6628 29.2438 18.1402 29.7749 19.0695C30.5601 20.3491 30.981 21.4309 31.2606 22.2218V22.2246Z" fill="white"/>
<path d="M19.6626 16.7021C19.3858 16.7021 19.2474 16.5185 19.2078 16.1993C19.1739 15.8829 17.7983 3.31612 17.595 1.41514C17.5639 1.13833 17.4961 0.62707 17.4961 0.446293C17.4961 0.152531 17.6853 0 17.9113 0C18.561 0 22.1087 0.827616 25.874 3.46583C24.7893 3.77089 22.829 4.90075 22.8375 7.2339C22.8431 9.30153 24.3232 10.4399 24.3317 12.5131C24.343 15.8858 20.4676 16.7021 19.6654 16.7021H19.6626Z" fill="white"/>
<path d="M31.5809 23.1209C31.6403 23.2763 31.6968 23.409 31.7533 23.5022C31.838 23.6491 31.9538 23.7169 32.0922 23.7141C32.1798 23.7141 32.2871 23.683 32.4057 23.6293C32.6967 23.4966 44.1647 18.158 45.8934 17.3586C46.1448 17.2372 46.6193 17.0253 46.7747 16.9349C46.9357 16.8417 47.012 16.7061 47.012 16.5706C47.012 16.4943 46.9893 16.4152 46.9442 16.3446C46.7267 15.9943 45.6194 14.8165 43.7636 13.5312C42.292 14.3419 39.9899 15.5961 36.5693 15.6102C35.7303 15.6102 35.5411 15.5537 34.9677 15.5565C33.2983 15.5622 32.8803 16.2768 32.8181 17.74C32.8068 18.0168 32.804 18.3896 32.7871 18.7964C32.7334 20.1042 32.578 21.9091 31.5781 23.1181L31.5809 23.1209Z" fill="white"/>
</svg>
