<svg width="160" height="21" viewBox="0 0 160 21" fill="none" xmlns="http://www.w3.org/2000/svg">
<g clip-path="url(#clip0_392_6669)">
<path d="M153.004 0H139L150.459 3.82935L153.004 0Z" fill="#5BC7D6"/>
<path d="M160 6.99861L153.004 0L154.717 5.23563L160 6.99861Z" fill="#42C3D3"/>
<path d="M139 0L139.029 20.9999L147.377 8.40899L139 0Z" fill="#00BCCE"/>
<path d="M156.184 9.66907L159.983 20.989L159.999 7L156.184 9.66907Z" fill="#00B5C9"/>
<path d="M139.027 20.9989L159.982 20.9866L151.638 12.6719L139.027 20.9989Z" fill="#00A2B5"/>
<path d="M156.182 9.66642L159.998 6.99735L154.715 5.23438L156.182 9.66642Z" fill="#71CCDA"/>
<path d="M150.457 3.82812L147.375 8.40777L151.638 12.6717L156.183 9.66645L154.716 5.23441L150.457 3.82812Z" fill="white"/>
<path d="M150.459 3.82935L139 0L147.377 8.40899L150.459 3.82935Z" fill="#8ED5E0"/>
<path d="M151.641 12.6732L159.985 20.9879L156.186 9.66797L151.641 12.6732Z" fill="#61C8D7"/>
<path d="M154.719 5.23563L153.006 0L150.461 3.82935L154.719 5.23563Z" fill="#9AD9E3"/>
<path d="M147.375 8.41016L139.027 21.0011L151.638 12.6741L147.375 8.41016Z" fill="#69CAD9"/>
<path d="M37.5332 6.61523V17.4727L31.4015 7.34387C31.0975 6.84399 30.9108 6.61523 30.4157 6.61523H26.5508V7.27609C26.7245 7.28456 26.8548 7.30998 26.8548 7.30998C27.5539 7.42012 27.9925 7.84798 27.9925 8.42834V20.9845H29.7165V9.80935L36.2435 20.4254C36.2435 20.4254 36.2521 20.4381 36.2565 20.4465V20.455H36.2652C36.4997 20.8363 36.7819 20.993 37.2857 20.993H39.2225V6.61523H37.5419H37.5332Z" fill="#00B5C9"/>
<path d="M83.0605 8.62255C83.0779 8.38956 83.1213 8.24129 83.1951 8.13962C83.3384 7.90239 83.5946 7.81343 84.2243 7.81343H85.2188C87.351 7.8219 88.302 8.68186 88.302 10.6051C88.302 12.7868 86.3652 13.2485 84.8453 13.2485H84.5239C84.3459 13.2485 84.2764 13.3756 84.3676 13.5281L88.3758 20.3654C88.6364 20.8144 88.9056 20.9923 89.3442 20.9923H91.6762L87.6028 14.0365C89.8393 13.6298 91.0552 12.469 91.0552 10.495C91.0552 6.62305 86.1828 6.62305 84.6238 6.62305H78.7266V7.29661C78.922 7.31355 79.0566 7.33473 79.0566 7.33473C79.8209 7.45335 80.2942 7.9151 80.2942 8.5463V20.9881H82.2484C82.7999 20.9881 83.0431 20.7848 83.0431 20.3273L83.0605 8.62255Z" fill="#00B5C9"/>
<path d="M19.0204 19.7469V14.1297H24.4448V12.9054H19.0204V8.85554C19.0204 7.94051 19.1594 7.8685 20.2538 7.8685H25.2005V6.62305H14.6992V7.29661C14.8947 7.31355 15.0293 7.33473 15.0293 7.33473C15.7936 7.45335 16.267 7.9151 16.267 8.5463V20.4501C16.267 20.8271 16.4625 20.9881 16.9141 20.9881H25.5305V19.7427H19.0161L19.0204 19.7469Z" fill="#00B5C9"/>
<path d="M96.3959 19.7469V14.1297H101.816V12.9054H96.3959V8.85554C96.3959 7.94051 96.5349 7.8685 97.6293 7.8685H102.576V6.62305H92.0312V7.29661C92.2267 7.31355 92.3613 7.33473 92.3613 7.33473C93.1257 7.45335 93.5991 7.9151 93.5991 8.5463V20.4501C93.5991 20.8271 93.7945 20.9881 94.2462 20.9881H102.906V19.7427H96.3959V19.7469Z" fill="#00B5C9"/>
<path d="M108.259 19.7469V14.1297H113.679V12.9054H108.259V8.85554C108.259 7.94051 108.403 7.8685 109.493 7.8685H114.439V6.62305H103.895V7.29661C104.09 7.31355 104.225 7.33473 104.225 7.33473C104.989 7.45335 105.462 7.9151 105.462 8.5463V20.4501C105.462 20.8271 105.658 20.9881 106.109 20.9881H114.769V19.7427H108.255L108.259 19.7469Z" fill="#00B5C9"/>
<path d="M126.772 7.94051C125.617 7.02972 124.002 6.62305 121.531 6.62305H115.781V7.29661C115.981 7.31355 116.111 7.33473 116.111 7.33473C116.876 7.45335 117.353 7.9151 117.353 8.5463V20.4501C117.353 20.8271 117.549 20.9881 118 20.9881H120.797C125.218 20.9881 129 20.4459 129 13.778C129 10.9652 128.188 9.05464 126.781 7.94051H126.772ZM125.318 18.3913C124.605 19.3614 123.416 19.7977 121.453 19.7977H120.193V8.85978C120.193 7.96593 120.471 7.81343 121.744 7.81343C125.921 7.81343 126.243 10.3001 126.243 13.8162C126.243 16.1376 125.965 17.5059 125.318 18.3913Z" fill="#00B5C9"/>
<path d="M59.0516 7.0259C58.9213 6.69124 58.7259 6.54297 58.3915 6.54297H54.7871V7.19535C54.9218 7.21653 55.0868 7.25466 55.0868 7.25466C55.3994 7.32667 55.8598 7.58508 55.8598 7.90704C55.8598 8.41962 55.5341 9.25839 55.4733 9.41937L51.0742 20.9885H52.6593L54.3181 16.5955H59.8767L61.301 20.3531C61.4661 20.7979 61.757 20.9885 62.2738 20.9885H64.4364L59.0516 7.02166V7.0259ZM54.7741 15.4009L57.1235 9.45326L59.412 15.4009H54.7698H54.7741Z" fill="#00B5C9"/>
<path d="M74.1851 12.1253L73.8029 12.0363L74.172 11.9007C76.1523 11.1806 77.2423 9.96478 77.2423 8.18133C77.2423 5.47014 75.097 4.14844 70.9368 4.14844H64.1016V4.89401C64.3317 4.91096 64.5402 4.94909 64.5402 4.94909C65.3392 5.08041 65.9255 5.56334 65.9255 6.25384V20.3266C65.9255 20.7841 66.16 20.979 66.7115 20.979H70.5634C72.5957 20.979 78.1195 20.979 78.1195 16.5182C78.1195 14.1036 76.782 12.7056 74.1807 12.121L74.1851 12.1253ZM71.028 19.8056H68.9349V6.56309C68.9349 5.2668 69.0087 5.22444 70.5416 5.22444C73.1472 5.22444 74.3067 6.16912 74.3067 8.28724C74.3067 10.4054 72.9865 11.5068 70.2637 11.5068H70.255C70.255 11.5068 70.1465 11.4983 70.0726 11.5661C70.0292 11.6084 70.0379 11.6762 70.0379 11.6762V12.6802H70.9151C73.6726 12.6802 75.1926 13.8706 75.1926 16.0311C75.1926 18.6067 73.8724 19.8056 71.0324 19.8056H71.028Z" fill="#00B5C9"/>
<path d="M8.35516 4H0V4.74134C0.230158 4.75405 0.382149 4.7837 0.382149 4.7837C1.27238 4.91079 1.82389 5.42337 1.82389 6.12235V21H4.26443C4.82028 21 5.05913 20.8051 5.05913 20.3391V6.71119C5.0461 5.6606 5.05913 5.19038 6.5443 5.19038H7.11318C9.42778 5.19885 10.8652 5.76227 10.8652 8.54971C10.8652 11.8201 8.62006 12.1971 6.92644 12.1971H6.33151C6.33151 12.1971 6.24466 12.1971 6.18386 12.2479C6.13609 12.2903 6.14043 12.3411 6.14043 12.3411V13.3833H6.38362C9.75348 13.3833 13.7921 13.3833 13.7921 8.63444C13.7921 5.73262 11.6772 4 8.35082 4H8.35516Z" fill="#00B5C9"/>
<path d="M52.7066 6.60156H40.5908L40.5039 9.40595H41.3551C41.5505 8.16473 42.1107 7.79194 43.5828 7.79194H45.2026V20.9878H47.2914C47.8299 20.9878 48.0687 20.7845 48.0687 20.327V7.79194H49.6668C51.1997 7.79194 51.8251 8.21133 51.9423 9.40595H52.7674L52.6979 6.60156H52.7066Z" fill="#00B5C9"/>
</g>
<defs>
<clipPath id="clip0_392_6669">
<rect width="160" height="21" fill="white"/>
</clipPath>
</defs>
</svg>
