<svg width="791" height="277" viewBox="0 0 791 277" fill="none" xmlns="http://www.w3.org/2000/svg">
<circle opacity="0.4" cx="138.5" cy="138.5" r="138" fill="#9735D0" fill-opacity="0.14" stroke="#9735D0"/>
<path d="M77.9421 88.806C79.8501 88.806 81.2721 90.12 81.4881 92.064H83.2161V87.87H84.4941V98.904H83.2161V93.198H81.4881C81.2541 95.124 79.8321 96.402 77.9421 96.402C75.8901 96.402 74.3781 94.854 74.3781 92.604C74.3781 90.372 75.8901 88.806 77.9421 88.806ZM75.6021 92.604C75.6021 94.152 76.5921 95.268 77.9421 95.268C79.2921 95.268 80.3001 94.152 80.3001 92.604C80.3001 91.056 79.2921 89.958 77.9421 89.958C76.5921 89.958 75.6021 91.056 75.6021 92.604ZM77.2401 102.954V97.842H78.5901V101.838H87.9501V102.954H77.2401ZM86.1861 99.336V87.564H87.4641V99.336H86.1861ZM91.6585 89.112H102.423V90.624C102.423 92.55 102.423 94.692 101.775 97.896L100.443 97.734C100.749 96.294 100.911 95.052 101.001 93.936L91.4425 94.494L91.2445 93.306L101.055 92.91C101.091 92.082 101.091 91.326 101.091 90.624V90.228H91.6585V89.112ZM89.9485 101.118V100.002H95.5465V95.898H96.8785V100.002H104.169V101.118H89.9485ZM109.875 88.788C112.179 88.788 113.799 90.912 113.799 94.26C113.799 97.608 112.179 99.75 109.875 99.75C107.571 99.75 105.933 97.608 105.933 94.26C105.933 90.912 107.571 88.788 109.875 88.788ZM107.229 94.26C107.229 96.834 108.309 98.544 109.875 98.544C111.441 98.544 112.521 96.834 112.521 94.26C112.521 91.686 111.441 89.994 109.875 89.994C108.309 89.994 107.229 91.686 107.229 94.26ZM116.427 103.314V87.564H117.777V93.9H120.387V95.034H117.777V103.314H116.427ZM126.507 88.716C128.955 88.716 130.701 90.228 130.701 92.406C130.701 94.602 128.955 96.096 126.507 96.096C124.041 96.096 122.295 94.602 122.295 92.406C122.295 90.228 124.041 88.716 126.507 88.716ZM121.485 98.706C124.365 98.706 128.361 98.706 131.799 98.166L131.907 99.156C128.361 99.84 124.491 99.858 121.665 99.858L121.485 98.706ZM123.609 92.406C123.609 93.882 124.833 94.926 126.507 94.926C128.163 94.926 129.387 93.882 129.387 92.406C129.387 90.912 128.163 89.886 126.507 89.886C124.833 89.886 123.609 90.912 123.609 92.406ZM132.843 103.332V87.546H134.193V103.332H132.843ZM141.294 95.448H147.738V93.504H143.112V88.212H153.75V89.31H144.444V92.406H153.894V93.504H149.088V95.448H155.532V96.528H141.294V95.448ZM142.878 99.228V98.13H153.786V103.458H152.436V99.228H142.878ZM157.027 100.146H163.471V96.708H158.737V88.68H160.069V91.524H168.241V88.68H169.573V96.708H164.803V100.146H171.301V101.28H157.027V100.146ZM160.069 95.61H168.241V92.64H160.069V95.61ZM181.147 91.704H184.315V87.564H185.665V96.978H184.315V92.838H181.147V91.704ZM172.813 95.664C175.117 94.836 176.791 92.748 176.791 90.48V89.778H173.245V88.662H181.651V89.778H178.141V90.48C178.141 92.532 179.743 94.494 182.011 95.286L181.309 96.366C179.545 95.718 178.177 94.386 177.511 92.748C176.845 94.584 175.369 96.042 173.515 96.726L172.813 95.664ZM175.189 98.976V97.86H185.665V103.314H184.315V98.976H175.189ZM200.011 87.582H201.379V99.084H200.011V87.582ZM188.851 92.55C188.851 90.264 190.615 88.68 192.937 88.68C195.277 88.68 197.023 90.264 197.023 92.55C197.023 94.8 195.277 96.402 192.937 96.402C190.615 96.402 188.851 94.8 188.851 92.55ZM190.165 92.55C190.165 94.098 191.371 95.214 192.937 95.214C194.521 95.214 195.727 94.098 195.727 92.55C195.727 90.966 194.521 89.85 192.937 89.85C191.371 89.85 190.165 90.966 190.165 92.55ZM191.317 102.954V97.914H192.649V101.838H201.865V102.954H191.317ZM104.083 116.564H105.379V132.314H104.083V116.564ZM92.6167 128.498V118.508H98.5387V119.624H93.9487V127.364C96.2167 127.364 97.6567 127.274 99.3307 126.896L99.4747 128.03C97.6747 128.426 96.1447 128.498 93.6247 128.498H92.6167ZM97.4587 123.728V122.594H100.915V116.942H102.193V131.486H100.915V123.728H97.4587ZM119.257 116.546H120.607V132.332H119.257V116.546ZM108.331 123.26C108.331 119.912 109.987 117.788 112.327 117.788C114.649 117.788 116.305 119.912 116.305 123.26C116.305 126.608 114.649 128.75 112.327 128.75C109.987 128.75 108.331 126.608 108.331 123.26ZM109.645 123.26C109.645 125.834 110.743 127.544 112.327 127.544C113.893 127.544 115.009 125.834 115.009 123.26C115.009 120.686 113.893 118.994 112.327 118.994C110.743 118.994 109.645 120.686 109.645 123.26ZM135.08 116.546H136.412V132.332H135.08V123.656H131.75V122.558H135.08V116.546ZM124.208 128.534V118.022H131.48V119.138H125.54V122.432H130.778V123.53H125.54V127.4C128.456 127.4 130.31 127.328 132.47 126.914L132.614 128.03C130.346 128.426 128.438 128.534 125.396 128.534H124.208ZM147.284 121.604H150.794V116.564H152.144V128.264H150.794V122.72H147.284V121.604ZM139.562 121.118L145.484 120.848C145.7 120.254 145.844 119.606 145.898 118.94H140.336V117.842H147.302C147.302 121.892 145.214 124.934 140.192 126.626L139.634 125.546C142.334 124.664 144.062 123.404 144.998 121.838L139.778 122.234L139.562 121.118ZM142.298 131.954V127.094H143.666V130.838H152.612V131.954H142.298ZM163.034 119.48H166.526V116.564H167.876V124.7H166.526V120.596H163.034V119.48ZM154.952 123.656C157.292 122.864 158.912 120.884 158.912 118.562V117.05H160.226V118.562C160.226 120.632 161.882 122.558 164.114 123.314L163.412 124.358C161.684 123.728 160.298 122.468 159.596 120.884C158.948 122.666 157.508 124.052 155.672 124.718L154.952 123.656ZM157.778 126.608V125.528H167.876V129.254H159.128V131.018H168.47V132.098H157.796V128.228H166.544V126.608H157.778ZM171.603 117.734H179.073V118.814H172.935V120.866H178.641V121.946H172.935V124.088C176.283 124.088 178.173 124.016 180.369 123.638L180.513 124.736C178.227 125.114 176.319 125.186 172.863 125.186H171.603V117.734ZM173.097 129.416C173.097 127.616 175.095 126.572 178.371 126.572C181.647 126.572 183.645 127.616 183.645 129.416C183.645 131.252 181.647 132.278 178.371 132.278C175.095 132.278 173.097 131.252 173.097 129.416ZM174.447 129.416C174.447 130.55 175.923 131.216 178.371 131.216C180.801 131.216 182.295 130.55 182.295 129.416C182.295 128.318 180.801 127.634 178.371 127.634C175.923 127.634 174.447 128.318 174.447 129.416ZM182.205 126.338V116.582H183.573V126.338H182.205ZM75.3649 157.876H89.8729V159.514H75.3649V157.876ZM76.5349 148.48V146.878H88.6129V148.48H86.3269V153.574H88.5769V155.158H76.6069V153.574H78.8389V148.48H76.5349ZM80.8189 153.574H84.3649V148.48H80.8189V153.574ZM91.5474 147.076H97.2174V152.98H93.4734V156.004C95.1114 155.986 96.6414 155.896 98.4234 155.59L98.5854 157.192C96.4614 157.57 94.6794 157.624 92.6634 157.624H91.5654V151.432H95.3274V148.66H91.5474V147.076ZM97.9194 152.62V151H99.6474V145.762H101.483V160.648H99.6474V152.62H97.9194ZM102.887 161.44V145.42H104.777V161.44H102.887ZM118.062 145.438H120.042V154.528H118.062V145.438ZM107.1 150.01C107.1 147.778 108.918 146.212 111.384 146.212C113.85 146.212 115.668 147.778 115.668 150.01C115.668 152.242 113.85 153.808 111.384 153.808C108.918 153.808 107.1 152.242 107.1 150.01ZM109.026 150.01C109.026 151.342 110.034 152.17 111.384 152.17C112.734 152.17 113.742 151.342 113.742 150.01C113.742 148.696 112.734 147.85 111.384 147.85C110.034 147.85 109.026 148.696 109.026 150.01ZM109.512 161.26V155.302H120.042V161.26H109.512ZM111.456 159.694H118.116V156.868H111.456V159.694ZM133.974 145.42H135.954V161.458H133.974V157.786H130.608V156.256H133.974V145.42ZM122.49 153.682C125.478 153.682 129.438 153.664 132.876 153.196L133.002 154.618C131.544 154.87 130.032 155.032 128.574 155.14V160.972H126.594V155.248C125.208 155.302 123.912 155.302 122.724 155.302L122.49 153.682ZM123.606 149.38C123.606 147.454 125.298 146.158 127.674 146.158C130.05 146.158 131.724 147.454 131.724 149.38C131.724 151.324 130.05 152.602 127.674 152.602C125.298 152.602 123.606 151.324 123.606 149.38ZM125.478 149.38C125.478 150.46 126.378 151.108 127.674 151.108C128.97 151.108 129.852 150.46 129.852 149.38C129.852 148.318 128.97 147.634 127.674 147.634C126.378 147.634 125.478 148.318 125.478 149.38ZM139.951 146.914H151.201V148.804C151.201 151.144 151.201 153.358 150.481 156.76L148.519 156.58C148.843 155.176 149.023 153.934 149.113 152.8L139.771 153.286L139.519 151.684L149.203 151.342C149.239 150.46 149.239 149.632 149.239 148.804V148.516H139.951V146.914ZM138.295 159.424V157.786H152.785V159.424H138.295ZM155.287 153.502C155.287 151.162 156.205 148.084 157.501 146.032H159.517C158.041 148.066 157.015 151.144 157.015 153.502C157.015 155.86 158.041 158.938 159.517 160.972H157.501C156.205 158.92 155.287 155.842 155.287 153.502ZM170.52 146.86V148.534H163.842V152.476H169.584V154.132H163.842V158.47H170.52V160.144H161.934V146.86H170.52ZM177.04 158.47C179.884 158.47 181.792 156.472 181.792 153.502C181.792 150.532 179.884 148.534 177.04 148.534L175.15 148.552V158.452L177.04 158.47ZM173.242 160.144V146.86H177.058C180.946 146.86 183.682 149.596 183.682 153.502C183.682 157.408 180.946 160.144 177.058 160.144H173.242ZM194.251 146.86V148.534H187.753V152.656H193.261V154.312H187.753V160.144H185.845V146.86H194.251ZM200.352 153.502C200.352 155.842 199.452 158.902 198.156 160.972H196.14C197.598 158.956 198.624 155.86 198.624 153.502C198.624 151.144 197.598 148.048 196.14 146.032H198.156C199.452 148.102 200.352 151.162 200.352 153.502ZM132.02 178.38H134.684V174.438H136.664V183.978H134.684V180H132.02V178.38ZM123.326 182.25C125.864 181.386 127.196 179.28 127.196 177.156V176.976H123.884V175.392H132.488V176.976H129.194V177.156C129.194 179.118 130.472 181.08 132.938 181.926L131.948 183.474C130.184 182.862 128.942 181.638 128.24 180.126C127.556 181.8 126.224 183.15 124.334 183.798L123.326 182.25ZM125.846 186.354V184.752H136.664V190.458H134.684V186.354H125.846ZM139.112 182.16H142.478V180.108C141.29 179.586 140.606 178.776 140.606 177.732C140.606 175.824 142.838 174.69 146.348 174.69C149.858 174.69 152.09 175.824 152.09 177.732C152.09 178.776 151.406 179.604 150.182 180.126V182.16H153.584V183.708H139.112V182.16ZM140.786 187.56C140.786 185.724 142.874 184.68 146.33 184.68C149.768 184.68 151.856 185.724 151.856 187.56C151.856 189.414 149.768 190.458 146.33 190.458C142.874 190.458 140.786 189.414 140.786 187.56ZM142.64 177.732C142.64 178.722 144.008 179.262 146.348 179.262C148.67 179.262 150.038 178.722 150.038 177.732C150.038 176.742 148.67 176.202 146.348 176.202C144.008 176.202 142.64 176.742 142.64 177.732ZM142.784 187.56C142.784 188.478 144.026 188.946 146.33 188.946C148.616 188.946 149.858 188.478 149.858 187.56C149.858 186.66 148.616 186.192 146.33 186.192C144.026 186.192 142.784 186.66 142.784 187.56ZM144.44 182.16H148.22V180.63C147.644 180.72 147.014 180.756 146.348 180.756C145.664 180.756 145.016 180.72 144.44 180.63V182.16Z" fill="#6D0CA6"/>
<circle opacity="0.4" cx="395.5" cy="138.5" r="138" fill="#9735D0" fill-opacity="0.14" stroke="#9735D0"/>
<path d="M357.395 88.86L362.327 102.144H360.293L358.961 98.526H353.507L352.121 102.144H350.087L355.109 88.86H357.395ZM354.119 96.87H358.331L356.261 91.272L354.119 96.87ZM363.904 89.292H365.812V102.144H363.904V89.292ZM368.158 89.292H370.066V102.144H368.158V89.292ZM372.412 94.422H380.26V96.33H372.412V94.422ZM382.896 93.558H384.804V102.144H382.896V93.558ZM382.77 90.354C382.77 89.724 383.22 89.274 383.85 89.274C384.48 89.274 384.93 89.724 384.93 90.354C384.93 90.984 384.48 91.434 383.85 91.434C383.22 91.434 382.77 90.984 382.77 90.354ZM393.312 97.428C393.312 96.06 392.61 95.232 391.422 95.232C390.252 95.25 389.352 96.168 389.37 97.428V102.162H387.462V93.576H389.37V94.746C389.91 94.08 390.828 93.594 391.656 93.594C393.276 93.594 395.22 94.656 395.22 97.356V102.162H393.312V97.428ZM397.531 94.422H405.379V96.33H397.531V94.422ZM414.495 100.614C417.303 100.614 419.193 98.562 419.193 95.502C419.193 92.442 417.303 90.39 414.495 90.39C411.687 90.39 409.815 92.442 409.815 95.502C409.815 98.562 411.687 100.614 414.495 100.614ZM407.889 95.502C407.889 91.524 410.625 88.716 414.495 88.716C418.383 88.716 421.119 91.524 421.119 95.502C421.119 99.48 418.383 102.288 414.495 102.288C410.625 102.288 407.889 99.48 407.889 95.502ZM429.066 97.428C429.066 96.06 428.364 95.232 427.176 95.232C426.006 95.25 425.106 96.168 425.124 97.428V102.162H423.216V93.576H425.124V94.746C425.664 94.08 426.582 93.594 427.41 93.594C429.03 93.594 430.974 94.656 430.974 97.356V102.162H429.066V97.428ZM437.051 102.198C434.621 102.198 432.911 100.416 432.911 97.896C432.911 95.358 434.621 93.576 437.051 93.576C439.715 93.576 440.561 95.754 440.615 95.898C441.137 97.122 440.975 98.49 440.975 98.634H434.783C434.999 99.786 435.971 100.578 437.051 100.578C438.473 100.578 439.049 99.75 439.193 99.498L440.723 100.182C440.309 101.154 439.103 102.198 437.051 102.198ZM434.783 97.122H439.175C438.995 96.06 438.383 95.196 437.051 95.196C435.899 95.196 434.999 96.006 434.783 97.122ZM343.1 129.47C345.944 129.47 347.852 127.472 347.852 124.502C347.852 121.532 345.944 119.534 343.1 119.534L341.21 119.552V129.452L343.1 129.47ZM339.302 131.144V117.86H343.118C347.006 117.86 349.742 120.596 349.742 124.502C349.742 128.408 347.006 131.144 343.118 131.144H339.302ZM355.364 131.234C352.988 131.234 351.296 129.434 351.296 126.914C351.296 124.394 352.988 122.594 355.364 122.594C356.21 122.594 357.146 122.99 357.83 123.8V122.576H359.738V131.162H357.83V130.01C357.146 130.874 356.21 131.234 355.364 131.234ZM353.204 126.914C353.204 128.534 354.122 129.614 355.49 129.614C356.75 129.614 357.83 128.48 357.848 126.914C357.83 125.348 356.75 124.214 355.49 124.214C354.122 124.214 353.204 125.276 353.204 126.914ZM363.072 131.162V124.214H361.452V122.558H363.072V119.552H364.98V122.558H367.014V124.214H364.98V131.162H363.072ZM372.433 131.234C370.057 131.234 368.365 129.434 368.365 126.914C368.365 124.394 370.057 122.594 372.433 122.594C373.279 122.594 374.215 122.99 374.899 123.8V122.576H376.807V131.162H374.899V130.01C374.215 130.874 373.279 131.234 372.433 131.234ZM370.273 126.914C370.273 128.534 371.191 129.614 372.559 129.614C373.819 129.614 374.899 128.48 374.917 126.914C374.899 125.348 373.819 124.214 372.559 124.214C371.191 124.214 370.273 125.276 370.273 126.914ZM388.563 124.484C390.003 124.484 391.011 123.458 391.011 122C391.011 120.56 389.985 119.534 388.545 119.534H385.629V124.484H388.563ZM383.721 131.144V117.86H388.617C391.137 117.86 392.901 119.57 392.901 122C392.901 124.43 391.137 126.14 388.617 126.14H385.629V131.144H383.721ZM394.508 118.292H396.416V131.144H394.508V118.292ZM402.28 131.234C399.904 131.234 398.212 129.434 398.212 126.914C398.212 124.394 399.904 122.594 402.28 122.594C403.126 122.594 404.062 122.99 404.746 123.8V122.576H406.654V131.162H404.746V130.01C404.062 130.874 403.126 131.234 402.28 131.234ZM400.12 126.914C400.12 128.534 401.038 129.614 402.406 129.614C403.666 129.614 404.746 128.48 404.764 126.914C404.746 125.348 403.666 124.214 402.406 124.214C401.038 124.214 400.12 125.276 400.12 126.914ZM409.988 131.162V124.214H408.368V122.558H409.988V119.552H411.896V122.558H413.93V124.214H411.896V131.162H409.988ZM418.801 131.162H416.893V124.232H415.381V122.54H416.893V120.74C416.893 119.156 417.991 117.95 419.575 117.842C420.313 117.788 421.231 118.076 421.663 118.508L420.691 119.912C420.295 119.57 420.043 119.498 419.737 119.534C419.179 119.588 418.801 120.056 418.801 120.74V122.54H421.213V124.232H418.801V131.162ZM426.452 129.596C427.784 129.596 428.684 128.534 428.684 126.896C428.684 125.276 427.784 124.196 426.452 124.196C425.12 124.196 424.22 125.258 424.22 126.896C424.22 128.534 425.102 129.596 426.452 129.596ZM422.312 126.896C422.312 124.358 424.022 122.558 426.452 122.558C428.882 122.558 430.592 124.358 430.592 126.896C430.592 129.416 428.882 131.234 426.452 131.234C424.022 131.234 422.312 129.416 422.312 126.896ZM432.443 131.162V122.576H434.351V123.836C434.927 123.026 435.971 122.486 436.979 122.54V124.304C435.449 124.232 434.351 125.582 434.351 126.896V131.162H432.443ZM449.927 126.284C449.927 125.06 449.261 124.25 448.289 124.25C447.191 124.25 446.453 125.096 446.453 126.194V131.162H444.527V126.284C444.527 125.06 443.879 124.25 442.925 124.25C441.827 124.25 441.053 125.186 441.053 126.392V131.162H439.145V122.576H441.053V123.746C441.557 123.062 442.295 122.594 443.105 122.594C444.131 122.594 445.139 123.242 445.643 124.142C446.237 123.242 447.389 122.594 448.415 122.594C450.449 122.594 451.853 124.106 451.853 126.212V131.162H449.927V126.284ZM346.256 148.012C344.474 148.012 343.232 149.29 343.232 151.126C343.232 152.962 344.474 154.258 346.256 154.258C347.984 154.258 349.208 152.962 349.208 151.126C349.208 149.29 347.984 148.012 346.256 148.012ZM341.936 151.126C341.936 148.624 343.7 146.86 346.22 146.86C348.74 146.86 350.504 148.624 350.504 151.126C350.504 152.044 350.216 152.872 349.838 153.538L346.148 160H344.654L347.372 155.284C347.012 155.356 346.616 155.41 346.22 155.41C343.7 155.41 341.936 153.646 341.936 151.126ZM364.237 145.564H365.551V161.314H364.237V153.052H362.041V160.522H360.745V145.978H362.041V151.936H364.237V145.564ZM352.249 156.94C355.921 154.906 357.397 152.008 357.613 148.732H352.825V147.616H358.945C358.945 151.612 357.541 155.392 353.041 157.93L352.249 156.94ZM373.057 146.716C375.505 146.716 377.251 148.228 377.251 150.406C377.251 152.602 375.505 154.096 373.057 154.096C370.591 154.096 368.845 152.602 368.845 150.406C368.845 148.228 370.591 146.716 373.057 146.716ZM368.035 156.706C370.915 156.706 374.911 156.706 378.349 156.166L378.457 157.156C374.911 157.84 371.041 157.858 368.215 157.858L368.035 156.706ZM370.159 150.406C370.159 151.882 371.383 152.926 373.057 152.926C374.713 152.926 375.937 151.882 375.937 150.406C375.937 148.912 374.713 147.886 373.057 147.886C371.383 147.886 370.159 148.912 370.159 150.406ZM379.393 161.332V145.546H380.743V161.332H379.393ZM394.27 150.406H395.62V152.476H402.064V153.574H387.844V152.476H394.27V150.406ZM388.654 150.154C391.462 149.83 394.27 148.336 394.27 146.284V145.672H395.638V146.284C395.638 148.336 398.446 149.83 401.254 150.154L400.786 151.198C398.356 150.856 395.944 149.776 394.954 148.048C393.964 149.776 391.552 150.856 389.122 151.198L388.654 150.154ZM389.572 155.968V154.924H400.228V158.47H390.94V160.072H400.714V161.134H389.626V157.462H398.914V155.968H389.572ZM405.286 146.23H416.104V150.28H406.69V152.35H416.464V153.466H405.322V149.218H414.754V147.31H405.286V146.23ZM403.576 156.256V155.158H417.85V156.256H411.352V161.332H410.02V156.256H403.576ZM427.643 147.904H430.883V145.582H432.233V157.336H430.883V152.278H427.643V151.162H430.883V149.038H427.643V147.904ZM419.345 154.132C421.649 153.214 423.287 150.964 423.287 148.48V146.428H424.619V148.48C424.619 150.802 426.221 152.98 428.453 153.862L427.715 154.924C426.005 154.204 424.637 152.764 423.971 150.982C423.305 152.908 421.901 154.438 420.047 155.194L419.345 154.132ZM422.135 160.954V156.13H423.485V159.838H432.611V160.954H422.135ZM442.151 145.852C445.607 145.852 447.677 146.806 447.677 148.57C447.677 150.334 445.607 151.306 442.151 151.306C438.695 151.306 436.625 150.334 436.625 148.57C436.625 146.806 438.695 145.852 442.151 145.852ZM435.041 153.502V152.404H449.261V153.502H435.041ZM436.769 155.932V154.888H447.425V158.38H438.137V160.072H447.911V161.134H436.823V157.39H446.111V155.932H436.769ZM438.011 148.57C438.011 149.668 439.559 150.28 442.151 150.28C444.743 150.28 446.291 149.668 446.291 148.57C446.291 147.49 444.743 146.86 442.151 146.86C439.559 146.86 438.011 147.49 438.011 148.57ZM341.962 174.564H343.312V181.08H345.922V182.214H343.312V190.314H341.962V174.564ZM331.126 178.218V177.102H335.158V174.744H336.526V177.102H340.45V178.218H331.126ZM332.044 183.168C332.044 181.044 333.664 179.568 335.86 179.568C338.074 179.568 339.676 181.044 339.676 183.168C339.676 185.292 338.074 186.768 335.86 186.768C333.664 186.768 332.044 185.292 332.044 183.168ZM333.34 183.168C333.34 184.608 334.384 185.634 335.86 185.634C337.318 185.634 338.38 184.608 338.38 183.168C338.38 181.728 337.318 180.684 335.86 180.684C334.384 180.684 333.34 181.728 333.34 183.168ZM357.695 174.546H359.045V180.882H361.583V182.016H359.045V190.314H357.695V174.546ZM347.615 186.3V176.112H348.947V185.184C351.233 185.184 353.609 185.004 356.183 184.464L356.345 185.598C353.645 186.138 351.251 186.3 348.857 186.3H347.615ZM367.775 175.716C370.223 175.716 371.969 177.228 371.969 179.406C371.969 181.602 370.223 183.096 367.775 183.096C365.309 183.096 363.563 181.602 363.563 179.406C363.563 177.228 365.309 175.716 367.775 175.716ZM362.753 185.706C365.633 185.706 369.629 185.706 373.067 185.166L373.175 186.156C369.629 186.84 365.759 186.858 362.933 186.858L362.753 185.706ZM364.877 179.406C364.877 180.882 366.101 181.926 367.775 181.926C369.431 181.926 370.655 180.882 370.655 179.406C370.655 177.912 369.431 176.886 367.775 176.886C366.101 176.886 364.877 177.912 364.877 179.406ZM374.111 190.332V174.546H375.461V190.332H374.111ZM383.894 175.068H395.414V176.112H393.002V179.226H395.36V180.27H383.948V179.226H386.306V176.112H383.894V175.068ZM382.562 182.718V181.638H396.782V182.718H382.562ZM384.29 185.184V184.158H394.946V187.578H385.658V189.09H395.432V190.134H384.344V186.588H393.632V185.184H384.29ZM387.674 179.226H391.67V176.112H387.674V179.226ZM410.264 174.564H411.56V185.31H410.264V179.838H408.05V183.942H406.79V174.87H408.05V178.722H410.264V174.564ZM398.996 176.922V175.824H404.918V180.18H400.328V182.592C402.398 182.592 404.018 182.484 405.854 182.106L405.998 183.204C403.982 183.618 402.326 183.69 400.04 183.69H399.032V179.154H403.604V176.922H398.996ZM400.31 189.198C402.992 188.766 405.674 187.092 405.674 185.004V184.59H407.024V185.004C407.024 187.092 409.706 188.766 412.388 189.198L411.848 190.26C409.544 189.846 407.294 188.64 406.34 186.876C405.386 188.64 403.136 189.846 400.832 190.26L400.31 189.198ZM414.027 182.538H420.453V180.684H415.413V179.586H417.771V176.184H415.359V175.086H426.879V176.184H424.467V179.586H426.825V180.684H421.803V182.538H428.247V183.636H414.027V182.538ZM415.791 190.098V185.166H426.501V190.098H415.791ZM417.105 189H425.187V186.246H417.105V189ZM419.139 179.586H423.135V176.184H419.139V179.586ZM436.869 175.572C440.145 175.572 442.575 177.3 442.575 179.892C442.575 182.502 440.145 184.212 436.869 184.212C433.611 184.212 431.163 182.502 431.163 179.892C431.163 177.3 433.611 175.572 436.869 175.572ZM429.759 188.19V187.056H444.033V188.19H429.759ZM432.459 179.892C432.459 181.818 434.349 183.114 436.869 183.114C439.407 183.114 441.279 181.818 441.279 179.892C441.279 177.984 439.407 176.67 436.869 176.67C434.349 176.67 432.459 177.984 432.459 179.892ZM445.491 187.218H451.935V184.194H447.291V179.37H456.651V176.832H447.255V175.734H457.983V180.45H448.623V183.096H458.343V184.194H453.267V187.218H459.765V188.334H445.491V187.218Z" fill="#6D0CA6"/>
<circle opacity="0.4" cx="652.5" cy="138.5" r="138" fill="#9735D0" fill-opacity="0.14" stroke="#9735D0"/>
<path d="M616.082 73.194H626.99V74.436C626.99 75.714 626.99 77.118 626.612 79.008H628.772V80.61H614.264V79.008H624.65C625.028 77.28 625.064 75.984 625.064 74.796H616.082V73.194ZM615.992 88.278V82.464H626.972V88.278H615.992ZM617.936 86.694H625.046V84.012H617.936V86.694ZM629.997 79.746H644.469V81.312H641.121V83.364C642.165 83.85 642.741 84.588 642.741 85.56C642.741 87.414 640.653 88.458 637.215 88.458C633.759 88.458 631.671 87.414 631.671 85.56C631.671 84.57 632.265 83.814 633.363 83.328V81.312H629.997V79.746ZM631.491 75.768C631.491 73.86 633.723 72.726 637.233 72.726C640.743 72.726 642.975 73.86 642.975 75.768C642.975 77.676 640.743 78.81 637.233 78.81C633.723 78.81 631.491 77.676 631.491 75.768ZM633.525 75.768C633.525 76.776 634.893 77.298 637.233 77.298C639.555 77.298 640.923 76.776 640.923 75.768C640.923 74.778 639.555 74.238 637.233 74.238C634.893 74.238 633.525 74.778 633.525 75.768ZM633.669 85.56C633.669 86.478 634.911 86.946 637.215 86.946C639.501 86.946 640.743 86.478 640.743 85.56C640.743 84.642 639.501 84.174 637.215 84.174C634.911 84.174 633.669 84.642 633.669 85.56ZM635.343 82.806C635.919 82.716 636.531 82.68 637.215 82.68C637.917 82.68 638.565 82.716 639.141 82.806V81.312H635.343V82.806ZM648.393 85.344L647.169 89.484H645.747L646.431 85.344H648.393ZM662.35 82.464C665.788 82.464 668.002 83.598 668.002 85.47C668.002 87.324 665.788 88.458 662.35 88.458C658.912 88.458 656.716 87.324 656.716 85.47C656.716 83.598 658.912 82.464 662.35 82.464ZM655.204 81.294V79.71H660.784V76.812H662.746V79.71H669.64V81.294H655.204ZM656.86 74.76V73.194H667.876V74.526C667.876 75.804 667.876 77.136 667.444 78.792L665.5 78.576C665.896 77.046 665.914 75.912 665.914 74.76H656.86ZM658.678 85.47C658.678 86.424 660.046 86.946 662.35 86.946C664.654 86.946 666.022 86.424 666.022 85.47C666.022 84.498 664.654 83.958 662.35 83.958C660.046 83.958 658.678 84.498 658.678 85.47ZM678.083 82.464C681.521 82.464 683.735 83.598 683.735 85.47C683.735 87.324 681.521 88.458 678.083 88.458C674.645 88.458 672.449 87.324 672.449 85.47C672.449 83.598 674.645 82.464 678.083 82.464ZM670.937 81.294V79.71H676.517V76.812H678.479V79.71H685.373V81.294H670.937ZM672.593 74.76V73.194H683.609V74.526C683.609 75.804 683.609 77.136 683.177 78.792L681.233 78.576C681.629 77.046 681.647 75.912 681.647 74.76H672.593ZM674.411 85.47C674.411 86.424 675.779 86.946 678.083 86.946C680.387 86.946 681.755 86.424 681.755 85.47C681.755 84.498 680.387 83.958 678.083 83.958C675.779 83.958 674.411 84.498 674.411 85.47ZM689.315 85.344L688.091 89.484H686.669L687.353 85.344H689.315ZM620.842 101.42H622.714V117.44H620.842V101.42ZM608.764 112.922C611.05 111.482 612.04 108.602 612.04 105.794V104.75H609.286V103.13H616.504V104.75H613.966V105.794C613.966 108.494 614.902 111.23 617.17 112.562L616 113.984C614.542 113.102 613.57 111.59 613.012 109.772C612.472 111.752 611.464 113.426 609.952 114.38L608.764 112.922ZM615.334 108.62V107.018H617.62V101.726H619.456V116.684H617.62V108.62H615.334ZM624.785 113.894H631.049V110.222H633.029V113.894H639.293V115.514H624.785V113.894ZM625.397 109.304C628.619 108.782 630.941 106.622 630.995 104.318H625.991V102.734H638.051V104.318H633.047C633.101 106.622 635.441 108.728 638.717 109.232L637.943 110.798C635.243 110.294 633.065 108.872 632.039 106.874C631.013 108.89 628.853 110.348 626.189 110.87L625.397 109.304ZM643.181 114.344L641.957 118.484H640.535L641.219 114.344H643.181ZM645.826 110.42H660.334V112.04H656.806V117.44H654.79V112.04H651.298V117.44H649.264V112.04H645.826V110.42ZM647.32 105.56C647.32 103.382 649.642 102.032 653.026 102.032C656.428 102.032 658.75 103.382 658.75 105.56C658.75 107.738 656.428 109.106 653.026 109.106C649.642 109.106 647.32 107.738 647.32 105.56ZM649.354 105.56C649.354 106.82 650.794 107.522 653.026 107.522C655.276 107.522 656.734 106.82 656.734 105.56C656.734 104.336 655.276 103.598 653.026 103.598C650.794 103.598 649.354 104.336 649.354 105.56ZM661.54 109.772H667.786V108.566H663.394V101.87H674.32V103.382H665.356V104.444H673.942V105.92H665.356V107.054H674.428V108.566H669.766V109.772H676.012V111.338H661.54V109.772ZM663.232 114.848C663.232 113.138 665.248 112.256 668.776 112.256C672.268 112.256 674.302 113.138 674.302 114.848C674.302 116.54 672.268 117.44 668.776 117.44C665.248 117.44 663.232 116.54 663.232 114.848ZM665.23 114.848C665.23 115.622 666.418 115.982 668.776 115.982C671.116 115.982 672.322 115.622 672.322 114.848C672.322 114.074 671.116 113.696 668.776 113.696C666.418 113.696 665.23 114.074 665.23 114.848ZM681.457 108.89H695.929V110.492H681.457V108.89ZM683.113 114.524C683.113 112.652 685.201 111.608 688.657 111.608C692.095 111.608 694.183 112.652 694.183 114.524C694.183 116.396 692.095 117.458 688.657 117.458C685.201 117.458 683.113 116.396 683.113 114.524ZM683.239 107.612V101.942H694.165V103.544H685.183V106.028H694.273V107.612H683.239ZM685.111 114.524C685.111 115.46 686.371 115.928 688.657 115.928C690.943 115.928 692.185 115.46 692.185 114.524C692.185 113.606 690.943 113.12 688.657 113.12C686.371 113.12 685.111 113.606 685.111 114.524ZM606.828 130.546H608.178V136.81H610.788V137.944H608.178V146.332H606.828V130.546ZM596.784 142.39V132.112H604.092V133.21H598.116V141.238C601.014 141.238 603.012 141.148 605.316 140.698L605.478 141.85C603.048 142.3 600.996 142.39 598.008 142.39H596.784ZM616.225 131.5C618.583 131.5 620.311 133.012 620.311 135.208C620.311 137.404 618.583 138.898 616.225 138.898C613.849 138.898 612.139 137.404 612.139 135.208C612.139 133.012 613.849 131.5 616.225 131.5ZM613.453 135.208C613.453 136.72 614.623 137.764 616.225 137.764C617.827 137.764 619.015 136.72 619.015 135.208C619.015 133.696 617.827 132.652 616.225 132.652C614.623 132.652 613.453 133.696 613.453 135.208ZM613.867 143.344C613.867 141.49 615.829 140.41 619.033 140.41C622.219 140.41 624.181 141.49 624.181 143.344C624.181 145.198 622.219 146.278 619.033 146.278C615.829 146.278 613.867 145.198 613.867 143.344ZM615.181 143.344C615.181 144.496 616.657 145.198 619.033 145.198C621.391 145.198 622.849 144.496 622.849 143.344C622.849 142.192 621.391 141.508 619.033 141.508C616.657 141.508 615.181 142.192 615.181 143.344ZM622.669 139.906V130.564H624.019V132.958H626.341V134.092H624.019V136.306H626.341V137.44H624.019V139.906H622.669ZM638.401 130.582H639.751V135.784H642.109V136.918H639.751V142.39H638.401V130.582ZM627.601 133.606V132.508H631.579V130.582H632.929V132.508H636.907V133.606H627.601ZM628.501 137.44C628.501 135.658 630.013 134.506 632.245 134.506C634.477 134.506 636.007 135.658 636.007 137.44C636.007 139.204 634.477 140.356 632.245 140.356C630.013 140.356 628.501 139.204 628.501 137.44ZM629.779 137.44C629.779 138.556 630.769 139.294 632.245 139.294C633.721 139.294 634.711 138.556 634.711 137.44C634.711 136.306 633.721 135.568 632.245 135.568C630.769 135.568 629.779 136.306 629.779 137.44ZM629.995 145.954V141.436H631.327V144.838H640.489V145.954H629.995ZM651.352 131.5H652.666V133.516C652.666 135.712 654.304 137.728 656.59 138.538L655.906 139.6C654.124 138.952 652.738 137.602 652.054 135.928C651.406 137.818 649.984 139.276 648.13 140.014L647.392 138.934C649.768 138.07 651.352 135.946 651.352 133.48V131.5ZM649.912 145.954V141.076H651.262V144.838H660.352V145.954H649.912ZM658.282 142.192V130.546H659.632V135.406H661.99V136.54H659.632V142.192H658.282ZM667.444 131.302C669.568 131.302 671.152 132.508 671.44 134.344H674.734V130.564H676.084V139.006H674.734V135.46H671.44C671.188 137.314 669.586 138.574 667.444 138.574C665.086 138.574 663.394 137.08 663.394 134.938C663.394 132.778 665.086 131.302 667.444 131.302ZM664.69 134.938C664.69 136.396 665.824 137.422 667.444 137.422C669.046 137.422 670.18 136.396 670.18 134.938C670.18 133.462 669.046 132.436 667.444 132.436C665.824 132.436 664.69 133.462 664.69 134.938ZM666.04 146.098V139.816H667.39V141.832H674.734V139.816H676.084V146.098H666.04ZM667.39 145H674.734V142.912H667.39V145ZM684.869 138.916H687.803V136.072H685.121C684.365 138.736 682.655 141.13 679.685 142.912L678.893 141.922C682.277 139.888 684.005 137.008 684.257 133.696H679.559V132.58H685.589C685.589 133.39 685.517 134.2 685.373 134.974H687.803V130.978H689.081V145.486H687.803V140.014H684.869V138.916ZM690.953 146.314V130.564H692.249V146.314H690.953ZM699.719 131.716C702.167 131.716 703.913 133.228 703.913 135.406C703.913 137.602 702.167 139.096 699.719 139.096C697.253 139.096 695.507 137.602 695.507 135.406C695.507 133.228 697.253 131.716 699.719 131.716ZM694.697 141.706C697.577 141.706 701.573 141.706 705.011 141.166L705.119 142.156C701.573 142.84 697.703 142.858 694.877 142.858L694.697 141.706ZM696.821 135.406C696.821 136.882 698.045 137.926 699.719 137.926C701.375 137.926 702.599 136.882 702.599 135.406C702.599 133.912 701.375 132.886 699.719 132.886C698.045 132.886 696.821 133.912 696.821 135.406ZM706.055 146.332V130.546H707.405V146.332H706.055ZM616.009 159.564H617.305V175.314H616.009V159.564ZM604.543 171.498V161.508H610.465V162.624H605.875V170.364C608.143 170.364 609.583 170.274 611.257 169.896L611.401 171.03C609.601 171.426 608.071 171.498 605.551 171.498H604.543ZM609.385 166.728V165.594H612.841V159.942H614.119V174.486H612.841V166.728H609.385ZM631.183 159.546H632.533V175.332H631.183V159.546ZM620.257 166.26C620.257 162.912 621.913 160.788 624.253 160.788C626.575 160.788 628.231 162.912 628.231 166.26C628.231 169.608 626.575 171.75 624.253 171.75C621.913 171.75 620.257 169.608 620.257 166.26ZM621.571 166.26C621.571 168.834 622.669 170.544 624.253 170.544C625.819 170.544 626.935 168.834 626.935 166.26C626.935 163.686 625.819 161.994 624.253 161.994C622.669 161.994 621.571 163.686 621.571 166.26ZM647.005 159.546H648.337V175.332H647.005V166.656H643.675V165.558H647.005V159.546ZM636.133 171.534V161.022H643.405V162.138H637.465V165.432H642.703V166.53H637.465V170.4C640.381 170.4 642.235 170.328 644.395 169.914L644.539 171.03C642.271 171.426 640.363 171.534 637.321 171.534H636.133ZM659.452 160.95H660.802V163.812C660.802 166.692 662.764 169.59 665.032 170.652L664.222 171.732C662.44 170.85 660.892 168.96 660.154 166.692C659.434 169.086 657.868 171.102 656.032 172.02L655.204 170.904C657.49 169.806 659.452 166.8 659.452 163.812V160.95ZM666.778 175.332V159.546H668.128V175.332H666.778ZM677.399 160.644H678.803V161.868C678.803 164.604 681.899 166.998 684.581 167.502L683.951 168.618C681.629 168.078 679.109 166.386 678.101 164.064C677.093 166.386 674.591 168.078 672.251 168.618L671.657 167.502C674.303 166.98 677.399 164.604 677.399 161.868V160.644ZM671.027 173.154V172.038H685.301V173.154H671.027ZM693.545 163.524H695.687V159.834H696.965V168.888H695.687V164.64H693.545V163.524ZM687.497 168.042V160.59H693.437V161.706H688.793V163.704H692.807V164.766H688.793V166.962C691.079 166.962 692.501 166.872 694.175 166.548L694.301 167.628C692.501 167.988 691.007 168.042 688.487 168.042H687.497ZM689.711 175.098V169.806H700.007V175.098H689.711ZM691.043 174H698.711V170.886H691.043V174ZM698.729 169.05V159.564H700.007V169.05H698.729ZM613.633 189.608H624.163V190.976C624.163 192.47 624.163 194.09 623.713 196.376H626.053V197.51H619.591V204.35H618.223V197.51H611.815V196.376H622.345C622.831 194.126 622.831 192.452 622.831 190.976V190.706H613.633V189.608ZM627.547 196.502H641.767V197.6H635.341V199.436H640.003V204.26H638.671V200.534H629.131V199.436H633.991V197.6H627.547V196.502ZM628.429 194.558C631.327 194.27 633.847 193.028 633.937 191.192H629.023V190.112H633.991V188.474H635.341V190.112H640.327V191.192H635.395C635.485 193.028 638.005 194.27 640.903 194.558L640.471 195.584C637.933 195.314 635.611 194.36 634.657 192.758C633.703 194.36 631.381 195.314 628.843 195.584L628.429 194.558ZM655.34 188.564H656.636V204.314H655.34V188.564ZM643.478 195.35C643.478 192.002 644.792 189.896 646.808 189.896C648.734 189.896 649.994 191.732 650.156 194.72H652.226V188.924H653.504V203.504H652.226V195.836H650.156C650.048 198.914 648.752 200.822 646.808 200.822C644.792 200.822 643.478 198.716 643.478 195.35ZM644.72 195.35C644.72 197.924 645.53 199.562 646.808 199.562C648.122 199.562 648.932 197.924 648.932 195.35C648.932 192.776 648.122 191.156 646.808 191.156C645.53 191.156 644.72 192.776 644.72 195.35ZM673.978 188.564H675.328V192.632H677.686V193.766H675.328V197.852H673.978V188.564ZM663.088 196.466C664.348 196.466 665.824 196.466 667.354 196.412V195.404C665.518 195.26 664.366 194.54 664.366 193.352C664.366 192.056 665.788 191.282 668.002 191.282C670.234 191.282 671.656 192.056 671.656 193.352C671.656 194.522 670.522 195.26 668.686 195.404V196.376C670.162 196.304 671.638 196.196 673.024 195.998L673.114 196.862C669.766 197.438 666.004 197.474 663.25 197.474L663.088 196.466ZM663.484 190.76V189.77H667.354V188.402H668.686V189.77H672.538V190.76H663.484ZM665.194 199.544V198.59H675.328V201.722H666.544V203.162H675.94V204.134H665.23V200.822H674.014V199.544H665.194ZM665.644 193.352C665.644 194.072 666.562 194.522 668.002 194.522C669.46 194.522 670.378 194.072 670.378 193.352C670.378 192.632 669.46 192.182 668.002 192.182C666.562 192.182 665.644 192.632 665.644 193.352ZM678.893 196.394H682.439V194.144C681.179 193.64 680.477 192.848 680.477 191.786C680.477 189.932 682.601 188.87 686.003 188.87C689.405 188.87 691.529 189.932 691.529 191.786C691.529 192.848 690.827 193.64 689.585 194.126V196.394H693.113V197.474H678.893V196.394ZM680.621 201.488C680.621 199.724 682.637 198.716 686.003 198.716C689.369 198.716 691.385 199.724 691.385 201.488C691.385 203.288 689.369 204.296 686.003 204.296C682.637 204.296 680.621 203.288 680.621 201.488ZM681.863 191.786C681.863 192.938 683.465 193.64 686.003 193.64C688.541 193.64 690.143 192.938 690.143 191.786C690.143 190.616 688.541 189.914 686.003 189.914C683.465 189.914 681.863 190.616 681.863 191.786ZM681.971 201.488C681.971 202.604 683.483 203.234 686.003 203.234C688.505 203.234 690.017 202.604 690.017 201.488C690.017 200.408 688.505 199.76 686.003 199.76C683.483 199.76 681.971 200.408 681.971 201.488ZM683.771 196.394H688.253V194.504C687.587 194.612 686.831 194.684 686.003 194.684C685.175 194.684 684.437 194.63 683.771 194.504V196.394Z" fill="#6D0CA6"/>
</svg>
