<svg width="791" height="277" viewBox="0 0 791 277" fill="none" xmlns="http://www.w3.org/2000/svg">
<circle opacity="0.4" cx="138.5" cy="138.5" r="138" fill="#9735D0" fill-opacity="0.14" stroke="#9735D0"/>
<path d="M72.4934 94.448V95.472H66.4934V99.536H71.6774V100.56H66.4934V104.976H72.4934V106H65.3414V94.448H72.4934ZM79.8661 101.664C79.8661 100.48 79.1301 99.664 78.0741 99.664C76.8261 99.664 75.9621 100.624 75.9621 101.664V106H74.8101V98.624H75.9621V99.728C76.4741 99.072 77.3381 98.624 78.0741 98.624C79.8021 98.624 81.0181 99.84 81.0181 101.568V106H79.8661V101.664ZM83.2138 99.536H89.9658V100.672H83.2138V99.536ZM95.3661 104.992C96.0541 104.992 96.8541 104.656 97.3021 104.16L98.1501 104.912C97.4941 105.6 96.3421 106.096 95.4301 106.096C93.2221 106.096 91.6701 104.528 91.6701 102.352C91.6701 100.176 93.2221 98.624 95.4301 98.624C96.3421 98.624 97.4941 99.12 98.1501 99.808L97.3021 100.56C96.8541 100.064 96.0541 99.728 95.3661 99.728C93.8781 99.728 92.8221 100.8 92.8221 102.352C92.8221 103.92 93.8781 104.992 95.3661 104.992ZM102.791 105.072C104.183 105.072 105.159 103.952 105.159 102.368C105.159 100.784 104.183 99.664 102.791 99.664C101.399 99.664 100.439 100.768 100.439 102.368C100.439 103.968 101.399 105.072 102.791 105.072ZM99.2874 102.368C99.2874 100.192 100.743 98.624 102.791 98.624C104.855 98.624 106.311 100.192 106.311 102.368C106.311 104.544 104.855 106.112 102.791 106.112C100.743 106.112 99.2874 104.544 99.2874 102.368ZM108.074 106V98.624H109.226V99.92C109.722 99.088 110.746 98.512 111.802 98.544V99.68C110.442 99.648 109.226 100.816 109.226 102.208V106H108.074ZM116.292 106.08C114.228 106.08 112.772 104.528 112.772 102.352C112.772 100.176 114.228 98.624 116.292 98.624C118.564 98.624 119.252 100.448 119.316 100.64C119.764 101.824 119.604 102.88 119.604 102.88H113.972C114.164 104.144 115.124 105.04 116.292 105.04C117.876 105.04 118.436 104.016 118.532 103.872L119.428 104.384C119.06 105.2 118.02 106.08 116.292 106.08ZM113.972 101.856L118.468 101.84C118.34 100.608 117.764 99.664 116.292 99.664C115.108 99.664 114.164 100.544 113.972 101.856ZM122.518 93.536L121.606 96.48H120.774L121.27 93.536H122.518ZM125.7 103.728C126.148 104.656 127.06 105.04 127.636 105.04C128.58 105.04 129.284 104.624 129.284 103.936C129.284 103.264 128.388 103.008 127.524 102.72C126.516 102.368 125.092 101.952 125.092 100.544C125.092 99.328 126.228 98.56 127.668 98.56C128.516 98.56 129.94 99.04 130.276 100.352L129.22 100.688C128.996 99.792 128.148 99.6 127.668 99.6C126.852 99.6 126.244 99.952 126.244 100.544C126.244 101.216 127.06 101.44 127.988 101.744C129.06 102.112 130.436 102.528 130.436 103.936C130.436 105.232 129.22 106.08 127.636 106.08C126.516 106.08 125.38 105.472 124.756 104.304L125.7 103.728ZM139.911 105.072C141.319 105.072 142.295 103.952 142.295 102.352C142.295 100.784 141.319 99.648 139.911 99.648C138.631 99.648 137.543 100.896 137.543 102.352C137.543 103.84 138.631 105.072 139.911 105.072ZM136.375 109.424V98.624H137.527V99.952C138.055 99.072 139.095 98.624 139.927 98.624C141.991 98.624 143.447 100.176 143.447 102.352C143.447 104.56 141.991 106.112 139.927 106.112C139.079 106.112 138.055 105.584 137.527 104.768V109.424H136.375ZM145.215 106V98.624H146.367V99.92C146.863 99.088 147.887 98.512 148.943 98.544V99.68C147.583 99.648 146.367 100.816 146.367 102.208V106H145.215ZM153.416 105.072C154.808 105.072 155.784 103.952 155.784 102.368C155.784 100.784 154.808 99.664 153.416 99.664C152.024 99.664 151.064 100.768 151.064 102.368C151.064 103.968 152.024 105.072 153.416 105.072ZM149.912 102.368C149.912 100.192 151.368 98.624 153.416 98.624C155.48 98.624 156.936 100.192 156.936 102.368C156.936 104.544 155.48 106.112 153.416 106.112C151.368 106.112 149.912 104.544 149.912 102.368ZM162.411 105.072C163.819 105.072 164.795 103.952 164.795 102.352C164.795 100.784 163.819 99.648 162.411 99.648C161.131 99.648 160.043 100.896 160.043 102.352C160.043 103.84 161.131 105.072 162.411 105.072ZM158.875 109.424V98.624H160.027V99.952C160.555 99.072 161.595 98.624 162.427 98.624C164.491 98.624 165.947 100.176 165.947 102.352C165.947 104.56 164.491 106.112 162.427 106.112C161.579 106.112 160.555 105.584 160.027 104.768V109.424H158.875ZM167.715 106V98.624H168.867V99.92C169.363 99.088 170.387 98.512 171.443 98.544V99.68C170.083 99.648 168.867 100.816 168.867 102.208V106H167.715ZM173.421 98.624H174.573V106H173.421V98.624ZM173.261 95.696C173.261 95.28 173.565 94.976 173.997 94.976C174.413 94.976 174.717 95.28 174.717 95.696C174.717 96.128 174.413 96.432 173.997 96.432C173.565 96.432 173.261 96.128 173.261 95.696ZM180.182 106.08C178.118 106.08 176.662 104.528 176.662 102.352C176.662 100.176 178.118 98.624 180.182 98.624C182.454 98.624 183.142 100.448 183.206 100.64C183.654 101.824 183.494 102.88 183.494 102.88H177.862C178.054 104.144 179.014 105.04 180.182 105.04C181.766 105.04 182.326 104.016 182.422 103.872L183.318 104.384C182.95 105.2 181.91 106.08 180.182 106.08ZM177.862 101.856L182.358 101.84C182.23 100.608 181.654 99.664 180.182 99.664C178.998 99.664 178.054 100.544 177.862 101.856ZM185.924 106V99.648H184.597V98.624H185.924V96.08H187.077V98.624H188.821V99.648H187.077V106H185.924ZM193.307 106.112C191.259 106.112 189.803 104.56 189.803 102.384C189.803 100.208 191.259 98.64 193.307 98.64C194.123 98.64 195.035 99.088 195.691 100.016V98.624H196.843V106H195.691V104.72C195.019 105.728 194.139 106.112 193.307 106.112ZM190.955 102.384C190.955 103.952 191.931 105.072 193.323 105.072C194.571 105.072 195.691 103.952 195.707 102.384C195.691 100.832 194.571 99.68 193.323 99.68C191.931 99.68 190.955 100.8 190.955 102.384ZM198.761 106V98.624H199.913V99.92C200.409 99.088 201.433 98.512 202.489 98.544V99.68C201.129 99.648 199.913 100.816 199.913 102.208V106H198.761ZM206.772 109.44H205.508L207.044 105.664L204.052 98.624H205.316L207.652 104.272L209.876 98.624H211.124L208.34 105.52L206.772 109.44ZM89.7683 132.112C87.7043 132.112 86.2483 130.56 86.2483 128.352C86.2483 126.16 87.7043 124.608 89.7683 124.608C90.6643 124.608 91.5923 125.04 92.2003 126V120.768H93.3523V132H92.2003V130.704C91.5763 131.664 90.6643 132.112 89.7683 132.112ZM87.4003 128.352C87.4003 129.952 88.3923 131.072 89.8163 131.072C91.0803 131.072 92.2003 129.856 92.2003 128.352C92.2003 126.88 91.0803 125.648 89.8163 125.648C88.3923 125.648 87.4003 126.768 87.4003 128.352ZM98.7211 132.112C96.6731 132.112 95.2171 130.56 95.2171 128.384C95.2171 126.208 96.6731 124.64 98.7211 124.64C99.5371 124.64 100.449 125.088 101.105 126.016V124.624H102.257V132H101.105V130.72C100.433 131.728 99.5531 132.112 98.7211 132.112ZM96.3691 128.384C96.3691 129.952 97.3451 131.072 98.7371 131.072C99.9851 131.072 101.105 129.952 101.121 128.384C101.105 126.832 99.9851 125.68 98.7371 125.68C97.3451 125.68 96.3691 126.8 96.3691 128.384ZM105.135 132V125.648H103.807V124.624H105.135V122.08H106.287V124.624H108.031V125.648H106.287V132H105.135ZM112.518 132.112C110.47 132.112 109.014 130.56 109.014 128.384C109.014 126.208 110.47 124.64 112.518 124.64C113.334 124.64 114.246 125.088 114.902 126.016V124.624H116.054V132H114.902V130.72C114.23 131.728 113.35 132.112 112.518 132.112ZM110.166 128.384C110.166 129.952 111.142 131.072 112.534 131.072C113.782 131.072 114.902 129.952 114.918 128.384C114.902 126.832 113.782 125.68 112.534 125.68C111.142 125.68 110.166 126.8 110.166 128.384ZM125.28 130.992C125.968 130.992 126.768 130.656 127.216 130.16L128.064 130.912C127.408 131.6 126.256 132.096 125.344 132.096C123.136 132.096 121.584 130.528 121.584 128.352C121.584 126.176 123.136 124.624 125.344 124.624C126.256 124.624 127.408 125.12 128.064 125.808L127.216 126.56C126.768 126.064 125.968 125.728 125.28 125.728C123.792 125.728 122.736 126.8 122.736 128.352C122.736 129.92 123.792 130.992 125.28 130.992ZM132.705 131.072C134.097 131.072 135.073 129.952 135.073 128.368C135.073 126.784 134.097 125.664 132.705 125.664C131.313 125.664 130.353 126.768 130.353 128.368C130.353 129.968 131.313 131.072 132.705 131.072ZM129.201 128.368C129.201 126.192 130.657 124.624 132.705 124.624C134.769 124.624 136.225 126.192 136.225 128.368C136.225 130.544 134.769 132.112 132.705 132.112C130.657 132.112 129.201 130.544 129.201 128.368ZM143.124 127.664C143.124 126.48 142.388 125.664 141.332 125.664C140.084 125.664 139.22 126.624 139.22 127.664V132H138.068V124.624H139.22V125.728C139.732 125.072 140.596 124.624 141.332 124.624C143.06 124.624 144.276 125.84 144.276 127.568V132H143.124V127.664ZM147.067 129.728C147.515 130.656 148.427 131.04 149.003 131.04C149.947 131.04 150.651 130.624 150.651 129.936C150.651 129.264 149.755 129.008 148.891 128.72C147.883 128.368 146.459 127.952 146.459 126.544C146.459 125.328 147.595 124.56 149.035 124.56C149.883 124.56 151.307 125.04 151.643 126.352L150.587 126.688C150.363 125.792 149.515 125.6 149.035 125.6C148.219 125.6 147.611 125.952 147.611 126.544C147.611 127.216 148.427 127.44 149.355 127.744C150.427 128.112 151.803 128.528 151.803 129.936C151.803 131.232 150.587 132.08 149.003 132.08C147.883 132.08 146.747 131.472 146.123 130.304L147.067 129.728ZM155.127 128.96C155.127 130.16 155.863 131.088 156.919 131.088C158.151 131.088 159.015 130.304 159.015 129.12V124.624H160.183V132H159.015V131.056C158.519 131.68 157.655 132.128 156.919 132.128C155.191 132.128 153.959 130.8 153.959 129.088V124.624H155.127V128.96ZM162.362 120.768H163.514V132H162.362V120.768ZM166.245 132V125.648H164.917V124.624H166.245V122.08H167.397V124.624H169.141V125.648H167.397V132H166.245ZM170.804 124.624H171.956V132H170.804V124.624ZM170.644 121.696C170.644 121.28 170.948 120.976 171.38 120.976C171.796 120.976 172.1 121.28 172.1 121.696C172.1 122.128 171.796 122.432 171.38 122.432C170.948 122.432 170.644 122.128 170.644 121.696ZM179.405 127.664C179.405 126.48 178.669 125.664 177.613 125.664C176.365 125.664 175.501 126.624 175.501 127.664V132H174.349V124.624H175.501V125.728C176.013 125.072 176.877 124.624 177.613 124.624C179.341 124.624 180.557 125.84 180.557 127.568V132H179.405V127.664ZM185.925 131.056C187.237 131.056 188.277 129.84 188.277 128.368C188.277 126.928 187.221 125.664 185.925 125.664C184.533 125.664 183.557 126.8 183.557 128.368C183.557 129.952 184.533 131.056 185.925 131.056ZM182.405 128.368C182.405 126.208 183.861 124.624 185.909 124.624C186.917 124.624 187.797 125.152 188.277 125.968V124.624H189.429V131.568C189.429 133.728 188.005 135.408 185.829 135.408C184.645 135.408 183.573 134.864 182.821 133.712L183.781 133.136C184.293 133.984 185.013 134.368 185.829 134.368C187.349 134.368 188.277 133.136 188.277 131.552V130.704C187.749 131.52 186.789 132.096 185.909 132.096C183.861 132.096 182.405 130.544 182.405 128.368ZM71.6651 158.144H69.9691V151.984H68.6251V150.48H69.9691V148.88C69.9691 147.472 70.9451 146.4 72.3531 146.304C73.0091 146.256 73.8251 146.512 74.2091 146.896L73.3451 148.144C72.9931 147.84 72.7691 147.776 72.4971 147.808C72.0011 147.856 71.6651 148.272 71.6651 148.88V150.48H73.8091V151.984H71.6651V158.144ZM75.9005 158.144V150.512H77.5965V151.632C78.1085 150.912 79.0365 150.432 79.9325 150.48V152.048C78.5725 151.984 77.5965 153.184 77.5965 154.352V158.144H75.9005ZM84.4175 158.208C82.3055 158.208 80.8015 156.608 80.8015 154.368C80.8015 152.128 82.3055 150.528 84.4175 150.528C85.1695 150.528 86.0015 150.88 86.6095 151.6V150.512H88.3055V158.144H86.6095V157.12C86.0015 157.888 85.1695 158.208 84.4175 158.208ZM82.4975 154.368C82.4975 155.808 83.3135 156.768 84.5295 156.768C85.6495 156.768 86.6095 155.76 86.6255 154.368C86.6095 152.976 85.6495 151.968 84.5295 151.968C83.3135 151.968 82.4975 152.912 82.4975 154.368ZM100.083 153.808C100.083 152.72 99.4908 152 98.6267 152C97.6508 152 96.9948 152.752 96.9948 153.728V158.144H95.2828V153.808C95.2828 152.72 94.7068 152 93.8588 152C92.8828 152 92.1948 152.832 92.1948 153.904V158.144H90.4988V150.512H92.1948V151.552C92.6428 150.944 93.2988 150.528 94.0188 150.528C94.9308 150.528 95.8268 151.104 96.2748 151.904C96.8028 151.104 97.8268 150.528 98.7388 150.528C100.547 150.528 101.795 151.872 101.795 153.744V158.144H100.083V153.808ZM107.341 158.176C105.181 158.176 103.661 156.592 103.661 154.352C103.661 152.096 105.181 150.512 107.341 150.512C109.709 150.512 110.461 152.448 110.509 152.576C110.973 153.664 110.829 154.88 110.829 155.008H105.325C105.517 156.032 106.381 156.736 107.341 156.736C108.605 156.736 109.117 156 109.245 155.776L110.605 156.384C110.237 157.248 109.165 158.176 107.341 158.176ZM105.325 153.664H109.229C109.069 152.72 108.525 151.952 107.341 151.952C106.317 151.952 105.517 152.672 105.325 153.664ZM122.252 150.512L120.012 158.144H118.444L116.94 153.216L115.468 158.144H113.9L111.612 150.512H113.372L114.7 155.392L116.076 150.512H117.772L119.196 155.392L120.492 150.512H122.252ZM126.544 156.752C127.728 156.752 128.528 155.808 128.528 154.352C128.528 152.912 127.728 151.952 126.544 151.952C125.36 151.952 124.56 152.896 124.56 154.352C124.56 155.808 125.344 156.752 126.544 156.752ZM122.864 154.352C122.864 152.096 124.384 150.496 126.544 150.496C128.704 150.496 130.224 152.096 130.224 154.352C130.224 156.592 128.704 158.208 126.544 158.208C124.384 158.208 122.864 156.592 122.864 154.352ZM131.869 158.144V150.512H133.565V151.632C134.077 150.912 135.005 150.432 135.901 150.48V152.048C134.541 151.984 133.565 153.184 133.565 154.352V158.144H131.869ZM139.491 146.704V153.664L142.211 150.512H144.499L141.523 153.92L144.435 158.144H142.371L140.307 155.184L139.491 156.144V158.144H137.795V146.704H139.491ZM150.602 152.224C150.602 150.144 151.418 147.408 152.57 145.584H154.362C153.049 147.392 152.138 150.128 152.138 152.224C152.138 154.32 153.049 157.056 154.362 158.864H152.57C151.418 157.04 150.602 154.304 150.602 152.224ZM164.142 146.32V147.808H158.206V151.312H163.31V152.784H158.206V156.64H164.142V158.128H156.51V146.32H164.142ZM169.938 156.64C172.466 156.64 174.162 154.864 174.162 152.224C174.162 149.584 172.466 147.808 169.938 147.808L168.258 147.824V156.624L169.938 156.64ZM166.562 158.128V146.32H169.954C173.41 146.32 175.842 148.752 175.842 152.224C175.842 155.696 173.41 158.128 169.954 158.128H166.562ZM185.236 146.32V147.808H179.46V151.472H184.356V152.944H179.46V158.128H177.764V146.32H185.236ZM190.659 152.224C190.659 154.304 189.859 157.024 188.707 158.864H186.915C188.211 157.072 189.123 154.32 189.123 152.224C189.123 150.128 188.211 147.376 186.915 145.584H188.707C189.859 147.424 190.659 150.144 190.659 152.224ZM197.327 150.496H199.023V158.128H197.327V150.496ZM197.215 147.648C197.215 147.088 197.615 146.688 198.175 146.688C198.735 146.688 199.135 147.088 199.135 147.648C199.135 148.208 198.735 148.608 198.175 148.608C197.615 148.608 197.215 148.208 197.215 147.648ZM202.443 155.52C202.779 156.352 203.611 156.736 204.123 156.736C204.923 156.736 205.435 156.432 205.435 155.904C205.435 155.424 204.731 155.2 203.947 154.928C202.907 154.56 201.435 154.064 201.435 152.592C201.435 151.248 202.667 150.432 204.235 150.432C205.179 150.432 206.587 150.976 206.971 152.352L205.547 152.864C205.291 152.016 204.603 151.888 204.235 151.888C203.563 151.888 203.131 152.16 203.131 152.592C203.131 153.072 203.787 153.264 204.603 153.552C205.691 153.936 207.131 154.432 207.131 155.888C207.131 157.28 205.899 158.192 204.123 158.192C202.955 158.192 201.675 157.456 201.115 156.288L202.443 155.52ZM115.339 184.208C113.227 184.208 111.723 182.608 111.723 180.368C111.723 178.128 113.227 176.528 115.339 176.528C116.091 176.528 116.923 176.88 117.531 177.6V176.512H119.227V184.144H117.531V183.12C116.923 183.888 116.091 184.208 115.339 184.208ZM113.419 180.368C113.419 181.808 114.235 182.768 115.451 182.768C116.571 182.768 117.531 181.76 117.547 180.368C117.531 178.976 116.571 177.968 115.451 177.968C114.235 177.968 113.419 178.912 113.419 180.368ZM125.213 182.752C126.445 182.752 127.245 181.792 127.245 180.336C127.245 178.88 126.445 177.92 125.213 177.92C124.061 177.92 123.117 178.992 123.117 180.336C123.117 181.68 124.061 182.752 125.213 182.752ZM121.405 187.52V176.496H123.101V177.616C123.709 176.816 124.717 176.496 125.309 176.496C127.437 176.496 128.941 178.08 128.941 180.336C128.941 182.608 127.437 184.192 125.309 184.192C124.701 184.192 123.709 183.856 123.101 183.056V187.52H121.405ZM134.556 182.752C135.788 182.752 136.588 181.792 136.588 180.336C136.588 178.88 135.788 177.92 134.556 177.92C133.404 177.92 132.46 178.992 132.46 180.336C132.46 181.68 133.404 182.752 134.556 182.752ZM130.748 187.52V176.496H132.444V177.616C133.052 176.816 134.06 176.496 134.652 176.496C136.78 176.496 138.284 178.08 138.284 180.336C138.284 182.608 136.78 184.192 134.652 184.192C134.044 184.192 133.052 183.856 132.444 183.056V187.52H130.748ZM139.868 172.704H141.564V184.128H139.868V172.704ZM143.905 176.496H145.601V184.128H143.905V176.496ZM143.793 173.648C143.793 173.088 144.193 172.688 144.753 172.688C145.313 172.688 145.713 173.088 145.713 173.648C145.713 174.208 145.313 174.608 144.753 174.608C144.193 174.608 143.793 174.208 143.793 173.648ZM151.341 184.176C149.181 184.176 147.661 182.592 147.661 180.352C147.661 178.096 149.181 176.512 151.341 176.512C153.709 176.512 154.461 178.448 154.509 178.576C154.973 179.664 154.829 180.88 154.829 181.008H149.325C149.517 182.032 150.381 182.736 151.341 182.736C152.605 182.736 153.117 182 153.245 181.776L154.605 182.384C154.237 183.248 153.165 184.176 151.341 184.176ZM149.325 179.664H153.229C153.069 178.72 152.525 177.952 151.341 177.952C150.317 177.952 149.517 178.672 149.325 179.664ZM160.027 184.208C157.915 184.208 156.395 182.608 156.395 180.352C156.395 178.096 157.915 176.496 160.027 176.496C160.651 176.496 161.595 176.768 162.251 177.632V172.704H163.947V184.144H162.251V183.072C161.579 183.888 160.651 184.208 160.027 184.208ZM158.091 180.368C158.091 181.824 158.907 182.784 160.139 182.784C161.291 182.784 162.251 181.728 162.251 180.368C162.251 179.024 161.291 177.952 160.139 177.952C158.907 177.952 158.091 178.912 158.091 180.368Z" fill="#6D0CA6"/>
<circle opacity="0.4" cx="395.5" cy="138.5" r="138" fill="#9735D0" fill-opacity="0.14" stroke="#9735D0"/>
<path d="M344.809 81.32L349.193 93.128H347.385L346.201 89.912H341.353L340.121 93.128H338.313L342.777 81.32H344.809ZM341.897 88.44H345.641L343.801 83.464L341.897 88.44ZM350.595 81.704H352.291V93.128H350.595V81.704ZM354.376 81.704H356.072V93.128H354.376V81.704ZM358.157 86.264H365.133V87.96H358.157V86.264ZM367.476 85.496H369.172V93.128H367.476V85.496ZM367.364 82.648C367.364 82.088 367.764 81.688 368.324 81.688C368.884 81.688 369.284 82.088 369.284 82.648C369.284 83.208 368.884 83.608 368.324 83.608C367.764 83.608 367.364 83.208 367.364 82.648ZM376.735 88.936C376.735 87.72 376.111 86.984 375.055 86.984C374.015 87 373.215 87.816 373.231 88.936V93.144H371.535V85.512H373.231V86.552C373.711 85.96 374.527 85.528 375.263 85.528C376.703 85.528 378.431 86.472 378.431 88.872V93.144H376.735V88.936ZM380.485 86.264H387.461V87.96H380.485V86.264ZM393.052 91.752C394.236 91.752 395.036 90.808 395.036 89.352C395.036 87.912 394.236 86.952 393.052 86.952C391.868 86.952 391.068 87.896 391.068 89.352C391.068 90.808 391.852 91.752 393.052 91.752ZM389.372 89.352C389.372 87.096 390.892 85.496 393.052 85.496C395.212 85.496 396.732 87.096 396.732 89.352C396.732 91.592 395.212 93.208 393.052 93.208C390.892 93.208 389.372 91.592 389.372 89.352ZM403.657 88.936C403.657 87.72 403.033 86.984 401.977 86.984C400.937 87 400.137 87.816 400.153 88.936V93.144H398.457V85.512H400.153V86.552C400.633 85.96 401.449 85.528 402.185 85.528C403.625 85.528 405.353 86.472 405.353 88.872V93.144H403.657V88.936ZM410.755 93.176C408.595 93.176 407.075 91.592 407.075 89.352C407.075 87.096 408.595 85.512 410.755 85.512C413.123 85.512 413.875 87.448 413.923 87.576C414.387 88.664 414.243 89.88 414.243 90.008H408.739C408.931 91.032 409.795 91.736 410.755 91.736C412.019 91.736 412.531 91 412.659 90.776L414.019 91.384C413.651 92.248 412.579 93.176 410.755 93.176ZM408.739 88.664H412.643C412.483 87.72 411.939 86.952 410.755 86.952C409.731 86.952 408.931 87.672 408.739 88.664ZM423.555 91.64C426.083 91.64 427.779 89.864 427.779 87.224C427.779 84.584 426.083 82.808 423.555 82.808L421.875 82.824V91.624L423.555 91.64ZM420.179 93.128V81.32H423.571C427.027 81.32 429.459 83.752 429.459 87.224C429.459 90.696 427.027 93.128 423.571 93.128H420.179ZM434.457 93.208C432.345 93.208 430.841 91.608 430.841 89.368C430.841 87.128 432.345 85.528 434.457 85.528C435.209 85.528 436.041 85.88 436.649 86.6V85.512H438.345V93.144H436.649V92.12C436.041 92.888 435.209 93.208 434.457 93.208ZM432.537 89.368C432.537 90.808 433.353 91.768 434.569 91.768C435.689 91.768 436.649 90.76 436.665 89.368C436.649 87.976 435.689 86.968 434.569 86.968C433.353 86.968 432.537 87.912 432.537 89.368ZM441.308 93.144V86.968H439.868V85.496H441.308V82.824H443.004V85.496H444.812V86.968H443.004V93.144H441.308ZM449.628 93.208C447.516 93.208 446.012 91.608 446.012 89.368C446.012 87.128 447.516 85.528 449.628 85.528C450.38 85.528 451.212 85.88 451.82 86.6V85.512H453.516V93.144H451.82V92.12C451.212 92.888 450.38 93.208 449.628 93.208ZM447.708 89.368C447.708 90.808 448.524 91.768 449.74 91.768C450.86 91.768 451.82 90.76 451.836 89.368C451.82 87.976 450.86 86.968 449.74 86.968C448.524 86.968 447.708 87.912 447.708 89.368ZM367.725 113.208C369.005 113.208 369.901 112.296 369.901 111C369.901 109.72 368.989 108.808 367.709 108.808H365.117V113.208H367.725ZM363.421 119.128V107.32H367.773C370.013 107.32 371.581 108.84 371.581 111C371.581 113.16 370.013 114.68 367.773 114.68H365.117V119.128H363.421ZM373.009 107.704H374.705V119.128H373.009V107.704ZM379.918 119.208C377.806 119.208 376.302 117.608 376.302 115.368C376.302 113.128 377.806 111.528 379.918 111.528C380.67 111.528 381.502 111.88 382.11 112.6V111.512H383.806V119.144H382.11V118.12C381.502 118.888 380.67 119.208 379.918 119.208ZM377.998 115.368C377.998 116.808 378.814 117.768 380.03 117.768C381.15 117.768 382.11 116.76 382.126 115.368C382.11 113.976 381.15 112.968 380.03 112.968C378.814 112.968 377.998 113.912 377.998 115.368ZM386.769 119.144V112.968H385.329V111.496H386.769V108.824H388.465V111.496H390.273V112.968H388.465V119.144H386.769ZM394.603 119.144H392.907V112.984H391.563V111.48H392.907V109.88C392.907 108.472 393.883 107.4 395.291 107.304C395.947 107.256 396.763 107.512 397.147 107.896L396.283 109.144C395.931 108.84 395.707 108.776 395.435 108.808C394.939 108.856 394.603 109.272 394.603 109.88V111.48H396.747V112.984H394.603V119.144ZM401.403 117.752C402.587 117.752 403.387 116.808 403.387 115.352C403.387 113.912 402.587 112.952 401.403 112.952C400.219 112.952 399.419 113.896 399.419 115.352C399.419 116.808 400.203 117.752 401.403 117.752ZM397.723 115.352C397.723 113.096 399.243 111.496 401.403 111.496C403.563 111.496 405.083 113.096 405.083 115.352C405.083 117.592 403.563 119.208 401.403 119.208C399.243 119.208 397.723 117.592 397.723 115.352ZM406.729 119.144V111.512H408.425V112.632C408.937 111.912 409.865 111.432 410.761 111.48V113.048C409.401 112.984 408.425 114.184 408.425 115.352V119.144H406.729ZM422.27 114.808C422.27 113.72 421.678 113 420.814 113C419.838 113 419.182 113.752 419.182 114.728V119.144H417.47V114.808C417.47 113.72 416.894 113 416.046 113C415.07 113 414.382 113.832 414.382 114.904V119.144H412.686V111.512H414.382V112.552C414.83 111.944 415.486 111.528 416.206 111.528C417.118 111.528 418.014 112.104 418.462 112.904C418.99 112.104 420.014 111.528 420.926 111.528C422.734 111.528 423.982 112.872 423.982 114.744V119.144H422.27V114.808ZM428.053 117.528L426.965 121.208H425.701L426.309 117.528H428.053ZM353.577 137.624H354.729V145H353.577V137.624ZM353.417 134.696C353.417 134.28 353.721 133.976 354.153 133.976C354.569 133.976 354.873 134.28 354.873 134.696C354.873 135.128 354.569 135.432 354.153 135.432C353.721 135.432 353.417 135.128 353.417 134.696ZM362.179 140.664C362.179 139.48 361.443 138.664 360.387 138.664C359.139 138.664 358.275 139.624 358.275 140.664V145H357.123V137.624H358.275V138.728C358.787 138.072 359.651 137.624 360.387 137.624C362.115 137.624 363.331 138.84 363.331 140.568V145H362.179V140.664ZM366.034 145V138.648H364.706V137.624H366.034V135.08H367.186V137.624H368.93V138.648H367.186V145H366.034ZM373.432 145.08C371.368 145.08 369.912 143.528 369.912 141.352C369.912 139.176 371.368 137.624 373.432 137.624C375.704 137.624 376.392 139.448 376.456 139.64C376.904 140.824 376.744 141.88 376.744 141.88H371.112C371.304 143.144 372.264 144.04 373.432 144.04C375.016 144.04 375.576 143.016 375.672 142.872L376.568 143.384C376.2 144.2 375.16 145.08 373.432 145.08ZM371.112 140.856L375.608 140.84C375.48 139.608 374.904 138.664 373.432 138.664C372.248 138.664 371.304 139.544 371.112 140.856ZM381.839 144.056C383.151 144.056 384.191 142.84 384.191 141.368C384.191 139.928 383.135 138.664 381.839 138.664C380.447 138.664 379.471 139.8 379.471 141.368C379.471 142.952 380.447 144.056 381.839 144.056ZM378.319 141.368C378.319 139.208 379.775 137.624 381.823 137.624C382.831 137.624 383.711 138.152 384.191 138.968V137.624H385.343V144.568C385.343 146.728 383.919 148.408 381.743 148.408C380.559 148.408 379.487 147.864 378.735 146.712L379.695 146.136C380.207 146.984 380.927 147.368 381.743 147.368C383.263 147.368 384.191 146.136 384.191 144.552V143.704C383.663 144.52 382.703 145.096 381.823 145.096C379.775 145.096 378.319 143.544 378.319 141.368ZM387.59 145V137.624H388.742V138.92C389.238 138.088 390.262 137.512 391.318 137.544V138.68C389.958 138.648 388.742 139.816 388.742 141.208V145H387.59ZM395.791 145.112C393.743 145.112 392.287 143.56 392.287 141.384C392.287 139.208 393.743 137.64 395.791 137.64C396.607 137.64 397.519 138.088 398.175 139.016V137.624H399.327V145H398.175V143.72C397.503 144.728 396.623 145.112 395.791 145.112ZM393.439 141.384C393.439 142.952 394.415 144.072 395.807 144.072C397.055 144.072 398.175 142.952 398.191 141.384C398.175 139.832 397.055 138.68 395.807 138.68C394.415 138.68 393.439 139.8 393.439 141.384ZM402.206 145V138.648H400.878V137.624H402.206V135.08H403.358V137.624H405.102V138.648H403.358V145H402.206ZM406.765 137.624H407.917V145H406.765V137.624ZM406.605 134.696C406.605 134.28 406.909 133.976 407.341 133.976C407.757 133.976 408.061 134.28 408.061 134.696C408.061 135.128 407.757 135.432 407.341 135.432C406.909 135.432 406.605 135.128 406.605 134.696ZM415.366 140.664C415.366 139.48 414.63 138.664 413.574 138.664C412.326 138.664 411.462 139.624 411.462 140.664V145H410.31V137.624H411.462V138.728C411.974 138.072 412.838 137.624 413.574 137.624C415.302 137.624 416.518 138.84 416.518 140.568V145H415.366V140.664ZM421.886 144.056C423.198 144.056 424.238 142.84 424.238 141.368C424.238 139.928 423.182 138.664 421.886 138.664C420.494 138.664 419.518 139.8 419.518 141.368C419.518 142.952 420.494 144.056 421.886 144.056ZM418.366 141.368C418.366 139.208 419.822 137.624 421.87 137.624C422.878 137.624 423.758 138.152 424.238 138.968V137.624H425.39V144.568C425.39 146.728 423.966 148.408 421.79 148.408C420.606 148.408 419.534 147.864 418.782 146.712L419.742 146.136C420.254 146.984 420.974 147.368 421.79 147.368C423.31 147.368 424.238 146.136 424.238 144.552V143.704C423.71 144.52 422.75 145.096 421.87 145.096C419.822 145.096 418.366 143.544 418.366 141.368ZM435.048 134.344C433.464 134.344 432.36 135.48 432.36 137.112C432.36 138.744 433.464 139.896 435.048 139.896C436.584 139.896 437.672 138.744 437.672 137.112C437.672 135.48 436.584 134.344 435.048 134.344ZM431.208 137.112C431.208 134.888 432.776 133.32 435.016 133.32C437.256 133.32 438.824 134.888 438.824 137.112C438.824 137.928 438.568 138.664 438.232 139.256L434.952 145H433.624L436.04 140.808C435.72 140.872 435.368 140.92 435.016 140.92C432.776 140.92 431.208 139.352 431.208 137.112ZM337.942 168.728C338.39 169.656 339.302 170.04 339.878 170.04C340.822 170.04 341.526 169.624 341.526 168.936C341.526 168.264 340.63 168.008 339.766 167.72C338.758 167.368 337.334 166.952 337.334 165.544C337.334 164.328 338.47 163.56 339.91 163.56C340.758 163.56 342.182 164.04 342.518 165.352L341.462 165.688C341.238 164.792 340.39 164.6 339.91 164.6C339.094 164.6 338.486 164.952 338.486 165.544C338.486 166.216 339.302 166.44 340.23 166.744C341.302 167.112 342.678 167.528 342.678 168.936C342.678 170.232 341.462 171.08 339.878 171.08C338.758 171.08 337.622 170.472 336.998 169.304L337.942 168.728ZM347.877 170.072C349.269 170.072 350.245 168.952 350.245 167.368C350.245 165.784 349.269 164.664 347.877 164.664C346.485 164.664 345.525 165.768 345.525 167.368C345.525 168.968 346.485 170.072 347.877 170.072ZM344.373 167.368C344.373 165.192 345.829 163.624 347.877 163.624C349.941 163.624 351.397 165.192 351.397 167.368C351.397 169.544 349.941 171.112 347.877 171.112C345.829 171.112 344.373 169.544 344.373 167.368ZM353.112 159.768H354.264V171H353.112V159.768ZM357.767 167.96C357.767 169.16 358.503 170.088 359.559 170.088C360.791 170.088 361.655 169.304 361.655 168.12V163.624H362.823V171H361.655V170.056C361.159 170.68 360.295 171.128 359.559 171.128C357.831 171.128 356.599 169.8 356.599 168.088V163.624H357.767V167.96ZM366.01 171V164.648H364.682V163.624H366.01V161.08H367.162V163.624H368.906V164.648H367.162V171H366.01ZM370.569 163.624H371.721V171H370.569V163.624ZM370.409 160.696C370.409 160.28 370.713 159.976 371.145 159.976C371.561 159.976 371.865 160.28 371.865 160.696C371.865 161.128 371.561 161.432 371.145 161.432C370.713 161.432 370.409 161.128 370.409 160.696ZM377.315 170.072C378.707 170.072 379.683 168.952 379.683 167.368C379.683 165.784 378.707 164.664 377.315 164.664C375.923 164.664 374.963 165.768 374.963 167.368C374.963 168.968 375.923 170.072 377.315 170.072ZM373.811 167.368C373.811 165.192 375.267 163.624 377.315 163.624C379.379 163.624 380.835 165.192 380.835 167.368C380.835 169.544 379.379 171.112 377.315 171.112C375.267 171.112 373.811 169.544 373.811 167.368ZM387.733 166.664C387.733 165.48 386.997 164.664 385.941 164.664C384.693 164.664 383.829 165.624 383.829 166.664V171H382.677V163.624H383.829V164.728C384.341 164.072 385.205 163.624 385.941 163.624C387.669 163.624 388.885 164.84 388.885 166.568V171H387.733V166.664ZM391.677 168.728C392.125 169.656 393.037 170.04 393.613 170.04C394.557 170.04 395.261 169.624 395.261 168.936C395.261 168.264 394.365 168.008 393.501 167.72C392.493 167.368 391.069 166.952 391.069 165.544C391.069 164.328 392.205 163.56 393.645 163.56C394.493 163.56 395.917 164.04 396.253 165.352L395.197 165.688C394.973 164.792 394.125 164.6 393.645 164.6C392.829 164.6 392.221 164.952 392.221 165.544C392.221 166.216 393.037 166.44 393.965 166.744C395.037 167.112 396.413 167.528 396.413 168.936C396.413 170.232 395.197 171.08 393.613 171.08C392.493 171.08 391.357 170.472 390.733 169.304L391.677 168.728ZM402.319 163.624H403.471V171H402.319V163.624ZM402.159 160.696C402.159 160.28 402.463 159.976 402.895 159.976C403.311 159.976 403.615 160.28 403.615 160.696C403.615 161.128 403.311 161.432 402.895 161.432C402.463 161.432 402.159 161.128 402.159 160.696ZM410.921 166.664C410.921 165.48 410.185 164.664 409.129 164.664C407.881 164.664 407.017 165.624 407.017 166.664V171H405.865V163.624H407.017V164.728C407.529 164.072 408.393 163.624 409.129 163.624C410.857 163.624 412.073 164.84 412.073 166.568V171H410.921V166.664ZM414.776 171V164.648H413.448V163.624H414.776V161.08H415.928V163.624H417.672V164.648H415.928V171H414.776ZM422.159 170.072C423.551 170.072 424.527 168.952 424.527 167.368C424.527 165.784 423.551 164.664 422.159 164.664C420.767 164.664 419.807 165.768 419.807 167.368C419.807 168.968 420.767 170.072 422.159 170.072ZM418.655 167.368C418.655 165.192 420.111 163.624 422.159 163.624C424.223 163.624 425.679 165.192 425.679 167.368C425.679 169.544 424.223 171.112 422.159 171.112C420.111 171.112 418.655 169.544 418.655 167.368ZM434.721 170.072C436.113 170.072 437.089 168.952 437.089 167.368C437.089 165.784 436.113 164.664 434.721 164.664C433.329 164.664 432.369 165.768 432.369 167.368C432.369 168.968 433.329 170.072 434.721 170.072ZM431.217 167.368C431.217 165.192 432.673 163.624 434.721 163.624C436.785 163.624 438.241 165.192 438.241 167.368C438.241 169.544 436.785 171.112 434.721 171.112C432.673 171.112 431.217 169.544 431.217 167.368ZM445.14 166.664C445.14 165.48 444.404 164.664 443.348 164.664C442.1 164.664 441.236 165.624 441.236 166.664V171H440.084V163.624H441.236V164.728C441.748 164.072 442.612 163.624 443.348 163.624C445.076 163.624 446.292 164.84 446.292 166.568V171H445.14V166.664ZM451.659 171.08C449.595 171.08 448.139 169.528 448.139 167.352C448.139 165.176 449.595 163.624 451.659 163.624C453.931 163.624 454.619 165.448 454.683 165.64C455.131 166.824 454.971 167.88 454.971 167.88H449.339C449.531 169.144 450.491 170.04 451.659 170.04C453.243 170.04 453.803 169.016 453.899 168.872L454.795 169.384C454.427 170.2 453.387 171.08 451.659 171.08ZM449.339 166.856L453.835 166.84C453.707 165.608 453.131 164.664 451.659 164.664C450.475 164.664 449.531 165.544 449.339 166.856ZM371.356 196.072C372.764 196.072 373.74 194.952 373.74 193.352C373.74 191.784 372.764 190.648 371.356 190.648C370.076 190.648 368.988 191.896 368.988 193.352C368.988 194.84 370.076 196.072 371.356 196.072ZM367.82 200.424V189.624H368.972V190.952C369.5 190.072 370.54 189.624 371.372 189.624C373.436 189.624 374.892 191.176 374.892 193.352C374.892 195.56 373.436 197.112 371.372 197.112C370.524 197.112 369.5 196.584 368.972 195.768V200.424H367.82ZM376.612 185.768H377.764V197H376.612V185.768ZM382.987 197.112C380.939 197.112 379.483 195.56 379.483 193.384C379.483 191.208 380.939 189.64 382.987 189.64C383.803 189.64 384.715 190.088 385.371 191.016V189.624H386.523V197H385.371V195.72C384.699 196.728 383.819 197.112 382.987 197.112ZM380.635 193.384C380.635 194.952 381.611 196.072 383.003 196.072C384.251 196.072 385.371 194.952 385.387 193.384C385.371 191.832 384.251 190.68 383.003 190.68C381.611 190.68 380.635 191.8 380.635 193.384ZM389.401 197V190.648H388.073V189.624H389.401V187.08H390.553V189.624H392.297V190.648H390.553V197H389.401ZM396.004 197H394.852V190.648H393.54V189.624H394.852V187.672C394.852 186.408 395.764 185.48 397.06 185.48C397.636 185.48 398.18 185.736 398.564 186.088L397.812 186.888C397.572 186.648 397.364 186.52 397.06 186.52C396.436 186.52 396.004 187 396.004 187.672V189.624H398.1V190.648H396.004V197ZM402.752 196.072C404.144 196.072 405.12 194.952 405.12 193.368C405.12 191.784 404.144 190.664 402.752 190.664C401.36 190.664 400.4 191.768 400.4 193.368C400.4 194.968 401.36 196.072 402.752 196.072ZM399.248 193.368C399.248 191.192 400.704 189.624 402.752 189.624C404.816 189.624 406.272 191.192 406.272 193.368C406.272 195.544 404.816 197.112 402.752 197.112C400.704 197.112 399.248 195.544 399.248 193.368ZM408.035 197V189.624H409.187V190.92C409.683 190.088 410.707 189.512 411.763 189.544V190.68C410.403 190.648 409.187 191.816 409.187 193.208V197H408.035ZM423.149 192.488C423.149 191.416 422.477 190.664 421.517 190.664C420.397 190.664 419.613 191.352 419.613 192.344V197H418.461V192.488C418.461 191.416 417.805 190.664 416.861 190.664C415.725 190.664 414.941 191.608 414.941 192.664V197H413.789V189.624H414.941V190.712C415.389 190.072 416.157 189.624 416.861 189.624C417.789 189.624 418.717 190.184 419.133 191C419.613 190.184 420.573 189.624 421.517 189.624C423.133 189.624 424.301 190.76 424.301 192.376V197H423.149V192.488Z" fill="#6D0CA6"/>
<circle opacity="0.4" cx="652.5" cy="138.5" r="138" fill="#9735D0" fill-opacity="0.14" stroke="#9735D0"/>
<path d="M557.157 93.112C554.453 93.112 552.885 91.208 552.885 88.504V81.448H554.037V88.52C554.037 90.616 555.141 92.088 557.157 92.088C559.173 92.088 560.277 90.616 560.277 88.52V81.448H561.429V88.504C561.429 91.208 559.861 93.112 557.157 93.112ZM564.901 93V86.648H563.573V85.624H564.901V83.08H566.053V85.624H567.797V86.648H566.053V93H564.901ZM569.46 85.624H570.612V93H569.46V85.624ZM569.3 82.696C569.3 82.28 569.604 81.976 570.036 81.976C570.452 81.976 570.756 82.28 570.756 82.696C570.756 83.128 570.452 83.432 570.036 83.432C569.604 83.432 569.3 83.128 569.3 82.696ZM572.877 81.768H574.029V93H572.877V81.768ZM576.429 85.624H577.581V93H576.429V85.624ZM576.269 82.696C576.269 82.28 576.573 81.976 577.005 81.976C577.421 81.976 577.725 82.28 577.725 82.696C577.725 83.128 577.421 83.432 577.005 83.432C576.573 83.432 576.269 83.128 576.269 82.696ZM585.078 85.624V86.728L581.03 91.96H585.078V93H579.638V91.896L583.686 86.664H579.638V85.624H585.078ZM590.112 93.08C588.048 93.08 586.592 91.528 586.592 89.352C586.592 87.176 588.048 85.624 590.112 85.624C592.384 85.624 593.072 87.448 593.136 87.64C593.584 88.824 593.424 89.88 593.424 89.88H587.792C587.984 91.144 588.944 92.04 590.112 92.04C591.696 92.04 592.256 91.016 592.352 90.872L593.248 91.384C592.88 92.2 591.84 93.08 590.112 93.08ZM587.792 88.856L592.288 88.84C592.16 87.608 591.584 86.664 590.112 86.664C588.928 86.664 587.984 87.544 587.792 88.856ZM598.518 93.112C596.454 93.112 594.998 91.56 594.998 89.352C594.998 87.16 596.454 85.608 598.518 85.608C599.414 85.608 600.342 86.04 600.95 87V81.768H602.102V93H600.95V91.704C600.326 92.664 599.414 93.112 598.518 93.112ZM596.15 89.352C596.15 90.952 597.142 92.072 598.566 92.072C599.83 92.072 600.95 90.856 600.95 89.352C600.95 87.88 599.83 86.648 598.566 86.648C597.142 86.648 596.15 87.768 596.15 89.352ZM609.151 93V86.648H607.823V85.624H609.151V83.08H610.303V85.624H612.047V86.648H610.303V93H609.151ZM616.534 92.072C617.926 92.072 618.902 90.952 618.902 89.368C618.902 87.784 617.926 86.664 616.534 86.664C615.142 86.664 614.182 87.768 614.182 89.368C614.182 90.968 615.142 92.072 616.534 92.072ZM613.03 89.368C613.03 87.192 614.486 85.624 616.534 85.624C618.598 85.624 620.054 87.192 620.054 89.368C620.054 91.544 618.598 93.112 616.534 93.112C614.486 93.112 613.03 91.544 613.03 89.368ZM629.464 93.144C628.696 93.144 627.736 92.808 627.064 91.768V93.032H625.912V81.768H627.064V87.016C627.736 85.992 628.696 85.656 629.48 85.656C631.544 85.656 633.016 87.208 633.016 89.384C633.016 91.592 631.544 93.144 629.464 93.144ZM627.064 89.384C627.064 90.888 628.152 92.104 629.448 92.104C630.872 92.104 631.864 90.984 631.864 89.384C631.864 87.8 630.872 86.696 629.448 86.696C628.152 86.696 627.064 87.912 627.064 89.384ZM636.189 89.96C636.189 91.16 636.925 92.088 637.981 92.088C639.213 92.088 640.077 91.304 640.077 90.12V85.624H641.245V93H640.077V92.056C639.581 92.68 638.717 93.128 637.981 93.128C636.253 93.128 635.021 91.8 635.021 90.088V85.624H636.189V89.96ZM643.616 85.624H644.768V93H643.616V85.624ZM643.456 82.696C643.456 82.28 643.76 81.976 644.192 81.976C644.608 81.976 644.912 82.28 644.912 82.696C644.912 83.128 644.608 83.432 644.192 83.432C643.76 83.432 643.456 83.128 643.456 82.696ZM647.034 81.768H648.186V93H647.034V81.768ZM653.425 93.112C651.361 93.112 649.905 91.56 649.905 89.352C649.905 87.16 651.361 85.608 653.425 85.608C654.321 85.608 655.249 86.04 655.857 87V81.768H657.009V93H655.857V91.704C655.233 92.664 654.321 93.112 653.425 93.112ZM651.057 89.352C651.057 90.952 652.049 92.072 653.473 92.072C654.737 92.072 655.857 90.856 655.857 89.352C655.857 87.88 654.737 86.648 653.473 86.648C652.049 86.648 651.057 87.768 651.057 89.352ZM666.393 93.112C664.329 93.112 662.873 91.56 662.873 89.352C662.873 87.16 664.329 85.608 666.393 85.608C667.289 85.608 668.217 86.04 668.825 87V81.768H669.977V93H668.825V91.704C668.201 92.664 667.289 93.112 666.393 93.112ZM664.025 89.352C664.025 90.952 665.017 92.072 666.441 92.072C667.705 92.072 668.825 90.856 668.825 89.352C668.825 87.88 667.705 86.648 666.441 86.648C665.017 86.648 664.025 87.768 664.025 89.352ZM675.346 93.112C673.298 93.112 671.842 91.56 671.842 89.384C671.842 87.208 673.298 85.64 675.346 85.64C676.162 85.64 677.074 86.088 677.73 87.016V85.624H678.882V93H677.73V91.72C677.058 92.728 676.178 93.112 675.346 93.112ZM672.994 89.384C672.994 90.952 673.97 92.072 675.362 92.072C676.61 92.072 677.73 90.952 677.746 89.384C677.73 87.832 676.61 86.68 675.362 86.68C673.97 86.68 672.994 87.8 672.994 89.384ZM681.76 93V86.648H680.432V85.624H681.76V83.08H682.912V85.624H684.656V86.648H682.912V93H681.76ZM689.143 93.112C687.095 93.112 685.639 91.56 685.639 89.384C685.639 87.208 687.095 85.64 689.143 85.64C689.959 85.64 690.871 86.088 691.527 87.016V85.624H692.679V93H691.527V91.72C690.855 92.728 689.975 93.112 689.143 93.112ZM686.791 89.384C686.791 90.952 687.767 92.072 689.159 92.072C690.407 92.072 691.527 90.952 691.543 89.384C691.527 87.832 690.407 86.68 689.159 86.68C687.767 86.68 686.791 87.8 686.791 89.384ZM699.489 90.728C699.937 91.656 700.849 92.04 701.425 92.04C702.369 92.04 703.073 91.624 703.073 90.936C703.073 90.264 702.177 90.008 701.313 89.72C700.305 89.368 698.881 88.952 698.881 87.544C698.881 86.328 700.017 85.56 701.457 85.56C702.305 85.56 703.729 86.04 704.065 87.352L703.009 87.688C702.785 86.792 701.937 86.6 701.457 86.6C700.641 86.6 700.033 86.952 700.033 87.544C700.033 88.216 700.849 88.44 701.777 88.744C702.849 89.112 704.225 89.528 704.225 90.936C704.225 92.232 703.009 93.08 701.425 93.08C700.305 93.08 699.169 92.472 698.545 91.304L699.489 90.728ZM708.108 96.44H706.844L708.38 92.664L705.388 85.624H706.652L708.988 91.272L711.212 85.624H712.46L709.676 92.52L708.108 96.44ZM714.302 90.728C714.75 91.656 715.662 92.04 716.238 92.04C717.182 92.04 717.886 91.624 717.886 90.936C717.886 90.264 716.99 90.008 716.126 89.72C715.118 89.368 713.694 88.952 713.694 87.544C713.694 86.328 714.83 85.56 716.27 85.56C717.118 85.56 718.542 86.04 718.878 87.352L717.822 87.688C717.598 86.792 716.75 86.6 716.27 86.6C715.454 86.6 714.846 86.952 714.846 87.544C714.846 88.216 715.662 88.44 716.59 88.744C717.662 89.112 719.038 89.528 719.038 90.936C719.038 92.232 717.822 93.08 716.238 93.08C715.118 93.08 713.982 92.472 713.358 91.304L714.302 90.728ZM721.76 93V86.648H720.432V85.624H721.76V83.08H722.912V85.624H724.656V86.648H722.912V93H721.76ZM729.159 93.08C727.095 93.08 725.639 91.528 725.639 89.352C725.639 87.176 727.095 85.624 729.159 85.624C731.431 85.624 732.119 87.448 732.183 87.64C732.631 88.824 732.471 89.88 732.471 89.88H726.839C727.031 91.144 727.991 92.04 729.159 92.04C730.743 92.04 731.303 91.016 731.399 90.872L732.295 91.384C731.927 92.2 730.887 93.08 729.159 93.08ZM726.839 88.856L731.335 88.84C731.207 87.608 730.631 86.664 729.159 86.664C727.975 86.664 727.031 87.544 726.839 88.856ZM743.821 88.488C743.821 87.416 743.149 86.664 742.189 86.664C741.069 86.664 740.285 87.352 740.285 88.344V93H739.133V88.488C739.133 87.416 738.477 86.664 737.533 86.664C736.397 86.664 735.613 87.608 735.613 88.664V93H734.461V85.624H735.613V86.712C736.061 86.072 736.829 85.624 737.533 85.624C738.461 85.624 739.389 86.184 739.805 87C740.285 86.184 741.245 85.624 742.189 85.624C743.805 85.624 744.973 86.76 744.973 88.376V93H743.821V88.488ZM747.895 90.728C748.343 91.656 749.255 92.04 749.831 92.04C750.775 92.04 751.479 91.624 751.479 90.936C751.479 90.264 750.583 90.008 749.719 89.72C748.711 89.368 747.287 88.952 747.287 87.544C747.287 86.328 748.423 85.56 749.863 85.56C750.711 85.56 752.135 86.04 752.471 87.352L751.415 87.688C751.191 86.792 750.343 86.6 749.863 86.6C749.047 86.6 748.439 86.952 748.439 87.544C748.439 88.216 749.255 88.44 750.183 88.744C751.255 89.112 752.631 89.528 752.631 90.936C752.631 92.232 751.415 93.08 749.831 93.08C748.711 93.08 747.575 92.472 746.951 91.304L747.895 90.728ZM554.655 111.624H555.807V119H554.655V111.624ZM554.495 108.696C554.495 108.28 554.799 107.976 555.231 107.976C555.647 107.976 555.951 108.28 555.951 108.696C555.951 109.128 555.647 109.432 555.231 109.432C554.799 109.432 554.495 109.128 554.495 108.696ZM563.257 114.664C563.257 113.48 562.521 112.664 561.465 112.664C560.217 112.664 559.353 113.624 559.353 114.664V119H558.201V111.624H559.353V112.728C559.865 112.072 560.729 111.624 561.465 111.624C563.193 111.624 564.409 112.84 564.409 114.568V119H563.257V114.664ZM577.156 111.624L574.1 119H573.012L569.94 111.624H571.204L573.556 117.432L575.892 111.624H577.156ZM581.401 119.112C579.353 119.112 577.897 117.56 577.897 115.384C577.897 113.208 579.353 111.64 581.401 111.64C582.217 111.64 583.129 112.088 583.785 113.016V111.624H584.937V119H583.785V117.72C583.113 118.728 582.233 119.112 581.401 119.112ZM579.049 115.384C579.049 116.952 580.025 118.072 581.417 118.072C582.665 118.072 583.785 116.952 583.801 115.384C583.785 113.832 582.665 112.68 581.417 112.68C580.025 112.68 579.049 113.8 579.049 115.384ZM586.855 119V111.624H588.007V112.92C588.503 112.088 589.527 111.512 590.583 111.544V112.68C589.223 112.648 588.007 113.816 588.007 115.208V119H586.855ZM592.562 111.624H593.714V119H592.562V111.624ZM592.402 108.696C592.402 108.28 592.706 107.976 593.138 107.976C593.554 107.976 593.858 108.28 593.858 108.696C593.858 109.128 593.554 109.432 593.138 109.432C592.706 109.432 592.402 109.128 592.402 108.696ZM599.307 118.072C600.699 118.072 601.675 116.952 601.675 115.368C601.675 113.784 600.699 112.664 599.307 112.664C597.915 112.664 596.955 113.768 596.955 115.368C596.955 116.968 597.915 118.072 599.307 118.072ZM595.803 115.368C595.803 113.192 597.259 111.624 599.307 111.624C601.371 111.624 602.827 113.192 602.827 115.368C602.827 117.544 601.371 119.112 599.307 119.112C597.259 119.112 595.803 117.544 595.803 115.368ZM605.994 115.96C605.994 117.16 606.73 118.088 607.786 118.088C609.018 118.088 609.882 117.304 609.882 116.12V111.624H611.05V119H609.882V118.056C609.386 118.68 608.522 119.128 607.786 119.128C606.058 119.128 604.826 117.8 604.826 116.088V111.624H605.994V115.96ZM613.997 116.728C614.445 117.656 615.357 118.04 615.933 118.04C616.877 118.04 617.581 117.624 617.581 116.936C617.581 116.264 616.685 116.008 615.821 115.72C614.813 115.368 613.389 114.952 613.389 113.544C613.389 112.328 614.525 111.56 615.965 111.56C616.813 111.56 618.237 112.04 618.573 113.352L617.517 113.688C617.293 112.792 616.445 112.6 615.965 112.6C615.149 112.6 614.541 112.952 614.541 113.544C614.541 114.216 615.357 114.44 616.285 114.744C617.357 115.112 618.733 115.528 618.733 116.936C618.733 118.232 617.517 119.08 615.933 119.08C614.813 119.08 613.677 118.472 613.053 117.304L613.997 116.728ZM624.64 111.624H625.792V119H624.64V111.624ZM624.48 108.696C624.48 108.28 624.784 107.976 625.216 107.976C625.632 107.976 625.936 108.28 625.936 108.696C625.936 109.128 625.632 109.432 625.216 109.432C624.784 109.432 624.48 109.128 624.48 108.696ZM633.241 114.664C633.241 113.48 632.505 112.664 631.449 112.664C630.201 112.664 629.337 113.624 629.337 114.664V119H628.185V111.624H629.337V112.728C629.849 112.072 630.713 111.624 631.449 111.624C633.177 111.624 634.393 112.84 634.393 114.568V119H633.241V114.664ZM639.761 119.112C637.697 119.112 636.241 117.56 636.241 115.352C636.241 113.16 637.697 111.608 639.761 111.608C640.657 111.608 641.585 112.04 642.193 113V107.768H643.345V119H642.193V117.704C641.569 118.664 640.657 119.112 639.761 119.112ZM637.393 115.352C637.393 116.952 638.385 118.072 639.809 118.072C641.073 118.072 642.193 116.856 642.193 115.352C642.193 113.88 641.073 112.648 639.809 112.648C638.385 112.648 637.393 113.768 637.393 115.352ZM646.994 115.96C646.994 117.16 647.73 118.088 648.786 118.088C650.018 118.088 650.882 117.304 650.882 116.12V111.624H652.05V119H650.882V118.056C650.386 118.68 649.522 119.128 648.786 119.128C647.058 119.128 645.826 117.8 645.826 116.088V111.624H646.994V115.96ZM654.997 116.728C655.445 117.656 656.357 118.04 656.933 118.04C657.877 118.04 658.581 117.624 658.581 116.936C658.581 116.264 657.685 116.008 656.821 115.72C655.813 115.368 654.389 114.952 654.389 113.544C654.389 112.328 655.525 111.56 656.965 111.56C657.813 111.56 659.237 112.04 659.573 113.352L658.517 113.688C658.293 112.792 657.445 112.6 656.965 112.6C656.149 112.6 655.541 112.952 655.541 113.544C655.541 114.216 656.357 114.44 657.285 114.744C658.357 115.112 659.733 115.528 659.733 116.936C659.733 118.232 658.517 119.08 656.933 119.08C655.813 119.08 654.677 118.472 654.053 117.304L654.997 116.728ZM662.456 119V112.648H661.128V111.624H662.456V109.08H663.608V111.624H665.352V112.648H663.608V119H662.456ZM667.043 119V111.624H668.195V112.92C668.691 112.088 669.715 111.512 670.771 111.544V112.68C669.411 112.648 668.195 113.816 668.195 115.208V119H667.043ZM672.749 111.624H673.901V119H672.749V111.624ZM672.589 108.696C672.589 108.28 672.893 107.976 673.325 107.976C673.741 107.976 674.045 108.28 674.045 108.696C674.045 109.128 673.741 109.432 673.325 109.432C672.893 109.432 672.589 109.128 672.589 108.696ZM679.511 119.08C677.447 119.08 675.991 117.528 675.991 115.352C675.991 113.176 677.447 111.624 679.511 111.624C681.783 111.624 682.471 113.448 682.535 113.64C682.983 114.824 682.823 115.88 682.823 115.88H677.191C677.383 117.144 678.343 118.04 679.511 118.04C681.095 118.04 681.655 117.016 681.751 116.872L682.647 117.384C682.279 118.2 681.239 119.08 679.511 119.08ZM677.191 114.856L681.687 114.84C681.559 113.608 680.983 112.664 679.511 112.664C678.327 112.664 677.383 113.544 677.191 114.856ZM685.341 116.728C685.789 117.656 686.701 118.04 687.277 118.04C688.221 118.04 688.925 117.624 688.925 116.936C688.925 116.264 688.029 116.008 687.165 115.72C686.157 115.368 684.733 114.952 684.733 113.544C684.733 112.328 685.869 111.56 687.309 111.56C688.157 111.56 689.581 112.04 689.917 113.352L688.861 113.688C688.637 112.792 687.789 112.6 687.309 112.6C686.493 112.6 685.885 112.952 685.885 113.544C685.885 114.216 686.701 114.44 687.629 114.744C688.701 115.112 690.077 115.528 690.077 116.936C690.077 118.232 688.861 119.08 687.277 119.08C686.157 119.08 685.021 118.472 684.397 117.304L685.341 116.728ZM693.432 117.784L692.552 120.744H691.704L692.184 117.784H693.432ZM700.935 116.728C701.383 117.656 702.295 118.04 702.871 118.04C703.815 118.04 704.519 117.624 704.519 116.936C704.519 116.264 703.623 116.008 702.759 115.72C701.751 115.368 700.327 114.952 700.327 113.544C700.327 112.328 701.463 111.56 702.903 111.56C703.751 111.56 705.175 112.04 705.511 113.352L704.455 113.688C704.231 112.792 703.383 112.6 702.903 112.6C702.087 112.6 701.479 112.952 701.479 113.544C701.479 114.216 702.295 114.44 703.223 114.744C704.295 115.112 705.671 115.528 705.671 116.936C705.671 118.232 704.455 119.08 702.871 119.08C701.751 119.08 700.615 118.472 699.991 117.304L700.935 116.728ZM708.994 115.96C708.994 117.16 709.73 118.088 710.786 118.088C712.018 118.088 712.882 117.304 712.882 116.12V111.624H714.05V119H712.882V118.056C712.386 118.68 711.522 119.128 710.786 119.128C709.058 119.128 707.826 117.8 707.826 116.088V111.624H708.994V115.96ZM719.413 117.992C720.101 117.992 720.901 117.656 721.349 117.16L722.197 117.912C721.541 118.6 720.389 119.096 719.477 119.096C717.269 119.096 715.717 117.528 715.717 115.352C715.717 113.176 717.269 111.624 719.477 111.624C720.389 111.624 721.541 112.12 722.197 112.808L721.349 113.56C720.901 113.064 720.101 112.728 719.413 112.728C717.925 112.728 716.869 113.8 716.869 115.352C716.869 116.92 717.925 117.992 719.413 117.992ZM728.883 114.872C728.883 113.576 728.163 112.664 727.123 112.664C726.003 112.664 725.043 113.816 725.043 115.16V119H723.891V107.768H725.043V112.808C725.459 112.136 726.227 111.624 727.123 111.624C728.819 111.624 730.035 112.968 730.035 114.808V119H728.883V114.872ZM739.479 119.112C737.431 119.112 735.975 117.56 735.975 115.384C735.975 113.208 737.431 111.64 739.479 111.64C740.295 111.64 741.207 112.088 741.863 113.016V111.624H743.015V119H741.863V117.72C741.191 118.728 740.311 119.112 739.479 119.112ZM737.127 115.384C737.127 116.952 738.103 118.072 739.495 118.072C740.743 118.072 741.863 116.952 741.879 115.384C741.863 113.832 740.743 112.68 739.495 112.68C738.103 112.68 737.127 113.8 737.127 115.384ZM745.981 116.728C746.429 117.656 747.341 118.04 747.917 118.04C748.861 118.04 749.565 117.624 749.565 116.936C749.565 116.264 748.669 116.008 747.805 115.72C746.797 115.368 745.373 114.952 745.373 113.544C745.373 112.328 746.509 111.56 747.949 111.56C748.797 111.56 750.221 112.04 750.557 113.352L749.501 113.688C749.277 112.792 748.429 112.6 747.949 112.6C747.133 112.6 746.525 112.952 746.525 113.544C746.525 114.216 747.341 114.44 748.269 114.744C749.341 115.112 750.717 115.528 750.717 116.936C750.717 118.232 749.501 119.08 747.917 119.08C746.797 119.08 745.661 118.472 745.037 117.304L745.981 116.728ZM573.212 145.144H571.516V138.984H570.172V137.48H571.516V135.88C571.516 134.472 572.492 133.4 573.9 133.304C574.556 133.256 575.372 133.512 575.756 133.896L574.892 135.144C574.54 134.84 574.316 134.776 574.044 134.808C573.548 134.856 573.212 135.272 573.212 135.88V137.48H575.356V138.984H573.212V145.144ZM577.171 137.496H578.867V145.128H577.171V137.496ZM577.059 134.648C577.059 134.088 577.459 133.688 578.019 133.688C578.579 133.688 578.979 134.088 578.979 134.648C578.979 135.208 578.579 135.608 578.019 135.608C577.459 135.608 577.059 135.208 577.059 134.648ZM586.431 140.936C586.431 139.72 585.807 138.984 584.751 138.984C583.711 139 582.911 139.816 582.927 140.936V145.144H581.231V137.512H582.927V138.552C583.407 137.96 584.223 137.528 584.959 137.528C586.399 137.528 588.127 138.472 588.127 140.872V145.144H586.431V140.936ZM593.464 145.208C591.352 145.208 589.848 143.608 589.848 141.368C589.848 139.128 591.352 137.528 593.464 137.528C594.216 137.528 595.048 137.88 595.656 138.6V137.512H597.352V145.144H595.656V144.12C595.048 144.888 594.216 145.208 593.464 145.208ZM591.544 141.368C591.544 142.808 592.36 143.768 593.576 143.768C594.696 143.768 595.656 142.76 595.672 141.368C595.656 139.976 594.696 138.968 593.576 138.968C592.36 138.968 591.544 139.912 591.544 141.368ZM604.634 140.936C604.634 139.72 604.01 138.984 602.954 138.984C601.914 139 601.114 139.816 601.13 140.936V145.144H599.434V137.512H601.13V138.552C601.61 137.96 602.426 137.528 603.162 137.528C604.602 137.528 606.33 138.472 606.33 140.872V145.144H604.634V140.936ZM611.524 143.576C612.116 143.576 612.804 143.272 613.236 142.792L614.404 143.96C613.748 144.68 612.548 145.192 611.588 145.192C609.316 145.192 607.715 143.592 607.715 141.352C607.715 139.096 609.316 137.496 611.588 137.496C612.596 137.496 613.716 138.008 614.404 138.744L613.236 139.896C612.804 139.416 612.116 139.112 611.524 139.112C610.26 139.112 609.412 139.992 609.412 141.352C609.412 142.696 610.26 143.576 611.524 143.576ZM619.091 145.176C616.931 145.176 615.411 143.592 615.411 141.352C615.411 139.096 616.931 137.512 619.091 137.512C621.459 137.512 622.211 139.448 622.259 139.576C622.723 140.664 622.579 141.88 622.579 142.008H617.075C617.267 143.032 618.131 143.736 619.091 143.736C620.355 143.736 620.867 143 620.995 142.776L622.355 143.384C621.987 144.248 620.915 145.176 619.091 145.176ZM617.075 140.664H620.979C620.819 139.72 620.275 138.952 619.091 138.952C618.067 138.952 617.267 139.672 617.075 140.664ZM626.443 143.528L625.355 147.208H624.091L624.699 143.528H626.443ZM637.01 143.752C638.242 143.752 639.042 142.792 639.042 141.336C639.042 139.88 638.242 138.92 637.01 138.92C635.858 138.92 634.914 139.992 634.914 141.336C634.914 142.68 635.858 143.752 637.01 143.752ZM633.202 148.52V137.496H634.898V138.616C635.506 137.816 636.514 137.496 637.106 137.496C639.234 137.496 640.738 139.08 640.738 141.336C640.738 143.608 639.234 145.192 637.106 145.192C636.498 145.192 635.506 144.856 634.898 144.056V148.52H633.202ZM644.318 141.864C644.318 143.032 645.006 143.752 646.014 143.752C647.086 143.752 647.822 143.048 647.806 141.88V137.512H649.517V145.144H647.806V144.264C647.326 144.856 646.542 145.208 645.79 145.208C643.95 145.208 642.622 143.88 642.622 141.928V137.512H644.318V141.864ZM655.619 145.224C655.075 145.224 654.115 144.984 653.411 144.088V145.16H651.715V133.704H653.411V138.648C654.115 137.72 655.075 137.512 655.635 137.512C657.747 137.512 659.267 139.112 659.267 141.368C659.267 143.624 657.747 145.224 655.619 145.224ZM653.411 141.384C653.411 142.744 654.355 143.8 655.523 143.8C656.755 143.8 657.571 142.84 657.571 141.384C657.571 139.928 656.755 138.984 655.523 138.984C654.355 138.984 653.411 140.056 653.411 141.384ZM660.868 133.704H662.564V145.128H660.868V133.704ZM664.905 137.496H666.601V145.128H664.905V137.496ZM664.793 134.648C664.793 134.088 665.193 133.688 665.753 133.688C666.313 133.688 666.713 134.088 666.713 134.648C666.713 135.208 666.313 135.608 665.753 135.608C665.193 135.608 664.793 135.208 664.793 134.648ZM672.133 143.576C672.725 143.576 673.413 143.272 673.845 142.792L675.013 143.96C674.357 144.68 673.157 145.192 672.197 145.192C669.925 145.192 668.325 143.592 668.325 141.352C668.325 139.096 669.925 137.496 672.197 137.496C673.205 137.496 674.325 138.008 675.013 138.744L673.845 139.896C673.413 139.416 672.725 139.112 672.133 139.112C670.869 139.112 670.021 139.992 670.021 141.352C670.021 142.696 670.869 143.576 672.133 143.576ZM681.224 142.52C681.56 143.352 682.392 143.736 682.904 143.736C683.704 143.736 684.216 143.432 684.216 142.904C684.216 142.424 683.512 142.2 682.728 141.928C681.688 141.56 680.216 141.064 680.216 139.592C680.216 138.248 681.448 137.432 683.016 137.432C683.96 137.432 685.368 137.976 685.752 139.352L684.328 139.864C684.072 139.016 683.384 138.888 683.016 138.888C682.344 138.888 681.912 139.16 681.912 139.592C681.912 140.072 682.568 140.264 683.384 140.552C684.472 140.936 685.912 141.432 685.912 142.888C685.912 144.28 684.68 145.192 682.904 145.192C681.736 145.192 680.456 144.456 679.896 143.288L681.224 142.52ZM691.216 145.176C689.056 145.176 687.536 143.592 687.536 141.352C687.536 139.096 689.056 137.512 691.216 137.512C693.584 137.512 694.336 139.448 694.384 139.576C694.848 140.664 694.704 141.88 694.704 142.008H689.2C689.392 143.032 690.256 143.736 691.216 143.736C692.48 143.736 692.992 143 693.12 142.776L694.48 143.384C694.112 144.248 693.04 145.176 691.216 145.176ZM689.2 140.664H693.104C692.944 139.72 692.4 138.952 691.216 138.952C690.192 138.952 689.392 139.672 689.2 140.664ZM699.742 143.576C700.334 143.576 701.022 143.272 701.454 142.792L702.622 143.96C701.966 144.68 700.766 145.192 699.806 145.192C697.534 145.192 695.934 143.592 695.934 141.352C695.934 139.096 697.534 137.496 699.806 137.496C700.814 137.496 701.934 138.008 702.622 138.744L701.454 139.896C701.022 139.416 700.334 139.112 699.742 139.112C698.478 139.112 697.63 139.992 697.63 141.352C697.63 142.696 698.478 143.576 699.742 143.576ZM705.05 145.144V138.968H703.61V137.496H705.05V134.824H706.746V137.496H708.554V138.968H706.746V145.144H705.05ZM713.435 143.752C714.619 143.752 715.419 142.808 715.419 141.352C715.419 139.912 714.619 138.952 713.435 138.952C712.251 138.952 711.451 139.896 711.451 141.352C711.451 142.808 712.235 143.752 713.435 143.752ZM709.755 141.352C709.755 139.096 711.275 137.496 713.435 137.496C715.595 137.496 717.115 139.096 717.115 141.352C717.115 143.592 715.595 145.208 713.435 145.208C711.275 145.208 709.755 143.592 709.755 141.352ZM718.76 145.144V137.512H720.456V138.632C720.968 137.912 721.896 137.432 722.792 137.48V139.048C721.432 138.984 720.456 140.184 720.456 141.352V145.144H718.76ZM725.177 142.52C725.513 143.352 726.345 143.736 726.857 143.736C727.657 143.736 728.169 143.432 728.169 142.904C728.169 142.424 727.465 142.2 726.681 141.928C725.641 141.56 724.169 141.064 724.169 139.592C724.169 138.248 725.401 137.432 726.969 137.432C727.913 137.432 729.321 137.976 729.705 139.352L728.281 139.864C728.025 139.016 727.337 138.888 726.969 138.888C726.297 138.888 725.865 139.16 725.865 139.592C725.865 140.072 726.521 140.264 727.337 140.552C728.425 140.936 729.865 141.432 729.865 142.888C729.865 144.28 728.633 145.192 726.857 145.192C725.689 145.192 724.409 144.456 723.849 143.288L725.177 142.52ZM733.693 143.528L732.605 147.208H731.341L731.949 143.528H733.693ZM591.747 166.808C591.747 165.72 591.155 165 590.291 165C589.315 165 588.659 165.752 588.659 166.728V171.144H586.947V166.808C586.947 165.72 586.371 165 585.523 165C584.547 165 583.859 165.832 583.859 166.904V171.144H582.163V163.512H583.859V164.552C584.307 163.944 584.963 163.528 585.683 163.528C586.595 163.528 587.491 164.104 587.939 164.904C588.467 164.104 589.491 163.528 590.403 163.528C592.211 163.528 593.459 164.872 593.459 166.744V171.144H591.747V166.808ZM598.941 171.208C596.829 171.208 595.325 169.608 595.325 167.368C595.325 165.128 596.829 163.528 598.941 163.528C599.693 163.528 600.525 163.88 601.133 164.6V163.512H602.829V171.144H601.133V170.12C600.525 170.888 599.693 171.208 598.941 171.208ZM597.021 167.368C597.021 168.808 597.837 169.768 599.053 169.768C600.173 169.768 601.133 168.76 601.149 167.368C601.133 165.976 600.173 164.968 599.053 164.968C597.837 164.968 597.021 165.912 597.021 167.368ZM610.11 166.936C610.11 165.72 609.486 164.984 608.43 164.984C607.39 165 606.59 165.816 606.606 166.936V171.144H604.91V163.512H606.606V164.552C607.086 163.96 607.902 163.528 608.638 163.528C610.078 163.528 611.806 164.472 611.806 166.872V171.144H610.11V166.936ZM615.388 167.864C615.388 169.032 616.076 169.752 617.084 169.752C618.156 169.752 618.892 169.048 618.876 167.88V163.512H620.588V171.144H618.876V170.264C618.396 170.856 617.612 171.208 616.86 171.208C615.02 171.208 613.692 169.88 613.692 167.928V163.512H615.388V167.864ZM625.157 171.144H623.461V164.984H622.117V163.48H623.461V161.88C623.461 160.472 624.437 159.4 625.845 159.304C626.501 159.256 627.317 159.512 627.701 159.896L626.837 161.144C626.485 160.84 626.261 160.776 625.989 160.808C625.493 160.856 625.157 161.272 625.157 161.88V163.48H627.301V164.984H625.157V171.144ZM631.894 171.208C629.782 171.208 628.278 169.608 628.278 167.368C628.278 165.128 629.782 163.528 631.894 163.528C632.646 163.528 633.478 163.88 634.086 164.6V163.512H635.782V171.144H634.086V170.12C633.478 170.888 632.646 171.208 631.894 171.208ZM629.974 167.368C629.974 168.808 630.79 169.768 632.006 169.768C633.126 169.768 634.086 168.76 634.102 167.368C634.086 165.976 633.126 164.968 632.006 164.968C630.79 164.968 629.974 165.912 629.974 167.368ZM641.141 169.576C641.733 169.576 642.421 169.272 642.853 168.792L644.021 169.96C643.365 170.68 642.165 171.192 641.205 171.192C638.933 171.192 637.333 169.592 637.333 167.352C637.333 165.096 638.933 163.496 641.205 163.496C642.213 163.496 643.333 164.008 644.021 164.744L642.853 165.896C642.421 165.416 641.733 165.112 641.141 165.112C639.877 165.112 639.029 165.992 639.029 167.352C639.029 168.696 639.877 169.576 641.141 169.576ZM646.448 171.144V164.968H645.008V163.496H646.448V160.824H648.144V163.496H649.952V164.968H648.144V171.144H646.448ZM653.263 167.864C653.263 169.032 653.951 169.752 654.959 169.752C656.031 169.752 656.767 169.048 656.751 167.88V163.512H658.463V171.144H656.751V170.264C656.271 170.856 655.487 171.208 654.735 171.208C652.895 171.208 651.567 169.88 651.567 167.928V163.512H653.263V167.864ZM660.565 171.144V163.512H662.261V164.632C662.773 163.912 663.701 163.432 664.597 163.48V165.048C663.237 164.984 662.261 166.184 662.261 167.352V171.144H660.565ZM666.538 163.496H668.234V171.128H666.538V163.496ZM666.426 160.648C666.426 160.088 666.826 159.688 667.386 159.688C667.946 159.688 668.346 160.088 668.346 160.648C668.346 161.208 667.946 161.608 667.386 161.608C666.826 161.608 666.426 161.208 666.426 160.648ZM675.798 166.936C675.798 165.72 675.174 164.984 674.118 164.984C673.078 165 672.278 165.816 672.294 166.936V171.144H670.598V163.512H672.294V164.552C672.774 163.96 673.59 163.528 674.326 163.528C675.766 163.528 677.494 164.472 677.494 166.872V171.144H675.798V166.936ZM682.928 169.736C684.144 169.736 685.024 168.664 685.024 167.336C685.024 166.04 684.144 164.952 682.928 164.952C681.728 164.952 680.912 165.896 680.912 167.336C680.912 168.792 681.728 169.736 682.928 169.736ZM679.216 167.352C679.216 165.112 680.72 163.496 682.832 163.496C683.616 163.496 684.496 163.896 685.024 164.616V163.496H686.72V170.568C686.72 172.744 685.248 174.536 682.912 174.536C681.632 174.536 680.4 174.008 679.648 172.76L680.992 171.864C681.552 172.68 682.096 173.032 682.912 173.032C684.272 173.032 685.024 171.96 685.024 170.712V170.04C684.432 170.792 683.552 171.192 682.832 171.192C680.72 171.192 679.216 169.592 679.216 167.352ZM690.81 169.528L689.722 173.208H688.458L689.066 169.528H690.81ZM700.785 171.208C698.673 171.208 697.169 169.608 697.169 167.368C697.169 165.128 698.673 163.528 700.785 163.528C701.537 163.528 702.369 163.88 702.977 164.6V163.512H704.673V171.144H702.977V170.12C702.369 170.888 701.537 171.208 700.785 171.208ZM698.865 167.368C698.865 168.808 699.681 169.768 700.897 169.768C702.017 169.768 702.977 168.76 702.993 167.368C702.977 165.976 702.017 164.968 700.897 164.968C699.681 164.968 698.865 165.912 698.865 167.368ZM711.954 166.936C711.954 165.72 711.33 164.984 710.274 164.984C709.234 165 708.434 165.816 708.45 166.936V171.144H706.754V163.512H708.45V164.552C708.93 163.96 709.746 163.528 710.482 163.528C711.922 163.528 713.65 164.472 713.65 166.872V171.144H711.954V166.936ZM719.004 171.208C716.892 171.208 715.372 169.608 715.372 167.352C715.372 165.096 716.892 163.496 719.004 163.496C719.628 163.496 720.572 163.768 721.228 164.632V159.704H722.924V171.144H721.228V170.072C720.556 170.888 719.628 171.208 719.004 171.208ZM717.068 167.368C717.068 168.824 717.884 169.784 719.116 169.784C720.268 169.784 721.228 168.728 721.228 167.368C721.228 166.024 720.268 164.952 719.116 164.952C717.884 164.952 717.068 165.912 717.068 167.368ZM615.035 197.208C612.923 197.208 611.403 195.608 611.403 193.352C611.403 191.096 612.923 189.496 615.035 189.496C615.659 189.496 616.603 189.768 617.259 190.632V185.704H618.955V197.144H617.259V196.072C616.587 196.888 615.659 197.208 615.035 197.208ZM613.099 193.368C613.099 194.824 613.915 195.784 615.147 195.784C616.299 195.784 617.259 194.728 617.259 193.368C617.259 192.024 616.299 190.952 615.147 190.952C613.915 190.952 613.099 191.912 613.099 193.368ZM621.444 189.496H623.14V197.128H621.444V189.496ZM621.332 186.648C621.332 186.088 621.732 185.688 622.292 185.688C622.852 185.688 623.252 186.088 623.252 186.648C623.252 187.208 622.852 187.608 622.292 187.608C621.732 187.608 621.332 187.208 621.332 186.648ZM626.56 194.52C626.896 195.352 627.728 195.736 628.24 195.736C629.04 195.736 629.552 195.432 629.552 194.904C629.552 194.424 628.848 194.2 628.064 193.928C627.024 193.56 625.552 193.064 625.552 191.592C625.552 190.248 626.784 189.432 628.352 189.432C629.296 189.432 630.704 189.976 631.088 191.352L629.664 191.864C629.408 191.016 628.72 190.888 628.352 190.888C627.68 190.888 627.248 191.16 627.248 191.592C627.248 192.072 627.904 192.264 628.72 192.552C629.808 192.936 631.248 193.432 631.248 194.888C631.248 196.28 630.016 197.192 628.24 197.192C627.072 197.192 625.792 196.456 625.232 195.288L626.56 194.52ZM633.901 197.144V190.968H632.461V189.496H633.901V186.824H635.597V189.496H637.405V190.968H635.597V197.144H633.901ZM638.924 197.144V189.512H640.62V190.632C641.132 189.912 642.06 189.432 642.956 189.48V191.048C641.596 190.984 640.62 192.184 640.62 193.352V197.144H638.924ZM644.898 189.496H646.594V197.128H644.898V189.496ZM644.786 186.648C644.786 186.088 645.186 185.688 645.746 185.688C646.306 185.688 646.706 186.088 646.706 186.648C646.706 187.208 646.306 187.608 645.746 187.608C645.186 187.608 644.786 187.208 644.786 186.648ZM652.877 197.224C652.333 197.224 651.373 196.984 650.669 196.088V197.16H648.973V185.704H650.669V190.648C651.373 189.72 652.333 189.512 652.893 189.512C655.005 189.512 656.525 191.112 656.525 193.368C656.525 195.624 655.005 197.224 652.877 197.224ZM650.669 193.384C650.669 194.744 651.613 195.8 652.781 195.8C654.013 195.8 654.829 194.84 654.829 193.384C654.829 191.928 654.013 190.984 652.781 190.984C651.613 190.984 650.669 192.056 650.669 193.384ZM660.122 193.864C660.122 195.032 660.81 195.752 661.818 195.752C662.89 195.752 663.626 195.048 663.61 193.88V189.512H665.322V197.144H663.61V196.264C663.13 196.856 662.346 197.208 661.594 197.208C659.754 197.208 658.426 195.88 658.426 193.928V189.512H660.122V193.864ZM668.464 197.144V190.968H667.024V189.496H668.464V186.824H670.16V189.496H671.968V190.968H670.16V197.144H668.464ZM673.71 189.496H675.406V197.128H673.71V189.496ZM673.598 186.648C673.598 186.088 673.998 185.688 674.558 185.688C675.118 185.688 675.518 186.088 675.518 186.648C675.518 187.208 675.118 187.608 674.558 187.608C673.998 187.608 673.598 187.208 673.598 186.648ZM681.146 195.752C682.33 195.752 683.13 194.808 683.13 193.352C683.13 191.912 682.33 190.952 681.146 190.952C679.962 190.952 679.162 191.896 679.162 193.352C679.162 194.808 679.946 195.752 681.146 195.752ZM677.466 193.352C677.466 191.096 678.986 189.496 681.146 189.496C683.306 189.496 684.826 191.096 684.826 193.352C684.826 195.592 683.306 197.208 681.146 197.208C678.986 197.208 677.466 195.592 677.466 193.352ZM691.751 192.936C691.751 191.72 691.127 190.984 690.071 190.984C689.031 191 688.231 191.816 688.247 192.936V197.144H686.551V189.512H688.247V190.552C688.727 189.96 689.543 189.528 690.279 189.528C691.719 189.528 693.447 190.472 693.447 192.872V197.144H691.751V192.936Z" fill="#6D0CA6"/>
</svg>
