<svg width="192" height="536" viewBox="0 0 192 536" fill="none" xmlns="http://www.w3.org/2000/svg">
<circle opacity="0.4" cx="96" cy="96" r="95.5" fill="#9735D0" fill-opacity="0.14" stroke="#9735D0"/>
<path d="M42.7759 59.614V60.446H37.9009V63.748H42.1129V64.58H37.9009V68.168H42.7759V69H36.9649V59.614H42.7759ZM48.7662 65.477C48.7662 64.515 48.1682 63.852 47.3102 63.852C46.2962 63.852 45.5942 64.632 45.5942 65.477V69H44.6582V63.007H45.5942V63.904C46.0102 63.371 46.7122 63.007 47.3102 63.007C48.7142 63.007 49.7022 63.995 49.7022 65.399V69H48.7662V65.477ZM51.4862 63.748H56.9722V64.671H51.4862V63.748ZM61.36 68.181C61.919 68.181 62.569 67.908 62.933 67.505L63.622 68.116C63.089 68.675 62.153 69.078 61.412 69.078C59.618 69.078 58.357 67.804 58.357 66.036C58.357 64.268 59.618 63.007 61.412 63.007C62.153 63.007 63.089 63.41 63.622 63.969L62.933 64.58C62.569 64.177 61.919 63.904 61.36 63.904C60.151 63.904 59.293 64.775 59.293 66.036C59.293 67.31 60.151 68.181 61.36 68.181ZM67.393 68.246C68.524 68.246 69.317 67.336 69.317 66.049C69.317 64.762 68.524 63.852 67.393 63.852C66.262 63.852 65.482 64.749 65.482 66.049C65.482 67.349 66.262 68.246 67.393 68.246ZM64.546 66.049C64.546 64.281 65.729 63.007 67.393 63.007C69.07 63.007 70.253 64.281 70.253 66.049C70.253 67.817 69.07 69.091 67.393 69.091C65.729 69.091 64.546 67.817 64.546 66.049ZM71.685 69V63.007H72.621V64.06C73.024 63.384 73.856 62.916 74.714 62.942V63.865C73.609 63.839 72.621 64.788 72.621 65.919V69H71.685ZM78.362 69.065C76.685 69.065 75.502 67.804 75.502 66.036C75.502 64.268 76.685 63.007 78.362 63.007C80.208 63.007 80.767 64.489 80.819 64.645C81.183 65.607 81.053 66.465 81.053 66.465H76.477C76.633 67.492 77.413 68.22 78.362 68.22C79.649 68.22 80.104 67.388 80.182 67.271L80.91 67.687C80.611 68.35 79.766 69.065 78.362 69.065ZM76.477 65.633L80.13 65.62C80.026 64.619 79.558 63.852 78.362 63.852C77.4 63.852 76.633 64.567 76.477 65.633ZM83.4206 58.873L82.6796 61.265H82.0036L82.4066 58.873H83.4206ZM86.0064 67.154C86.3704 67.908 87.1114 68.22 87.5794 68.22C88.3464 68.22 88.9184 67.882 88.9184 67.323C88.9184 66.777 88.1904 66.569 87.4884 66.335C86.6694 66.049 85.5124 65.711 85.5124 64.567C85.5124 63.579 86.4354 62.955 87.6054 62.955C88.2944 62.955 89.4514 63.345 89.7244 64.411L88.8664 64.684C88.6844 63.956 87.9954 63.8 87.6054 63.8C86.9424 63.8 86.4484 64.086 86.4484 64.567C86.4484 65.113 87.1114 65.295 87.8654 65.542C88.7364 65.841 89.8544 66.179 89.8544 67.323C89.8544 68.376 88.8664 69.065 87.5794 69.065C86.6694 69.065 85.7464 68.571 85.2394 67.622L86.0064 67.154ZM97.5526 68.246C98.6966 68.246 99.4896 67.336 99.4896 66.036C99.4896 64.762 98.6966 63.839 97.5526 63.839C96.5126 63.839 95.6286 64.853 95.6286 66.036C95.6286 67.245 96.5126 68.246 97.5526 68.246ZM94.6796 71.782V63.007H95.6156V64.086C96.0446 63.371 96.8896 63.007 97.5656 63.007C99.2426 63.007 100.426 64.268 100.426 66.036C100.426 67.83 99.2426 69.091 97.5656 69.091C96.8766 69.091 96.0446 68.662 95.6156 67.999V71.782H94.6796ZM101.862 69V63.007H102.798V64.06C103.201 63.384 104.033 62.916 104.891 62.942V63.865C103.786 63.839 102.798 64.788 102.798 65.919V69H101.862ZM108.526 68.246C109.657 68.246 110.45 67.336 110.45 66.049C110.45 64.762 109.657 63.852 108.526 63.852C107.395 63.852 106.615 64.749 106.615 66.049C106.615 67.349 107.395 68.246 108.526 68.246ZM105.679 66.049C105.679 64.281 106.862 63.007 108.526 63.007C110.203 63.007 111.386 64.281 111.386 66.049C111.386 67.817 110.203 69.091 108.526 69.091C106.862 69.091 105.679 67.817 105.679 66.049ZM115.834 68.246C116.978 68.246 117.771 67.336 117.771 66.036C117.771 64.762 116.978 63.839 115.834 63.839C114.794 63.839 113.91 64.853 113.91 66.036C113.91 67.245 114.794 68.246 115.834 68.246ZM112.961 71.782V63.007H113.897V64.086C114.326 63.371 115.171 63.007 115.847 63.007C117.524 63.007 118.707 64.268 118.707 66.036C118.707 67.83 117.524 69.091 115.847 69.091C115.158 69.091 114.326 68.662 113.897 67.999V71.782H112.961ZM120.143 69V63.007H121.079V64.06C121.482 63.384 122.314 62.916 123.172 62.942V63.865C122.067 63.839 121.079 64.788 121.079 65.919V69H120.143ZM124.78 63.007H125.716V69H124.78V63.007ZM124.65 60.628C124.65 60.29 124.897 60.043 125.248 60.043C125.586 60.043 125.833 60.29 125.833 60.628C125.833 60.979 125.586 61.226 125.248 61.226C124.897 61.226 124.65 60.979 124.65 60.628ZM130.273 69.065C128.596 69.065 127.413 67.804 127.413 66.036C127.413 64.268 128.596 63.007 130.273 63.007C132.119 63.007 132.678 64.489 132.73 64.645C133.094 65.607 132.964 66.465 132.964 66.465H128.388C128.544 67.492 129.324 68.22 130.273 68.22C131.56 68.22 132.015 67.388 132.093 67.271L132.821 67.687C132.522 68.35 131.677 69.065 130.273 69.065ZM128.388 65.633L132.041 65.62C131.937 64.619 131.469 63.852 130.273 63.852C129.311 63.852 128.544 64.567 128.388 65.633ZM134.939 69V63.839H133.86V63.007H134.939V60.94H135.875V63.007H137.292V63.839H135.875V69H134.939ZM140.937 69.091C139.273 69.091 138.09 67.83 138.09 66.062C138.09 64.294 139.273 63.02 140.937 63.02C141.6 63.02 142.341 63.384 142.874 64.138V63.007H143.81V69H142.874V67.96C142.328 68.779 141.613 69.091 140.937 69.091ZM139.026 66.062C139.026 67.336 139.819 68.246 140.95 68.246C141.964 68.246 142.874 67.336 142.887 66.062C142.874 64.801 141.964 63.865 140.95 63.865C139.819 63.865 139.026 64.775 139.026 66.062ZM145.369 69V63.007H146.305V64.06C146.708 63.384 147.54 62.916 148.398 62.942V63.865C147.293 63.839 146.305 64.788 146.305 65.919V69H145.369ZM151.877 71.795H150.85L152.098 68.727L149.667 63.007H150.694L152.592 67.596L154.399 63.007H155.413L153.151 68.61L151.877 71.795ZM56.8118 90.091C55.1348 90.091 53.9518 88.83 53.9518 87.036C53.9518 85.255 55.1348 83.994 56.8118 83.994C57.5398 83.994 58.2938 84.345 58.7878 85.125V80.874H59.7238V90H58.7878V88.947C58.2808 89.727 57.5398 90.091 56.8118 90.091ZM54.8878 87.036C54.8878 88.336 55.6938 89.246 56.8508 89.246C57.8778 89.246 58.7878 88.258 58.7878 87.036C58.7878 85.84 57.8778 84.839 56.8508 84.839C55.6938 84.839 54.8878 85.749 54.8878 87.036ZM64.0859 90.091C62.4219 90.091 61.2389 88.83 61.2389 87.062C61.2389 85.294 62.4219 84.02 64.0859 84.02C64.7489 84.02 65.4899 84.384 66.0229 85.138V84.007H66.9589V90H66.0229V88.96C65.4769 89.779 64.7619 90.091 64.0859 90.091ZM62.1749 87.062C62.1749 88.336 62.9679 89.246 64.0989 89.246C65.1129 89.246 66.0229 88.336 66.0359 87.062C66.0229 85.801 65.1129 84.865 64.0989 84.865C62.9679 84.865 62.1749 85.775 62.1749 87.062ZM69.2975 90V84.839H68.2185V84.007H69.2975V81.94H70.2335V84.007H71.6505V84.839H70.2335V90H69.2975ZM75.2958 90.091C73.6318 90.091 72.4488 88.83 72.4488 87.062C72.4488 85.294 73.6318 84.02 75.2958 84.02C75.9588 84.02 76.6998 84.384 77.2328 85.138V84.007H78.1688V90H77.2328V88.96C76.6868 89.779 75.9718 90.091 75.2958 90.091ZM73.3848 87.062C73.3848 88.336 74.1778 89.246 75.3088 89.246C76.3228 89.246 77.2328 88.336 77.2458 87.062C77.2328 85.801 76.3228 84.865 75.3088 84.865C74.1778 84.865 73.3848 85.775 73.3848 87.062ZM85.6652 89.181C86.2242 89.181 86.8742 88.908 87.2382 88.505L87.9272 89.116C87.3942 89.675 86.4582 90.078 85.7172 90.078C83.9232 90.078 82.6622 88.804 82.6622 87.036C82.6622 85.268 83.9232 84.007 85.7172 84.007C86.4582 84.007 87.3942 84.41 87.9272 84.969L87.2382 85.58C86.8742 85.177 86.2242 84.904 85.6652 84.904C84.4562 84.904 83.5982 85.775 83.5982 87.036C83.5982 88.31 84.4562 89.181 85.6652 89.181ZM91.6982 89.246C92.8292 89.246 93.6222 88.336 93.6222 87.049C93.6222 85.762 92.8292 84.852 91.6982 84.852C90.5672 84.852 89.7872 85.749 89.7872 87.049C89.7872 88.349 90.5672 89.246 91.6982 89.246ZM88.8512 87.049C88.8512 85.281 90.0342 84.007 91.6982 84.007C93.3752 84.007 94.5582 85.281 94.5582 87.049C94.5582 88.817 93.3752 90.091 91.6982 90.091C90.0342 90.091 88.8512 88.817 88.8512 87.049ZM100.163 86.477C100.163 85.515 99.5652 84.852 98.7072 84.852C97.6932 84.852 96.9912 85.632 96.9912 86.477V90H96.0552V84.007H96.9912V84.904C97.4072 84.371 98.1092 84.007 98.7072 84.007C100.111 84.007 101.099 84.995 101.099 86.399V90H100.163V86.477ZM103.367 88.154C103.731 88.908 104.472 89.22 104.94 89.22C105.707 89.22 106.279 88.882 106.279 88.323C106.279 87.777 105.551 87.569 104.849 87.335C104.03 87.049 102.873 86.711 102.873 85.567C102.873 84.579 103.796 83.955 104.966 83.955C105.655 83.955 106.812 84.345 107.085 85.411L106.227 85.684C106.045 84.956 105.356 84.8 104.966 84.8C104.303 84.8 103.809 85.086 103.809 85.567C103.809 86.113 104.472 86.295 105.226 86.542C106.097 86.841 107.215 87.179 107.215 88.323C107.215 89.376 106.227 90.065 104.94 90.065C104.03 90.065 103.107 89.571 102.6 88.622L103.367 88.154ZM109.915 87.53C109.915 88.505 110.513 89.259 111.371 89.259C112.372 89.259 113.074 88.622 113.074 87.66V84.007H114.023V90H113.074V89.233C112.671 89.74 111.969 90.104 111.371 90.104C109.967 90.104 108.966 89.025 108.966 87.634V84.007H109.915V87.53ZM115.794 80.874H116.73V90H115.794V80.874ZM118.949 90V84.839H117.87V84.007H118.949V81.94H119.885V84.007H121.302V84.839H119.885V90H118.949ZM122.653 84.007H123.589V90H122.653V84.007ZM122.523 81.628C122.523 81.29 122.77 81.043 123.121 81.043C123.459 81.043 123.706 81.29 123.706 81.628C123.706 81.979 123.459 82.226 123.121 82.226C122.77 82.226 122.523 81.979 122.523 81.628ZM129.642 86.477C129.642 85.515 129.044 84.852 128.186 84.852C127.172 84.852 126.47 85.632 126.47 86.477V90H125.534V84.007H126.47V84.904C126.886 84.371 127.588 84.007 128.186 84.007C129.59 84.007 130.578 84.995 130.578 86.399V90H129.642V86.477ZM134.939 89.233C136.005 89.233 136.85 88.245 136.85 87.049C136.85 85.879 135.992 84.852 134.939 84.852C133.808 84.852 133.015 85.775 133.015 87.049C133.015 88.336 133.808 89.233 134.939 89.233ZM132.079 87.049C132.079 85.294 133.262 84.007 134.926 84.007C135.745 84.007 136.46 84.436 136.85 85.099V84.007H137.786V89.649C137.786 91.404 136.629 92.769 134.861 92.769C133.899 92.769 133.028 92.327 132.417 91.391L133.197 90.923C133.613 91.612 134.198 91.924 134.861 91.924C136.096 91.924 136.85 90.923 136.85 89.636V88.947C136.421 89.61 135.641 90.078 134.926 90.078C133.262 90.078 132.079 88.817 132.079 87.049ZM42.1029 111.117H40.7249V106.112H39.6329V104.89H40.7249V103.59C40.7249 102.446 41.5179 101.575 42.6619 101.497C43.1949 101.458 43.8579 101.666 44.1699 101.978L43.4679 102.992C43.1819 102.745 42.9999 102.693 42.7789 102.719C42.3759 102.758 42.1029 103.096 42.1029 103.59V104.89H43.8449V106.112H42.1029V111.117ZM45.5442 111.117V104.916H46.9222V105.826C47.3382 105.241 48.0922 104.851 48.8202 104.89V106.164C47.7152 106.112 46.9222 107.087 46.9222 108.036V111.117H45.5442ZM52.4642 111.169C50.7482 111.169 49.5262 109.869 49.5262 108.049C49.5262 106.229 50.7482 104.929 52.4642 104.929C53.0752 104.929 53.7512 105.215 54.2452 105.8V104.916H55.6232V111.117H54.2452V110.285C53.7512 110.909 53.0752 111.169 52.4642 111.169ZM50.9042 108.049C50.9042 109.219 51.5672 109.999 52.5552 109.999C53.4652 109.999 54.2452 109.18 54.2582 108.049C54.2452 106.918 53.4652 106.099 52.5552 106.099C51.5672 106.099 50.9042 106.866 50.9042 108.049ZM65.1922 107.594C65.1922 106.71 64.7112 106.125 64.0092 106.125C63.2162 106.125 62.6832 106.736 62.6832 107.529V111.117H61.2922V107.594C61.2922 106.71 60.8242 106.125 60.1352 106.125C59.3422 106.125 58.7832 106.801 58.7832 107.672V111.117H57.4052V104.916H58.7832V105.761C59.1472 105.267 59.6802 104.929 60.2652 104.929C61.0062 104.929 61.7342 105.397 62.0982 106.047C62.5272 105.397 63.3592 104.929 64.1002 104.929C65.5692 104.929 66.5832 106.021 66.5832 107.542V111.117H65.1922V107.594ZM71.0895 111.143C69.3345 111.143 68.0995 109.856 68.0995 108.036C68.0995 106.203 69.3345 104.916 71.0895 104.916C73.0135 104.916 73.6245 106.489 73.6635 106.593C74.0405 107.477 73.9235 108.465 73.9235 108.569H69.4515C69.6075 109.401 70.3095 109.973 71.0895 109.973C72.1165 109.973 72.5325 109.375 72.6365 109.193L73.7415 109.687C73.4425 110.389 72.5715 111.143 71.0895 111.143ZM69.4515 107.477H72.6235C72.4935 106.71 72.0515 106.086 71.0895 106.086C70.2575 106.086 69.6075 106.671 69.4515 107.477ZM83.2049 104.916L81.3849 111.117H80.1109L78.8889 107.113L77.6929 111.117H76.4189L74.5599 104.916H75.9899L77.0689 108.881L78.1869 104.916H79.5649L80.7219 108.881L81.7749 104.916H83.2049ZM86.692 109.986C87.654 109.986 88.304 109.219 88.304 108.036C88.304 106.866 87.654 106.086 86.692 106.086C85.73 106.086 85.08 106.853 85.08 108.036C85.08 109.219 85.717 109.986 86.692 109.986ZM83.702 108.036C83.702 106.203 84.937 104.903 86.692 104.903C88.447 104.903 89.682 106.203 89.682 108.036C89.682 109.856 88.447 111.169 86.692 111.169C84.937 111.169 83.702 109.856 83.702 108.036ZM91.0188 111.117V104.916H92.3968V105.826C92.8128 105.241 93.5668 104.851 94.2948 104.89V106.164C93.1898 106.112 92.3968 107.087 92.3968 108.036V111.117H91.0188ZM97.2113 101.822V107.477L99.4213 104.916H101.28L98.8623 107.685L101.228 111.117H99.5513L97.8743 108.712L97.2113 109.492V111.117H95.8333V101.822H97.2113ZM106.239 106.307C106.239 104.617 106.902 102.394 107.838 100.912H109.294C108.228 102.381 107.487 104.604 107.487 106.307C107.487 108.01 108.228 110.233 109.294 111.702H107.838C106.902 110.22 106.239 107.997 106.239 106.307ZM117.241 101.51V102.719H112.418V105.566H116.565V106.762H112.418V109.895H117.241V111.104H111.04V101.51H117.241ZM121.949 109.895C124.003 109.895 125.381 108.452 125.381 106.307C125.381 104.162 124.003 102.719 121.949 102.719L120.584 102.732V109.882L121.949 109.895ZM119.206 111.104V101.51H121.962C124.77 101.51 126.746 103.486 126.746 106.307C126.746 109.128 124.77 111.104 121.962 111.104H119.206ZM134.379 101.51V102.719H129.686V105.696H133.664V106.892H129.686V111.104H128.308V101.51H134.379ZM138.785 106.307C138.785 107.997 138.135 110.207 137.199 111.702H135.743C136.796 110.246 137.537 108.01 137.537 106.307C137.537 104.604 136.796 102.368 135.743 100.912H137.199C138.135 102.407 138.785 104.617 138.785 106.307ZM144.203 104.903H145.581V111.104H144.203V104.903ZM144.112 102.589C144.112 102.134 144.437 101.809 144.892 101.809C145.347 101.809 145.672 102.134 145.672 102.589C145.672 103.044 145.347 103.369 144.892 103.369C144.437 103.369 144.112 103.044 144.112 102.589ZM148.36 108.985C148.633 109.661 149.309 109.973 149.725 109.973C150.375 109.973 150.791 109.726 150.791 109.297C150.791 108.907 150.219 108.725 149.582 108.504C148.737 108.205 147.541 107.802 147.541 106.606C147.541 105.514 148.542 104.851 149.816 104.851C150.583 104.851 151.727 105.293 152.039 106.411L150.882 106.827C150.674 106.138 150.115 106.034 149.816 106.034C149.27 106.034 148.919 106.255 148.919 106.606C148.919 106.996 149.452 107.152 150.115 107.386C150.999 107.698 152.169 108.101 152.169 109.284C152.169 110.415 151.168 111.156 149.725 111.156C148.776 111.156 147.736 110.558 147.281 109.609L148.36 108.985ZM77.5882 132.169C75.8722 132.169 74.6502 130.869 74.6502 129.049C74.6502 127.229 75.8722 125.929 77.5882 125.929C78.1992 125.929 78.8752 126.215 79.3692 126.8V125.916H80.7472V132.117H79.3692V131.285C78.8752 131.909 78.1992 132.169 77.5882 132.169ZM76.0282 129.049C76.0282 130.219 76.6912 130.999 77.6792 130.999C78.5892 130.999 79.3692 130.18 79.3822 129.049C79.3692 127.918 78.5892 127.099 77.6792 127.099C76.6912 127.099 76.0282 127.866 76.0282 129.049ZM85.6103 130.986C86.6113 130.986 87.2613 130.206 87.2613 129.023C87.2613 127.84 86.6113 127.06 85.6103 127.06C84.6743 127.06 83.9073 127.931 83.9073 129.023C83.9073 130.115 84.6743 130.986 85.6103 130.986ZM82.5163 134.86V125.903H83.8943V126.813C84.3883 126.163 85.2073 125.903 85.6883 125.903C87.4173 125.903 88.6393 127.19 88.6393 129.023C88.6393 130.869 87.4173 132.156 85.6883 132.156C85.1943 132.156 84.3883 131.883 83.8943 131.233V134.86H82.5163ZM93.2021 130.986C94.2031 130.986 94.8531 130.206 94.8531 129.023C94.8531 127.84 94.2031 127.06 93.2021 127.06C92.2661 127.06 91.4991 127.931 91.4991 129.023C91.4991 130.115 92.2661 130.986 93.2021 130.986ZM90.1081 134.86V125.903H91.4861V126.813C91.9801 126.163 92.7991 125.903 93.2801 125.903C95.0091 125.903 96.2311 127.19 96.2311 129.023C96.2311 130.869 95.0091 132.156 93.2801 132.156C92.7861 132.156 91.9801 131.883 91.4861 131.233V134.86H90.1081ZM97.5179 122.822H98.8959V132.104H97.5179V122.822ZM100.798 125.903H102.176V132.104H100.798V125.903ZM100.707 123.589C100.707 123.134 101.032 122.809 101.487 122.809C101.942 122.809 102.267 123.134 102.267 123.589C102.267 124.044 101.942 124.369 101.487 124.369C101.032 124.369 100.707 124.044 100.707 123.589ZM106.839 132.143C105.084 132.143 103.849 130.856 103.849 129.036C103.849 127.203 105.084 125.916 106.839 125.916C108.763 125.916 109.374 127.489 109.413 127.593C109.79 128.477 109.673 129.465 109.673 129.569H105.201C105.357 130.401 106.059 130.973 106.839 130.973C107.866 130.973 108.282 130.375 108.386 130.193L109.491 130.687C109.192 131.389 108.321 132.143 106.839 132.143ZM105.201 128.477H108.373C108.243 127.71 107.801 127.086 106.839 127.086C106.007 127.086 105.357 127.671 105.201 128.477ZM113.897 132.169C112.181 132.169 110.946 130.869 110.946 129.036C110.946 127.203 112.181 125.903 113.897 125.903C114.404 125.903 115.171 126.124 115.704 126.826V122.822H117.082V132.117H115.704V131.246C115.158 131.909 114.404 132.169 113.897 132.169ZM112.324 129.049C112.324 130.232 112.987 131.012 113.988 131.012C114.924 131.012 115.704 130.154 115.704 129.049C115.704 127.957 114.924 127.086 113.988 127.086C112.987 127.086 112.324 127.866 112.324 129.049Z" fill="#6D0CA6"/>
<circle opacity="0.4" cx="96" cy="268" r="95.5" fill="#9735D0" fill-opacity="0.14" stroke="#9735D0"/>
<path d="M54.4071 221.51L57.9691 231.104H56.5001L55.5381 228.491H51.5991L50.5981 231.104H49.1291L52.7561 221.51H54.4071ZM52.0411 227.295H55.0831L53.5881 223.252L52.0411 227.295ZM59.1082 221.822H60.4862V231.104H59.1082V221.822ZM62.1804 221.822H63.5584V231.104H62.1804V221.822ZM65.2527 225.527H70.9207V226.905H65.2527V225.527ZM72.824 224.903H74.202V231.104H72.824V224.903ZM72.733 222.589C72.733 222.134 73.058 221.809 73.513 221.809C73.968 221.809 74.293 222.134 74.293 222.589C74.293 223.044 73.968 223.369 73.513 223.369C73.058 223.369 72.733 223.044 72.733 222.589ZM80.3473 227.698C80.3473 226.71 79.8403 226.112 78.9823 226.112C78.1373 226.125 77.4873 226.788 77.5003 227.698V231.117H76.1223V224.916H77.5003V225.761C77.8903 225.28 78.5533 224.929 79.1513 224.929C80.3213 224.929 81.7253 225.696 81.7253 227.646V231.117H80.3473V227.698ZM83.3943 225.527H89.0623V226.905H83.3943V225.527ZM93.6046 229.986C94.5666 229.986 95.2166 229.219 95.2166 228.036C95.2166 226.866 94.5666 226.086 93.6046 226.086C92.6426 226.086 91.9926 226.853 91.9926 228.036C91.9926 229.219 92.6296 229.986 93.6046 229.986ZM90.6146 228.036C90.6146 226.203 91.8496 224.903 93.6046 224.903C95.3596 224.903 96.5946 226.203 96.5946 228.036C96.5946 229.856 95.3596 231.169 93.6046 231.169C91.8496 231.169 90.6146 229.856 90.6146 228.036ZM102.221 227.698C102.221 226.71 101.714 226.112 100.856 226.112C100.011 226.125 99.3614 226.788 99.3744 227.698V231.117H97.9964V224.916H99.3744V225.761C99.7644 225.28 100.427 224.929 101.025 224.929C102.195 224.929 103.599 225.696 103.599 227.646V231.117H102.221V227.698ZM107.988 231.143C106.233 231.143 104.998 229.856 104.998 228.036C104.998 226.203 106.233 224.916 107.988 224.916C109.912 224.916 110.523 226.489 110.562 226.593C110.939 227.477 110.822 228.465 110.822 228.569H106.35C106.506 229.401 107.208 229.973 107.988 229.973C109.015 229.973 109.431 229.375 109.535 229.193L110.64 229.687C110.341 230.389 109.47 231.143 107.988 231.143ZM106.35 227.477H109.522C109.392 226.71 108.95 226.086 107.988 226.086C107.156 226.086 106.506 226.671 106.35 227.477ZM118.388 229.895C120.442 229.895 121.82 228.452 121.82 226.307C121.82 224.162 120.442 222.719 118.388 222.719L117.023 222.732V229.882L118.388 229.895ZM115.645 231.104V221.51H118.401C121.209 221.51 123.185 223.486 123.185 226.307C123.185 229.128 121.209 231.104 118.401 231.104H115.645ZM127.246 231.169C125.53 231.169 124.308 229.869 124.308 228.049C124.308 226.229 125.53 224.929 127.246 224.929C127.857 224.929 128.533 225.215 129.027 225.8V224.916H130.405V231.117H129.027V230.285C128.533 230.909 127.857 231.169 127.246 231.169ZM125.686 228.049C125.686 229.219 126.349 229.999 127.337 229.999C128.247 229.999 129.027 229.18 129.04 228.049C129.027 226.918 128.247 226.099 127.337 226.099C126.349 226.099 125.686 226.866 125.686 228.049ZM132.812 231.117V226.099H131.642V224.903H132.812V222.732H134.19V224.903H135.659V226.099H134.19V231.117H132.812ZM139.573 231.169C137.857 231.169 136.635 229.869 136.635 228.049C136.635 226.229 137.857 224.929 139.573 224.929C140.184 224.929 140.86 225.215 141.354 225.8V224.916H142.732V231.117H141.354V230.285C140.86 230.909 140.184 231.169 139.573 231.169ZM138.013 228.049C138.013 229.219 138.676 229.999 139.664 229.999C140.574 229.999 141.354 229.18 141.367 228.049C141.354 226.918 140.574 226.099 139.664 226.099C138.676 226.099 138.013 226.866 138.013 228.049ZM73.0263 247.294C74.0663 247.294 74.7943 246.553 74.7943 245.5C74.7943 244.46 74.0533 243.719 73.0133 243.719H70.9073V247.294H73.0263ZM69.5293 252.104V242.51H73.0653C74.8853 242.51 76.1593 243.745 76.1593 245.5C76.1593 247.255 74.8853 248.49 73.0653 248.49H70.9073V252.104H69.5293ZM77.3196 242.822H78.6976V252.104H77.3196V242.822ZM82.933 252.169C81.217 252.169 79.995 250.869 79.995 249.049C79.995 247.229 81.217 245.929 82.933 245.929C83.544 245.929 84.22 246.215 84.714 246.8V245.916H86.092V252.117H84.714V251.285C84.22 251.909 83.544 252.169 82.933 252.169ZM81.373 249.049C81.373 250.219 82.036 250.999 83.024 250.999C83.934 250.999 84.714 250.18 84.727 249.049C84.714 247.918 83.934 247.099 83.024 247.099C82.036 247.099 81.373 247.866 81.373 249.049ZM88.4995 252.117V247.099H87.3295V245.903H88.4995V243.732H89.8775V245.903H91.3465V247.099H89.8775V252.117H88.4995ZM94.8646 252.117H93.4866V247.112H92.3946V245.89H93.4866V244.59C93.4866 243.446 94.2796 242.575 95.4236 242.497C95.9566 242.458 96.6196 242.666 96.9316 242.978L96.2296 243.992C95.9436 243.745 95.7616 243.693 95.5406 243.719C95.1376 243.758 94.8646 244.096 94.8646 244.59V245.89H96.6066V247.112H94.8646V252.117ZM100.39 250.986C101.352 250.986 102.002 250.219 102.002 249.036C102.002 247.866 101.352 247.086 100.39 247.086C99.4282 247.086 98.7782 247.853 98.7782 249.036C98.7782 250.219 99.4152 250.986 100.39 250.986ZM97.4002 249.036C97.4002 247.203 98.6352 245.903 100.39 245.903C102.145 245.903 103.38 247.203 103.38 249.036C103.38 250.856 102.145 252.169 100.39 252.169C98.6352 252.169 97.4002 250.856 97.4002 249.036ZM104.717 252.117V245.916H106.095V246.826C106.511 246.241 107.265 245.851 107.993 245.89V247.164C106.888 247.112 106.095 248.087 106.095 249.036V252.117H104.717ZM117.345 248.594C117.345 247.71 116.864 247.125 116.162 247.125C115.369 247.125 114.836 247.736 114.836 248.529V252.117H113.445V248.594C113.445 247.71 112.977 247.125 112.288 247.125C111.495 247.125 110.936 247.801 110.936 248.672V252.117H109.558V245.916H110.936V246.761C111.3 246.267 111.833 245.929 112.418 245.929C113.159 245.929 113.887 246.397 114.251 247.047C114.68 246.397 115.512 245.929 116.253 245.929C117.722 245.929 118.736 247.021 118.736 248.542V252.117H117.345V248.594ZM122.043 250.804L121.159 253.794H120.132L120.626 250.804H122.043ZM61.5315 267.007H62.4675V273H61.5315V267.007ZM61.4015 264.628C61.4015 264.29 61.6485 264.043 61.9995 264.043C62.3375 264.043 62.5845 264.29 62.5845 264.628C62.5845 264.979 62.3375 265.226 61.9995 265.226C61.6485 265.226 61.4015 264.979 61.4015 264.628ZM68.5201 269.477C68.5201 268.515 67.9221 267.852 67.0641 267.852C66.0501 267.852 65.3481 268.632 65.3481 269.477V273H64.4121V267.007H65.3481V267.904C65.7641 267.371 66.4661 267.007 67.0641 267.007C68.4681 267.007 69.4561 267.995 69.4561 269.399V273H68.5201V269.477ZM71.6525 273V267.839H70.5735V267.007H71.6525V264.94H72.5885V267.007H74.0055V267.839H72.5885V273H71.6525ZM77.6638 273.065C75.9868 273.065 74.8038 271.804 74.8038 270.036C74.8038 268.268 75.9868 267.007 77.6638 267.007C79.5098 267.007 80.0688 268.489 80.1208 268.645C80.4848 269.607 80.3548 270.465 80.3548 270.465H75.7788C75.9348 271.492 76.7148 272.22 77.6638 272.22C78.9508 272.22 79.4058 271.388 79.4838 271.271L80.2118 271.687C79.9128 272.35 79.0678 273.065 77.6638 273.065ZM75.7788 269.633L79.4318 269.62C79.3278 268.619 78.8598 267.852 77.6638 267.852C76.7018 267.852 75.9348 268.567 75.7788 269.633ZM84.4939 272.233C85.5599 272.233 86.4049 271.245 86.4049 270.049C86.4049 268.879 85.5469 267.852 84.4939 267.852C83.3629 267.852 82.5699 268.775 82.5699 270.049C82.5699 271.336 83.3629 272.233 84.4939 272.233ZM81.6339 270.049C81.6339 268.294 82.8169 267.007 84.4809 267.007C85.2999 267.007 86.0149 267.436 86.4049 268.099V267.007H87.3409V272.649C87.3409 274.404 86.1839 275.769 84.4159 275.769C83.4539 275.769 82.5829 275.327 81.9719 274.391L82.7519 273.923C83.1679 274.612 83.7529 274.924 84.4159 274.924C85.6509 274.924 86.4049 273.923 86.4049 272.636V271.947C85.9759 272.61 85.1959 273.078 84.4809 273.078C82.8169 273.078 81.6339 271.817 81.6339 270.049ZM89.1665 273V267.007H90.1025V268.06C90.5055 267.384 91.3375 266.916 92.1955 266.942V267.865C91.0905 267.839 90.1025 268.788 90.1025 269.919V273H89.1665ZM95.8305 273.091C94.1665 273.091 92.9835 271.83 92.9835 270.062C92.9835 268.294 94.1665 267.02 95.8305 267.02C96.4935 267.02 97.2345 267.384 97.7675 268.138V267.007H98.7035V273H97.7675V271.96C97.2215 272.779 96.5065 273.091 95.8305 273.091ZM93.9195 270.062C93.9195 271.336 94.7125 272.246 95.8435 272.246C96.8575 272.246 97.7675 271.336 97.7805 270.062C97.7675 268.801 96.8575 267.865 95.8435 267.865C94.7125 267.865 93.9195 268.775 93.9195 270.062ZM101.042 273V267.839H99.9632V267.007H101.042V264.94H101.978V267.007H103.395V267.839H101.978V273H101.042ZM104.746 267.007H105.682V273H104.746V267.007ZM104.616 264.628C104.616 264.29 104.863 264.043 105.214 264.043C105.552 264.043 105.799 264.29 105.799 264.628C105.799 264.979 105.552 265.226 105.214 265.226C104.863 265.226 104.616 264.979 104.616 264.628ZM111.735 269.477C111.735 268.515 111.137 267.852 110.279 267.852C109.265 267.852 108.563 268.632 108.563 269.477V273H107.627V267.007H108.563V267.904C108.979 267.371 109.681 267.007 110.279 267.007C111.683 267.007 112.671 267.995 112.671 269.399V273H111.735V269.477ZM117.032 272.233C118.098 272.233 118.943 271.245 118.943 270.049C118.943 268.879 118.085 267.852 117.032 267.852C115.901 267.852 115.108 268.775 115.108 270.049C115.108 271.336 115.901 272.233 117.032 272.233ZM114.172 270.049C114.172 268.294 115.355 267.007 117.019 267.007C117.838 267.007 118.553 267.436 118.943 268.099V267.007H119.879V272.649C119.879 274.404 118.722 275.769 116.954 275.769C115.992 275.769 115.121 275.327 114.51 274.391L115.29 273.923C115.706 274.612 116.291 274.924 116.954 274.924C118.189 274.924 118.943 273.923 118.943 272.636V271.947C118.514 272.61 117.734 273.078 117.019 273.078C115.355 273.078 114.172 271.817 114.172 270.049ZM127.727 264.342C126.44 264.342 125.543 265.265 125.543 266.591C125.543 267.917 126.44 268.853 127.727 268.853C128.975 268.853 129.859 267.917 129.859 266.591C129.859 265.265 128.975 264.342 127.727 264.342ZM124.607 266.591C124.607 264.784 125.881 263.51 127.701 263.51C129.521 263.51 130.795 264.784 130.795 266.591C130.795 267.254 130.587 267.852 130.314 268.333L127.649 273H126.57L128.533 269.594C128.273 269.646 127.987 269.685 127.701 269.685C125.881 269.685 124.607 268.411 124.607 266.591ZM48.8281 292.154C49.1921 292.908 49.9331 293.22 50.4011 293.22C51.1681 293.22 51.7401 292.882 51.7401 292.323C51.7401 291.777 51.0121 291.569 50.3101 291.335C49.4911 291.049 48.3341 290.711 48.3341 289.567C48.3341 288.579 49.2571 287.955 50.4271 287.955C51.1161 287.955 52.2731 288.345 52.5461 289.411L51.6881 289.684C51.5061 288.956 50.8171 288.8 50.4271 288.8C49.7641 288.8 49.2701 289.086 49.2701 289.567C49.2701 290.113 49.9331 290.295 50.6871 290.542C51.5581 290.841 52.6761 291.179 52.6761 292.323C52.6761 293.376 51.6881 294.065 50.4011 294.065C49.4911 294.065 48.5681 293.571 48.0611 292.622L48.8281 292.154ZM56.9003 293.246C58.0313 293.246 58.8243 292.336 58.8243 291.049C58.8243 289.762 58.0313 288.852 56.9003 288.852C55.7693 288.852 54.9893 289.749 54.9893 291.049C54.9893 292.349 55.7693 293.246 56.9003 293.246ZM54.0533 291.049C54.0533 289.281 55.2363 288.007 56.9003 288.007C58.5773 288.007 59.7603 289.281 59.7603 291.049C59.7603 292.817 58.5773 294.091 56.9003 294.091C55.2363 294.091 54.0533 292.817 54.0533 291.049ZM61.1533 284.874H62.0893V294H61.1533V284.874ZM64.9358 291.53C64.9358 292.505 65.5338 293.259 66.3918 293.259C67.3928 293.259 68.0948 292.622 68.0948 291.66V288.007H69.0438V294H68.0948V293.233C67.6918 293.74 66.9898 294.104 66.3918 294.104C64.9878 294.104 63.9868 293.025 63.9868 291.634V288.007H64.9358V291.53ZM71.6335 294V288.839H70.5545V288.007H71.6335V285.94H72.5695V288.007H73.9865V288.839H72.5695V294H71.6335ZM75.3377 288.007H76.2737V294H75.3377V288.007ZM75.2077 285.628C75.2077 285.29 75.4547 285.043 75.8057 285.043C76.1437 285.043 76.3907 285.29 76.3907 285.628C76.3907 285.979 76.1437 286.226 75.8057 286.226C75.4547 286.226 75.2077 285.979 75.2077 285.628ZM80.8183 293.246C81.9493 293.246 82.7423 292.336 82.7423 291.049C82.7423 289.762 81.9493 288.852 80.8183 288.852C79.6873 288.852 78.9073 289.749 78.9073 291.049C78.9073 292.349 79.6873 293.246 80.8183 293.246ZM77.9713 291.049C77.9713 289.281 79.1543 288.007 80.8183 288.007C82.4953 288.007 83.6783 289.281 83.6783 291.049C83.6783 292.817 82.4953 294.091 80.8183 294.091C79.1543 294.091 77.9713 292.817 77.9713 291.049ZM89.2833 290.477C89.2833 289.515 88.6853 288.852 87.8273 288.852C86.8133 288.852 86.1113 289.632 86.1113 290.477V294H85.1753V288.007H86.1113V288.904C86.5273 288.371 87.2293 288.007 87.8273 288.007C89.2313 288.007 90.2193 288.995 90.2193 290.399V294H89.2833V290.477ZM92.4873 292.154C92.8513 292.908 93.5923 293.22 94.0603 293.22C94.8273 293.22 95.3993 292.882 95.3993 292.323C95.3993 291.777 94.6713 291.569 93.9693 291.335C93.1503 291.049 91.9933 290.711 91.9933 289.567C91.9933 288.579 92.9163 287.955 94.0863 287.955C94.7753 287.955 95.9323 288.345 96.2053 289.411L95.3473 289.684C95.1653 288.956 94.4763 288.8 94.0863 288.8C93.4233 288.8 92.9293 289.086 92.9293 289.567C92.9293 290.113 93.5923 290.295 94.3463 290.542C95.2173 290.841 96.3353 291.179 96.3353 292.323C96.3353 293.376 95.3473 294.065 94.0603 294.065C93.1503 294.065 92.2273 293.571 91.7203 292.622L92.4873 292.154ZM101.135 288.007H102.071V294H101.135V288.007ZM101.005 285.628C101.005 285.29 101.252 285.043 101.603 285.043C101.941 285.043 102.188 285.29 102.188 285.628C102.188 285.979 101.941 286.226 101.603 286.226C101.252 286.226 101.005 285.979 101.005 285.628ZM108.123 290.477C108.123 289.515 107.525 288.852 106.667 288.852C105.653 288.852 104.951 289.632 104.951 290.477V294H104.015V288.007H104.951V288.904C105.367 288.371 106.069 288.007 106.667 288.007C108.071 288.007 109.059 288.995 109.059 290.399V294H108.123V290.477ZM111.256 294V288.839H110.177V288.007H111.256V285.94H112.192V288.007H113.609V288.839H112.192V294H111.256ZM117.254 293.246C118.385 293.246 119.178 292.336 119.178 291.049C119.178 289.762 118.385 288.852 117.254 288.852C116.123 288.852 115.343 289.749 115.343 291.049C115.343 292.349 116.123 293.246 117.254 293.246ZM114.407 291.049C114.407 289.281 115.59 288.007 117.254 288.007C118.931 288.007 120.114 289.281 120.114 291.049C120.114 292.817 118.931 294.091 117.254 294.091C115.59 294.091 114.407 292.817 114.407 291.049ZM127.461 293.246C128.592 293.246 129.385 292.336 129.385 291.049C129.385 289.762 128.592 288.852 127.461 288.852C126.33 288.852 125.55 289.749 125.55 291.049C125.55 292.349 126.33 293.246 127.461 293.246ZM124.614 291.049C124.614 289.281 125.797 288.007 127.461 288.007C129.138 288.007 130.321 289.281 130.321 291.049C130.321 292.817 129.138 294.091 127.461 294.091C125.797 294.091 124.614 292.817 124.614 291.049ZM135.926 290.477C135.926 289.515 135.328 288.852 134.47 288.852C133.456 288.852 132.754 289.632 132.754 290.477V294H131.818V288.007H132.754V288.904C133.17 288.371 133.872 288.007 134.47 288.007C135.874 288.007 136.862 288.995 136.862 290.399V294H135.926V290.477ZM141.223 294.065C139.546 294.065 138.363 292.804 138.363 291.036C138.363 289.268 139.546 288.007 141.223 288.007C143.069 288.007 143.628 289.489 143.68 289.645C144.044 290.607 143.914 291.465 143.914 291.465H139.338C139.494 292.492 140.274 293.22 141.223 293.22C142.51 293.22 142.965 292.388 143.043 292.271L143.771 292.687C143.472 293.35 142.627 294.065 141.223 294.065ZM139.338 290.633L142.991 290.62C142.887 289.619 142.419 288.852 141.223 288.852C140.261 288.852 139.494 289.567 139.338 290.633ZM75.9769 314.246C77.1209 314.246 77.9139 313.336 77.9139 312.036C77.9139 310.762 77.1209 309.839 75.9769 309.839C74.9369 309.839 74.0529 310.853 74.0529 312.036C74.0529 313.245 74.9369 314.246 75.9769 314.246ZM73.1039 317.782V309.007H74.0399V310.086C74.4689 309.371 75.3139 309.007 75.9899 309.007C77.6669 309.007 78.8499 310.268 78.8499 312.036C78.8499 313.83 77.6669 315.091 75.9899 315.091C75.3009 315.091 74.4689 314.662 74.0399 313.999V317.782H73.1039ZM80.2471 305.874H81.1831V315H80.2471V305.874ZM85.4267 315.091C83.7627 315.091 82.5797 313.83 82.5797 312.062C82.5797 310.294 83.7627 309.02 85.4267 309.02C86.0897 309.02 86.8307 309.384 87.3637 310.138V309.007H88.2997V315H87.3637V313.96C86.8177 314.779 86.1027 315.091 85.4267 315.091ZM83.5157 312.062C83.5157 313.336 84.3087 314.246 85.4397 314.246C86.4537 314.246 87.3637 313.336 87.3767 312.062C87.3637 310.801 86.4537 309.865 85.4397 309.865C84.3087 309.865 83.5157 310.775 83.5157 312.062ZM90.6384 315V309.839H89.5594V309.007H90.6384V306.94H91.5744V309.007H92.9914V309.839H91.5744V315H90.6384ZM96.0032 315H95.0672V309.839H94.0012V309.007H95.0672V307.421C95.0672 306.394 95.8082 305.64 96.8612 305.64C97.3292 305.64 97.7712 305.848 98.0832 306.134L97.4722 306.784C97.2772 306.589 97.1082 306.485 96.8612 306.485C96.3542 306.485 96.0032 306.875 96.0032 307.421V309.007H97.7062V309.839H96.0032V315ZM101.486 314.246C102.617 314.246 103.41 313.336 103.41 312.049C103.41 310.762 102.617 309.852 101.486 309.852C100.355 309.852 99.5753 310.749 99.5753 312.049C99.5753 313.349 100.355 314.246 101.486 314.246ZM98.6393 312.049C98.6393 310.281 99.8223 309.007 101.486 309.007C103.163 309.007 104.346 310.281 104.346 312.049C104.346 313.817 103.163 315.091 101.486 315.091C99.8223 315.091 98.6393 313.817 98.6393 312.049ZM105.778 315V309.007H106.714V310.06C107.117 309.384 107.949 308.916 108.807 308.942V309.865C107.702 309.839 106.714 310.788 106.714 311.919V315H105.778ZM118.059 311.334C118.059 310.463 117.513 309.852 116.733 309.852C115.823 309.852 115.186 310.411 115.186 311.217V315H114.25V311.334C114.25 310.463 113.717 309.852 112.95 309.852C112.027 309.852 111.39 310.619 111.39 311.477V315H110.454V309.007H111.39V309.891C111.754 309.371 112.378 309.007 112.95 309.007C113.704 309.007 114.458 309.462 114.796 310.125C115.186 309.462 115.966 309.007 116.733 309.007C118.046 309.007 118.995 309.93 118.995 311.243V315H118.059V311.334Z" fill="#6D0CA6"/>
<circle opacity="0.4" cx="96" cy="440" r="95.5" fill="#9735D0" fill-opacity="0.14" stroke="#9735D0"/>
<path d="M18.5341 415.091C16.3371 415.091 15.0631 413.544 15.0631 411.347V405.614H15.9991V411.36C15.9991 413.063 16.8961 414.259 18.5341 414.259C20.1721 414.259 21.0691 413.063 21.0691 411.36V405.614H22.0051V411.347C22.0051 413.544 20.7311 415.091 18.5341 415.091ZM24.8259 415V409.839H23.7469V409.007H24.8259V406.94H25.7619V409.007H27.1789V409.839H25.7619V415H24.8259ZM28.5301 409.007H29.4661V415H28.5301V409.007ZM28.4001 406.628C28.4001 406.29 28.6471 406.043 28.9981 406.043C29.3361 406.043 29.5831 406.29 29.5831 406.628C29.5831 406.979 29.3361 407.226 28.9981 407.226C28.6471 407.226 28.4001 406.979 28.4001 406.628ZM31.3067 405.874H32.2427V415H31.3067V405.874ZM34.1922 409.007H35.1282V415H34.1922V409.007ZM34.0622 406.628C34.0622 406.29 34.3092 406.043 34.6602 406.043C34.9982 406.043 35.2452 406.29 35.2452 406.628C35.2452 406.979 34.9982 407.226 34.6602 407.226C34.3092 407.226 34.0622 406.979 34.0622 406.628ZM41.2198 409.007V409.904L37.9308 414.155H41.2198V415H36.7998V414.103L40.0888 409.852H36.7998V409.007H41.2198ZM45.3098 415.065C43.6328 415.065 42.4498 413.804 42.4498 412.036C42.4498 410.268 43.6328 409.007 45.3098 409.007C47.1558 409.007 47.7148 410.489 47.7668 410.645C48.1308 411.607 48.0008 412.465 48.0008 412.465H43.4248C43.5808 413.492 44.3608 414.22 45.3098 414.22C46.5968 414.22 47.0518 413.388 47.1298 413.271L47.8578 413.687C47.5588 414.35 46.7138 415.065 45.3098 415.065ZM43.4248 411.633L47.0778 411.62C46.9738 410.619 46.5058 409.852 45.3098 409.852C44.3478 409.852 43.5808 410.567 43.4248 411.633ZM52.1399 415.091C50.4629 415.091 49.2799 413.83 49.2799 412.036C49.2799 410.255 50.4629 408.994 52.1399 408.994C52.8679 408.994 53.6219 409.345 54.1159 410.125V405.874H55.0519V415H54.1159V413.947C53.6089 414.727 52.8679 415.091 52.1399 415.091ZM50.2159 412.036C50.2159 413.336 51.0219 414.246 52.1789 414.246C53.2059 414.246 54.1159 413.258 54.1159 412.036C54.1159 410.84 53.2059 409.839 52.1789 409.839C51.0219 409.839 50.2159 410.749 50.2159 412.036ZM60.779 415V409.839H59.7V409.007H60.779V406.94H61.715V409.007H63.132V409.839H61.715V415H60.779ZM66.7773 414.246C67.9083 414.246 68.7013 413.336 68.7013 412.049C68.7013 410.762 67.9083 409.852 66.7773 409.852C65.6463 409.852 64.8663 410.749 64.8663 412.049C64.8663 413.349 65.6463 414.246 66.7773 414.246ZM63.9303 412.049C63.9303 410.281 65.1133 409.007 66.7773 409.007C68.4543 409.007 69.6373 410.281 69.6373 412.049C69.6373 413.817 68.4543 415.091 66.7773 415.091C65.1133 415.091 63.9303 413.817 63.9303 412.049ZM77.2833 415.117C76.6593 415.117 75.8793 414.844 75.3333 413.999V415.026H74.3973V405.874H75.3333V410.138C75.8793 409.306 76.6593 409.033 77.2963 409.033C78.9733 409.033 80.1693 410.294 80.1693 412.062C80.1693 413.856 78.9733 415.117 77.2833 415.117ZM75.3333 412.062C75.3333 413.284 76.2173 414.272 77.2703 414.272C78.4273 414.272 79.2333 413.362 79.2333 412.062C79.2333 410.775 78.4273 409.878 77.2703 409.878C76.2173 409.878 75.3333 410.866 75.3333 412.062ZM82.7474 412.53C82.7474 413.505 83.3454 414.259 84.2034 414.259C85.2044 414.259 85.9064 413.622 85.9064 412.66V409.007H86.8554V415H85.9064V414.233C85.5034 414.74 84.8014 415.104 84.2034 415.104C82.7994 415.104 81.7984 414.025 81.7984 412.634V409.007H82.7474V412.53ZM88.782 409.007H89.718V415H88.782V409.007ZM88.652 406.628C88.652 406.29 88.899 406.043 89.25 406.043C89.588 406.043 89.835 406.29 89.835 406.628C89.835 406.979 89.588 407.226 89.25 407.226C88.899 407.226 88.652 406.979 88.652 406.628ZM91.5586 405.874H92.4946V415H91.5586V405.874ZM96.7512 415.091C95.0742 415.091 93.8912 413.83 93.8912 412.036C93.8912 410.255 95.0742 408.994 96.7512 408.994C97.4792 408.994 98.2332 409.345 98.7272 410.125V405.874H99.6632V415H98.7272V413.947C98.2202 414.727 97.4792 415.091 96.7512 415.091ZM94.8272 412.036C94.8272 413.336 95.6332 414.246 96.7902 414.246C97.8172 414.246 98.7272 413.258 98.7272 412.036C98.7272 410.84 97.8172 409.839 96.7902 409.839C95.6332 409.839 94.8272 410.749 94.8272 412.036ZM107.288 415.091C105.611 415.091 104.428 413.83 104.428 412.036C104.428 410.255 105.611 408.994 107.288 408.994C108.016 408.994 108.77 409.345 109.264 410.125V405.874H110.2V415H109.264V413.947C108.757 414.727 108.016 415.091 107.288 415.091ZM105.364 412.036C105.364 413.336 106.17 414.246 107.327 414.246C108.354 414.246 109.264 413.258 109.264 412.036C109.264 410.84 108.354 409.839 107.327 409.839C106.17 409.839 105.364 410.749 105.364 412.036ZM114.562 415.091C112.898 415.091 111.715 413.83 111.715 412.062C111.715 410.294 112.898 409.02 114.562 409.02C115.225 409.02 115.966 409.384 116.499 410.138V409.007H117.435V415H116.499V413.96C115.953 414.779 115.238 415.091 114.562 415.091ZM112.651 412.062C112.651 413.336 113.444 414.246 114.575 414.246C115.589 414.246 116.499 413.336 116.512 412.062C116.499 410.801 115.589 409.865 114.575 409.865C113.444 409.865 112.651 410.775 112.651 412.062ZM119.774 415V409.839H118.695V409.007H119.774V406.94H120.71V409.007H122.127V409.839H120.71V415H119.774ZM125.772 415.091C124.108 415.091 122.925 413.83 122.925 412.062C122.925 410.294 124.108 409.02 125.772 409.02C126.435 409.02 127.176 409.384 127.709 410.138V409.007H128.645V415H127.709V413.96C127.163 414.779 126.448 415.091 125.772 415.091ZM123.861 412.062C123.861 413.336 124.654 414.246 125.785 414.246C126.799 414.246 127.709 413.336 127.722 412.062C127.709 410.801 126.799 409.865 125.785 409.865C124.654 409.865 123.861 410.775 123.861 412.062ZM134.179 413.154C134.543 413.908 135.284 414.22 135.752 414.22C136.519 414.22 137.091 413.882 137.091 413.323C137.091 412.777 136.363 412.569 135.661 412.335C134.842 412.049 133.685 411.711 133.685 410.567C133.685 409.579 134.608 408.955 135.778 408.955C136.467 408.955 137.624 409.345 137.897 410.411L137.039 410.684C136.857 409.956 136.168 409.8 135.778 409.8C135.115 409.8 134.621 410.086 134.621 410.567C134.621 411.113 135.284 411.295 136.038 411.542C136.909 411.841 138.027 412.179 138.027 413.323C138.027 414.376 137.039 415.065 135.752 415.065C134.842 415.065 133.919 414.571 133.412 413.622L134.179 413.154ZM141.181 417.795H140.154L141.402 414.727L138.971 409.007H139.998L141.896 413.596L143.703 409.007H144.717L142.455 414.61L141.181 417.795ZM146.214 413.154C146.578 413.908 147.319 414.22 147.787 414.22C148.554 414.22 149.126 413.882 149.126 413.323C149.126 412.777 148.398 412.569 147.696 412.335C146.877 412.049 145.72 411.711 145.72 410.567C145.72 409.579 146.643 408.955 147.813 408.955C148.502 408.955 149.659 409.345 149.932 410.411L149.074 410.684C148.892 409.956 148.203 409.8 147.813 409.8C147.15 409.8 146.656 410.086 146.656 410.567C146.656 411.113 147.319 411.295 148.073 411.542C148.944 411.841 150.062 412.179 150.062 413.323C150.062 414.376 149.074 415.065 147.787 415.065C146.877 415.065 145.954 414.571 145.447 413.622L146.214 413.154ZM152.274 415V409.839H151.195V409.007H152.274V406.94H153.21V409.007H154.627V409.839H153.21V415H152.274ZM158.285 415.065C156.608 415.065 155.425 413.804 155.425 412.036C155.425 410.268 156.608 409.007 158.285 409.007C160.131 409.007 160.69 410.489 160.742 410.645C161.106 411.607 160.976 412.465 160.976 412.465H156.4C156.556 413.492 157.336 414.22 158.285 414.22C159.572 414.22 160.027 413.388 160.105 413.271L160.833 413.687C160.534 414.35 159.689 415.065 158.285 415.065ZM156.4 411.633L160.053 411.62C159.949 410.619 159.481 409.852 158.285 409.852C157.323 409.852 156.556 410.567 156.4 411.633ZM170.198 411.334C170.198 410.463 169.652 409.852 168.872 409.852C167.962 409.852 167.325 410.411 167.325 411.217V415H166.389V411.334C166.389 410.463 165.856 409.852 165.089 409.852C164.166 409.852 163.529 410.619 163.529 411.477V415H162.593V409.007H163.529V409.891C163.893 409.371 164.517 409.007 165.089 409.007C165.843 409.007 166.597 409.462 166.935 410.125C167.325 409.462 168.105 409.007 168.872 409.007C170.185 409.007 171.134 409.93 171.134 411.243V415H170.198V411.334ZM173.509 413.154C173.873 413.908 174.614 414.22 175.082 414.22C175.849 414.22 176.421 413.882 176.421 413.323C176.421 412.777 175.693 412.569 174.991 412.335C174.172 412.049 173.015 411.711 173.015 410.567C173.015 409.579 173.938 408.955 175.108 408.955C175.797 408.955 176.954 409.345 177.227 410.411L176.369 410.684C176.187 409.956 175.498 409.8 175.108 409.8C174.445 409.8 173.951 410.086 173.951 410.567C173.951 411.113 174.614 411.295 175.368 411.542C176.239 411.841 177.357 412.179 177.357 413.323C177.357 414.376 176.369 415.065 175.082 415.065C174.172 415.065 173.249 414.571 172.742 413.622L173.509 413.154ZM16.5012 430.007H17.4372V436H16.5012V430.007ZM16.3712 427.628C16.3712 427.29 16.6182 427.043 16.9692 427.043C17.3072 427.043 17.5542 427.29 17.5542 427.628C17.5542 427.979 17.3072 428.226 16.9692 428.226C16.6182 428.226 16.3712 427.979 16.3712 427.628ZM23.4899 432.477C23.4899 431.515 22.8919 430.852 22.0339 430.852C21.0199 430.852 20.3179 431.632 20.3179 432.477V436H19.3819V430.007H20.3179V430.904C20.7339 430.371 21.4359 430.007 22.0339 430.007C23.4379 430.007 24.4259 430.995 24.4259 432.399V436H23.4899V432.477ZM34.7829 430.007L32.2999 436H31.4159L28.9199 430.007H29.9469L31.8579 434.726L33.7559 430.007H34.7829ZM38.2319 436.091C36.5679 436.091 35.3849 434.83 35.3849 433.062C35.3849 431.294 36.5679 430.02 38.2319 430.02C38.8949 430.02 39.6359 430.384 40.1689 431.138V430.007H41.1049V436H40.1689V434.96C39.6229 435.779 38.9079 436.091 38.2319 436.091ZM36.3209 433.062C36.3209 434.336 37.1139 435.246 38.2449 435.246C39.2589 435.246 40.1689 434.336 40.1819 433.062C40.1689 431.801 39.2589 430.865 38.2449 430.865C37.1139 430.865 36.3209 431.775 36.3209 433.062ZM42.6635 436V430.007H43.5995V431.06C44.0025 430.384 44.8345 429.916 45.6925 429.942V430.865C44.5875 430.839 43.5995 431.788 43.5995 432.919V436H42.6635ZM47.3001 430.007H48.2361V436H47.3001V430.007ZM47.1701 427.628C47.1701 427.29 47.4171 427.043 47.7681 427.043C48.1061 427.043 48.3531 427.29 48.3531 427.628C48.3531 427.979 48.1061 428.226 47.7681 428.226C47.4171 428.226 47.1701 427.979 47.1701 427.628ZM52.7807 435.246C53.9117 435.246 54.7047 434.336 54.7047 433.049C54.7047 431.762 53.9117 430.852 52.7807 430.852C51.6497 430.852 50.8697 431.749 50.8697 433.049C50.8697 434.349 51.6497 435.246 52.7807 435.246ZM49.9337 433.049C49.9337 431.281 51.1167 430.007 52.7807 430.007C54.4577 430.007 55.6407 431.281 55.6407 433.049C55.6407 434.817 54.4577 436.091 52.7807 436.091C51.1167 436.091 49.9337 434.817 49.9337 433.049ZM58.2137 433.53C58.2137 434.505 58.8117 435.259 59.6697 435.259C60.6707 435.259 61.3727 434.622 61.3727 433.66V430.007H62.3217V436H61.3727V435.233C60.9697 435.74 60.2677 436.104 59.6697 436.104C58.2657 436.104 57.2647 435.025 57.2647 433.634V430.007H58.2137V433.53ZM64.7163 434.154C65.0803 434.908 65.8213 435.22 66.2893 435.22C67.0563 435.22 67.6283 434.882 67.6283 434.323C67.6283 433.777 66.9003 433.569 66.1983 433.335C65.3793 433.049 64.2223 432.711 64.2223 431.567C64.2223 430.579 65.1453 429.955 66.3153 429.955C67.0043 429.955 68.1613 430.345 68.4343 431.411L67.5763 431.684C67.3943 430.956 66.7053 430.8 66.3153 430.8C65.6523 430.8 65.1583 431.086 65.1583 431.567C65.1583 432.113 65.8213 432.295 66.5753 432.542C67.4463 432.841 68.5643 433.179 68.5643 434.323C68.5643 435.376 67.5763 436.065 66.2893 436.065C65.3793 436.065 64.4563 435.571 63.9493 434.622L64.7163 434.154ZM73.3635 430.007H74.2995V436H73.3635V430.007ZM73.2335 427.628C73.2335 427.29 73.4805 427.043 73.8315 427.043C74.1695 427.043 74.4165 427.29 74.4165 427.628C74.4165 427.979 74.1695 428.226 73.8315 428.226C73.4805 428.226 73.2335 427.979 73.2335 427.628ZM80.3522 432.477C80.3522 431.515 79.7542 430.852 78.8962 430.852C77.8822 430.852 77.1802 431.632 77.1802 432.477V436H76.2442V430.007H77.1802V430.904C77.5962 430.371 78.2982 430.007 78.8962 430.007C80.3002 430.007 81.2882 430.995 81.2882 432.399V436H80.3522V432.477ZM85.6492 436.091C83.9722 436.091 82.7892 434.83 82.7892 433.036C82.7892 431.255 83.9722 429.994 85.6492 429.994C86.3772 429.994 87.1312 430.345 87.6252 431.125V426.874H88.5612V436H87.6252V434.947C87.1182 435.727 86.3772 436.091 85.6492 436.091ZM83.7252 433.036C83.7252 434.336 84.5312 435.246 85.6882 435.246C86.7152 435.246 87.6252 434.258 87.6252 433.036C87.6252 431.84 86.7152 430.839 85.6882 430.839C84.5312 430.839 83.7252 431.749 83.7252 433.036ZM91.5262 433.53C91.5262 434.505 92.1242 435.259 92.9822 435.259C93.9832 435.259 94.6852 434.622 94.6852 433.66V430.007H95.6342V436H94.6852V435.233C94.2822 435.74 93.5802 436.104 92.9822 436.104C91.5782 436.104 90.5772 435.025 90.5772 433.634V430.007H91.5262V433.53ZM98.0288 434.154C98.3928 434.908 99.1338 435.22 99.6018 435.22C100.369 435.22 100.941 434.882 100.941 434.323C100.941 433.777 100.213 433.569 99.5108 433.335C98.6918 433.049 97.5348 432.711 97.5348 431.567C97.5348 430.579 98.4578 429.955 99.6278 429.955C100.317 429.955 101.474 430.345 101.747 431.411L100.889 431.684C100.707 430.956 100.018 430.8 99.6278 430.8C98.9648 430.8 98.4708 431.086 98.4708 431.567C98.4708 432.113 99.1338 432.295 99.8878 432.542C100.759 432.841 101.877 433.179 101.877 434.323C101.877 435.376 100.889 436.065 99.6018 436.065C98.6918 436.065 97.7688 435.571 97.2618 434.622L98.0288 434.154ZM104.089 436V430.839H103.01V430.007H104.089V427.94H105.025V430.007H106.442V430.839H105.025V436H104.089ZM107.816 436V430.007H108.752V431.06C109.155 430.384 109.987 429.916 110.845 429.942V430.865C109.74 430.839 108.752 431.788 108.752 432.919V436H107.816ZM112.452 430.007H113.388V436H112.452V430.007ZM112.322 427.628C112.322 427.29 112.569 427.043 112.92 427.043C113.258 427.043 113.505 427.29 113.505 427.628C113.505 427.979 113.258 428.226 112.92 428.226C112.569 428.226 112.322 427.979 112.322 427.628ZM117.946 436.065C116.269 436.065 115.086 434.804 115.086 433.036C115.086 431.268 116.269 430.007 117.946 430.007C119.792 430.007 120.351 431.489 120.403 431.645C120.767 432.607 120.637 433.465 120.637 433.465H116.061C116.217 434.492 116.997 435.22 117.946 435.22C119.233 435.22 119.688 434.388 119.766 434.271L120.494 434.687C120.195 435.35 119.35 436.065 117.946 436.065ZM116.061 432.633L119.714 432.62C119.61 431.619 119.142 430.852 117.946 430.852C116.984 430.852 116.217 431.567 116.061 432.633ZM122.683 434.154C123.047 434.908 123.788 435.22 124.256 435.22C125.023 435.22 125.595 434.882 125.595 434.323C125.595 433.777 124.867 433.569 124.165 433.335C123.346 433.049 122.189 432.711 122.189 431.567C122.189 430.579 123.112 429.955 124.282 429.955C124.971 429.955 126.128 430.345 126.401 431.411L125.543 431.684C125.361 430.956 124.672 430.8 124.282 430.8C123.619 430.8 123.125 431.086 123.125 431.567C123.125 432.113 123.788 432.295 124.542 432.542C125.413 432.841 126.531 433.179 126.531 434.323C126.531 435.376 125.543 436.065 124.256 436.065C123.346 436.065 122.423 435.571 121.916 434.622L122.683 434.154ZM129.257 435.012L128.542 437.417H127.853L128.243 435.012H129.257ZM135.353 434.154C135.717 434.908 136.458 435.22 136.926 435.22C137.693 435.22 138.265 434.882 138.265 434.323C138.265 433.777 137.537 433.569 136.835 433.335C136.016 433.049 134.859 432.711 134.859 431.567C134.859 430.579 135.782 429.955 136.952 429.955C137.641 429.955 138.798 430.345 139.071 431.411L138.213 431.684C138.031 430.956 137.342 430.8 136.952 430.8C136.289 430.8 135.795 431.086 135.795 431.567C135.795 432.113 136.458 432.295 137.212 432.542C138.083 432.841 139.201 433.179 139.201 434.323C139.201 435.376 138.213 436.065 136.926 436.065C136.016 436.065 135.093 435.571 134.586 434.622L135.353 434.154ZM141.901 433.53C141.901 434.505 142.499 435.259 143.357 435.259C144.358 435.259 145.06 434.622 145.06 433.66V430.007H146.009V436H145.06V435.233C144.657 435.74 143.955 436.104 143.357 436.104C141.953 436.104 140.952 435.025 140.952 433.634V430.007H141.901V433.53ZM150.367 435.181C150.926 435.181 151.576 434.908 151.94 434.505L152.629 435.116C152.096 435.675 151.16 436.078 150.419 436.078C148.625 436.078 147.364 434.804 147.364 433.036C147.364 431.268 148.625 430.007 150.419 430.007C151.16 430.007 152.096 430.41 152.629 430.969L151.94 431.58C151.576 431.177 150.926 430.904 150.367 430.904C149.158 430.904 148.3 431.775 148.3 433.036C148.3 434.31 149.158 435.181 150.367 435.181ZM158.061 432.646C158.061 431.593 157.476 430.852 156.631 430.852C155.721 430.852 154.941 431.788 154.941 432.88V436H154.005V426.874H154.941V430.969C155.279 430.423 155.903 430.007 156.631 430.007C158.009 430.007 158.997 431.099 158.997 432.594V436H158.061V432.646ZM166.67 436.091C165.006 436.091 163.823 434.83 163.823 433.062C163.823 431.294 165.006 430.02 166.67 430.02C167.333 430.02 168.074 430.384 168.607 431.138V430.007H169.543V436H168.607V434.96C168.061 435.779 167.346 436.091 166.67 436.091ZM164.759 433.062C164.759 434.336 165.552 435.246 166.683 435.246C167.697 435.246 168.607 434.336 168.62 433.062C168.607 431.801 167.697 430.865 166.683 430.865C165.552 430.865 164.759 431.775 164.759 433.062ZM171.954 434.154C172.318 434.908 173.059 435.22 173.527 435.22C174.294 435.22 174.866 434.882 174.866 434.323C174.866 433.777 174.138 433.569 173.436 433.335C172.617 433.049 171.46 432.711 171.46 431.567C171.46 430.579 172.383 429.955 173.553 429.955C174.242 429.955 175.399 430.345 175.672 431.411L174.814 431.684C174.632 430.956 173.943 430.8 173.553 430.8C172.89 430.8 172.396 431.086 172.396 431.567C172.396 432.113 173.059 432.295 173.813 432.542C174.684 432.841 175.802 433.179 175.802 434.323C175.802 435.376 174.814 436.065 173.527 436.065C172.617 436.065 171.694 435.571 171.187 434.622L171.954 434.154ZM31.5785 457.117H30.2005V452.112H29.1085V450.89H30.2005V449.59C30.2005 448.446 30.9935 447.575 32.1375 447.497C32.6705 447.458 33.3335 447.666 33.6455 447.978L32.9435 448.992C32.6575 448.745 32.4755 448.693 32.2545 448.719C31.8515 448.758 31.5785 449.096 31.5785 449.59V450.89H33.3205V452.112H31.5785V457.117ZM34.7952 450.903H36.1732V457.104H34.7952V450.903ZM34.7042 448.589C34.7042 448.134 35.0292 447.809 35.4842 447.809C35.9392 447.809 36.2642 448.134 36.2642 448.589C36.2642 449.044 35.9392 449.369 35.4842 449.369C35.0292 449.369 34.7042 449.044 34.7042 448.589ZM42.3185 453.698C42.3185 452.71 41.8115 452.112 40.9535 452.112C40.1085 452.125 39.4585 452.788 39.4715 453.698V457.117H38.0935V450.916H39.4715V451.761C39.8615 451.28 40.5245 450.929 41.1225 450.929C42.2925 450.929 43.6965 451.696 43.6965 453.646V457.117H42.3185V453.698ZM48.0336 457.169C46.3176 457.169 45.0956 455.869 45.0956 454.049C45.0956 452.229 46.3176 450.929 48.0336 450.929C48.6446 450.929 49.3206 451.215 49.8146 451.8V450.916H51.1926V457.117H49.8146V456.285C49.3206 456.909 48.6446 457.169 48.0336 457.169ZM46.4736 454.049C46.4736 455.219 47.1366 455.999 48.1246 455.999C49.0346 455.999 49.8146 455.18 49.8276 454.049C49.8146 452.918 49.0346 452.099 48.1246 452.099C47.1366 452.099 46.4736 452.866 46.4736 454.049ZM57.1086 453.698C57.1086 452.71 56.6016 452.112 55.7436 452.112C54.8986 452.125 54.2486 452.788 54.2616 453.698V457.117H52.8836V450.916H54.2616V451.761C54.6516 451.28 55.3146 450.929 55.9126 450.929C57.0826 450.929 58.4866 451.696 58.4866 453.646V457.117H57.1086V453.698ZM62.7066 455.843C63.1876 455.843 63.7466 455.596 64.0976 455.206L65.0466 456.155C64.5136 456.74 63.5386 457.156 62.7586 457.156C60.9126 457.156 59.6126 455.856 59.6126 454.036C59.6126 452.203 60.9126 450.903 62.7586 450.903C63.5776 450.903 64.4876 451.319 65.0466 451.917L64.0976 452.853C63.7466 452.463 63.1876 452.216 62.7066 452.216C61.6796 452.216 60.9906 452.931 60.9906 454.036C60.9906 455.128 61.6796 455.843 62.7066 455.843ZM68.8551 457.143C67.1001 457.143 65.8651 455.856 65.8651 454.036C65.8651 452.203 67.1001 450.916 68.8551 450.916C70.7791 450.916 71.3901 452.489 71.4291 452.593C71.8061 453.477 71.6891 454.465 71.6891 454.569H67.2171C67.3731 455.401 68.0751 455.973 68.8551 455.973C69.8821 455.973 70.2981 455.375 70.4021 455.193L71.5071 455.687C71.2081 456.389 70.3371 457.143 68.8551 457.143ZM67.2171 453.477H70.3891C70.2591 452.71 69.8171 452.086 68.8551 452.086C68.0231 452.086 67.3731 452.671 67.2171 453.477ZM74.8289 455.804L73.9449 458.794H72.9179L73.4119 455.804H74.8289ZM83.414 455.986C84.415 455.986 85.065 455.206 85.065 454.023C85.065 452.84 84.415 452.06 83.414 452.06C82.478 452.06 81.711 452.931 81.711 454.023C81.711 455.115 82.478 455.986 83.414 455.986ZM80.32 459.86V450.903H81.698V451.813C82.192 451.163 83.011 450.903 83.492 450.903C85.221 450.903 86.443 452.19 86.443 454.023C86.443 455.869 85.221 457.156 83.492 457.156C82.998 457.156 82.192 456.883 81.698 456.233V459.86H80.32ZM89.3517 454.452C89.3517 455.401 89.9107 455.986 90.7297 455.986C91.6007 455.986 92.1987 455.414 92.1857 454.465V450.916H93.5767V457.117H92.1857V456.402C91.7957 456.883 91.1587 457.169 90.5477 457.169C89.0527 457.169 87.9737 456.09 87.9737 454.504V450.916H89.3517V454.452ZM98.5344 457.182C98.0924 457.182 97.3124 456.987 96.7404 456.259V457.13H95.3624V447.822H96.7404V451.839C97.3124 451.085 98.0924 450.916 98.5474 450.916C100.263 450.916 101.498 452.216 101.498 454.049C101.498 455.882 100.263 457.182 98.5344 457.182ZM96.7404 454.062C96.7404 455.167 97.5074 456.025 98.4564 456.025C99.4574 456.025 100.12 455.245 100.12 454.062C100.12 452.879 99.4574 452.112 98.4564 452.112C97.5074 452.112 96.7404 452.983 96.7404 454.062ZM102.799 447.822H104.177V457.104H102.799V447.822ZM106.079 450.903H107.457V457.104H106.079V450.903ZM105.988 448.589C105.988 448.134 106.313 447.809 106.768 447.809C107.223 447.809 107.548 448.134 107.548 448.589C107.548 449.044 107.223 449.369 106.768 449.369C106.313 449.369 105.988 449.044 105.988 448.589ZM111.952 455.843C112.433 455.843 112.992 455.596 113.343 455.206L114.292 456.155C113.759 456.74 112.784 457.156 112.004 457.156C110.158 457.156 108.858 455.856 108.858 454.036C108.858 452.203 110.158 450.903 112.004 450.903C112.823 450.903 113.733 451.319 114.292 451.917L113.343 452.853C112.992 452.463 112.433 452.216 111.952 452.216C110.925 452.216 110.236 452.931 110.236 454.036C110.236 455.128 110.925 455.843 111.952 455.843ZM119.338 454.985C119.611 455.661 120.287 455.973 120.703 455.973C121.353 455.973 121.769 455.726 121.769 455.297C121.769 454.907 121.197 454.725 120.56 454.504C119.715 454.205 118.519 453.802 118.519 452.606C118.519 451.514 119.52 450.851 120.794 450.851C121.561 450.851 122.705 451.293 123.017 452.411L121.86 452.827C121.652 452.138 121.093 452.034 120.794 452.034C120.248 452.034 119.897 452.255 119.897 452.606C119.897 452.996 120.43 453.152 121.093 453.386C121.977 453.698 123.147 454.101 123.147 455.284C123.147 456.415 122.146 457.156 120.703 457.156C119.754 457.156 118.714 456.558 118.259 455.609L119.338 454.985ZM127.457 457.143C125.702 457.143 124.467 455.856 124.467 454.036C124.467 452.203 125.702 450.916 127.457 450.916C129.381 450.916 129.992 452.489 130.031 452.593C130.408 453.477 130.291 454.465 130.291 454.569H125.819C125.975 455.401 126.677 455.973 127.457 455.973C128.484 455.973 128.9 455.375 129.004 455.193L130.109 455.687C129.81 456.389 128.939 457.143 127.457 457.143ZM125.819 453.477H128.991C128.861 452.71 128.419 452.086 127.457 452.086C126.625 452.086 125.975 452.671 125.819 453.477ZM134.384 455.843C134.865 455.843 135.424 455.596 135.775 455.206L136.724 456.155C136.191 456.74 135.216 457.156 134.436 457.156C132.59 457.156 131.29 455.856 131.29 454.036C131.29 452.203 132.59 450.903 134.436 450.903C135.255 450.903 136.165 451.319 136.724 451.917L135.775 452.853C135.424 452.463 134.865 452.216 134.384 452.216C133.357 452.216 132.668 452.931 132.668 454.036C132.668 455.128 133.357 455.843 134.384 455.843ZM138.697 457.117V452.099H137.527V450.903H138.697V448.732H140.075V450.903H141.544V452.099H140.075V457.117H138.697ZM145.509 455.986C146.471 455.986 147.121 455.219 147.121 454.036C147.121 452.866 146.471 452.086 145.509 452.086C144.547 452.086 143.897 452.853 143.897 454.036C143.897 455.219 144.534 455.986 145.509 455.986ZM142.519 454.036C142.519 452.203 143.754 450.903 145.509 450.903C147.264 450.903 148.499 452.203 148.499 454.036C148.499 455.856 147.264 457.169 145.509 457.169C143.754 457.169 142.519 455.856 142.519 454.036ZM149.836 457.117V450.916H151.214V451.826C151.63 451.241 152.384 450.851 153.112 450.89V452.164C152.007 452.112 151.214 453.087 151.214 454.036V457.117H149.836ZM155.05 454.985C155.323 455.661 155.999 455.973 156.415 455.973C157.065 455.973 157.481 455.726 157.481 455.297C157.481 454.907 156.909 454.725 156.272 454.504C155.427 454.205 154.231 453.802 154.231 452.606C154.231 451.514 155.232 450.851 156.506 450.851C157.273 450.851 158.417 451.293 158.729 452.411L157.572 452.827C157.364 452.138 156.805 452.034 156.506 452.034C155.96 452.034 155.609 452.255 155.609 452.606C155.609 452.996 156.142 453.152 156.805 453.386C157.689 453.698 158.859 454.101 158.859 455.284C158.859 456.415 157.858 457.156 156.415 457.156C155.466 457.156 154.426 456.558 153.971 455.609L155.05 454.985ZM161.97 455.804L161.086 458.794H160.059L160.553 455.804H161.97ZM46.638 474.594C46.638 473.71 46.157 473.125 45.455 473.125C44.662 473.125 44.129 473.736 44.129 474.529V478.117H42.738V474.594C42.738 473.71 42.27 473.125 41.581 473.125C40.788 473.125 40.229 473.801 40.229 474.672V478.117H38.851V471.916H40.229V472.761C40.593 472.267 41.126 471.929 41.711 471.929C42.452 471.929 43.18 472.397 43.544 473.047C43.973 472.397 44.805 471.929 45.546 471.929C47.015 471.929 48.029 473.021 48.029 474.542V478.117H46.638V474.594ZM52.4833 478.169C50.7673 478.169 49.5453 476.869 49.5453 475.049C49.5453 473.229 50.7673 471.929 52.4833 471.929C53.0943 471.929 53.7703 472.215 54.2643 472.8V471.916H55.6423V478.117H54.2643V477.285C53.7703 477.909 53.0943 478.169 52.4833 478.169ZM50.9233 475.049C50.9233 476.219 51.5863 476.999 52.5743 476.999C53.4843 476.999 54.2643 476.18 54.2773 475.049C54.2643 473.918 53.4843 473.099 52.5743 473.099C51.5863 473.099 50.9233 473.866 50.9233 475.049ZM61.5583 474.698C61.5583 473.71 61.0513 473.112 60.1933 473.112C59.3483 473.125 58.6983 473.788 58.7113 474.698V478.117H57.3333V471.916H58.7113V472.761C59.1013 472.28 59.7643 471.929 60.3623 471.929C61.5323 471.929 62.9363 472.696 62.9363 474.646V478.117H61.5583V474.698ZM65.8463 475.452C65.8463 476.401 66.4053 476.986 67.2243 476.986C68.0953 476.986 68.6933 476.414 68.6803 475.465V471.916H70.0713V478.117H68.6803V477.402C68.2903 477.883 67.6533 478.169 67.0423 478.169C65.5473 478.169 64.4683 477.09 64.4683 475.504V471.916H65.8463V475.452ZM73.7841 478.117H72.4061V473.112H71.3141V471.89H72.4061V470.59C72.4061 469.446 73.1991 468.575 74.3431 468.497C74.8761 468.458 75.5391 468.666 75.8511 468.978L75.1491 469.992C74.8631 469.745 74.6811 469.693 74.4601 469.719C74.0571 469.758 73.7841 470.096 73.7841 470.59V471.89H75.5261V473.112H73.7841V478.117ZM79.2577 478.169C77.5417 478.169 76.3197 476.869 76.3197 475.049C76.3197 473.229 77.5417 471.929 79.2577 471.929C79.8687 471.929 80.5447 472.215 81.0387 472.8V471.916H82.4167V478.117H81.0387V477.285C80.5447 477.909 79.8687 478.169 79.2577 478.169ZM77.6977 475.049C77.6977 476.219 78.3607 476.999 79.3487 476.999C80.2587 476.999 81.0387 476.18 81.0517 475.049C81.0387 473.918 80.2587 473.099 79.3487 473.099C78.3607 473.099 77.6977 473.866 77.6977 475.049ZM86.7706 476.843C87.2516 476.843 87.8106 476.596 88.1616 476.206L89.1106 477.155C88.5776 477.74 87.6026 478.156 86.8226 478.156C84.9766 478.156 83.6766 476.856 83.6766 475.036C83.6766 473.203 84.9766 471.903 86.8226 471.903C87.6416 471.903 88.5516 472.319 89.1106 472.917L88.1616 473.853C87.8106 473.463 87.2516 473.216 86.7706 473.216C85.7436 473.216 85.0546 473.931 85.0546 475.036C85.0546 476.128 85.7436 476.843 86.7706 476.843ZM91.083 478.117V473.099H89.913V471.903H91.083V469.732H92.461V471.903H93.93V473.099H92.461V478.117H91.083ZM96.6198 475.452C96.6198 476.401 97.1788 476.986 97.9978 476.986C98.8688 476.986 99.4668 476.414 99.4538 475.465V471.916H100.845V478.117H99.4538V477.402C99.0638 477.883 98.4268 478.169 97.8158 478.169C96.3208 478.169 95.2418 477.09 95.2418 475.504V471.916H96.6198V475.452ZM102.552 478.117V471.916H103.93V472.826C104.346 472.241 105.1 471.851 105.828 471.89V473.164C104.723 473.112 103.93 474.087 103.93 475.036V478.117H102.552ZM107.406 471.903H108.784V478.104H107.406V471.903ZM107.315 469.589C107.315 469.134 107.64 468.809 108.095 468.809C108.55 468.809 108.875 469.134 108.875 469.589C108.875 470.044 108.55 470.369 108.095 470.369C107.64 470.369 107.315 470.044 107.315 469.589ZM114.929 474.698C114.929 473.71 114.422 473.112 113.564 473.112C112.719 473.125 112.069 473.788 112.082 474.698V478.117H110.704V471.916H112.082V472.761C112.472 472.28 113.135 471.929 113.733 471.929C114.903 471.929 116.307 472.696 116.307 474.646V478.117H114.929V474.698ZM120.722 476.973C121.71 476.973 122.425 476.102 122.425 475.023C122.425 473.97 121.71 473.086 120.722 473.086C119.747 473.086 119.084 473.853 119.084 475.023C119.084 476.206 119.747 476.973 120.722 476.973ZM117.706 475.036C117.706 473.216 118.928 471.903 120.644 471.903C121.281 471.903 121.996 472.228 122.425 472.813V471.903H123.803V477.649C123.803 479.417 122.607 480.873 120.709 480.873C119.669 480.873 118.668 480.444 118.057 479.43L119.149 478.702C119.604 479.365 120.046 479.651 120.709 479.651C121.814 479.651 122.425 478.78 122.425 477.766V477.22C121.944 477.831 121.229 478.156 120.644 478.156C118.928 478.156 117.706 476.856 117.706 475.036ZM127.127 476.804L126.243 479.794H125.216L125.71 476.804H127.127ZM135.231 478.169C133.515 478.169 132.293 476.869 132.293 475.049C132.293 473.229 133.515 471.929 135.231 471.929C135.842 471.929 136.518 472.215 137.012 472.8V471.916H138.39V478.117H137.012V477.285C136.518 477.909 135.842 478.169 135.231 478.169ZM133.671 475.049C133.671 476.219 134.334 476.999 135.322 476.999C136.232 476.999 137.012 476.18 137.025 475.049C137.012 473.918 136.232 473.099 135.322 473.099C134.334 473.099 133.671 473.866 133.671 475.049ZM144.306 474.698C144.306 473.71 143.799 473.112 142.941 473.112C142.096 473.125 141.446 473.788 141.459 474.698V478.117H140.081V471.916H141.459V472.761C141.849 472.28 142.512 471.929 143.11 471.929C144.28 471.929 145.684 472.696 145.684 474.646V478.117H144.306V474.698ZM150.034 478.169C148.318 478.169 147.083 476.869 147.083 475.036C147.083 473.203 148.318 471.903 150.034 471.903C150.541 471.903 151.308 472.124 151.841 472.826V468.822H153.219V478.117H151.841V477.246C151.295 477.909 150.541 478.169 150.034 478.169ZM148.461 475.049C148.461 476.232 149.124 477.012 150.125 477.012C151.061 477.012 151.841 476.154 151.841 475.049C151.841 473.957 151.061 473.086 150.125 473.086C149.124 473.086 148.461 473.866 148.461 475.049ZM65.5597 499.169C63.8437 499.169 62.6087 497.869 62.6087 496.036C62.6087 494.203 63.8437 492.903 65.5597 492.903C66.0667 492.903 66.8337 493.124 67.3667 493.826V489.822H68.7447V499.117H67.3667V498.246C66.8207 498.909 66.0667 499.169 65.5597 499.169ZM63.9867 496.049C63.9867 497.232 64.6497 498.012 65.6507 498.012C66.5867 498.012 67.3667 497.154 67.3667 496.049C67.3667 494.957 66.5867 494.086 65.6507 494.086C64.6497 494.086 63.9867 494.866 63.9867 496.049ZM70.7674 492.903H72.1454V499.104H70.7674V492.903ZM70.6764 490.589C70.6764 490.134 71.0014 489.809 71.4564 489.809C71.9114 489.809 72.2364 490.134 72.2364 490.589C72.2364 491.044 71.9114 491.369 71.4564 491.369C71.0014 491.369 70.6764 491.044 70.6764 490.589ZM74.9237 496.985C75.1967 497.661 75.8727 497.973 76.2887 497.973C76.9387 497.973 77.3547 497.726 77.3547 497.297C77.3547 496.907 76.7827 496.725 76.1457 496.504C75.3007 496.205 74.1047 495.802 74.1047 494.606C74.1047 493.514 75.1057 492.851 76.3797 492.851C77.1467 492.851 78.2907 493.293 78.6027 494.411L77.4457 494.827C77.2377 494.138 76.6787 494.034 76.3797 494.034C75.8337 494.034 75.4827 494.255 75.4827 494.606C75.4827 494.996 76.0157 495.152 76.6787 495.386C77.5627 495.698 78.7327 496.101 78.7327 497.284C78.7327 498.415 77.7317 499.156 76.2887 499.156C75.3397 499.156 74.2997 498.558 73.8447 497.609L74.9237 496.985ZM80.8887 499.117V494.099H79.7187V492.903H80.8887V490.732H82.2667V492.903H83.7357V494.099H82.2667V499.117H80.8887ZM84.9694 499.117V492.916H86.3474V493.826C86.7634 493.241 87.5174 492.851 88.2454 492.89V494.164C87.1404 494.112 86.3474 495.087 86.3474 496.036V499.117H84.9694ZM89.823 492.903H91.201V499.104H89.823V492.903ZM89.732 490.589C89.732 490.134 90.057 489.809 90.512 489.809C90.967 489.809 91.292 490.134 91.292 490.589C91.292 491.044 90.967 491.369 90.512 491.369C90.057 491.369 89.732 491.044 89.732 490.589ZM96.3064 499.182C95.8644 499.182 95.0844 498.987 94.5124 498.259V499.13H93.1344V489.822H94.5124V493.839C95.0844 493.085 95.8644 492.916 96.3194 492.916C98.0354 492.916 99.2704 494.216 99.2704 496.049C99.2704 497.882 98.0354 499.182 96.3064 499.182ZM94.5124 496.062C94.5124 497.167 95.2794 498.025 96.2284 498.025C97.2294 498.025 97.8924 497.245 97.8924 496.062C97.8924 494.879 97.2294 494.112 96.2284 494.112C95.2794 494.112 94.5124 494.983 94.5124 496.062ZM102.193 496.452C102.193 497.401 102.752 497.986 103.571 497.986C104.442 497.986 105.04 497.414 105.027 496.465V492.916H106.418V499.117H105.027V498.402C104.637 498.883 104 499.169 103.389 499.169C101.894 499.169 100.815 498.09 100.815 496.504V492.916H102.193V496.452ZM108.971 499.117V494.099H107.801V492.903H108.971V490.732H110.349V492.903H111.818V494.099H110.349V499.117H108.971ZM113.233 492.903H114.611V499.104H113.233V492.903ZM113.142 490.589C113.142 490.134 113.467 489.809 113.922 489.809C114.377 489.809 114.702 490.134 114.702 490.589C114.702 491.044 114.377 491.369 113.922 491.369C113.467 491.369 113.142 491.044 113.142 490.589ZM119.275 497.986C120.237 497.986 120.887 497.219 120.887 496.036C120.887 494.866 120.237 494.086 119.275 494.086C118.313 494.086 117.663 494.853 117.663 496.036C117.663 497.219 118.3 497.986 119.275 497.986ZM116.285 496.036C116.285 494.203 117.52 492.903 119.275 492.903C121.03 492.903 122.265 494.203 122.265 496.036C122.265 497.856 121.03 499.169 119.275 499.169C117.52 499.169 116.285 497.856 116.285 496.036ZM127.891 495.698C127.891 494.71 127.384 494.112 126.526 494.112C125.681 494.125 125.031 494.788 125.044 495.698V499.117H123.666V492.916H125.044V493.761C125.434 493.28 126.097 492.929 126.695 492.929C127.865 492.929 129.269 493.696 129.269 495.646V499.117H127.891V495.698Z" fill="#6D0CA6"/>
</svg>
