<svg width="108" height="108" viewBox="0 0 108 108" fill="none" xmlns="http://www.w3.org/2000/svg">
<path fill-rule="evenodd" clip-rule="evenodd" d="M54.0012 87.4786C69.3974 87.4786 82.373 77.083 86.2777 62.9227C86.7084 61.3607 88.3239 60.4436 89.8859 60.8743C91.4479 61.305 92.365 62.9205 91.9343 64.4825C87.346 81.1218 72.105 93.3463 54.0012 93.3463C34.7265 93.3463 18.6944 79.4894 15.3126 61.1949C15.0181 59.6015 16.0709 58.0711 17.6643 57.7766C19.2576 57.4821 20.788 58.5349 21.0825 60.1283C23.9594 75.6912 37.6069 87.4786 54.0012 87.4786Z" fill="#CC7DFA"/>
<path d="M16.8511 56.7241C17.7128 55.1923 20.0006 55.4859 20.4475 57.1857L22.9461 66.6891C23.2721 67.9291 22.3368 69.1423 21.0546 69.1423L13.2103 69.1426C11.7143 69.1427 10.7721 67.5317 11.5055 66.2278L16.8511 56.7241Z" fill="#CC7DFA"/>
<path fill-rule="evenodd" clip-rule="evenodd" d="M26.5088 51.9398C27.564 37.7082 39.4449 26.4897 53.9461 26.4897C51.6601 26.4897 49.6247 27.4918 47.9503 29.0241C46.2843 30.5487 44.8765 32.6769 43.7378 35.1927C42.5923 37.7233 41.7026 40.6831 41.1004 43.8951C40.6176 46.4699 40.3239 49.1843 40.2259 51.9398H26.5088ZM26.5088 56.0668H40.2259C40.3239 58.8222 40.6176 61.5366 41.1004 64.1114C41.7026 67.3234 42.5923 70.2832 43.7378 72.8138C44.8765 75.3296 46.2843 77.4578 47.9503 78.9824C49.6247 80.5147 51.6601 81.5168 53.9461 81.5168C39.4449 81.5168 27.564 70.2983 26.5088 56.0668Z" fill="#6D0CA6"/>
<path d="M53.9461 30.3288C53.1895 30.3288 52.212 30.6508 51.0753 31.6909C49.9303 32.7388 48.784 34.381 47.7713 36.6185C46.7652 38.8411 45.9483 41.5243 45.3862 44.5226C44.9435 46.8839 44.6688 49.387 44.5725 51.9398H63.3197C63.2234 49.387 62.9487 46.8839 62.506 44.5226C61.9438 41.5243 61.1269 38.8411 60.1209 36.6185C59.1082 34.381 57.9619 32.7388 56.8169 31.6909C55.6802 30.6508 54.7027 30.3288 53.9461 30.3288Z" fill="#6D0CA6"/>
<path d="M45.3862 63.4839C45.9483 66.4823 46.7652 69.1654 47.7713 71.388C48.784 73.6255 49.9303 75.2677 51.0753 76.3156C52.212 77.3557 53.1895 77.6777 53.9461 77.6777C54.7027 77.6777 55.6802 77.3557 56.8168 76.3156C57.9619 75.2677 59.1082 73.6255 60.1209 71.388C61.1269 69.1654 61.9438 66.4823 62.506 63.4839C62.9487 61.1226 63.2234 58.6195 63.3197 56.0668H44.5725C44.6688 58.6195 44.9435 61.1226 45.3862 63.4839Z" fill="#6D0CA6"/>
<path d="M53.9461 26.4897C56.2321 26.4897 58.2674 27.4918 59.9418 29.0241C61.6078 30.5487 63.0157 32.6769 64.1544 35.1927C65.2999 37.7233 66.1896 40.6831 66.7918 43.8951C67.2746 46.4699 67.5683 49.1843 67.6662 51.9398H81.3834C80.3282 37.7082 68.4473 26.4897 53.9461 26.4897Z" fill="#6D0CA6"/>
<path d="M66.7918 64.1114C66.1896 67.3234 65.2999 70.2832 64.1544 72.8138C63.0157 75.3296 61.6078 77.4578 59.9418 78.9824C58.2674 80.5147 56.2321 81.5168 53.9461 81.5168C68.4473 81.5168 80.3282 70.2983 81.3834 56.0668H67.6662C67.5683 58.8222 67.2746 61.5366 66.7918 64.1114Z" fill="#6D0CA6"/>
<path d="M53.9469 30.3286C53.1902 30.3286 52.2128 30.6506 51.0761 31.6907C49.9311 32.7386 48.7848 34.3808 47.7721 36.6183C46.766 38.8409 45.9491 41.524 45.387 44.5224C44.9443 46.8837 44.6696 49.3868 44.5732 51.9395H63.3205C63.2241 49.3868 62.9495 46.8837 62.5068 44.5224C61.9446 41.524 61.1277 38.8409 60.1217 36.6183C59.1089 34.3808 57.9627 32.7386 56.8176 31.6907C55.681 30.6506 54.7035 30.3286 53.9469 30.3286Z" fill="#CC7DFA"/>
<path d="M45.387 63.4837C45.9491 66.4821 46.766 69.1652 47.7721 71.3878C48.7848 73.6253 49.9311 75.2675 51.0761 76.3154C52.2127 77.3555 53.1902 77.6775 53.9469 77.6775C54.7035 77.6775 55.681 77.3555 56.8176 76.3154C57.9627 75.2675 59.1089 73.6253 60.1217 71.3878C61.1277 69.1652 61.9446 66.4821 62.5068 63.4837C62.9495 61.1224 63.2241 58.6193 63.3205 56.0666H44.5732C44.6696 58.6193 44.9443 61.1224 45.387 63.4837Z" fill="#CC7DFA"/>
<path fill-rule="evenodd" clip-rule="evenodd" d="M54.0003 20.524C38.6041 20.524 25.6285 30.9196 21.7238 45.0798C21.2931 46.6419 19.6777 47.559 18.1156 47.1282C16.5536 46.6975 15.6365 45.0821 16.0672 43.52C20.6555 26.8807 35.8965 14.6562 54.0003 14.6562C73.275 14.6562 89.3071 28.5132 92.6889 46.8077C92.9834 48.401 91.9305 49.9314 90.3372 50.2259C88.7439 50.5205 87.2135 49.4676 86.9189 47.8743C84.0421 32.3114 70.3946 20.524 54.0003 20.524Z" fill="#CC7DFA"/>
<path d="M91.1504 51.2784C90.2887 52.8103 88.0009 52.5167 87.554 50.8169L85.0554 41.3135C84.7294 40.0734 85.6647 38.8603 86.9469 38.8602L94.7912 38.8599C96.2872 38.8599 97.2294 40.4709 96.496 41.7747L91.1504 51.2784Z" fill="#CC7DFA"/>
</svg>
