<svg width="232" height="200" viewBox="0 0 232 200" fill="none" xmlns="http://www.w3.org/2000/svg">
<path d="M11.6399 120.069C4.44152 107.658 4.44152 92.3422 11.6399 79.9313L46.4399 19.9313C53.5955 7.59398 66.7788 4.68557e-06 81.0411 4.06231e-06L150.959 1.0069e-06C165.221 3.83636e-07 178.405 7.59398 185.56 19.9313L220.36 79.9313C227.558 92.3422 227.558 107.658 220.36 120.069L185.56 180.069C178.405 192.406 165.221 200 150.959 200H81.0411C66.7788 200 53.5955 192.406 46.4399 180.069L11.6399 120.069Z" fill="#1A1A1C"/>
<path d="M81.2274 99.9758C78.0388 99.9758 75.5058 102.56 75.5058 105.697C75.5058 108.835 78.0388 111.419 81.2274 111.419C84.4159 111.419 86.9489 108.835 86.9489 105.697C86.9489 102.56 84.4159 99.9758 81.2274 99.9758Z" fill="#6D0CA6"/>
<path d="M81.2267 113.211C78.4264 113.211 75.8925 114.172 74.0424 115.511C72.2668 116.795 70.8301 118.657 70.8301 120.603C70.8301 122.85 72.6606 124 74.4379 124.558C76.2767 125.135 78.703 125.323 81.2267 125.323C83.7504 125.323 86.1768 125.135 88.0155 124.558C89.7928 124 91.6233 122.85 91.6233 120.603C91.6233 118.657 90.1867 116.795 88.4111 115.511C86.5609 114.172 84.027 113.211 81.2267 113.211Z" fill="#6D0CA6"/>
<path d="M104.41 99.9758C101.221 99.9758 98.6884 102.56 98.6884 105.697C98.6884 108.835 101.221 111.419 104.41 111.419C107.599 111.419 110.132 108.835 110.132 105.697C110.132 102.56 107.599 99.9758 104.41 99.9758Z" fill="#6D0CA6"/>
<path d="M104.409 113.211C101.609 113.211 99.0751 114.172 97.225 115.511C95.4494 116.795 94.0127 118.657 94.0127 120.603C94.0127 122.85 95.8433 124 97.6205 124.558C99.4593 125.135 101.886 125.323 104.409 125.323C106.933 125.323 109.359 125.135 111.198 124.558C112.975 124 114.806 122.85 114.806 120.603C114.806 118.657 113.369 116.795 111.594 115.511C109.744 114.172 107.21 113.211 104.409 113.211Z" fill="#6D0CA6"/>
<path d="M127.592 99.9758C124.403 99.9758 121.87 102.56 121.87 105.697C121.87 108.835 124.403 111.419 127.592 111.419C130.78 111.419 133.313 108.835 133.313 105.697C133.313 102.56 130.78 99.9758 127.592 99.9758Z" fill="#6D0CA6"/>
<path d="M127.591 113.211C124.791 113.211 122.257 114.172 120.407 115.511C118.631 116.795 117.194 118.657 117.194 120.603C117.194 122.85 119.025 124 120.802 124.558C122.641 125.135 125.067 125.323 127.591 125.323C130.115 125.323 132.541 125.135 134.38 124.558C136.157 124 137.988 122.85 137.988 120.603C137.988 118.657 136.551 116.795 134.775 115.511C132.925 114.172 130.391 113.211 127.591 113.211Z" fill="#6D0CA6"/>
<path d="M150.774 99.9758C147.586 99.9758 145.053 102.56 145.053 105.697C145.053 108.835 147.586 111.419 150.774 111.419C153.963 111.419 156.496 108.835 156.496 105.697C156.496 102.56 153.963 99.9758 150.774 99.9758Z" fill="#6D0CA6"/>
<path d="M150.774 113.211C147.973 113.211 145.439 114.172 143.589 115.511C141.814 116.795 140.377 118.657 140.377 120.603C140.377 122.85 142.208 124 143.985 124.558C145.824 125.135 148.25 125.323 150.774 125.323C153.297 125.323 155.724 125.135 157.562 124.558C159.34 124 161.17 122.85 161.17 120.603C161.17 118.657 159.734 116.795 157.958 115.511C156.108 114.172 153.574 113.211 150.774 113.211Z" fill="#6D0CA6"/>
<path d="M116.002 40.4622C109.183 40.4622 103.765 45.9885 103.765 52.6988C103.765 59.4091 109.183 64.9355 116.002 64.9355C122.821 64.9355 128.238 59.4091 128.238 52.6988C128.238 45.9885 122.821 40.4622 116.002 40.4622Z" fill="#CC7DFA"/>
<path d="M116.001 67.3655C109.862 67.3655 104.307 69.4734 100.256 72.4027C96.3421 75.2334 93.3027 79.2542 93.3027 83.3385C93.3027 87.975 97.0617 90.4185 100.979 91.648C105.009 92.9127 110.368 93.3333 116.001 93.3333C121.635 93.3333 126.994 92.9127 131.023 91.648C134.941 90.4185 138.7 87.975 138.7 83.3385C138.7 79.2542 135.66 75.2334 131.746 72.4027C127.696 69.4734 122.14 67.3655 116.001 67.3655Z" fill="#CC7DFA"/>
<path d="M101.223 146.4V161.16H99.0828V154.5H92.1228V161.16H90.0028V146.4H92.1228V152.66H99.0828V146.4H101.223ZM107.563 165.32H105.243L107.323 160.38L103.483 151.64H105.823L108.443 157.96L110.963 151.64H113.263L109.703 160.22L107.563 165.32ZM120.153 159.44C121.693 159.44 122.693 158.24 122.693 156.42C122.693 154.6 121.693 153.4 120.153 153.4C118.713 153.4 117.533 154.74 117.533 156.42C117.533 158.1 118.713 159.44 120.153 159.44ZM115.393 165.4V151.62H117.513V153.02C118.273 152.02 119.533 151.62 120.273 151.62C122.933 151.62 124.813 153.6 124.813 156.42C124.813 159.26 122.933 161.24 120.273 161.24C119.513 161.24 118.273 160.82 117.513 159.82V165.4H115.393ZM131.25 161.22C128.55 161.22 126.65 159.24 126.65 156.44C126.65 153.62 128.55 151.64 131.25 151.64C134.21 151.64 135.15 154.06 135.21 154.22C135.79 155.58 135.61 157.1 135.61 157.26H128.73C128.97 158.54 130.05 159.42 131.25 159.42C132.83 159.42 133.47 158.5 133.63 158.22L135.33 158.98C134.87 160.06 133.53 161.22 131.25 161.22ZM128.73 155.58H133.61C133.41 154.4 132.73 153.44 131.25 153.44C129.97 153.44 128.97 154.34 128.73 155.58ZM137.77 161.18V151.64H139.89V153.04C140.53 152.14 141.69 151.54 142.81 151.6V153.56C141.11 153.48 139.89 154.98 139.89 156.44V161.18H137.77Z" fill="white"/>
</svg>
