<svg width="72" height="72" viewBox="0 0 72 72" fill="none" xmlns="http://www.w3.org/2000/svg">
<rect width="72" height="72" rx="16" fill="#282828"/>
<path fill-rule="evenodd" clip-rule="evenodd" d="M21.375 26.2034C21.375 24.4216 23.5293 23.5293 24.7892 24.7892L31.125 31.125L39.4608 22.7892C40.2418 22.0082 41.5082 22.0082 42.2892 22.7892L50.0392 30.5392C50.4143 30.9143 50.625 31.423 50.625 31.9534V45.7966C50.625 47.5784 48.4707 48.4707 47.2108 47.2108L40.875 40.875L32.5392 49.2108C31.7582 49.9918 30.4918 49.9918 29.7108 49.2108L21.9608 41.4608C21.5857 41.0857 21.375 40.577 21.375 40.0466V26.2034ZM40.875 40.875V33.125C40.875 32.0204 39.9796 31.125 38.875 31.125H31.125V38.875C31.125 39.9796 32.0204 40.875 33.125 40.875H40.875Z" fill="#B3CD15"/>
</svg>
