<svg width="48" height="48" viewBox="0 0 48 48" fill="none" xmlns="http://www.w3.org/2000/svg">
<rect width="48" height="48" rx="12" fill="#282828"/>
<path fill-rule="evenodd" clip-rule="evenodd" d="M30.6562 29.6901C30.6562 30.7192 31.7725 31.3604 32.6614 30.8419L35.394 29.2479C35.8018 29.01 36.0534 28.5742 36.0555 28.1021L36.092 19.9107C36.0941 19.4322 35.8397 18.9893 35.4253 18.7501L32.6563 17.1513C31.7674 16.6381 30.6562 17.2796 30.6562 18.306V29.6901Z" fill="#E83153"/>
<path fill-rule="evenodd" clip-rule="evenodd" d="M17.3281 29.6902C17.3281 30.7193 16.2119 31.3604 15.323 30.842L12.5878 29.2465C12.18 29.0086 11.9283 28.5728 11.9262 28.1007L11.8898 19.9093C11.8876 19.4308 12.142 18.9879 12.5564 18.7486L15.3281 17.1484C16.217 16.6352 17.3281 17.2767 17.3281 18.3031V29.6902Z" fill="#E83153"/>
<path d="M24.6667 27.4334C24.2568 27.6677 23.7536 27.6677 23.3437 27.4334L21.3437 26.2906C20.9283 26.0532 20.6719 25.6114 20.6719 25.1329V22.8709C20.6719 22.3924 20.9283 21.9506 21.3437 21.7133L23.3437 20.5704C23.7536 20.3362 24.2568 20.3362 24.6667 20.5704L26.6667 21.7133C27.0822 21.9506 27.3385 22.3924 27.3385 22.8709V25.1329C27.3385 25.6114 27.0822 26.0532 26.6667 26.2906L24.6667 27.4334Z" fill="#E83153"/>
</svg>
