<svg width="72" height="72" viewBox="0 0 72 72" fill="none" xmlns="http://www.w3.org/2000/svg">
<rect width="72" height="72" rx="16" fill="#282828"/>
<path fill-rule="evenodd" clip-rule="evenodd" d="M46.0078 44.5307C46.0078 46.0742 47.6822 47.036 49.0155 46.2583L53.1105 43.8696C53.7223 43.5128 54.0997 42.8591 54.1028 42.1509L54.1575 29.8638C54.1607 29.1461 53.7791 28.4817 53.1576 28.1228L49.0078 25.727C47.6745 24.9572 46.0078 25.9194 46.0078 27.459V44.5307Z" fill="#E83153"/>
<path fill-rule="evenodd" clip-rule="evenodd" d="M26.0078 44.5405C26.0078 46.0841 24.3334 47.0458 23.0001 46.2681L18.8895 43.8703C18.2777 43.5135 17.9003 42.8598 17.8972 42.1517L17.8425 29.8645C17.8393 29.1468 18.2209 28.4824 18.8424 28.1236L23.0078 25.7187C24.3411 24.9489 26.0078 25.9111 26.0078 27.4507V44.5405Z" fill="#E83153"/>
<path d="M37.0001 41.1506C36.3852 41.502 35.6304 41.502 35.0155 41.1506L32.0155 39.4363C31.3924 39.0802 31.0078 38.4176 31.0078 37.6998V34.3069C31.0078 33.5891 31.3924 32.9265 32.0155 32.5704L35.0155 30.8561C35.6304 30.5047 36.3852 30.5047 37.0001 30.8561L40.0001 32.5704C40.6232 32.9265 41.0078 33.5891 41.0078 34.3069V37.6998C41.0078 38.4176 40.6232 39.0802 40.0001 39.4363L37.0001 41.1506Z" fill="#E83153"/>
</svg>
