<svg width="48" height="48" viewBox="0 0 48 48" fill="none" xmlns="http://www.w3.org/2000/svg">
<rect width="48" height="48" rx="12" fill="#282828"/>
<path d="M26.1667 13.5C26.903 13.5 27.5 14.097 27.5 14.8333V20.5L20.5 13.5H26.1667Z" fill="#F47725"/>
<path fill-rule="evenodd" clip-rule="evenodd" d="M34.5 27.5V21.8333C34.5 21.097 33.903 20.5 33.1667 20.5H27.5H21.8333C21.097 20.5 20.5 21.097 20.5 21.8333V27.5L13.5 20.5L20.5 13.5H14.8333C14.097 13.5 13.5 14.097 13.5 14.8333V20.5V26.1667C13.5 26.903 14.097 27.5 14.8333 27.5H20.5V33.1667C20.5 33.903 21.097 34.5 21.8333 34.5H27.5H33.1667C33.903 34.5 34.5 33.903 34.5 33.1667V27.5ZM34.5 27.5L27.5 34.5L20.5 27.5H26.1667C26.903 27.5 27.5 26.903 27.5 26.1667V20.5L34.5 27.5Z" fill="#F47725"/>
</svg>
