<svg width="48" height="48" viewBox="0 0 48 48" fill="none" xmlns="http://www.w3.org/2000/svg">
<rect width="48" height="48" rx="12" fill="#282828"/>
<path d="M12.1797 16.9886C12.1797 16.6379 12.3668 16.3139 12.6704 16.1386L18.5639 12.736C18.8676 12.5607 19.2417 12.5607 19.5454 12.736L25.4389 16.1386C25.7426 16.3139 25.9296 16.6379 25.9296 16.9886V22.4715C25.9296 23.227 25.1118 23.6992 24.4575 23.3215L22.6354 22.2695C22.3317 22.0942 22.1446 21.7702 22.1446 21.4195L22.1446 19.1704C22.1446 18.8198 21.9576 18.4958 21.6539 18.3205L19.5417 17.101C19.238 16.9257 18.8639 16.9257 18.5602 17.101L16.448 18.3205C16.1444 18.4958 15.9573 18.8198 15.9573 19.1704L15.9573 21.6094C15.9573 21.9601 16.1444 22.2841 16.448 22.4594L17.5714 23.108C18.2257 23.4857 18.2257 24.4301 17.5714 24.8079L15.7538 25.8573C15.4501 26.0326 15.076 26.0326 14.7723 25.8573L12.6704 24.6438C12.3668 24.4685 12.1797 24.1445 12.1797 23.7938L12.1797 16.9886Z" fill="#00B6AD"/>
<path d="M35.8125 31.011C35.8125 31.3616 35.6254 31.6856 35.3217 31.8609L29.4282 35.2636C29.1245 35.4389 28.7504 35.4389 28.4467 35.2636L22.5532 31.8609C22.2496 31.6856 22.0625 31.3616 22.0625 31.011L22.0625 25.5659C22.0625 24.8104 22.8804 24.3382 23.5347 24.7159L25.3568 25.7679C25.6604 25.9432 25.8475 26.2672 25.8475 26.6179V28.8291C25.8475 29.1798 26.0346 29.5038 26.3382 29.6791L28.4504 30.8986C28.7541 31.0739 29.1282 31.0739 29.4319 30.8986L31.5441 29.6791C31.8478 29.5038 32.0348 29.1797 32.0348 28.8291V26.3901C32.0348 26.0395 31.8478 25.7155 31.5441 25.5402L30.4207 24.8916C29.7664 24.5138 29.7664 23.5694 30.4207 23.1917L32.2384 22.1422C32.542 21.9669 32.9162 21.9669 33.2198 22.1422L35.3217 23.3558C35.6254 23.5311 35.8125 23.8551 35.8125 24.2057V31.011Z" fill="#00B6AD"/>
</svg>
