<svg width="48" height="48" viewBox="0 0 48 48" fill="none" xmlns="http://www.w3.org/2000/svg">
<rect width="48" height="48" rx="12" fill="#282828"/>
<path d="M23.3196 12.4194C23.739 12.1705 24.261 12.1705 24.6804 12.4194L27.0678 13.8361C27.9383 14.3527 27.9383 15.6128 27.0678 16.1294L24.6804 17.5461C24.261 17.795 23.739 17.795 23.3196 17.5461L20.9322 16.1294C20.0617 15.6128 20.0617 14.3527 20.9322 13.8361L23.3196 12.4194Z" fill="#A04CE2"/>
<path d="M23.3196 30.4546C23.739 30.2056 24.261 30.2056 24.6804 30.4546L27.0678 31.8713C27.9383 32.3879 27.9383 33.648 27.0678 34.1646L24.6804 35.5813C24.261 35.8302 23.739 35.8302 23.3196 35.5813L20.9322 34.1646C20.0617 33.648 20.0617 32.3879 20.9322 31.8713L23.3196 30.4546Z" fill="#A04CE2"/>
<path d="M33.413 17.5544C33.8307 17.796 34.0853 18.2444 34.0786 18.7269L34.038 21.6654C34.0238 22.6939 32.8996 23.3196 32.018 22.7898L29.6402 21.3608C29.2391 21.1198 28.9937 20.686 28.9937 20.218L28.9937 17.3095C28.9937 16.2826 30.1058 15.6412 30.9947 16.1554L33.413 17.5544Z" fill="#A04CE2"/>
<path d="M14.5792 17.5544C14.1615 17.796 13.9069 18.2444 13.9136 18.7269L13.9542 21.6654C13.9684 22.6939 15.0926 23.3196 15.9742 22.7898L18.3519 21.3608C18.7531 21.1198 18.9985 20.686 18.9985 20.218L18.9985 17.3095C18.9985 16.2826 17.8864 15.6412 16.9975 16.1554L14.5792 17.5544Z" fill="#A04CE2"/>
<path d="M33.413 30.4134C33.8307 30.1718 34.0853 29.7234 34.0786 29.2409L34.038 26.3024C34.0238 25.2739 32.8996 24.6481 32.018 25.178L29.6402 26.6069C29.2391 26.848 28.9937 27.2818 28.9937 27.7498L28.9937 30.6582C28.9937 31.6851 30.1058 32.3266 30.9947 31.8124L33.413 30.4134Z" fill="#A04CE2"/>
<path d="M14.5792 30.4134C14.1615 30.1718 13.9069 29.7234 13.9136 29.2409L13.9542 26.3024C13.9684 25.2739 15.0926 24.6481 15.9742 25.178L18.3519 26.6069C18.7531 26.848 18.9985 27.2818 18.9985 27.7498L18.9985 30.6582C18.9985 31.6851 17.8864 32.3266 16.9975 31.8124L14.5792 30.4134Z" fill="#A04CE2"/>
</svg>
