<svg width="48" height="48" viewBox="0 0 48 48" fill="none" xmlns="http://www.w3.org/2000/svg">
<rect width="48" height="48" rx="12" fill="#282828"/>
<path fill-rule="evenodd" clip-rule="evenodd" d="M14.25 17.469C14.25 16.2811 15.6862 15.6862 16.5261 16.5261L20.75 20.75L26.3072 15.1928C26.8279 14.6721 27.6721 14.6721 28.1928 15.1928L33.3595 20.3595C33.6095 20.6095 33.75 20.9487 33.75 21.3023V30.531C33.75 31.7189 32.3138 32.3138 31.4739 31.4739L27.25 27.25L21.6928 32.8072C21.1721 33.3279 20.3279 33.3279 19.8072 32.8072L14.6405 27.6405C14.3905 27.3905 14.25 27.0513 14.25 26.6977V17.469ZM27.25 27.25V22.0833C27.25 21.347 26.653 20.75 25.9167 20.75H20.75V25.9167C20.75 26.653 21.347 27.25 22.0833 27.25H27.25Z" fill="#B3CD15"/>
</svg>
