<svg width="160" height="160" viewBox="0 0 160 160" fill="none" xmlns="http://www.w3.org/2000/svg">
<g clip-path="url(#clip0_3819_10181)">
<path opacity="0.8" d="M141.959 93.8061L27.3008 160V76.9832L141.959 10.7892V93.8061Z" fill="url(#paint0_linear_3819_10181)"/>
<path d="M142.584 13.8197L27.9258 80.0137V65.7917L142.584 -0.402222V13.8197Z" fill="#3688EA"/>
<path opacity="0.9" d="M93.4293 106.644L10.7227 154.392V103.494L93.4293 55.7455V106.644Z" fill="#0238A6"/>
<path d="M93.4293 59.5158L10.7227 107.264V101.776L93.4293 54.0274V59.5158Z" fill="#3688EA"/>
<path opacity="0.9" d="M148.29 82.1133L105.791 106.644V58.8953L148.29 34.3649V82.1133Z" fill="#6FC0FD"/>
<path d="M148.29 38.1352L105.791 62.6657V57.1773L148.29 32.6469V38.1352Z" fill="#3688EA"/>
<path d="M140.464 4.48925C140.464 5.13353 139.939 5.96871 139.271 6.35051C138.627 6.7323 138.078 6.49368 138.078 5.8494C138.078 5.20512 138.603 4.36994 139.271 3.98815C139.915 3.60635 140.464 3.84497 140.464 4.48925ZM134.737 6.61299C134.093 6.99479 133.544 7.82997 133.544 8.47425C133.544 9.11853 134.069 9.35716 134.737 8.97536C135.405 8.59357 135.93 7.75838 135.93 7.1141C135.93 6.46982 135.405 6.2312 134.737 6.61299ZM130.179 9.26171C129.535 9.6435 128.986 10.4787 128.986 11.123C128.986 11.7672 129.511 12.0059 130.179 11.6241C130.824 11.2423 131.373 10.4071 131.373 9.76281C131.373 9.11853 130.848 8.87991 130.179 9.26171Z" fill="#F0F6FD"/>
<path d="M91.403 57.8932C91.403 58.3943 90.9974 59.0385 90.4724 59.3488C89.9713 59.6351 89.5418 59.4681 89.5418 58.9669C89.5418 58.4658 89.9474 57.8216 90.4724 57.5114C90.9735 57.225 91.403 57.392 91.403 57.8932ZM86.9408 59.5396C86.4397 59.826 86.0101 60.4703 86.0101 60.9952C86.0101 61.5202 86.4158 61.6873 86.9408 61.377C87.4419 61.0907 87.8475 60.4464 87.8475 59.9214C87.8475 59.3965 87.4419 59.2294 86.9408 59.5396ZM83.4092 61.5918C82.908 61.8782 82.4785 62.5224 82.4785 63.0474C82.4785 63.5724 82.8842 63.7394 83.4092 63.4292C83.9103 63.1429 84.3159 62.4986 84.3159 61.9736C84.3159 61.4486 83.9103 61.2816 83.4092 61.5918Z" fill="#F0F6FD"/>
<path d="M146.692 36.3695C146.692 36.8706 146.286 37.5148 145.761 37.8251C145.236 38.1353 144.831 37.9444 144.831 37.4433C144.831 36.9422 145.236 36.2979 145.761 35.9877C146.286 35.6774 146.692 35.8683 146.692 36.3695ZM142.23 38.0159C141.729 38.3023 141.299 38.9466 141.299 39.4715C141.299 39.9965 141.705 40.1636 142.23 39.8533C142.755 39.5431 143.16 38.9227 143.16 38.3977C143.16 37.8728 142.755 37.7057 142.23 38.0159ZM138.698 40.0681C138.197 40.3545 137.768 40.9987 137.768 41.5237C137.768 42.0487 138.173 42.2157 138.698 41.9055C139.223 41.5953 139.629 40.9749 139.629 40.4499C139.629 39.9249 139.223 39.7579 138.698 40.0681Z" fill="#F0F6FD"/>
<path d="M79.1912 106.826C79.1912 106.826 79.0958 106.922 79.0958 106.97V107.28C57.1664 119.927 46.142 126.298 25.6443 138.134V106.659L25.9784 106.468C25.9784 106.468 26.0738 106.373 26.0738 106.325C26.0738 106.278 26.0261 106.254 25.9784 106.278L25.0954 106.779C25.0954 106.779 25 106.874 25 106.922C25 106.97 25.0477 106.993 25.0954 106.97L25.4295 106.779V138.372C25.4295 138.372 25.4772 138.468 25.5488 138.42C32.6359 134.34 72.0326 111.599 79.1197 107.495V107.829C79.1197 107.829 79.1674 107.9 79.2151 107.876C79.2628 107.852 79.3106 107.781 79.3106 107.733V106.85C79.3106 106.85 79.2628 106.779 79.2151 106.803L79.1912 106.826Z" fill="white"/>
<path d="M27.5813 135.557C27.5813 135.557 27.4382 135.604 27.4143 135.557C27.3427 135.509 27.3427 135.342 27.4382 135.223L32.7833 127.778C32.7833 127.778 32.8788 127.682 32.9265 127.634L40.2761 123.387L47.0052 114.272C47.0052 114.272 47.1007 114.176 47.1484 114.152L55.7388 109.189L62.6828 98.0929C62.6828 98.0929 62.7782 97.9497 62.8498 97.9259L65.3076 96.518L71.7266 86.9492C71.7266 86.9492 71.822 86.8538 71.8697 86.806L78.9091 82.7256C79.0284 82.654 79.1477 82.7017 79.1477 82.821C79.1477 82.9404 79.0523 83.1074 78.9091 83.179L71.9413 87.2117L65.5224 96.7805C65.5224 96.7805 65.4269 96.8759 65.3792 96.9237L62.9452 98.3315L56.0013 109.427C56.0013 109.427 55.9059 109.571 55.8343 109.595L47.22 114.558L40.4908 123.673C40.4908 123.673 40.3954 123.769 40.3477 123.793L32.9981 128.04L27.7245 135.39C27.7245 135.39 27.6291 135.485 27.5813 135.533V135.557Z" fill="white"/>
<path d="M55.6134 97.6633L52.9886 99.1905L47.1662 94.2987C47.1662 94.2987 47.0707 94.2987 46.9991 94.3226L27.6468 105.49C27.5275 105.562 27.4082 105.729 27.4082 105.848C27.4082 105.967 27.5037 106.015 27.6468 105.943L46.9037 94.8237L52.7261 99.7154C52.7261 99.7154 52.8215 99.7154 52.8931 99.6916L55.0884 98.4269L55.6134 97.6633Z" fill="white"/>
<path d="M78.9034 90.1229L70.9812 94.7044L66.9962 91.1728C66.9962 91.1728 66.8769 91.1489 66.8053 91.1728L58.7875 95.8021L58.2148 96.5895L66.686 91.6978L70.671 95.2294C70.671 95.2294 70.7903 95.2533 70.8619 95.2294L78.9034 90.5762C79.0228 90.5047 79.1421 90.3376 79.1421 90.2183C79.1421 90.099 79.0466 90.0513 78.9034 90.1229Z" fill="white"/>
<path d="M30.9652 129.209L27.6722 131.118C27.5529 131.19 27.4336 131.142 27.4336 131.023C27.4336 130.903 27.529 130.736 27.6722 130.665L30.8936 128.804L47.5972 106.612C47.5972 106.612 47.6927 106.516 47.7404 106.492L50.3175 104.989L55.0184 98.0689C55.0184 98.0689 55.1138 97.9496 55.1616 97.9257L58.1444 96.2077L65.2315 85.923C65.2315 85.923 65.3269 85.8276 65.3746 85.8037L78.9045 78.0007C79.0238 77.9291 79.1432 77.9769 79.1432 78.0962C79.1432 78.2155 79.0477 78.3825 78.9045 78.4541L65.4701 86.2093L58.383 96.494C58.383 96.494 58.2875 96.5894 58.2398 96.6133L55.257 98.3314L50.5561 105.251C50.5561 105.251 50.4607 105.371 50.413 105.395L47.812 106.898L31.1084 129.09C31.1084 129.09 31.0129 129.185 30.9652 129.209Z" fill="white"/>
<path d="M72.8467 102.006L64.4234 106.874C64.4234 106.874 64.2802 106.922 64.2325 106.874L58.0521 101.195L56.9545 101.839L52.8502 107.733C52.8502 107.733 52.7547 107.853 52.707 107.876L47.3141 110.979L40.9429 119.378C40.9429 119.378 40.8474 119.473 40.7997 119.497L27.6039 127.109C27.4845 127.181 27.3652 127.133 27.3652 127.014C27.3652 126.895 27.4607 126.728 27.6039 126.656L40.7281 119.092L47.0993 110.692C47.0993 110.692 47.1948 110.597 47.2425 110.573L52.6115 107.471L56.7158 101.577C56.7158 101.577 56.8113 101.457 56.859 101.434L58.1714 100.67C58.1714 100.67 58.3146 100.622 58.3623 100.67L64.5427 106.349L72.7752 101.601L76.6886 96.3987C76.6886 96.3987 76.784 96.3032 76.8318 96.2793L78.9316 95.0624C79.0509 94.9908 79.1703 95.0385 79.1703 95.1578C79.1703 95.2771 79.0748 95.4442 78.9316 95.5158L76.9033 96.685L72.9899 101.887C72.9899 101.887 72.8945 101.982 72.8467 102.006Z" fill="white"/>
<path d="M79.2851 82.7732C79.2851 82.988 79.118 83.2505 78.9033 83.3698C78.6885 83.4891 78.5215 83.4175 78.5215 83.2027C78.5215 82.988 78.6885 82.7255 78.9033 82.6062C79.118 82.4869 79.2851 82.5585 79.2851 82.7732Z" fill="white"/>
<path d="M79.2851 77.953C79.2851 78.1678 79.118 78.4303 78.9033 78.5496C78.6885 78.6689 78.5215 78.5973 78.5215 78.3825C78.5215 78.1678 78.6885 77.9053 78.9033 77.786C79.118 77.6667 79.2851 77.7383 79.2851 77.953Z" fill="white"/>
<path d="M27.9589 135.127C27.9589 135.342 27.7919 135.604 27.5771 135.724C27.3623 135.843 27.1953 135.771 27.1953 135.557C27.1953 135.342 27.3623 135.079 27.5771 134.96C27.7919 134.841 27.9589 134.912 27.9589 135.127Z" fill="white"/>
<path d="M27.9589 130.713C27.9589 130.927 27.7919 131.19 27.5771 131.309C27.3623 131.428 27.1953 131.357 27.1953 131.142C27.1953 130.927 27.3623 130.665 27.5771 130.546C27.7919 130.426 27.9589 130.498 27.9589 130.713Z" fill="white"/>
<path d="M27.9589 126.656C27.9589 126.871 27.7919 127.133 27.5771 127.253C27.3623 127.372 27.1953 127.3 27.1953 127.086C27.1953 126.871 27.3623 126.608 27.5771 126.489C27.7919 126.37 27.9589 126.441 27.9589 126.656Z" fill="white"/>
<path d="M79.2851 95.0622C79.2851 95.277 79.118 95.5395 78.9033 95.6588C78.6885 95.7781 78.5215 95.7065 78.5215 95.4917C78.5215 95.277 78.6885 95.0145 78.9033 94.8952C79.118 94.7759 79.2851 94.8475 79.2851 95.0622Z" fill="white"/>
<path d="M79.2851 90.1465C79.2851 90.3613 79.118 90.6238 78.9033 90.7431C78.6885 90.8624 78.5215 90.7908 78.5215 90.576C78.5215 90.3613 78.6885 90.0988 78.9033 89.9795C79.118 89.8602 79.2851 89.9317 79.2851 90.1465Z" fill="white"/>
<path d="M27.9589 105.514C27.9589 105.729 27.7919 105.991 27.5771 106.111C27.3623 106.23 27.1953 106.158 27.1953 105.943C27.1953 105.729 27.3623 105.466 27.5771 105.347C27.7919 105.228 27.9589 105.299 27.9589 105.514Z" fill="white"/>
<path d="M109.674 96.2877L108.219 97.1467V97.7433L109.674 96.9081V96.2877Z" fill="#52B5FF"/>
<path d="M112.775 94.5219L110.627 95.7389V96.3593L112.775 95.1184V94.5219Z" fill="#52B5FF"/>
<path d="M111.703 96.765L108.219 98.7933V99.3898L111.703 97.3854V96.765Z" fill="#52B5FF"/>
<path d="M107.527 43.087L106 43.9699V44.5665L107.527 43.6836V43.087Z" fill="#52B5FF"/>
<path d="M110.749 41.2259L108.506 42.5145V43.111L110.749 41.8224V41.2259Z" fill="#52B5FF"/>
<path d="M116.358 37.9807L111.729 40.6532V41.2498L116.358 38.5772V37.9807Z" fill="#52B5FF"/>
<path d="M119.77 36L117.336 37.4079V38.0044L119.77 36.5966V36Z" fill="#52B5FF"/>
<path d="M109.412 43.636L106 45.6166V46.2131L109.412 44.2325V43.636Z" fill="#52B5FF"/>
<path d="M112.655 41.7509L110.412 43.0395V43.6599L112.655 42.3713V41.7509Z" fill="#52B5FF"/>
<path d="M115.327 40.2238L113.633 41.1783V41.7987L115.327 40.8203V40.2238Z" fill="#52B5FF"/>
<path d="M118.001 38.6725L116.307 39.6508V40.2474L118.001 39.269V38.6725Z" fill="#52B5FF"/>
<path d="M107.527 46.3562L106 47.2391V47.8357L107.527 46.9528V46.3562Z" fill="#52B5FF"/>
<path d="M111.632 43.9701L108.506 45.7836V46.3802L111.632 44.5905V43.9701Z" fill="#52B5FF"/>
<path d="M115.878 41.5359L112.656 43.3972V43.9938L115.878 42.1325V41.5359Z" fill="#52B5FF"/>
<path d="M109.198 47.0245L106 48.8858V49.4823L109.198 47.6211V47.0245Z" fill="#52B5FF"/>
<path d="M113.392 44.6143L110.266 46.4039V47.0005L113.392 45.2108V44.6143Z" fill="#52B5FF"/>
<path d="M115.882 43.1586L114.475 43.9938V44.5904L115.882 43.7791V43.1586Z" fill="#52B5FF"/>
<path d="M111.496 89.3414C110.6 88.8147 109.336 88.8674 107.967 89.7101L84.9508 102.982C82.2121 104.563 80 108.407 80 111.567V137.849C80.0527 139.429 80.632 140.535 81.5274 141.009L86.1095 143.642C85.2141 143.116 84.6875 142.01 84.6875 140.482V114.201C84.5821 111.041 86.7942 107.196 89.5329 105.616L112.549 92.3435C113.918 91.5535 115.182 91.4482 116.078 91.9748L111.496 89.3414Z" fill="url(#paint1_linear_3819_10181)"/>
<path d="M84.9508 102.983C82.2121 104.563 80 108.407 80 111.567L84.5821 114.201C84.5821 111.041 86.7942 107.196 89.5329 105.616L84.9508 102.983Z" fill="#F6F2ED"/>
<path d="M111.503 89.3414C110.608 88.8147 109.344 88.8674 107.975 89.7101L112.557 92.3435C113.926 91.5535 115.19 91.4481 116.085 91.9748L111.503 89.3414Z" fill="#F6F2ED"/>
<path opacity="0.9" d="M117.498 95.1874C117.498 92.0273 115.286 90.7633 112.547 92.3433L89.5309 105.616C86.7922 107.196 84.5801 111.04 84.5801 114.201V140.482C84.6854 143.642 86.8975 144.906 89.6362 143.326L112.652 130.054C115.391 128.474 117.603 124.629 117.603 121.521V95.2401L117.498 95.1874Z" fill="#2983FF"/>
<path d="M105.909 104.773C102.749 102.192 96.6397 104.72 92.2156 110.409C87.8442 116.097 86.7908 122.786 89.9509 125.419C92.6896 127.684 97.7458 126.051 101.907 121.785L108.806 127.473C109.438 128 110.702 127.473 111.545 126.314C112.44 125.156 112.651 123.786 112.019 123.312L105.119 117.624C108.227 112.515 108.648 107.09 105.909 104.826V104.773ZM102.381 118.73C98.9571 123.154 94.1643 125.156 91.6889 123.102C89.2135 121.1 90.0562 115.833 93.4797 111.409C96.9031 106.985 101.696 104.984 104.171 107.038C106.647 109.092 105.804 114.306 102.381 118.73Z" fill="#FDFAF5"/>
<g clip-path="url(#clip1_3819_10181)">
<path d="M116.023 88.571L114.998 89.1598V87.3224L116.023 86.7234V88.571Z" fill="white"/>
<path d="M117.537 87.698L116.512 88.2868V82.8252L117.537 82.2365V87.698Z" fill="white"/>
<path d="M119.049 86.8249L118.023 87.4137V77.3738L119.049 76.785V86.8249Z" fill="white"/>
<path d="M120.56 85.9519L119.535 86.5407V72.6838L120.56 72.095V85.9519Z" fill="white"/>
<path d="M122.074 85.0789L121.049 85.6677V68.8364L122.074 68.2375V85.0789Z" fill="white"/>
<path d="M123.596 84.1957L122.561 84.7947V72.2474L123.596 71.6586V84.1957Z" fill="white"/>
<path d="M125.107 83.3226L124.082 83.9216V77.6378L125.107 77.0388V83.3226Z" fill="white"/>
<path d="M126.621 82.4496L125.596 83.0485V79.932L126.621 79.3432V82.4496Z" fill="white"/>
<path d="M128.135 81.5766L127.109 82.1755V73.7294L128.135 73.1406V81.5766Z" fill="white"/>
<path d="M129.646 80.7038L128.621 81.3027V71.2527L129.646 70.6639V80.7038Z" fill="white"/>
<path d="M131.158 79.8305L130.133 80.4193V69.4963L131.158 68.9075V79.8305Z" fill="white"/>
<path d="M132.672 78.9575L131.646 79.5463V71.5874L132.672 70.9987V78.9575Z" fill="white"/>
<path d="M134.185 78.0844L133.16 78.6732V66.1056L134.185 65.5067V78.0844Z" fill="white"/>
<path d="M135.699 77.2114L134.674 77.8002V55.5886L135.699 54.9998V77.2114Z" fill="white"/>
<path d="M137.209 76.3384L136.184 76.9272V58.4716L137.209 57.8727V76.3384Z" fill="white"/>
<path d="M138.733 75.4653L137.697 76.0541V65.9533L138.733 65.3544V75.4653Z" fill="white"/>
<path d="M140.244 74.5922L139.219 75.181V62.6337L140.244 62.0449V74.5922Z" fill="white"/>
<path d="M141.756 73.7193L140.73 74.3081V59.2635L141.756 58.6747V73.7193Z" fill="white"/>
</g>
</g>
<defs>
<linearGradient id="paint0_linear_3819_10181" x1="84.6299" y1="10.7892" x2="84.6299" y2="160" gradientUnits="userSpaceOnUse">
<stop stop-color="#F6FAFC"/>
<stop offset="1" stop-color="#E3ECF1"/>
</linearGradient>
<linearGradient id="paint1_linear_3819_10181" x1="90.2703" y1="114.043" x2="88.0055" y2="117.94" gradientUnits="userSpaceOnUse">
<stop stop-color="#FDFAF5"/>
<stop offset="0.08" stop-color="#E9E6E0"/>
<stop offset="0.17" stop-color="#D9D4CD"/>
<stop offset="0.27" stop-color="#CFCAC2"/>
<stop offset="0.38" stop-color="#CCC7BF"/>
<stop offset="0.76" stop-color="#C5C0B7"/>
<stop offset="1" stop-color="#BEB9B0"/>
</linearGradient>
<clipPath id="clip0_3819_10181">
<rect width="142.703" height="160" fill="white" transform="translate(8.14844)"/>
</clipPath>
<clipPath id="clip1_3819_10181">
<rect width="26.7595" height="34.16" fill="white" transform="translate(115 55)"/>
</clipPath>
</defs>
</svg>
