<svg width="160" height="160" viewBox="0 0 160 160" fill="none" xmlns="http://www.w3.org/2000/svg">
<g clip-path="url(#clip0_3819_10336)">
<path d="M38.4132 54.469C38.4132 54.469 38.2665 54.4527 38.2013 54.4201L4.38843 34.9051C4.19279 34.791 4.12758 34.5302 4.2417 34.3345C4.35582 34.1389 4.61668 34.0737 4.81232 34.1878L38.6252 53.7028C38.8208 53.8169 38.886 54.0777 38.7719 54.2734C38.6904 54.4038 38.56 54.4853 38.4132 54.4853V54.469Z" fill="url(#paint0_linear_3819_10336)"/>
<path d="M81.1445 86.4395L69.4551 79.69L81.1445 72.9405L92.8339 79.69L81.1445 86.4395Z" fill="#F6F2ED"/>
<path d="M81.1445 99.0094L69.4551 92.2762V79.6901L81.1445 86.4396V99.0094Z" fill="#CCC7BF"/>
<path d="M92.8339 92.2761L81.1445 99.0094V86.4396L92.8339 79.6901V92.2761Z" fill="#E9E4DB"/>
<path d="M94.2812 94.0205L82.5918 87.271L94.2812 80.5377L105.971 87.271L94.2812 94.0205Z" fill="#F6F2ED"/>
<path d="M94.2812 106.607L82.5918 99.857V87.2709L94.2812 94.0205V106.607Z" fill="#CCC7BF"/>
<path d="M105.971 99.857L94.2812 106.607V94.0205L105.971 87.2709V99.857Z" fill="#E9E4DB"/>
<path d="M107.443 101.618L95.7539 94.8684L107.443 88.1188L119.116 94.8684L107.443 101.618Z" fill="#F6F2ED"/>
<path d="M107.443 114.188L95.7539 107.455V94.8685L107.443 101.618V114.188Z" fill="#CCC7BF"/>
<path d="M119.116 107.455L107.443 114.188V101.618L119.116 94.8685V107.455Z" fill="#E9E4DB"/>
<path d="M120.58 109.199L108.891 102.449L120.58 95.7161L132.269 102.449L120.58 109.199Z" fill="#F6F2ED"/>
<path d="M120.58 121.785L108.891 115.035V102.449L120.58 109.199V121.785Z" fill="#CCC7BF"/>
<path d="M132.269 115.035L120.58 121.785V109.199L132.269 102.449V115.035Z" fill="#E9E4DB"/>
<path d="M67.9511 94.0532L56.2617 87.3037L67.9511 80.5541L79.6405 87.3037L67.9511 94.0532Z" fill="#F6F2ED"/>
<path d="M67.9511 106.623L56.2617 99.8898V87.3037L67.9511 94.0533V106.623Z" fill="#CCC7BF"/>
<path d="M79.6406 99.8898L67.9512 106.623V94.0532L79.6406 87.3037V99.8898Z" fill="#E9E4DB"/>
<path d="M81.0911 101.634L69.418 94.8846L81.0911 88.1514L92.7805 94.8846L81.0911 101.634Z" fill="#F6F2ED"/>
<path d="M81.0911 114.22L69.418 107.471V94.8846L81.0911 101.634V114.22Z" fill="#CCC7BF"/>
<path d="M92.7812 107.471L81.0918 114.22V101.634L92.7812 94.8846V107.471Z" fill="#E9E4DB"/>
<path d="M94.2519 109.231L82.5625 102.482L94.2519 95.7324L105.925 102.482L94.2519 109.231Z" fill="#F6F2ED"/>
<path d="M94.2519 121.801L82.5625 115.068V102.482L94.2519 109.232V121.801Z" fill="#CCC7BF"/>
<path d="M105.925 115.068L94.252 121.801V109.231L105.925 102.482V115.068Z" fill="#E9E4DB"/>
<path d="M54.7629 101.667L43.0898 94.9172L54.7629 88.1677L66.4524 94.9172L54.7629 101.667Z" fill="#F6F2ED"/>
<path d="M54.7629 114.236L43.0898 107.503V94.9172L54.7629 101.667V114.236Z" fill="#CCC7BF"/>
<path d="M66.4531 107.503L54.7637 114.236V101.667L66.4531 94.9172V107.503Z" fill="#E9E4DB"/>
<path d="M67.9218 109.248L56.2324 102.498L67.9218 95.7648L79.5949 102.498L67.9218 109.248Z" fill="#F6F2ED"/>
<path d="M67.9218 121.834L56.2324 115.084V102.498L67.9218 109.248V121.834Z" fill="#CCC7BF"/>
<path d="M79.595 115.084L67.9219 121.834V109.248L79.595 102.498V115.084Z" fill="#E9E4DB"/>
<path d="M81.0644 116.845L69.375 110.095L81.0644 103.346L92.7538 110.095L81.0644 116.845Z" fill="#F6F2ED"/>
<path d="M81.0644 129.415L69.375 122.682V110.096L81.0644 116.845V129.415Z" fill="#CCC7BF"/>
<path d="M92.7539 122.682L81.0645 129.415V116.845L92.7539 110.096V122.682Z" fill="#E9E4DB"/>
<path d="M94.2031 124.426L82.5137 117.676L94.2031 110.943L105.892 117.676L94.2031 124.426Z" fill="#F6F2ED"/>
<path d="M94.2031 137.012L82.5137 130.263V117.676L94.2031 124.426V137.012Z" fill="#CCC7BF"/>
<path d="M105.893 130.263L94.2031 137.012V124.426L105.893 117.676V130.263Z" fill="#E9E4DB"/>
<path d="M41.5735 109.28L29.9004 102.531L41.5735 95.7814L53.2629 102.531L41.5735 109.28Z" fill="#BCB5AB"/>
<path d="M41.5735 121.85L29.9004 115.117V102.531L41.5735 109.281V121.85Z" fill="#CCC7BF"/>
<path d="M53.2636 115.117L41.5742 121.85V109.281L53.2636 102.531V115.117Z" fill="#A29D96"/>
<path d="M54.7324 116.861L43.043 110.112L54.7324 103.362L66.4218 110.112L54.7324 116.861Z" fill="#BCB5AB"/>
<path d="M54.7324 129.448L43.043 122.698V110.112L54.7324 116.861V129.448Z" fill="#CCC7BF"/>
<path d="M66.4218 122.698L54.7324 129.448V116.861L66.4218 110.112V122.698Z" fill="#E9E4DB"/>
<path d="M67.8691 124.459L56.1797 117.709L67.8691 110.96L79.5585 117.709L67.8691 124.459Z" fill="#BCB5AB"/>
<path d="M67.8691 137.029L56.1797 130.295V117.709L67.8691 124.459V137.029Z" fill="#CCC7BF"/>
<path d="M79.5585 130.295L67.8691 137.029V124.459L79.5585 117.709V130.295Z" fill="#E9E4DB"/>
<path d="M81.0149 141.414L69.3418 134.664L81.0149 127.931L92.7043 134.664L81.0149 141.414Z" fill="#2875F3"/>
<path d="M81.0149 154L69.3418 147.251V134.664L81.0149 141.414V154Z" fill="#0238A6"/>
<path d="M92.705 147.251L81.0156 154V141.414L92.705 134.664V147.251Z" fill="#1755D2"/>
<path d="M81.1445 72.1089L69.4551 65.3594L81.1445 58.6262L92.8339 65.3594L81.1445 72.1089Z" fill="#F6F2ED"/>
<path d="M81.1445 84.695L69.4551 77.9455V65.3594L81.1445 72.1089V84.695Z" fill="#CCC7BF"/>
<path d="M92.8339 77.9455L81.1445 84.695V72.1089L92.8339 65.3594V77.9455Z" fill="#E9E4DB"/>
<path d="M94.2812 79.7063L82.5918 72.9568L94.2812 66.2073L105.971 72.9568L94.2812 79.7063Z" fill="#F6F2ED"/>
<path d="M94.2812 92.2762L82.5918 85.5429V72.9568L94.2812 79.7064V92.2762Z" fill="#CCC7BF"/>
<path d="M105.971 85.5429L94.2812 92.2762V79.7064L105.971 72.9568V85.5429Z" fill="#E9E4DB"/>
<path d="M107.443 87.2876L95.7539 80.538L107.443 73.8048L119.116 80.538L107.443 87.2876Z" fill="#BCB5AB"/>
<path d="M107.443 99.8736L95.7539 93.1241V80.538L107.443 87.2876V99.8736Z" fill="#CCC7BF"/>
<path d="M119.116 93.1241L107.443 99.8736V87.2876L119.116 80.538V93.1241Z" fill="#E9E4DB"/>
<path d="M120.58 94.8845L108.891 88.135L120.58 81.3854L132.269 88.135L120.58 94.8845Z" fill="#F6F2ED"/>
<path d="M120.58 107.471L108.891 100.721V88.135L120.58 94.8846V107.471Z" fill="#CCC7BF"/>
<path d="M132.269 100.721L120.58 107.471V94.8845L132.269 88.135V100.721Z" fill="#E9E4DB"/>
<path d="M67.9511 79.7227L56.2617 72.9732L67.9511 66.2399L79.6405 72.9732L67.9511 79.7227Z" fill="#F6F2ED"/>
<path d="M67.9511 92.3088L56.2617 85.5592V72.9731L67.9511 79.7227V92.3088Z" fill="#CCC7BF"/>
<path d="M79.6406 85.5592L67.9512 92.3088V79.7227L79.6406 72.9731V85.5592Z" fill="#E9E4DB"/>
<path d="M81.0911 87.3199L69.418 80.5704L81.0911 73.8209L92.7805 80.5704L81.0911 87.3199Z" fill="#F6F2ED"/>
<path d="M81.0911 99.8898L69.418 93.1565V80.5705L81.0911 87.32V99.8898Z" fill="#CCC7BF"/>
<path d="M92.7812 93.1565L81.0918 99.8898V87.32L92.7812 80.5705V93.1565Z" fill="#E9E4DB"/>
<path d="M94.2519 94.901L82.5625 88.1514L94.2519 81.4182L105.925 88.1514L94.2519 94.901Z" fill="#F6F2ED"/>
<path d="M94.2519 107.487L82.5625 100.738V88.1515L94.2519 94.901V107.487Z" fill="#CCC7BF"/>
<path d="M105.925 100.738L94.252 107.487V94.901L105.925 88.1515V100.738Z" fill="#E9E4DB"/>
<path d="M107.393 102.498L95.7031 95.7487L107.393 88.9992L119.082 95.7487L107.393 102.498Z" fill="#F6F2ED"/>
<path d="M107.393 115.084L95.7031 108.335V95.7488L107.393 102.498V115.084Z" fill="#CCC7BF"/>
<path d="M119.082 108.335L107.393 115.084V102.498L119.082 95.7488V108.335Z" fill="#E9E4DB"/>
<path d="M54.7629 87.3363L43.0898 80.5868L54.7629 73.8535L66.4524 80.5868L54.7629 87.3363Z" fill="#A29D96"/>
<path d="M54.7629 99.9224L43.0898 93.1729V80.5868L54.7629 87.3363V99.9224Z" fill="#A29D96"/>
<path d="M66.4531 93.1729L54.7637 99.9224V87.3363L66.4531 80.5868V93.1729Z" fill="#A29D96"/>
<path d="M67.9218 94.9338L56.2324 88.1842L67.9218 81.4347L79.5949 88.1842L67.9218 94.9338Z" fill="#A29D96"/>
<path d="M67.9218 107.504L56.2324 100.77V88.1843L67.9218 94.9338V107.504Z" fill="#A29D96"/>
<path d="M79.595 100.77L67.9219 107.504V94.9338L79.595 88.1843V100.77Z" fill="#A29D96"/>
<path d="M81.0644 102.515L69.375 95.7651L81.0644 89.0319L92.7538 95.7651L81.0644 102.515Z" fill="#F6F2ED"/>
<path d="M81.0644 115.101L69.375 108.351V95.7652L81.0644 102.515V115.101Z" fill="#CCC7BF"/>
<path d="M92.7539 108.351L81.0645 115.101V102.515L92.7539 95.7652V108.351Z" fill="#E9E4DB"/>
<path d="M94.2031 110.112L82.5137 103.362L94.2031 96.6129L105.892 103.362L94.2031 110.112Z" fill="#F6F2ED"/>
<path d="M94.2031 122.682L82.5137 115.949V103.362L94.2031 110.112V122.682Z" fill="#CCC7BF"/>
<path d="M105.893 115.949L94.2031 122.682V110.112L105.893 103.362V115.949Z" fill="#E9E4DB"/>
<path d="M41.5735 94.9499L29.9004 88.2003L41.5735 81.4508L53.2629 88.2003L41.5735 94.9499Z" fill="#BCB5AB"/>
<path d="M41.5735 107.536L29.9004 100.786V88.2004L41.5735 94.9499V107.536Z" fill="#CCC7BF"/>
<path d="M53.2636 100.786L41.5742 107.536V94.9499L53.2636 88.2004V100.786Z" fill="#A29D96"/>
<path d="M54.7324 102.547L43.043 95.7977L54.7324 89.0482L66.4218 95.7977L54.7324 102.547Z" fill="#BCB5AB"/>
<path d="M54.7324 115.117L43.043 108.384V95.7978L54.7324 102.547V115.117Z" fill="#CCC7BF"/>
<path d="M66.4218 108.384L54.7324 115.117V102.547L66.4218 95.7977V108.384Z" fill="#E9E4DB"/>
<path d="M67.8691 110.128L56.1797 103.379L67.8691 96.6453L79.5585 103.379L67.8691 110.128Z" fill="#BCB5AB"/>
<path d="M67.8691 122.714L56.1797 115.965V103.379L67.8691 110.128V122.714Z" fill="#CCC7BF"/>
<path d="M79.5585 115.965L67.8691 122.714V110.128L79.5585 103.379V115.965Z" fill="#E9E4DB"/>
<path d="M81.0149 117.726L69.3418 110.976L81.0149 104.227L92.7043 110.976L81.0149 117.726Z" fill="#F6F2ED"/>
<path d="M81.0149 130.295L69.3418 123.562V110.976L81.0149 117.726V130.295Z" fill="#CCC7BF"/>
<path d="M92.705 123.562L81.0156 130.295V117.726L92.705 110.976V123.562Z" fill="#E9E4DB"/>
<path d="M81.1445 57.7951L69.4551 51.0456L81.1445 44.296L92.8339 51.0456L81.1445 57.7951Z" fill="#BCB5AB"/>
<path d="M81.1445 70.3648L69.4551 63.6316V51.0455L81.1445 57.7951V70.3648Z" fill="#CCC7BF"/>
<path d="M92.8339 63.6316L81.1445 70.3648V57.7951L92.8339 51.0455V63.6316Z" fill="#E9E4DB"/>
<path d="M94.2812 65.3758L82.5918 58.6263L94.2812 51.8931L105.971 58.6263L94.2812 65.3758Z" fill="#F6F2ED"/>
<path d="M94.2812 77.962L82.5918 71.2124V58.6263L94.2812 65.3759V77.962Z" fill="#CCC7BF"/>
<path d="M105.971 71.2124L94.2812 77.962V65.3759L105.971 58.6263V71.2124Z" fill="#E9E4DB"/>
<path d="M107.443 72.9731L95.7539 66.2236L107.443 59.4741L119.116 66.2236L107.443 72.9731Z" fill="#F6F2ED"/>
<path d="M107.443 85.5593L95.7539 78.8097V66.2237L107.443 72.9732V85.5593Z" fill="#CCC7BF"/>
<path d="M119.116 78.8097L107.443 85.5592V72.9732L119.116 66.2236V78.8097Z" fill="#E9E4DB"/>
<path d="M120.58 80.5542L108.891 73.8209L120.58 67.0714L132.269 73.8209L120.58 80.5542Z" fill="#F6F2ED"/>
<path d="M120.58 93.1403L108.891 86.3908V73.821L120.58 80.5542V93.1403Z" fill="#CCC7BF"/>
<path d="M132.269 86.3908L120.58 93.1403V80.5542L132.269 73.821V86.3908Z" fill="#E9E4DB"/>
<path d="M81.0911 72.9895L69.418 66.2399L81.0911 59.5067L92.7805 66.2399L81.0911 72.9895Z" fill="#BCB5AB"/>
<path d="M81.0911 85.5756L69.418 78.8261V66.24L81.0911 72.9895V85.5756Z" fill="#CCC7BF"/>
<path d="M92.7812 78.8261L81.0918 85.5756V72.9895L92.7812 66.24V78.8261Z" fill="#CCC7BF"/>
<path d="M94.2519 80.5867L82.5625 73.8371L94.2519 67.0876L105.925 73.8371L94.2519 80.5867Z" fill="#F6F2ED"/>
<path d="M94.2519 93.1728L82.5625 86.4233V73.8372L94.2519 80.5867V93.1728Z" fill="#CCC7BF"/>
<path d="M105.925 86.4232L94.252 93.1728V80.5867L105.925 73.8372V86.4232Z" fill="#E9E4DB"/>
<path d="M138.092 105.889L126.402 99.1561L138.092 92.4066L149.781 99.1561L138.092 105.889Z" fill="#2875F3"/>
<path d="M138.092 118.475L126.402 111.726V99.1561L138.092 105.889V118.475Z" fill="#0238A6"/>
<path d="M149.781 111.726L138.092 118.475V105.889L149.781 99.1561V111.726Z" fill="#1755D2"/>
<path d="M67.9218 80.603L56.2324 73.8535L67.9218 67.1202L79.5949 73.8535L67.9218 80.603Z" fill="#F6F2ED"/>
<path d="M67.9218 93.1891L56.2324 86.4396V73.8535L67.9218 80.603V93.1891Z" fill="#CCC7BF"/>
<path d="M79.595 86.4396L67.9219 93.1891V80.603L79.595 73.8535V86.4396Z" fill="#E9E4DB"/>
<path d="M81.0644 88.2004L69.375 81.4508L81.0644 74.7013L92.7538 81.4508L81.0644 88.2004Z" fill="#F6F2ED"/>
<path d="M81.0644 100.77L69.375 94.037V81.4509L81.0644 88.2004V100.77Z" fill="#CCC7BF"/>
<path d="M92.7539 94.0369L81.0645 100.77V88.2004L92.7539 81.4509V94.0369Z" fill="#E9E4DB"/>
<path d="M94.2031 95.7813L82.5137 89.0318L94.2031 82.2985L105.892 89.0318L94.2031 95.7813Z" fill="#F6F2ED"/>
<path d="M94.2031 108.367L82.5137 101.618V89.0318L94.2031 95.7813V108.367Z" fill="#CCC7BF"/>
<path d="M105.893 101.618L94.2031 108.367V95.7813L105.893 89.0318V101.618Z" fill="#E9E4DB"/>
<path d="M41.5735 80.6356L29.9004 73.8861L41.5735 67.1365L53.2629 73.8861L41.5735 80.6356Z" fill="#BCB5AB"/>
<path d="M41.5735 93.2054L29.9004 86.4722V73.8861L41.5735 80.6357V93.2054Z" fill="#CCC7BF"/>
<path d="M53.2636 86.4722L41.5742 93.2054V80.6357L53.2636 73.8861V86.4722Z" fill="#A29D96"/>
<path d="M26.7044 104.39L15.0312 97.6563L26.7044 90.9067L38.3938 97.6563L26.7044 104.39Z" fill="#2875F3"/>
<path d="M26.7043 116.976L15.0312 110.226V97.6563L26.7043 104.39V116.976Z" fill="#0238A6"/>
<path d="M38.3945 110.226L26.7051 116.976V104.39L38.3945 97.6563V110.226Z" fill="#1755D2"/>
<path d="M67.8691 95.814L56.1797 89.0645L67.8691 82.3149L79.5585 89.0645L67.8691 95.814Z" fill="#BCB5AB"/>
<path d="M67.8691 108.384L56.1797 101.651V89.0645L67.8691 95.8141V108.384Z" fill="#CCC7BF"/>
<path d="M79.5585 101.651L67.8691 108.384V95.814L79.5585 89.0645V101.651Z" fill="#E9E4DB"/>
<path d="M81.0149 103.395L69.3418 96.6453L81.0149 89.912L92.7043 96.6453L81.0149 103.395Z" fill="#F6F2ED"/>
<path d="M81.0149 115.981L69.3418 109.231V96.6454L81.0149 103.395V115.981Z" fill="#CCC7BF"/>
<path d="M92.705 109.231L81.0156 115.981V103.395L92.705 96.6454V109.231Z" fill="#E9E4DB"/>
<path d="M81.1445 43.4643L69.4551 36.7148L81.1445 29.9816L92.8339 36.7148L81.1445 43.4643Z" fill="#F6F2ED"/>
<path d="M81.1445 56.0505L69.4551 49.3009V36.7148L81.1445 43.4644V56.0505Z" fill="#CCC7BF"/>
<path d="M92.8339 49.3009L81.1445 56.0505V43.4644L92.8339 36.7148V49.3009Z" fill="#E9E4DB"/>
<path d="M94.2812 51.0616L82.5918 44.3121L94.2812 37.5626L105.971 44.3121L94.2812 51.0616Z" fill="#F6F2ED"/>
<path d="M94.2812 63.6478L82.5918 56.8982V44.3122L94.2812 51.0617V63.6478Z" fill="#CCC7BF"/>
<path d="M105.971 56.8983L94.2812 63.6478V51.0617L105.971 44.3122V56.8983Z" fill="#E9E4DB"/>
<path d="M107.443 58.6427L95.7539 51.9094L107.443 45.1599L119.116 51.9094L107.443 58.6427Z" fill="#F6F2ED"/>
<path d="M107.443 71.2288L95.7539 64.4793V51.9095L107.443 58.6427V71.2288Z" fill="#CCC7BF"/>
<path d="M119.116 64.4793L107.443 71.2288V58.6427L119.116 51.9095V64.4793Z" fill="#E9E4DB"/>
<path d="M120.58 45.6653L108.891 38.9157L120.58 32.1662L132.269 38.9157L120.58 45.6653Z" fill="#2875F3"/>
<path d="M120.58 58.2351L108.891 51.4856V38.9158L120.58 45.6653V58.2351Z" fill="#0238A6"/>
<path d="M132.269 51.4856L120.58 58.2351V45.6653L132.269 38.9158V51.4856Z" fill="#1755D2"/>
<path d="M81.0911 58.6751L69.418 51.9256L81.0911 45.176L92.7805 51.9256L81.0911 58.6751Z" fill="#F6F2ED"/>
<path d="M81.0911 71.2612L69.418 64.5117V51.9256L81.0911 58.6752V71.2612Z" fill="#CCC7BF"/>
<path d="M92.7812 64.5117L81.0918 71.2612V58.6752L92.7812 51.9256V64.5117Z" fill="#E9E4DB"/>
<path d="M94.2519 66.2562L82.5625 59.5067L94.2519 52.7734L105.925 59.5067L94.2519 66.2562Z" fill="#F6F2ED"/>
<path d="M94.2519 78.8423L82.5625 72.0928V59.5067L94.2519 66.2562V78.8423Z" fill="#CCC7BF"/>
<path d="M105.925 72.0928L94.252 78.8423V66.2562L105.925 59.5067V72.0928Z" fill="#E9E4DB"/>
<path d="M107.393 73.8537L95.7031 67.1041L107.393 60.3546L119.082 67.1041L107.393 73.8537Z" fill="#F6F2ED"/>
<path d="M107.393 86.4398L95.7031 79.6903V67.1042L107.393 73.8537V86.4398Z" fill="#CCC7BF"/>
<path d="M119.082 79.6903L107.393 86.4398V73.8537L119.082 67.1042V79.6903Z" fill="#E9E4DB"/>
<path d="M41.9316 51.2735L30.2422 44.5402L41.9316 37.7907L53.6047 44.5402L41.9316 51.2735Z" fill="#2875F3"/>
<path d="M41.9316 63.8596L30.2422 57.1101V44.5403L41.9316 51.2735V63.8596Z" fill="#0238A6"/>
<path d="M53.6047 57.1101L41.9316 63.8596V51.2735L53.6047 44.5403V57.1101Z" fill="#1755D2"/>
<path d="M67.9218 66.2889L56.2324 59.5393L67.9218 52.7898L79.5949 59.5393L67.9218 66.2889Z" fill="#F6F2ED"/>
<path d="M67.9218 78.8587L56.2324 72.1255V59.5394L67.9218 66.2889V78.8587Z" fill="#CCC7BF"/>
<path d="M79.595 72.1254L67.9219 78.8587V66.2889L79.595 59.5394V72.1254Z" fill="#E9E4DB"/>
<path d="M94.2031 81.467L82.5137 74.7174L94.2031 67.9679L105.892 74.7174L94.2031 81.467Z" fill="#F6F2ED"/>
<path d="M94.2031 94.0531L82.5137 87.3036V74.7175L94.2031 81.4671V94.0531Z" fill="#CCC7BF"/>
<path d="M105.893 87.3036L94.2031 94.0531V81.4671L105.893 74.7175V87.3036Z" fill="#E9E4DB"/>
<path d="M41.5735 66.3051L29.9004 59.5556L41.5735 52.8223L53.2629 59.5556L41.5735 66.3051Z" fill="#F6F2ED"/>
<path d="M41.5735 78.8912L29.9004 72.1417V59.5556L41.5735 66.3051V78.8912Z" fill="#CCC7BF"/>
<path d="M53.2636 72.1417L41.5742 78.8912V66.3051L53.2636 59.5556V72.1417Z" fill="#E9E4DB"/>
<path d="M54.7324 73.9024L43.043 67.1528L54.7324 60.4033L66.4218 67.1528L54.7324 73.9024Z" fill="#F6F2ED"/>
<path d="M54.7324 86.4722L43.043 79.739V67.1529L54.7324 73.9025V86.4722Z" fill="#CCC7BF"/>
<path d="M66.4218 79.739L54.7324 86.4722V73.9024L66.4218 67.1529V79.739Z" fill="#E9E4DB"/>
<path d="M67.8691 81.4833L56.1797 74.7337L67.8691 68.0005L79.5585 74.7337L67.8691 81.4833Z" fill="#F6F2ED"/>
<path d="M67.8691 94.0693L56.1797 87.3198V74.7337L67.8691 81.4833V94.0693Z" fill="#CCC7BF"/>
<path d="M79.5585 87.3198L67.8691 94.0693V81.4833L79.5585 74.7337V87.3198Z" fill="#E9E4DB"/>
<path d="M81.0149 89.0807L69.3418 82.3312L81.0149 75.5817L92.7043 82.3312L81.0149 89.0807Z" fill="#F6F2ED"/>
<path d="M81.0149 101.667L69.3418 94.9172V82.3311L81.0149 89.0807V101.667Z" fill="#CCC7BF"/>
<path d="M92.705 94.9172L81.0156 101.667V89.0807L92.705 82.3311V94.9172Z" fill="#E9E4DB"/>
<path d="M120.582 39.3234C120.354 39.3234 120.158 39.1277 120.158 38.8995V0.423884C120.158 0.195639 120.354 0 120.582 0C120.81 0 121.006 0.195639 121.006 0.423884V38.8995C121.006 39.1277 120.81 39.3234 120.582 39.3234Z" fill="url(#paint1_linear_3819_10336)"/>
<path d="M164.423 121.051C164.423 121.051 164.276 121.035 164.211 121.002L143.734 109.183C143.539 109.068 143.473 108.808 143.587 108.612C143.702 108.416 143.962 108.351 144.158 108.465L164.635 120.285C164.83 120.399 164.912 120.66 164.782 120.856C164.7 120.986 164.57 121.068 164.423 121.068V121.051Z" fill="url(#paint2_linear_3819_10336)"/>
<path d="M-4.77267 122.535C-4.9194 122.535 -5.06613 122.453 -5.13134 122.323C-5.24547 122.127 -5.18025 121.867 -4.98462 121.752L20.6603 106.949C20.856 106.835 21.1168 106.9 21.2309 107.096C21.3451 107.291 21.2799 107.552 21.0842 107.666L-4.56073 122.47C-4.56073 122.47 -4.69116 122.519 -4.77267 122.519V122.535Z" fill="url(#paint3_linear_3819_10336)"/>
<path style="mix-blend-mode:screen" d="M33.2584 100.216C37.22 107.079 34.8724 115.867 28.0087 119.828C21.1451 123.79 12.3576 121.443 8.39596 114.579C4.43428 107.715 6.78194 98.9278 13.6456 94.9661C20.5092 91.0044 29.2967 93.3521 33.2584 100.216Z" fill="url(#paint4_radial_3819_10336)"/>
<path style="mix-blend-mode:screen" d="M156.364 101.716C160.326 108.579 157.978 117.367 151.114 121.328C144.251 125.29 135.463 122.943 131.501 116.079C127.54 109.215 129.887 100.428 136.751 96.4661C143.615 92.5044 152.402 94.8521 156.364 101.716Z" fill="url(#paint5_radial_3819_10336)"/>
</g>
<defs>
<linearGradient id="paint0_linear_3819_10336" x1="4.17649" y1="44.2958" x2="38.8208" y2="44.2958" gradientUnits="userSpaceOnUse">
<stop stop-color="white"/>
<stop offset="0.13" stop-color="#EAF2FF"/>
<stop offset="0.41" stop-color="#B3D3FF"/>
<stop offset="0.79" stop-color="#5DA1FF"/>
<stop offset="1" stop-color="#2D85FF"/>
</linearGradient>
<linearGradient id="paint1_linear_3819_10336" x1="120.582" y1="-0.554058" x2="120.582" y2="39.3234" gradientUnits="userSpaceOnUse">
<stop stop-color="white" stop-opacity="0"/>
<stop offset="0.13" stop-color="#EAF2FF"/>
<stop offset="0.41" stop-color="#B3D3FF"/>
<stop offset="0.79" stop-color="#5DA1FF"/>
<stop offset="1" stop-color="#2D85FF"/>
</linearGradient>
<linearGradient id="paint2_linear_3819_10336" x1="148.853" y1="105.498" x2="159.499" y2="123.953" gradientUnits="userSpaceOnUse">
<stop stop-color="#2D85FF"/>
<stop offset="0.21" stop-color="#5DA1FF"/>
<stop offset="0.59" stop-color="#B3D3FF"/>
<stop offset="0.87" stop-color="#EAF2FF"/>
<stop offset="1" stop-color="white"/>
</linearGradient>
<linearGradient id="paint3_linear_3819_10336" x1="-5.19656" y1="114.709" x2="21.2962" y2="114.709" gradientUnits="userSpaceOnUse">
<stop stop-color="white"/>
<stop offset="0.13" stop-color="#EAF2FF"/>
<stop offset="0.41" stop-color="#B3D3FF"/>
<stop offset="0.79" stop-color="#5DA1FF"/>
<stop offset="1" stop-color="#2D85FF"/>
</linearGradient>
<radialGradient id="paint4_radial_3819_10336" cx="0" cy="0" r="1" gradientUnits="userSpaceOnUse" gradientTransform="translate(20.819 107.389) scale(14.3631)">
<stop stop-color="#46D7FF"/>
<stop offset="0.08" stop-color="#2089A9"/>
<stop offset="0.16" stop-color="#044C63"/>
<stop offset="0.26" stop-color="#001826"/>
<stop offset="0.34"/>
<stop offset="1"/>
</radialGradient>
<radialGradient id="paint5_radial_3819_10336" cx="0" cy="0" r="1" gradientUnits="userSpaceOnUse" gradientTransform="translate(143.924 108.905) scale(14.3631)">
<stop stop-color="#46D7FF"/>
<stop offset="0.08" stop-color="#2089A9"/>
<stop offset="0.16" stop-color="#044C63"/>
<stop offset="0.26" stop-color="#001826"/>
<stop offset="0.34"/>
<stop offset="1"/>
</radialGradient>
<clipPath id="clip0_3819_10336">
<rect width="160" height="160" fill="white"/>
</clipPath>
</defs>
</svg>
