<svg width="160" height="160" viewBox="0 0 160 160" fill="none" xmlns="http://www.w3.org/2000/svg">
<g clip-path="url(#clip0_3819_10281)">
<path d="M20.8273 133.632L23.0113 135.312C24.0529 136.119 25.2121 136.891 26.4721 137.631C40.7521 145.879 63.8521 145.879 78.0481 137.631C79.2241 136.942 80.2993 136.236 81.2737 135.48L83.4577 133.817L20.8105 133.632H20.8273Z" fill="#BEB9B0"/>
<path d="M77.9328 91.0105C63.6528 82.7617 40.5528 82.7617 26.3568 91.0105C12.1608 99.2593 12.228 112.649 26.5248 120.881C40.8048 129.13 63.9048 129.13 78.1008 120.881C92.2968 112.632 92.2296 99.2593 77.9328 91.0105Z" fill="#F6F2ED"/>
<path d="M13.016 108.466L12.9824 119.94C12.9824 125.787 16.8296 131.65 24.5576 136.119C39.9128 144.989 64.7432 144.989 80.0144 136.119C87.5912 131.717 91.388 125.938 91.4048 120.175L91.4384 108.718L13.016 108.466Z" fill="url(#paint0_linear_3819_10281)"/>
<path d="M83.5947 95.009L81.4107 93.329C91.3563 100.99 91.1379 111.675 80.7555 119.184C79.9323 119.772 79.0587 120.343 78.1179 120.898C70.2891 125.451 59.7387 127.483 49.4571 127.013C41.1075 126.627 32.9427 124.594 26.5419 120.898C13.4211 113.321 12.2787 101.443 23.1315 93.161L20.9475 94.8242C9.27148 103.728 10.5147 116.496 24.5931 124.644C31.4811 128.626 40.2675 130.81 49.2387 131.23C60.2931 131.734 71.6331 129.55 80.0499 124.644C81.0579 124.056 82.0155 123.435 82.8891 122.796C94.0611 114.732 94.2795 103.241 83.5947 95.009Z" fill="#F6F2ED"/>
<path d="M80.7551 119.184C79.9319 119.772 79.0583 120.343 78.1175 120.898C70.2887 125.451 59.7383 127.483 49.4567 127.013L49.2383 131.23C60.2927 131.734 71.6327 129.55 80.0495 124.644C81.0575 124.056 82.0151 123.435 82.8887 122.796L80.7551 119.167V119.184Z" fill="#FFFFFB"/>
<path d="M15.7367 95.1603L15.7031 105.828C15.7031 111.271 19.2815 116.731 26.4719 120.881C40.7687 129.13 63.8855 129.13 78.0815 120.881C85.1375 116.782 88.6655 111.406 88.6823 106.03L88.7159 95.3619L15.7199 95.1603H15.7367Z" fill="url(#paint1_linear_3819_10281)"/>
<path d="M20.8273 110.768L23.0113 112.448C24.0529 113.254 25.2121 114.027 26.4721 114.766C40.7521 123.015 63.8521 123.015 78.0481 114.766C79.2241 114.077 80.2993 113.372 81.2737 112.616L83.4577 110.952L20.8105 110.768H20.8273Z" fill="#BEB9B0"/>
<path d="M77.9328 68.146C63.6528 59.8972 40.5528 59.8972 26.3568 68.146C12.1608 76.3948 12.228 89.7675 26.5248 98.0163C40.8048 106.265 63.9048 106.265 78.1008 98.0163C92.2968 89.7675 92.2296 76.3948 77.9328 68.146Z" fill="#F6F2ED"/>
<path d="M13.016 85.6012L12.9824 97.0756C12.9824 102.922 16.8296 108.785 24.5576 113.254C39.9128 122.124 64.7432 122.124 80.0144 113.254C87.5912 108.852 91.388 103.073 91.4048 97.3108L91.4384 85.8364L13.016 85.6012Z" fill="url(#paint2_linear_3819_10281)"/>
<path d="M83.5947 72.1444L81.4107 70.4644C91.3563 78.1252 91.1379 88.81 80.7555 96.3196C79.9323 96.9076 79.0587 97.4788 78.1179 98.0332C70.2891 102.586 59.7387 104.619 49.4571 104.148C41.1075 103.762 32.9427 101.729 26.5419 98.0332C13.4211 90.4564 12.2787 78.5788 23.1315 70.2964L20.9475 71.9596C9.27148 80.8636 10.5147 93.6316 24.5931 101.78C31.4811 105.761 40.2675 107.945 49.2387 108.365C60.2931 108.869 71.6331 106.685 80.0499 101.78C81.0579 101.192 82.0155 100.57 82.8891 99.9316C94.0611 91.8676 94.2795 80.3764 83.5947 72.1444Z" fill="#F6F2ED"/>
<path d="M80.7551 96.3195C79.9319 96.9075 79.0583 97.4787 78.1175 98.0331C70.2887 102.586 59.7383 104.619 49.4567 104.148L49.2383 108.365C60.2927 108.869 71.6327 106.685 80.0495 101.78C81.0575 101.192 82.0151 100.57 82.8887 99.9315L80.7551 96.3027V96.3195Z" fill="#FFFFFB"/>
<path d="M15.7367 72.2958L15.7031 82.9638C15.7031 88.407 19.2815 93.867 26.4719 98.0166C40.7687 106.265 63.8855 106.265 78.0815 98.0166C85.1375 93.9174 88.6655 88.5414 88.6823 83.1654L88.7159 72.4974L15.7199 72.2958H15.7367Z" fill="url(#paint3_linear_3819_10281)"/>
<path d="M20.8273 87.0291L23.0113 88.7091C24.0529 89.5155 25.2121 90.2882 26.4721 91.0274C40.7521 99.2762 63.8521 99.2762 78.0481 91.0274C79.2241 90.3386 80.2993 89.6331 81.2737 88.8771L83.4577 87.2139L20.8105 87.0291H20.8273Z" fill="#BEB9B0"/>
<path d="M13.016 61.8795L12.9824 73.3371C12.9824 79.1835 16.8296 85.0467 24.5576 89.5155C39.9128 98.3859 64.7432 98.3859 80.0144 89.5155C87.5912 85.1139 91.388 79.3347 91.4048 73.5723L91.4384 62.0979L13.016 61.8795Z" fill="url(#paint4_linear_3819_10281)"/>
<path d="M83.5947 48.4059L81.4107 46.7259L23.1315 46.5579L20.9475 48.2211C9.27148 57.1251 10.5147 69.8931 24.5931 78.0411C31.4811 82.0227 40.2675 84.2067 49.2387 84.6267C60.2931 85.1307 71.6331 82.9467 80.0499 78.0411C81.0579 77.4531 82.0155 76.8315 82.8891 76.1931C94.0611 68.1291 94.2795 56.6379 83.5947 48.4059Z" fill="#F6F2ED"/>
<path d="M77.9328 44.4243C63.6528 36.1755 40.5528 36.1755 26.3568 44.4243C12.1608 52.6731 12.228 66.0627 26.5248 74.2947C40.8048 82.5435 63.9048 82.5435 78.1008 74.2947C92.2968 66.0459 92.2296 52.6563 77.9328 44.4243Z" fill="#FDFAF5"/>
<path d="M80.7551 72.5811C79.9319 73.1691 79.0583 73.7403 78.1175 74.2947C70.2887 78.8475 59.7383 80.8803 49.4567 80.4099L49.2383 84.6267C60.2927 85.1307 71.6327 82.9467 80.0495 78.0411C81.0575 77.4531 82.0151 76.8315 82.8887 76.1931L80.7551 72.5643V72.5811Z" fill="#FFFFFB"/>
<path style="mix-blend-mode:multiply" d="M91.4112 73.5722L91.4448 62.0978C91.4448 57.2762 88.8408 52.4546 83.5992 48.4058L81.4152 46.7258C80.3232 45.9194 79.2144 45.1466 77.9544 44.4074C63.6744 36.1586 40.5744 36.1586 26.3784 44.4074C25.2024 45.0794 24.1776 45.8186 23.2032 46.5578C23.1528 46.5578 20.9688 48.221 20.9688 48.221C17.7264 50.6906 15.5088 53.4626 14.2656 56.3354C15.8952 60.5858 19.524 64.6514 25.2528 67.9442C39.6672 76.2602 62.196 77.0162 78.0552 70.2458L81.264 72.0938L83.4984 75.7226L85.0104 85.937C89.2776 82.1906 91.4112 77.8562 91.428 73.5218L91.4112 73.5722Z" fill="url(#paint5_linear_3819_10281)"/>
<path d="M103.805 37.6538V46.0538C103.805 40.241 99.9747 34.4114 92.2971 29.993C77.0595 21.1898 52.3467 21.1898 37.1931 29.993C29.6667 34.361 25.9035 40.0898 25.8867 45.8354V37.4354C25.9203 31.6898 29.6835 25.961 37.2099 21.593C52.3467 12.7898 77.0595 12.7898 92.3139 21.593C99.9747 26.0114 103.805 31.841 103.788 37.6538H103.805Z" fill="#D5D0C8"/>
<path d="M37.2294 26.6329C52.3662 17.8297 77.079 17.8297 92.3334 26.6329C99.3726 30.6985 103.169 35.9233 103.724 41.2489C104.379 34.9993 100.582 28.5985 92.3334 23.8441C77.0958 15.0409 52.383 15.0409 37.2294 23.8441C29.0814 28.5817 25.3518 34.9153 26.007 41.1313C26.5614 35.8561 30.291 30.6649 37.2294 26.6329Z" fill="url(#paint6_linear_3819_10281)"/>
<path opacity="0.8" d="M92.3339 26.1121C77.0963 17.3089 52.3835 17.3089 37.2299 26.1121C22.0931 34.9153 22.1771 49.2289 37.4147 58.0321C52.6523 66.8353 77.3651 66.8353 92.5019 58.0321C107.639 49.2289 107.571 34.9153 92.3339 26.1121Z" fill="#2983FF"/>
<path d="M105.521 37.6705V46.0705C105.488 52.0681 101.557 58.0489 93.6942 62.6185C77.8854 71.8081 52.0806 71.8081 36.171 62.6185C28.1574 57.9985 24.159 51.9169 24.1758 45.8353V37.4353C24.1758 43.5001 28.1742 49.5985 36.1878 54.2185C52.0974 63.4081 77.9022 63.4081 93.711 54.2185C101.557 49.6489 105.488 43.6681 105.521 37.6705Z" fill="url(#paint7_linear_3819_10281)"/>
<path d="M93.5442 20.8873C109.454 30.0769 109.538 45.0121 93.729 54.2017C77.9202 63.3913 52.1154 63.3913 36.2058 54.2017C20.2962 45.0121 20.2122 30.0601 36.021 20.8873C51.8298 11.6977 77.6346 11.6977 93.5442 20.8873ZM37.4154 53.5129C52.653 62.3161 77.3658 62.3161 92.5026 53.5129C107.639 44.7097 107.572 30.3961 92.3346 21.5929C77.097 12.7897 52.3842 12.7897 37.2306 21.5929C22.0938 30.3961 22.1778 44.7097 37.4154 53.5129Z" fill="#FDFAF5"/>
<path d="M101.041 66.4825C101.041 68.5657 102.503 69.4057 104.3 68.3641C106.098 67.3225 107.559 64.7857 107.559 62.7025C107.559 60.6193 106.098 59.7793 104.3 60.8209C102.503 61.8625 101.041 64.3993 101.041 66.4825Z" fill="#6C00AC"/>
<path d="M106.636 60.6193L96.069 54.5209C95.481 54.1681 94.6578 54.2017 93.7338 54.7393C91.9362 55.7809 90.4746 58.3177 90.4746 60.4009C90.4746 61.4257 90.8274 62.1649 91.4154 62.5009L101.983 68.5993C101.411 68.2465 101.042 67.5241 101.042 66.4993C101.042 64.4161 102.503 61.8793 104.301 60.8377C105.208 60.3169 106.031 60.2665 106.636 60.6193Z" fill="#D2CDC4"/>
<path d="M109.203 58.3513C108.195 57.7465 106.784 57.8137 105.239 58.7209C102.164 60.5017 99.6777 64.8025 99.6777 68.3473C99.6777 70.0945 100.283 71.3377 101.274 71.9257L133.95 90.7921L141.896 77.2009L109.22 58.3345L109.203 58.3513Z" fill="url(#paint8_linear_3819_10281)"/>
<path d="M132.338 87.2137C132.338 90.7585 134.824 92.2033 137.899 90.4225C140.973 88.6417 143.459 84.3409 143.459 80.7961C143.459 78.4609 142.384 77.0497 140.771 76.8481C139.931 76.7473 138.94 76.9825 137.899 77.5873C134.824 79.3681 132.338 83.6689 132.338 87.2305V87.2137Z" fill="black"/>
<path style="mix-blend-mode:screen" opacity="0.5" d="M132.335 87.2138C133.729 80.4098 138.299 76.8146 140.768 76.8482C137.593 75.7394 131.629 81.4346 132.335 87.2138Z" fill="url(#paint9_radial_3819_10281)"/>
</g>
<defs>
<linearGradient id="paint0_linear_3819_10281" x1="12.9824" y1="125.619" x2="91.4384" y2="125.619" gradientUnits="userSpaceOnUse">
<stop stop-color="#CCC7BF"/>
<stop offset="0.26" stop-color="#D4CFC7"/>
<stop offset="1" stop-color="#E9E4DB"/>
</linearGradient>
<linearGradient id="paint1_linear_3819_10281" x1="15.7031" y1="111.12" x2="88.7159" y2="111.12" gradientUnits="userSpaceOnUse">
<stop stop-color="#0238A6"/>
<stop offset="0.49" stop-color="#0D47BD"/>
<stop offset="1" stop-color="#1755D2"/>
</linearGradient>
<linearGradient id="paint2_linear_3819_10281" x1="12.9824" y1="102.754" x2="14.6624" y2="102.754" gradientUnits="userSpaceOnUse">
<stop stop-color="#CCC7BF"/>
<stop offset="0.26" stop-color="#D4CFC7"/>
<stop offset="1" stop-color="#E9E4DB"/>
</linearGradient>
<linearGradient id="paint3_linear_3819_10281" x1="12.9815" y1="88.2558" x2="14.6615" y2="88.2558" gradientUnits="userSpaceOnUse">
<stop stop-color="#0238A6"/>
<stop offset="0.49" stop-color="#0D47BD"/>
<stop offset="1" stop-color="#1755D2"/>
</linearGradient>
<linearGradient id="paint4_linear_3819_10281" x1="12.9824" y1="79.0155" x2="14.6624" y2="79.0155" gradientUnits="userSpaceOnUse">
<stop stop-color="#CCC7BF"/>
<stop offset="0.26" stop-color="#D4CFC7"/>
<stop offset="1" stop-color="#E9E4DB"/>
</linearGradient>
<linearGradient id="paint5_linear_3819_10281" x1="63.5568" y1="76.1258" x2="73.3008" y2="93.0098" gradientUnits="userSpaceOnUse">
<stop stop-color="#CDC8C1"/>
<stop offset="0.36" stop-color="#D7D4CD"/>
<stop offset="0.64" stop-color="#E9E7E3"/>
<stop offset="1" stop-color="white"/>
</linearGradient>
<linearGradient id="paint6_linear_3819_10281" x1="25.9398" y1="29.2369" x2="103.791" y2="29.2369" gradientUnits="userSpaceOnUse">
<stop stop-color="#1755D2"/>
<stop offset="0.51" stop-color="#0D47BD"/>
<stop offset="1" stop-color="#0238A6"/>
</linearGradient>
<linearGradient id="paint7_linear_3819_10281" x1="24.1926" y1="53.4625" x2="105.521" y2="53.4625" gradientUnits="userSpaceOnUse">
<stop stop-color="#CCC7BF"/>
<stop offset="0.26" stop-color="#D4CFC7"/>
<stop offset="1" stop-color="#E9E4DB"/>
</linearGradient>
<linearGradient id="paint8_linear_3819_10281" x1="123.551" y1="66.6337" x2="115.688" y2="80.2585" gradientUnits="userSpaceOnUse">
<stop stop-color="#403121"/>
<stop offset="0.62" stop-color="#0A0500"/>
<stop offset="1"/>
</linearGradient>
<radialGradient id="paint9_radial_3819_10281" cx="0" cy="0" r="1" gradientUnits="userSpaceOnUse" gradientTransform="translate(139.223 76.7138) scale(13.6752 13.6752)">
<stop stop-color="#FFE7D7"/>
<stop offset="0.07" stop-color="#A79388"/>
<stop offset="0.13" stop-color="#63544C"/>
<stop offset="0.22" stop-color="#1C150F"/>
<stop offset="0.28"/>
<stop offset="1"/>
</radialGradient>
<clipPath id="clip0_3819_10281">
<rect width="130.469" height="129.814" fill="white" transform="translate(13 14)"/>
</clipPath>
</defs>
</svg>
