<svg width="160" height="160" viewBox="0 0 160 160" fill="none" xmlns="http://www.w3.org/2000/svg">
<g clip-path="url(#clip0_3819_10639)">
<path d="M36.3585 149.975L33.6668 148.426C32.8728 147.981 32.3887 146.993 32.3887 145.599V37.562C32.3887 34.7928 34.3252 31.4427 36.6877 30.0872L82.8923 3.57662C84.0736 2.89885 85.158 2.84075 85.9326 3.28615L88.6243 4.83534L36.3585 149.975Z" fill="url(#paint0_linear_3819_10639)"/>
<path d="M89.9197 7.66266C89.9197 4.89348 87.9832 3.77031 85.6013 5.14522L39.3967 31.6558C37.0148 33.0113 35.0977 36.3614 35.0977 39.1306V147.167C35.0977 149.937 37.0341 151.06 39.3967 149.704L85.6013 123.194C87.9832 121.819 89.9197 118.488 89.9197 115.719V7.66266Z" fill="#211B1A"/>
<path d="M37.3792 35.4512C36.6821 36.6712 36.2754 38.0074 36.2754 39.1112V147.148C36.2754 148.039 36.5271 148.678 36.9532 148.93C37.3792 149.181 38.0376 149.065 38.7928 148.639L84.9975 122.129C85.9657 121.586 86.9146 120.56 87.6117 119.359C88.3088 118.139 88.7155 116.803 88.7155 115.699V7.66263C88.7155 6.77184 88.4638 6.1328 88.0377 5.88106C87.6117 5.62932 86.9339 5.74551 86.1981 6.17153L39.9934 32.6821C39.0446 33.2243 38.0957 34.2313 37.3986 35.4512H37.3792Z" fill="#F6F2ED"/>
<path d="M50.7832 26.1174L54.327 28.1507C54.8498 28.4412 55.5857 28.325 56.4958 27.8215L72.2782 18.7006C73.2271 18.1584 74.389 16.8029 75.3572 15.1568L78.2426 10.1607L50.8026 26.098L50.7832 26.1174Z" fill="#211B1A"/>
<path d="M34.283 63.6272C34.3798 63.7628 34.4573 63.8983 34.496 64.0532C34.5347 64.1694 34.5541 64.305 34.5541 64.4212V71.9154C34.5541 72.1284 34.4766 72.2833 34.3604 72.3414L33.8376 72.6512C33.9538 72.5738 34.0312 72.4382 34.0312 72.2252V64.731C34.0312 64.6148 34.0119 64.4793 33.9731 64.3631C33.915 64.2081 33.857 64.0726 33.7601 63.937C33.6633 63.8015 33.5278 63.6659 33.3922 63.5885L32.6757 63.1624C32.5014 63.0656 32.3271 63.0463 32.2109 63.1237L32.7338 62.8139C32.85 62.7364 33.0243 62.7558 33.1985 62.8526L33.915 63.2786C34.0506 63.3561 34.1862 63.4723 34.283 63.6272Z" fill="#F6F2ED"/>
<path d="M34.0333 64.731V72.2252C34.0333 72.6513 33.7428 72.8256 33.3749 72.6125L32.6584 72.1865C32.2905 71.9735 32 71.47 32 71.044V63.5498C32 63.1237 32.2905 62.9495 32.6584 63.1625L33.3749 63.5885C33.7428 63.8015 34.0333 64.305 34.0333 64.731Z" fill="#CCC7BF"/>
<path d="M34.283 51.1175C34.3798 51.253 34.4573 51.3886 34.496 51.5435C34.5347 51.6597 34.5541 51.7952 34.5541 51.9114V59.4056C34.5541 59.6187 34.4766 59.7736 34.3604 59.8317L33.8376 60.1221C33.9538 60.0447 34.0312 59.9091 34.0312 59.6961V52.2019C34.0312 52.0857 34.0119 51.9502 33.9731 51.834C33.915 51.679 33.857 51.5435 33.7601 51.4079C33.6633 51.2724 33.5278 51.1368 33.3922 51.0594L32.6757 50.6333C32.5014 50.5365 32.3271 50.5172 32.2109 50.5946L32.7338 50.3041C32.85 50.2267 33.0243 50.246 33.1985 50.3429L33.915 50.7495C34.0506 50.827 34.1862 50.9432 34.283 51.0981V51.1175Z" fill="#F6F2ED"/>
<path d="M34.0333 52.2213V59.7155C34.0333 60.1415 33.7428 60.3158 33.3749 60.1028L32.6584 59.6961C32.2905 59.4831 32 58.9796 32 58.5536V51.0594C32 50.6334 32.2905 50.4591 32.6584 50.6721L33.3749 51.0981C33.7428 51.3111 34.0333 51.8146 34.0333 52.2406V52.2213Z" fill="#CCC7BF"/>
<path d="M59.0742 23.445C59.0742 23.0964 59.3066 22.6898 59.6164 22.5155L67.924 17.713C68.2144 17.5387 68.4662 17.6743 68.4662 18.0228C68.4662 18.3714 68.2338 18.778 67.924 18.9523L59.6164 23.7548C59.326 23.9291 59.0742 23.7936 59.0742 23.445Z" fill="#181019"/>
<path opacity="0.9" d="M92.7712 9.27002L46.5666 35.7806C44.1847 37.1361 42.2676 40.4862 42.2676 43.2554V151.292C42.2676 154.061 44.2041 155.184 46.5666 153.829L92.7712 127.318C95.1531 125.943 97.0896 122.593 97.0896 119.844V11.8068C97.0896 9.03764 95.1531 7.91448 92.7712 9.28939V9.27002Z" fill="url(#paint1_linear_3819_10639)"/>
<g clip-path="url(#clip1_3819_10639)">
<path d="M121.494 20.2291L106.791 28.6362C105.557 29.3506 104.547 31.0995 104.547 32.5233V43.1867C104.547 44.6105 105.557 45.1943 106.791 44.4824L110.712 42.2187V47.9999L115.582 39.4081L121.494 36.0753C122.728 35.3634 123.738 33.6145 123.738 32.1882V21.5248C123.738 20.0986 122.728 19.5172 121.494 20.2291Z" fill="#2875F3"/>
<path d="M104.546 43.1892V32.5257C104.546 31.102 105.556 29.3531 106.79 28.6387L121.494 20.2291C122.092 19.8843 122.634 19.8449 123.038 20.0567L121.54 19.1527C121.134 18.9137 120.57 18.9458 119.949 19.3029L105.246 27.7125C104.012 28.4244 103.002 30.1733 103.002 31.5996V42.263C103.002 43.0045 103.275 43.5168 103.709 43.7385L105.189 44.6253C104.795 44.3839 104.549 43.8888 104.549 43.1867L104.546 43.1892Z" fill="#0238A6"/>
<path d="M110.712 42.2187L109.168 43.1104V47.0762L110.712 47.9384V42.2187Z" fill="#0238A6"/>
</g>
<g clip-path="url(#clip2_3819_10639)">
<g style="mix-blend-mode:multiply" opacity="0.2">
<path d="M52.199 93.9429L55.8323 85.2539C54.6017 84.3438 53.7992 82.884 53.7992 81.2346C53.7992 78.7126 55.6662 76.6327 58.0946 76.2888C58.1718 76.0455 58.2537 75.8045 58.3402 75.5729C59.4305 72.6485 61.5992 70.4798 64.54 69.1439C59.124 66.4604 55.3971 60.8783 55.3971 54.4235C55.3971 45.3532 62.7526 38 71.8206 38C80.8886 38 88.2441 45.3532 88.2441 54.4235C88.2441 60.6163 84.8144 66.0066 79.754 68.8046C83.1135 70.0961 85.5864 72.3865 86.7773 75.5753C88.7074 80.7456 88.3658 88.4193 82.8843 97.0662C80.9331 100.147 78.4719 103.371 76.5137 104.382C74.5579 105.393 72.5552 105.439 72.5552 105.439C72.5552 105.439 70.5549 105.393 68.5967 104.382C66.6386 103.374 64.1797 100.147 62.2262 97.0662C60.013 93.5733 58.6397 90.2418 57.9121 87.1676L54.5198 95.2835C56.3704 96.9375 57.7343 99.6771 57.7343 102C57.7343 104.787 55.7785 112.226 53.3641 110.834C50.9497 109.442 48.9938 99.7426 48.9938 96.9562C48.9938 94.6378 50.3484 93.4727 52.1943 93.9476L52.199 93.9429Z" fill="#0A208F"/>
</g>
<path d="M100.797 74.503L116.066 79.3848L115.256 81.9207L99.9866 77.0389L100.797 74.503Z" fill="#3A198D"/>
<path d="M92.4848 75.1166C92.4848 77.8796 94.7238 80.1185 97.4867 80.1185C100.25 80.1185 102.486 77.8796 102.486 75.1166C102.486 72.3536 100.247 70.1147 97.4867 70.1147C94.7261 70.1147 92.4848 72.3536 92.4848 75.1166Z" fill="url(#paint2_radial_3819_10639)"/>
<path d="M83.4409 109.538C83.4409 109.538 81.4406 109.491 79.4824 108.481C77.5242 107.472 75.0631 104.246 73.1119 101.165C67.6304 92.5157 67.2888 84.8444 69.2212 79.674C71.1537 74.5037 76.4457 71.6845 83.4409 71.6845C90.4361 71.6845 95.7281 74.5037 97.6606 79.674C99.5931 84.8444 99.2491 92.5181 93.7676 101.165C91.8165 104.246 89.3553 107.47 87.3994 108.481C85.4436 109.491 83.4409 109.538 83.4409 109.538Z" fill="url(#paint3_radial_3819_10639)"/>
<g style="mix-blend-mode:multiply">
<path d="M71.3403 76.1761C73.977 73.247 78.2373 71.6866 83.4404 71.6866C88.1826 71.6866 92.1388 72.985 94.7988 75.4321C91.7972 78.7005 87.4901 80.7499 82.7034 80.7499C78.2934 80.7499 74.2905 79.007 71.3403 76.1785V76.1761Z" fill="#A4A9DD"/>
</g>
<path d="M66.2819 58.5247C66.2819 67.595 73.635 74.9482 82.7054 74.9482C91.7758 74.9482 99.1289 67.595 99.1289 58.5247C99.1289 49.4543 91.7758 42.1012 82.7054 42.1012C73.635 42.1012 66.2819 49.4543 66.2819 58.5247Z" fill="url(#paint4_radial_3819_10639)"/>
<path d="M74.3252 64.7549C74.6223 69.3637 78.8475 70.6996 78.8475 70.6996C84.3641 71.2284 90.2246 70.2621 94.4803 67.8056C95.7787 67.0546 96.8362 66.2171 97.6527 65.3257C98.5978 63.2529 99.1289 60.9508 99.1289 58.5247C99.1289 56.6741 98.8177 54.8961 98.2539 53.235C97.3813 54.3978 96.1249 55.4856 94.4803 56.4355C90.2246 58.892 84.3618 59.8582 78.8475 59.3295C78.8475 59.3295 73.9509 58.9575 74.3252 64.7525V64.7549Z" fill="#0A208F"/>
<path d="M74.3252 64.7549C74.6223 69.3637 78.8475 70.6996 78.8475 70.6996C84.3641 71.2284 90.2246 70.2621 94.4803 67.8056C95.7787 67.0546 96.8362 66.2171 97.6527 65.3257C98.5978 63.2529 99.1289 60.9508 99.1289 58.5247C99.1289 56.6741 98.8177 54.8961 98.2539 53.235C97.3813 54.3978 96.1249 55.4856 94.4803 56.4355C90.2246 58.892 84.3618 59.8582 78.8475 59.3295C78.8475 59.3295 73.9509 58.9575 74.3252 64.7525V64.7549Z" fill="url(#paint5_linear_3819_10639)"/>
<path opacity="0.1" d="M94.4803 56.4355C96.1249 55.4856 97.3813 54.3978 98.2539 53.235C98.8177 54.8961 99.1289 56.6741 99.1289 58.5247C99.1289 60.9531 98.5978 63.2529 97.6527 65.3257C96.8362 66.2171 95.7787 67.0546 94.4803 67.8056C93.9094 68.1355 93.3082 68.435 92.6835 68.711C92.5595 66.0112 91.9816 61.8749 89.862 58.3633C91.5278 57.879 93.0906 57.238 94.4826 56.4355H94.4803Z" fill="white"/>
<path d="M112.19 83.2137C114.602 84.608 123.982 87.7617 126.396 86.3697C128.81 84.9753 123.343 79.5617 120.931 78.1673C118.516 76.7729 114.605 76.7729 112.19 78.1673C109.778 79.5617 109.776 81.8193 112.19 83.2137Z" fill="url(#paint6_radial_3819_10639)"/>
<g style="mix-blend-mode:multiply">
<path d="M69.2127 80.8204C69.2127 83.3354 70.979 86.3932 73.1571 87.6518C75.3352 88.9082 77.1016 87.8905 77.1016 85.3755C77.1016 82.8605 75.3352 79.8027 73.1571 78.544C70.979 77.2877 69.2127 78.3054 69.2127 80.8204Z" fill="#A4A9DD"/>
</g>
<path d="M67.3523 87.8414L69.8066 88.867L64.4573 101.668L62.0029 100.642L67.3523 87.8414Z" fill="#3A198D"/>
<path d="M59.8806 101.055C59.8806 103.841 61.8364 113.541 64.2508 114.933C66.6652 116.325 68.6211 108.888 68.6211 106.099C68.6211 103.313 66.6652 99.925 64.2508 98.5306C61.8364 97.1386 59.8806 98.2663 59.8806 101.053V101.055Z" fill="url(#paint7_radial_3819_10639)"/>
<path d="M64.6837 85.3359C64.6837 88.0989 66.9226 90.3379 69.6856 90.3379C72.4486 90.3379 74.6875 88.0989 74.6875 85.3359C74.6875 82.5729 72.4486 80.334 69.6856 80.334C66.9226 80.334 64.6837 82.5729 64.6837 85.3359Z" fill="url(#paint8_radial_3819_10639)"/>
<g style="mix-blend-mode:color-dodge" opacity="0.3">
<path d="M86.229 65.5477C86.229 66.7456 87.0689 67.2322 88.1077 66.6309C89.1464 66.032 89.984 64.5745 89.9863 63.379C89.9863 62.1812 89.1464 61.6945 88.1077 62.2934C87.0689 62.8924 86.229 64.3499 86.229 65.5477Z" fill="#07B3FA"/>
</g>
<g style="mix-blend-mode:color-dodge" opacity="0.3">
<path d="M86.6463 65.3067C86.6463 66.2379 87.3014 66.6145 88.1062 66.1489C88.911 65.6834 89.5684 64.551 89.5684 63.6176C89.5684 62.6864 88.9133 62.3098 88.1062 62.7753C87.299 63.2409 86.6439 64.3732 86.6463 65.3044V65.3067Z" fill="#07B3FA"/>
</g>
<g style="mix-blend-mode:color-dodge" opacity="0.3">
<path d="M86.8386 65.1945C86.8386 66.0039 87.4071 66.3315 88.1066 65.9267C88.8061 65.522 89.377 64.5394 89.377 63.7299C89.377 62.9204 88.8084 62.5929 88.1066 62.9976C87.4047 63.4024 86.8386 64.3873 86.8386 65.1945Z" fill="#07B3FA"/>
</g>
<g style="mix-blend-mode:color-dodge">
<path d="M87.0262 65.0869C87.0262 65.7747 87.5104 66.0531 88.107 65.7092C88.7036 65.3653 89.1855 64.5277 89.1855 63.8399C89.1855 63.1521 88.7013 62.8713 88.107 63.2152C87.5104 63.5591 87.0262 64.3967 87.0262 65.0845V65.0869Z" fill="#07B3FA"/>
</g>
<g style="mix-blend-mode:color-dodge">
<path d="M87.3196 64.9161C87.3196 65.4191 87.6729 65.6203 88.1081 65.3699C88.5432 65.1196 88.8965 64.509 88.8965 64.006C88.8965 63.503 88.5432 63.2995 88.1081 63.5521C87.6729 63.8024 87.3196 64.4131 87.3196 64.9161Z" fill="#07B3FA"/>
</g>
<g style="mix-blend-mode:color-dodge">
<path d="M87.545 64.7851C87.545 65.143 87.7953 65.2881 88.1065 65.1103C88.4176 64.9301 88.668 64.495 88.668 64.137C88.668 63.7791 88.4176 63.6317 88.1065 63.8118C87.7953 63.9896 87.545 64.4248 87.545 64.7851Z" fill="#07B3FA"/>
</g>
<g style="mix-blend-mode:color-dodge" opacity="0.3">
<path d="M93.731 62.3381C93.731 63.5359 94.5732 64.0225 95.6096 63.4213C96.6484 62.8224 97.4859 61.3648 97.4883 60.1693C97.4883 58.9715 96.6484 58.4849 95.6096 59.0838C94.5709 59.6827 93.731 61.1402 93.731 62.3381Z" fill="#07B3FA"/>
</g>
<g style="mix-blend-mode:color-dodge" opacity="0.3">
<path d="M94.1479 62.0948C94.1479 63.0259 94.8029 63.4049 95.6101 62.9394C96.4149 62.4738 97.0723 61.3391 97.0723 60.408C97.0723 59.4768 96.4172 59.1002 95.6101 59.5657C94.8053 60.0313 94.1479 61.1636 94.1479 62.0948Z" fill="#07B3FA"/>
</g>
<g style="mix-blend-mode:color-dodge" opacity="0.3">
<path d="M94.3409 61.9848C94.3409 62.7942 94.9094 63.1218 95.6089 62.717C96.3108 62.3123 96.877 61.3273 96.877 60.5179C96.877 59.7084 96.3084 59.3809 95.6089 59.7856C94.9094 60.1903 94.3409 61.1753 94.3409 61.9824V61.9848Z" fill="#07B3FA"/>
</g>
<g style="mix-blend-mode:color-dodge">
<path d="M94.5316 61.8772C94.5316 62.565 95.0159 62.8434 95.6125 62.4995C96.2091 62.1556 96.6934 61.3181 96.6934 60.6302C96.6934 59.9424 96.2091 59.6617 95.6125 60.0056C95.0159 60.3495 94.5316 61.187 94.5316 61.8772Z" fill="#07B3FA"/>
</g>
<g style="mix-blend-mode:color-dodge">
<path d="M94.8239 61.7064C94.8239 62.2093 95.1772 62.4105 95.61 62.1602C96.0452 61.9075 96.3984 61.2993 96.3984 60.7963C96.3984 60.2933 96.0452 60.0897 95.61 60.3424C95.1749 60.5927 94.8239 61.2034 94.8239 61.7064Z" fill="#07B3FA"/>
</g>
<g style="mix-blend-mode:color-dodge">
<path d="M95.0469 61.5754C95.0469 61.9333 95.2973 62.0784 95.6084 61.9006C95.9196 61.7204 96.1699 61.2853 96.1699 60.9273C96.1699 60.5694 95.9196 60.4243 95.6084 60.6021C95.2973 60.7799 95.0469 61.2151 95.0469 61.5754Z" fill="#07B3FA"/>
</g>
</g>
</g>
<defs>
<linearGradient id="paint0_linear_3819_10639" x1="62.3996" y1="44.2148" x2="59.6982" y2="48.8938" gradientUnits="userSpaceOnUse">
<stop stop-color="#F6F2ED"/>
<stop offset="0.54" stop-color="#D9D4CD"/>
<stop offset="1" stop-color="#939393"/>
</linearGradient>
<linearGradient id="paint1_linear_3819_10639" x1="66.5" y1="140.5" x2="66.5" y2="27.0001" gradientUnits="userSpaceOnUse">
<stop stop-color="white" stop-opacity="0"/>
<stop offset="0.36" stop-color="#B0DDFF"/>
<stop offset="0.66" stop-color="#77C4FF"/>
<stop offset="0.88" stop-color="#53B4FF"/>
<stop offset="1" stop-color="#46AFFF"/>
</linearGradient>
<radialGradient id="paint2_radial_3819_10639" cx="0" cy="0" r="1" gradientUnits="userSpaceOnUse" gradientTransform="translate(98.226 73.2824) rotate(180) scale(6.31908 6.31908)">
<stop stop-color="white"/>
<stop offset="0.3" stop-color="#F0F1F4"/>
<stop offset="0.86" stop-color="#CACCD7"/>
<stop offset="1" stop-color="#C1C3D0"/>
</radialGradient>
<radialGradient id="paint3_radial_3819_10639" cx="0" cy="0" r="1" gradientUnits="userSpaceOnUse" gradientTransform="translate(82.718 81.562) rotate(180) scale(30.7906 30.7906)">
<stop stop-color="white"/>
<stop offset="0.3" stop-color="#F0F1F4"/>
<stop offset="0.86" stop-color="#CACCD7"/>
<stop offset="1" stop-color="#C1C3D0"/>
</radialGradient>
<radialGradient id="paint4_radial_3819_10639" cx="0" cy="0" r="1" gradientUnits="userSpaceOnUse" gradientTransform="translate(87.6091 51.719) rotate(180) scale(25.9641)">
<stop stop-color="white"/>
<stop offset="0.3" stop-color="#F0F1F4"/>
<stop offset="0.86" stop-color="#CACCD7"/>
<stop offset="1" stop-color="#C1C3D0"/>
</radialGradient>
<linearGradient id="paint5_linear_3819_10639" x1="101.454" y1="62.0363" x2="74.9779" y2="62.0363" gradientUnits="userSpaceOnUse">
<stop stop-color="#0099FF"/>
<stop offset="1" stop-color="#0A20C7"/>
</linearGradient>
<radialGradient id="paint6_radial_3819_10639" cx="0" cy="0" r="1" gradientUnits="userSpaceOnUse" gradientTransform="translate(116.177 78.6703) rotate(180) scale(23.4491 23.4491)">
<stop stop-color="#E9EAEE"/>
<stop offset="1" stop-color="#C1C3D0"/>
</radialGradient>
<radialGradient id="paint7_radial_3819_10639" cx="0" cy="0" r="1" gradientUnits="userSpaceOnUse" gradientTransform="translate(62.0774 101.441) rotate(180) scale(31.8855 31.8855)">
<stop stop-color="#E9EAEE"/>
<stop offset="1" stop-color="#C1C3D0"/>
</radialGradient>
<radialGradient id="paint8_radial_3819_10639" cx="0" cy="0" r="1" gradientUnits="userSpaceOnUse" gradientTransform="translate(70.3243 83.3076) rotate(180) scale(8.60012 8.60012)">
<stop stop-color="white"/>
<stop offset="0.3" stop-color="#F0F1F4"/>
<stop offset="0.86" stop-color="#CACCD7"/>
<stop offset="1" stop-color="#C1C3D0"/>
</radialGradient>
<clipPath id="clip0_3819_10639">
<rect width="152" height="151" fill="white" transform="translate(4 4)"/>
</clipPath>
<clipPath id="clip1_3819_10639">
<rect width="20.7358" height="29" fill="white" transform="translate(103 19)"/>
</clipPath>
<clipPath id="clip2_3819_10639">
<rect width="78" height="77.1063" fill="white" transform="matrix(-1 0 0 1 127 38)"/>
</clipPath>
</defs>
</svg>
