<svg width="24" height="24" viewBox="0 0 24 24" fill="none" xmlns="http://www.w3.org/2000/svg">
<path fill-rule="evenodd" clip-rule="evenodd" d="M2.85938 6.0001C2.85938 5.50304 3.26232 5.1001 3.75937 5.1001H9.50303C10.0001 5.1001 10.403 5.50304 10.403 6.0001C10.403 6.49715 10.0001 6.9001 9.50303 6.9001H3.75937C3.26232 6.9001 2.85938 6.49715 2.85938 6.0001Z" fill="black"/>
<path fill-rule="evenodd" clip-rule="evenodd" d="M2.85938 12.0001C2.85938 11.503 3.26232 11.1001 3.75937 11.1001H9.84116C10.3382 11.1001 10.7412 11.503 10.7412 12.0001C10.7412 12.4972 10.3382 12.9001 9.84116 12.9001H3.75937C3.26232 12.9001 2.85938 12.4972 2.85938 12.0001Z" fill="black"/>
<path fill-rule="evenodd" clip-rule="evenodd" d="M2.85938 18.0001C2.85938 17.503 3.26232 17.1001 3.75937 17.1001H14.2474C14.7445 17.1001 15.1474 17.503 15.1474 18.0001C15.1474 18.4972 14.7445 18.9001 14.2474 18.9001H3.75937C3.26232 18.9001 2.85938 18.4972 2.85938 18.0001Z" fill="black"/>
<path fill-rule="evenodd" clip-rule="evenodd" d="M21.6686 19.5762C21.2473 19.8399 20.6919 19.712 20.4283 19.2906L17.4919 14.5966C17.2283 14.1752 17.3562 13.6199 17.7776 13.3563C18.199 13.0927 18.7543 13.2206 19.0179 13.642L21.9543 18.3359C22.2179 18.7573 22.09 19.3126 21.6686 19.5762Z" fill="black"/>
<path fill-rule="evenodd" clip-rule="evenodd" d="M15.1902 13.8226C17.9579 13.8226 20.2015 11.579 20.2015 8.81131C20.2015 6.04364 17.9579 3.8 15.1902 3.8C12.4225 3.8 10.1789 6.04364 10.1789 8.81131C10.1789 11.579 12.4225 13.8226 15.1902 13.8226ZM15.1902 15.6226C18.952 15.6226 22.0015 12.5731 22.0015 8.81131C22.0015 5.04953 18.952 2 15.1902 2C11.4284 2 8.37891 5.04953 8.37891 8.81131C8.37891 12.5731 11.4284 15.6226 15.1902 15.6226Z" fill="black"/>
</svg>
