<svg width="24" height="24" viewBox="0 0 24 24" fill="none" xmlns="http://www.w3.org/2000/svg">
<path fill-rule="evenodd" clip-rule="evenodd" d="M8.70106 4.53618C10.2315 2.11294 13.7654 2.11294 15.2959 4.53618L21.8529 14.9181C23.493 17.515 21.6269 20.9007 18.5555 20.9007H5.44145C2.36998 20.9007 0.503899 17.515 2.14404 14.9181L8.70106 4.53618ZM13.774 5.49737C12.9499 4.19254 11.047 4.19254 10.2229 5.49736L3.66592 15.8793C2.78277 17.2776 3.78758 19.1007 5.44145 19.1007H18.5555C20.2094 19.1007 21.2142 17.2776 20.331 15.8793L13.774 5.49737Z" fill="black"/>
<path fill-rule="evenodd" clip-rule="evenodd" d="M11.9961 14.0007C11.4991 14.0007 11.0961 13.5978 11.0961 13.1007V8.9007C11.0961 8.40364 11.4991 8.0007 11.9961 8.0007C12.4932 8.0007 12.8961 8.40364 12.8961 8.9007V13.1007C12.8961 13.5978 12.4932 14.0007 11.9961 14.0007Z" fill="black"/>
<path fill-rule="evenodd" clip-rule="evenodd" d="M11.9961 17.0007C11.4991 17.0007 11.0961 16.5978 11.0961 16.1007V15.9007C11.0961 15.4036 11.4991 15.0007 11.9961 15.0007C12.4932 15.0007 12.8961 15.4036 12.8961 15.9007V16.1007C12.8961 16.5978 12.4932 17.0007 11.9961 17.0007Z" fill="black"/>
</svg>
