<svg width="24" height="12" viewBox="0 0 24 12" fill="none" xmlns="http://www.w3.org/2000/svg">
<path fill-rule="evenodd" clip-rule="evenodd" d="M0.439453 0.439453C0.167969 0.710938 0 1.08594 0 1.5C0 2.32837 0.671875 3 1.5 3H22.5C23.3281 3 24 2.32837 24 1.5C24 0.671631 23.3281 0 22.5 0H1.5C1.08594 0 0.710938 0.167969 0.439453 0.439453ZM22.5 9H1.5C0.671875 9 0 9.67163 0 10.5C0 11.3284 0.671875 12 1.5 12H22.5C23.3281 12 24 11.3284 24 10.5C24 10.1174 23.8574 9.76831 23.6211 9.50317C23.3457 9.19434 22.9453 9 22.5 9Z" fill="black"/>
</svg>
