<svg width="24" height="24" viewBox="0 0 24 24" fill="none" xmlns="http://www.w3.org/2000/svg">
<path fill-rule="evenodd" clip-rule="evenodd" d="M6.36517 17.638C6.0137 17.2865 6.01369 16.7166 6.36516 16.3652L16.3651 6.36517C16.7166 6.0137 17.2864 6.01369 17.6379 6.36516C17.9894 6.71664 17.9894 7.28648 17.6379 7.63796L7.63796 17.638C7.28649 17.9894 6.71664 17.9894 6.36517 17.638Z" fill="black"/>
<path fill-rule="evenodd" clip-rule="evenodd" d="M17.638 17.638C17.2865 17.9894 16.7166 17.9894 16.3652 17.638L6.36517 7.63796C6.01369 7.28649 6.01369 6.71664 6.36517 6.36517C6.71664 6.01369 7.28649 6.01369 7.63796 6.36517L17.638 16.3652C17.9894 16.7166 17.9894 17.2865 17.638 17.638Z" fill="black"/>
</svg>
