<svg width="24" height="24" viewBox="0 0 24 24" fill="none" xmlns="http://www.w3.org/2000/svg">
<path fill-rule="evenodd" clip-rule="evenodd" d="M12.0012 4.79219C8.02171 4.79219 4.79571 8.01819 4.79571 11.9977C4.79571 12.4904 4.84504 12.9706 4.93873 13.4341L3.17442 13.7908C3.05713 13.2106 2.99571 12.6108 2.99571 11.9977C2.99571 7.02407 7.0276 2.99219 12.0012 2.99219C16.9748 2.99219 21.0067 7.02407 21.0067 11.9977C21.0067 16.9712 16.9748 21.0031 12.0012 21.0031C9.58476 21.0031 7.38902 20.0502 5.77235 18.5015C5.41341 18.1577 5.40117 17.588 5.74501 17.229C6.08886 16.8701 6.65857 16.8578 7.01751 17.2017C8.31256 18.4423 10.0671 19.2031 12.0012 19.2031C15.9807 19.2031 19.2067 15.9771 19.2067 11.9977C19.2067 8.01819 15.9807 4.79219 12.0012 4.79219Z" fill="black"/>
<path fill-rule="evenodd" clip-rule="evenodd" d="M7.56286 11.3898C7.89856 11.7564 7.87354 12.3257 7.50697 12.6614L4.00113 15.872L0.495291 12.6614C0.128725 12.3257 0.103705 11.7564 0.439405 11.3898C0.775106 11.0233 1.34441 10.9982 1.71097 11.3339L4.00113 13.4313L6.29129 11.3339C6.65786 10.9982 7.22716 11.0233 7.56286 11.3898Z" fill="black"/>
<path fill-rule="evenodd" clip-rule="evenodd" d="M11.7248 8.0416C12.2219 8.0416 12.6248 8.44454 12.6248 8.9416V11.8086L15.5473 13.6437C15.9682 13.908 16.0952 14.4635 15.8309 14.8844C15.5666 15.3054 15.0111 15.4324 14.5901 15.1681L10.8248 12.8038V8.9416C10.8248 8.44454 11.2278 8.0416 11.7248 8.0416Z" fill="black"/>
</svg>
