<svg width="24" height="24" viewBox="0 0 24 24" fill="none" xmlns="http://www.w3.org/2000/svg">
<path fill-rule="evenodd" clip-rule="evenodd" d="M18.5252 5.47788C17.7339 4.68344 16.2471 4.66526 15.1952 5.72121L14.5672 5.09555L15.1952 5.72121L11.3171 9.61438C10.2641 10.6715 10.2807 12.1701 11.0747 12.9672C11.4255 13.3193 11.4244 13.8892 11.0723 14.24C10.7201 14.5908 10.1503 14.5897 9.79948 14.2375C8.18394 12.6157 8.41763 9.97459 10.0419 8.34405L10.6762 8.97589L10.0419 8.34405L13.92 4.45089C15.5454 2.81917 18.1823 2.5831 19.8005 4.20756C21.416 5.82937 21.1823 8.47045 19.5581 10.101L17.619 12.0476C17.2683 12.3997 16.6984 12.4008 16.3463 12.0501C15.9941 11.6993 15.993 11.1294 16.3438 10.7773L18.2829 8.83067C19.3359 7.77354 19.3192 6.27497 18.5252 5.47788Z" fill="black"/>
<path fill-rule="evenodd" clip-rule="evenodd" d="M12.9261 9.76237C13.2783 9.41158 13.8481 9.41269 14.1989 9.76484C15.8145 11.3867 15.5808 14.0277 13.9565 15.6583L10.0784 19.5515C8.45303 21.1832 5.8161 21.4192 4.19792 19.7948C2.58237 18.173 2.81606 15.5319 4.4403 13.9013L6.37938 11.9547C6.73017 11.6026 7.30002 11.6015 7.65217 11.9522C8.00432 12.303 8.00542 12.8729 7.65463 13.225L5.71556 15.1716C4.66252 16.2288 4.67917 17.7274 5.47317 18.5245C6.26455 19.3189 7.75131 19.3371 8.80318 18.2811C8.80318 18.2811 8.80318 18.2811 8.80318 18.2811L12.6813 14.3879C13.7343 13.3308 13.7177 11.8323 12.9237 11.0352C12.5729 10.683 12.574 10.1132 12.9261 9.76237Z" fill="black"/>
</svg>
