<svg width="24" height="24" viewBox="0 0 24 24" fill="none" xmlns="http://www.w3.org/2000/svg">
<path fill-rule="evenodd" clip-rule="evenodd" d="M12.0016 3.90156C10.9379 3.90156 9.88456 4.11108 8.90183 4.51814C7.91909 4.9252 7.02615 5.52184 6.274 6.274C5.52184 7.02615 4.9252 7.91909 4.51814 8.90183C4.11108 9.88456 3.90156 10.9379 3.90156 12.0016C3.90156 13.0653 4.11108 14.1186 4.51814 15.1013C4.9252 16.084 5.52184 16.977 6.274 17.7291C7.02615 18.4813 7.91909 19.0779 8.90183 19.485C9.88456 19.892 10.9379 20.1016 12.0016 20.1016C13.0653 20.1016 14.1186 19.892 15.1013 19.485C16.084 19.0779 16.977 18.4813 17.7291 17.7291C18.4813 16.977 19.0779 16.084 19.485 15.1013C19.892 14.1186 20.1016 13.0653 20.1016 12.0016C20.1016 10.9379 19.892 9.88457 19.485 8.90183C19.0779 7.91909 18.4813 7.02615 17.7291 6.274C16.977 5.52184 16.084 4.9252 15.1013 4.51814C14.1186 4.11108 13.0653 3.90156 12.0016 3.90156ZM21.9016 12.0016C21.9016 10.7015 21.6455 9.41412 21.148 8.213C20.6504 7.01187 19.9212 5.92051 19.0019 5.00121C18.0826 4.08191 16.9913 3.35268 15.7901 2.85516C14.589 2.35763 13.3017 2.10156 12.0016 2.10156C10.7015 2.10156 9.41412 2.35763 8.213 2.85515C7.01187 3.35268 5.92051 4.0819 5.00121 5.0012C4.08191 5.9205 3.35268 7.01187 2.85516 8.213C2.35763 9.41412 2.10156 10.7015 2.10156 12.0016C2.10156 13.3016 2.35763 14.589 2.85515 15.7901C3.35268 16.9913 4.08191 18.0826 5.0012 19.0019C5.92051 19.9212 7.01187 20.6504 8.213 21.148C9.41412 21.6455 10.7015 21.9016 12.0016 21.9016C13.3016 21.9016 14.589 21.6455 15.7901 21.148C16.9913 20.6504 18.0826 19.9212 19.0019 19.0019C19.9212 18.0826 20.6504 16.9913 21.148 15.7901C21.6455 14.589 21.9016 13.3016 21.9016 12.0016Z" fill="black"/>
<path fill-rule="evenodd" clip-rule="evenodd" d="M12.0016 3.90156C11.8456 3.90156 11.5967 3.97491 11.2713 4.31184C10.9425 4.65236 10.5998 5.20137 10.2916 5.97185C9.9862 6.73538 9.73611 7.66267 9.56349 8.70452C9.39115 9.74468 9.30156 10.8656 9.30156 12.0016C9.30156 13.1375 9.39115 14.2584 9.56349 15.2986C9.73611 16.3405 9.9862 17.2677 10.2916 18.0313C10.5998 18.8018 10.9425 19.3508 11.2713 19.6913C11.5967 20.0282 11.8456 20.1016 12.0016 20.1016C12.1575 20.1016 12.4065 20.0282 12.7318 19.6913C13.0607 19.3508 13.4033 18.8018 13.7115 18.0313C14.0169 17.2677 14.267 16.3405 14.4396 15.2986C14.612 14.2584 14.7016 13.1375 14.7016 12.0016C14.7016 10.8656 14.612 9.74468 14.4396 8.70452C14.267 7.66267 14.0169 6.73538 13.7115 5.97185C13.4033 5.20137 13.0607 4.65236 12.7318 4.31184C12.4065 3.97491 12.1575 3.90156 12.0016 3.90156ZM9.9765 3.06145C10.5247 2.49379 11.212 2.10156 12.0016 2.10156C12.7912 2.10156 13.4784 2.49379 14.0266 3.06146C14.5713 3.62551 15.0224 4.40238 15.3828 5.30335C15.7459 6.21128 16.0262 7.26829 16.2154 8.4103C16.4049 9.55401 16.5016 10.7737 16.5016 12.0016C16.5016 13.2294 16.4049 14.4491 16.2154 15.5928C16.0262 16.7348 15.7459 17.7919 15.3828 18.6998C15.0224 19.6007 14.5713 20.3776 14.0266 20.9417C13.4784 21.5093 12.7912 21.9016 12.0016 21.9016C11.212 21.9016 10.5247 21.5093 9.97649 20.9417C9.43179 20.3776 8.98074 19.6007 8.62035 18.6998C8.25718 17.7918 7.97692 16.7348 7.7877 15.5928C7.59821 14.4491 7.50156 13.2294 7.50156 12.0016C7.50156 10.7737 7.59821 9.55401 7.7877 8.4103C7.97692 7.26829 8.25718 6.21128 8.62035 5.30335C8.98074 4.40238 9.43179 3.62551 9.9765 3.06145Z" fill="black"/>
<path fill-rule="evenodd" clip-rule="evenodd" d="M2.10156 12.0016C2.10156 11.5045 2.50451 11.1016 3.00156 11.1016H21.0016C21.4986 11.1016 21.9016 11.5045 21.9016 12.0016C21.9016 12.4986 21.4986 12.9016 21.0016 12.9016H3.00156C2.50451 12.9016 2.10156 12.4986 2.10156 12.0016Z" fill="black"/>
</svg>
