<svg width="24" height="24" viewBox="0 0 24 24" fill="none" xmlns="http://www.w3.org/2000/svg">
<path fill-rule="evenodd" clip-rule="evenodd" d="M12.0016 5.90156C10.8418 5.90156 9.90156 6.84176 9.90156 8.00156C9.90156 9.16136 10.8418 10.1016 12.0016 10.1016C13.1614 10.1016 14.1016 9.16136 14.1016 8.00156C14.1016 6.84176 13.1614 5.90156 12.0016 5.90156ZM8.10156 8.00156C8.10156 5.84765 9.84765 4.10156 12.0016 4.10156C14.1555 4.10156 15.9016 5.84765 15.9016 8.00156C15.9016 10.1555 14.1555 11.9016 12.0016 11.9016C9.84765 11.9016 8.10156 10.1555 8.10156 8.00156ZM6.85012 4.87236C7.01576 5.341 6.77013 5.85519 6.30148 6.02083C5.48464 6.30955 4.90156 7.08862 4.90156 8.00157C4.90156 8.91452 5.48464 9.6936 6.30148 9.98231C6.77013 10.148 7.01576 10.6621 6.85012 11.1308C6.68448 11.5994 6.17029 11.8451 5.70164 11.6794C4.1881 11.1445 3.10156 9.70106 3.10156 8.00157C3.10156 6.30208 4.1881 4.85868 5.70164 4.32372C6.17029 4.15808 6.68448 4.40371 6.85012 4.87236ZM17.153 4.87236C17.3186 4.40371 17.8328 4.15808 18.3015 4.32372C19.815 4.85868 20.9016 6.30208 20.9016 8.00157C20.9016 9.70106 19.815 11.1445 18.3015 11.6794C17.8328 11.8451 17.3186 11.5994 17.153 11.1308C16.9874 10.6621 17.233 10.148 17.7016 9.98231C18.5185 9.6936 19.1016 8.91452 19.1016 8.00157C19.1016 7.08862 18.5185 6.30955 17.7016 6.02083C17.233 5.85519 16.9874 5.341 17.153 4.87236ZM5.10156 18.0016C5.10156 15.2954 7.29537 13.1016 10.0016 13.1016H14.0016C16.7078 13.1016 18.9016 15.2954 18.9016 18.0016V19.0016C18.9016 19.4986 18.4986 19.9016 18.0016 19.9016H6.00156C5.50451 19.9016 5.10156 19.4986 5.10156 19.0016V18.0016ZM10.0016 14.9016C8.28948 14.9016 6.90156 16.2895 6.90156 18.0016V18.1016H17.1016V18.0016C17.1016 16.2895 15.7136 14.9016 14.0016 14.9016H10.0016ZM4.87316 13.9032C4.99705 14.3846 4.70726 14.8753 4.22589 14.9992C2.88865 15.3433 1.90156 16.5583 1.90156 18.0016V18.1016H3.00156C3.49862 18.1016 3.90156 18.5045 3.90156 19.0016C3.90156 19.4986 3.49862 19.9016 3.00156 19.9016H1.00156C0.504506 19.9016 0.101562 19.4986 0.101562 19.0016V18.0016C0.101562 15.7171 1.66402 13.7999 3.77723 13.256C4.2586 13.1321 4.74926 13.4219 4.87316 13.9032ZM19.13 13.9032C19.2539 13.4219 19.7445 13.1321 20.2259 13.256C22.3391 13.7999 23.9016 15.7171 23.9016 18.0016V19.0016C23.9016 19.4986 23.4986 19.9016 23.0016 19.9016H21.0016C20.5045 19.9016 20.1016 19.4986 20.1016 19.0016C20.1016 18.5045 20.5045 18.1016 21.0016 18.1016H22.1016V18.0016C22.1016 16.5583 21.1145 15.3433 19.7772 14.9992C19.2959 14.8753 19.0061 14.3846 19.13 13.9032Z" fill="black"/>
</svg>
