<svg width="24" height="24" viewBox="0 0 24 24" fill="none" xmlns="http://www.w3.org/2000/svg">
<path fill-rule="evenodd" clip-rule="evenodd" d="M9.33521 5.1L20.0016 5.1C20.4986 5.1 20.9016 5.50294 20.9016 6C20.9016 6.49706 20.4986 6.9 20.0016 6.9L9.33521 6.9V5.1Z" fill="black"/>
<path fill-rule="evenodd" clip-rule="evenodd" d="M3.10156 6C3.10156 5.50294 3.50451 5.1 4.00156 5.1L6.52412 5.1L6.52412 6.9L4.00156 6.9C3.50451 6.9 3.10156 6.49706 3.10156 6Z" fill="black"/>
<path fill-rule="evenodd" clip-rule="evenodd" d="M8.00156 7.2C8.6643 7.2 9.20156 6.66274 9.20156 6C9.20156 5.33726 8.6643 4.8 8.00156 4.8C7.33882 4.8 6.80156 5.33726 6.80156 6C6.80156 6.66274 7.33882 7.2 8.00156 7.2ZM8.00156 9C9.65842 9 11.0016 7.65685 11.0016 6C11.0016 4.34315 9.65842 3 8.00156 3C6.34471 3 5.00156 4.34315 5.00156 6C5.00156 7.65685 6.34471 9 8.00156 9Z" fill="black"/>
<path fill-rule="evenodd" clip-rule="evenodd" d="M9.33521 17.1L20.0016 17.1C20.4986 17.1 20.9016 17.5029 20.9016 18C20.9016 18.4971 20.4986 18.9 20.0016 18.9L9.33521 18.9V17.1Z" fill="black"/>
<path fill-rule="evenodd" clip-rule="evenodd" d="M3.10156 18C3.10156 17.5029 3.50451 17.1 4.00156 17.1H6.52412L6.52412 18.9L4.00156 18.9C3.50451 18.9 3.10156 18.4971 3.10156 18Z" fill="black"/>
<path fill-rule="evenodd" clip-rule="evenodd" d="M8.00156 19.2C8.6643 19.2 9.20156 18.6627 9.20156 18C9.20156 17.3373 8.6643 16.8 8.00156 16.8C7.33882 16.8 6.80156 17.3373 6.80156 18C6.80156 18.6627 7.33882 19.2 8.00156 19.2ZM8.00156 21C9.65842 21 11.0016 19.6569 11.0016 18C11.0016 16.3431 9.65842 15 8.00156 15C6.34471 15 5.00156 16.3431 5.00156 18C5.00156 19.6569 6.34471 21 8.00156 21Z" fill="black"/>
<path fill-rule="evenodd" clip-rule="evenodd" d="M14.6679 11.1L4.00156 11.1C3.50451 11.1 3.10156 11.5029 3.10156 12C3.10156 12.4971 3.50451 12.9 4.00156 12.9L14.6679 12.9V11.1Z" fill="black"/>
<path fill-rule="evenodd" clip-rule="evenodd" d="M20.9016 12C20.9016 11.5029 20.4986 11.1 20.0016 11.1H17.479V12.9L20.0016 12.9C20.4986 12.9 20.9016 12.4971 20.9016 12Z" fill="black"/>
<path fill-rule="evenodd" clip-rule="evenodd" d="M16.0016 13.2C15.3388 13.2 14.8016 12.6627 14.8016 12C14.8016 11.3373 15.3388 10.8 16.0016 10.8C16.6643 10.8 17.2016 11.3373 17.2016 12C17.2016 12.6627 16.6643 13.2 16.0016 13.2ZM16.0016 15C14.3447 15 13.0016 13.6569 13.0016 12C13.0016 10.3431 14.3447 9 16.0016 9C17.6584 9 19.0016 10.3431 19.0016 12C19.0016 13.6569 17.6584 15 16.0016 15Z" fill="black"/>
</svg>
