<svg width="24" height="24" viewBox="0 0 24 24" fill="none" xmlns="http://www.w3.org/2000/svg">
<g clip-path="url(#clip0_11107_8467)">
<path d="M18.517 24H5.483C2.46483 24 0 21.5296 0 18.517V5.483C0 2.47042 2.47042 0 5.483 0H18.517C21.5352 0 24 2.47042 24 5.483V18.517C24 21.5352 21.5352 24 18.517 24Z" fill="white"/>
<path d="M17.7066 4.81226H6.21517C4.58872 4.81226 3.26408 6.14248 3.26408 7.76335V14.9063C3.26408 16.5328 4.5943 17.8574 6.21517 17.8574H10.2729L10.9716 19.0647L11.659 20.2552C11.782 20.4732 12.095 20.4732 12.2236 20.2552L12.911 19.0647L13.6097 17.8574H17.7121C19.3386 17.8574 20.6632 16.5272 20.6632 14.9063V7.76894C20.6632 6.14248 19.333 4.81226 17.7066 4.81226Z" fill="url(#paint0_linear_11107_8467)"/>
<path d="M12.7657 10.0437C11.877 10.0437 11.156 10.7535 11.156 11.631C11.156 12.5085 11.877 13.2184 12.7657 13.2184C13.6544 13.2184 14.3754 12.5085 14.3754 11.631C14.3754 10.7535 13.6599 10.0437 12.7657 10.0437ZM12.7657 12.3912C12.3409 12.3912 11.9944 12.0502 11.9944 11.631C11.9944 11.2118 12.3409 10.8709 12.7657 10.8709C13.1904 10.8709 13.537 11.2118 13.537 11.631C13.537 12.0502 13.196 12.3912 12.7657 12.3912Z" fill="white"/>
<path d="M7.67394 10.0437C7.32741 10.0437 7.00324 10.1778 6.75172 10.407V9.09351H5.85745V13.1457H6.75172V12.8606C7.00324 13.0842 7.32182 13.2239 7.67394 13.2239C8.47319 13.2239 9.12154 12.5141 9.12154 11.6366C9.12154 10.7591 8.47878 10.0437 7.67394 10.0437ZM7.49509 12.4247C7.16532 12.4247 6.88027 12.2291 6.75731 11.944C6.71819 11.849 6.69024 11.7428 6.69024 11.631C6.69024 11.5192 6.7126 11.413 6.75731 11.318C6.88027 11.033 7.16532 10.8373 7.49509 10.8373C7.94222 10.8373 8.29993 11.1895 8.29993 11.631C8.29993 12.0726 7.94222 12.4247 7.49509 12.4247Z" fill="white"/>
<path d="M17.1644 10.1108V10.3623C16.9129 10.1667 16.5999 10.0493 16.2645 10.0493C15.4429 10.0493 14.7778 10.7368 14.7778 11.5808C14.7778 12.4247 15.4429 13.1122 16.2645 13.1122C16.6055 13.1122 16.9185 12.9948 17.1644 12.7992V13.224C17.1644 13.224 17.075 13.6432 16.449 13.6432V14.4312C16.449 14.4312 17.1253 14.5095 17.7289 13.9059C17.7289 13.9059 18.0084 13.6096 18.0699 13.2184V10.1108H17.1644V10.1108ZM16.4322 12.3577C15.9795 12.3577 15.6162 12.0055 15.6162 11.5752C15.6162 11.1448 15.9851 10.7927 16.4322 10.7927C16.7508 10.7927 17.0303 10.9715 17.1644 11.2286C17.2203 11.3348 17.2482 11.4522 17.2482 11.5752C17.2482 11.6981 17.2147 11.8211 17.1644 11.9217C17.0303 12.1844 16.7508 12.3577 16.4322 12.3577Z" fill="white"/>
<path d="M9.22217 9.01538V9.82581C9.22217 9.82581 9.63577 9.88171 9.71402 10.2841V13.1458H10.6362V10.2841V10.2618C10.5803 9.85935 10.34 9.55753 10.34 9.55753C9.81462 8.93713 9.22217 9.01538 9.22217 9.01538Z" fill="white"/>
</g>
<defs>
<linearGradient id="paint0_linear_11107_8467" x1="11.9626" y1="20.4175" x2="11.9626" y2="4.81383" gradientUnits="userSpaceOnUse">
<stop stop-color="#00D44D"/>
<stop offset="1" stop-color="#00E56D"/>
</linearGradient>
<clipPath id="clip0_11107_8467">
<rect width="24" height="24" fill="white"/>
</clipPath>
</defs>
</svg>
