<svg width="24" height="24" viewBox="0 0 24 24" fill="none" xmlns="http://www.w3.org/2000/svg">
<path fill-rule="evenodd" clip-rule="evenodd" d="M11.9998 2.90156C7.58768 2.90156 4.01094 6.47831 4.01094 10.8905C4.01094 15.1618 7.40878 18.8233 11.9998 21.0093C16.5909 18.8233 19.9887 15.1618 19.9887 10.8905C19.9887 6.47831 16.412 2.90156 11.9998 2.90156ZM2.21094 10.8905C2.21094 5.4842 6.59357 1.10156 11.9998 1.10156C17.4061 1.10156 21.7887 5.4842 21.7887 10.8905C21.7887 16.3231 17.4115 20.5398 12.371 22.8215C12.1351 22.9283 11.8646 22.9283 11.6287 22.8215C6.58816 20.5398 2.21094 16.3231 2.21094 10.8905ZM11.9998 8.45712C10.6559 8.45712 9.56649 9.54656 9.56649 10.8905C9.56649 12.2343 10.6559 13.3238 11.9998 13.3238C13.3437 13.3238 14.4332 12.2343 14.4332 10.8905C14.4332 9.54656 13.3437 8.45712 11.9998 8.45712ZM7.76649 10.8905C7.76649 8.55245 9.66182 6.65712 11.9998 6.65712C14.3378 6.65712 16.2332 8.55245 16.2332 10.8905C16.2332 13.2285 14.3378 15.1238 11.9998 15.1238C9.66182 15.1238 7.76649 13.2285 7.76649 10.8905Z" fill="black"/>
</svg>
