<svg width="24" height="24" viewBox="0 0 24 24" fill="none" xmlns="http://www.w3.org/2000/svg">
<path fill-rule="evenodd" clip-rule="evenodd" d="M5.26172 12.0016C5.26172 11.5045 5.66466 11.1016 6.16172 11.1016H18.1617C18.6588 11.1016 19.0617 11.5045 19.0617 12.0016C19.0617 12.4986 18.6588 12.9016 18.1617 12.9016H6.16172C5.66466 12.9016 5.26172 12.4986 5.26172 12.0016Z" fill="black"/>
<path fill-rule="evenodd" clip-rule="evenodd" d="M11.9994 18.9016C11.5023 18.9016 11.0994 18.4986 11.0994 18.0016L11.0994 6.00156C11.0994 5.50451 11.5023 5.10156 11.9994 5.10156C12.4964 5.10156 12.8994 5.50451 12.8994 6.00156L12.8994 18.0016C12.8994 18.4986 12.4964 18.9016 11.9994 18.9016Z" fill="black"/>
</svg>
