<svg width="24" height="24" viewBox="0 0 24 24" fill="none" xmlns="http://www.w3.org/2000/svg">
<path fill-rule="evenodd" clip-rule="evenodd" d="M3.8 10.4665L3.80005 18.9978C3.80005 19.1082 3.8896 19.1978 4.00005 19.1978H19.9997C20.113 19.1978 20.1997 19.1078 20.1997 19.0002V10.4655C20.1997 10.0955 20.029 9.74641 19.7357 9.5187L12.7359 4.08343C12.3028 3.74719 11.697 3.74719 11.2639 4.08343L4.26404 9.5187C3.97128 9.74602 3.8 10.0959 3.8 10.4665ZM2.00005 18.9978L2 10.4665C1.99999 9.53991 2.4282 8.66527 3.1601 8.09697L10.16 2.6617C11.2426 1.8211 12.7572 1.8211 13.8398 2.66171L20.8397 8.09697C21.5715 8.66528 21.9997 9.53892 21.9997 10.4655V19.0002C21.9997 20.1048 21.1043 20.9978 19.9997 20.9978H4.00005C2.89549 20.9978 2.00006 20.1024 2.00005 18.9978Z" fill="black"/>
<path fill-rule="evenodd" clip-rule="evenodd" d="M11.9997 13.7478C12.6901 13.7478 13.2497 14.3074 13.2497 14.9978V19.5648C13.2497 20.2551 12.6901 20.8148 11.9997 20.8148C11.3094 20.8148 10.7497 20.2551 10.7497 19.5648V14.9978C10.7497 14.3074 11.3094 13.7478 11.9997 13.7478Z" fill="black"/>
</svg>
