<svg width="24" height="24" viewBox="0 0 24 24" fill="none" xmlns="http://www.w3.org/2000/svg">
<path fill-rule="evenodd" clip-rule="evenodd" d="M10.5 17.2C14.2003 17.2 17.2 14.2003 17.2 10.5C17.2 6.79969 14.2003 3.8 10.5 3.8C6.79969 3.8 3.8 6.79969 3.8 10.5C3.8 14.2003 6.79969 17.2 10.5 17.2ZM10.5 19C15.1944 19 19 15.1944 19 10.5C19 5.80558 15.1944 2 10.5 2C5.80558 2 2 5.80558 2 10.5C2 15.1944 5.80558 19 10.5 19Z" fill="black"/>
<path fill-rule="evenodd" clip-rule="evenodd" d="M19.3636 20.6364L15.3636 16.6364L16.6364 15.3636L20.6364 19.3636C20.9879 19.7151 20.9879 20.2849 20.6364 20.6364C20.2849 20.9879 19.7151 20.9879 19.3636 20.6364Z" fill="black"/>
</svg>
