<svg width="24" height="24" viewBox="0 0 24 24" fill="none" xmlns="http://www.w3.org/2000/svg">
<path fill-rule="evenodd" clip-rule="evenodd" d="M4.52081 11.5167L12.0589 19.0134C12.1362 19.0903 12.2609 19.0911 12.3391 19.0152L19.1339 12.4293C19.2154 12.3502 19.2134 12.2252 19.1379 12.1499C16.7007 9.72381 13.0722 6.1264 11.6706 4.7372C11.6366 4.70348 11.5909 4.68281 11.5335 4.68281L4.46034 4.68282L4.46184 11.3749C4.46185 11.4282 4.48307 11.4792 4.52081 11.5167ZM10.7896 20.2897L3.25152 12.793C2.87418 12.4177 2.66196 11.9075 2.66184 11.3753L2.66016 3.88304C2.66003 3.33067 3.10778 2.88282 3.66016 2.88282L11.5335 2.88281C12.0608 2.88281 12.5633 3.08762 12.9377 3.45876C14.3392 4.84782 17.969 8.44655 20.4077 10.8743C21.1992 11.6621 21.1886 12.9445 20.3867 13.7217L13.5919 20.3077C12.8091 21.0665 11.5627 21.0585 10.7896 20.2897Z" fill="black"/>
<path d="M7.99902 9.2561C7.99902 8.56581 8.55861 8.00623 9.24889 8.00623C9.93917 8.00623 10.4988 8.56581 10.4988 9.2561C10.4988 9.94638 9.93917 10.506 9.24889 10.506C8.55861 10.506 7.99902 9.94638 7.99902 9.2561Z" fill="black"/>
</svg>
