<svg width="193" height="536" viewBox="0 0 193 536" fill="none" xmlns="http://www.w3.org/2000/svg">
<circle opacity="0.4" cx="96.5" cy="96" r="95.5" fill="#9735D0" fill-opacity="0.14" stroke="#9735D0"/>
<path d="M49.8994 57.738C51.3834 57.738 52.4894 58.76 52.6574 60.272H54.0014V57.01H54.9954V65.592H54.0014V61.154H52.6574C52.4754 62.652 51.3694 63.646 49.8994 63.646C48.3034 63.646 47.1274 62.442 47.1274 60.692C47.1274 58.956 48.3034 57.738 49.8994 57.738ZM48.0794 60.692C48.0794 61.896 48.8494 62.764 49.8994 62.764C50.9494 62.764 51.7334 61.896 51.7334 60.692C51.7334 59.488 50.9494 58.634 49.8994 58.634C48.8494 58.634 48.0794 59.488 48.0794 60.692ZM49.3534 68.742V64.766H50.4034V67.874H57.6834V68.742H49.3534ZM56.3114 65.928V56.772H57.3054V65.928H56.3114ZM60.5677 57.976H68.9397V59.152C68.9397 60.65 68.9397 62.316 68.4357 64.808L67.3997 64.682C67.6377 63.562 67.7637 62.596 67.8337 61.728L60.3997 62.162L60.2457 61.238L67.8757 60.93C67.9037 60.286 67.9037 59.698 67.9037 59.152V58.844H60.5677V57.976ZM59.2377 67.314V66.446H63.5917V63.254H64.6277V66.446H70.2977V67.314H59.2377ZM74.7361 57.724C76.5281 57.724 77.7881 59.376 77.7881 61.98C77.7881 64.584 76.5281 66.25 74.7361 66.25C72.9441 66.25 71.6701 64.584 71.6701 61.98C71.6701 59.376 72.9441 57.724 74.7361 57.724ZM72.6781 61.98C72.6781 63.982 73.5181 65.312 74.7361 65.312C75.9541 65.312 76.7941 63.982 76.7941 61.98C76.7941 59.978 75.9541 58.662 74.7361 58.662C73.5181 58.662 72.6781 59.978 72.6781 61.98ZM79.8321 69.022V56.772H80.8821V61.7H82.9121V62.582H80.8821V69.022H79.8321ZM87.6724 57.668C89.5764 57.668 90.9344 58.844 90.9344 60.538C90.9344 62.246 89.5764 63.408 87.6724 63.408C85.7544 63.408 84.3964 62.246 84.3964 60.538C84.3964 58.844 85.7544 57.668 87.6724 57.668ZM83.7664 65.438C86.0064 65.438 89.1144 65.438 91.7884 65.018L91.8724 65.788C89.1144 66.32 86.1044 66.334 83.9064 66.334L83.7664 65.438ZM85.4184 60.538C85.4184 61.686 86.3704 62.498 87.6724 62.498C88.9604 62.498 89.9124 61.686 89.9124 60.538C89.9124 59.376 88.9604 58.578 87.6724 58.578C86.3704 58.578 85.4184 59.376 85.4184 60.538ZM92.6004 69.036V56.758H93.6504V69.036H92.6004ZM99.1733 62.904H104.185V61.392H100.587V57.276H108.861V58.13H101.623V60.538H108.973V61.392H105.235V62.904H110.247V63.744H99.1733V62.904ZM100.405 65.844V64.99H108.889V69.134H107.839V65.844H100.405ZM111.41 66.558H116.422V63.884H112.74V57.64H113.776V59.852H120.132V57.64H121.168V63.884H117.458V66.558H122.512V67.44H111.41V66.558ZM113.776 63.03H120.132V60.72H113.776V63.03ZM130.17 59.992H132.634V56.772H133.684V64.094H132.634V60.874H130.17V59.992ZM123.688 63.072C125.48 62.428 126.782 60.804 126.782 59.04V58.494H124.024V57.626H130.562V58.494H127.832V59.04C127.832 60.636 129.078 62.162 130.842 62.778L130.296 63.618C128.924 63.114 127.86 62.078 127.342 60.804C126.824 62.232 125.676 63.366 124.234 63.898L123.688 63.072ZM125.536 65.648V64.78H133.684V69.022H132.634V65.648H125.536ZM144.842 56.786H145.906V65.732H144.842V56.786ZM136.162 60.65C136.162 58.872 137.534 57.64 139.34 57.64C141.16 57.64 142.518 58.872 142.518 60.65C142.518 62.4 141.16 63.646 139.34 63.646C137.534 63.646 136.162 62.4 136.162 60.65ZM137.184 60.65C137.184 61.854 138.122 62.722 139.34 62.722C140.572 62.722 141.51 61.854 141.51 60.65C141.51 59.418 140.572 58.55 139.34 58.55C138.122 58.55 137.184 59.418 137.184 60.65ZM138.08 68.742V64.822H139.116V67.874H146.284V68.742H138.08ZM70.231 78.772H71.239V91.022H70.231V78.772ZM61.313 88.054V80.284H65.919V81.152H62.349V87.172C64.113 87.172 65.233 87.102 66.535 86.808L66.647 87.69C65.247 87.998 64.057 88.054 62.097 88.054H61.313ZM65.079 84.344V83.462H67.767V79.066H68.761V90.378H67.767V84.344H65.079ZM82.0333 78.758H83.0833V91.036H82.0333V78.758ZM73.5353 83.98C73.5353 81.376 74.8233 79.724 76.6433 79.724C78.4493 79.724 79.7373 81.376 79.7373 83.98C79.7373 86.584 78.4493 88.25 76.6433 88.25C74.8233 88.25 73.5353 86.584 73.5353 83.98ZM74.5573 83.98C74.5573 85.982 75.4113 87.312 76.6433 87.312C77.8613 87.312 78.7293 85.982 78.7293 83.98C78.7293 81.978 77.8613 80.662 76.6433 80.662C75.4113 80.662 74.5573 81.978 74.5573 83.98ZM94.3397 78.758H95.3757V91.036H94.3397V84.288H91.7497V83.434H94.3397V78.758ZM85.8837 88.082V79.906H91.5397V80.774H86.9197V83.336H90.9937V84.19H86.9197V87.2C89.1877 87.2 90.6297 87.144 92.3097 86.822L92.4217 87.69C90.6577 87.998 89.1737 88.082 86.8077 88.082H85.8837ZM103.832 82.692H106.562V78.772H107.612V87.872H106.562V83.56H103.832V82.692ZM97.826 82.314L102.432 82.104C102.6 81.642 102.712 81.138 102.754 80.62H98.428V79.766H103.846C103.846 82.916 102.222 85.282 98.316 86.598L97.882 85.758C99.982 85.072 101.326 84.092 102.054 82.874L97.994 83.182L97.826 82.314ZM99.954 90.742V86.962H101.018V89.874H107.976V90.742H99.954ZM116.082 81.04H118.798V78.772H119.848V85.1H118.798V81.908H116.082V81.04ZM109.796 84.288C111.616 83.672 112.876 82.132 112.876 80.326V79.15H113.898V80.326C113.898 81.936 115.186 83.434 116.922 84.022L116.376 84.834C115.032 84.344 113.954 83.364 113.408 82.132C112.904 83.518 111.784 84.596 110.356 85.114L109.796 84.288ZM111.994 86.584V85.744H119.848V88.642H113.044V90.014H120.31V90.854H112.008V87.844H118.812V86.584H111.994ZM122.747 79.682H128.557V80.522H123.783V82.118H128.221V82.958H123.783V84.624C126.387 84.624 127.857 84.568 129.565 84.274L129.677 85.128C127.899 85.422 126.415 85.478 123.727 85.478H122.747V79.682ZM123.909 88.768C123.909 87.368 125.463 86.556 128.011 86.556C130.559 86.556 132.113 87.368 132.113 88.768C132.113 90.196 130.559 90.994 128.011 90.994C125.463 90.994 123.909 90.196 123.909 88.768ZM124.959 88.768C124.959 89.65 126.107 90.168 128.011 90.168C129.901 90.168 131.063 89.65 131.063 88.768C131.063 87.914 129.901 87.382 128.011 87.382C126.107 87.382 124.959 87.914 124.959 88.768ZM130.993 86.374V78.786H132.057V86.374H130.993ZM47.8949 110.348H59.1789V111.622H47.8949V110.348ZM48.8049 103.04V101.794H58.1989V103.04H56.4209V107.002H58.1709V108.234H48.8609V107.002H50.5969V103.04H48.8049ZM52.1369 107.002H54.8949V103.04H52.1369V107.002ZM60.4813 101.948H64.8913V106.54H61.9793V108.892C63.2533 108.878 64.4433 108.808 65.8293 108.57L65.9553 109.816C64.3033 110.11 62.9173 110.152 61.3493 110.152H60.4953V105.336H63.4213V103.18H60.4813V101.948ZM65.4373 106.26V105H66.7813V100.926H68.2093V112.504H66.7813V106.26H65.4373ZM69.3013 113.12V100.66H70.7713V113.12H69.3013ZM81.1036 100.674H82.6436V107.744H81.1036V100.674ZM72.5776 104.23C72.5776 102.494 73.9916 101.276 75.9096 101.276C77.8276 101.276 79.2416 102.494 79.2416 104.23C79.2416 105.966 77.8276 107.184 75.9096 107.184C73.9916 107.184 72.5776 105.966 72.5776 104.23ZM74.0756 104.23C74.0756 105.266 74.8596 105.91 75.9096 105.91C76.9596 105.91 77.7436 105.266 77.7436 104.23C77.7436 103.208 76.9596 102.55 75.9096 102.55C74.8596 102.55 74.0756 103.208 74.0756 104.23ZM74.4536 112.98V108.346H82.6436V112.98H74.4536ZM75.9656 111.762H81.1456V109.564H75.9656V111.762ZM93.4799 100.66H95.0199V113.134H93.4799V110.278H90.8619V109.088H93.4799V100.66ZM84.5479 107.086C86.8719 107.086 89.9519 107.072 92.6259 106.708L92.7239 107.814C91.5899 108.01 90.4139 108.136 89.2799 108.22V112.756H87.7399V108.304C86.6619 108.346 85.6539 108.346 84.7299 108.346L84.5479 107.086ZM85.4159 103.74C85.4159 102.242 86.7319 101.234 88.5799 101.234C90.4279 101.234 91.7299 102.242 91.7299 103.74C91.7299 105.252 90.4279 106.246 88.5799 106.246C86.7319 106.246 85.4159 105.252 85.4159 103.74ZM86.8719 103.74C86.8719 104.58 87.5719 105.084 88.5799 105.084C89.5879 105.084 90.2739 104.58 90.2739 103.74C90.2739 102.914 89.5879 102.382 88.5799 102.382C87.5719 102.382 86.8719 102.914 86.8719 103.74ZM98.1283 101.822H106.878V103.292C106.878 105.112 106.878 106.834 106.318 109.48L104.792 109.34C105.044 108.248 105.184 107.282 105.254 106.4L97.9883 106.778L97.7923 105.532L105.324 105.266C105.352 104.58 105.352 103.936 105.352 103.292V103.068H98.1283V101.822ZM96.8403 111.552V110.278H108.11V111.552H96.8403ZM110.057 106.946C110.057 105.126 110.771 102.732 111.779 101.136H113.347C112.199 102.718 111.401 105.112 111.401 106.946C111.401 108.78 112.199 111.174 113.347 112.756H111.779C110.771 111.16 110.057 108.766 110.057 106.946ZM121.905 101.78V103.082H116.711V106.148H121.177V107.436H116.711V110.81H121.905V112.112H115.227V101.78H121.905ZM126.976 110.81C129.188 110.81 130.672 109.256 130.672 106.946C130.672 104.636 129.188 103.082 126.976 103.082L125.506 103.096V110.796L126.976 110.81ZM124.022 112.112V101.78H126.99C130.014 101.78 132.142 103.908 132.142 106.946C132.142 109.984 130.014 112.112 126.99 112.112H124.022ZM140.362 101.78V103.082H135.308V106.288H139.592V107.576H135.308V112.112H133.824V101.78H140.362ZM145.107 106.946C145.107 108.766 144.407 111.146 143.399 112.756H141.831C142.965 111.188 143.763 108.78 143.763 106.946C143.763 105.112 142.965 102.704 141.831 101.136H143.399C144.407 102.746 145.107 105.126 145.107 106.946ZM91.9597 125.74H94.0317V122.674H95.5717V130.094H94.0317V127H91.9597V125.74ZM85.1977 128.75C87.1717 128.078 88.2077 126.44 88.2077 124.788V124.648H85.6317V123.416H92.3237V124.648H89.7617V124.788C89.7617 126.314 90.7557 127.84 92.6737 128.498L91.9037 129.702C90.5317 129.226 89.5657 128.274 89.0197 127.098C88.4877 128.4 87.4517 129.45 85.9817 129.954L85.1977 128.75ZM87.1577 131.942V130.696H95.5717V135.134H94.0317V131.942H87.1577ZM97.476 128.68H100.094V127.084C99.17 126.678 98.638 126.048 98.638 125.236C98.638 123.752 100.374 122.87 103.104 122.87C105.834 122.87 107.57 123.752 107.57 125.236C107.57 126.048 107.038 126.692 106.086 127.098V128.68H108.732V129.884H97.476V128.68ZM98.778 132.88C98.778 131.452 100.402 130.64 103.09 130.64C105.764 130.64 107.388 131.452 107.388 132.88C107.388 134.322 105.764 135.134 103.09 135.134C100.402 135.134 98.778 134.322 98.778 132.88ZM100.22 125.236C100.22 126.006 101.284 126.426 103.104 126.426C104.91 126.426 105.974 126.006 105.974 125.236C105.974 124.466 104.91 124.046 103.104 124.046C101.284 124.046 100.22 124.466 100.22 125.236ZM100.332 132.88C100.332 133.594 101.298 133.958 103.09 133.958C104.868 133.958 105.834 133.594 105.834 132.88C105.834 132.18 104.868 131.816 103.09 131.816C101.298 131.816 100.332 132.18 100.332 132.88ZM101.62 128.68H104.56V127.49C104.112 127.56 103.622 127.588 103.104 127.588C102.572 127.588 102.068 127.56 101.62 127.49V128.68Z" fill="#6D0CA6"/>
<circle opacity="0.4" cx="96.5" cy="268" r="95.5" fill="#9735D0" fill-opacity="0.14" stroke="#9735D0"/>
<path d="M67.3629 229.78L71.1989 240.112H69.6169L68.5809 237.298H64.3389L63.2609 240.112H61.6789L65.5849 229.78H67.3629ZM64.8149 236.01H68.0909L66.4809 231.656L64.8149 236.01ZM72.4256 230.116H73.9096V240.112H72.4256V230.116ZM75.7342 230.116H77.2182V240.112H75.7342V230.116ZM79.0428 234.106H85.1468V235.59H79.0428V234.106ZM87.1965 233.434H88.6805V240.112H87.1965V233.434ZM87.0985 230.942C87.0985 230.452 87.4485 230.102 87.9385 230.102C88.4285 230.102 88.7785 230.452 88.7785 230.942C88.7785 231.432 88.4285 231.782 87.9385 231.782C87.4485 231.782 87.0985 231.432 87.0985 230.942ZM95.2986 236.444C95.2986 235.38 94.7526 234.736 93.8286 234.736C92.9186 234.75 92.2186 235.464 92.2326 236.444V240.126H90.7486V233.448H92.2326V234.358C92.6526 233.84 93.3666 233.462 94.0106 233.462C95.2706 233.462 96.7826 234.288 96.7826 236.388V240.126H95.2986V236.444ZM98.5799 234.106H104.684V235.59H98.5799V234.106ZM111.774 238.922C113.958 238.922 115.428 237.326 115.428 234.946C115.428 232.566 113.958 230.97 111.774 230.97C109.59 230.97 108.134 232.566 108.134 234.946C108.134 237.326 109.59 238.922 111.774 238.922ZM106.636 234.946C106.636 231.852 108.764 229.668 111.774 229.668C114.798 229.668 116.926 231.852 116.926 234.946C116.926 238.04 114.798 240.224 111.774 240.224C108.764 240.224 106.636 238.04 106.636 234.946ZM123.107 236.444C123.107 235.38 122.561 234.736 121.637 234.736C120.727 234.75 120.027 235.464 120.041 236.444V240.126H118.557V233.448H120.041V234.358C120.461 233.84 121.175 233.462 121.819 233.462C123.079 233.462 124.591 234.288 124.591 236.388V240.126H123.107V236.444ZM129.318 240.154C127.428 240.154 126.098 238.768 126.098 236.808C126.098 234.834 127.428 233.448 129.318 233.448C131.39 233.448 132.048 235.142 132.09 235.254C132.496 236.206 132.37 237.27 132.37 237.382H127.554C127.722 238.278 128.478 238.894 129.318 238.894C130.424 238.894 130.872 238.25 130.984 238.054L132.174 238.586C131.852 239.342 130.914 240.154 129.318 240.154ZM127.554 236.206H130.97C130.83 235.38 130.354 234.708 129.318 234.708C128.422 234.708 127.722 235.338 127.554 236.206ZM56.2443 260.81C58.4563 260.81 59.9403 259.256 59.9403 256.946C59.9403 254.636 58.4563 253.082 56.2443 253.082L54.7743 253.096V260.796L56.2443 260.81ZM53.2903 262.112V251.78H56.2583C59.2823 251.78 61.4103 253.908 61.4103 256.946C61.4103 259.984 59.2823 262.112 56.2583 262.112H53.2903ZM65.7833 262.182C63.9353 262.182 62.6193 260.782 62.6193 258.822C62.6193 256.862 63.9353 255.462 65.7833 255.462C66.4413 255.462 67.1693 255.77 67.7013 256.4V255.448H69.1853V262.126H67.7013V261.23C67.1693 261.902 66.4413 262.182 65.7833 262.182ZM64.1033 258.822C64.1033 260.082 64.8173 260.922 65.8813 260.922C66.8613 260.922 67.7013 260.04 67.7153 258.822C67.7013 257.604 66.8613 256.722 65.8813 256.722C64.8173 256.722 64.1033 257.548 64.1033 258.822ZM71.778 262.126V256.722H70.518V255.434H71.778V253.096H73.262V255.434H74.844V256.722H73.262V262.126H71.778ZM79.0587 262.182C77.2107 262.182 75.8947 260.782 75.8947 258.822C75.8947 256.862 77.2107 255.462 79.0587 255.462C79.7167 255.462 80.4447 255.77 80.9767 256.4V255.448H82.4607V262.126H80.9767V261.23C80.4447 261.902 79.7167 262.182 79.0587 262.182ZM77.3787 258.822C77.3787 260.082 78.0927 260.922 79.1567 260.922C80.1367 260.922 80.9767 260.04 80.9907 258.822C80.9767 257.604 80.1367 256.722 79.1567 256.722C78.0927 256.722 77.3787 257.548 77.3787 258.822ZM91.6048 256.932C92.7248 256.932 93.5088 256.134 93.5088 255C93.5088 253.88 92.7108 253.082 91.5908 253.082H89.3228V256.932H91.6048ZM87.8388 262.112V251.78H91.6468C93.6068 251.78 94.9788 253.11 94.9788 255C94.9788 256.89 93.6068 258.22 91.6468 258.22H89.3228V262.112H87.8388ZM96.2284 252.116H97.7124V262.112H96.2284V252.116ZM102.274 262.182C100.426 262.182 99.1095 260.782 99.1095 258.822C99.1095 256.862 100.426 255.462 102.274 255.462C102.932 255.462 103.66 255.77 104.192 256.4V255.448H105.676V262.126H104.192V261.23C103.66 261.902 102.932 262.182 102.274 262.182ZM100.594 258.822C100.594 260.082 101.308 260.922 102.372 260.922C103.352 260.922 104.192 260.04 104.206 258.822C104.192 257.604 103.352 256.722 102.372 256.722C101.308 256.722 100.594 257.548 100.594 258.822ZM108.268 262.126V256.722H107.008V255.434H108.268V253.096H109.752V255.434H111.334V256.722H109.752V262.126H108.268ZM115.123 262.126H113.639V256.736H112.463V255.42H113.639V254.02C113.639 252.788 114.493 251.85 115.725 251.766C116.299 251.724 117.013 251.948 117.349 252.284L116.593 253.376C116.285 253.11 116.089 253.054 115.851 253.082C115.417 253.124 115.123 253.488 115.123 254.02V255.42H116.999V256.736H115.123V262.126ZM121.074 260.908C122.11 260.908 122.81 260.082 122.81 258.808C122.81 257.548 122.11 256.708 121.074 256.708C120.038 256.708 119.338 257.534 119.338 258.808C119.338 260.082 120.024 260.908 121.074 260.908ZM117.854 258.808C117.854 256.834 119.184 255.434 121.074 255.434C122.964 255.434 124.294 256.834 124.294 258.808C124.294 260.768 122.964 262.182 121.074 262.182C119.184 262.182 117.854 260.768 117.854 258.808ZM125.733 262.126V255.448H127.217V256.428C127.665 255.798 128.477 255.378 129.261 255.42V256.792C128.071 256.736 127.217 257.786 127.217 258.808V262.126H125.733ZM139.332 258.332C139.332 257.38 138.814 256.75 138.058 256.75C137.204 256.75 136.63 257.408 136.63 258.262V262.126H135.132V258.332C135.132 257.38 134.628 256.75 133.886 256.75C133.032 256.75 132.43 257.478 132.43 258.416V262.126H130.946V255.448H132.43V256.358C132.822 255.826 133.396 255.462 134.026 255.462C134.824 255.462 135.608 255.966 136 256.666C136.462 255.966 137.358 255.462 138.156 255.462C139.738 255.462 140.83 256.638 140.83 258.276V262.126H139.332V258.332ZM58.6993 274.676C57.3133 274.676 56.3473 275.67 56.3473 277.098C56.3473 278.526 57.3133 279.534 58.6993 279.534C60.0433 279.534 60.9953 278.526 60.9953 277.098C60.9953 275.67 60.0433 274.676 58.6993 274.676ZM55.3393 277.098C55.3393 275.152 56.7113 273.78 58.6713 273.78C60.6313 273.78 62.0033 275.152 62.0033 277.098C62.0033 277.812 61.7793 278.456 61.4853 278.974L58.6153 284H57.4533L59.5673 280.332C59.2873 280.388 58.9793 280.43 58.6713 280.43C56.7113 280.43 55.3393 279.058 55.3393 277.098ZM72.6841 272.772H73.7061V285.022H72.6841V278.596H70.9761V284.406H69.9681V273.094H70.9761V277.728H72.6841V272.772ZM63.3601 281.62C66.2161 280.038 67.3641 277.784 67.5321 275.236H63.8081V274.368H68.5681C68.5681 277.476 67.4761 280.416 63.9761 282.39L63.3601 281.62ZM79.5445 273.668C81.4485 273.668 82.8065 274.844 82.8065 276.538C82.8065 278.246 81.4485 279.408 79.5445 279.408C77.6265 279.408 76.2685 278.246 76.2685 276.538C76.2685 274.844 77.6265 273.668 79.5445 273.668ZM75.6385 281.438C77.8785 281.438 80.9865 281.438 83.6605 281.018L83.7445 281.788C80.9865 282.32 77.9765 282.334 75.7785 282.334L75.6385 281.438ZM77.2905 276.538C77.2905 277.686 78.2425 278.498 79.5445 278.498C80.8325 278.498 81.7845 277.686 81.7845 276.538C81.7845 275.376 80.8325 274.578 79.5445 274.578C78.2425 274.578 77.2905 275.376 77.2905 276.538ZM84.4725 285.036V272.758H85.5225V285.036H84.4725ZM96.0434 276.538H97.0934V278.148H102.105V279.002H91.0454V278.148H96.0434V276.538ZM91.6754 276.342C93.8594 276.09 96.0434 274.928 96.0434 273.332V272.856H97.1074V273.332C97.1074 274.928 99.2914 276.09 101.475 276.342L101.111 277.154C99.2214 276.888 97.3454 276.048 96.5754 274.704C95.8054 276.048 93.9294 276.888 92.0394 277.154L91.6754 276.342ZM92.3894 280.864V280.052H100.677V282.81H93.4534V284.056H101.055V284.882H92.4314V282.026H99.6554V280.864H92.3894ZM104.612 273.29H113.026V276.44H105.704V278.05H113.306V278.918H104.64V275.614H111.976V274.13H104.612V273.29ZM103.282 281.088V280.234H114.384V281.088H109.33V285.036H108.294V281.088H103.282ZM122 274.592H124.52V272.786H125.57V281.928H124.52V277.994H122V277.126H124.52V275.474H122V274.592ZM115.546 279.436C117.338 278.722 118.612 276.972 118.612 275.04V273.444H119.648V275.04C119.648 276.846 120.894 278.54 122.63 279.226L122.056 280.052C120.726 279.492 119.662 278.372 119.144 276.986C118.626 278.484 117.534 279.674 116.092 280.262L115.546 279.436ZM117.716 284.742V280.99H118.766V283.874H125.864V284.742H117.716ZM133.284 272.996C135.972 272.996 137.582 273.738 137.582 275.11C137.582 276.482 135.972 277.238 133.284 277.238C130.596 277.238 128.986 276.482 128.986 275.11C128.986 273.738 130.596 272.996 133.284 272.996ZM127.754 278.946V278.092H138.814V278.946H127.754ZM129.098 280.836V280.024H137.386V282.74H130.162V284.056H137.764V284.882H129.14V281.97H136.364V280.836H129.098ZM130.064 275.11C130.064 275.964 131.268 276.44 133.284 276.44C135.3 276.44 136.504 275.964 136.504 275.11C136.504 274.27 135.3 273.78 133.284 273.78C131.268 273.78 130.064 274.27 130.064 275.11ZM55.3594 294.772H56.4094V299.84H58.4394V300.722H56.4094V307.022H55.3594V294.772ZM46.9314 297.614V296.746H50.0674V294.912H51.1314V296.746H54.1834V297.614H46.9314ZM47.6454 301.464C47.6454 299.812 48.9054 298.664 50.6134 298.664C52.3354 298.664 53.5814 299.812 53.5814 301.464C53.5814 303.116 52.3354 304.264 50.6134 304.264C48.9054 304.264 47.6454 303.116 47.6454 301.464ZM48.6534 301.464C48.6534 302.584 49.4654 303.382 50.6134 303.382C51.7474 303.382 52.5734 302.584 52.5734 301.464C52.5734 300.344 51.7474 299.532 50.6134 299.532C49.4654 299.532 48.6534 300.344 48.6534 301.464ZM67.5957 294.758H68.6457V299.686H70.6197V300.568H68.6457V307.022H67.5957V294.758ZM59.7557 303.9V295.976H60.7917V303.032C62.5697 303.032 64.4177 302.892 66.4197 302.472L66.5457 303.354C64.4457 303.774 62.5837 303.9 60.7217 303.9H59.7557ZM75.4361 295.668C77.3401 295.668 78.6981 296.844 78.6981 298.538C78.6981 300.246 77.3401 301.408 75.4361 301.408C73.5181 301.408 72.1601 300.246 72.1601 298.538C72.1601 296.844 73.5181 295.668 75.4361 295.668ZM71.5301 303.438C73.7701 303.438 76.8781 303.438 79.5521 303.018L79.6361 303.788C76.8781 304.32 73.8681 304.334 71.6701 304.334L71.5301 303.438ZM73.1821 298.538C73.1821 299.686 74.1341 300.498 75.4361 300.498C76.7241 300.498 77.6761 299.686 77.6761 298.538C77.6761 297.376 76.7241 296.578 75.4361 296.578C74.1341 296.578 73.1821 297.376 73.1821 298.538ZM80.3641 307.036V294.758H81.4141V307.036H80.3641ZM87.973 295.164H96.933V295.976H95.057V298.398H96.891V299.21H88.015V298.398H89.849V295.976H87.973V295.164ZM86.937 301.114V300.274H97.997V301.114H86.937ZM88.281 303.032V302.234H96.569V304.894H89.345V306.07H96.947V306.882H88.323V304.124H95.547V303.032H88.281ZM90.913 298.398H94.021V295.976H90.913V298.398ZM108.483 294.772H109.491V303.13H108.483V298.874H106.761V302.066H105.781V295.01H106.761V298.006H108.483V294.772ZM99.7193 296.606V295.752H104.325V299.14H100.755V301.016C102.365 301.016 103.625 300.932 105.053 300.638L105.165 301.492C103.597 301.814 102.309 301.87 100.531 301.87H99.7473V298.342H103.303V296.606H99.7193ZM100.741 306.154C102.827 305.818 104.913 304.516 104.913 302.892V302.57H105.963V302.892C105.963 304.516 108.049 305.818 110.135 306.154L109.715 306.98C107.923 306.658 106.173 305.72 105.431 304.348C104.689 305.72 102.939 306.658 101.147 306.98L100.741 306.154ZM111.41 300.974H116.408V299.532H112.488V298.678H114.322V296.032H112.446V295.178H121.406V296.032H119.53V298.678H121.364V299.532H117.458V300.974H122.47V301.828H111.41V300.974ZM112.782 306.854V303.018H121.112V306.854H112.782ZM113.804 306H120.09V303.858H113.804V306ZM115.386 298.678H118.494V296.032H115.386V298.678ZM129.176 295.556C131.724 295.556 133.614 296.9 133.614 298.916C133.614 300.946 131.724 302.276 129.176 302.276C126.642 302.276 124.738 300.946 124.738 298.916C124.738 296.9 126.642 295.556 129.176 295.556ZM123.646 305.37V304.488H134.748V305.37H123.646ZM125.746 298.916C125.746 300.414 127.216 301.422 129.176 301.422C131.15 301.422 132.606 300.414 132.606 298.916C132.606 297.432 131.15 296.41 129.176 296.41C127.216 296.41 125.746 297.432 125.746 298.916ZM135.882 304.614H140.894V302.262H137.282V298.51H144.562V296.536H137.254V295.682H145.598V299.35H138.318V301.408H145.878V302.262H141.93V304.614H146.984V305.482H135.882V304.614Z" fill="#6D0CA6"/>
<circle opacity="0.4" cx="96.5" cy="440" r="95.5" fill="#9735D0" fill-opacity="0.14" stroke="#9735D0"/>
<path d="M68.6752 390.262H77.1592V391.228C77.1592 392.222 77.1592 393.314 76.8652 394.784H78.5452V396.03H67.2612V394.784H75.3392C75.6332 393.44 75.6612 392.432 75.6612 391.508H68.6752V390.262ZM68.6052 401.994V397.472H77.1452V401.994H68.6052ZM70.1172 400.762H75.6472V398.676H70.1172V400.762ZM79.4975 395.358H90.7535V396.576H88.1495V398.172C88.9615 398.55 89.4095 399.124 89.4095 399.88C89.4095 401.322 87.7855 402.134 85.1115 402.134C82.4235 402.134 80.7995 401.322 80.7995 399.88C80.7995 399.11 81.2615 398.522 82.1155 398.144V396.576H79.4975V395.358ZM80.6595 392.264C80.6595 390.78 82.3955 389.898 85.1255 389.898C87.8555 389.898 89.5915 390.78 89.5915 392.264C89.5915 393.748 87.8555 394.63 85.1255 394.63C82.3955 394.63 80.6595 393.748 80.6595 392.264ZM82.2415 392.264C82.2415 393.048 83.3055 393.454 85.1255 393.454C86.9315 393.454 87.9955 393.048 87.9955 392.264C87.9955 391.494 86.9315 391.074 85.1255 391.074C83.3055 391.074 82.2415 391.494 82.2415 392.264ZM82.3535 399.88C82.3535 400.594 83.3195 400.958 85.1115 400.958C86.8895 400.958 87.8555 400.594 87.8555 399.88C87.8555 399.166 86.8895 398.802 85.1115 398.802C83.3195 398.802 82.3535 399.166 82.3535 399.88ZM83.6555 397.738C84.1035 397.668 84.5795 397.64 85.1115 397.64C85.6575 397.64 86.1615 397.668 86.6095 397.738V396.576H83.6555V397.738ZM93.8058 399.712L92.8538 402.932H91.7478L92.2798 399.712H93.8058ZM104.661 397.472C107.335 397.472 109.057 398.354 109.057 399.81C109.057 401.252 107.335 402.134 104.661 402.134C101.987 402.134 100.279 401.252 100.279 399.81C100.279 398.354 101.987 397.472 104.661 397.472ZM99.1033 396.562V395.33H103.443V393.076H104.969V395.33H110.331V396.562H99.1033ZM100.391 391.48V390.262H108.959V391.298C108.959 392.292 108.959 393.328 108.623 394.616L107.111 394.448C107.419 393.258 107.433 392.376 107.433 391.48H100.391ZM101.805 399.81C101.805 400.552 102.869 400.958 104.661 400.958C106.453 400.958 107.517 400.552 107.517 399.81C107.517 399.054 106.453 398.634 104.661 398.634C102.869 398.634 101.805 399.054 101.805 399.81ZM116.898 397.472C119.572 397.472 121.294 398.354 121.294 399.81C121.294 401.252 119.572 402.134 116.898 402.134C114.224 402.134 112.516 401.252 112.516 399.81C112.516 398.354 114.224 397.472 116.898 397.472ZM111.34 396.562V395.33H115.68V393.076H117.206V395.33H122.568V396.562H111.34ZM112.628 391.48V390.262H121.196V391.298C121.196 392.292 121.196 393.328 120.86 394.616L119.348 394.448C119.656 393.258 119.67 392.376 119.67 391.48H112.628ZM114.042 399.81C114.042 400.552 115.106 400.958 116.898 400.958C118.69 400.958 119.754 400.552 119.754 399.81C119.754 399.054 118.69 398.634 116.898 398.634C115.106 398.634 114.042 399.054 114.042 399.81ZM125.634 399.712L124.682 402.932H123.576L124.108 399.712H125.634ZM72.3774 411.66H73.8334V424.12H72.3774V411.66ZM62.9834 420.606C64.7614 419.486 65.5314 417.246 65.5314 415.062V414.25H63.3894V412.99H69.0034V414.25H67.0294V415.062C67.0294 417.162 67.7574 419.29 69.5214 420.326L68.6114 421.432C67.4774 420.746 66.7214 419.57 66.2874 418.156C65.8674 419.696 65.0834 420.998 63.9074 421.74L62.9834 420.606ZM68.0934 417.26V416.014H69.8714V411.898H71.2994V423.532H69.8714V417.26H68.0934ZM75.4438 421.362H80.3158V418.506H81.8558V421.362H86.7278V422.622H75.4438V421.362ZM75.9198 417.792C78.4258 417.386 80.2318 415.706 80.2738 413.914H76.3818V412.682H85.7618V413.914H81.8698C81.9118 415.706 83.7318 417.344 86.2798 417.736L85.6778 418.954C83.5778 418.562 81.8838 417.456 81.0858 415.902C80.2878 417.47 78.6078 418.604 76.5358 419.01L75.9198 417.792ZM89.7521 421.712L88.8001 424.932H87.6941L88.2261 421.712H89.7521ZM91.809 418.66H103.093V419.92H100.349V424.12H98.781V419.92H96.065V424.12H94.483V419.92H91.809V418.66ZM92.971 414.88C92.971 413.186 94.777 412.136 97.409 412.136C100.055 412.136 101.861 413.186 101.861 414.88C101.861 416.574 100.055 417.638 97.409 417.638C94.777 417.638 92.971 416.574 92.971 414.88ZM94.553 414.88C94.553 415.86 95.673 416.406 97.409 416.406C99.159 416.406 100.293 415.86 100.293 414.88C100.293 413.928 99.159 413.354 97.409 413.354C95.673 413.354 94.553 413.928 94.553 414.88ZM104.031 418.156H108.889V417.218H105.473V412.01H113.971V413.186H106.999V414.012H113.677V415.16H106.999V416.042H114.055V417.218H110.429V418.156H115.287V419.374H104.031V418.156ZM105.347 422.104C105.347 420.774 106.915 420.088 109.659 420.088C112.375 420.088 113.957 420.774 113.957 422.104C113.957 423.42 112.375 424.12 109.659 424.12C106.915 424.12 105.347 423.42 105.347 422.104ZM106.901 422.104C106.901 422.706 107.825 422.986 109.659 422.986C111.479 422.986 112.417 422.706 112.417 422.104C112.417 421.502 111.479 421.208 109.659 421.208C107.825 421.208 106.901 421.502 106.901 422.104ZM119.522 417.47H130.778V418.716H119.522V417.47ZM120.81 421.852C120.81 420.396 122.434 419.584 125.122 419.584C127.796 419.584 129.42 420.396 129.42 421.852C129.42 423.308 127.796 424.134 125.122 424.134C122.434 424.134 120.81 423.308 120.81 421.852ZM120.908 416.476V412.066H129.406V413.312H122.42V415.244H129.49V416.476H120.908ZM122.364 421.852C122.364 422.58 123.344 422.944 125.122 422.944C126.9 422.944 127.866 422.58 127.866 421.852C127.866 421.138 126.9 420.76 125.122 420.76C123.344 420.76 122.364 421.138 122.364 421.852ZM61.4776 433.758H62.5276V438.63H64.5576V439.512H62.5276V446.036H61.4776V433.758ZM53.6656 442.97V434.976H59.3496V435.83H54.7016V442.074C56.9556 442.074 58.5096 442.004 60.3016 441.654L60.4276 442.55C58.5376 442.9 56.9416 442.97 54.6176 442.97H53.6656ZM68.7859 434.5C70.6199 434.5 71.9639 435.676 71.9639 437.384C71.9639 439.092 70.6199 440.254 68.7859 440.254C66.9379 440.254 65.6079 439.092 65.6079 437.384C65.6079 435.676 66.9379 434.5 68.7859 434.5ZM66.6299 437.384C66.6299 438.56 67.5399 439.372 68.7859 439.372C70.0319 439.372 70.9559 438.56 70.9559 437.384C70.9559 436.208 70.0319 435.396 68.7859 435.396C67.5399 435.396 66.6299 436.208 66.6299 437.384ZM66.9519 443.712C66.9519 442.27 68.4779 441.43 70.9699 441.43C73.4479 441.43 74.9739 442.27 74.9739 443.712C74.9739 445.154 73.4479 445.994 70.9699 445.994C68.4779 445.994 66.9519 445.154 66.9519 443.712ZM67.9739 443.712C67.9739 444.608 69.1219 445.154 70.9699 445.154C72.8039 445.154 73.9379 444.608 73.9379 443.712C73.9379 442.816 72.8039 442.284 70.9699 442.284C69.1219 442.284 67.9739 442.816 67.9739 443.712ZM73.7979 441.038V433.772H74.8479V435.634H76.6539V436.516H74.8479V438.238H76.6539V439.12H74.8479V441.038H73.7979ZM86.0342 433.786H87.0842V437.832H88.9182V438.714H87.0842V442.97H86.0342V433.786ZM77.6342 436.138V435.284H80.7282V433.786H81.7782V435.284H84.8722V436.138H77.6342ZM78.3342 439.12C78.3342 437.734 79.5102 436.838 81.2462 436.838C82.9822 436.838 84.1722 437.734 84.1722 439.12C84.1722 440.492 82.9822 441.388 81.2462 441.388C79.5102 441.388 78.3342 440.492 78.3342 439.12ZM79.3282 439.12C79.3282 439.988 80.0982 440.562 81.2462 440.562C82.3942 440.562 83.1642 439.988 83.1642 439.12C83.1642 438.238 82.3942 437.664 81.2462 437.664C80.0982 437.664 79.3282 438.238 79.3282 439.12ZM79.4962 445.742V442.228H80.5322V444.874H87.6582V445.742H79.4962ZM96.1071 434.5H97.1291V436.068C97.1291 437.776 98.4031 439.344 100.181 439.974L99.6491 440.8C98.2631 440.296 97.1851 439.246 96.6531 437.944C96.1491 439.414 95.0431 440.548 93.6011 441.122L93.0271 440.282C94.8751 439.61 96.1071 437.958 96.1071 436.04V434.5ZM94.9871 445.742V441.948H96.0371V444.874H103.107V445.742H94.9871ZM101.497 442.816V433.758H102.547V437.538H104.381V438.42H102.547V442.816H101.497ZM108.623 434.346C110.275 434.346 111.507 435.284 111.731 436.712H114.293V433.772H115.343V440.338H114.293V437.58H111.731C111.535 439.022 110.289 440.002 108.623 440.002C106.789 440.002 105.473 438.84 105.473 437.174C105.473 435.494 106.789 434.346 108.623 434.346ZM106.481 437.174C106.481 438.308 107.363 439.106 108.623 439.106C109.869 439.106 110.751 438.308 110.751 437.174C110.751 436.026 109.869 435.228 108.623 435.228C107.363 435.228 106.481 436.026 106.481 437.174ZM107.531 445.854V440.968H108.581V442.536H114.293V440.968H115.343V445.854H107.531ZM108.581 445H114.293V443.376H108.581V445ZM122.176 440.268H124.458V438.056H122.372C121.784 440.128 120.454 441.99 118.144 443.376L117.528 442.606C120.16 441.024 121.504 438.784 121.7 436.208H118.046V435.34H122.736C122.736 435.97 122.68 436.6 122.568 437.202H124.458V434.094H125.452V445.378H124.458V441.122H122.176V440.268ZM126.908 446.022V433.772H127.916V446.022H126.908ZM133.726 434.668C135.63 434.668 136.988 435.844 136.988 437.538C136.988 439.246 135.63 440.408 133.726 440.408C131.808 440.408 130.45 439.246 130.45 437.538C130.45 435.844 131.808 434.668 133.726 434.668ZM129.82 442.438C132.06 442.438 135.168 442.438 137.842 442.018L137.926 442.788C135.168 443.32 132.158 443.334 129.96 443.334L129.82 442.438ZM131.472 437.538C131.472 438.686 132.424 439.498 133.726 439.498C135.014 439.498 135.966 438.686 135.966 437.538C135.966 436.376 135.014 435.578 133.726 435.578C132.424 435.578 131.472 436.376 131.472 437.538ZM138.654 446.036V433.758H139.704V446.036H138.654ZM68.6177 455.772H69.6257V468.022H68.6177V455.772ZM59.6997 465.054V457.284H64.3057V458.152H60.7357V464.172C62.4997 464.172 63.6197 464.102 64.9217 463.808L65.0337 464.69C63.6337 464.998 62.4437 465.054 60.4837 465.054H59.6997ZM63.4657 461.344V460.462H66.1537V456.066H67.1477V467.378H66.1537V461.344H63.4657ZM80.4201 455.758H81.4701V468.036H80.4201V455.758ZM71.9221 460.98C71.9221 458.376 73.2101 456.724 75.0301 456.724C76.8361 456.724 78.1241 458.376 78.1241 460.98C78.1241 463.584 76.8361 465.25 75.0301 465.25C73.2101 465.25 71.9221 463.584 71.9221 460.98ZM72.9441 460.98C72.9441 462.982 73.7981 464.312 75.0301 464.312C76.2481 464.312 77.1161 462.982 77.1161 460.98C77.1161 458.978 76.2481 457.662 75.0301 457.662C73.7981 457.662 72.9441 458.978 72.9441 460.98ZM92.7264 455.758H93.7624V468.036H92.7264V461.288H90.1364V460.434H92.7264V455.758ZM84.2704 465.082V456.906H89.9264V457.774H85.3064V460.336H89.3804V461.19H85.3064V464.2C87.5744 464.2 89.0164 464.144 90.6964 463.822L90.8084 464.69C89.0444 464.998 87.5604 465.082 85.1944 465.082H84.2704ZM102.407 456.85H103.457V459.076C103.457 461.316 104.983 463.57 106.747 464.396L106.117 465.236C104.731 464.55 103.527 463.08 102.953 461.316C102.393 463.178 101.175 464.746 99.7473 465.46L99.1033 464.592C100.881 463.738 102.407 461.4 102.407 459.076V456.85ZM108.105 468.036V455.758H109.155V468.036H108.105ZM116.366 456.612H117.458V457.564C117.458 459.692 119.866 461.554 121.952 461.946L121.462 462.814C119.656 462.394 117.696 461.078 116.912 459.272C116.128 461.078 114.182 462.394 112.362 462.814L111.9 461.946C113.958 461.54 116.366 459.692 116.366 457.564V456.612ZM111.41 466.342V465.474H122.512V466.342H111.41ZM128.924 458.852H130.59V455.982H131.584V463.024H130.59V459.72H128.924V458.852ZM124.22 462.366V456.57H128.84V457.438H125.228V458.992H128.35V459.818H125.228V461.526C127.006 461.526 128.112 461.456 129.414 461.204L129.512 462.044C128.112 462.324 126.95 462.366 124.99 462.366H124.22ZM125.942 467.854V463.738H133.95V467.854H125.942ZM126.978 467H132.942V464.578H126.978V467ZM132.956 463.15V455.772H133.95V463.15H132.956ZM66.7699 478.584H74.9599V479.648C74.9599 480.81 74.9599 482.07 74.6099 483.848H76.4299V484.73H71.4039V490.05H70.3399V484.73H65.3559V483.848H73.5459C73.9239 482.098 73.9239 480.796 73.9239 479.648V479.438H66.7699V478.584ZM77.5922 483.946H88.6522V484.8H83.6542V486.228H87.2802V489.98H86.2442V487.082H78.8242V486.228H82.6042V484.8H77.5922V483.946ZM78.2782 482.434C80.5322 482.21 82.4922 481.244 82.5622 479.816H78.7402V478.976H82.6042V477.702H83.6542V478.976H87.5322V479.816H83.6962C83.7662 481.244 85.7262 482.21 87.9802 482.434L87.6442 483.232C85.6702 483.022 83.8642 482.28 83.1222 481.034C82.3802 482.28 80.5742 483.022 78.6002 483.232L78.2782 482.434ZM99.2086 477.772H100.217V490.022H99.2086V477.772ZM89.9826 483.05C89.9826 480.446 91.0046 478.808 92.5726 478.808C94.0706 478.808 95.0506 480.236 95.1766 482.56H96.7866V478.052H97.7806V489.392H96.7866V483.428H95.1766C95.0926 485.822 94.0846 487.306 92.5726 487.306C91.0046 487.306 89.9826 485.668 89.9826 483.05ZM90.9486 483.05C90.9486 485.052 91.5786 486.326 92.5726 486.326C93.5946 486.326 94.2246 485.052 94.2246 483.05C94.2246 481.048 93.5946 479.788 92.5726 479.788C91.5786 479.788 90.9486 481.048 90.9486 483.05ZM113.705 477.772H114.755V480.936H116.589V481.818H114.755V484.996H113.705V477.772ZM105.235 483.918C106.215 483.918 107.363 483.918 108.553 483.876V483.092C107.125 482.98 106.229 482.42 106.229 481.496C106.229 480.488 107.335 479.886 109.057 479.886C110.793 479.886 111.899 480.488 111.899 481.496C111.899 482.406 111.017 482.98 109.589 483.092V483.848C110.737 483.792 111.885 483.708 112.963 483.554L113.033 484.226C110.429 484.674 107.503 484.702 105.361 484.702L105.235 483.918ZM105.543 479.48V478.71H108.553V477.646H109.589V478.71H112.585V479.48H105.543ZM106.873 486.312V485.57H114.755V488.006H107.923V489.126H115.231V489.882H106.901V487.306H113.733V486.312H106.873ZM107.223 481.496C107.223 482.056 107.937 482.406 109.057 482.406C110.191 482.406 110.905 482.056 110.905 481.496C110.905 480.936 110.191 480.586 109.057 480.586C107.937 480.586 107.223 480.936 107.223 481.496ZM117.528 483.862H120.286V482.112C119.306 481.72 118.76 481.104 118.76 480.278C118.76 478.836 120.412 478.01 123.058 478.01C125.704 478.01 127.356 478.836 127.356 480.278C127.356 481.104 126.81 481.72 125.844 482.098V483.862H128.588V484.702H117.528V483.862ZM118.872 487.824C118.872 486.452 120.44 485.668 123.058 485.668C125.676 485.668 127.244 486.452 127.244 487.824C127.244 489.224 125.676 490.008 123.058 490.008C120.44 490.008 118.872 489.224 118.872 487.824ZM119.838 480.278C119.838 481.174 121.084 481.72 123.058 481.72C125.032 481.72 126.278 481.174 126.278 480.278C126.278 479.368 125.032 478.822 123.058 478.822C121.084 478.822 119.838 479.368 119.838 480.278ZM119.922 487.824C119.922 488.692 121.098 489.182 123.058 489.182C125.004 489.182 126.18 488.692 126.18 487.824C126.18 486.984 125.004 486.48 123.058 486.48C121.098 486.48 119.922 486.984 119.922 487.824ZM121.322 483.862H124.808V482.392C124.29 482.476 123.702 482.532 123.058 482.532C122.414 482.532 121.84 482.49 121.322 482.392V483.862Z" fill="#6D0CA6"/>
</svg>
