<svg width="108" height="108" viewBox="0 0 108 108" fill="none" xmlns="http://www.w3.org/2000/svg">
<path fill-rule="evenodd" clip-rule="evenodd" d="M71.442 25.9852C70.3675 25.3316 68.9604 25.6627 68.2992 26.7248L56.4281 45.7918C55.7669 46.8539 56.1019 48.2446 57.1764 48.8982C58.2509 49.5518 59.658 49.2206 60.3192 48.1586L72.1903 29.0915C72.8515 28.0295 72.5165 26.6387 71.442 25.9852ZM50.8238 59.1016C49.7493 58.448 48.3422 58.7792 47.681 59.8412L35.8099 78.9083C35.1487 79.9703 35.4837 81.3611 36.5582 82.0146C37.6327 82.6682 39.0398 82.3371 39.701 81.275L51.5721 62.208C52.2333 61.1459 51.8983 59.7552 50.8238 59.1016Z" fill="#6D0CA6"/>
<path fill-rule="evenodd" clip-rule="evenodd" d="M36.5582 25.9852C37.6327 25.3316 39.0398 25.6627 39.701 26.7248L51.5721 45.7918C52.2333 46.8539 51.8983 48.2446 50.8238 48.8982C49.7493 49.5518 48.3422 49.2206 47.681 48.1586L35.8099 29.0915C35.1487 28.0295 35.4837 26.6387 36.5582 25.9852ZM57.1764 59.1016C58.2509 58.448 59.658 58.7792 60.3192 59.8412L72.1903 78.9083C72.8515 79.9703 72.5165 81.3611 71.442 82.0146C70.3675 82.6682 68.9604 82.3371 68.2992 81.275L56.4281 62.208C55.7669 61.1459 56.1019 59.7552 57.1764 59.1016Z" fill="#6D0CA6"/>
<path fill-rule="evenodd" clip-rule="evenodd" d="M23.2876 53.9999C23.2876 52.7529 24.3104 51.742 25.572 51.742H45.8778C47.1394 51.742 48.1622 52.7529 48.1622 53.9999C48.1622 55.2469 47.1394 56.2578 45.8778 56.2578H25.572C24.3104 56.2578 23.2876 55.2469 23.2876 53.9999Z" fill="#6D0CA6"/>
<path fill-rule="evenodd" clip-rule="evenodd" d="M59.838 53.9999C59.838 52.7529 60.8608 51.742 62.1224 51.742H82.4282C83.6898 51.742 84.7126 52.7529 84.7126 53.9999C84.7126 55.2469 83.6898 56.2578 82.4282 56.2578H62.1224C60.8608 56.2578 59.838 55.2469 59.838 53.9999Z" fill="#6D0CA6"/>
<path fill-rule="evenodd" clip-rule="evenodd" d="M28.4048 45.6738C27.3122 45.0503 26.9379 43.6694 27.5687 42.5894L31.0195 36.6816C31.6503 35.6016 33.0475 35.2316 34.1401 35.8551C35.2327 36.4786 35.607 37.8596 34.9762 38.9395L31.5254 44.8473C30.8946 45.9273 29.4974 46.2973 28.4048 45.6738ZM28.4131 62.3401C29.5057 61.7166 30.9028 62.0866 31.5336 63.1665L34.9923 69.0879C35.6232 70.1678 35.2488 71.5487 34.1562 72.1723C33.0636 72.7958 31.6665 72.4257 31.0356 71.3458L27.5769 65.4245C26.9461 64.3445 27.3204 62.9636 28.4131 62.3401ZM46.6393 80.0723C46.6393 78.8253 47.662 77.8144 48.9237 77.8144H59.0765C60.3382 77.8144 61.3609 78.8253 61.3609 80.0723C61.3609 81.3194 60.3382 82.3303 59.0765 82.3303H48.9237C47.662 82.3303 46.6393 81.3194 46.6393 80.0723ZM46.6393 27.9275C46.6393 26.6804 47.662 25.6695 48.9237 25.6695L59.0765 25.6695C60.3382 25.6695 61.3609 26.6804 61.3609 27.9275C61.3609 29.1745 60.3382 30.1854 59.0765 30.1854L48.9237 30.1854C47.662 30.1854 46.6393 29.1745 46.6393 27.9275ZM73.8679 72.1314C72.7752 71.5079 72.4009 70.127 73.0317 69.047L76.4776 63.1477C77.1084 62.0677 78.5055 61.6977 79.5981 62.3212C80.6908 62.9447 81.0651 64.3257 80.4343 65.4056L76.9884 71.305C76.3576 72.3849 74.9605 72.7549 73.8679 72.1314ZM73.9379 35.9883C75.0305 35.3648 76.4276 35.7348 77.0585 36.8148L80.4316 42.5895C81.0624 43.6694 80.688 45.0504 79.5954 45.6739C78.5028 46.2974 77.1057 45.9274 76.4749 44.8474L73.1018 39.0727C72.4709 37.9928 72.8453 36.6118 73.9379 35.9883Z" fill="#6D0CA6"/>
<ellipse cx="35.0998" cy="23.2873" rx="14.175" ry="14.175" fill="#CC7DFA"/>
<path d="M35.1026 15.5288C33.0891 15.5288 31.4896 17.1606 31.4896 19.1418C31.4896 21.123 33.0891 22.7548 35.1026 22.7548C37.116 22.7548 38.7155 21.123 38.7155 19.1418C38.7155 17.1606 37.116 15.5288 35.1026 15.5288Z" fill="#6D0CA6"/>
<path d="M35.1007 23.3869C33.2991 23.3869 31.6688 24.0054 30.4796 24.8654C29.3325 25.695 28.4326 26.8795 28.4326 28.091C28.4326 29.4724 29.5539 30.195 30.702 30.5553C31.8847 30.9265 33.4546 31.0493 35.1007 31.0493C36.7468 31.0493 38.3166 30.9265 39.4993 30.5553C40.6475 30.195 41.7687 29.4724 41.7687 28.091C41.7687 26.8795 40.8689 25.695 39.7217 24.8654C38.5326 24.0054 36.9023 23.3869 35.1007 23.3869Z" fill="#6D0CA6"/>
<circle cx="20.925" cy="54.0002" r="14.175" fill="#CC7DFA"/>
<path d="M20.9273 46.2407C18.9139 46.2407 17.3143 47.8725 17.3143 49.8537C17.3143 51.8349 18.9139 53.4667 20.9273 53.4667C22.9407 53.4667 24.5402 51.8349 24.5402 49.8537C24.5402 47.8725 22.9407 46.2407 20.9273 46.2407Z" fill="#6D0CA6"/>
<path d="M20.9254 54.0988C19.1238 54.0988 17.4935 54.7173 16.3043 55.5773C15.1572 56.4069 14.2573 57.5914 14.2573 58.8029C14.2573 60.1843 15.3786 60.9069 16.5267 61.2672C17.7094 61.6384 19.2793 61.7612 20.9254 61.7612C22.5715 61.7612 24.1414 61.6384 25.324 61.2672C26.4722 60.9069 27.5935 60.1843 27.5935 58.8029C27.5935 57.5914 26.6936 56.4069 25.5464 55.5773C24.3573 54.7173 22.727 54.0988 20.9254 54.0988Z" fill="#6D0CA6"/>
<ellipse cx="35.1003" cy="84.7136" rx="14.175" ry="14.175" fill="#CC7DFA"/>
<path d="M35.1026 76.9546C33.0891 76.9546 31.4896 78.5864 31.4896 80.5676C31.4896 82.5488 33.0891 84.1806 35.1026 84.1806C37.116 84.1806 38.7155 82.5488 38.7155 80.5676C38.7155 78.5864 37.116 76.9546 35.1026 76.9546Z" fill="#6D0CA6"/>
<path d="M35.1007 84.8127C33.2991 84.8127 31.6688 85.4312 30.4796 86.2911C29.3325 87.1208 28.4326 88.3053 28.4326 89.5168C28.4326 90.8982 29.5539 91.6208 30.702 91.9811C31.8847 92.3523 33.4546 92.4751 35.1007 92.4751C36.7468 92.4751 38.3166 92.3523 39.4993 91.9811C40.6475 91.6208 41.7687 90.8982 41.7687 89.5168C41.7687 88.3053 40.8689 87.1208 39.7217 86.2911C38.5326 85.4312 36.9023 84.8127 35.1007 84.8127Z" fill="#6D0CA6"/>
<ellipse cx="72.9011" cy="23.2878" rx="14.175" ry="14.175" fill="#CC7DFA"/>
<path d="M72.901 15.5264C70.8876 15.5264 69.288 17.1581 69.288 19.1394C69.288 21.1206 70.8876 22.7523 72.901 22.7523C74.9144 22.7523 76.514 21.1206 76.514 19.1394C76.514 17.1581 74.9144 15.5264 72.901 15.5264Z" fill="#6D0CA6"/>
<path d="M72.9015 23.3844C71.0998 23.3844 69.4695 24.003 68.2804 24.8629C67.1332 25.6925 66.2334 26.877 66.2334 28.0885C66.2334 29.47 67.3547 30.1925 68.5028 30.5529C69.6855 30.9241 71.2554 31.0469 72.9015 31.0469C74.5476 31.0469 76.1174 30.9241 77.3001 30.5529C78.4482 30.1925 79.5695 29.47 79.5695 28.0885C79.5695 26.877 78.6697 25.6925 77.5225 24.8629C76.3334 24.003 74.7031 23.3844 72.9015 23.3844Z" fill="#6D0CA6"/>
<circle cx="87.0739" cy="53.9997" r="14.175" fill="#CC7DFA"/>
<path d="M87.0762 46.2407C85.0628 46.2407 83.4632 47.8725 83.4632 49.8537C83.4632 51.8349 85.0628 53.4667 87.0762 53.4667C89.0896 53.4667 90.6892 51.8349 90.6892 49.8537C90.6892 47.8725 89.0896 46.2407 87.0762 46.2407Z" fill="#6D0CA6"/>
<path d="M87.0743 54.0988C85.2727 54.0988 83.6424 54.7173 82.4533 55.5773C81.3061 56.4069 80.4062 57.5914 80.4062 58.8029C80.4062 60.1843 81.5275 60.9069 82.6757 61.2672C83.8584 61.6384 85.4282 61.7612 87.0743 61.7612C88.7204 61.7612 90.2903 61.6384 91.473 61.2672C92.6211 60.9069 93.7424 60.1843 93.7424 58.8029C93.7424 57.5914 92.8425 56.4069 91.6954 55.5773C90.5062 54.7173 88.8759 54.0988 87.0743 54.0988Z" fill="#6D0CA6"/>
<ellipse cx="72.9011" cy="84.7136" rx="14.175" ry="14.175" fill="#CC7DFA"/>
<path d="M72.9033 76.9546C70.8899 76.9546 69.2903 78.5864 69.2903 80.5676C69.2903 82.5488 70.8899 84.1806 72.9033 84.1806C74.9167 84.1806 76.5163 82.5488 76.5163 80.5676C76.5163 78.5864 74.9167 76.9546 72.9033 76.9546Z" fill="#6D0CA6"/>
<path d="M72.9015 84.8127C71.0998 84.8127 69.4695 85.4312 68.2804 86.2911C67.1332 87.1208 66.2334 88.3053 66.2334 89.5168C66.2334 90.8982 67.3547 91.6208 68.5028 91.9811C69.6855 92.3523 71.2554 92.4751 72.9015 92.4751C74.5476 92.4751 76.1174 92.3523 77.3001 91.9811C78.4482 91.6208 79.5695 90.8982 79.5695 89.5168C79.5695 88.3053 78.6697 87.1208 77.5225 86.2911C76.3334 85.4312 74.7031 84.8127 72.9015 84.8127Z" fill="#6D0CA6"/>
</svg>
