<svg width="232" height="200" viewBox="0 0 232 200" fill="none" xmlns="http://www.w3.org/2000/svg">
<path d="M11.6399 120.069C4.44152 107.658 4.44152 92.3422 11.6399 79.9313L46.4399 19.9313C53.5955 7.59398 66.7788 4.68557e-06 81.0411 4.06231e-06L150.959 1.0069e-06C165.221 3.83636e-07 178.405 7.59398 185.56 19.9313L220.36 79.9313C227.558 92.3422 227.558 107.658 220.36 120.069L185.56 180.069C178.405 192.406 165.221 200 150.959 200H81.0411C66.7788 200 53.5955 192.406 46.4399 180.069L11.6399 120.069Z" fill="#1A1A1C"/>
<path fill-rule="evenodd" clip-rule="evenodd" d="M151.724 88.4738C151.906 87.0066 152 85.5121 152 83.9956C152 72.0823 146.213 61.5206 137.297 54.968C137.297 54.9676 137.297 54.9684 137.297 54.968C131.333 50.5856 123.969 47.9956 116.001 47.9956C107.185 47.9956 99.1085 51.1649 92.8496 56.4264L94.4013 57.7535C97.2102 60.3114 102.996 67.303 103.671 74.8061C104.301 81.8196 108.93 87.5184 116.001 87.5956C118.719 87.6253 121.467 85.662 121.46 82.9443C121.458 82.1039 121.319 81.2447 121.102 80.4541C120.8 79.3546 120.774 78.0896 121.401 76.7956C122.983 73.5341 125.667 71.9912 128.323 70.4641C129.354 69.8716 130.38 69.2815 131.337 68.5943C132.854 67.504 134.239 66.3537 134.849 65.4272C136.534 62.8697 138.139 57.5264 137.297 54.968C131.333 50.5856 123.969 47.9956 116.001 47.9956C96.119 47.9956 80 64.1134 80 83.9956C80 103.878 96.1178 119.996 116 119.996C117.696 119.996 119.365 119.878 120.999 119.651C120.999 119.651 120.999 119.652 120.999 119.651C137.058 117.421 149.73 104.598 151.727 88.4649C151.726 88.4678 151.725 88.4708 151.724 88.4738ZM151.724 88.4738C151.682 88.6185 151.638 88.7686 151.594 88.9235C150.465 92.8289 148.461 99.763 136.587 99.8868C136.587 99.8868 124.73 99.8868 121.173 106.59C118.463 111.696 119.838 117.206 120.999 119.651C137.055 117.421 149.723 104.602 151.724 88.4738Z" fill="#CC7DFA"/>
<path d="M103.671 74.8061C102.996 67.303 97.2102 60.3114 94.4013 57.7535L92.8496 56.4264C99.1085 51.1649 107.185 47.9956 116.001 47.9956C123.969 47.9956 131.333 50.5844 137.297 54.9667C138.139 57.5246 136.534 62.8693 134.849 65.4272C134.239 66.3537 132.854 67.504 131.337 68.5943C127.915 71.0528 123.597 72.2688 121.401 76.7956C120.774 78.0896 120.8 79.3546 121.102 80.4541C121.319 81.2447 121.458 82.1039 121.46 82.9443C121.467 85.662 118.719 87.6253 116.001 87.5956C108.93 87.5184 104.301 81.8196 103.671 74.8061Z" fill="#6D0CA6"/>
<path d="M121.173 106.592C124.73 99.8881 136.587 99.8881 136.587 99.8881C148.942 99.7592 150.611 92.2577 151.727 88.4661C149.73 104.599 137.059 117.423 121 119.654C119.839 117.21 118.463 111.698 121.173 106.592Z" fill="#6D0CA6"/>
<path fill-rule="evenodd" clip-rule="evenodd" d="M82.4148 96.9087C82.1912 96.3868 81.9742 95.8044 81.7633 95.1571C81.0994 93.1192 80.6123 91.0015 80.3203 88.822C73.0139 96.9977 69.8301 104.609 72.614 109.431C77.7804 118.379 101.543 114.332 125.69 100.391C149.837 86.4496 165.224 67.8939 160.057 58.9455C157.233 54.0541 148.853 53.0458 137.89 55.4138C139.984 57.0198 141.897 58.8508 143.591 60.8705C143.692 60.9907 143.785 61.1088 143.87 61.225C147.196 60.8099 149.805 60.8739 151.666 61.2433C152.758 61.4599 153.426 61.749 153.798 61.9731C154.128 62.1723 154.201 62.3024 154.211 62.3194L154.212 62.3216C154.222 62.3383 154.298 62.467 154.306 62.8525C154.314 63.2864 154.23 64.0098 153.872 65.0633C153.138 67.2225 151.482 70.0965 148.67 73.4872C143.082 80.2259 133.88 87.8682 122.315 94.5451C110.751 101.222 99.5309 105.37 90.9011 106.84C86.5589 107.58 83.2419 107.577 81.0049 107.133C79.9135 106.916 79.2451 106.627 78.8735 106.403C78.5433 106.204 78.4699 106.074 78.4603 106.057L78.459 106.055C78.4491 106.038 78.3731 105.909 78.3658 105.524C78.3575 105.09 78.4413 104.367 78.7994 103.313C79.3829 101.597 80.5489 99.4288 82.4148 96.9087Z" fill="#6D0CA6"/>
<path d="M78.6095 146.4V148.26H71.1895V152.64H77.5695V154.48H71.1895V159.3H78.6095V161.16H69.0695V146.4H78.6095ZM85.1212 159.22C85.8612 159.22 86.7212 158.84 87.2612 158.24L88.7212 159.7C87.9012 160.6 86.4012 161.24 85.2012 161.24C82.3612 161.24 80.3612 159.24 80.3612 156.44C80.3612 153.62 82.3612 151.62 85.2012 151.62C86.4612 151.62 87.8612 152.26 88.7212 153.18L87.2612 154.62C86.7212 154.02 85.8612 153.64 85.1212 153.64C83.5412 153.64 82.4812 154.74 82.4812 156.44C82.4812 158.12 83.5412 159.22 85.1212 159.22ZM94.5804 159.44C96.0604 159.44 97.0604 158.26 97.0604 156.44C97.0604 154.64 96.0604 153.44 94.5804 153.44C93.1004 153.44 92.1004 154.62 92.1004 156.44C92.1004 158.26 93.0804 159.44 94.5804 159.44ZM89.9804 156.44C89.9804 153.62 91.8804 151.62 94.5804 151.62C97.2804 151.62 99.1804 153.62 99.1804 156.44C99.1804 159.24 97.2804 161.26 94.5804 161.26C91.8804 161.26 89.9804 159.24 89.9804 156.44ZM102.657 157.9C103.077 158.94 104.117 159.42 104.757 159.42C105.757 159.42 106.397 159.04 106.397 158.38C106.397 157.78 105.517 157.5 104.537 157.16C103.237 156.7 101.397 156.08 101.397 154.24C101.397 152.56 102.937 151.54 104.897 151.54C106.077 151.54 107.837 152.22 108.317 153.94L106.537 154.58C106.217 153.52 105.357 153.36 104.897 153.36C104.057 153.36 103.517 153.7 103.517 154.24C103.517 154.84 104.337 155.08 105.357 155.44C106.717 155.92 108.517 156.54 108.517 158.36C108.517 160.1 106.977 161.24 104.757 161.24C103.297 161.24 101.697 160.32 100.997 158.86L102.657 157.9ZM113.901 165.32H111.581L113.661 160.38L109.821 151.64H112.161L114.781 157.96L117.301 151.64H119.601L116.041 160.22L113.901 165.32ZM122.325 157.9C122.745 158.94 123.785 159.42 124.425 159.42C125.425 159.42 126.065 159.04 126.065 158.38C126.065 157.78 125.185 157.5 124.205 157.16C122.905 156.7 121.065 156.08 121.065 154.24C121.065 152.56 122.605 151.54 124.565 151.54C125.745 151.54 127.505 152.22 127.985 153.94L126.205 154.58C125.885 153.52 125.025 153.36 124.565 153.36C123.725 153.36 123.185 153.7 123.185 154.24C123.185 154.84 124.005 155.08 125.025 155.44C126.385 155.92 128.185 156.54 128.185 158.36C128.185 160.1 126.645 161.24 124.425 161.24C122.965 161.24 121.365 160.32 120.665 158.86L122.325 157.9ZM131.502 161.18V153.46H129.702V151.62H131.502V148.28H133.622V151.62H135.882V153.46H133.622V161.18H131.502ZM141.983 161.22C139.283 161.22 137.383 159.24 137.383 156.44C137.383 153.62 139.283 151.64 141.983 151.64C144.943 151.64 145.883 154.06 145.943 154.22C146.523 155.58 146.343 157.1 146.343 157.26H139.463C139.703 158.54 140.783 159.42 141.983 159.42C143.563 159.42 144.203 158.5 144.363 158.22L146.063 158.98C145.603 160.06 144.263 161.22 141.983 161.22ZM139.463 155.58H144.343C144.143 154.4 143.463 153.44 141.983 153.44C140.703 153.44 139.703 154.34 139.463 155.58ZM160.723 155.76C160.723 154.4 159.983 153.5 158.903 153.5C157.683 153.5 156.863 154.44 156.863 155.66V161.18H154.723V155.76C154.723 154.4 154.003 153.5 152.943 153.5C151.723 153.5 150.863 154.54 150.863 155.88V161.18H148.743V151.64H150.863V152.94C151.423 152.18 152.243 151.66 153.143 151.66C154.283 151.66 155.403 152.38 155.963 153.38C156.623 152.38 157.903 151.66 159.043 151.66C161.303 151.66 162.863 153.34 162.863 155.68V161.18H160.723V155.76Z" fill="white"/>
</svg>
