<svg width="232" height="200" viewBox="0 0 232 200" fill="none" xmlns="http://www.w3.org/2000/svg">
<path d="M11.6399 120.069C4.44152 107.658 4.44152 92.3422 11.6399 79.9313L46.4399 19.9313C53.5955 7.59398 66.7788 4.68557e-06 81.0411 4.06231e-06L150.959 1.0069e-06C165.221 3.83636e-07 178.405 7.59398 185.56 19.9313L220.36 79.9313C227.558 92.3422 227.558 107.658 220.36 120.069L185.56 180.069C178.405 192.406 165.221 200 150.959 200H81.0411C66.7788 200 53.5955 192.406 46.4399 180.069L11.6399 120.069Z" fill="#1A1A1C"/>
<path d="M86.4561 74.1412C86.4561 57.8629 99.6522 44.6667 115.931 44.6667H121.024C137.302 44.6667 150.499 57.8629 150.499 74.1412C150.499 76.6716 151.127 79.1623 152.327 81.3901L156.769 89.6386C157.819 91.5869 156.407 93.9496 154.195 93.9496H151.174C150.801 93.9496 150.499 94.2518 150.499 94.6246V105.205C150.499 107.715 148.395 109.714 145.888 109.586L136.587 109.11C136.201 109.09 135.877 109.398 135.877 109.784V118.948C135.877 121.371 133.913 123.335 131.491 123.335H104.229C101.72 123.335 99.7216 121.233 99.8485 118.726L100.513 105.608C100.524 105.393 100.431 105.185 100.264 105.049C94.227 100.103 89.4891 94.6855 87.0125 85.473C86.6022 83.9469 86.4561 82.363 86.4561 80.7828V74.1412Z" fill="#6D0CA6"/>
<path d="M75.5 74.139C75.5 57.8607 88.6962 44.6646 104.974 44.6646H110.068C126.346 44.6646 139.543 57.8607 139.543 74.139C139.543 76.6694 140.171 79.1601 141.371 81.3879L145.813 89.6364C146.862 91.5847 145.451 93.9474 143.239 93.9474H140.218C139.845 93.9474 139.543 94.2496 139.543 94.6224V105.203C139.543 107.713 137.439 109.712 134.932 109.583L125.631 109.108C125.245 109.088 124.921 109.396 124.921 109.782V118.946C124.921 121.369 122.957 123.333 120.535 123.333H93.2733C90.7636 123.333 88.7655 121.231 88.8925 118.724L89.5569 105.606C89.5678 105.391 89.4749 105.183 89.3083 105.047C83.271 100.101 78.5331 94.6833 76.0564 85.4708C75.6462 83.9448 75.5 82.3608 75.5 80.7806V74.139Z" fill="#CC7DFA"/>
<path fill-rule="evenodd" clip-rule="evenodd" d="M93.221 76.6782C95.5145 75.9453 97.1753 73.7965 97.1753 71.2599C97.1753 68.1189 94.629 65.5726 91.488 65.5726C88.347 65.5726 85.8008 68.1189 85.8008 71.2599C85.8008 73.7969 87.4621 75.946 89.7562 76.6786C89.7429 76.7654 89.7361 76.8543 89.7361 76.9448V79.7023C89.7361 80.8496 90.28 81.9291 91.2021 82.6119L96.8851 86.8197C96.9144 86.8414 96.9318 86.8758 96.9318 86.9123V91.1983C96.9318 92.1662 97.7164 92.9509 98.6843 92.9509C99.6522 92.9509 100.437 92.1662 100.437 91.1983V86.9123C100.437 85.765 99.8929 84.6855 98.9708 84.0027L93.2878 79.7949C93.2585 79.7732 93.2411 79.7388 93.2411 79.7023V76.9448C93.2411 76.8542 93.2343 76.7652 93.221 76.6782ZM93.6702 71.2599C93.6702 72.465 92.6932 73.442 91.488 73.442C90.2828 73.442 89.3058 72.465 89.3058 71.2599C89.3058 70.0547 90.2828 69.0777 91.488 69.0777C92.6932 69.0777 93.6702 70.0547 93.6702 71.2599Z" fill="white"/>
<path fill-rule="evenodd" clip-rule="evenodd" d="M107.135 69.175C109.428 68.4418 111.088 66.2932 111.088 63.7568C111.088 60.6158 108.542 58.0696 105.401 58.0696C102.26 58.0696 99.7136 60.6158 99.7136 63.7568C99.7136 66.2943 101.375 68.4436 103.67 69.1759C103.657 69.2629 103.65 69.3519 103.65 69.4426V82.8043C103.65 83.7721 104.434 84.5568 105.402 84.5568C106.37 84.5568 107.155 83.7721 107.155 82.8043V69.4426C107.155 69.3516 107.148 69.2622 107.135 69.175ZM107.583 63.7568C107.583 64.962 106.606 65.939 105.401 65.939C104.196 65.939 103.219 64.962 103.219 63.7568C103.219 62.5516 104.196 61.5746 105.401 61.5746C106.606 61.5746 107.583 62.5516 107.583 63.7568Z" fill="white"/>
<path fill-rule="evenodd" clip-rule="evenodd" d="M117.582 76.6781C115.288 75.9451 113.628 73.7964 113.628 71.2597C113.628 68.1187 116.174 65.5724 119.315 65.5724C122.456 65.5724 125.002 68.1187 125.002 71.2597C125.002 73.7968 123.341 75.9458 121.047 76.6784C121.06 76.7652 121.067 76.8541 121.067 76.9446V79.7021C121.067 80.8495 120.523 81.9289 119.601 82.6117L113.918 86.8195C113.888 86.8412 113.871 86.8756 113.871 86.9122V91.1982C113.871 92.1661 113.086 92.9507 112.119 92.9507C111.151 92.9507 110.366 92.1661 110.366 91.1982V86.9122C110.366 85.7648 110.91 84.6853 111.832 84.0026L117.515 79.7948C117.544 79.773 117.562 79.7386 117.562 79.7021V76.9446C117.562 76.854 117.569 76.765 117.582 76.6781ZM117.133 71.2597C117.133 72.4649 118.11 73.4419 119.315 73.4419C120.52 73.4419 121.497 72.4649 121.497 71.2597C121.497 70.0545 120.52 69.0775 119.315 69.0775C118.11 69.0775 117.133 70.0545 117.133 71.2597Z" fill="white"/>
<path d="M66.1161 146.4H68.2361V161.16H66.1161V146.4ZM77.8077 155.92C77.8077 154.4 77.0277 153.48 75.7077 153.48C74.4077 153.5 73.4077 154.52 73.4277 155.92V161.18H71.3077V151.64H73.4277V152.94C74.0277 152.2 75.0477 151.66 75.9677 151.66C77.7677 151.66 79.9277 152.84 79.9277 155.84V161.18H77.8077V155.92ZM83.4256 161.18V153.46H81.6256V151.62H83.4256V148.28H85.5456V151.62H87.8056V153.46H85.5456V161.18H83.4256ZM93.9066 161.22C91.2066 161.22 89.3066 159.24 89.3066 156.44C89.3066 153.62 91.2066 151.64 93.9066 151.64C96.8666 151.64 97.8066 154.06 97.8666 154.22C98.4466 155.58 98.2666 157.1 98.2666 157.26H91.3866C91.6266 158.54 92.7066 159.42 93.9066 159.42C95.4866 159.42 96.1266 158.5 96.2866 158.22L97.9866 158.98C97.5266 160.06 96.1866 161.22 93.9066 161.22ZM91.3866 155.58H96.2666C96.0666 154.4 95.3866 153.44 93.9066 153.44C92.6266 153.44 91.6266 154.34 91.3866 155.58ZM100.366 146.88H102.486V161.16H100.366V146.88ZM105.093 146.88H107.213V161.16H105.093V146.88ZM110.14 151.62H112.26V161.16H110.14V151.62ZM110 148.06C110 147.36 110.5 146.86 111.2 146.86C111.9 146.86 112.4 147.36 112.4 148.06C112.4 148.76 111.9 149.26 111.2 149.26C110.5 149.26 110 148.76 110 148.06ZM119.474 159.42C120.994 159.42 122.094 158.08 122.094 156.42C122.094 154.8 120.994 153.44 119.474 153.44C117.974 153.44 116.954 154.62 116.954 156.42C116.954 158.24 117.974 159.42 119.474 159.42ZM114.834 156.44C114.834 153.64 116.714 151.62 119.354 151.62C120.334 151.62 121.434 152.12 122.094 153.02V151.62H124.214V160.46C124.214 163.18 122.374 165.42 119.454 165.42C117.854 165.42 116.314 164.76 115.374 163.2L117.054 162.08C117.754 163.1 118.434 163.54 119.454 163.54C121.154 163.54 122.094 162.2 122.094 160.64V159.8C121.354 160.74 120.254 161.24 119.354 161.24C116.714 161.24 114.834 159.24 114.834 156.44ZM130.762 161.22C128.062 161.22 126.162 159.24 126.162 156.44C126.162 153.62 128.062 151.64 130.762 151.64C133.722 151.64 134.662 154.06 134.722 154.22C135.302 155.58 135.122 157.1 135.122 157.26H128.242C128.482 158.54 129.562 159.42 130.762 159.42C132.342 159.42 132.982 158.5 133.142 158.22L134.842 158.98C134.382 160.06 133.042 161.22 130.762 161.22ZM128.242 155.58H133.122C132.922 154.4 132.242 153.44 130.762 153.44C129.482 153.44 128.482 154.34 128.242 155.58ZM143.882 155.92C143.882 154.4 143.102 153.48 141.782 153.48C140.482 153.5 139.482 154.52 139.502 155.92V161.18H137.382V151.64H139.502V152.94C140.102 152.2 141.122 151.66 142.042 151.66C143.842 151.66 146.002 152.84 146.002 155.84V161.18H143.882V155.92ZM152.494 159.22C153.234 159.22 154.094 158.84 154.634 158.24L156.094 159.7C155.274 160.6 153.774 161.24 152.574 161.24C149.734 161.24 147.734 159.24 147.734 156.44C147.734 153.62 149.734 151.62 152.574 151.62C153.834 151.62 155.234 152.26 156.094 153.18L154.634 154.62C154.094 154.02 153.234 153.64 152.494 153.64C150.914 153.64 149.854 154.74 149.854 156.44C149.854 158.12 150.914 159.22 152.494 159.22ZM161.953 161.22C159.253 161.22 157.353 159.24 157.353 156.44C157.353 153.62 159.253 151.64 161.953 151.64C164.913 151.64 165.853 154.06 165.913 154.22C166.493 155.58 166.313 157.1 166.313 157.26H159.433C159.673 158.54 160.753 159.42 161.953 159.42C163.533 159.42 164.173 158.5 164.333 158.22L166.033 158.98C165.573 160.06 164.233 161.22 161.953 161.22ZM159.433 155.58H164.313C164.113 154.4 163.433 153.44 161.953 153.44C160.673 153.44 159.673 154.34 159.433 155.58Z" fill="white"/>
</svg>
