<svg width="339" height="776" viewBox="0 0 339 776" fill="none" xmlns="http://www.w3.org/2000/svg">
<rect x="49.5" y="16" width="240" height="240" rx="120" fill="url(#paint0_linear_14650_34781)"/>
<path d="M130.175 124.408C133.703 121.024 138.215 118.144 138.215 115.336C138.215 113.536 137.087 112.264 135.479 112.264C134.183 112.264 132.887 113.176 132.311 114.472L129.647 113.272C130.655 110.992 133.079 109.408 135.479 109.408C138.911 109.408 141.311 111.856 141.311 115.336C141.311 118.984 137.759 121.864 134.687 124.408H141.575V127.096H130.415L130.175 124.408ZM150.549 124.552C152.805 124.552 154.269 122.08 154.269 118.312C154.269 114.544 152.805 112.072 150.549 112.072C148.269 112.072 146.781 114.544 146.781 118.312C146.781 122.08 148.269 124.552 150.549 124.552ZM143.685 118.312C143.685 113.056 146.517 109.36 150.549 109.36C154.557 109.36 157.365 113.056 157.365 118.312C157.365 123.568 154.557 127.264 150.549 127.264C146.517 127.264 143.685 123.568 143.685 118.312ZM166.898 109.552V127.12L163.802 127.072V112.792L160.466 114.376L159.338 111.688L163.826 109.552H166.898ZM176.408 124.84C178.208 124.84 179.456 123.712 179.456 122.08C179.456 120.376 178.208 119.152 176.408 119.152C174.608 119.152 173.336 120.376 173.336 122.08C173.336 123.712 174.608 124.84 176.408 124.84ZM170.24 122.176C170.24 120.616 171.464 118.84 173.192 117.904C171.776 116.92 170.744 115.36 170.744 114.088C170.744 111.256 173.096 109.264 176.408 109.264C179.744 109.264 182.072 111.256 182.072 114.088C182.072 115.384 181.064 116.968 179.624 117.904C181.352 118.864 182.552 120.616 182.552 122.176C182.552 125.272 180.032 127.432 176.408 127.432C172.808 127.432 170.24 125.272 170.24 122.176ZM173.864 114.136C173.864 115.552 174.92 116.56 176.408 116.56C177.92 116.56 178.976 115.552 178.976 114.136C178.976 112.792 177.92 111.856 176.408 111.856C174.92 111.856 173.864 112.792 173.864 114.136ZM186.453 124.36C187.437 124.36 188.133 125.056 188.133 126.04C188.133 127.048 187.437 127.744 186.453 127.744C185.445 127.744 184.749 127.048 184.749 126.04C184.749 125.056 185.445 124.36 186.453 124.36ZM206.747 118.024C208.331 118.936 209.411 120.664 209.411 122.152C209.411 125.128 206.867 127.24 203.267 127.24C199.667 127.24 197.123 125.032 197.123 121.888H200.219C200.219 123.424 201.491 124.504 203.267 124.504C205.115 124.504 206.435 123.424 206.435 121.888C206.435 120.376 205.139 119.296 203.315 119.296H202.091V116.776H203.339C204.995 116.776 206.171 115.816 206.171 114.424C206.171 113.08 205.043 112.144 203.435 112.144C201.875 112.144 200.771 113.104 200.771 114.448H197.675C197.675 111.472 200.051 109.408 203.435 109.408C206.771 109.408 209.123 111.376 209.123 114.184C209.123 115.552 208.187 117.136 206.747 118.024Z" fill="white"/>
<path d="M122.349 149.72H126.029V147.74H128.229V149.72H131.889V151.46H128.209V151.66C128.209 153.62 129.649 155.54 132.389 156.34L131.409 158.06C129.409 157.48 127.989 156.28 127.189 154.78C126.409 156.5 124.949 157.86 122.869 158.5L121.809 156.8C124.589 155.94 126.029 153.82 126.029 151.66V151.46H122.349V149.72ZM123.889 163.84C127.409 163.3 129.669 161.24 129.669 159.24V158.92H131.909V159.24C131.909 161.32 134.089 163.3 137.669 163.84L136.829 165.56C133.989 165.1 131.829 163.76 130.769 161.94C129.709 163.74 127.549 165.12 124.729 165.56L123.889 163.84ZM131.409 154.42V152.64H134.469V147.82H136.669V160H134.469V154.42H131.409ZM143.939 158.46H160.059V160.26H153.099V165.64H150.879V160.26H143.939V158.46ZM146.019 156.98V148.58H158.139V150.32H148.179V151.88H157.759V153.58H148.179V155.22H158.339V156.98H146.019ZM161.74 149.56H171.46V151.38H167.76V152.86C167.76 155.6 169.4 158.76 172.18 160.06L170.96 161.8C168.96 160.84 167.5 158.94 166.7 156.74C165.9 159.16 164.38 161.24 162.34 162.24L161.08 160.5C163.86 159.16 165.58 155.82 165.58 152.86V151.38H161.74V149.56ZM173.06 165.62V147.82H175.28V154.76H177.98V156.58H175.28V165.62H173.06ZM184.23 148.86H193.93V150.58H190.21C190.23 152.66 191.77 154.7 194.53 155.52L193.45 157.22C191.41 156.62 189.95 155.32 189.13 153.68C188.35 155.46 186.85 156.86 184.73 157.52L183.63 155.8C186.47 154.96 187.95 152.8 187.97 150.58H184.23V148.86ZM186.53 165.4V158.26H188.69V160.08H196.05V158.26H198.21V165.4H186.53ZM188.69 163.62H196.05V161.78H188.69V163.62ZM196.01 157.46V147.82H198.21V157.46H196.01ZM214.01 147.82H216.09V159H214.01V154.16H212.33V158.4H210.27V148.16H212.33V152.38H214.01V147.82ZM200.89 151.48V149.74H204.23V147.98H206.39V149.74H209.69V151.48H200.89ZM201.51 155.24C201.51 153.4 203.09 152.16 205.31 152.16C207.55 152.16 209.13 153.4 209.13 155.24C209.13 157.1 207.55 158.32 205.31 158.32C203.09 158.32 201.51 157.1 201.51 155.24ZM203.45 155.24C203.45 156.18 204.21 156.76 205.31 156.76C206.41 156.76 207.19 156.18 207.19 155.24C207.19 154.3 206.41 153.76 205.31 153.76C204.21 153.76 203.45 154.3 203.45 155.24ZM204.09 162.42C204.09 160.38 206.35 159.24 210.13 159.24C213.93 159.24 216.19 160.38 216.19 162.42C216.19 164.44 213.93 165.6 210.13 165.6C206.35 165.6 204.09 164.44 204.09 162.42ZM206.27 162.42C206.27 163.44 207.63 163.94 210.13 163.94C212.65 163.94 213.99 163.44 213.99 162.42C213.99 161.38 212.65 160.88 210.13 160.88C207.63 160.88 206.27 161.38 206.27 162.42Z" fill="white"/>
<rect x="49.5" y="268" width="240" height="240" rx="120" fill="url(#paint1_linear_14650_34781)"/>
<path d="M127.691 364.908C131.219 361.524 135.731 358.644 135.731 355.836C135.731 354.036 134.603 352.764 132.995 352.764C131.699 352.764 130.403 353.676 129.827 354.972L127.163 353.772C128.171 351.492 130.595 349.908 132.995 349.908C136.427 349.908 138.827 352.356 138.827 355.836C138.827 359.484 135.275 362.364 132.203 364.908H139.091V367.596H127.931L127.691 364.908ZM148.065 365.052C150.321 365.052 151.785 362.58 151.785 358.812C151.785 355.044 150.321 352.572 148.065 352.572C145.785 352.572 144.297 355.044 144.297 358.812C144.297 362.58 145.785 365.052 148.065 365.052ZM141.201 358.812C141.201 353.556 144.033 349.86 148.065 349.86C152.073 349.86 154.881 353.556 154.881 358.812C154.881 364.068 152.073 367.764 148.065 367.764C144.033 367.764 141.201 364.068 141.201 358.812ZM157.573 364.908C161.101 361.524 165.613 358.644 165.613 355.836C165.613 354.036 164.485 352.764 162.877 352.764C161.581 352.764 160.285 353.676 159.709 354.972L157.045 353.772C158.053 351.492 160.477 349.908 162.877 349.908C166.309 349.908 168.709 352.356 168.709 355.836C168.709 359.484 165.157 362.364 162.085 364.908H168.973V367.596H157.813L157.573 364.908ZM177.947 365.052C180.203 365.052 181.667 362.58 181.667 358.812C181.667 355.044 180.203 352.572 177.947 352.572C175.667 352.572 174.179 355.044 174.179 358.812C174.179 362.58 175.667 365.052 177.947 365.052ZM171.083 358.812C171.083 353.556 173.915 349.86 177.947 349.86C181.955 349.86 184.763 353.556 184.763 358.812C184.763 364.068 181.955 367.764 177.947 367.764C173.915 367.764 171.083 364.068 171.083 358.812ZM188.656 364.86C189.64 364.86 190.336 365.556 190.336 366.54C190.336 367.548 189.64 368.244 188.656 368.244C187.648 368.244 186.952 367.548 186.952 366.54C186.952 365.556 187.648 364.86 188.656 364.86ZM203.022 360.036L199.926 359.7L200.55 350.052H210.366V352.764H203.526L203.286 356.316C204.006 356.052 204.774 355.884 205.494 355.884C209.214 355.884 211.854 358.356 211.854 361.86C211.854 365.364 209.214 367.836 205.494 367.836C202.542 367.836 199.998 365.892 199.35 363.108L202.35 362.388C202.686 363.876 203.982 364.932 205.494 364.932C207.414 364.932 208.758 363.66 208.758 361.86C208.758 360.06 207.414 358.788 205.494 358.788C204.726 358.788 203.694 359.316 203.022 360.036Z" fill="white"/>
<path d="M106.656 389.9V404.66H104.516V398H97.5564V404.66H95.4364V389.9H97.5564V396.16H104.516V389.9H106.656ZM109.89 395.12H112.01V404.66H109.89V395.12ZM109.75 391.56C109.75 390.86 110.25 390.36 110.95 390.36C111.65 390.36 112.15 390.86 112.15 391.56C112.15 392.26 111.65 392.76 110.95 392.76C110.25 392.76 109.75 392.26 109.75 391.56ZM118.924 402.72C119.664 402.72 120.524 402.34 121.064 401.74L122.524 403.2C121.704 404.1 120.204 404.74 119.004 404.74C116.164 404.74 114.164 402.74 114.164 399.94C114.164 397.12 116.164 395.12 119.004 395.12C120.264 395.12 121.664 395.76 122.524 396.68L121.064 398.12C120.524 397.52 119.664 397.14 118.924 397.14C117.344 397.14 116.284 398.24 116.284 399.94C116.284 401.62 117.344 402.72 118.924 402.72ZM128.383 402.94C129.863 402.94 130.863 401.76 130.863 399.94C130.863 398.14 129.863 396.94 128.383 396.94C126.903 396.94 125.903 398.12 125.903 399.94C125.903 401.76 126.883 402.94 128.383 402.94ZM123.783 399.94C123.783 397.12 125.683 395.12 128.383 395.12C131.083 395.12 132.983 397.12 132.983 399.94C132.983 402.74 131.083 404.76 128.383 404.76C125.683 404.76 123.783 402.74 123.783 399.94ZM147.38 404.82C143.1 404.82 140.1 401.7 140.1 397.28C140.1 392.84 143.1 389.74 147.38 389.74C149.4 389.74 151.2 390.6 152.52 391.94L151.12 393.32C150.24 392.28 148.84 391.6 147.36 391.6C144.3 391.6 142.24 393.88 142.24 397.28C142.24 400.68 144.3 402.96 147.36 402.96C148.94 402.96 150.2 402.24 151.04 401.28L152.52 402.62C151.2 403.96 149.5 404.84 147.38 404.82ZM158.772 404.76C156.132 404.76 154.252 402.76 154.252 399.96C154.252 397.16 156.132 395.16 158.772 395.16C159.712 395.16 160.752 395.6 161.512 396.5V395.14H163.632V404.68H161.512V403.4C160.752 404.36 159.712 404.76 158.772 404.76ZM156.372 399.96C156.372 401.76 157.392 402.96 158.912 402.96C160.312 402.96 161.512 401.7 161.532 399.96C161.512 398.22 160.312 396.96 158.912 396.96C157.392 396.96 156.372 398.14 156.372 399.96ZM171.113 402.94C172.653 402.94 173.653 401.74 173.653 399.92C173.653 398.1 172.653 396.9 171.113 396.9C169.673 396.9 168.493 398.24 168.493 399.92C168.493 401.6 169.673 402.94 171.113 402.94ZM166.353 408.9V395.12H168.473V396.52C169.233 395.52 170.493 395.12 171.233 395.12C173.893 395.12 175.773 397.1 175.773 399.92C175.773 402.76 173.893 404.74 171.233 404.74C170.473 404.74 169.233 404.32 168.473 403.32V408.9H166.353ZM178.073 395.12H180.193V404.66H178.073V395.12ZM177.933 391.56C177.933 390.86 178.433 390.36 179.133 390.36C179.833 390.36 180.333 390.86 180.333 391.56C180.333 392.26 179.833 392.76 179.133 392.76C178.433 392.76 177.933 392.26 177.933 391.56ZM184.348 404.68V396.96H182.548V395.12H184.348V391.78H186.468V395.12H188.728V396.96H186.468V404.68H184.348ZM194.748 404.76C192.108 404.76 190.228 402.76 190.228 399.96C190.228 397.16 192.108 395.16 194.748 395.16C195.688 395.16 196.728 395.6 197.488 396.5V395.14H199.608V404.68H197.488V403.4C196.728 404.36 195.688 404.76 194.748 404.76ZM192.348 399.96C192.348 401.76 193.368 402.96 194.888 402.96C196.288 402.96 197.488 401.7 197.508 399.96C197.488 398.22 196.288 396.96 194.888 396.96C193.368 396.96 192.348 398.14 192.348 399.96ZM202.187 390.38H204.307V404.66H202.187V390.38ZM220.003 391.16H223.483V388.32H225.683V397.4H223.483V392.92H220.003V391.16ZM210.803 395.78C213.643 394.88 215.103 392.68 215.103 390.3V388.88H217.303V390.3C217.303 392.48 218.723 394.58 221.423 395.44L220.303 397.14C218.383 396.5 217.003 395.22 216.243 393.6C215.463 395.4 214.023 396.82 211.943 397.5L210.803 395.78ZM214.043 399.92V398.22H225.683V402.8H216.243V404.18H226.243V405.9H214.063V401.2H223.503V399.92H214.043ZM240.883 388.3H243.083V398.18H240.883V388.3ZM229.263 390.9V389.14H237.403V394.24H231.443V396.08C234.483 396.06 236.663 395.96 239.143 395.54L239.403 397.32C236.643 397.78 234.263 397.86 230.803 397.86H229.283V392.58H235.243V390.9H229.263ZM231.363 405.9V398.98H233.543V400.72H240.923V398.98H243.083V405.9H231.363ZM233.543 404.12H240.923V402.42H233.543V404.12Z" fill="white"/>
<path d="M131.666 427.168C131.666 425.608 132.278 423.556 133.142 422.188H134.486C133.502 423.544 132.818 425.596 132.818 427.168C132.818 428.74 133.502 430.792 134.486 432.148H133.142C132.278 430.78 131.666 428.728 131.666 427.168ZM136.23 422.776H141.27V429.868H136.23V422.776ZM137.526 428.824H139.986V423.82H137.526V428.824ZM143.166 432.484V421.768H144.486V432.484H143.166ZM147.378 422.272H154.65V423.088C154.65 423.904 154.65 424.816 154.422 426.004H155.838V427.06H151.65V428.74H154.686V432.472H153.378V429.784H147.15V428.74H150.33V427.06H146.166V426.004H153.114C153.342 424.912 153.366 424.084 153.366 423.328H147.378V422.272ZM166.968 421.792H168.288V429.928H166.968V427.84H165.408V426.784H166.968V425.56H165.408V424.504H166.968V421.792ZM159.432 424.012V422.968H161.796V421.756H163.116V422.968H165.348V424.012H159.432ZM159.972 426.556C159.972 425.308 161.004 424.48 162.432 424.48C163.884 424.48 164.916 425.308 164.916 426.556C164.916 427.78 163.884 428.62 162.432 428.62C161.004 428.62 159.972 427.78 159.972 426.556ZM161.208 426.556C161.208 427.216 161.712 427.612 162.432 427.612C163.164 427.612 163.668 427.216 163.668 426.556C163.668 425.896 163.164 425.488 162.432 425.488C161.712 425.488 161.208 425.896 161.208 426.556ZM161.292 432.256V429.244H162.624V431.2H168.528V432.256H161.292ZM170.232 422.836H176.22V423.928H173.892V424.816C173.892 426.58 174.924 428.416 176.616 429.136L175.884 430.18C174.648 429.628 173.736 428.512 173.244 427.156C172.764 428.62 171.84 429.856 170.592 430.444L169.836 429.4C171.528 428.62 172.56 426.64 172.56 424.816V423.928H170.232V422.836ZM177.384 432.472V421.792H178.704V432.472H177.384ZM183.63 422.332H184.938V423.796H187.302V422.332H188.598V424.288H190.71V421.792H192.03V427.624H190.71V425.356H188.598V427.288H183.63V422.332ZM184.938 426.22H187.302V424.804H184.938V426.22ZM185.046 432.328V428.104H186.342V429.184H190.722V428.104H192.03V432.328H185.046ZM186.342 431.272H190.722V430.216H186.342V431.272ZM201.15 421.792H202.47V429.508H201.15V421.792ZM193.83 425.176C193.83 423.604 195.078 422.488 196.686 422.488C198.306 422.488 199.542 423.604 199.542 425.176C199.542 426.724 198.306 427.852 196.686 427.852C195.078 427.852 193.83 426.724 193.83 425.176ZM195.114 425.176C195.114 426.1 195.798 426.7 196.686 426.7C197.574 426.7 198.258 426.1 198.258 425.176C198.258 424.228 197.574 423.628 196.686 423.628C195.798 423.628 195.114 424.228 195.114 425.176ZM195.462 432.256V428.74H196.77V431.2H202.758V432.256H195.462ZM207.318 427.168C207.318 428.728 206.718 430.768 205.854 432.148H204.51C205.482 430.804 206.166 428.74 206.166 427.168C206.166 425.596 205.482 423.532 204.51 422.188H205.854C206.718 423.568 207.318 425.608 207.318 427.168Z" fill="white"/>
<rect x="49.5" y="520" width="240" height="240" rx="120" fill="url(#paint2_linear_14650_34781)"/>
<path d="M126.355 628.408C129.883 625.024 134.395 622.144 134.395 619.336C134.395 617.536 133.267 616.264 131.659 616.264C130.363 616.264 129.067 617.176 128.491 618.472L125.827 617.272C126.835 614.992 129.259 613.408 131.659 613.408C135.091 613.408 137.491 615.856 137.491 619.336C137.491 622.984 133.939 625.864 130.867 628.408H137.755V631.096H126.595L126.355 628.408ZM146.729 628.552C148.985 628.552 150.449 626.08 150.449 622.312C150.449 618.544 148.985 616.072 146.729 616.072C144.449 616.072 142.961 618.544 142.961 622.312C142.961 626.08 144.449 628.552 146.729 628.552ZM139.865 622.312C139.865 617.056 142.697 613.36 146.729 613.36C150.737 613.36 153.545 617.056 153.545 622.312C153.545 627.568 150.737 631.264 146.729 631.264C142.697 631.264 139.865 627.568 139.865 622.312ZM156.237 628.408C159.765 625.024 164.277 622.144 164.277 619.336C164.277 617.536 163.149 616.264 161.541 616.264C160.245 616.264 158.949 617.176 158.373 618.472L155.709 617.272C156.717 614.992 159.141 613.408 161.541 613.408C164.973 613.408 167.373 615.856 167.373 619.336C167.373 622.984 163.821 625.864 160.749 628.408H167.637V631.096H156.477L156.237 628.408ZM177.163 613.552V631.12L174.067 631.072V616.792L170.731 618.376L169.603 615.688L174.091 613.552H177.163ZM182.258 628.36C183.242 628.36 183.938 629.056 183.938 630.04C183.938 631.048 183.242 631.744 182.258 631.744C181.25 631.744 180.554 631.048 180.554 630.04C180.554 629.056 181.25 628.36 182.258 628.36ZM200.32 613.552V631.12L197.224 631.072V616.792L193.888 618.376L192.76 615.688L197.248 613.552H200.32ZM212.015 613.552V631.12L208.919 631.072V616.792L205.583 618.376L204.455 615.688L208.943 613.552H212.015Z" fill="white"/>
<path d="M135.24 651.82H137.44V664.86H135.24V658.48H132.48V656.72H135.24V651.82ZM122.66 660.54H124.66V655.04H123.12V653.28H132.56V655.04H131V660.3C131.76 660.24 132.52 660.16 133.24 660.06L133.38 661.68C129.9 662.28 125.88 662.34 122.88 662.34L122.66 660.54ZM125.82 669.26V663.76H128V667.5H137.86V669.26H125.82ZM126.78 660.5C127.48 660.48 128.18 660.46 128.88 660.42V655.04H126.78V660.5ZM142.081 653.32H154.321V655.12H144.261V660.14H154.481V661.9H142.081V653.32ZM140.141 667.36V665.56H156.261V667.36H140.141ZM163.171 653.4H165.291V668.16H163.171V653.4ZM168.522 653.4H170.642V668.16H168.522V653.4ZM178.203 653.02H186.183V658.52H180.423V660.78C183.343 660.76 185.283 660.68 187.483 660.32L187.663 662.08C185.203 662.5 183.083 662.56 179.643 662.56H178.243V656.86H184.003V654.76H178.203V653.02ZM180.623 669.26V663.9H182.823V667.5H192.803V669.26H180.623ZM187.143 658.08V656.2H190.123V651.82H192.323V664.9H190.123V658.08H187.143ZM195.764 653.78H199.524V651.82H201.724V653.78H205.464V655.54H201.724C201.764 657.54 203.284 659.46 206.064 660.2L205.044 661.94C202.984 661.36 201.504 660.14 200.684 658.56C199.884 660.32 198.404 661.68 196.264 662.32L195.224 660.6C198.024 659.76 199.504 657.72 199.524 655.54H195.764V653.78ZM197.704 666.26C197.704 664.18 199.984 662.94 203.724 662.94C207.464 662.94 209.784 664.18 209.784 666.26C209.784 668.38 207.464 669.6 203.724 669.6C199.984 669.6 197.704 668.38 197.704 666.26ZM199.904 666.26C199.904 667.34 201.264 667.92 203.724 667.92C206.204 667.92 207.604 667.34 207.604 666.26C207.604 665.2 206.204 664.62 203.724 664.62C201.264 664.62 199.904 665.2 199.904 666.26ZM207.504 662.62V651.82H209.704V662.62H207.504Z" fill="white"/>
<defs>
<linearGradient id="paint0_linear_14650_34781" x1="169.5" y1="16" x2="169.5" y2="256" gradientUnits="userSpaceOnUse">
<stop stop-color="#9735D0"/>
<stop offset="0.5" stop-color="#7629A3" stop-opacity="0.555"/>
<stop offset="1" stop-color="#4D1B6A" stop-opacity="0"/>
</linearGradient>
<linearGradient id="paint1_linear_14650_34781" x1="169.5" y1="268" x2="169.5" y2="508" gradientUnits="userSpaceOnUse">
<stop stop-color="#9735D0"/>
<stop offset="0.5" stop-color="#7629A3" stop-opacity="0.555"/>
<stop offset="1" stop-color="#4D1B6A" stop-opacity="0"/>
</linearGradient>
<linearGradient id="paint2_linear_14650_34781" x1="169.5" y1="520" x2="169.5" y2="760" gradientUnits="userSpaceOnUse">
<stop stop-color="#9735D0"/>
<stop offset="0.5" stop-color="#7629A3" stop-opacity="0.555"/>
<stop offset="1" stop-color="#4D1B6A" stop-opacity="0"/>
</linearGradient>
</defs>
</svg>
