<svg width="108" height="108" viewBox="0 0 108 108" fill="none" xmlns="http://www.w3.org/2000/svg">
<g id="icon">
<path id="Subtract" d="M30.5 39.6004C30.5 34.4315 34.6902 30.2412 39.8592 30.2412H68.6408C73.8098 30.2412 78 34.4314 78 39.6004V68.3821C78 73.551 73.8098 77.7412 68.6408 77.7412H39.8592C34.6902 77.7412 30.5 73.551 30.5 68.3821V39.6004Z" fill="#6D0CA6"/>
<path id="Vector 520 (Stroke)" fill-rule="evenodd" clip-rule="evenodd" d="M80.375 34.9912C80.375 33.6795 81.4383 32.6162 82.75 32.6162L89.875 32.6162C91.1867 32.6162 92.25 33.6795 92.25 34.9912C92.25 36.3029 91.1867 37.3662 89.875 37.3662L82.75 37.3662C81.4383 37.3662 80.375 36.3029 80.375 34.9912Z" fill="#CC7DFA"/>
<path id="Vector 520 (Stroke)_2" fill-rule="evenodd" clip-rule="evenodd" d="M80.375 44.4912C80.375 43.1795 81.4383 42.1162 82.75 42.1162L87.5 42.1162C88.8117 42.1162 89.875 43.1795 89.875 44.4912C89.875 45.8029 88.8117 46.8662 87.5 46.8662L82.75 46.8662C81.4383 46.8662 80.375 45.8029 80.375 44.4912Z" fill="#6D0CA6"/>
<path id="Vector 520 (Stroke)_3" fill-rule="evenodd" clip-rule="evenodd" d="M80.375 53.9912C80.375 52.6795 81.4383 51.6162 82.75 51.6162L87.5 51.6162C88.8117 51.6162 89.875 52.6795 89.875 53.9912C89.875 55.3029 88.8117 56.3662 87.5 56.3662L82.75 56.3662C81.4383 56.3662 80.375 55.3029 80.375 53.9912Z" fill="#6D0CA6"/>
<path id="Vector 520 (Stroke)_4" fill-rule="evenodd" clip-rule="evenodd" d="M80.375 63.4912C80.375 62.1795 81.4383 61.1162 82.75 61.1162L87.5 61.1162C88.8117 61.1162 89.875 62.1795 89.875 63.4912C89.875 64.8029 88.8117 65.8662 87.5 65.8662L82.75 65.8662C81.4383 65.8662 80.375 64.8029 80.375 63.4912Z" fill="#6D0CA6"/>
<path id="Vector 520 (Stroke)_5" fill-rule="evenodd" clip-rule="evenodd" d="M80.375 72.9912C80.375 71.6795 81.4383 70.6162 82.75 70.6162L89.875 70.6162C91.1867 70.6162 92.25 71.6795 92.25 72.9912C92.25 74.3029 91.1867 75.3662 89.875 75.3662L82.75 75.3662C81.4383 75.3662 80.375 74.3029 80.375 72.9912Z" fill="#CC7DFA"/>
<path id="Vector 520 (Stroke)_6" fill-rule="evenodd" clip-rule="evenodd" d="M63.75 27.8662C62.4383 27.8662 61.375 26.8029 61.375 25.4912L61.375 20.7412C61.375 19.4295 62.4383 18.3662 63.75 18.3662C65.0617 18.3662 66.125 19.4295 66.125 20.7412L66.125 25.4912C66.125 26.8029 65.0617 27.8662 63.75 27.8662Z" fill="#6D0CA6"/>
<path id="Vector 520 (Stroke)_7" fill-rule="evenodd" clip-rule="evenodd" d="M73.25 27.8662C71.9383 27.8662 70.875 26.8029 70.875 25.4912L70.875 18.3662C70.875 17.0545 71.9383 15.9912 73.25 15.9912C74.5617 15.9912 75.625 17.0545 75.625 18.3662L75.625 25.4912C75.625 26.8029 74.5617 27.8662 73.25 27.8662Z" fill="#CC7DFA"/>
<path id="Vector 520 (Stroke)_8" fill-rule="evenodd" clip-rule="evenodd" d="M63.75 80.1162C65.0617 80.1162 66.125 81.1795 66.125 82.4912L66.125 87.2412C66.125 88.5529 65.0617 89.6162 63.75 89.6162C62.4383 89.6162 61.375 88.5529 61.375 87.2412L61.375 82.4912C61.375 81.1795 62.4383 80.1162 63.75 80.1162Z" fill="#6D0CA6"/>
<path id="Vector 520 (Stroke)_9" fill-rule="evenodd" clip-rule="evenodd" d="M73.25 80.1162C74.5617 80.1162 75.625 81.1795 75.625 82.4912L75.625 89.6162C75.625 90.9279 74.5617 91.9912 73.25 91.9912C71.9383 91.9912 70.875 90.9279 70.875 89.6162L70.875 82.4912C70.875 81.1795 71.9383 80.1162 73.25 80.1162Z" fill="#CC7DFA"/>
<g id="Vector">
<path fill-rule="evenodd" clip-rule="evenodd" d="M47.4868 43.4219C49.086 43.4219 51.024 44.2991 51.6654 46.3986L56.1653 61.1273C56.5163 62.2764 55.8694 63.4925 54.7203 63.8436C53.5713 64.1946 52.3552 63.5477 52.0041 62.3986L51.0501 59.2759H43.9236L42.9696 62.3986C42.6185 63.5477 41.4024 64.1946 40.2533 63.8436C39.1043 63.4925 38.4573 62.2764 38.8084 61.1273L43.3083 46.3986C43.9497 44.2991 45.8877 43.4219 47.4868 43.4219ZM45.2529 54.9249H49.7208L47.5368 47.7763C47.5217 47.7742 47.5049 47.7729 47.4868 47.7729C47.4688 47.7729 47.452 47.7742 47.4369 47.7763L45.2529 54.9249Z" fill="#CC7DFA"/>
<path fill-rule="evenodd" clip-rule="evenodd" d="M57.7555 45.5974C57.7555 44.3959 58.7295 43.4219 59.931 43.4219H67.6133C68.8149 43.4219 69.7889 44.3959 69.7889 45.5974C69.7889 46.7989 68.8149 47.7729 67.6133 47.7729H65.9477V59.5875H67.6133C68.8149 59.5875 69.7889 60.5615 69.7889 61.763C69.7889 62.9645 68.8149 63.9386 67.6133 63.9386H59.931C58.7295 63.9386 57.7555 62.9645 57.7555 61.763C57.7555 60.5615 58.7295 59.5875 59.931 59.5875H61.5967V47.7729H59.931C58.7295 47.7729 57.7555 46.7989 57.7555 45.5974Z" fill="#CC7DFA"/>
</g>
<path id="Subtract_2" d="M48.3125 12.612C52.1499 14.7055 54.25 18.5161 54.25 22.8874V23.1631C54.25 24.4748 53.1867 25.5381 51.875 25.5381H39.9431C32.0302 25.5381 25.6155 31.9528 25.6155 39.8657V68.4825C25.6155 76.3954 32.0302 82.8101 39.9431 82.8101H51.7669C53.1126 82.8101 54.2026 83.9299 54.0311 85.2646C53.5349 89.1279 52.1292 92.8918 49.1596 95.2675C44.9105 97.5856 40.9666 97.6054 35.6976 95.7579C33.3975 94.9514 29.9328 92.9537 28.7947 89.0172C28.6539 88.5303 28.2587 88.1475 27.7587 88.0641C20.763 86.8976 16.338 83.9385 13.9641 79.3677C11.8977 75.3889 11.6593 71.0542 12.117 67.6754C7.83619 64.6589 5.83051 57.5365 7.15262 51.5169C8.21712 47.7905 10.2048 43.8447 13.4536 42.1457C14.127 41.7935 14.4805 40.9549 14.2209 40.2406C13.1488 37.2899 12.5648 31.9295 16.9346 26.6818C19.3374 23.7962 23.1383 22.5419 26.4386 22.3526C26.9648 22.3224 27.4298 21.9773 27.4765 21.4524C27.5263 20.8937 27.5654 20.2522 28.0993 18.8507C28.9611 16.5884 29.6613 15.188 33.8627 12.6121C37.9681 10.5284 43.8189 11.0593 48.3125 12.612Z" fill="#CC7DFA"/>
</g>
</svg>
