<svg width="1200" height="348" viewBox="0 0 1200 348" fill="none" xmlns="http://www.w3.org/2000/svg">
<path d="M86 174C86 91.1573 153.157 24 236 24C318.843 24 386 91.1573 386 174C386 256.843 318.843 324 236 324C153.157 324 86 256.843 86 174Z" fill="url(#paint0_linear_14650_34674)"/>
<path d="M183.567 161.044C188.271 156.532 194.287 152.692 194.287 148.948C194.287 146.548 192.783 144.852 190.639 144.852C188.911 144.852 187.183 146.068 186.415 147.796L182.863 146.196C184.207 143.156 187.439 141.044 190.639 141.044C195.215 141.044 198.415 144.308 198.415 148.948C198.415 153.812 193.679 157.652 189.583 161.044H198.767V164.628H183.887L183.567 161.044ZM210.732 161.236C213.74 161.236 215.692 157.94 215.692 152.916C215.692 147.892 213.74 144.596 210.732 144.596C207.692 144.596 205.708 147.892 205.708 152.916C205.708 157.94 207.692 161.236 210.732 161.236ZM201.58 152.916C201.58 145.908 205.356 140.98 210.732 140.98C216.076 140.98 219.82 145.908 219.82 152.916C219.82 159.924 216.076 164.852 210.732 164.852C205.356 164.852 201.58 159.924 201.58 152.916ZM232.53 141.236V164.66L228.402 164.596V145.556L223.954 147.668L222.45 144.084L228.434 141.236H232.53ZM245.211 161.62C247.611 161.62 249.275 160.116 249.275 157.94C249.275 155.668 247.611 154.036 245.211 154.036C242.811 154.036 241.115 155.668 241.115 157.94C241.115 160.116 242.811 161.62 245.211 161.62ZM236.987 158.068C236.987 155.988 238.619 153.62 240.923 152.372C239.035 151.06 237.659 148.98 237.659 147.284C237.659 143.508 240.795 140.852 245.211 140.852C249.659 140.852 252.763 143.508 252.763 147.284C252.763 149.012 251.419 151.124 249.499 152.372C251.803 153.652 253.403 155.988 253.403 158.068C253.403 162.196 250.043 165.076 245.211 165.076C240.411 165.076 236.987 162.196 236.987 158.068ZM241.819 147.348C241.819 149.236 243.227 150.58 245.211 150.58C247.227 150.58 248.635 149.236 248.635 147.348C248.635 145.556 247.227 144.308 245.211 144.308C243.227 144.308 241.819 145.556 241.819 147.348ZM258.604 160.98C259.916 160.98 260.844 161.908 260.844 163.22C260.844 164.564 259.916 165.492 258.604 165.492C257.26 165.492 256.332 164.564 256.332 163.22C256.332 161.908 257.26 160.98 258.604 160.98ZM285.663 152.532C287.775 153.748 289.215 156.052 289.215 158.036C289.215 162.004 285.823 164.82 281.023 164.82C276.223 164.82 272.831 161.876 272.831 157.684H276.959C276.959 159.732 278.655 161.172 281.023 161.172C283.487 161.172 285.247 159.732 285.247 157.684C285.247 155.668 283.519 154.228 281.087 154.228H279.455V150.868H281.119C283.327 150.868 284.895 149.588 284.895 147.732C284.895 145.94 283.391 144.692 281.247 144.692C279.167 144.692 277.695 145.972 277.695 147.764H273.567C273.567 143.796 276.735 141.044 281.247 141.044C285.695 141.044 288.831 143.668 288.831 147.412C288.831 149.236 287.583 151.348 285.663 152.532Z" fill="white"/>
<path d="M179.419 193.364H183.835V190.988H186.475V193.364H190.867V195.452H186.451V195.692C186.451 198.044 188.179 200.348 191.467 201.308L190.291 203.372C187.891 202.676 186.187 201.236 185.227 199.436C184.291 201.5 182.539 203.132 180.043 203.9L178.771 201.86C182.107 200.828 183.835 198.284 183.835 195.692V195.452H179.419V193.364ZM181.267 210.308C185.491 209.66 188.203 207.188 188.203 204.788V204.404H190.891V204.788C190.891 207.284 193.507 209.66 197.803 210.308L196.795 212.372C193.387 211.82 190.795 210.212 189.523 208.028C188.251 210.188 185.659 211.844 182.275 212.372L181.267 210.308ZM190.291 199.004V196.868H193.963V191.084H196.603V205.7H193.963V199.004H190.291ZM205.327 203.852H224.671V206.012H216.319V212.468H213.655V206.012H205.327V203.852ZM207.823 202.076V191.996H222.367V194.084H210.415V195.956H221.911V197.996H210.415V199.964H222.607V202.076H207.823ZM226.688 193.172H238.352V195.356H233.912V197.132C233.912 200.42 235.88 204.212 239.216 205.772L237.752 207.86C235.352 206.708 233.6 204.428 232.64 201.788C231.68 204.692 229.856 207.188 227.408 208.388L225.896 206.3C229.232 204.692 231.296 200.684 231.296 197.132V195.356H226.688V193.172ZM240.272 212.444V191.084H242.936V199.412H246.176V201.596H242.936V212.444H240.272ZM253.676 192.332H265.316V194.396H260.852C260.876 196.892 262.724 199.34 266.036 200.324L264.74 202.364C262.292 201.644 260.54 200.084 259.556 198.116C258.62 200.252 256.82 201.932 254.276 202.724L252.956 200.66C256.364 199.652 258.14 197.06 258.164 194.396H253.676V192.332ZM256.436 212.18V203.612H259.028V205.796H267.86V203.612H270.452V212.18H256.436ZM259.028 210.044H267.86V207.836H259.028V210.044ZM267.812 202.652V191.084H270.452V202.652H267.812ZM289.412 191.084H291.908V204.5H289.412V198.692H287.396V203.78H284.924V191.492H287.396V196.556H289.412V191.084ZM273.668 195.476V193.388H277.676V191.276H280.268V193.388H284.228V195.476H273.668ZM274.412 199.988C274.412 197.78 276.308 196.292 278.972 196.292C281.66 196.292 283.556 197.78 283.556 199.988C283.556 202.22 281.66 203.684 278.972 203.684C276.308 203.684 274.412 202.22 274.412 199.988ZM276.74 199.988C276.74 201.116 277.652 201.812 278.972 201.812C280.292 201.812 281.228 201.116 281.228 199.988C281.228 198.86 280.292 198.212 278.972 198.212C277.652 198.212 276.74 198.86 276.74 199.988ZM277.508 208.604C277.508 206.156 280.22 204.788 284.756 204.788C289.316 204.788 292.028 206.156 292.028 208.604C292.028 211.028 289.316 212.42 284.756 212.42C280.22 212.42 277.508 211.028 277.508 208.604ZM280.124 208.604C280.124 209.828 281.756 210.428 284.756 210.428C287.78 210.428 289.388 209.828 289.388 208.604C289.388 207.356 287.78 206.756 284.756 206.756C281.756 206.756 280.124 207.356 280.124 208.604Z" fill="white"/>
<path d="M450 174C450 91.1573 517.157 24 600 24C682.843 24 750 91.1573 750 174C750 256.843 682.843 324 600 324C517.157 324 450 256.843 450 174Z" fill="url(#paint1_linear_14650_34674)"/>
<path d="M544.254 148.044C548.958 143.532 554.974 139.692 554.974 135.948C554.974 133.548 553.47 131.852 551.326 131.852C549.598 131.852 547.87 133.068 547.102 134.796L543.55 133.196C544.894 130.156 548.126 128.044 551.326 128.044C555.902 128.044 559.102 131.308 559.102 135.948C559.102 140.812 554.366 144.652 550.27 148.044H559.454V151.628H544.574L544.254 148.044ZM571.419 148.236C574.427 148.236 576.379 144.94 576.379 139.916C576.379 134.892 574.427 131.596 571.419 131.596C568.379 131.596 566.395 134.892 566.395 139.916C566.395 144.94 568.379 148.236 571.419 148.236ZM562.267 139.916C562.267 132.908 566.043 127.98 571.419 127.98C576.763 127.98 580.507 132.908 580.507 139.916C580.507 146.924 576.763 151.852 571.419 151.852C566.043 151.852 562.267 146.924 562.267 139.916ZM584.098 148.044C588.802 143.532 594.818 139.692 594.818 135.948C594.818 133.548 593.314 131.852 591.17 131.852C589.442 131.852 587.714 133.068 586.946 134.796L583.394 133.196C584.738 130.156 587.97 128.044 591.17 128.044C595.746 128.044 598.946 131.308 598.946 135.948C598.946 140.812 594.21 144.652 590.114 148.044H599.298V151.628H584.418L584.098 148.044ZM611.263 148.236C614.271 148.236 616.223 144.94 616.223 139.916C616.223 134.892 614.271 131.596 611.263 131.596C608.223 131.596 606.239 134.892 606.239 139.916C606.239 144.94 608.223 148.236 611.263 148.236ZM602.111 139.916C602.111 132.908 605.887 127.98 611.263 127.98C616.607 127.98 620.351 132.908 620.351 139.916C620.351 146.924 616.607 151.852 611.263 151.852C605.887 151.852 602.111 146.924 602.111 139.916ZM625.542 147.98C626.854 147.98 627.782 148.908 627.782 150.22C627.782 151.564 626.854 152.492 625.542 152.492C624.198 152.492 623.27 151.564 623.27 150.22C623.27 148.908 624.198 147.98 625.542 147.98ZM644.696 141.548L640.568 141.1L641.4 128.236H654.488V131.852H645.368L645.048 136.588C646.008 136.236 647.032 136.012 647.992 136.012C652.952 136.012 656.472 139.308 656.472 143.98C656.472 148.652 652.952 151.948 647.992 151.948C644.056 151.948 640.664 149.356 639.8 145.644L643.8 144.684C644.248 146.668 645.976 148.076 647.992 148.076C650.552 148.076 652.344 146.38 652.344 143.98C652.344 141.58 650.552 139.884 647.992 139.884C646.968 139.884 645.592 140.588 644.696 141.548Z" fill="white"/>
<path d="M524.588 179.98V197.692H522.02V189.7H513.668V197.692H511.124V179.98H513.668V187.492H522.02V179.98H524.588ZM528.467 186.244H531.011V197.692H528.467V186.244ZM528.299 181.972C528.299 181.132 528.899 180.532 529.739 180.532C530.579 180.532 531.179 181.132 531.179 181.972C531.179 182.812 530.579 183.412 529.739 183.412C528.899 183.412 528.299 182.812 528.299 181.972ZM539.309 195.364C540.197 195.364 541.229 194.908 541.877 194.188L543.629 195.94C542.645 197.02 540.845 197.788 539.405 197.788C535.997 197.788 533.597 195.388 533.597 192.028C533.597 188.644 535.997 186.244 539.405 186.244C540.917 186.244 542.597 187.012 543.629 188.116L541.877 189.844C541.229 189.124 540.197 188.668 539.309 188.668C537.413 188.668 536.141 189.988 536.141 192.028C536.141 194.044 537.413 195.364 539.309 195.364ZM550.66 195.628C552.436 195.628 553.636 194.212 553.636 192.028C553.636 189.868 552.436 188.428 550.66 188.428C548.884 188.428 547.684 189.844 547.684 192.028C547.684 194.212 548.86 195.628 550.66 195.628ZM545.14 192.028C545.14 188.644 547.42 186.244 550.66 186.244C553.9 186.244 556.18 188.644 556.18 192.028C556.18 195.388 553.9 197.812 550.66 197.812C547.42 197.812 545.14 195.388 545.14 192.028ZM573.456 197.884C568.32 197.884 564.72 194.14 564.72 188.836C564.72 183.508 568.32 179.788 573.456 179.788C575.88 179.788 578.04 180.82 579.624 182.428L577.944 184.084C576.888 182.836 575.208 182.02 573.432 182.02C569.76 182.02 567.288 184.756 567.288 188.836C567.288 192.916 569.76 195.652 573.432 195.652C575.328 195.652 576.84 194.788 577.848 193.636L579.624 195.244C578.04 196.852 576 197.908 573.456 197.884ZM587.126 197.812C583.958 197.812 581.702 195.412 581.702 192.052C581.702 188.692 583.958 186.292 587.126 186.292C588.254 186.292 589.502 186.82 590.414 187.9V186.268H592.958V197.716H590.414V196.18C589.502 197.332 588.254 197.812 587.126 197.812ZM584.246 192.052C584.246 194.212 585.47 195.652 587.294 195.652C588.974 195.652 590.414 194.14 590.438 192.052C590.414 189.964 588.974 188.452 587.294 188.452C585.47 188.452 584.246 189.868 584.246 192.052ZM601.936 195.628C603.784 195.628 604.984 194.188 604.984 192.004C604.984 189.82 603.784 188.38 601.936 188.38C600.208 188.38 598.792 189.988 598.792 192.004C598.792 194.02 600.208 195.628 601.936 195.628ZM596.224 202.78V186.244H598.768V187.924C599.68 186.724 601.192 186.244 602.08 186.244C605.272 186.244 607.528 188.62 607.528 192.004C607.528 195.412 605.272 197.788 602.08 197.788C601.168 197.788 599.68 197.284 598.768 196.084V202.78H596.224ZM610.288 186.244H612.832V197.692H610.288V186.244ZM610.12 181.972C610.12 181.132 610.72 180.532 611.56 180.532C612.4 180.532 613 181.132 613 181.972C613 182.812 612.4 183.412 611.56 183.412C610.72 183.412 610.12 182.812 610.12 181.972ZM617.817 197.716V188.452H615.657V186.244H617.817V182.236H620.361V186.244H623.073V188.452H620.361V197.716H617.817ZM630.298 197.812C627.13 197.812 624.874 195.412 624.874 192.052C624.874 188.692 627.13 186.292 630.298 186.292C631.426 186.292 632.674 186.82 633.586 187.9V186.268H636.13V197.716H633.586V196.18C632.674 197.332 631.426 197.812 630.298 197.812ZM627.418 192.052C627.418 194.212 628.642 195.652 630.466 195.652C632.146 195.652 633.586 194.14 633.61 192.052C633.586 189.964 632.146 188.452 630.466 188.452C628.642 188.452 627.418 189.868 627.418 192.052ZM639.224 180.556H641.768V197.692H639.224V180.556ZM660.603 181.492H664.779V178.084H667.419V188.98H664.779V183.604H660.603V181.492ZM649.563 187.036C652.971 185.956 654.723 183.316 654.723 180.46V178.756H657.363V180.46C657.363 183.076 659.067 185.596 662.307 186.628L660.963 188.668C658.659 187.9 657.003 186.364 656.091 184.42C655.155 186.58 653.427 188.284 650.931 189.1L649.563 187.036ZM653.451 192.004V189.964H667.419V195.46H656.091V197.116H668.091V199.18H653.475V193.54H664.803V192.004H653.451ZM685.66 178.06H688.3V189.916H685.66V178.06ZM671.716 181.18V179.068H681.484V185.188H674.332V187.396C677.98 187.372 680.596 187.252 683.572 186.748L683.884 188.884C680.572 189.436 677.716 189.532 673.564 189.532H671.74V183.196H678.892V181.18H671.716ZM674.236 199.18V190.876H676.852V192.964H685.708V190.876H688.3V199.18H674.236ZM676.852 197.044H685.708V195.004H676.852V197.044Z" fill="white"/>
<path d="M555.86 222.446C555.86 220.626 556.574 218.232 557.582 216.636H559.15C558.002 218.218 557.204 220.612 557.204 222.446C557.204 224.28 558.002 226.674 559.15 228.256H557.582C556.574 226.66 555.86 224.266 555.86 222.446ZM561.184 217.322H567.064V225.596H561.184V217.322ZM562.696 224.378H565.566V218.54H562.696V224.378ZM569.276 228.648V216.146H570.816V228.648H569.276ZM574.191 216.734H582.675V217.686C582.675 218.638 582.675 219.702 582.409 221.088H584.061V222.32H579.175V224.28H582.717V228.634H581.191V225.498H573.925V224.28H577.635V222.32H572.777V221.088H580.883C581.149 219.814 581.177 218.848 581.177 217.966H574.191V216.734ZM597.046 216.174H598.586V225.666H597.046V223.23H595.226V221.998H597.046V220.57H595.226V219.338H597.046V216.174ZM588.254 218.764V217.546H591.012V216.132H592.552V217.546H595.156V218.764H588.254ZM588.884 221.732C588.884 220.276 590.088 219.31 591.754 219.31C593.448 219.31 594.652 220.276 594.652 221.732C594.652 223.16 593.448 224.14 591.754 224.14C590.088 224.14 588.884 223.16 588.884 221.732ZM590.326 221.732C590.326 222.502 590.914 222.964 591.754 222.964C592.608 222.964 593.196 222.502 593.196 221.732C593.196 220.962 592.608 220.486 591.754 220.486C590.914 220.486 590.326 220.962 590.326 221.732ZM590.424 228.382V224.868H591.978V227.15H598.866V228.382H590.424ZM600.854 217.392H607.84V218.666H605.124V219.702C605.124 221.76 606.328 223.902 608.302 224.742L607.448 225.96C606.006 225.316 604.942 224.014 604.368 222.432C603.808 224.14 602.73 225.582 601.274 226.268L600.392 225.05C602.366 224.14 603.57 221.83 603.57 219.702V218.666H600.854V217.392ZM609.198 228.634V216.174H610.738V228.634H609.198ZM616.485 216.804H618.011V218.512H620.769V216.804H622.281V219.086H624.745V216.174H626.285V222.978H624.745V220.332H622.281V222.586H616.485V216.804ZM618.011 221.34H620.769V219.688H618.011V221.34ZM618.137 228.466V223.538H619.649V224.798H624.759V223.538H626.285V228.466H618.137ZM619.649 227.234H624.759V226.002H619.649V227.234ZM636.925 216.174H638.465V225.176H636.925V216.174ZM628.385 220.122C628.385 218.288 629.841 216.986 631.717 216.986C633.607 216.986 635.049 218.288 635.049 220.122C635.049 221.928 633.607 223.244 631.717 223.244C629.841 223.244 628.385 221.928 628.385 220.122ZM629.883 220.122C629.883 221.2 630.681 221.9 631.717 221.9C632.753 221.9 633.551 221.2 633.551 220.122C633.551 219.016 632.753 218.316 631.717 218.316C630.681 218.316 629.883 219.016 629.883 220.122ZM630.289 228.382V224.28H631.815V227.15H638.801V228.382H630.289ZM644.122 222.446C644.122 224.266 643.422 226.646 642.414 228.256H640.846C641.98 226.688 642.778 224.28 642.778 222.446C642.778 220.612 641.98 218.204 640.846 216.636H642.414C643.422 218.246 644.122 220.626 644.122 222.446Z" fill="white"/>
<path d="M814 174C814 91.1573 881.157 24 964 24C1046.84 24 1114 91.1573 1114 174C1114 256.843 1046.84 324 964 324C881.157 324 814 256.843 814 174Z" fill="url(#paint2_linear_14650_34674)"/>
<path d="M906.473 161.044C911.177 156.532 917.193 152.692 917.193 148.948C917.193 146.548 915.689 144.852 913.545 144.852C911.817 144.852 910.089 146.068 909.321 147.796L905.769 146.196C907.113 143.156 910.345 141.044 913.545 141.044C918.121 141.044 921.321 144.308 921.321 148.948C921.321 153.812 916.585 157.652 912.489 161.044H921.673V164.628H906.793L906.473 161.044ZM933.638 161.236C936.646 161.236 938.598 157.94 938.598 152.916C938.598 147.892 936.646 144.596 933.638 144.596C930.598 144.596 928.614 147.892 928.614 152.916C928.614 157.94 930.598 161.236 933.638 161.236ZM924.486 152.916C924.486 145.908 928.262 140.98 933.638 140.98C938.982 140.98 942.726 145.908 942.726 152.916C942.726 159.924 938.982 164.852 933.638 164.852C928.262 164.852 924.486 159.924 924.486 152.916ZM946.317 161.044C951.021 156.532 957.037 152.692 957.037 148.948C957.037 146.548 955.533 144.852 953.389 144.852C951.661 144.852 949.933 146.068 949.165 147.796L945.613 146.196C946.957 143.156 950.189 141.044 953.389 141.044C957.965 141.044 961.165 144.308 961.165 148.948C961.165 153.812 956.429 157.652 952.333 161.044H961.517V164.628H946.637L946.317 161.044ZM974.218 141.236V164.66L970.09 164.596V145.556L965.642 147.668L964.138 144.084L970.122 141.236H974.218ZM981.01 160.98C982.322 160.98 983.25 161.908 983.25 163.22C983.25 164.564 982.322 165.492 981.01 165.492C979.666 165.492 978.738 164.564 978.738 163.22C978.738 161.908 979.666 160.98 981.01 160.98ZM1005.09 141.236V164.66L1000.96 164.596V145.556L996.517 147.668L995.013 144.084L1001 141.236H1005.09ZM1020.69 141.236V164.66L1016.56 164.596V145.556L1012.11 147.668L1010.61 144.084L1016.59 141.236H1020.69Z" fill="white"/>
<path d="M922.889 191.084H925.529V206.732H922.889V199.076H919.577V196.964H922.889V191.084ZM907.793 201.548H910.193V194.948H908.345V192.836H919.673V194.948H917.801V201.26C918.713 201.188 919.625 201.092 920.489 200.972L920.657 202.916C916.481 203.636 911.657 203.708 908.057 203.708L907.793 201.548ZM911.585 212.012V205.412H914.201V209.9H926.033V212.012H911.585ZM912.737 201.5C913.577 201.476 914.417 201.452 915.257 201.404V194.948H912.737V201.5ZM931.097 192.884H945.785V195.044H933.713V201.068H945.977V203.18H931.097V192.884ZM928.769 209.732V207.572H948.113V209.732H928.769ZM956.405 192.98H958.949V210.692H956.405V192.98ZM962.827 192.98H965.371V210.692H962.827V192.98ZM974.444 192.524H984.02V199.124H977.108V201.836C980.612 201.812 982.94 201.716 985.58 201.284L985.796 203.396C982.844 203.9 980.3 203.972 976.172 203.972H974.492V197.132H981.404V194.612H974.444V192.524ZM977.348 212.012V205.58H979.988V209.9H991.964V212.012H977.348ZM985.172 198.596V196.34H988.748V191.084H991.388V206.78H988.748V198.596H985.172ZM995.517 193.436H1000.03V191.084H1002.67V193.436H1007.16V195.548H1002.67C1002.72 197.948 1004.54 200.252 1007.88 201.14L1006.65 203.228C1004.18 202.532 1002.4 201.068 1001.42 199.172C1000.46 201.284 998.685 202.916 996.117 203.684L994.869 201.62C998.229 200.612 1000 198.164 1000.03 195.548H995.517V193.436ZM997.845 208.412C997.845 205.916 1000.58 204.428 1005.07 204.428C1009.56 204.428 1012.34 205.916 1012.34 208.412C1012.34 210.956 1009.56 212.42 1005.07 212.42C1000.58 212.42 997.845 210.956 997.845 208.412ZM1000.48 208.412C1000.48 209.708 1002.12 210.404 1005.07 210.404C1008.04 210.404 1009.72 209.708 1009.72 208.412C1009.72 207.14 1008.04 206.444 1005.07 206.444C1002.12 206.444 1000.48 207.14 1000.48 208.412ZM1009.6 204.044V191.084H1012.24V204.044H1009.6Z" fill="white"/>
<defs>
<linearGradient id="paint0_linear_14650_34674" x1="236" y1="24" x2="236" y2="324" gradientUnits="userSpaceOnUse">
<stop stop-color="#9735D0"/>
<stop offset="0.5" stop-color="#7629A3" stop-opacity="0.555"/>
<stop offset="1" stop-color="#4D1B6A" stop-opacity="0"/>
</linearGradient>
<linearGradient id="paint1_linear_14650_34674" x1="600" y1="24" x2="600" y2="324" gradientUnits="userSpaceOnUse">
<stop stop-color="#9735D0"/>
<stop offset="0.5" stop-color="#7629A3" stop-opacity="0.555"/>
<stop offset="1" stop-color="#4D1B6A" stop-opacity="0"/>
</linearGradient>
<linearGradient id="paint2_linear_14650_34674" x1="964" y1="24" x2="964" y2="324" gradientUnits="userSpaceOnUse">
<stop stop-color="#9735D0"/>
<stop offset="0.5" stop-color="#7629A3" stop-opacity="0.555"/>
<stop offset="1" stop-color="#4D1B6A" stop-opacity="0"/>
</linearGradient>
</defs>
</svg>
