<svg width="24" height="24" viewBox="0 0 24 24" fill="none" xmlns="http://www.w3.org/2000/svg">
<path fill-rule="evenodd" clip-rule="evenodd" d="M6.49805 13.698C7.43585 13.698 8.19609 12.9378 8.19609 12C8.19609 11.0622 7.43585 10.302 6.49805 10.302C5.56024 10.302 4.8 11.0622 4.8 12C4.8 12.9378 5.56024 13.698 6.49805 13.698ZM6.49805 15.498C8.42997 15.498 9.99609 13.9319 9.99609 12C9.99609 10.0681 8.42997 8.50195 6.49805 8.50195C4.56613 8.50195 3 10.0681 3 12C3 13.9319 4.56613 15.498 6.49805 15.498Z" fill="black"/>
<path fill-rule="evenodd" clip-rule="evenodd" d="M17.5012 20.2C18.4394 20.2 19.2 19.4394 19.2 18.5012C19.2 17.563 18.4394 16.8024 17.5012 16.8024C16.563 16.8024 15.8024 17.563 15.8024 18.5012C15.8024 19.4394 16.563 20.2 17.5012 20.2ZM17.5012 22C19.4335 22 21 20.4335 21 18.5012C21 16.5689 19.4335 15.0024 17.5012 15.0024C15.5689 15.0024 14.0024 16.5689 14.0024 18.5012C14.0024 20.4335 15.5689 22 17.5012 22Z" fill="black"/>
<path fill-rule="evenodd" clip-rule="evenodd" d="M17.502 7.19609C18.4398 7.19609 19.2 6.43585 19.2 5.49805C19.2 4.56024 18.4398 3.8 17.502 3.8C16.5641 3.8 15.8039 4.56024 15.8039 5.49805C15.8039 6.43585 16.5641 7.19609 17.502 7.19609ZM17.502 8.99609C19.4339 8.99609 21 7.42997 21 5.49805C21 3.56613 19.4339 2 17.502 2C15.57 2 14.0039 3.56613 14.0039 5.49805C14.0039 7.42997 15.57 8.99609 17.502 8.99609Z" fill="black"/>
<path fill-rule="evenodd" clip-rule="evenodd" d="M16.0929 7.61505L8.95728 11.7348L8.05728 10.176L15.1929 6.05621L16.0929 7.61505Z" fill="black"/>
<path fill-rule="evenodd" clip-rule="evenodd" d="M15.0929 18.1169L7.95727 13.9972L8.85728 12.4383L15.9929 16.5581L15.0929 18.1169Z" fill="black"/>
</svg>
