<svg width="24" height="24" viewBox="0 0 24 24" fill="none" xmlns="http://www.w3.org/2000/svg">
<path fill-rule="evenodd" clip-rule="evenodd" d="M20 8.8H9C8.88954 8.8 8.8 8.88954 8.8 9V20C8.8 20.1105 8.88954 20.2 9 20.2H20C20.1105 20.2 20.2 20.1105 20.2 20V9C20.2 8.88954 20.1105 8.8 20 8.8ZM9 7C7.89543 7 7 7.89543 7 9V20C7 21.1046 7.89543 22 9 22H20C21.1046 22 22 21.1046 22 20V9C22 7.89543 21.1046 7 20 7H9Z" fill="black"/>
<rect x="4" y="4" width="13" height="13" fill="white"/>
<path fill-rule="evenodd" clip-rule="evenodd" d="M16 4.8H5C4.88954 4.8 4.8 4.88954 4.8 5V16C4.8 16.1105 4.88954 16.2 5 16.2H16C16.1105 16.2 16.2 16.1105 16.2 16V5C16.2 4.88954 16.1105 4.8 16 4.8ZM5 3C3.89543 3 3 3.89543 3 5V16C3 17.1046 3.89543 18 5 18H16C17.1046 18 18 17.1046 18 16V5C18 3.89543 17.1046 3 16 3H5Z" fill="black"/>
</svg>
