<svg width="24" height="24" viewBox="0 0 24 24" fill="none" xmlns="http://www.w3.org/2000/svg">
<path fill-rule="evenodd" clip-rule="evenodd" d="M12 8.8C11.5553 8.8 11.1264 8.6354 10.7959 8.33793L8.03299 5.85134C7.99626 5.81829 7.9486 5.8 7.8992 5.8H4C3.88954 5.8 3.8 5.88954 3.8 6V19C3.8 19.1105 3.88954 19.2 4 19.2H20C20.1105 19.2 20.2 19.1105 20.2 19V9C20.2 8.88954 20.1105 8.8 20 8.8H12ZM12 7L9.23712 4.51341C8.86987 4.18289 8.39328 4 7.8992 4H4C2.89543 4 2 4.89543 2 6V19C2 20.1046 2.89543 21 4 21H20C21.1046 21 22 20.1046 22 19V9C22 7.89543 21.1046 7 20 7H12Z" fill="black"/>
</svg>
