<svg width="24" height="24" viewBox="0 0 24 24" fill="none" xmlns="http://www.w3.org/2000/svg">
<path fill-rule="evenodd" clip-rule="evenodd" d="M11.9985 10.7036C13.9049 10.7036 15.4503 9.15818 15.4503 7.2518C15.4503 5.34542 13.9049 3.8 11.9985 3.8C10.0921 3.8 8.54668 5.34542 8.54668 7.2518C8.54668 9.15818 10.0921 10.7036 11.9985 10.7036ZM11.9985 12.5036C14.899 12.5036 17.2503 10.1523 17.2503 7.2518C17.2503 4.35131 14.899 2 11.9985 2C9.09799 2 6.74668 4.35131 6.74668 7.2518C6.74668 10.1523 9.09799 12.5036 11.9985 12.5036Z" fill="black"/>
<path fill-rule="evenodd" clip-rule="evenodd" d="M11.9985 12.8206C7.8432 12.8206 5.05027 15.2303 4.13033 18.5204C4.10469 18.612 4.11124 18.6701 4.12195 18.7105C4.13426 18.7569 4.16434 18.8222 4.23276 18.8964C4.37861 19.0547 4.65437 19.2 4.99855 19.2H18.9984C19.3426 19.2 19.6183 19.0547 19.7642 18.8965C19.8326 18.8222 19.8626 18.757 19.8749 18.7106C19.8856 18.6702 19.8922 18.6122 19.8665 18.5205C18.9464 15.2308 16.1534 12.8206 11.9985 12.8206ZM2.39682 18.0356C3.53315 13.9717 7.03193 11.0206 11.9985 11.0206C16.9648 11.0206 20.4635 13.9724 21.6 18.0357C22.0463 19.6313 20.6553 21 18.9984 21H4.99855C3.3417 21 1.95066 19.6313 2.39682 18.0356Z" fill="black"/>
</svg>
