<svg width="24" height="24" viewBox="0 0 24 24" fill="none" xmlns="http://www.w3.org/2000/svg">
<path fill-rule="evenodd" clip-rule="evenodd" d="M12.0016 3.10156C12.4986 3.10156 12.9016 3.50451 12.9016 4.00156V15.0016C12.9016 15.4986 12.4986 15.9016 12.0016 15.9016C11.5045 15.9016 11.1016 15.4986 11.1016 15.0016V4.00156C11.1016 3.50451 11.5045 3.10156 12.0016 3.10156Z" fill="black"/>
<path fill-rule="evenodd" clip-rule="evenodd" d="M16.638 10.3652C16.9894 10.7166 16.9894 11.2865 16.638 11.638L12.638 15.638C12.4692 15.8067 12.2403 15.9016 12.0016 15.9016C11.7629 15.9016 11.5339 15.8067 11.3652 15.638L7.36517 11.638C7.01369 11.2865 7.01369 10.7166 7.36517 10.3652C7.71664 10.0137 8.28649 10.0137 8.63796 10.3652L12.0016 13.7288L15.3652 10.3652C15.7166 10.0137 16.2865 10.0137 16.638 10.3652Z" fill="black"/>
<path fill-rule="evenodd" clip-rule="evenodd" d="M4.00156 14.1016C4.49862 14.1016 4.90156 14.5045 4.90156 15.0016V18.1016H19.1016V15.0016C19.1016 14.5045 19.5045 14.1016 20.0016 14.1016C20.4986 14.1016 20.9016 14.5045 20.9016 15.0016V19.0016C20.9016 19.4986 20.4986 19.9016 20.0016 19.9016H4.00156C3.50451 19.9016 3.10156 19.4986 3.10156 19.0016V15.0016C3.10156 14.5045 3.50451 14.1016 4.00156 14.1016Z" fill="black"/>
</svg>
