<svg width="24" height="24" viewBox="0 0 24 24" fill="none" xmlns="http://www.w3.org/2000/svg">
<path fill-rule="evenodd" clip-rule="evenodd" d="M2.85938 6.00156C2.85938 5.50451 3.26232 5.10156 3.75937 5.10156H20.2374C20.7345 5.10156 21.1374 5.50451 21.1374 6.00156C21.1374 6.49862 20.7345 6.90156 20.2374 6.90156H3.75937C3.26232 6.90156 2.85938 6.49862 2.85938 6.00156Z" fill="black"/>
<path fill-rule="evenodd" clip-rule="evenodd" d="M2.85938 12.0016C2.85938 11.5045 3.26232 11.1016 3.75937 11.1016H20.2374C20.7345 11.1016 21.1374 11.5045 21.1374 12.0016C21.1374 12.4986 20.7345 12.9016 20.2374 12.9016H3.75937C3.26232 12.9016 2.85938 12.4986 2.85938 12.0016Z" fill="black"/>
<path fill-rule="evenodd" clip-rule="evenodd" d="M2.85938 18.0016C2.85938 17.5045 3.26232 17.1016 3.75937 17.1016H20.2374C20.7345 17.1016 21.1374 17.5045 21.1374 18.0016C21.1374 18.4986 20.7345 18.9016 20.2374 18.9016H3.75937C3.26232 18.9016 2.85938 18.4986 2.85938 18.0016Z" fill="black"/>
</svg>
