<svg width="24" height="24" viewBox="0 0 24 24" fill="none" xmlns="http://www.w3.org/2000/svg">
<path fill-rule="evenodd" clip-rule="evenodd" d="M12.0016 3.90156C7.52806 3.90156 3.90156 7.52806 3.90156 12.0016C3.90156 16.4751 7.52806 20.1016 12.0016 20.1016C16.4751 20.1016 20.1016 16.4751 20.1016 12.0016C20.1016 7.52806 16.4751 3.90156 12.0016 3.90156ZM2.10156 12.0016C2.10156 6.53394 6.53394 2.10156 12.0016 2.10156C17.4692 2.10156 21.9016 6.53394 21.9016 12.0016C21.9016 17.4692 17.4692 21.9016 12.0016 21.9016C6.53394 21.9016 2.10156 17.4692 2.10156 12.0016ZM12.0016 10.1016C12.4986 10.1016 12.9016 10.5045 12.9016 11.0016V16.5016C12.9016 16.9986 12.4986 17.4016 12.0016 17.4016C11.5045 17.4016 11.1016 16.9986 11.1016 16.5016V11.0016C11.1016 10.5045 11.5045 10.1016 12.0016 10.1016Z" fill="black"/>
<path fill-rule="evenodd" clip-rule="evenodd" d="M12.0015 9.00156C11.5044 9.00156 11.1015 8.59862 11.1015 8.10156V7.90156C11.1015 7.40451 11.5044 7.00156 12.0015 7.00156C12.4985 7.00156 12.9015 7.40451 12.9015 7.90156V8.10156C12.9015 8.59862 12.4985 9.00156 12.0015 9.00156Z" fill="black"/>
</svg>
