<svg width="24" height="24" viewBox="0 0 24 24" fill="none" xmlns="http://www.w3.org/2000/svg">
<path fill-rule="evenodd" clip-rule="evenodd" d="M9.00156 2.10156C9.49862 2.10156 9.90156 2.50451 9.90156 3.00156V4.10156H14.1016V3.00156C14.1016 2.50451 14.5045 2.10156 15.0016 2.10156C15.4986 2.10156 15.9016 2.50451 15.9016 3.00156V4.10156H18.0016C19.6032 4.10156 20.9016 5.39994 20.9016 7.00156V19.0016C20.9016 20.6032 19.6032 21.9016 18.0016 21.9016H6.00156C4.39994 21.9016 3.10156 20.6032 3.10156 19.0016V7.00156C3.10156 5.39994 4.39994 4.10156 6.00156 4.10156H8.10156V3.00156C8.10156 2.50451 8.50451 2.10156 9.00156 2.10156ZM6.00156 5.90156C5.39405 5.90156 4.90156 6.39405 4.90156 7.00156V10.1016H19.1016V7.00156C19.1016 6.39405 18.6091 5.90156 18.0016 5.90156H6.00156ZM19.1016 11.9016H4.90156V19.0016C4.90156 19.6091 5.39405 20.1016 6.00156 20.1016H18.0016C18.6091 20.1016 19.1016 19.6091 19.1016 19.0016V11.9016Z" fill="black"/>
</svg>
