<svg width="72" height="72" viewBox="0 0 72 72" fill="none" xmlns="http://www.w3.org/2000/svg">
<path d="M35.9966 19.5C30.2649 19.5 25.7109 24.1449 25.7109 29.7857C25.7109 35.4265 30.2649 40.0714 35.9966 40.0714C41.7284 40.0714 46.2824 35.4265 46.2824 29.7857C46.2824 24.1449 41.7284 19.5 35.9966 19.5Z" fill="#6D0CA6"/>
<path d="M35.9966 42.6406C30.7697 42.6406 26.0395 44.4358 22.5931 46.9282C19.251 49.3452 16.7109 52.7413 16.7109 56.1406C16.7109 59.9622 19.8012 62.0092 23.1458 63.0589C26.5762 64.1356 31.1562 64.4977 35.9966 64.4977C40.8371 64.4977 45.4171 64.1356 48.8475 63.0589C52.192 62.0092 55.2823 59.9622 55.2823 56.1406C55.2823 52.7413 52.7423 49.3452 49.4001 46.9282C45.9538 44.4358 41.2236 42.6406 35.9966 42.6406Z" fill="#6D0CA6"/>
<path fill-rule="evenodd" clip-rule="evenodd" d="M12.75 18C12.2529 18 11.9204 18.5965 11.2554 19.7894L11.0834 20.098C10.8944 20.437 10.7999 20.6065 10.6526 20.7183C10.5053 20.8302 10.3218 20.8717 9.95484 20.9547L9.62076 21.0303C8.32943 21.3225 7.68376 21.4686 7.53015 21.9626C7.37653 22.4565 7.81671 22.9713 8.69705 24.0007L8.92481 24.267C9.17498 24.5596 9.30006 24.7058 9.35633 24.8868C9.4126 25.0678 9.39369 25.2629 9.35587 25.6532L9.32143 26.0086C9.18834 27.3821 9.12179 28.0688 9.52395 28.3741C9.92612 28.6794 10.5307 28.4011 11.7397 27.8444L12.0525 27.7003C12.3961 27.5421 12.5679 27.463 12.75 27.463C12.9321 27.463 13.1039 27.5421 13.4475 27.7003L13.7603 27.8444C14.9693 28.4011 15.5739 28.6794 15.9761 28.3741C16.3782 28.0688 16.3117 27.3821 16.1786 26.0086L16.1441 25.6532C16.1063 25.2629 16.0874 25.0678 16.1437 24.8868C16.1999 24.7058 16.325 24.5596 16.5752 24.2671L16.803 24.0007C17.6833 22.9713 18.1235 22.4565 17.9699 21.9626C17.8162 21.4686 17.1706 21.3225 15.8792 21.0303L15.5452 20.9547C15.1782 20.8717 14.9947 20.8302 14.8474 20.7183C14.7001 20.6065 14.6056 20.437 14.4166 20.098L14.2446 19.7894C13.5796 18.5965 13.2471 18 12.75 18Z" fill="#CC7DFA"/>
<path fill-rule="evenodd" clip-rule="evenodd" d="M26.25 18C25.7529 18 25.4204 17.4035 24.7554 16.2106L24.5834 15.902C24.3944 15.563 24.2999 15.3935 24.1526 15.2817C24.0053 15.1698 23.8218 15.1283 23.4548 15.0453L23.1208 14.9697C21.8294 14.6775 21.1838 14.5314 21.0301 14.0374C20.8765 13.5435 21.3167 13.0287 22.1971 11.9993L22.4248 11.733C22.675 11.4404 22.8001 11.2942 22.8563 11.1132C22.9126 10.9322 22.8937 10.7371 22.8559 10.3468L22.8214 9.99144C22.6883 8.61793 22.6218 7.93118 23.024 7.62589C23.4261 7.32059 24.0307 7.59894 25.2397 8.15564L25.5525 8.29966C25.8961 8.45786 26.0679 8.53696 26.25 8.53695C26.4321 8.53695 26.6039 8.45786 26.9475 8.29966L27.2603 8.15564C28.4693 7.59894 29.0739 7.32059 29.4761 7.62589C29.8782 7.93118 29.8117 8.61794 29.6786 9.99144L29.6441 10.3468C29.6063 10.7371 29.5874 10.9322 29.6437 11.1132C29.6999 11.2942 29.825 11.4404 30.0752 11.7329L30.303 11.9993C31.1833 13.0287 31.6235 13.5435 31.4699 14.0374C31.3162 14.5314 30.6706 14.6775 29.3792 14.9697L29.0452 15.0453C28.6782 15.1283 28.4947 15.1698 28.3474 15.2817C28.2001 15.3935 28.1056 15.563 27.9166 15.902L27.7446 16.2106C27.0796 17.4035 26.7471 18 26.25 18Z" fill="#CC7DFA"/>
<path fill-rule="evenodd" clip-rule="evenodd" d="M45.75 18C45.2529 18 44.9204 17.4035 44.2554 16.2106L44.0834 15.902C43.8944 15.563 43.7999 15.3935 43.6526 15.2817C43.5053 15.1698 43.3218 15.1283 42.9548 15.0453L42.6208 14.9697C41.3294 14.6775 40.6838 14.5314 40.5301 14.0374C40.3765 13.5435 40.8167 13.0287 41.6971 11.9993L41.9248 11.733C42.175 11.4404 42.3001 11.2942 42.3563 11.1132C42.4126 10.9322 42.3937 10.7371 42.3559 10.3468L42.3214 9.99144C42.1883 8.61793 42.1218 7.93118 42.524 7.62589C42.9261 7.32059 43.5307 7.59894 44.7397 8.15564L45.0525 8.29966C45.3961 8.45786 45.5679 8.53696 45.75 8.53695C45.9321 8.53695 46.1039 8.45786 46.4475 8.29966L46.7603 8.15564C47.9693 7.59894 48.5739 7.32059 48.9761 7.62589C49.3782 7.93118 49.3117 8.61794 49.1786 9.99144L49.1441 10.3468C49.1063 10.7371 49.0874 10.9322 49.1437 11.1132C49.1999 11.2942 49.325 11.4404 49.5752 11.7329L49.803 11.9993C50.6833 13.0287 51.1235 13.5435 50.9699 14.0374C50.8162 14.5314 50.1706 14.6775 48.8792 14.9697L48.5452 15.0453C48.1782 15.1283 47.9947 15.1698 47.8474 15.2817C47.7001 15.3935 47.6056 15.563 47.4166 15.902L47.2446 16.2106C46.5796 17.4035 46.2471 18 45.75 18Z" fill="#CC7DFA"/>
<path fill-rule="evenodd" clip-rule="evenodd" d="M59.25 18C58.7529 18 58.4204 18.5965 57.7554 19.7894L57.5834 20.098C57.3944 20.437 57.2999 20.6065 57.1526 20.7183C57.0053 20.8302 56.8218 20.8717 56.4548 20.9547L56.1208 21.0303C54.8294 21.3225 54.1838 21.4686 54.0301 21.9626C53.8765 22.4565 54.3167 22.9713 55.1971 24.0007L55.4248 24.267C55.675 24.5596 55.8001 24.7058 55.8563 24.8868C55.9126 25.0678 55.8937 25.2629 55.8559 25.6532L55.8214 26.0086C55.6883 27.3821 55.6218 28.0688 56.024 28.3741C56.4261 28.6794 57.0307 28.4011 58.2397 27.8444L58.5525 27.7003C58.8961 27.5421 59.0679 27.463 59.25 27.463C59.4321 27.463 59.6039 27.5421 59.9475 27.7003L60.2603 27.8444C61.4693 28.4011 62.0739 28.6794 62.4761 28.3741C62.8782 28.0688 62.8117 27.3821 62.6786 26.0086L62.6441 25.6532C62.6063 25.2629 62.5874 25.0678 62.6437 24.8868C62.6999 24.7058 62.825 24.5596 63.0752 24.2671L63.303 24.0007C64.1833 22.9713 64.6235 22.4565 64.4699 21.9626C64.3162 21.4686 63.6706 21.3225 62.3792 21.0303L62.0452 20.9547C61.6782 20.8717 61.4947 20.8302 61.3474 20.7183C61.2001 20.6065 61.1056 20.437 60.9166 20.098L60.7446 19.7894C60.0796 18.5965 59.7471 18 59.25 18Z" fill="#CC7DFA"/>
</svg>
