<svg width="1201" height="358" viewBox="0 0 1201 358" fill="none" xmlns="http://www.w3.org/2000/svg">
<path fill-rule="evenodd" clip-rule="evenodd" d="M272 10C267.582 10 264 13.5817 264 18V82C264 86.4183 267.582 90 272 90H439C443.418 90 447 86.4183 447 82V18C447 13.5817 443.418 10 439 10H272ZM221 96C216.582 96 213 99.5817 213 104V168C213 172.418 216.582 176 221 176H490C494.418 176 498 172.418 498 168V104C498 99.5817 494.418 96 490 96H221ZM162 190C162 185.582 165.582 182 170 182H540C544.418 182 548 185.582 548 190V254C548 258.418 544.418 262 540 262H170C165.582 262 162 258.418 162 254V190ZM119 268C114.582 268 111 271.582 111 276V340C111 344.418 114.582 348 119 348H591C595.418 348 599 344.418 599 340V276C599 271.582 595.418 268 591 268H119Z" fill="url(#paint0_linear_4188_2450)"/>
<path d="M326.981 42.4V55.3H333.661V57.16H324.861V42.4H326.981ZM339.352 57.22C336.652 57.22 334.752 55.24 334.752 52.44C334.752 49.62 336.652 47.64 339.352 47.64C342.312 47.64 343.252 50.06 343.312 50.22C343.892 51.58 343.712 53.1 343.712 53.26H336.832C337.072 54.54 338.152 55.42 339.352 55.42C340.932 55.42 341.572 54.5 341.732 54.22L343.432 54.98C342.972 56.06 341.632 57.22 339.352 57.22ZM336.832 51.58H341.712C341.512 50.4 340.832 49.44 339.352 49.44C338.072 49.44 337.072 50.34 336.832 51.58ZM354.471 47.64L350.431 57.18H348.591L344.591 47.64H346.911L349.511 54.32L352.131 47.64H354.471ZM359.84 57.22C357.14 57.22 355.24 55.24 355.24 52.44C355.24 49.62 357.14 47.64 359.84 47.64C362.8 47.64 363.74 50.06 363.8 50.22C364.38 51.58 364.2 53.1 364.2 53.26H357.32C357.56 54.54 358.64 55.42 359.84 55.42C361.42 55.42 362.06 54.5 362.22 54.22L363.92 54.98C363.46 56.06 362.12 57.22 359.84 57.22ZM357.32 51.58H362.2C362 50.4 361.32 49.44 359.84 49.44C358.56 49.44 357.56 50.34 357.32 51.58ZM366.3 42.88H368.42V57.16H366.3V42.88ZM383.896 42.5V51.46H385.736V53.3H383.896V57.06H381.776V53.3H375.516L375.316 51.46L381.876 42.5H383.896ZM377.836 51.46H381.776V46.04L377.836 51.46Z" fill="white"/>
<path d="M326.764 128.4V141.3H333.444V143.16H324.644V128.4H326.764ZM339.135 143.22C336.435 143.22 334.535 141.24 334.535 138.44C334.535 135.62 336.435 133.64 339.135 133.64C342.095 133.64 343.035 136.06 343.095 136.22C343.675 137.58 343.495 139.1 343.495 139.26H336.615C336.855 140.54 337.935 141.42 339.135 141.42C340.715 141.42 341.355 140.5 341.515 140.22L343.215 140.98C342.755 142.06 341.415 143.22 339.135 143.22ZM336.615 137.58H341.495C341.295 136.4 340.615 135.44 339.135 135.44C337.855 135.44 336.855 136.34 336.615 137.58ZM354.254 133.64L350.214 143.18H348.374L344.374 133.64H346.694L349.294 140.32L351.914 133.64H354.254ZM359.623 143.22C356.923 143.22 355.023 141.24 355.023 138.44C355.023 135.62 356.923 133.64 359.623 133.64C362.583 133.64 363.523 136.06 363.583 136.22C364.163 137.58 363.983 139.1 363.983 139.26H357.103C357.343 140.54 358.423 141.42 359.623 141.42C361.203 141.42 361.843 140.5 362.003 140.22L363.703 140.98C363.243 142.06 361.903 143.22 359.623 143.22ZM357.103 137.58H361.983C361.783 136.4 361.103 135.44 359.623 135.44C358.343 135.44 357.343 136.34 357.103 137.58ZM366.083 128.88H368.203V143.16H366.083V128.88ZM382.839 135.54C384.139 136.3 384.959 137.72 384.959 138.94C384.959 141.42 382.919 143.18 380.019 143.18C377.139 143.18 375.099 141.38 375.099 138.82H377.219C377.219 140.28 378.379 141.3 380.019 141.3C381.699 141.3 382.899 140.28 382.899 138.82C382.899 137.42 381.719 136.42 380.059 136.42H379.019V134.64H380.079C381.599 134.64 382.679 133.74 382.679 132.46C382.679 131.16 381.639 130.26 380.159 130.26C378.679 130.26 377.659 131.18 377.659 132.48H375.539C375.539 130.06 377.439 128.38 380.159 128.38C382.839 128.38 384.739 130.02 384.739 132.34C384.739 133.46 384.019 134.78 382.839 135.54Z" fill="white"/>
<path d="M326.911 214.4V227.3H333.591V229.16H324.791V214.4H326.911ZM339.282 229.22C336.582 229.22 334.682 227.24 334.682 224.44C334.682 221.62 336.582 219.64 339.282 219.64C342.242 219.64 343.182 222.06 343.242 222.22C343.822 223.58 343.642 225.1 343.642 225.26H336.762C337.002 226.54 338.082 227.42 339.282 227.42C340.862 227.42 341.502 226.5 341.662 226.22L343.362 226.98C342.902 228.06 341.562 229.22 339.282 229.22ZM336.762 223.58H341.642C341.442 222.4 340.762 221.44 339.282 221.44C338.002 221.44 337.002 222.34 336.762 223.58ZM354.401 219.64L350.361 229.18H348.521L344.521 219.64H346.841L349.441 226.32L352.061 219.64H354.401ZM359.77 229.22C357.07 229.22 355.17 227.24 355.17 224.44C355.17 221.62 357.07 219.64 359.77 219.64C362.73 219.64 363.67 222.06 363.73 222.22C364.31 223.58 364.13 225.1 364.13 225.26H357.25C357.49 226.54 358.57 227.42 359.77 227.42C361.35 227.42 361.99 226.5 362.15 226.22L363.85 226.98C363.39 228.06 362.05 229.22 359.77 229.22ZM357.25 223.58H362.13C361.93 222.4 361.25 221.44 359.77 221.44C358.49 221.44 357.49 222.34 357.25 223.58ZM366.23 214.88H368.35V229.16H366.23V214.88ZM375.546 227.2C378.466 224.4 382.446 221.56 382.446 219.1C382.446 217.46 381.406 216.3 379.926 216.3C378.786 216.3 377.646 217.12 377.126 218.3L375.266 217.48C376.066 215.64 378.006 214.36 379.926 214.36C382.666 214.36 384.566 216.32 384.566 219.1C384.566 222.16 381.246 224.88 378.546 227.2H384.806V229.06H375.746L375.546 227.2Z" fill="white"/>
<path d="M328.993 300.4V313.3H335.673V315.16H326.873V300.4H328.993ZM341.364 315.22C338.664 315.22 336.764 313.24 336.764 310.44C336.764 307.62 338.664 305.64 341.364 305.64C344.324 305.64 345.264 308.06 345.324 308.22C345.904 309.58 345.724 311.1 345.724 311.26H338.844C339.084 312.54 340.164 313.42 341.364 313.42C342.944 313.42 343.584 312.5 343.744 312.22L345.444 312.98C344.984 314.06 343.644 315.22 341.364 315.22ZM338.844 309.58H343.724C343.524 308.4 342.844 307.44 341.364 307.44C340.084 307.44 339.084 308.34 338.844 309.58ZM356.483 305.64L352.443 315.18H350.603L346.603 305.64H348.923L351.523 312.32L354.143 305.64H356.483ZM361.852 315.22C359.152 315.22 357.252 313.24 357.252 310.44C357.252 307.62 359.152 305.64 361.852 305.64C364.812 305.64 365.752 308.06 365.812 308.22C366.392 309.58 366.212 311.1 366.212 311.26H359.332C359.572 312.54 360.652 313.42 361.852 313.42C363.432 313.42 364.072 312.5 364.232 312.22L365.932 312.98C365.472 314.06 364.132 315.22 361.852 315.22ZM359.332 309.58H364.212C364.012 308.4 363.332 307.44 361.852 307.44C360.572 307.44 359.572 308.34 359.332 309.58ZM368.312 300.88H370.432V315.16H368.312V300.88ZM382.748 300.52V315.06L380.628 315.04V302.78L378.068 304.2L377.188 302.42L380.648 300.52H382.748Z" fill="white"/>
<path d="M565.418 31.86V33.534H561.674V45.144H559.748V33.534H555.986V31.86H565.418ZM569.526 45.234C567.15 45.234 565.458 43.434 565.458 40.914C565.458 38.394 567.15 36.594 569.526 36.594C570.372 36.594 571.308 36.99 571.992 37.8V36.576H573.9V45.162H571.992V44.01C571.308 44.874 570.372 45.234 569.526 45.234ZM567.366 40.914C567.366 42.534 568.284 43.614 569.652 43.614C570.912 43.614 571.992 42.48 572.01 40.914C571.992 39.348 570.912 38.214 569.652 38.214C568.284 38.214 567.366 39.276 567.366 40.914ZM576.221 32.292H578.129V45.144H576.221V32.292ZM584.065 45.198C581.635 45.198 579.925 43.416 579.925 40.896C579.925 38.358 581.635 36.576 584.065 36.576C586.729 36.576 587.575 38.754 587.629 38.898C588.151 40.122 587.989 41.49 587.989 41.634H581.797C582.013 42.786 582.985 43.578 584.065 43.578C585.487 43.578 586.063 42.75 586.207 42.498L587.737 43.182C587.323 44.154 586.117 45.198 584.065 45.198ZM581.797 40.122H586.189C586.009 39.06 585.397 38.196 584.065 38.196C582.913 38.196 582.013 39.006 581.797 40.122ZM595.873 40.428C595.873 39.06 595.171 38.232 593.983 38.232C592.813 38.25 591.913 39.168 591.931 40.428V45.162H590.023V36.576H591.931V37.746C592.471 37.08 593.389 36.594 594.217 36.594C595.837 36.594 597.781 37.656 597.781 40.356V45.162H595.873V40.428ZM600.929 45.162V38.214H599.309V36.558H600.929V33.552H602.837V36.558H604.871V38.214H602.837V45.162H600.929ZM607.857 42.21C608.235 43.146 609.171 43.578 609.747 43.578C610.647 43.578 611.223 43.236 611.223 42.642C611.223 42.102 610.431 41.85 609.549 41.544C608.379 41.13 606.723 40.572 606.723 38.916C606.723 37.404 608.109 36.486 609.873 36.486C610.935 36.486 612.519 37.098 612.951 38.646L611.349 39.222C611.061 38.268 610.287 38.124 609.873 38.124C609.117 38.124 608.631 38.43 608.631 38.916C608.631 39.456 609.369 39.672 610.287 39.996C611.511 40.428 613.131 40.986 613.131 42.624C613.131 44.19 611.745 45.216 609.747 45.216C608.433 45.216 606.993 44.388 606.363 43.074L607.857 42.21ZM623.189 43.398C623.855 43.398 624.629 43.056 625.115 42.516L626.429 43.83C625.691 44.64 624.341 45.216 623.261 45.216C620.705 45.216 618.905 43.416 618.905 40.896C618.905 38.358 620.705 36.558 623.261 36.558C624.395 36.558 625.655 37.134 626.429 37.962L625.115 39.258C624.629 38.718 623.855 38.376 623.189 38.376C621.767 38.376 620.813 39.366 620.813 40.896C620.813 42.408 621.767 43.398 623.189 43.398ZM631.63 45.234C629.254 45.234 627.562 43.434 627.562 40.914C627.562 38.394 629.254 36.594 631.63 36.594C632.476 36.594 633.412 36.99 634.096 37.8V36.576H636.004V45.162H634.096V44.01C633.412 44.874 632.476 45.234 631.63 45.234ZM629.47 40.914C629.47 42.534 630.388 43.614 631.756 43.614C633.016 43.614 634.096 42.48 634.114 40.914C634.096 39.348 633.016 38.214 631.756 38.214C630.388 38.214 629.47 39.276 629.47 40.914ZM642.737 43.596C644.123 43.596 645.023 42.516 645.023 40.878C645.023 39.24 644.123 38.16 642.737 38.16C641.441 38.16 640.379 39.366 640.379 40.878C640.379 42.39 641.441 43.596 642.737 43.596ZM638.453 48.96V36.558H640.361V37.818C641.045 36.918 642.179 36.558 642.845 36.558C645.239 36.558 646.931 38.34 646.931 40.878C646.931 43.434 645.239 45.216 642.845 45.216C642.161 45.216 641.045 44.838 640.361 43.938V48.96H638.453ZM652.653 45.234C650.277 45.234 648.585 43.434 648.585 40.914C648.585 38.394 650.277 36.594 652.653 36.594C653.499 36.594 654.435 36.99 655.119 37.8V36.576H657.027V45.162H655.119V44.01C654.435 44.874 653.499 45.234 652.653 45.234ZM650.493 40.914C650.493 42.534 651.411 43.614 652.779 43.614C654.039 43.614 655.119 42.48 655.137 40.914C655.119 39.348 654.039 38.214 652.779 38.214C651.411 38.214 650.493 39.276 650.493 40.914ZM663.902 45.252C663.29 45.252 662.21 44.982 661.418 43.974V45.18H659.51V32.292H661.418V37.854C662.21 36.81 663.29 36.576 663.92 36.576C666.296 36.576 668.006 38.376 668.006 40.914C668.006 43.452 666.296 45.252 663.902 45.252ZM661.418 40.932C661.418 42.462 662.48 43.65 663.794 43.65C665.18 43.65 666.098 42.57 666.098 40.932C666.098 39.294 665.18 38.232 663.794 38.232C662.48 38.232 661.418 39.438 661.418 40.932ZM669.807 32.292H671.715V45.144H669.807V32.292ZM677.651 45.198C675.221 45.198 673.511 43.416 673.511 40.896C673.511 38.358 675.221 36.576 677.651 36.576C680.315 36.576 681.161 38.754 681.215 38.898C681.737 40.122 681.575 41.49 681.575 41.634H675.383C675.599 42.786 676.571 43.578 677.651 43.578C679.073 43.578 679.649 42.75 679.793 42.498L681.323 43.182C680.909 44.154 679.703 45.198 677.651 45.198ZM675.383 40.122H679.775C679.595 39.06 678.983 38.196 677.651 38.196C676.499 38.196 675.599 39.006 675.383 40.122ZM691.907 43.596C693.239 43.596 694.139 42.534 694.139 40.896C694.139 39.276 693.239 38.196 691.907 38.196C690.575 38.196 689.675 39.258 689.675 40.896C689.675 42.534 690.557 43.596 691.907 43.596ZM687.767 40.896C687.767 38.358 689.477 36.558 691.907 36.558C694.337 36.558 696.047 38.358 696.047 40.896C696.047 43.416 694.337 45.234 691.907 45.234C689.477 45.234 687.767 43.416 687.767 40.896ZM700.656 45.162H698.748V38.232H697.236V36.54H698.748V34.74C698.748 33.156 699.846 31.95 701.43 31.842C702.168 31.788 703.086 32.076 703.518 32.508L702.546 33.912C702.15 33.57 701.898 33.498 701.592 33.534C701.034 33.588 700.656 34.056 700.656 34.74V36.54H703.068V38.232H700.656V45.162ZM709.804 36.558H711.712V45.144H709.804V36.558ZM709.678 33.354C709.678 32.724 710.128 32.274 710.758 32.274C711.388 32.274 711.838 32.724 711.838 33.354C711.838 33.984 711.388 34.434 710.758 34.434C710.128 34.434 709.678 33.984 709.678 33.354ZM720.221 40.428C720.221 39.06 719.519 38.232 718.331 38.232C717.161 38.25 716.261 39.168 716.279 40.428V45.162H714.371V36.576H716.279V37.746C716.819 37.08 717.737 36.594 718.565 36.594C720.185 36.594 722.129 37.656 722.129 40.356V45.162H720.221V40.428ZM730.135 40.428C730.135 39.06 729.433 38.232 728.245 38.232C727.075 38.25 726.175 39.168 726.193 40.428V45.162H724.285V36.576H726.193V37.746C726.733 37.08 727.651 36.594 728.479 36.594C730.099 36.594 732.043 37.656 732.043 40.356V45.162H730.135V40.428ZM738.12 43.596C739.452 43.596 740.352 42.534 740.352 40.896C740.352 39.276 739.452 38.196 738.12 38.196C736.788 38.196 735.888 39.258 735.888 40.896C735.888 42.534 736.77 43.596 738.12 43.596ZM733.98 40.896C733.98 38.358 735.69 36.558 738.12 36.558C740.55 36.558 742.26 38.358 742.26 40.896C742.26 43.416 740.55 45.234 738.12 45.234C735.69 45.234 733.98 43.416 733.98 40.896ZM751.85 36.576L748.214 45.162H746.558L742.958 36.576H745.046L747.386 42.588L749.744 36.576H751.85ZM756.61 45.234C754.234 45.234 752.542 43.434 752.542 40.914C752.542 38.394 754.234 36.594 756.61 36.594C757.456 36.594 758.392 36.99 759.076 37.8V36.576H760.984V45.162H759.076V44.01C758.392 44.874 757.456 45.234 756.61 45.234ZM754.45 40.914C754.45 42.534 755.368 43.614 756.736 43.614C757.996 43.614 759.076 42.48 759.094 40.914C759.076 39.348 757.996 38.214 756.736 38.214C755.368 38.214 754.45 39.276 754.45 40.914ZM764.318 45.162V38.214H762.698V36.558H764.318V33.552H766.226V36.558H768.26V38.214H766.226V45.162H764.318ZM770.22 36.558H772.128V45.144H770.22V36.558ZM770.094 33.354C770.094 32.724 770.544 32.274 771.174 32.274C771.804 32.274 772.254 32.724 772.254 33.354C772.254 33.984 771.804 34.434 771.174 34.434C770.544 34.434 770.094 33.984 770.094 33.354ZM780.637 40.428C780.637 39.06 779.935 38.232 778.747 38.232C777.577 38.25 776.677 39.168 776.695 40.428V45.162H774.787V36.576H776.695V37.746C777.235 37.08 778.153 36.594 778.981 36.594C780.601 36.594 782.545 37.656 782.545 40.356V45.162H780.637V40.428ZM788.658 43.578C790.026 43.578 791.016 42.372 791.016 40.878C791.016 39.42 790.026 38.196 788.658 38.196C787.308 38.196 786.39 39.258 786.39 40.878C786.39 42.516 787.308 43.578 788.658 43.578ZM784.482 40.896C784.482 38.376 786.174 36.558 788.55 36.558C789.432 36.558 790.422 37.008 791.016 37.818V36.558H792.924V44.514C792.924 46.962 791.268 48.978 788.64 48.978C787.2 48.978 785.814 48.384 784.968 46.98L786.48 45.972C787.11 46.89 787.722 47.286 788.64 47.286C790.17 47.286 791.016 46.08 791.016 44.676V43.92C790.35 44.766 789.36 45.216 788.55 45.216C786.174 45.216 784.482 43.416 784.482 40.896ZM804.122 45.252C803.51 45.252 802.43 44.982 801.638 43.974V45.18H799.73V32.292H801.638V37.854C802.43 36.81 803.51 36.576 804.14 36.576C806.516 36.576 808.226 38.376 808.226 40.914C808.226 43.452 806.516 45.252 804.122 45.252ZM801.638 40.932C801.638 42.462 802.7 43.65 804.014 43.65C805.4 43.65 806.318 42.57 806.318 40.932C806.318 39.294 805.4 38.232 804.014 38.232C802.7 38.232 801.638 39.438 801.638 40.932ZM812.273 41.472C812.273 42.786 813.047 43.596 814.181 43.596C815.387 43.596 816.215 42.804 816.197 41.49V36.576H818.123V45.162H816.197V44.172C815.657 44.838 814.775 45.234 813.929 45.234C811.859 45.234 810.365 43.74 810.365 41.544V36.576H812.273V41.472ZM821.766 42.21C822.144 43.146 823.08 43.578 823.656 43.578C824.556 43.578 825.132 43.236 825.132 42.642C825.132 42.102 824.34 41.85 823.458 41.544C822.288 41.13 820.632 40.572 820.632 38.916C820.632 37.404 822.018 36.486 823.782 36.486C824.844 36.486 826.428 37.098 826.86 38.646L825.258 39.222C824.97 38.268 824.196 38.124 823.782 38.124C823.026 38.124 822.54 38.43 822.54 38.916C822.54 39.456 823.278 39.672 824.196 39.996C825.42 40.428 827.04 40.986 827.04 42.624C827.04 44.19 825.654 45.216 823.656 45.216C822.342 45.216 820.902 44.388 820.272 43.074L821.766 42.21ZM829.177 36.558H831.085V45.144H829.177V36.558ZM829.051 33.354C829.051 32.724 829.501 32.274 830.131 32.274C830.761 32.274 831.211 32.724 831.211 33.354C831.211 33.984 830.761 34.434 830.131 34.434C829.501 34.434 829.051 33.984 829.051 33.354ZM839.594 40.428C839.594 39.06 838.892 38.232 837.704 38.232C836.534 38.25 835.634 39.168 835.652 40.428V45.162H833.744V36.576H835.652V37.746C836.192 37.08 837.11 36.594 837.938 36.594C839.558 36.594 841.502 37.656 841.502 40.356V45.162H839.594V40.428ZM847.579 45.198C845.149 45.198 843.439 43.416 843.439 40.896C843.439 38.358 845.149 36.576 847.579 36.576C850.243 36.576 851.089 38.754 851.143 38.898C851.665 40.122 851.503 41.49 851.503 41.634H845.311C845.527 42.786 846.499 43.578 847.579 43.578C849.001 43.578 849.577 42.75 849.721 42.498L851.251 43.182C850.837 44.154 849.631 45.198 847.579 45.198ZM845.311 40.122H849.703C849.523 39.06 848.911 38.196 847.579 38.196C846.427 38.196 845.527 39.006 845.311 40.122ZM854.725 42.21C855.103 43.146 856.039 43.578 856.615 43.578C857.515 43.578 858.091 43.236 858.091 42.642C858.091 42.102 857.299 41.85 856.417 41.544C855.247 41.13 853.591 40.572 853.591 38.916C853.591 37.404 854.977 36.486 856.741 36.486C857.803 36.486 859.387 37.098 859.819 38.646L858.217 39.222C857.929 38.268 857.155 38.124 856.741 38.124C855.985 38.124 855.499 38.43 855.499 38.916C855.499 39.456 856.237 39.672 857.155 39.996C858.379 40.428 859.999 40.986 859.999 42.624C859.999 44.19 858.613 45.216 856.615 45.216C855.301 45.216 853.861 44.388 853.231 43.074L854.725 42.21ZM862.986 42.21C863.364 43.146 864.3 43.578 864.876 43.578C865.776 43.578 866.352 43.236 866.352 42.642C866.352 42.102 865.56 41.85 864.678 41.544C863.508 41.13 861.852 40.572 861.852 38.916C861.852 37.404 863.238 36.486 865.002 36.486C866.064 36.486 867.648 37.098 868.08 38.646L866.478 39.222C866.19 38.268 865.416 38.124 865.002 38.124C864.246 38.124 863.76 38.43 863.76 38.916C863.76 39.456 864.498 39.672 865.416 39.996C866.64 40.428 868.26 40.986 868.26 42.624C868.26 44.19 866.874 45.216 864.876 45.216C863.562 45.216 862.122 44.388 861.492 43.074L862.986 42.21ZM878.479 45.234C876.103 45.234 874.411 43.434 874.411 40.914C874.411 38.394 876.103 36.594 878.479 36.594C879.325 36.594 880.261 36.99 880.945 37.8V36.576H882.853V45.162H880.945V44.01C880.261 44.874 879.325 45.234 878.479 45.234ZM876.319 40.914C876.319 42.534 877.237 43.614 878.605 43.614C879.865 43.614 880.945 42.48 880.963 40.914C880.945 39.348 879.865 38.214 878.605 38.214C877.237 38.214 876.319 39.276 876.319 40.914ZM891.045 40.428C891.045 39.06 890.343 38.232 889.155 38.232C887.985 38.25 887.085 39.168 887.103 40.428V45.162H885.195V36.576H887.103V37.746C887.643 37.08 888.561 36.594 889.389 36.594C891.009 36.594 892.953 37.656 892.953 40.356V45.162H891.045V40.428ZM898.976 45.234C896.6 45.234 894.89 43.434 894.89 40.896C894.89 38.358 896.6 36.558 898.976 36.558C899.678 36.558 900.74 36.864 901.478 37.836V32.292H903.386V45.162H901.478V43.956C900.722 44.874 899.678 45.234 898.976 45.234ZM896.798 40.914C896.798 42.552 897.716 43.632 899.102 43.632C900.398 43.632 901.478 42.444 901.478 40.914C901.478 39.402 900.398 38.196 899.102 38.196C897.716 38.196 896.798 39.276 896.798 40.914ZM913.755 43.398C914.421 43.398 915.195 43.056 915.681 42.516L916.995 43.83C916.257 44.64 914.907 45.216 913.827 45.216C911.271 45.216 909.471 43.416 909.471 40.896C909.471 38.358 911.271 36.558 913.827 36.558C914.961 36.558 916.221 37.134 916.995 37.962L915.681 39.258C915.195 38.718 914.421 38.376 913.755 38.376C912.333 38.376 911.379 39.366 911.379 40.896C911.379 42.408 912.333 43.398 913.755 43.398ZM918.556 45.162V36.576H920.464V37.836C921.04 37.026 922.084 36.486 923.092 36.54V38.304C921.562 38.232 920.464 39.582 920.464 40.896V45.162H918.556ZM928.21 45.198C925.78 45.198 924.07 43.416 924.07 40.896C924.07 38.358 925.78 36.576 928.21 36.576C930.874 36.576 931.72 38.754 931.774 38.898C932.296 40.122 932.134 41.49 932.134 41.634H925.942C926.158 42.786 927.13 43.578 928.21 43.578C929.632 43.578 930.208 42.75 930.352 42.498L931.882 43.182C931.468 44.154 930.262 45.198 928.21 45.198ZM925.942 40.122H930.334C930.154 39.06 929.542 38.196 928.21 38.196C927.058 38.196 926.158 39.006 925.942 40.122ZM937.964 45.234C935.588 45.234 933.896 43.434 933.896 40.914C933.896 38.394 935.588 36.594 937.964 36.594C938.81 36.594 939.746 36.99 940.43 37.8V36.576H942.338V45.162H940.43V44.01C939.746 44.874 938.81 45.234 937.964 45.234ZM935.804 40.914C935.804 42.534 936.722 43.614 938.09 43.614C939.35 43.614 940.43 42.48 940.448 40.914C940.43 39.348 939.35 38.214 938.09 38.214C936.722 38.214 935.804 39.276 935.804 40.914ZM945.671 45.162V38.214H944.051V36.558H945.671V33.552H947.579V36.558H949.613V38.214H947.579V45.162H945.671ZM951.573 36.558H953.481V45.144H951.573V36.558ZM951.447 33.354C951.447 32.724 951.897 32.274 952.527 32.274C953.157 32.274 953.607 32.724 953.607 33.354C953.607 33.984 953.157 34.434 952.527 34.434C951.897 34.434 951.447 33.984 951.447 33.354ZM961.99 40.428C961.99 39.06 961.288 38.232 960.1 38.232C958.93 38.25 958.03 39.168 958.048 40.428V45.162H956.14V36.576H958.048V37.746C958.588 37.08 959.506 36.594 960.334 36.594C961.954 36.594 963.898 37.656 963.898 40.356V45.162H961.99V40.428ZM970.011 43.578C971.379 43.578 972.369 42.372 972.369 40.878C972.369 39.42 971.379 38.196 970.011 38.196C968.661 38.196 967.743 39.258 967.743 40.878C967.743 42.516 968.661 43.578 970.011 43.578ZM965.835 40.896C965.835 38.376 967.527 36.558 969.903 36.558C970.785 36.558 971.775 37.008 972.369 37.818V36.558H974.277V44.514C974.277 46.962 972.621 48.978 969.993 48.978C968.553 48.978 967.167 48.384 966.321 46.98L967.833 45.972C968.463 46.89 969.075 47.286 969.993 47.286C971.523 47.286 972.369 46.08 972.369 44.676V43.92C971.703 44.766 970.713 45.216 969.903 45.216C967.527 45.216 965.835 43.416 965.835 40.896ZM984.864 43.596C986.196 43.596 987.096 42.534 987.096 40.896C987.096 39.276 986.196 38.196 984.864 38.196C983.532 38.196 982.632 39.258 982.632 40.896C982.632 42.534 983.514 43.596 984.864 43.596ZM980.724 40.896C980.724 38.358 982.434 36.558 984.864 36.558C987.294 36.558 989.004 38.358 989.004 40.896C989.004 43.416 987.294 45.234 984.864 45.234C982.434 45.234 980.724 43.416 980.724 40.896ZM995.337 43.596C996.723 43.596 997.623 42.516 997.623 40.878C997.623 39.24 996.723 38.16 995.337 38.16C994.041 38.16 992.979 39.366 992.979 40.878C992.979 42.39 994.041 43.596 995.337 43.596ZM991.053 48.96V36.558H992.961V37.818C993.645 36.918 994.779 36.558 995.445 36.558C997.839 36.558 999.531 38.34 999.531 40.878C999.531 43.434 997.839 45.216 995.445 45.216C994.761 45.216 993.645 44.838 992.961 43.938V48.96H991.053ZM1005.85 43.596C1007.23 43.596 1008.13 42.516 1008.13 40.878C1008.13 39.24 1007.23 38.16 1005.85 38.16C1004.55 38.16 1003.49 39.366 1003.49 40.878C1003.49 42.39 1004.55 43.596 1005.85 43.596ZM1001.56 48.96V36.558H1003.47V37.818C1004.16 36.918 1005.29 36.558 1005.96 36.558C1008.35 36.558 1010.04 38.34 1010.04 40.878C1010.04 43.434 1008.35 45.216 1005.96 45.216C1005.27 45.216 1004.16 44.838 1003.47 43.938V48.96H1001.56ZM1015.84 43.596C1017.17 43.596 1018.07 42.534 1018.07 40.896C1018.07 39.276 1017.17 38.196 1015.84 38.196C1014.5 38.196 1013.6 39.258 1013.6 40.896C1013.6 42.534 1014.49 43.596 1015.84 43.596ZM1011.7 40.896C1011.7 38.358 1013.41 36.558 1015.84 36.558C1018.27 36.558 1019.98 38.358 1019.98 40.896C1019.98 43.416 1018.27 45.234 1015.84 45.234C1013.41 45.234 1011.7 43.416 1011.7 40.896ZM1021.83 45.162V36.576H1023.74V37.836C1024.31 37.026 1025.36 36.486 1026.36 36.54V38.304C1024.83 38.232 1023.74 39.582 1023.74 40.896V45.162H1021.83ZM1029.48 45.162V38.214H1027.86V36.558H1029.48V33.552H1031.39V36.558H1033.43V38.214H1031.39V45.162H1029.48ZM1037.15 41.472C1037.15 42.786 1037.92 43.596 1039.06 43.596C1040.26 43.596 1041.09 42.804 1041.07 41.49V36.576H1043V45.162H1041.07V44.172C1040.53 44.838 1039.65 45.234 1038.81 45.234C1036.74 45.234 1035.24 43.74 1035.24 41.544V36.576H1037.15V41.472ZM1051.3 40.428C1051.3 39.06 1050.6 38.232 1049.41 38.232C1048.24 38.25 1047.34 39.168 1047.36 40.428V45.162H1045.45V36.576H1047.36V37.746C1047.9 37.08 1048.82 36.594 1049.65 36.594C1051.27 36.594 1053.21 37.656 1053.21 40.356V45.162H1051.3V40.428ZM1055.64 36.558H1057.54V45.144H1055.64V36.558ZM1055.51 33.354C1055.51 32.724 1055.96 32.274 1056.59 32.274C1057.22 32.274 1057.67 32.724 1057.67 33.354C1057.67 33.984 1057.22 34.434 1056.59 34.434C1055.96 34.434 1055.51 33.984 1055.51 33.354ZM1061.28 45.162V38.214H1059.66V36.558H1061.28V33.552H1063.19V36.558H1065.22V38.214H1063.19V45.162H1061.28ZM1067.18 36.558H1069.09V45.144H1067.18V36.558ZM1067.06 33.354C1067.06 32.724 1067.51 32.274 1068.14 32.274C1068.77 32.274 1069.22 32.724 1069.22 33.354C1069.22 33.984 1068.77 34.434 1068.14 34.434C1067.51 34.434 1067.06 33.984 1067.06 33.354ZM1075.55 45.198C1073.12 45.198 1071.41 43.416 1071.41 40.896C1071.41 38.358 1073.12 36.576 1075.55 36.576C1078.21 36.576 1079.06 38.754 1079.11 38.898C1079.64 40.122 1079.47 41.49 1079.47 41.634H1073.28C1073.5 42.786 1074.47 43.578 1075.55 43.578C1076.97 43.578 1077.55 42.75 1077.69 42.498L1079.22 43.182C1078.81 44.154 1077.6 45.198 1075.55 45.198ZM1073.28 40.122H1077.67C1077.49 39.06 1076.88 38.196 1075.55 38.196C1074.4 38.196 1073.5 39.006 1073.28 40.122ZM1082.7 42.21C1083.07 43.146 1084.01 43.578 1084.59 43.578C1085.49 43.578 1086.06 43.236 1086.06 42.642C1086.06 42.102 1085.27 41.85 1084.39 41.544C1083.22 41.13 1081.56 40.572 1081.56 38.916C1081.56 37.404 1082.95 36.486 1084.71 36.486C1085.77 36.486 1087.36 37.098 1087.79 38.646L1086.19 39.222C1085.9 38.268 1085.13 38.124 1084.71 38.124C1083.96 38.124 1083.47 38.43 1083.47 38.916C1083.47 39.456 1084.21 39.672 1085.13 39.996C1086.35 40.428 1087.97 40.986 1087.97 42.624C1087.97 44.19 1086.58 45.216 1084.59 45.216C1083.27 45.216 1081.83 44.388 1081.2 43.074L1082.7 42.21ZM1043.32 65.576L1040.8 74.162H1039.03L1037.34 68.618L1035.68 74.162H1033.92L1031.35 65.576H1033.33L1034.82 71.066L1036.37 65.576H1038.28L1039.88 71.066L1041.34 65.576H1043.32ZM1045.21 65.558H1047.12V74.144H1045.21V65.558ZM1045.09 62.354C1045.09 61.724 1045.54 61.274 1046.17 61.274C1046.8 61.274 1047.25 61.724 1047.25 62.354C1047.25 62.984 1046.8 63.434 1046.17 63.434C1045.54 63.434 1045.09 62.984 1045.09 62.354ZM1050.86 74.162V67.214H1049.24V65.558H1050.86V62.552H1052.77V65.558H1054.8V67.214H1052.77V74.162H1050.86ZM1062.48 69.464C1062.48 68.042 1061.8 67.142 1060.77 67.142C1059.59 67.142 1058.67 68.258 1058.67 69.644V74H1056.76V61.292H1058.67V66.584C1059.19 65.918 1060.04 65.486 1060.77 65.486C1062.9 65.486 1064.41 67.07 1064.41 69.248V74H1062.48V69.464ZM1078.3 60.86L1083.23 74.144H1081.2L1079.87 70.526H1074.41L1073.03 74.144H1070.99L1076.01 60.86H1078.3ZM1075.02 68.87H1079.24L1077.17 63.272L1075.02 68.87ZM1085.64 60.86H1087.55V74.144H1085.64V60.86Z" fill="#27272A"/>
<path d="M524 9.50005L519 7.1133L519 12.8868L524 10.5001L524 9.50005ZM1089 10.5C1089.28 10.5 1089.5 10.2761 1089.5 10C1089.5 9.72386 1089.28 9.5 1089 9.5L1089 10.5ZM523.5 10.5001L1089 10.5L1089 9.5L523.5 9.50005L523.5 10.5001Z" fill="#71717A"/>
<path d="M705.709 121.86V123.534H701.965V135.144H700.039V123.534H696.277V121.86H705.709ZM709.817 135.234C707.441 135.234 705.749 133.434 705.749 130.914C705.749 128.394 707.441 126.594 709.817 126.594C710.663 126.594 711.599 126.99 712.283 127.8V126.576H714.191V135.162H712.283V134.01C711.599 134.874 710.663 135.234 709.817 135.234ZM707.657 130.914C707.657 132.534 708.575 133.614 709.943 133.614C711.203 133.614 712.283 132.48 712.301 130.914C712.283 129.348 711.203 128.214 709.943 128.214C708.575 128.214 707.657 129.276 707.657 130.914ZM716.512 122.292H718.42V135.144H716.512V122.292ZM724.356 135.198C721.926 135.198 720.216 133.416 720.216 130.896C720.216 128.358 721.926 126.576 724.356 126.576C727.02 126.576 727.866 128.754 727.92 128.898C728.442 130.122 728.28 131.49 728.28 131.634H722.088C722.304 132.786 723.276 133.578 724.356 133.578C725.778 133.578 726.354 132.75 726.498 132.498L728.028 133.182C727.614 134.154 726.408 135.198 724.356 135.198ZM722.088 130.122H726.48C726.3 129.06 725.688 128.196 724.356 128.196C723.204 128.196 722.304 129.006 722.088 130.122ZM736.164 130.428C736.164 129.06 735.462 128.232 734.274 128.232C733.104 128.25 732.204 129.168 732.222 130.428V135.162H730.314V126.576H732.222V127.746C732.762 127.08 733.68 126.594 734.508 126.594C736.128 126.594 738.072 127.656 738.072 130.356V135.162H736.164V130.428ZM741.22 135.162V128.214H739.6V126.558H741.22V123.552H743.128V126.558H745.162V128.214H743.128V135.162H741.22ZM748.148 132.21C748.526 133.146 749.462 133.578 750.038 133.578C750.938 133.578 751.514 133.236 751.514 132.642C751.514 132.102 750.722 131.85 749.84 131.544C748.67 131.13 747.014 130.572 747.014 128.916C747.014 127.404 748.4 126.486 750.164 126.486C751.226 126.486 752.81 127.098 753.242 128.646L751.64 129.222C751.352 128.268 750.578 128.124 750.164 128.124C749.408 128.124 748.922 128.43 748.922 128.916C748.922 129.456 749.66 129.672 750.578 129.996C751.802 130.428 753.422 130.986 753.422 132.624C753.422 134.19 752.036 135.216 750.038 135.216C748.724 135.216 747.284 134.388 746.654 133.074L748.148 132.21ZM763.48 133.398C764.146 133.398 764.92 133.056 765.406 132.516L766.72 133.83C765.982 134.64 764.632 135.216 763.552 135.216C760.996 135.216 759.196 133.416 759.196 130.896C759.196 128.358 760.996 126.558 763.552 126.558C764.686 126.558 765.946 127.134 766.72 127.962L765.406 129.258C764.92 128.718 764.146 128.376 763.48 128.376C762.058 128.376 761.104 129.366 761.104 130.896C761.104 132.408 762.058 133.398 763.48 133.398ZM771.921 135.234C769.545 135.234 767.853 133.434 767.853 130.914C767.853 128.394 769.545 126.594 771.921 126.594C772.767 126.594 773.703 126.99 774.387 127.8V126.576H776.295V135.162H774.387V134.01C773.703 134.874 772.767 135.234 771.921 135.234ZM769.761 130.914C769.761 132.534 770.679 133.614 772.047 133.614C773.307 133.614 774.387 132.48 774.405 130.914C774.387 129.348 773.307 128.214 772.047 128.214C770.679 128.214 769.761 129.276 769.761 130.914ZM783.028 133.596C784.414 133.596 785.314 132.516 785.314 130.878C785.314 129.24 784.414 128.16 783.028 128.16C781.732 128.16 780.67 129.366 780.67 130.878C780.67 132.39 781.732 133.596 783.028 133.596ZM778.744 138.96V126.558H780.652V127.818C781.336 126.918 782.47 126.558 783.136 126.558C785.53 126.558 787.222 128.34 787.222 130.878C787.222 133.434 785.53 135.216 783.136 135.216C782.452 135.216 781.336 134.838 780.652 133.938V138.96H778.744ZM792.944 135.234C790.568 135.234 788.876 133.434 788.876 130.914C788.876 128.394 790.568 126.594 792.944 126.594C793.79 126.594 794.726 126.99 795.41 127.8V126.576H797.318V135.162H795.41V134.01C794.726 134.874 793.79 135.234 792.944 135.234ZM790.784 130.914C790.784 132.534 791.702 133.614 793.07 133.614C794.33 133.614 795.41 132.48 795.428 130.914C795.41 129.348 794.33 128.214 793.07 128.214C791.702 128.214 790.784 129.276 790.784 130.914ZM804.193 135.252C803.581 135.252 802.501 134.982 801.709 133.974V135.18H799.801V122.292H801.709V127.854C802.501 126.81 803.581 126.576 804.211 126.576C806.587 126.576 808.297 128.376 808.297 130.914C808.297 133.452 806.587 135.252 804.193 135.252ZM801.709 130.932C801.709 132.462 802.771 133.65 804.085 133.65C805.471 133.65 806.389 132.57 806.389 130.932C806.389 129.294 805.471 128.232 804.085 128.232C802.771 128.232 801.709 129.438 801.709 130.932ZM810.098 122.292H812.006V135.144H810.098V122.292ZM817.942 135.198C815.512 135.198 813.802 133.416 813.802 130.896C813.802 128.358 815.512 126.576 817.942 126.576C820.606 126.576 821.452 128.754 821.506 128.898C822.028 130.122 821.866 131.49 821.866 131.634H815.674C815.89 132.786 816.862 133.578 817.942 133.578C819.364 133.578 819.94 132.75 820.084 132.498L821.614 133.182C821.2 134.154 819.994 135.198 817.942 135.198ZM815.674 130.122H820.066C819.886 129.06 819.274 128.196 817.942 128.196C816.79 128.196 815.89 129.006 815.674 130.122ZM832.198 133.596C833.53 133.596 834.43 132.534 834.43 130.896C834.43 129.276 833.53 128.196 832.198 128.196C830.866 128.196 829.966 129.258 829.966 130.896C829.966 132.534 830.848 133.596 832.198 133.596ZM828.058 130.896C828.058 128.358 829.768 126.558 832.198 126.558C834.628 126.558 836.338 128.358 836.338 130.896C836.338 133.416 834.628 135.234 832.198 135.234C829.768 135.234 828.058 133.416 828.058 130.896ZM840.947 135.162H839.039V128.232H837.527V126.54H839.039V124.74C839.039 123.156 840.137 121.95 841.721 121.842C842.459 121.788 843.377 122.076 843.809 122.508L842.837 123.912C842.441 123.57 842.189 123.498 841.883 123.534C841.325 123.588 840.947 124.056 840.947 124.74V126.54H843.359V128.232H840.947V135.162ZM851.031 135.162V128.214H849.411V126.558H851.031V123.552H852.939V126.558H854.973V128.214H852.939V135.162H851.031ZM857.05 135.162V126.576H858.958V127.836C859.534 127.026 860.578 126.486 861.586 126.54V128.304C860.056 128.232 858.958 129.582 858.958 130.896V135.162H857.05ZM866.632 135.234C864.256 135.234 862.564 133.434 862.564 130.914C862.564 128.394 864.256 126.594 866.632 126.594C867.478 126.594 868.414 126.99 869.098 127.8V126.576H871.006V135.162H869.098V134.01C868.414 134.874 867.478 135.234 866.632 135.234ZM864.472 130.914C864.472 132.534 865.39 133.614 866.758 133.614C868.018 133.614 869.098 132.48 869.116 130.914C869.098 129.348 868.018 128.214 866.758 128.214C865.39 128.214 864.472 129.276 864.472 130.914ZM879.197 130.428C879.197 129.06 878.495 128.232 877.307 128.232C876.137 128.25 875.237 129.168 875.255 130.428V135.162H873.347V126.576H875.255V127.746C875.795 127.08 876.713 126.594 877.541 126.594C879.161 126.594 881.105 127.656 881.105 130.356V135.162H879.197V130.428ZM884.572 132.21C884.95 133.146 885.886 133.578 886.462 133.578C887.362 133.578 887.938 133.236 887.938 132.642C887.938 132.102 887.146 131.85 886.264 131.544C885.094 131.13 883.438 130.572 883.438 128.916C883.438 127.404 884.824 126.486 886.588 126.486C887.65 126.486 889.234 127.098 889.666 128.646L888.064 129.222C887.776 128.268 887.002 128.124 886.588 128.124C885.832 128.124 885.346 128.43 885.346 128.916C885.346 129.456 886.084 129.672 887.002 129.996C888.226 130.428 889.846 130.986 889.846 132.624C889.846 134.19 888.46 135.216 886.462 135.216C885.148 135.216 883.708 134.388 883.078 133.074L884.572 132.21ZM895.053 135.162H893.145V128.232H891.633V126.54H893.145V124.74C893.145 123.156 894.243 121.95 895.827 121.842C896.565 121.788 897.483 122.076 897.915 122.508L896.943 123.912C896.547 123.57 896.295 123.498 895.989 123.534C895.431 123.588 895.053 124.056 895.053 124.74V126.54H897.465V128.232H895.053V135.162ZM902.704 133.596C904.036 133.596 904.936 132.534 904.936 130.896C904.936 129.276 904.036 128.196 902.704 128.196C901.372 128.196 900.472 129.258 900.472 130.896C900.472 132.534 901.354 133.596 902.704 133.596ZM898.564 130.896C898.564 128.358 900.274 126.558 902.704 126.558C905.134 126.558 906.844 128.358 906.844 130.896C906.844 133.416 905.134 135.234 902.704 135.234C900.274 135.234 898.564 133.416 898.564 130.896ZM908.695 135.162V126.576H910.603V127.836C911.179 127.026 912.223 126.486 913.231 126.54V128.304C911.701 128.232 910.603 129.582 910.603 130.896V135.162H908.695ZM926.179 130.284C926.179 129.06 925.513 128.25 924.541 128.25C923.443 128.25 922.705 129.096 922.705 130.194V135.162H920.779V130.284C920.779 129.06 920.131 128.25 919.177 128.25C918.079 128.25 917.305 129.186 917.305 130.392V135.162H915.397V126.576H917.305V127.746C917.809 127.062 918.547 126.594 919.357 126.594C920.383 126.594 921.391 127.242 921.895 128.142C922.489 127.242 923.641 126.594 924.667 126.594C926.701 126.594 928.105 128.106 928.105 130.212V135.162H926.179V130.284ZM930.69 126.558H932.598V135.144H930.69V126.558ZM930.564 123.354C930.564 122.724 931.014 122.274 931.644 122.274C932.274 122.274 932.724 122.724 932.724 123.354C932.724 123.984 932.274 124.434 931.644 124.434C931.014 124.434 930.564 123.984 930.564 123.354ZM941.107 130.428C941.107 129.06 940.405 128.232 939.217 128.232C938.047 128.25 937.147 129.168 937.165 130.428V135.162H935.257V126.576H937.165V127.746C937.705 127.08 938.623 126.594 939.451 126.594C941.071 126.594 943.015 127.656 943.015 130.356V135.162H941.107V130.428ZM949.128 133.578C950.496 133.578 951.486 132.372 951.486 130.878C951.486 129.42 950.496 128.196 949.128 128.196C947.778 128.196 946.86 129.258 946.86 130.878C946.86 132.516 947.778 133.578 949.128 133.578ZM944.952 130.896C944.952 128.376 946.644 126.558 949.02 126.558C949.902 126.558 950.892 127.008 951.486 127.818V126.558H953.394V134.514C953.394 136.962 951.738 138.978 949.11 138.978C947.67 138.978 946.284 138.384 945.438 136.98L946.95 135.972C947.58 136.89 948.192 137.286 949.11 137.286C950.64 137.286 951.486 136.08 951.486 134.676V133.92C950.82 134.766 949.83 135.216 949.02 135.216C946.644 135.216 944.952 133.416 944.952 130.896ZM971.721 126.576L969.201 135.162H967.437L965.745 129.618L964.089 135.162H962.325L959.751 126.576H961.731L963.225 132.066L964.773 126.576H966.681L968.283 132.066L969.741 126.576H971.721ZM976.55 133.596C977.882 133.596 978.782 132.534 978.782 130.896C978.782 129.276 977.882 128.196 976.55 128.196C975.218 128.196 974.318 129.258 974.318 130.896C974.318 132.534 975.2 133.596 976.55 133.596ZM972.41 130.896C972.41 128.358 974.12 126.558 976.55 126.558C978.98 126.558 980.689 128.358 980.689 130.896C980.689 133.416 978.98 135.234 976.55 135.234C974.12 135.234 972.41 133.416 972.41 130.896ZM982.54 135.162V126.576H984.448V127.836C985.024 127.026 986.068 126.486 987.076 126.54V128.304C985.546 128.232 984.448 129.582 984.448 130.896V135.162H982.54ZM991.115 122.292V130.122L994.175 126.576H996.749L993.401 130.41L996.677 135.162H994.355L992.033 131.832L991.115 132.912V135.162H989.207V122.292H991.115ZM1004.14 135.162V128.214H1002.52V126.558H1004.14V123.552H1006.04V126.558H1008.08V128.214H1006.04V135.162H1004.14ZM1015.76 130.464C1015.76 129.042 1015.08 128.142 1014.05 128.142C1012.86 128.142 1011.95 129.258 1011.95 130.644V135H1010.04V122.292H1011.95V127.584C1012.47 126.918 1013.31 126.486 1014.05 126.486C1016.18 126.486 1017.69 128.07 1017.69 130.248V135H1015.76V130.464ZM1019.91 135.162V126.576H1021.82V127.836C1022.4 127.026 1023.44 126.486 1024.45 126.54V128.304C1022.92 128.232 1021.82 129.582 1021.82 130.896V135.162H1019.91ZM1029.57 133.596C1030.9 133.596 1031.8 132.534 1031.8 130.896C1031.8 129.276 1030.9 128.196 1029.57 128.196C1028.23 128.196 1027.33 129.258 1027.33 130.896C1027.33 132.534 1028.22 133.596 1029.57 133.596ZM1025.43 130.896C1025.43 128.358 1027.14 126.558 1029.57 126.558C1032 126.558 1033.71 128.358 1033.71 130.896C1033.71 133.416 1032 135.234 1029.57 135.234C1027.14 135.234 1025.43 133.416 1025.43 130.896ZM1037.75 131.472C1037.75 132.786 1038.52 133.596 1039.66 133.596C1040.86 133.596 1041.69 132.804 1041.67 131.49V126.576H1043.6V135.162H1041.67V134.172C1041.13 134.838 1040.25 135.234 1039.4 135.234C1037.33 135.234 1035.84 133.74 1035.84 131.544V126.576H1037.75V131.472ZM1049.89 133.578C1051.25 133.578 1052.24 132.372 1052.24 130.878C1052.24 129.42 1051.25 128.196 1049.89 128.196C1048.54 128.196 1047.62 129.258 1047.62 130.878C1047.62 132.516 1048.54 133.578 1049.89 133.578ZM1045.71 130.896C1045.71 128.376 1047.4 126.558 1049.78 126.558C1050.66 126.558 1051.65 127.008 1052.24 127.818V126.558H1054.15V134.514C1054.15 136.962 1052.5 138.978 1049.87 138.978C1048.43 138.978 1047.04 138.384 1046.2 136.98L1047.71 135.972C1048.34 136.89 1048.95 137.286 1049.87 137.286C1051.4 137.286 1052.24 136.08 1052.24 134.676V133.92C1051.58 134.766 1050.59 135.216 1049.78 135.216C1047.4 135.216 1045.71 133.416 1045.71 130.896ZM1062.48 130.464C1062.48 129.042 1061.8 128.142 1060.77 128.142C1059.59 128.142 1058.67 129.258 1058.67 130.644V135H1056.76V122.292H1058.67V127.584C1059.19 126.918 1060.04 126.486 1060.77 126.486C1062.9 126.486 1064.41 128.07 1064.41 130.248V135H1062.48V130.464ZM1078.3 121.86L1083.23 135.144H1081.2L1079.87 131.526H1074.41L1073.03 135.144H1070.99L1076.01 121.86H1078.3ZM1075.02 129.87H1079.24L1077.17 124.272L1075.02 129.87ZM1085.64 121.86H1087.55V135.144H1085.64V121.86Z" fill="#27272A"/>
<path d="M575 95.5L570 93.1132L570 98.8868L575 96.5L575 95.5ZM1089 96.5001C1089.28 96.5001 1089.5 96.2762 1089.5 96.0001C1089.5 95.7239 1089.28 95.5001 1089 95.5001L1089 96.5001ZM574.5 96.5L1089 96.5001L1089 95.5001L574.5 95.5L574.5 96.5Z" fill="#71717A"/>
<path d="M745.453 207.86V209.534H741.709V221.144H739.783V209.534H736.021V207.86H745.453ZM749.561 221.234C747.185 221.234 745.493 219.434 745.493 216.914C745.493 214.394 747.185 212.594 749.561 212.594C750.407 212.594 751.343 212.99 752.027 213.8V212.576H753.935V221.162H752.027V220.01C751.343 220.874 750.407 221.234 749.561 221.234ZM747.401 216.914C747.401 218.534 748.319 219.614 749.687 219.614C750.947 219.614 752.027 218.48 752.045 216.914C752.027 215.348 750.947 214.214 749.687 214.214C748.319 214.214 747.401 215.276 747.401 216.914ZM756.256 208.292H758.164V221.144H756.256V208.292ZM764.1 221.198C761.67 221.198 759.96 219.416 759.96 216.896C759.96 214.358 761.67 212.576 764.1 212.576C766.764 212.576 767.61 214.754 767.664 214.898C768.186 216.122 768.024 217.49 768.024 217.634H761.832C762.048 218.786 763.02 219.578 764.1 219.578C765.522 219.578 766.098 218.75 766.242 218.498L767.772 219.182C767.358 220.154 766.152 221.198 764.1 221.198ZM761.832 216.122H766.224C766.044 215.06 765.432 214.196 764.1 214.196C762.948 214.196 762.048 215.006 761.832 216.122ZM775.908 216.428C775.908 215.06 775.206 214.232 774.018 214.232C772.848 214.25 771.948 215.168 771.966 216.428V221.162H770.058V212.576H771.966V213.746C772.506 213.08 773.424 212.594 774.252 212.594C775.872 212.594 777.816 213.656 777.816 216.356V221.162H775.908V216.428ZM780.964 221.162V214.214H779.344V212.558H780.964V209.552H782.872V212.558H784.906V214.214H782.872V221.162H780.964ZM787.893 218.21C788.271 219.146 789.207 219.578 789.783 219.578C790.683 219.578 791.259 219.236 791.259 218.642C791.259 218.102 790.467 217.85 789.585 217.544C788.415 217.13 786.759 216.572 786.759 214.916C786.759 213.404 788.145 212.486 789.909 212.486C790.971 212.486 792.555 213.098 792.987 214.646L791.385 215.222C791.097 214.268 790.323 214.124 789.909 214.124C789.153 214.124 788.667 214.43 788.667 214.916C788.667 215.456 789.405 215.672 790.323 215.996C791.547 216.428 793.167 216.986 793.167 218.624C793.167 220.19 791.781 221.216 789.783 221.216C788.469 221.216 787.029 220.388 786.399 219.074L787.893 218.21ZM803.224 219.398C803.89 219.398 804.664 219.056 805.15 218.516L806.464 219.83C805.726 220.64 804.376 221.216 803.296 221.216C800.74 221.216 798.94 219.416 798.94 216.896C798.94 214.358 800.74 212.558 803.296 212.558C804.43 212.558 805.69 213.134 806.464 213.962L805.15 215.258C804.664 214.718 803.89 214.376 803.224 214.376C801.802 214.376 800.848 215.366 800.848 216.896C800.848 218.408 801.802 219.398 803.224 219.398ZM811.665 221.234C809.289 221.234 807.597 219.434 807.597 216.914C807.597 214.394 809.289 212.594 811.665 212.594C812.511 212.594 813.447 212.99 814.131 213.8V212.576H816.039V221.162H814.131V220.01C813.447 220.874 812.511 221.234 811.665 221.234ZM809.505 216.914C809.505 218.534 810.423 219.614 811.791 219.614C813.051 219.614 814.131 218.48 814.149 216.914C814.131 215.348 813.051 214.214 811.791 214.214C810.423 214.214 809.505 215.276 809.505 216.914ZM822.772 219.596C824.158 219.596 825.058 218.516 825.058 216.878C825.058 215.24 824.158 214.16 822.772 214.16C821.476 214.16 820.414 215.366 820.414 216.878C820.414 218.39 821.476 219.596 822.772 219.596ZM818.488 224.96V212.558H820.396V213.818C821.08 212.918 822.214 212.558 822.88 212.558C825.274 212.558 826.966 214.34 826.966 216.878C826.966 219.434 825.274 221.216 822.88 221.216C822.196 221.216 821.08 220.838 820.396 219.938V224.96H818.488ZM832.688 221.234C830.312 221.234 828.62 219.434 828.62 216.914C828.62 214.394 830.312 212.594 832.688 212.594C833.534 212.594 834.47 212.99 835.154 213.8V212.576H837.062V221.162H835.154V220.01C834.47 220.874 833.534 221.234 832.688 221.234ZM830.528 216.914C830.528 218.534 831.446 219.614 832.814 219.614C834.074 219.614 835.154 218.48 835.172 216.914C835.154 215.348 834.074 214.214 832.814 214.214C831.446 214.214 830.528 215.276 830.528 216.914ZM843.937 221.252C843.325 221.252 842.245 220.982 841.453 219.974V221.18H839.545V208.292H841.453V213.854C842.245 212.81 843.325 212.576 843.955 212.576C846.331 212.576 848.041 214.376 848.041 216.914C848.041 219.452 846.331 221.252 843.937 221.252ZM841.453 216.932C841.453 218.462 842.515 219.65 843.829 219.65C845.215 219.65 846.133 218.57 846.133 216.932C846.133 215.294 845.215 214.232 843.829 214.232C842.515 214.232 841.453 215.438 841.453 216.932ZM849.842 208.292H851.75V221.144H849.842V208.292ZM857.686 221.198C855.256 221.198 853.546 219.416 853.546 216.896C853.546 214.358 855.256 212.576 857.686 212.576C860.35 212.576 861.196 214.754 861.25 214.898C861.772 216.122 861.61 217.49 861.61 217.634H855.418C855.634 218.786 856.606 219.578 857.686 219.578C859.108 219.578 859.684 218.75 859.828 218.498L861.358 219.182C860.944 220.154 859.738 221.198 857.686 221.198ZM855.418 216.122H859.81C859.63 215.06 859.018 214.196 857.686 214.196C856.534 214.196 855.634 215.006 855.418 216.122ZM871.942 219.596C873.274 219.596 874.174 218.534 874.174 216.896C874.174 215.276 873.274 214.196 871.942 214.196C870.61 214.196 869.71 215.258 869.71 216.896C869.71 218.534 870.592 219.596 871.942 219.596ZM867.802 216.896C867.802 214.358 869.512 212.558 871.942 212.558C874.372 212.558 876.082 214.358 876.082 216.896C876.082 219.416 874.372 221.234 871.942 221.234C869.512 221.234 867.802 219.416 867.802 216.896ZM880.692 221.162H878.784V214.232H877.272V212.54H878.784V210.74C878.784 209.156 879.882 207.95 881.466 207.842C882.204 207.788 883.122 208.076 883.554 208.508L882.582 209.912C882.186 209.57 881.934 209.498 881.628 209.534C881.07 209.588 880.692 210.056 880.692 210.74V212.54H883.104V214.232H880.692V221.162ZM893.421 221.234C891.045 221.234 889.353 219.434 889.353 216.914C889.353 214.394 891.045 212.594 893.421 212.594C894.267 212.594 895.203 212.99 895.887 213.8V212.576H897.795V221.162H895.887V220.01C895.203 220.874 894.267 221.234 893.421 221.234ZM891.261 216.914C891.261 218.534 892.179 219.614 893.547 219.614C894.807 219.614 895.887 218.48 895.905 216.914C895.887 215.348 894.807 214.214 893.547 214.214C892.179 214.214 891.261 215.276 891.261 216.914ZM904.528 219.596C905.914 219.596 906.814 218.516 906.814 216.878C906.814 215.24 905.914 214.16 904.528 214.16C903.232 214.16 902.17 215.366 902.17 216.878C902.17 218.39 903.232 219.596 904.528 219.596ZM900.244 224.96V212.558H902.152V213.818C902.836 212.918 903.97 212.558 904.636 212.558C907.03 212.558 908.722 214.34 908.722 216.878C908.722 219.434 907.03 221.216 904.636 221.216C903.952 221.216 902.836 220.838 902.152 219.938V224.96H900.244ZM915.04 219.596C916.426 219.596 917.326 218.516 917.326 216.878C917.326 215.24 916.426 214.16 915.04 214.16C913.744 214.16 912.682 215.366 912.682 216.878C912.682 218.39 913.744 219.596 915.04 219.596ZM910.756 224.96V212.558H912.664V213.818C913.348 212.918 914.482 212.558 915.148 212.558C917.542 212.558 919.234 214.34 919.234 216.878C919.234 219.434 917.542 221.216 915.148 221.216C914.464 221.216 913.348 220.838 912.664 219.938V224.96H910.756ZM921.016 208.292H922.924V221.144H921.016V208.292ZM928.46 224.888H926.372L928.244 220.442L924.788 212.576H926.894L929.252 218.264L931.52 212.576H933.59L930.386 220.298L928.46 224.888ZM935.542 212.558H937.45V221.144H935.542V212.558ZM935.416 209.354C935.416 208.724 935.866 208.274 936.496 208.274C937.126 208.274 937.576 208.724 937.576 209.354C937.576 209.984 937.126 210.434 936.496 210.434C935.866 210.434 935.416 209.984 935.416 209.354ZM945.959 216.428C945.959 215.06 945.257 214.232 944.069 214.232C942.899 214.25 941.999 215.168 942.017 216.428V221.162H940.109V212.576H942.017V213.746C942.557 213.08 943.475 212.594 944.303 212.594C945.923 212.594 947.867 213.656 947.867 216.356V221.162H945.959V216.428ZM953.98 219.578C955.348 219.578 956.338 218.372 956.338 216.878C956.338 215.42 955.348 214.196 953.98 214.196C952.63 214.196 951.712 215.258 951.712 216.878C951.712 218.516 952.63 219.578 953.98 219.578ZM949.804 216.896C949.804 214.376 951.496 212.558 953.872 212.558C954.754 212.558 955.744 213.008 956.338 213.818V212.558H958.246V220.514C958.246 222.962 956.59 224.978 953.962 224.978C952.522 224.978 951.136 224.384 950.29 222.98L951.802 221.972C952.432 222.89 953.044 223.286 953.962 223.286C955.492 223.286 956.338 222.08 956.338 220.676V219.92C955.672 220.766 954.682 221.216 953.872 221.216C951.496 221.216 949.804 219.416 949.804 216.896ZM972.163 207.86L977.095 221.144H975.061L973.729 217.526H968.275L966.889 221.144H964.855L969.877 207.86H972.163ZM968.887 215.87H973.099L971.029 210.272L968.887 215.87ZM979.505 207.86H981.413V221.144H979.505V207.86ZM989.406 221.162V214.214H987.786V212.558H989.406V209.552H991.314V212.558H993.348V214.214H991.314V221.162H989.406ZM998.839 219.596C1000.17 219.596 1001.07 218.534 1001.07 216.896C1001.07 215.276 1000.17 214.196 998.839 214.196C997.507 214.196 996.607 215.258 996.607 216.896C996.607 218.534 997.489 219.596 998.839 219.596ZM994.699 216.896C994.699 214.358 996.409 212.558 998.839 212.558C1001.27 212.558 1002.98 214.358 1002.98 216.896C1002.98 219.416 1001.27 221.234 998.839 221.234C996.409 221.234 994.699 219.416 994.699 216.896ZM1010.5 221.162V214.214H1008.88V212.558H1010.5V209.552H1012.41V212.558H1014.44V214.214H1012.41V221.162H1010.5ZM1022.13 216.464C1022.13 215.042 1021.44 214.142 1020.42 214.142C1019.23 214.142 1018.31 215.258 1018.31 216.644V221H1016.4V208.292H1018.31V213.584C1018.83 212.918 1019.68 212.486 1020.42 212.486C1022.54 212.486 1024.05 214.07 1024.05 216.248V221H1022.13V216.464ZM1030.29 221.198C1027.86 221.198 1026.15 219.416 1026.15 216.896C1026.15 214.358 1027.86 212.576 1030.29 212.576C1032.95 212.576 1033.8 214.754 1033.85 214.898C1034.37 216.122 1034.21 217.49 1034.21 217.634H1028.02C1028.23 218.786 1029.21 219.578 1030.29 219.578C1031.71 219.578 1032.28 218.75 1032.43 218.498L1033.96 219.182C1033.54 220.154 1032.34 221.198 1030.29 221.198ZM1028.02 216.122H1032.41C1032.23 215.06 1031.62 214.196 1030.29 214.196C1029.13 214.196 1028.23 215.006 1028.02 216.122ZM1036.39 212.558H1038.3V221.144H1036.39V212.558ZM1036.26 209.354C1036.26 208.724 1036.71 208.274 1037.34 208.274C1037.97 208.274 1038.42 208.724 1038.42 209.354C1038.42 209.984 1037.97 210.434 1037.34 210.434C1036.71 210.434 1036.26 209.984 1036.26 209.354ZM1040.86 221.162V212.576H1042.77V213.836C1043.35 213.026 1044.39 212.486 1045.4 212.54V214.304C1043.87 214.232 1042.77 215.582 1042.77 216.896V221.162H1040.86ZM1063.13 212.576L1060.61 221.162H1058.84L1057.15 215.618L1055.5 221.162H1053.73L1051.16 212.576H1053.14L1054.63 218.066L1056.18 212.576H1058.09L1059.69 218.066L1061.15 212.576H1063.13ZM1067.96 219.596C1069.29 219.596 1070.19 218.534 1070.19 216.896C1070.19 215.276 1069.29 214.196 1067.96 214.196C1066.62 214.196 1065.72 215.258 1065.72 216.896C1065.72 218.534 1066.61 219.596 1067.96 219.596ZM1063.82 216.896C1063.82 214.358 1065.53 212.558 1067.96 212.558C1070.39 212.558 1072.1 214.358 1072.1 216.896C1072.1 219.416 1070.39 221.234 1067.96 221.234C1065.53 221.234 1063.82 219.416 1063.82 216.896ZM1073.95 221.162V212.576H1075.85V213.836C1076.43 213.026 1077.47 212.486 1078.48 212.54V214.304C1076.95 214.232 1075.85 215.582 1075.85 216.896V221.162H1073.95ZM1082.52 208.292V216.122L1085.58 212.576H1088.15L1084.81 216.41L1088.08 221.162H1085.76L1083.44 217.832L1082.52 218.912V221.162H1080.61V208.292H1082.52Z" fill="#27272A"/>
<path d="M626 181.5L621 179.113L621 184.887L626 182.5L626 181.5ZM1089 182.5C1089.28 182.5 1089.5 182.276 1089.5 182C1089.5 181.724 1089.28 181.5 1089 181.5L1089 182.5ZM625.5 182.5L1089 182.5L1089 181.5L625.5 181.5L625.5 182.5Z" fill="#71717A"/>
<path d="M874.192 293.86H876.1V307.144H874.192V293.86ZM884.715 302.428C884.715 301.06 884.013 300.232 882.825 300.232C881.655 300.25 880.755 301.168 880.773 302.428V307.162H878.865V298.576H880.773V299.746C881.313 299.08 882.231 298.594 883.059 298.594C884.679 298.594 886.623 299.656 886.623 302.356V307.162H884.715V302.428ZM892.646 307.234C890.27 307.234 888.56 305.434 888.56 302.896C888.56 300.358 890.27 298.558 892.646 298.558C893.348 298.558 894.41 298.864 895.148 299.836V294.292H897.056V307.162H895.148V305.956C894.392 306.874 893.348 307.234 892.646 307.234ZM890.468 302.914C890.468 304.552 891.386 305.632 892.772 305.632C894.068 305.632 895.148 304.444 895.148 302.914C895.148 301.402 894.068 300.196 892.772 300.196C891.386 300.196 890.468 301.276 890.468 302.914ZM899.856 298.558H901.764V307.144H899.856V298.558ZM899.73 295.354C899.73 294.724 900.18 294.274 900.81 294.274C901.44 294.274 901.89 294.724 901.89 295.354C901.89 295.984 901.44 296.434 900.81 296.434C900.18 296.434 899.73 295.984 899.73 295.354ZM912.618 298.576L908.982 307.162H907.326L903.726 298.576H905.814L908.154 304.588L910.512 298.576H912.618ZM914.517 298.558H916.425V307.144H914.517V298.558ZM914.391 295.354C914.391 294.724 914.841 294.274 915.471 294.274C916.101 294.274 916.551 294.724 916.551 295.354C916.551 295.984 916.101 296.434 915.471 296.434C914.841 296.434 914.391 295.984 914.391 295.354ZM922.828 307.234C920.452 307.234 918.742 305.434 918.742 302.896C918.742 300.358 920.452 298.558 922.828 298.558C923.53 298.558 924.592 298.864 925.33 299.836V294.292H927.238V307.162H925.33V305.956C924.574 306.874 923.53 307.234 922.828 307.234ZM920.65 302.914C920.65 304.552 921.568 305.632 922.954 305.632C924.25 305.632 925.33 304.444 925.33 302.914C925.33 301.402 924.25 300.196 922.954 300.196C921.568 300.196 920.65 301.276 920.65 302.914ZM931.82 303.472C931.82 304.786 932.594 305.596 933.728 305.596C934.934 305.596 935.762 304.804 935.744 303.49V298.576H937.67V307.162H935.744V306.172C935.204 306.838 934.322 307.234 933.476 307.234C931.406 307.234 929.912 305.74 929.912 303.544V298.576H931.82V303.472ZM943.851 307.234C941.475 307.234 939.783 305.434 939.783 302.914C939.783 300.394 941.475 298.594 943.851 298.594C944.697 298.594 945.633 298.99 946.317 299.8V298.576H948.225V307.162H946.317V306.01C945.633 306.874 944.697 307.234 943.851 307.234ZM941.691 302.914C941.691 304.534 942.609 305.614 943.977 305.614C945.237 305.614 946.317 304.48 946.335 302.914C946.317 301.348 945.237 300.214 943.977 300.214C942.609 300.214 941.691 301.276 941.691 302.914ZM950.545 294.292H952.453V307.144H950.545V294.292ZM956.131 304.21C956.509 305.146 957.445 305.578 958.021 305.578C958.921 305.578 959.497 305.236 959.497 304.642C959.497 304.102 958.705 303.85 957.823 303.544C956.653 303.13 954.997 302.572 954.997 300.916C954.997 299.404 956.383 298.486 958.147 298.486C959.209 298.486 960.793 299.098 961.225 300.646L959.623 301.222C959.335 300.268 958.561 300.124 958.147 300.124C957.391 300.124 956.905 300.43 956.905 300.916C956.905 301.456 957.643 301.672 958.561 301.996C959.785 302.428 961.405 302.986 961.405 304.624C961.405 306.19 960.019 307.216 958.021 307.216C956.707 307.216 955.267 306.388 954.637 305.074L956.131 304.21ZM979.436 298.576L976.916 307.162H975.152L973.46 301.618L971.804 307.162H970.04L967.466 298.576H969.446L970.94 304.066L972.488 298.576H974.396L975.998 304.066L977.456 298.576H979.436ZM981.331 298.558H983.239V307.144H981.331V298.558ZM981.205 295.354C981.205 294.724 981.655 294.274 982.285 294.274C982.915 294.274 983.365 294.724 983.365 295.354C983.365 295.984 982.915 296.434 982.285 296.434C981.655 296.434 981.205 295.984 981.205 295.354ZM986.978 307.162V300.214H985.358V298.558H986.978V295.552H988.886V298.558H990.92V300.214H988.886V307.162H986.978ZM998.604 302.464C998.604 301.042 997.92 300.142 996.894 300.142C995.706 300.142 994.788 301.258 994.788 302.644V307H992.88V294.292H994.788V299.584C995.31 298.918 996.156 298.486 996.894 298.486C999.018 298.486 1000.53 300.07 1000.53 302.248V307H998.604V302.464ZM1014.42 293.86L1019.35 307.144H1017.32L1015.98 303.526H1010.53L1009.14 307.144H1007.11L1012.13 293.86H1014.42ZM1011.14 301.87H1015.35L1013.28 296.272L1011.14 301.87ZM1021.76 293.86H1023.67V307.144H1021.76V293.86ZM1030.44 294.292H1032.35V307.144H1030.44V294.292ZM1034.98 298.558H1036.89V307.144H1034.98V298.558ZM1034.85 295.354C1034.85 294.724 1035.3 294.274 1035.93 294.274C1036.56 294.274 1037.01 294.724 1037.01 295.354C1037.01 295.984 1036.56 296.434 1035.93 296.434C1035.3 296.434 1034.85 295.984 1034.85 295.354ZM1040.63 307.162V300.214H1039.01V298.558H1040.63V295.552H1042.53V298.558H1044.57V300.214H1042.53V307.162H1040.63ZM1050.06 307.198C1047.63 307.198 1045.92 305.416 1045.92 302.896C1045.92 300.358 1047.63 298.576 1050.06 298.576C1052.72 298.576 1053.57 300.754 1053.62 300.898C1054.15 302.122 1053.98 303.49 1053.98 303.634H1047.79C1048.01 304.786 1048.98 305.578 1050.06 305.578C1051.48 305.578 1052.06 304.75 1052.2 304.498L1053.73 305.182C1053.32 306.154 1052.11 307.198 1050.06 307.198ZM1047.79 302.122H1052.18C1052 301.06 1051.39 300.196 1050.06 300.196C1048.91 300.196 1048.01 301.006 1047.79 302.122ZM1055.93 307.162V298.576H1057.84V299.836C1058.41 299.026 1059.46 298.486 1060.46 298.54V300.304C1058.93 300.232 1057.84 301.582 1057.84 302.896V307.162H1055.93ZM1065.51 307.234C1063.13 307.234 1061.44 305.434 1061.44 302.914C1061.44 300.394 1063.13 298.594 1065.51 298.594C1066.35 298.594 1067.29 298.99 1067.97 299.8V298.576H1069.88V307.162H1067.97V306.01C1067.29 306.874 1066.35 307.234 1065.51 307.234ZM1063.35 302.914C1063.35 304.534 1064.27 305.614 1065.63 305.614C1066.89 305.614 1067.97 304.48 1067.99 302.914C1067.97 301.348 1066.89 300.214 1065.63 300.214C1064.27 300.214 1063.35 301.276 1063.35 302.914ZM1075.91 305.398C1076.58 305.398 1077.35 305.056 1077.84 304.516L1079.15 305.83C1078.41 306.64 1077.06 307.216 1075.98 307.216C1073.43 307.216 1071.63 305.416 1071.63 302.896C1071.63 300.358 1073.43 298.558 1075.98 298.558C1077.12 298.558 1078.38 299.134 1079.15 299.962L1077.84 301.258C1077.35 300.718 1076.58 300.376 1075.91 300.376C1074.49 300.376 1073.54 301.366 1073.54 302.896C1073.54 304.408 1074.49 305.398 1075.91 305.398ZM1084.02 310.888H1081.94L1083.81 306.442L1080.35 298.576H1082.46L1084.82 304.264L1087.08 298.576H1089.15L1085.95 306.298L1084.02 310.888Z" fill="#27272A"/>
<path d="M677 267.5L672 265.113L672 270.887L677 268.5L677 267.5ZM1089 268.5C1089.28 268.5 1089.5 268.276 1089.5 268C1089.5 267.724 1089.28 267.5 1089 267.5L1089 268.5ZM676.5 268.5L1089 268.5L1089 267.5L676.5 267.5L676.5 268.5Z" fill="#71717A"/>
<defs>
<linearGradient id="paint0_linear_4188_2450" x1="355" y1="10" x2="355" y2="348" gradientUnits="userSpaceOnUse">
<stop stop-color="#3E0487"/>
<stop offset="0.615" stop-color="#9735D0"/>
<stop offset="1" stop-color="#C16AF3"/>
</linearGradient>
</defs>
</svg>
