<svg width="1201" height="358" viewBox="0 0 1201 358" fill="none" xmlns="http://www.w3.org/2000/svg">
<path fill-rule="evenodd" clip-rule="evenodd" d="M272 10C267.582 10 264 13.5817 264 18V82C264 86.4183 267.582 90 272 90H439C443.418 90 447 86.4183 447 82V18C447 13.5817 443.418 10 439 10H272ZM221 96C216.582 96 213 99.5817 213 104V168C213 172.418 216.582 176 221 176H490C494.418 176 498 172.418 498 168V104C498 99.5817 494.418 96 490 96H221ZM162 190C162 185.582 165.582 182 170 182H540C544.418 182 548 185.582 548 190V254C548 258.418 544.418 262 540 262H170C165.582 262 162 258.418 162 254V190ZM119 268C114.582 268 111 271.582 111 276V340C111 344.418 114.582 348 119 348H591C595.418 348 599 344.418 599 340V276C599 271.582 595.418 268 591 268H119Z" fill="url(#paint0_linear_925_11470)"/>
<path d="M326.981 42.4V55.3H333.661V57.16H324.861V42.4H326.981ZM339.352 57.22C336.652 57.22 334.752 55.24 334.752 52.44C334.752 49.62 336.652 47.64 339.352 47.64C342.312 47.64 343.252 50.06 343.312 50.22C343.892 51.58 343.712 53.1 343.712 53.26H336.832C337.072 54.54 338.152 55.42 339.352 55.42C340.932 55.42 341.572 54.5 341.732 54.22L343.432 54.98C342.972 56.06 341.632 57.22 339.352 57.22ZM336.832 51.58H341.712C341.512 50.4 340.832 49.44 339.352 49.44C338.072 49.44 337.072 50.34 336.832 51.58ZM354.471 47.64L350.431 57.18H348.591L344.591 47.64H346.911L349.511 54.32L352.131 47.64H354.471ZM359.84 57.22C357.14 57.22 355.24 55.24 355.24 52.44C355.24 49.62 357.14 47.64 359.84 47.64C362.8 47.64 363.74 50.06 363.8 50.22C364.38 51.58 364.2 53.1 364.2 53.26H357.32C357.56 54.54 358.64 55.42 359.84 55.42C361.42 55.42 362.06 54.5 362.22 54.22L363.92 54.98C363.46 56.06 362.12 57.22 359.84 57.22ZM357.32 51.58H362.2C362 50.4 361.32 49.44 359.84 49.44C358.56 49.44 357.56 50.34 357.32 51.58ZM366.3 42.88H368.42V57.16H366.3V42.88ZM383.896 42.5V51.46H385.736V53.3H383.896V57.06H381.776V53.3H375.516L375.316 51.46L381.876 42.5H383.896ZM377.836 51.46H381.776V46.04L377.836 51.46Z" fill="white"/>
<path d="M326.764 128.4V141.3H333.444V143.16H324.644V128.4H326.764ZM339.135 143.22C336.435 143.22 334.535 141.24 334.535 138.44C334.535 135.62 336.435 133.64 339.135 133.64C342.095 133.64 343.035 136.06 343.095 136.22C343.675 137.58 343.495 139.1 343.495 139.26H336.615C336.855 140.54 337.935 141.42 339.135 141.42C340.715 141.42 341.355 140.5 341.515 140.22L343.215 140.98C342.755 142.06 341.415 143.22 339.135 143.22ZM336.615 137.58H341.495C341.295 136.4 340.615 135.44 339.135 135.44C337.855 135.44 336.855 136.34 336.615 137.58ZM354.254 133.64L350.214 143.18H348.374L344.374 133.64H346.694L349.294 140.32L351.914 133.64H354.254ZM359.623 143.22C356.923 143.22 355.023 141.24 355.023 138.44C355.023 135.62 356.923 133.64 359.623 133.64C362.583 133.64 363.523 136.06 363.583 136.22C364.163 137.58 363.983 139.1 363.983 139.26H357.103C357.343 140.54 358.423 141.42 359.623 141.42C361.203 141.42 361.843 140.5 362.003 140.22L363.703 140.98C363.243 142.06 361.903 143.22 359.623 143.22ZM357.103 137.58H361.983C361.783 136.4 361.103 135.44 359.623 135.44C358.343 135.44 357.343 136.34 357.103 137.58ZM366.083 128.88H368.203V143.16H366.083V128.88ZM382.839 135.54C384.139 136.3 384.959 137.72 384.959 138.94C384.959 141.42 382.919 143.18 380.019 143.18C377.139 143.18 375.099 141.38 375.099 138.82H377.219C377.219 140.28 378.379 141.3 380.019 141.3C381.699 141.3 382.899 140.28 382.899 138.82C382.899 137.42 381.719 136.42 380.059 136.42H379.019V134.64H380.079C381.599 134.64 382.679 133.74 382.679 132.46C382.679 131.16 381.639 130.26 380.159 130.26C378.679 130.26 377.659 131.18 377.659 132.48H375.539C375.539 130.06 377.439 128.38 380.159 128.38C382.839 128.38 384.739 130.02 384.739 132.34C384.739 133.46 384.019 134.78 382.839 135.54Z" fill="white"/>
<path d="M326.911 214.4V227.3H333.591V229.16H324.791V214.4H326.911ZM339.282 229.22C336.582 229.22 334.682 227.24 334.682 224.44C334.682 221.62 336.582 219.64 339.282 219.64C342.242 219.64 343.182 222.06 343.242 222.22C343.822 223.58 343.642 225.1 343.642 225.26H336.762C337.002 226.54 338.082 227.42 339.282 227.42C340.862 227.42 341.502 226.5 341.662 226.22L343.362 226.98C342.902 228.06 341.562 229.22 339.282 229.22ZM336.762 223.58H341.642C341.442 222.4 340.762 221.44 339.282 221.44C338.002 221.44 337.002 222.34 336.762 223.58ZM354.401 219.64L350.361 229.18H348.521L344.521 219.64H346.841L349.441 226.32L352.061 219.64H354.401ZM359.77 229.22C357.07 229.22 355.17 227.24 355.17 224.44C355.17 221.62 357.07 219.64 359.77 219.64C362.73 219.64 363.67 222.06 363.73 222.22C364.31 223.58 364.13 225.1 364.13 225.26H357.25C357.49 226.54 358.57 227.42 359.77 227.42C361.35 227.42 361.99 226.5 362.15 226.22L363.85 226.98C363.39 228.06 362.05 229.22 359.77 229.22ZM357.25 223.58H362.13C361.93 222.4 361.25 221.44 359.77 221.44C358.49 221.44 357.49 222.34 357.25 223.58ZM366.23 214.88H368.35V229.16H366.23V214.88ZM375.546 227.2C378.466 224.4 382.446 221.56 382.446 219.1C382.446 217.46 381.406 216.3 379.926 216.3C378.786 216.3 377.646 217.12 377.126 218.3L375.266 217.48C376.066 215.64 378.006 214.36 379.926 214.36C382.666 214.36 384.566 216.32 384.566 219.1C384.566 222.16 381.246 224.88 378.546 227.2H384.806V229.06H375.746L375.546 227.2Z" fill="white"/>
<path d="M328.993 300.4V313.3H335.673V315.16H326.873V300.4H328.993ZM341.364 315.22C338.664 315.22 336.764 313.24 336.764 310.44C336.764 307.62 338.664 305.64 341.364 305.64C344.324 305.64 345.264 308.06 345.324 308.22C345.904 309.58 345.724 311.1 345.724 311.26H338.844C339.084 312.54 340.164 313.42 341.364 313.42C342.944 313.42 343.584 312.5 343.744 312.22L345.444 312.98C344.984 314.06 343.644 315.22 341.364 315.22ZM338.844 309.58H343.724C343.524 308.4 342.844 307.44 341.364 307.44C340.084 307.44 339.084 308.34 338.844 309.58ZM356.483 305.64L352.443 315.18H350.603L346.603 305.64H348.923L351.523 312.32L354.143 305.64H356.483ZM361.852 315.22C359.152 315.22 357.252 313.24 357.252 310.44C357.252 307.62 359.152 305.64 361.852 305.64C364.812 305.64 365.752 308.06 365.812 308.22C366.392 309.58 366.212 311.1 366.212 311.26H359.332C359.572 312.54 360.652 313.42 361.852 313.42C363.432 313.42 364.072 312.5 364.232 312.22L365.932 312.98C365.472 314.06 364.132 315.22 361.852 315.22ZM359.332 309.58H364.212C364.012 308.4 363.332 307.44 361.852 307.44C360.572 307.44 359.572 308.34 359.332 309.58ZM368.312 300.88H370.432V315.16H368.312V300.88ZM382.748 300.52V315.06L380.628 315.04V302.78L378.068 304.2L377.188 302.42L380.648 300.52H382.748Z" fill="white"/>
<path d="M718.442 36.3605L723.374 49.6445H721.34L720.008 46.0265H714.554L713.168 49.6445H711.134L716.156 36.3605H718.442ZM715.166 44.3705H719.378L717.308 38.7725L715.166 44.3705ZM725.784 36.3605H727.692V49.6445H725.784V36.3605ZM729.755 47.4845H736.001V44.8565H731.483V39.6005H740.609V37.5845H731.447V36.0185H742.571V41.1665H733.427V43.2725H742.931V44.8565H737.963V47.4845H744.263V49.0865H729.755V47.4845ZM760.867 34.9025H762.847V50.9765H760.867V34.9025ZM750.463 47.1785V36.2345H752.425V40.2485H756.259V36.2345H758.203V47.1785H750.463ZM752.425 45.5945H756.259V41.7965H752.425V45.5945ZM765.368 47.3225H779.876V48.9425H765.368V47.3225ZM765.98 43.2545C769.238 42.7325 771.578 40.5365 771.578 38.1785V37.9445H766.574V36.3605H778.634V37.9445H773.63V38.1785C773.63 40.5365 775.988 42.6785 779.3 43.1825L778.526 44.7665C775.826 44.2625 773.648 42.8405 772.622 40.8425C771.596 42.8585 769.436 44.3165 766.772 44.8385L765.98 43.2545ZM792.404 34.9205H794.366V50.9405H792.404V34.9205ZM782 46.9265V36.4685H783.962V45.2345C786.176 45.1985 788.534 45.0365 791 44.5325L791.234 46.1885C788.462 46.7465 785.852 46.9265 783.386 46.9265H782ZM802.971 35.9105H805.059V37.0985C805.059 39.5825 807.435 42.0665 810.765 42.6425L809.901 44.2805C807.219 43.7405 805.041 42.1205 804.015 39.9785C802.971 42.1025 800.793 43.7405 798.129 44.2805L797.283 42.6425C800.559 42.0485 802.971 39.5645 802.971 37.0985V35.9105ZM796.833 48.9065V47.2865H811.341V48.9065H796.833ZM812.565 42.2285H827.073V43.6685H812.565V42.2285ZM814.221 46.0265V44.6585H825.309V48.3125H816.219V49.4285H825.777V50.7965H814.257V47.0345H823.365V46.0265H814.221ZM814.365 36.6485V35.2805H825.255V38.8985H816.327V39.9245H825.561V41.3105H814.401V37.6205H823.311V36.6485H814.365ZM832.464 36.3965H835.992V34.7945H837.99V36.3965H841.338V37.9805H832.464V36.3965ZM833.274 41.6705C833.274 39.8885 834.84 38.6285 836.964 38.6285C839.106 38.6285 840.672 39.8885 840.672 41.6705C840.672 43.4525 839.106 44.7305 836.964 44.7305C834.84 44.7305 833.274 43.4525 833.274 41.6705ZM834.912 47.4845V45.9185H845.73V50.9585H843.75V47.4845H834.912ZM835.128 41.6705C835.128 42.6245 835.884 43.2005 836.964 43.2005C838.062 43.2005 838.836 42.6245 838.836 41.6705C838.836 40.7165 838.062 40.1405 836.964 40.1405C835.884 40.1405 835.128 40.7165 835.128 41.6705ZM841.41 43.2905V41.7065H843.75V40.2305H841.446V38.6465H843.75V34.9385H845.73V45.1085H843.75V43.2905H841.41ZM859.41 34.9385H861.39V46.6205H859.41V34.9385ZM848.196 42.8585C850.77 41.9225 852.084 39.6545 852.084 37.4045V35.8025H854.082V37.4045C854.082 39.6005 855.378 41.7245 857.916 42.5705L856.89 44.1545C855.09 43.5065 853.812 42.2285 853.11 40.5905C852.408 42.3365 851.094 43.7405 849.204 44.4245L848.196 42.8585ZM850.878 50.6345V45.5225H852.858V49.0505H861.84V50.6345H850.878ZM874.405 34.9385H876.385V41.3105H878.815V42.9485H876.385V50.9585H874.405V34.9385ZM863.821 38.9525V37.3685H867.547V35.1725H869.545V37.3685H873.217V38.9525H863.821ZM864.559 43.7945C864.559 41.5805 866.269 40.0325 868.555 40.0325C870.877 40.0325 872.569 41.5805 872.569 43.7945C872.569 46.0085 870.877 47.5565 868.555 47.5565C866.269 47.5565 864.559 46.0085 864.559 43.7945ZM866.467 43.7945C866.467 45.1085 867.331 45.9365 868.555 45.9365C869.779 45.9365 870.661 45.1085 870.661 43.7945C870.661 42.4805 869.779 41.6345 868.555 41.6345C867.331 41.6345 866.467 42.4805 866.467 43.7945ZM881.137 36.3785H892.603V37.9265C892.603 39.9245 892.603 42.1565 892.009 45.5045L890.011 45.2885C890.623 42.1745 890.623 39.8885 890.623 37.9805H881.137V36.3785ZM879.643 48.8885V47.2685H884.971V41.6885H886.933V47.2685H894.133V48.8885H879.643ZM910.792 34.9205H912.772V50.9405H910.792V34.9205ZM899.614 46.5665C903.772 44.5685 905.662 41.8505 906.004 38.1965H900.406V36.5945H908.038C908.038 41.4005 906.22 45.4325 900.64 48.1325L899.614 46.5665ZM926.507 34.9385H928.469V50.9585H926.507V34.9385ZM915.329 46.5125C916.571 46.5125 917.993 46.5125 919.487 46.4765V44.9825C917.705 44.6945 916.553 43.5965 916.553 42.0665C916.553 40.2665 918.137 39.0785 920.477 39.0785C922.799 39.0785 924.419 40.2665 924.419 42.0665C924.419 43.5965 923.249 44.6945 921.467 44.9825V46.4045C922.871 46.3325 924.275 46.2245 925.607 46.0445L925.733 47.4665C922.223 48.1145 918.443 48.1325 915.563 48.1325L915.329 46.5125ZM915.635 38.3225V36.7745H919.487V34.9745H921.467V36.7745H925.319V38.3225H915.635ZM918.425 42.0665C918.425 43.0025 919.271 43.5605 920.477 43.5605C921.701 43.5605 922.529 43.0025 922.529 42.0665C922.529 41.1305 921.701 40.5725 920.477 40.5725C919.271 40.5725 918.425 41.1305 918.425 42.0665ZM930.989 42.2285H945.497V43.6685H930.989V42.2285ZM932.645 46.0265V44.6585H943.733V48.3125H934.643V49.4285H944.201V50.7965H932.681V47.0345H941.789V46.0265H932.645ZM932.789 36.6485V35.2805H943.679V38.8985H934.751V39.9245H943.985V41.3105H932.825V37.6205H941.735V36.6485H932.789ZM951.32 36.6845H954.632V34.8665H956.594V36.6845H959.906V38.2685H956.594V38.3405C956.594 40.1045 957.872 41.8145 960.374 42.4985L959.474 44.0285C957.656 43.5245 956.378 42.4625 955.658 41.1125C954.956 42.6425 953.624 43.8485 951.752 44.4245L950.816 42.8945C953.318 42.1565 954.632 40.3025 954.632 38.3405V38.2685H951.32V36.6845ZM952.868 47.9525C952.868 46.0805 954.92 44.9825 958.232 44.9825C961.544 44.9825 963.578 46.0805 963.578 47.9525C963.578 49.8425 961.544 50.9225 958.232 50.9225C954.92 50.9225 952.868 49.8425 952.868 47.9525ZM954.83 47.9525C954.83 48.9065 956.036 49.4285 958.232 49.4285C960.392 49.4285 961.634 48.9065 961.634 47.9525C961.634 46.9985 960.392 46.4945 958.232 46.4945C956.036 46.4945 954.83 46.9985 954.83 47.9525ZM961.418 44.6405V34.9385H963.398V38.8445H965.63V40.4825H963.398V44.6405H961.418ZM966.62 41.8505H981.056V43.3085H974.81V44.4785H979.274V48.2585H970.256V49.3565H979.724V50.8145H968.33V46.9085H977.33V45.9185H968.276V44.4785H972.83V43.3085H966.62V41.8505ZM967.25 39.8345C970.418 39.7085 972.272 38.8265 972.668 37.6925H968.024V36.2345H972.83V34.8845H974.828V36.2345H979.652V37.6925H974.99C975.386 38.8265 977.24 39.7085 980.408 39.8345L979.85 41.3285C976.97 41.1305 974.846 40.3745 973.838 39.0965C972.83 40.3745 970.688 41.1305 967.808 41.3285L967.25 39.8345ZM992.883 34.9025H994.863V38.4845H997.095V40.1045H994.863V43.6145H992.883V34.9025ZM982.353 37.7105V36.1985H986.079V34.7765H988.059V36.1985H991.785V37.7105H982.353ZM983.181 40.8425C983.181 39.2225 984.711 38.2145 987.069 38.2145C989.409 38.2145 990.975 39.2225 990.975 40.8425C990.975 42.4625 989.409 43.4525 987.069 43.4525C984.711 43.4525 983.181 42.4625 983.181 40.8425ZM984.459 45.7925V44.3345H994.863V48.2045H986.439V49.3385H995.385V50.8145H984.495V46.8365H992.919V45.7925H984.459ZM985.071 40.8425C985.071 41.6165 985.845 42.0485 987.069 42.0485C988.293 42.0485 989.067 41.6165 989.067 40.8425C989.067 40.0505 988.293 39.6365 987.069 39.6365C985.845 39.6365 985.071 40.0505 985.071 40.8425ZM1008.43 35.4425H1010.51V36.2525C1010.51 38.2505 1012.75 40.3205 1016.11 40.7885L1015.34 42.3545C1012.64 41.9405 1010.51 40.6085 1009.47 38.8085C1008.44 40.6265 1006.32 41.9405 1003.6 42.3545L1002.83 40.7885C1006.21 40.3205 1008.43 38.2865 1008.43 36.2525V35.4425ZM1002.22 45.3785V43.7585H1016.71V45.3785H1010.41V50.9585H1008.43V45.3785H1002.22ZM1025.86 44.7125H1027.75V45.3605C1027.75 46.6925 1028.34 48.0965 1029.71 48.9785C1031.1 48.0245 1031.73 46.5665 1031.73 45.3605V44.7125H1033.65V45.3605C1033.65 47.0345 1034.66 48.6005 1036.73 49.2665L1035.78 50.7245C1034.25 50.2025 1033.2 49.1765 1032.66 47.8985C1032.14 49.1585 1031.2 50.2925 1029.76 50.8865C1028.25 50.3105 1027.32 49.2305 1026.79 47.9525C1026.24 49.1765 1025.23 50.1845 1023.75 50.7245L1022.78 49.2665C1024.85 48.5465 1025.86 46.9085 1025.86 45.3605V44.7125ZM1022.38 39.6005C1022.38 37.3685 1024.2 35.8025 1026.67 35.8025C1029.13 35.8025 1030.95 37.3685 1030.95 39.6005C1030.95 41.8325 1029.13 43.3805 1026.67 43.3805C1024.2 43.3805 1022.38 41.8325 1022.38 39.6005ZM1024.31 39.6005C1024.31 40.9325 1025.32 41.7605 1026.67 41.7605C1028.04 41.7605 1029.03 40.9325 1029.03 39.6005C1029.03 38.2865 1028.04 37.4405 1026.67 37.4405C1025.32 37.4405 1024.31 38.2865 1024.31 39.6005ZM1033.35 44.0285V34.9385H1035.34V44.0285H1033.35ZM1039.68 35.4965H1041.64V39.4385H1050.7V41.0225H1039.68V35.4965ZM1037.83 44.4605V42.8765H1052.34V44.4605H1037.83ZM1039.56 50.5985V45.8465H1041.52V48.9965H1050.79V50.5985H1039.56ZM1068.96 34.9385H1070.94V46.5125H1068.96V34.9385ZM1057.98 40.0145C1057.98 37.6565 1059.85 35.9825 1062.26 35.9825C1064.69 35.9825 1066.55 37.6565 1066.55 40.0145C1066.55 42.3365 1064.69 44.0285 1062.26 44.0285C1059.85 44.0285 1057.98 42.3365 1057.98 40.0145ZM1059.91 40.0145C1059.91 41.4005 1060.93 42.3005 1062.26 42.3005C1063.6 42.3005 1064.62 41.4005 1064.62 40.0145C1064.62 38.5925 1063.6 37.6925 1062.26 37.6925C1060.93 37.6925 1059.91 38.5925 1059.91 40.0145ZM1060.43 50.6345V45.3605H1062.39V49.0505H1071.37V50.6345H1060.43ZM1085.32 34.9205H1087.21V50.9405H1085.32V42.8045H1083.72V50.1845H1081.87V35.2265H1083.72V41.2025H1085.32V34.9205ZM1073.17 46.2965C1075.51 44.9285 1076.45 42.1565 1076.45 39.0065V38.2685H1073.64V36.6485H1080.97V38.2685H1078.36V39.0065C1078.36 41.8685 1079.33 44.4965 1081.65 45.7205L1080.52 47.2325C1079.02 46.4225 1078.03 45.0365 1077.46 43.3085C1076.92 45.2885 1075.93 46.8725 1074.38 47.8085L1073.17 46.2965Z" fill="#27272A"/>
<path d="M524 9.50005L519 7.1133L519 12.8868L524 10.5001L524 9.50005ZM1089 10.5C1089.28 10.5 1089.5 10.2761 1089.5 10C1089.5 9.72386 1089.28 9.5 1089 9.5L1089 10.5ZM523.5 10.5001L1089 10.5L1089 9.5L523.5 9.50005L523.5 10.5001Z" fill="#71717A"/>
<path d="M801.442 121.861L806.374 135.145H804.34L803.008 131.527H797.554L796.168 135.145H794.134L799.156 121.861H801.442ZM798.166 129.871H802.378L800.308 124.273L798.166 129.871ZM808.784 121.861H810.692V135.145H808.784V121.861ZM812.755 127.729H827.263V129.169H812.755V127.729ZM814.411 131.527V130.159H825.499V133.813H816.409V134.929H825.967V136.297H814.447V132.535H823.555V131.527H814.411ZM814.555 122.149V120.781H825.445V124.399H816.517V125.425H825.751V126.811H814.591V123.121H823.501V122.149H814.555ZM843.237 120.421H845.217V124.327H847.377V125.965H845.217V129.853H843.237V120.421ZM832.473 128.251C833.661 128.251 835.047 128.251 836.487 128.215V127.387C834.723 127.207 833.625 126.469 833.625 125.335C833.625 124.021 835.119 123.229 837.441 123.229C839.799 123.229 841.293 124.021 841.293 125.335C841.293 126.469 840.213 127.189 838.449 127.387V128.143C839.817 128.071 841.167 127.963 842.445 127.801L842.589 129.007C839.205 129.601 835.479 129.637 832.689 129.637L832.473 128.251ZM832.887 122.851V121.501H836.487V120.277H838.449V121.501H842.013V122.851H832.887ZM834.615 131.815V130.501H845.217V133.975H836.595V134.983H845.793V136.315H834.633V132.733H843.273V131.815H834.615ZM835.497 125.335C835.497 125.893 836.235 126.199 837.441 126.199C838.683 126.199 839.421 125.893 839.421 125.335C839.421 124.777 838.683 124.471 837.441 124.471C836.235 124.471 835.497 124.777 835.497 125.335ZM848.368 128.161H851.734V126.109C850.546 125.587 849.862 124.777 849.862 123.733C849.862 121.825 852.094 120.691 855.604 120.691C859.114 120.691 861.346 121.825 861.346 123.733C861.346 124.777 860.662 125.605 859.438 126.127V128.161H862.84V129.709H848.368V128.161ZM850.042 133.561C850.042 131.725 852.13 130.681 855.586 130.681C859.024 130.681 861.112 131.725 861.112 133.561C861.112 135.415 859.024 136.459 855.586 136.459C852.13 136.459 850.042 135.415 850.042 133.561ZM851.896 123.733C851.896 124.723 853.264 125.263 855.604 125.263C857.926 125.263 859.294 124.723 859.294 123.733C859.294 122.743 857.926 122.203 855.604 122.203C853.264 122.203 851.896 122.743 851.896 123.733ZM852.04 133.561C852.04 134.479 853.282 134.947 855.586 134.947C857.872 134.947 859.114 134.479 859.114 133.561C859.114 132.661 857.872 132.193 855.586 132.193C853.282 132.193 852.04 132.661 852.04 133.561ZM853.696 128.161H857.476V126.631C856.9 126.721 856.27 126.757 855.604 126.757C854.92 126.757 854.272 126.721 853.696 126.631V128.161ZM874.594 120.439H876.574V126.811H879.004V128.449H876.574V136.459H874.594V120.439ZM864.01 124.453V122.869H867.736V120.673H869.734V122.869H873.406V124.453H864.01ZM864.748 129.295C864.748 127.081 866.458 125.533 868.744 125.533C871.066 125.533 872.758 127.081 872.758 129.295C872.758 131.509 871.066 133.057 868.744 133.057C866.458 133.057 864.748 131.509 864.748 129.295ZM866.656 129.295C866.656 130.609 867.52 131.437 868.744 131.437C869.968 131.437 870.85 130.609 870.85 129.295C870.85 127.981 869.968 127.135 868.744 127.135C867.52 127.135 866.656 127.981 866.656 129.295ZM884.153 121.573C885.611 121.573 886.799 122.401 887.519 123.823H891.191V120.403H893.153V136.477H891.191V130.429H887.645C886.943 132.013 885.683 132.931 884.153 132.931C881.795 132.931 880.085 130.735 880.085 127.243C880.085 123.769 881.795 121.573 884.153 121.573ZM881.957 127.243C881.957 129.709 882.857 131.149 884.153 131.149C885.485 131.149 886.385 129.709 886.385 127.243C886.385 124.795 885.485 123.373 884.153 123.373C882.857 123.373 881.957 124.795 881.957 127.243ZM888.059 125.425C888.185 125.983 888.239 126.595 888.239 127.243C888.239 127.801 888.203 128.341 888.113 128.827H891.191V125.425H888.059ZM904.196 120.943C906.626 120.943 908.444 122.437 908.444 124.561C908.444 126.685 906.626 128.161 904.196 128.161C901.784 128.161 899.984 126.685 899.984 124.561C899.984 122.437 901.784 120.943 904.196 120.943ZM901.892 124.561C901.892 125.803 902.882 126.559 904.196 126.559C905.546 126.559 906.518 125.803 906.518 124.561C906.518 123.319 905.546 122.545 904.196 122.545C902.882 122.545 901.892 123.319 901.892 124.561ZM902.396 130.753V129.223H912.944V133.417H904.358V134.713H913.394V136.261H902.432V131.977H910.982V130.753H902.396ZM910.964 128.521V120.439H912.944V128.521H910.964ZM922.682 120.691C926.282 120.691 928.424 121.645 928.424 123.427C928.424 125.209 926.282 126.181 922.682 126.181C919.082 126.181 916.94 125.209 916.94 123.427C916.94 121.645 919.082 120.691 922.682 120.691ZM915.446 128.629V127.045H929.918V128.629H915.446ZM917.12 131.185V129.691H928.118V133.615H919.1V134.821H928.568V136.315H917.174V132.229H926.174V131.185H917.12ZM918.992 123.427C918.992 124.291 920.252 124.723 922.682 124.723C925.094 124.723 926.372 124.291 926.372 123.427C926.372 122.581 925.094 122.131 922.682 122.131C920.252 122.131 918.992 122.581 918.992 123.427ZM946.649 120.439H948.629V132.265H946.649V128.233H943.481V129.691H936.047V121.483H937.991V124.075H941.537V121.483H943.481V123.211H946.649V120.439ZM937.991 128.089H941.537V125.587H937.991V128.089ZM938.153 136.135V131.113H940.133V134.551H948.989V136.135H938.153ZM943.481 126.649H946.649V124.795H943.481V126.649ZM961.661 120.439H963.641V127.045H965.837V128.701H963.641V136.459H961.661V120.439ZM950.879 132.013C952.085 132.013 953.471 132.013 954.929 131.977V130.465C953.201 130.177 952.067 129.097 952.067 127.567C952.067 125.767 953.651 124.579 955.919 124.579C958.187 124.579 959.789 125.767 959.789 127.567C959.789 129.097 958.637 130.177 956.909 130.465V131.887C958.223 131.833 959.537 131.707 960.779 131.545L960.941 132.967C957.539 133.633 953.867 133.633 951.149 133.633L950.879 132.013ZM951.167 123.823V122.257H954.929V120.493H956.909V122.257H960.653V123.823H951.167ZM953.939 127.567C953.939 128.503 954.731 129.061 955.919 129.061C957.125 129.061 957.917 128.503 957.917 127.567C957.917 126.631 957.125 126.073 955.919 126.073C954.731 126.073 953.939 126.631 953.939 127.567ZM970.788 121.735H972.786V124.255C972.786 127.207 974.298 130.159 976.872 131.293L975.72 132.895C973.866 132.031 972.534 130.321 971.814 128.233C971.094 130.483 969.726 132.319 967.8 133.237L966.612 131.599C969.24 130.429 970.788 127.351 970.788 124.255V121.735ZM978.006 136.477V120.403H979.986V136.477H978.006ZM993.774 120.439H995.754V128.701H993.774V120.439ZM982.83 124.039L988.626 123.805C988.77 123.427 988.878 123.031 988.914 122.635H983.622V121.087H991.038C991.038 125.281 988.518 128.017 983.532 129.223L982.848 127.639C985.134 127.135 986.718 126.307 987.69 125.245L983.118 125.587L982.83 124.039ZM985.206 130.951V129.439H995.754V133.507H987.168V134.803H996.204V136.315H985.224V132.085H993.792V130.951H985.206ZM1008.61 120.943H1010.7V121.753C1010.7 123.751 1012.93 125.821 1016.3 126.289L1015.53 127.855C1012.83 127.441 1010.7 126.109 1009.66 124.309C1008.63 126.127 1006.51 127.441 1003.79 127.855L1003.02 126.289C1006.4 125.821 1008.61 123.787 1008.61 121.753V120.943ZM1002.4 130.879V129.259H1016.89V130.879H1010.59V136.459H1008.61V130.879H1002.4ZM1026.05 130.213H1027.94V130.861C1027.94 132.193 1028.53 133.597 1029.9 134.479C1031.29 133.525 1031.92 132.067 1031.92 130.861V130.213H1033.84V130.861C1033.84 132.535 1034.85 134.101 1036.92 134.767L1035.97 136.225C1034.44 135.703 1033.39 134.677 1032.85 133.399C1032.33 134.659 1031.39 135.793 1029.95 136.387C1028.44 135.811 1027.51 134.731 1026.98 133.453C1026.43 134.677 1025.42 135.685 1023.94 136.225L1022.97 134.767C1025.04 134.047 1026.05 132.409 1026.05 130.861V130.213ZM1022.57 125.101C1022.57 122.869 1024.39 121.303 1026.86 121.303C1029.32 121.303 1031.14 122.869 1031.14 125.101C1031.14 127.333 1029.32 128.881 1026.86 128.881C1024.39 128.881 1022.57 127.333 1022.57 125.101ZM1024.5 125.101C1024.5 126.433 1025.51 127.261 1026.86 127.261C1028.23 127.261 1029.22 126.433 1029.22 125.101C1029.22 123.787 1028.23 122.941 1026.86 122.941C1025.51 122.941 1024.5 123.787 1024.5 125.101ZM1033.54 129.529V120.439H1035.53V129.529H1033.54ZM1039.87 120.997H1041.83V124.939H1050.89V126.523H1039.87V120.997ZM1038.02 129.961V128.377H1052.53V129.961H1038.02ZM1039.75 136.099V131.347H1041.71V134.497H1050.98V136.099H1039.75ZM1069.15 120.439H1071.13V132.013H1069.15V120.439ZM1058.17 125.515C1058.17 123.157 1060.04 121.483 1062.45 121.483C1064.88 121.483 1066.74 123.157 1066.74 125.515C1066.74 127.837 1064.88 129.529 1062.45 129.529C1060.04 129.529 1058.17 127.837 1058.17 125.515ZM1060.1 125.515C1060.1 126.901 1061.12 127.801 1062.45 127.801C1063.79 127.801 1064.81 126.901 1064.81 125.515C1064.81 124.093 1063.79 123.193 1062.45 123.193C1061.12 123.193 1060.1 124.093 1060.1 125.515ZM1060.62 136.135V130.861H1062.58V134.551H1071.56V136.135H1060.62ZM1085.51 120.421H1087.4V136.441H1085.51V128.305H1083.91V135.685H1082.06V120.727H1083.91V126.703H1085.51V120.421ZM1073.36 131.797C1075.7 130.429 1076.64 127.657 1076.64 124.507V123.769H1073.83V122.149H1081.16V123.769H1078.55V124.507C1078.55 127.369 1079.52 129.997 1081.84 131.221L1080.71 132.733C1079.21 131.923 1078.22 130.537 1077.65 128.809C1077.11 130.789 1076.12 132.373 1074.57 133.309L1073.36 131.797Z" fill="#27272A"/>
<path d="M575 95.5L570 93.1132L570 98.8868L575 96.5L575 95.5ZM1089 96.5001C1089.28 96.5001 1089.5 96.2762 1089.5 96.0001C1089.5 95.7239 1089.28 95.5001 1089 95.5001L1089 96.5001ZM574.5 96.5L1089 96.5001L1089 95.5001L574.5 95.5L574.5 96.5Z" fill="#71717A"/>
<path d="M848.442 207.861L853.374 221.145H851.34L850.008 217.527H844.554L843.168 221.145H841.134L846.156 207.861H848.442ZM845.166 215.871H849.378L847.308 210.273L845.166 215.871ZM855.784 207.861H857.692V221.145H855.784V207.861ZM859.755 213.729H874.263V215.169H859.755V213.729ZM861.411 217.527V216.159H872.499V219.813H863.409V220.929H872.967V222.297H861.447V218.535H870.555V217.527H861.411ZM861.555 208.149V206.781H872.445V210.399H863.517V211.425H872.751V212.811H861.591V209.121H870.501V208.149H861.555ZM890.111 206.403H892.109V212.613H894.449V214.251H892.109V222.441H890.111V206.403ZM880.193 218.463V207.969H882.155V216.843C884.279 216.807 886.547 216.609 888.905 216.141L889.121 217.761C886.439 218.319 883.919 218.463 881.525 218.463H880.193ZM900.516 207.519C903.018 207.519 904.872 209.139 904.872 211.407C904.872 213.693 903.018 215.295 900.516 215.295C897.996 215.295 896.142 213.693 896.142 211.407C896.142 209.139 897.996 207.519 900.516 207.519ZM895.422 217.509C898.266 217.509 902.262 217.491 905.664 216.969L905.808 218.409C902.298 219.093 898.464 219.129 895.656 219.129L895.422 217.509ZM898.068 211.407C898.068 212.739 899.112 213.603 900.516 213.603C901.902 213.603 902.946 212.739 902.946 211.407C902.946 210.057 901.902 209.229 900.516 209.229C899.112 209.229 898.068 210.057 898.068 211.407ZM906.618 222.477V206.403H908.58V222.477H906.618ZM919.731 206.943C922.161 206.943 923.979 208.437 923.979 210.561C923.979 212.685 922.161 214.161 919.731 214.161C917.319 214.161 915.519 212.685 915.519 210.561C915.519 208.437 917.319 206.943 919.731 206.943ZM917.427 210.561C917.427 211.803 918.417 212.559 919.731 212.559C921.081 212.559 922.053 211.803 922.053 210.561C922.053 209.319 921.081 208.545 919.731 208.545C918.417 208.545 917.427 209.319 917.427 210.561ZM917.931 216.753V215.223H928.479V219.417H919.893V220.713H928.929V222.261H917.967V217.977H926.517V216.753H917.931ZM926.499 214.521V206.439H928.479V214.521H926.499ZM942.789 206.421H944.661V222.441H942.789V206.421ZM931.125 213.351C931.125 209.805 932.475 207.627 934.563 207.627C936.489 207.627 937.785 209.445 938.001 212.451H939.549V206.727H941.403V221.685H939.549V214.053H938.019C937.857 217.203 936.525 219.093 934.563 219.093C932.475 219.093 931.125 216.915 931.125 213.351ZM932.925 213.351C932.925 215.871 933.537 217.239 934.563 217.239C935.607 217.239 936.219 215.871 936.219 213.351C936.219 210.849 935.607 209.499 934.563 209.499C933.537 209.499 932.925 210.849 932.925 213.351ZM959.502 210.381H962.166V206.439H964.146V215.979H962.166V212.001H959.502V210.381ZM950.808 214.251C953.346 213.387 954.678 211.281 954.678 209.157V208.977H951.366V207.393H959.97V208.977H956.676V209.157C956.676 211.119 957.954 213.081 960.42 213.927L959.43 215.475C957.666 214.863 956.424 213.639 955.722 212.127C955.038 213.801 953.706 215.151 951.816 215.799L950.808 214.251ZM953.328 218.355V216.753H964.146V222.459H962.166V218.355H953.328ZM966.594 214.161H969.96V212.109C968.772 211.587 968.088 210.777 968.088 209.733C968.088 207.825 970.32 206.691 973.83 206.691C977.34 206.691 979.572 207.825 979.572 209.733C979.572 210.777 978.888 211.605 977.664 212.127V214.161H981.066V215.709H966.594V214.161ZM968.268 219.561C968.268 217.725 970.356 216.681 973.812 216.681C977.25 216.681 979.338 217.725 979.338 219.561C979.338 221.415 977.25 222.459 973.812 222.459C970.356 222.459 968.268 221.415 968.268 219.561ZM970.122 209.733C970.122 210.723 971.49 211.263 973.83 211.263C976.152 211.263 977.52 210.723 977.52 209.733C977.52 208.743 976.152 208.203 973.83 208.203C971.49 208.203 970.122 208.743 970.122 209.733ZM970.266 219.561C970.266 220.479 971.508 220.947 973.812 220.947C976.098 220.947 977.34 220.479 977.34 219.561C977.34 218.661 976.098 218.193 973.812 218.193C971.508 218.193 970.266 218.661 970.266 219.561ZM971.922 214.161H975.702V212.631C975.126 212.721 974.496 212.757 973.83 212.757C973.146 212.757 972.498 212.721 971.922 212.631V214.161ZM992.875 206.403H994.855V209.985H997.087V211.605H994.855V215.115H992.875V206.403ZM982.345 209.211V207.699H986.071V206.277H988.051V207.699H991.777V209.211H982.345ZM983.173 212.343C983.173 210.723 984.703 209.715 987.061 209.715C989.401 209.715 990.967 210.723 990.967 212.343C990.967 213.963 989.401 214.953 987.061 214.953C984.703 214.953 983.173 213.963 983.173 212.343ZM984.451 217.293V215.835H994.855V219.705H986.431V220.839H995.377V222.315H984.487V218.337H992.911V217.293H984.451ZM985.063 212.343C985.063 213.117 985.837 213.549 987.061 213.549C988.285 213.549 989.059 213.117 989.059 212.343C989.059 211.551 988.285 211.137 987.061 211.137C985.837 211.137 985.063 211.551 985.063 212.343ZM1008.42 206.943H1010.51V207.753C1010.51 209.751 1012.74 211.821 1016.1 212.289L1015.33 213.855C1012.63 213.441 1010.51 212.109 1009.46 210.309C1008.44 212.127 1006.31 213.441 1003.59 213.855L1002.82 212.289C1006.2 211.821 1008.42 209.787 1008.42 207.753V206.943ZM1002.21 216.879V215.259H1016.7V216.879H1010.4V222.459H1008.42V216.879H1002.21ZM1025.85 216.213H1027.74V216.861C1027.74 218.193 1028.33 219.597 1029.7 220.479C1031.09 219.525 1031.72 218.067 1031.72 216.861V216.213H1033.64V216.861C1033.64 218.535 1034.65 220.101 1036.72 220.767L1035.77 222.225C1034.24 221.703 1033.19 220.677 1032.65 219.399C1032.13 220.659 1031.2 221.793 1029.76 222.387C1028.24 221.811 1027.31 220.731 1026.79 219.453C1026.23 220.677 1025.22 221.685 1023.74 222.225L1022.77 220.767C1024.84 220.047 1025.85 218.409 1025.85 216.861V216.213ZM1022.38 211.101C1022.38 208.869 1024.19 207.303 1026.66 207.303C1029.13 207.303 1030.94 208.869 1030.94 211.101C1030.94 213.333 1029.13 214.881 1026.66 214.881C1024.19 214.881 1022.38 213.333 1022.38 211.101ZM1024.3 211.101C1024.3 212.433 1025.31 213.261 1026.66 213.261C1028.03 213.261 1029.02 212.433 1029.02 211.101C1029.02 209.787 1028.03 208.941 1026.66 208.941C1025.31 208.941 1024.3 209.787 1024.3 211.101ZM1033.34 215.529V206.439H1035.34V215.529H1033.34ZM1039.67 206.997H1041.64V210.939H1050.69V212.523H1039.67V206.997ZM1037.82 215.961V214.377H1052.33V215.961H1037.82ZM1039.55 222.099V217.347H1041.51V220.497H1050.78V222.099H1039.55ZM1068.95 206.439H1070.93V218.013H1068.95V206.439ZM1057.97 211.515C1057.97 209.157 1059.84 207.483 1062.26 207.483C1064.69 207.483 1066.54 209.157 1066.54 211.515C1066.54 213.837 1064.69 215.529 1062.26 215.529C1059.84 215.529 1057.97 213.837 1057.97 211.515ZM1059.9 211.515C1059.9 212.901 1060.92 213.801 1062.26 213.801C1063.59 213.801 1064.61 212.901 1064.61 211.515C1064.61 210.093 1063.59 209.193 1062.26 209.193C1060.92 209.193 1059.9 210.093 1059.9 211.515ZM1060.42 222.135V216.861H1062.38V220.551H1071.36V222.135H1060.42ZM1085.31 206.421H1087.2V222.441H1085.31V214.305H1083.71V221.685H1081.86V206.727H1083.71V212.703H1085.31V206.421ZM1073.16 217.797C1075.5 216.429 1076.44 213.657 1076.44 210.507V209.769H1073.63V208.149H1080.96V209.769H1078.35V210.507C1078.35 213.369 1079.32 215.997 1081.64 217.221L1080.51 218.733C1079.01 217.923 1078.02 216.537 1077.45 214.809C1076.91 216.789 1075.92 218.373 1074.37 219.309L1073.16 217.797Z" fill="#27272A"/>
<path d="M626 181.5L621 179.113L621 184.887L626 182.5L626 181.5ZM1089 182.5C1089.28 182.5 1089.5 182.276 1089.5 182C1089.5 181.724 1089.28 181.5 1089 181.5L1089 182.5ZM625.5 182.5L1089 182.5L1089 181.5L625.5 181.5L625.5 182.5Z" fill="#71717A"/>
<path d="M924.442 293.861L929.374 307.145H927.34L926.008 303.527H920.554L919.168 307.145H917.134L922.156 293.861H924.442ZM921.166 301.871H925.378L923.308 296.273L921.166 301.871ZM931.784 293.861H933.692V307.145H931.784V293.861ZM951.171 292.403H953.151V308.477H951.171V292.403ZM940.749 295.427V293.843H948.255V299.855H942.783V303.059C945.285 303.041 947.445 302.933 949.911 302.519L950.109 304.121C947.391 304.589 945.015 304.679 942.171 304.679H940.785V298.271H946.257V295.427H940.749ZM967.011 292.403H968.973V308.477H967.011V299.819H964.023V298.235H967.011V292.403ZM956.355 304.769V293.807H963.753V295.427H958.317V298.271H963.159V299.837H958.317V303.167C960.747 303.149 962.547 303.077 964.599 302.735L964.797 304.319C962.475 304.697 960.459 304.769 957.615 304.769H956.355ZM982.69 292.403H984.67V308.477H982.69V299.927H979.972V298.325H982.69V292.403ZM971.89 295.427V293.843H979.072V299.693H973.87V303.077C976.246 303.059 978.118 302.969 980.26 302.609L980.44 304.229C978.064 304.625 975.94 304.715 973.204 304.715H971.908V298.127H977.128V295.427H971.89ZM991.096 293.735H993.094V296.255C993.094 299.207 994.606 302.159 997.18 303.293L996.028 304.895C994.174 304.031 992.842 302.321 992.122 300.233C991.402 302.483 990.034 304.319 988.108 305.237L986.92 303.599C989.548 302.429 991.096 299.351 991.096 296.255V293.735ZM998.314 308.477V292.403H1000.29V308.477H998.314ZM1002.83 299.729H1017.34V301.169H1002.83V299.729ZM1004.49 303.527V302.159H1015.58V305.813H1006.49V306.929H1016.04V308.297H1004.52V304.535H1013.63V303.527H1004.49ZM1004.63 294.149V292.781H1015.52V296.399H1006.59V297.425H1015.83V298.811H1004.67V295.121H1013.58V294.149H1004.63ZM1033.26 292.403H1035.24V296.255H1037.47V297.875H1035.24V301.403H1033.26V292.403ZM1022.66 299.927C1026.44 299.027 1028.44 297.209 1028.71 294.959H1023.42V293.375H1030.89C1030.89 297.569 1028.2 300.323 1023.4 301.529L1022.66 299.927ZM1024.19 306.911C1027.11 306.497 1028.89 305.147 1029.1 303.689H1024.86V302.123H1035.48V303.689H1031.25C1031.46 305.111 1033.28 306.515 1036.14 306.929L1035.42 308.441C1032.94 308.081 1031.08 306.983 1030.18 305.525C1029.27 306.983 1027.39 308.045 1024.93 308.405L1024.19 306.911ZM1044.67 292.457H1046.67V294.041H1051.5V295.589H1046.8C1047.03 297.011 1048.9 298.235 1052.2 298.487L1051.57 299.999C1048.74 299.747 1046.65 298.793 1045.68 297.335C1044.69 298.793 1042.6 299.747 1039.78 299.999L1039.15 298.487C1042.42 298.235 1044.31 297.011 1044.55 295.589H1039.87V294.041H1044.67V292.457ZM1038.43 302.339V300.773H1052.94V302.339H1046.83V305.129H1044.85V302.339H1038.43ZM1040.17 308.135V303.689H1042.15V306.551H1051.33V308.135H1040.17ZM1069.58 292.439H1071.56V304.013H1069.58V292.439ZM1058.6 297.515C1058.6 295.157 1060.47 293.483 1062.88 293.483C1065.31 293.483 1067.16 295.157 1067.16 297.515C1067.16 299.837 1065.31 301.529 1062.88 301.529C1060.47 301.529 1058.6 299.837 1058.6 297.515ZM1060.52 297.515C1060.52 298.901 1061.55 299.801 1062.88 299.801C1064.21 299.801 1065.24 298.901 1065.24 297.515C1065.24 296.093 1064.21 295.193 1062.88 295.193C1061.55 295.193 1060.52 296.093 1060.52 297.515ZM1061.04 308.135V302.861H1063.01V306.551H1071.99V308.135H1061.04ZM1085.94 292.421H1087.83V308.441H1085.94V300.305H1084.34V307.685H1082.48V292.727H1084.34V298.703H1085.94V292.421ZM1073.79 303.797C1076.13 302.429 1077.07 299.657 1077.07 296.507V295.769H1074.26V294.149H1081.58V295.769H1078.97V296.507C1078.97 299.369 1079.95 301.997 1082.27 303.221L1081.13 304.733C1079.64 303.923 1078.65 302.537 1078.07 300.809C1077.53 302.789 1076.54 304.373 1075 305.309L1073.79 303.797Z" fill="#27272A"/>
<path d="M677 267.5L672 265.113L672 270.887L677 268.5L677 267.5ZM1089 268.5C1089.28 268.5 1089.5 268.276 1089.5 268C1089.5 267.724 1089.28 267.5 1089 267.5L1089 268.5ZM676.5 268.5L1089 268.5L1089 267.5L676.5 267.5L676.5 268.5Z" fill="#71717A"/>
<defs>
<linearGradient id="paint0_linear_925_11470" x1="355" y1="10" x2="355" y2="348" gradientUnits="userSpaceOnUse">
<stop stop-color="#3E0487"/>
<stop offset="0.615" stop-color="#9735D0"/>
<stop offset="1" stop-color="#C16AF3"/>
</linearGradient>
</defs>
</svg>
