<svg width="72" height="72" viewBox="0 0 72 72" fill="none" xmlns="http://www.w3.org/2000/svg">
<path d="M31.7205 50.3071C31.7201 49.5525 31.2961 48.8285 30.5701 48.4806C29.5616 47.9973 28.3522 48.423 27.8689 49.4316L23.4489 58.655C23.1482 59.2824 23.1907 60.0203 23.5614 60.6091C23.9322 61.1979 24.5792 61.5551 25.275 61.5551H46.335C47.0308 61.5551 47.6778 61.1979 48.0486 60.6091C48.4193 60.0203 48.4618 59.2824 48.1611 58.655L43.7411 49.4316C43.2578 48.423 42.0484 47.9973 41.0399 48.4806C40.3139 48.8285 39.8899 49.5525 39.8895 50.3071H31.7205Z" fill="#6D0CA6"/>
<path d="M15.785 9.97656C12.7448 9.97656 10.25 12.3924 10.25 15.4603V46.8454C10.25 49.9132 12.7448 52.3291 15.785 52.3291H55.695C58.7352 52.3291 61.23 49.9132 61.23 46.8454V15.4603C61.23 12.3924 58.7352 9.97656 55.695 9.97656H15.785Z" fill="#CC7DFA"/>
<path fill-rule="evenodd" clip-rule="evenodd" d="M41.3527 23.087C37.5827 19.5335 31.5548 19.5335 27.7848 23.087C27.7739 23.0973 27.7631 23.1077 27.7524 23.1182C23.9575 26.8577 23.9575 32.8959 27.7524 36.6354C31.0377 39.8728 36.0602 40.2952 39.7988 37.9027L43.2012 41.354C43.9863 42.1505 45.2684 42.1596 46.0649 41.3745C46.8613 40.5893 46.8705 39.3072 46.0853 38.5108L42.6812 35.0577C45.1148 31.3532 44.6828 26.3678 41.3851 23.1182C41.3744 23.1077 41.3636 23.0973 41.3527 23.087ZM30.5951 33.7507C28.4153 31.6027 28.41 28.173 30.5791 26.0188C32.7849 23.9562 36.3526 23.9562 38.5584 26.0188C40.7275 28.173 40.7222 31.6027 38.5424 33.7507C36.3408 35.9202 32.7967 35.9202 30.5951 33.7507Z" fill="white"/>
</svg>
