<svg width="72" height="72" viewBox="0 0 72 72" fill="none" xmlns="http://www.w3.org/2000/svg">
<path d="M33.6728 19.0078C29.8677 19.0078 26.8447 22.0916 26.8447 25.8359C26.8447 29.5801 29.8677 32.6639 33.6728 32.6639C37.4778 32.6639 40.5008 29.5801 40.5008 25.8359C40.5008 22.0916 37.4778 19.0078 33.6728 19.0078Z" fill="#6D0CA6"/>
<path d="M33.672 33.8555C30.2672 33.8555 27.1862 35.0244 24.9389 36.6496C22.7709 38.2175 21.0703 40.456 21.0703 42.7455C21.0703 45.3562 23.1894 46.7218 25.3592 47.4028C27.5943 48.1043 30.5611 48.3364 33.672 48.3364C36.7829 48.3364 39.7497 48.1043 41.9848 47.4028C44.1547 46.7218 46.2737 45.3562 46.2737 42.7455C46.2737 40.456 44.5732 38.2175 42.4051 36.6496C40.1579 35.0244 37.0768 33.8555 33.672 33.8555Z" fill="#6D0CA6"/>
<path fill-rule="evenodd" clip-rule="evenodd" d="M33.6733 7.14062C19.0197 7.14062 7.14062 19.0197 7.14062 33.6733C7.14062 48.327 19.0197 60.2061 33.6733 60.2061C40.1901 60.2061 46.1581 57.8566 50.7766 53.9586L61.022 64.2039C61.9006 65.0826 63.3253 65.0826 64.2039 64.2039C65.0826 63.3253 65.0826 61.9006 64.2039 61.022L53.9586 50.7766C57.8566 46.1581 60.2061 40.1901 60.2061 33.6733C60.2061 19.0197 48.327 7.14062 33.6733 7.14062ZM11.6406 33.6733C11.6406 21.505 21.505 11.6406 33.6733 11.6406C45.8417 11.6406 55.7061 21.505 55.7061 33.6733C55.7061 45.8417 45.8417 55.7061 33.6733 55.7061C21.505 55.7061 11.6406 45.8417 11.6406 33.6733Z" fill="#CC7DFA"/>
<path fill-rule="evenodd" clip-rule="evenodd" d="M55.3015 55.3015C56.7659 53.837 59.1403 53.837 60.6048 55.3015L65.2617 59.9584C66.7261 61.4228 66.7261 63.7972 65.2617 65.2617C63.7972 66.7261 61.4228 66.7261 59.9584 65.2617L55.3015 60.6048C53.837 59.1403 53.837 56.7659 55.3015 55.3015Z" fill="#6D0CA6"/>
</svg>
