<svg width="72" height="72" viewBox="0 0 72 72" fill="none" xmlns="http://www.w3.org/2000/svg">
<path d="M14.1188 11.2734C13.0004 11.2734 12.0938 12.1801 12.0938 13.2984V53.5689C12.0938 57.2483 14.8859 60.5371 18.729 60.7216C19.8461 60.7752 20.7951 59.9131 20.8488 58.796C20.86 58.5614 20.8309 58.3342 20.7675 58.1212L48.8178 49.7848C49.066 50.6224 49.8414 51.2334 50.7596 51.2334C51.878 51.2334 52.7846 50.3268 52.7846 49.2084V13.2984C52.7846 12.1801 51.878 11.2734 50.7596 11.2734H14.1188Z" fill="#CC7DFA"/>
<path d="M18.4453 58.7031H19.2087C19.0814 58.7031 18.9542 58.7031 18.827 58.7031C18.6998 58.7031 18.5725 58.7031 18.4453 58.7031Z" stroke="#CC7DFA" stroke-width="2.7" stroke-linecap="round" stroke-linejoin="round"/>
<path d="M24.8037 47.0547C23.6853 47.0547 22.7787 47.9613 22.7787 49.0797V52.2859C22.7787 54.6846 20.9435 56.5881 18.6213 56.6748C17.5184 56.716 16.6516 57.6328 16.6722 58.7362C16.6928 59.8397 17.5947 60.7234 18.6984 60.7234H50.7576C55.4536 60.7234 59.2711 56.8517 59.2711 52.1577V49.0797C59.2711 47.9613 58.3645 47.0547 57.2461 47.0547H24.8037Z" fill="#6D0CA6"/>
<path d="M23.7906 22.9453C22.6722 22.9453 21.7656 23.8519 21.7656 24.9703C21.7656 26.0887 22.6722 26.9953 23.7906 26.9953H28.8796C29.998 26.9953 30.9046 26.0887 30.9046 24.9703C30.9046 23.8519 29.998 22.9453 28.8796 22.9453H23.7906Z" fill="white"/>
<path d="M23.7906 31.2817C22.6722 31.2817 21.7656 32.1884 21.7656 33.3067C21.7656 34.4251 22.6722 35.3317 23.7906 35.3317H39.6938C40.8121 35.3317 41.7188 34.4251 41.7188 33.3067C41.7188 32.1884 40.8121 31.2817 39.6938 31.2817H23.7906Z" fill="white"/>
</svg>
