<svg width="72" height="72" viewBox="0 0 72 72" fill="none" xmlns="http://www.w3.org/2000/svg">
<path d="M35.3282 30C31.7853 30 28.9688 32.8166 28.9688 36.3594V54.235C28.9688 57.7779 31.7853 60.5945 35.3282 60.5945H43.2389L46.8155 65.0983C47.2679 65.668 47.9556 66 48.683 66C49.4105 66 50.0982 65.668 50.5506 65.0983L54.1271 60.5945H62.1969C65.7397 60.5945 68.5563 57.7779 68.5563 54.235V36.3594C68.5563 32.8166 65.7397 30 62.1969 30H35.3282Z" fill="#6D0CA6"/>
<path fill-rule="evenodd" clip-rule="evenodd" d="M55.7787 40.5416C56.5842 41.347 56.5842 42.653 55.7787 43.4584L48.2787 50.9584C47.4733 51.7639 46.1674 51.7639 45.3619 50.9584L41.6119 47.2084C40.8064 46.403 40.8064 45.097 41.6119 44.2916C42.4174 43.4861 43.7233 43.4861 44.5287 44.2916L46.8203 46.5832L52.8619 40.5416C53.6674 39.7361 54.9733 39.7361 55.7787 40.5416Z" fill="white"/>
<path d="M9.81257 9C6.26968 9 3.45312 11.8166 3.45312 15.3594V33.235C3.45312 36.7779 6.26968 39.5945 9.81257 39.5945H13.2233L16.7999 44.0983C17.2523 44.668 17.9399 45 18.6674 45C19.3949 45 20.0826 44.668 20.535 44.0983L24.1115 39.5945H38.1812C41.7241 39.5945 44.5407 36.7779 44.5407 33.235V15.3594C44.5407 11.8166 41.7241 9 38.1812 9H9.81257Z" fill="#CC7DFA"/>
<path d="M13.1469 17.25C11.9353 17.25 10.9531 18.2322 10.9531 19.4437C10.9531 20.6553 11.9353 21.6375 13.1469 21.6375H18.66C19.8715 21.6375 20.8537 20.6553 20.8537 19.4437C20.8537 18.2322 19.8715 17.25 18.66 17.25H13.1469Z" fill="white"/>
<path d="M13.1469 26.2811C11.9353 26.2811 10.9531 27.2633 10.9531 28.4749C10.9531 29.6865 11.9353 30.6686 13.1469 30.6686H30.3753C31.5869 30.6686 32.569 29.6865 32.569 28.4749C32.569 27.2633 31.5869 26.2811 30.3753 26.2811H13.1469Z" fill="white"/>
</svg>
