<svg width="141" height="140" viewBox="0 0 141 140" fill="none" xmlns="http://www.w3.org/2000/svg">
<rect x="0.5" width="140" height="140" rx="70" fill="#F5EBFB"/>
<path d="M54 53.4341C54 59.6799 60.6321 66.2857 65.4869 70.2845C67.6846 72.0948 68.7835 73 70.5 73C72.2165 73 73.3154 72.0949 75.5132 70.2846C80.368 66.2857 87 59.6799 87 53.434C87 43.5822 77.9247 39.1044 70.5 47.1646C63.0753 39.1044 54 43.5825 54 53.4341Z" fill="#6D0CA6"/>
<path d="M67.5757 55.8017C67.7116 55.5899 67.8245 55.4141 67.925 55.2635C68.01 55.425 68.1049 55.613 68.2191 55.8396L70.8153 60.9888C71.0674 61.4891 71.3146 61.9796 71.5628 62.3357C71.8284 62.7166 72.2954 63.2386 73.0439 63.254C73.7924 63.2693 74.2771 62.7668 74.5556 62.397C74.8159 62.0514 75.0798 61.5713 75.3489 61.0817L75.433 60.9289C75.7682 60.3194 75.9792 59.9384 76.166 59.6632C76.3381 59.4096 76.4375 59.3269 76.5117 59.2811C76.5859 59.2353 76.702 59.1849 76.9899 59.1544C77.3023 59.1212 77.7103 59.1199 78.3618 59.1199H79.5784C80.2072 59.1199 80.717 58.5638 80.717 57.8779C80.717 57.192 80.2072 56.636 79.5784 56.636L78.3128 56.636C77.7251 56.6359 77.2053 56.6359 76.7696 56.6821C76.2973 56.7322 75.8376 56.843 75.3898 57.1196C74.9419 57.3962 74.6183 57.7692 74.3359 58.1852C74.0755 58.569 73.8081 59.0551 73.5058 59.6048L73.5057 59.6049L73.4336 59.7361C73.3019 59.9754 73.1922 60.1749 73.094 60.346C73.0018 60.171 72.899 59.9672 72.7756 59.7226L70.1806 54.5758C69.9467 54.1115 69.7136 53.6489 69.4772 53.3098C69.2189 52.9393 68.776 52.4495 68.0663 52.4077C67.3566 52.3659 66.868 52.8009 66.5746 53.1389C66.3061 53.4482 66.0287 53.8807 65.7503 54.3149L65.2806 55.0468C64.9358 55.5841 64.7196 55.9189 64.5325 56.1604C64.3603 56.3827 64.2645 56.4555 64.1938 56.4956C64.1232 56.5358 64.0136 56.5796 63.7479 56.606C63.4592 56.6348 63.0838 56.636 62.4825 56.636H61.3622C60.7334 56.636 60.2236 57.192 60.2236 57.8779C60.2236 58.5638 60.7334 59.1199 61.3622 59.1199L62.5282 59.1199H62.5282C63.0701 59.1199 63.5504 59.1199 63.9549 59.0796C64.3938 59.0359 64.8218 58.9394 65.2454 58.6988C65.669 58.4582 65.987 58.131 66.2714 57.764C66.5337 57.4256 66.8091 56.9963 67.1199 56.512L67.5757 55.8017Z" fill="white"/>
<path d="M52.1367 98.0537H51.3015C48.272 98.0537 46.7573 98.0537 45.8161 97.1126C44.875 96.1715 44.875 94.6567 44.875 91.6273V88.0544C44.875 86.3883 44.875 85.5552 45.3029 84.8113C45.7309 84.0673 46.3765 83.6918 47.6676 82.9409C56.1681 77.9969 68.2402 75.2138 76.2974 80.0195C76.8388 80.3424 77.3256 80.7321 77.7417 81.1995C79.535 83.2138 79.4043 86.2539 77.3375 88.0577C76.9011 88.4387 76.4359 88.7275 75.9674 88.8279C76.3524 88.7833 76.7214 88.7322 77.0735 88.676C80.002 88.2089 82.4603 86.644 84.7108 84.9439L90.5178 80.5573C92.5649 79.0108 95.6033 79.0105 97.6509 80.5566C99.4942 81.9484 100.058 84.2401 98.8924 86.1081C97.5334 88.2865 95.6187 91.0733 93.7802 92.7761C91.939 94.4814 89.198 96.0037 86.9603 97.0838C84.4815 98.2803 81.743 98.9697 78.9576 99.4205C73.3084 100.335 67.4209 100.195 61.8291 99.0434C58.6679 98.3921 55.3848 98.0537 52.1367 98.0537Z" fill="#CC7DFA"/>
</svg>
