<svg width="600" height="180" viewBox="0 0 600 180" fill="none" xmlns="http://www.w3.org/2000/svg">
<path fill-rule="evenodd" clip-rule="evenodd" d="M136 5.5C133.791 5.5 132 7.29086 132 9.5V41.5C132 43.7091 133.791 45.5 136 45.5H219.5C221.709 45.5 223.5 43.7091 223.5 41.5V9.5C223.5 7.29086 221.709 5.5 219.5 5.5H136ZM110.5 48.5C108.291 48.5 106.5 50.2909 106.5 52.5V84.5C106.5 86.7091 108.291 88.5 110.5 88.5H245C247.209 88.5 249 86.7091 249 84.5V52.5C249 50.2909 247.209 48.5 245 48.5H110.5ZM81 95.5C81 93.2909 82.7909 91.5 85 91.5H270C272.209 91.5 274 93.2909 274 95.5V127.5C274 129.709 272.209 131.5 270 131.5H85C82.7909 131.5 81 129.709 81 127.5V95.5ZM59.5 134.5C57.2909 134.5 55.5 136.291 55.5 138.5V170.5C55.5 172.709 57.2909 174.5 59.5 174.5H295.5C297.709 174.5 299.5 172.709 299.5 170.5V138.5C299.5 136.291 297.709 134.5 295.5 134.5H59.5Z" fill="url(#paint0_linear_4438_9520)"/>
<path d="M164.892 27.735H167.898V28.572H163.938V21.93H164.892V27.735ZM170.458 28.599C170.056 28.599 169.699 28.509 169.387 28.329C169.075 28.143 168.829 27.888 168.649 27.564C168.475 27.234 168.388 26.862 168.388 26.448C168.388 26.028 168.475 25.656 168.649 25.332C168.829 25.002 169.075 24.747 169.387 24.567C169.699 24.381 170.056 24.288 170.458 24.288C171.016 24.288 171.433 24.429 171.709 24.711C171.985 24.987 172.162 25.233 172.24 25.449C172.366 25.743 172.429 26.094 172.429 26.502C172.429 26.61 172.426 26.688 172.42 26.736C172.42 26.778 172.42 26.805 172.42 26.817H169.324C169.378 27.105 169.513 27.339 169.729 27.519C169.945 27.699 170.188 27.789 170.458 27.789C170.764 27.789 171.001 27.729 171.169 27.609C171.337 27.489 171.457 27.369 171.529 27.249L172.294 27.591C172.174 27.867 171.955 28.104 171.637 28.302C171.325 28.5 170.932 28.599 170.458 28.599ZM171.52 26.061C171.472 25.773 171.361 25.542 171.187 25.368C171.013 25.188 170.77 25.098 170.458 25.098C170.176 25.098 169.93 25.188 169.72 25.368C169.51 25.548 169.378 25.779 169.324 26.061H171.52ZM175.444 28.581H174.616L172.816 24.288H173.86L175.03 27.294L176.209 24.288H177.262L175.444 28.581ZM179.678 28.599C179.276 28.599 178.919 28.509 178.607 28.329C178.295 28.143 178.049 27.888 177.869 27.564C177.695 27.234 177.608 26.862 177.608 26.448C177.608 26.028 177.695 25.656 177.869 25.332C178.049 25.002 178.295 24.747 178.607 24.567C178.919 24.381 179.276 24.288 179.678 24.288C180.236 24.288 180.653 24.429 180.929 24.711C181.205 24.987 181.382 25.233 181.46 25.449C181.586 25.743 181.649 26.094 181.649 26.502C181.649 26.61 181.646 26.688 181.64 26.736C181.64 26.778 181.64 26.805 181.64 26.817H178.544C178.598 27.105 178.733 27.339 178.949 27.519C179.165 27.699 179.408 27.789 179.678 27.789C179.984 27.789 180.221 27.729 180.389 27.609C180.557 27.489 180.677 27.369 180.749 27.249L181.514 27.591C181.394 27.867 181.175 28.104 180.857 28.302C180.545 28.5 180.152 28.599 179.678 28.599ZM180.74 26.061C180.692 25.773 180.581 25.542 180.407 25.368C180.233 25.188 179.99 25.098 179.678 25.098C179.396 25.098 179.15 25.188 178.94 25.368C178.73 25.548 178.598 25.779 178.544 26.061H180.74ZM183.539 22.146V28.572H182.585V22.146H183.539ZM190.503 26.007H191.331V26.835H190.503V28.527H189.549V26.835H186.732L186.642 26.007L189.594 21.975H190.503V26.007ZM189.549 26.007V23.568L187.776 26.007H189.549Z" fill="white"/>
<path d="M164.769 70.735H167.775V71.572H163.815V64.93H164.769V70.735ZM170.336 71.599C169.934 71.599 169.577 71.509 169.265 71.329C168.953 71.143 168.707 70.888 168.527 70.564C168.353 70.234 168.266 69.862 168.266 69.448C168.266 69.028 168.353 68.656 168.527 68.332C168.707 68.002 168.953 67.747 169.265 67.567C169.577 67.381 169.934 67.288 170.336 67.288C170.894 67.288 171.311 67.429 171.587 67.711C171.863 67.987 172.04 68.233 172.118 68.449C172.244 68.743 172.307 69.094 172.307 69.502C172.307 69.61 172.304 69.688 172.298 69.736C172.298 69.778 172.298 69.805 172.298 69.817H169.202C169.256 70.105 169.391 70.339 169.607 70.519C169.823 70.699 170.066 70.789 170.336 70.789C170.642 70.789 170.879 70.729 171.047 70.609C171.215 70.489 171.335 70.369 171.407 70.249L172.172 70.591C172.052 70.867 171.833 71.104 171.515 71.302C171.203 71.5 170.81 71.599 170.336 71.599ZM171.398 69.061C171.35 68.773 171.239 68.542 171.065 68.368C170.891 68.188 170.648 68.098 170.336 68.098C170.054 68.098 169.808 68.188 169.598 68.368C169.388 68.548 169.256 68.779 169.202 69.061H171.398ZM175.321 71.581H174.493L172.693 67.288H173.737L174.907 70.294L176.086 67.288H177.139L175.321 71.581ZM179.556 71.599C179.154 71.599 178.797 71.509 178.485 71.329C178.173 71.143 177.927 70.888 177.747 70.564C177.573 70.234 177.486 69.862 177.486 69.448C177.486 69.028 177.573 68.656 177.747 68.332C177.927 68.002 178.173 67.747 178.485 67.567C178.797 67.381 179.154 67.288 179.556 67.288C180.114 67.288 180.531 67.429 180.807 67.711C181.083 67.987 181.26 68.233 181.338 68.449C181.464 68.743 181.527 69.094 181.527 69.502C181.527 69.61 181.524 69.688 181.518 69.736C181.518 69.778 181.518 69.805 181.518 69.817H178.422C178.476 70.105 178.611 70.339 178.827 70.519C179.043 70.699 179.286 70.789 179.556 70.789C179.862 70.789 180.099 70.729 180.267 70.609C180.435 70.489 180.555 70.369 180.627 70.249L181.392 70.591C181.272 70.867 181.053 71.104 180.735 71.302C180.423 71.5 180.03 71.599 179.556 71.599ZM180.618 69.061C180.57 68.773 180.459 68.542 180.285 68.368C180.111 68.188 179.868 68.098 179.556 68.098C179.274 68.098 179.028 68.188 178.818 68.368C178.608 68.548 178.476 68.779 178.422 69.061H180.618ZM183.416 65.146V71.572H182.462V65.146H183.416ZM190.003 68.143C190.291 68.311 190.522 68.539 190.696 68.827C190.87 69.109 190.957 69.391 190.957 69.673C190.957 70.039 190.861 70.369 190.669 70.663C190.483 70.951 190.222 71.176 189.886 71.338C189.55 71.5 189.166 71.581 188.734 71.581C188.308 71.581 187.927 71.497 187.591 71.329C187.255 71.161 186.991 70.93 186.799 70.636C186.613 70.336 186.52 69.997 186.52 69.619H187.474C187.474 69.949 187.591 70.219 187.825 70.429C188.059 70.633 188.362 70.735 188.734 70.735C189.112 70.735 189.421 70.633 189.661 70.429C189.907 70.219 190.03 69.949 190.03 69.619C190.03 69.301 189.91 69.043 189.67 68.845C189.43 68.641 189.124 68.539 188.752 68.539H188.284V67.738H188.761C189.103 67.738 189.382 67.648 189.598 67.468C189.82 67.282 189.931 67.045 189.931 66.757C189.931 66.463 189.826 66.226 189.616 66.046C189.406 65.86 189.133 65.767 188.797 65.767C188.467 65.767 188.197 65.86 187.987 66.046C187.777 66.232 187.672 66.472 187.672 66.766H186.718C186.718 66.406 186.805 66.088 186.979 65.812C187.159 65.53 187.405 65.311 187.717 65.155C188.035 64.999 188.395 64.921 188.797 64.921C189.193 64.921 189.547 64.999 189.859 65.155C190.171 65.305 190.414 65.515 190.588 65.785C190.768 66.055 190.858 66.361 190.858 66.703C190.858 66.961 190.78 67.225 190.624 67.495C190.468 67.759 190.261 67.975 190.003 68.143Z" fill="white"/>
<path d="M164.835 113.735H167.841V114.572H163.881V107.93H164.835V113.735ZM170.402 114.599C170 114.599 169.643 114.509 169.331 114.329C169.019 114.143 168.773 113.888 168.593 113.564C168.419 113.234 168.332 112.862 168.332 112.448C168.332 112.028 168.419 111.656 168.593 111.332C168.773 111.002 169.019 110.747 169.331 110.567C169.643 110.381 170 110.288 170.402 110.288C170.96 110.288 171.377 110.429 171.653 110.711C171.929 110.987 172.106 111.233 172.184 111.449C172.31 111.743 172.373 112.094 172.373 112.502C172.373 112.61 172.37 112.688 172.364 112.736C172.364 112.778 172.364 112.805 172.364 112.817H169.268C169.322 113.105 169.457 113.339 169.673 113.519C169.889 113.699 170.132 113.789 170.402 113.789C170.708 113.789 170.945 113.729 171.113 113.609C171.281 113.489 171.401 113.369 171.473 113.249L172.238 113.591C172.118 113.867 171.899 114.104 171.581 114.302C171.269 114.5 170.876 114.599 170.402 114.599ZM171.464 112.061C171.416 111.773 171.305 111.542 171.131 111.368C170.957 111.188 170.714 111.098 170.402 111.098C170.12 111.098 169.874 111.188 169.664 111.368C169.454 111.548 169.322 111.779 169.268 112.061H171.464ZM175.387 114.581H174.559L172.759 110.288H173.803L174.973 113.294L176.152 110.288H177.205L175.387 114.581ZM179.621 114.599C179.219 114.599 178.862 114.509 178.55 114.329C178.238 114.143 177.992 113.888 177.812 113.564C177.638 113.234 177.551 112.862 177.551 112.448C177.551 112.028 177.638 111.656 177.812 111.332C177.992 111.002 178.238 110.747 178.55 110.567C178.862 110.381 179.219 110.288 179.621 110.288C180.179 110.288 180.596 110.429 180.872 110.711C181.148 110.987 181.325 111.233 181.403 111.449C181.529 111.743 181.592 112.094 181.592 112.502C181.592 112.61 181.589 112.688 181.583 112.736C181.583 112.778 181.583 112.805 181.583 112.817H178.487C178.541 113.105 178.676 113.339 178.892 113.519C179.108 113.699 179.351 113.789 179.621 113.789C179.927 113.789 180.164 113.729 180.332 113.609C180.5 113.489 180.62 113.369 180.692 113.249L181.457 113.591C181.337 113.867 181.118 114.104 180.8 114.302C180.488 114.5 180.095 114.599 179.621 114.599ZM180.683 112.061C180.635 111.773 180.524 111.542 180.35 111.368C180.176 111.188 179.933 111.098 179.621 111.098C179.339 111.098 179.093 111.188 178.883 111.368C178.673 111.548 178.541 111.779 178.487 112.061H180.683ZM183.482 108.146V114.572H182.528V108.146H183.482ZM186.721 113.69C186.847 113.564 187.006 113.417 187.198 113.249C187.39 113.081 187.537 112.949 187.639 112.853C188.125 112.421 188.512 112.064 188.8 111.782C189.088 111.494 189.331 111.2 189.529 110.9C189.727 110.6 189.826 110.315 189.826 110.045C189.826 109.673 189.718 109.37 189.502 109.136C189.292 108.902 189.022 108.785 188.692 108.785C188.434 108.785 188.188 108.869 187.954 109.037C187.726 109.205 187.552 109.421 187.432 109.685L186.595 109.316C186.775 108.902 187.06 108.566 187.45 108.308C187.846 108.044 188.26 107.912 188.692 107.912C189.1 107.912 189.46 108.002 189.772 108.182C190.09 108.362 190.336 108.614 190.51 108.938C190.69 109.262 190.78 109.631 190.78 110.045C190.78 110.453 190.657 110.858 190.411 111.26C190.171 111.662 189.88 112.031 189.538 112.367C189.196 112.703 188.755 113.102 188.215 113.564L188.071 113.69H190.888V114.527H186.811L186.721 113.69Z" fill="white"/>
<path d="M165.797 156.735H168.803V157.572H164.843V150.93H165.797V156.735ZM171.364 157.599C170.962 157.599 170.605 157.509 170.293 157.329C169.981 157.143 169.735 156.888 169.555 156.564C169.381 156.234 169.294 155.862 169.294 155.448C169.294 155.028 169.381 154.656 169.555 154.332C169.735 154.002 169.981 153.747 170.293 153.567C170.605 153.381 170.962 153.288 171.364 153.288C171.922 153.288 172.339 153.429 172.615 153.711C172.891 153.987 173.068 154.233 173.146 154.449C173.272 154.743 173.335 155.094 173.335 155.502C173.335 155.61 173.332 155.688 173.326 155.736C173.326 155.778 173.326 155.805 173.326 155.817H170.23C170.284 156.105 170.419 156.339 170.635 156.519C170.851 156.699 171.094 156.789 171.364 156.789C171.67 156.789 171.907 156.729 172.075 156.609C172.243 156.489 172.363 156.369 172.435 156.249L173.2 156.591C173.08 156.867 172.861 157.104 172.543 157.302C172.231 157.5 171.838 157.599 171.364 157.599ZM172.426 155.061C172.378 154.773 172.267 154.542 172.093 154.368C171.919 154.188 171.676 154.098 171.364 154.098C171.082 154.098 170.836 154.188 170.626 154.368C170.416 154.548 170.284 154.779 170.23 155.061H172.426ZM176.349 157.581H175.521L173.721 153.288H174.765L175.935 156.294L177.114 153.288H178.167L176.349 157.581ZM180.583 157.599C180.181 157.599 179.824 157.509 179.512 157.329C179.2 157.143 178.954 156.888 178.774 156.564C178.6 156.234 178.513 155.862 178.513 155.448C178.513 155.028 178.6 154.656 178.774 154.332C178.954 154.002 179.2 153.747 179.512 153.567C179.824 153.381 180.181 153.288 180.583 153.288C181.141 153.288 181.558 153.429 181.834 153.711C182.11 153.987 182.287 154.233 182.365 154.449C182.491 154.743 182.554 155.094 182.554 155.502C182.554 155.61 182.551 155.688 182.545 155.736C182.545 155.778 182.545 155.805 182.545 155.817H179.449C179.503 156.105 179.638 156.339 179.854 156.519C180.07 156.699 180.313 156.789 180.583 156.789C180.889 156.789 181.126 156.729 181.294 156.609C181.462 156.489 181.582 156.369 181.654 156.249L182.419 156.591C182.299 156.867 182.08 157.104 181.762 157.302C181.45 157.5 181.057 157.599 180.583 157.599ZM181.645 155.061C181.597 154.773 181.486 154.542 181.312 154.368C181.138 154.188 180.895 154.098 180.583 154.098C180.301 154.098 180.055 154.188 179.845 154.368C179.635 154.548 179.503 154.779 179.449 155.061H181.645ZM184.444 151.146V157.572H183.49V151.146H184.444ZM189.986 157.527L189.032 157.518V152.001L187.88 152.64L187.484 151.839L189.041 150.984H189.986V157.527Z" fill="white"/>
<path d="M360.944 23.8142H360.04L359.448 22.2062H357.024L356.408 23.8142H355.504L357.736 17.9102H358.752L360.944 23.8142ZM359.168 21.4702L358.248 18.9822L357.296 21.4702H359.168ZM362.863 17.9102V23.8142H362.015V17.9102H362.863ZM366.556 22.8542V21.6862H364.548V19.3502H368.604V18.4542H364.532V17.7582H369.476V20.0462H365.412V20.9822H369.636V21.6862H367.428V22.8542H370.228V23.5662H363.78V22.8542H366.556ZM378.488 17.2622V24.4062H377.608V17.2622H378.488ZM372.984 17.8542H373.856V19.6382H375.56V17.8542H376.424V22.7182H372.984V17.8542ZM375.56 22.0142V20.3262H373.856V22.0142H375.56ZM386.056 22.7822V23.5022H379.608V22.7822H386.056ZM379.88 20.9742C380.355 20.8996 380.781 20.7502 381.16 20.5262C381.539 20.3022 381.835 20.0329 382.048 19.7182C382.261 19.3982 382.368 19.0649 382.368 18.7182V18.6142H380.144V17.9102H385.504V18.6142H383.28V18.7182C383.28 19.0649 383.387 19.3956 383.6 19.7102C383.819 20.0196 384.12 20.2836 384.504 20.5022C384.888 20.7209 385.32 20.8676 385.8 20.9422L385.456 21.6462C384.853 21.5342 384.323 21.3262 383.864 21.0222C383.405 20.7182 383.061 20.3449 382.832 19.9022C382.603 20.3502 382.259 20.7289 381.8 21.0382C381.347 21.3476 380.824 21.5609 380.232 21.6782L379.88 20.9742ZM392.496 17.2702V24.3902H391.624V17.2702H392.496ZM387 17.9582H387.872V21.8542C389.029 21.8329 390.072 21.7289 391 21.5422L391.104 22.2782C390.016 22.4969 388.853 22.6062 387.616 22.6062H387V17.9582ZM397.248 17.7102V18.2382C397.248 18.6062 397.358 18.9636 397.576 19.3102C397.795 19.6569 398.096 19.9556 398.48 20.2062C398.87 20.4516 399.304 20.6169 399.784 20.7022L399.4 21.4302C398.808 21.3129 398.28 21.0862 397.816 20.7502C397.358 20.4089 397.014 19.9982 396.784 19.5182C396.55 19.9929 396.2 20.4009 395.736 20.7422C395.278 21.0836 394.755 21.3129 394.168 21.4302L393.792 20.7022C394.267 20.6169 394.696 20.4489 395.08 20.1982C395.47 19.9476 395.774 19.6489 395.992 19.3022C396.211 18.9556 396.32 18.6009 396.32 18.2382V17.7102H397.248ZM393.592 22.7662H400.04V23.4862H393.592V22.7662ZM407.033 20.5182V21.1582H400.585V20.5182H407.033ZM401.321 21.5982H406.249V23.2222H402.209V23.7182H406.457V24.3262H401.337V22.6542H405.385V22.2062H401.321V21.5982ZM401.385 17.4302H406.225V19.0382H402.257V19.4942H406.361V20.1102H401.401V18.4702H405.361V18.0382H401.385V17.4302ZM410.996 17.9262V17.2142H411.884V17.9262H413.372V18.6302H409.428V17.9262H410.996ZM409.788 20.2702C409.788 20.0089 409.858 19.7769 409.996 19.5742C410.14 19.3662 410.338 19.2062 410.588 19.0942C410.839 18.9769 411.119 18.9182 411.428 18.9182C411.743 18.9182 412.026 18.9769 412.276 19.0942C412.527 19.2062 412.722 19.3662 412.86 19.5742C413.004 19.7769 413.076 20.0089 413.076 20.2702C413.076 20.5316 413.004 20.7662 412.86 20.9742C412.722 21.1769 412.527 21.3369 412.276 21.4542C412.026 21.5716 411.743 21.6302 411.428 21.6302C411.119 21.6302 410.839 21.5716 410.588 21.4542C410.338 21.3369 410.14 21.1769 409.996 20.9742C409.858 20.7662 409.788 20.5316 409.788 20.2702ZM410.516 22.1582H415.324V24.3982H414.444V22.8542H410.516V22.1582ZM410.612 20.2702C410.612 20.4782 410.687 20.6436 410.836 20.7662C410.986 20.8889 411.183 20.9502 411.428 20.9502C411.674 20.9502 411.874 20.8889 412.028 20.7662C412.183 20.6436 412.26 20.4782 412.26 20.2702C412.26 20.0622 412.183 19.8969 412.028 19.7742C411.874 19.6516 411.674 19.5902 411.428 19.5902C411.183 19.5902 410.986 19.6516 410.836 19.7742C410.687 19.8969 410.612 20.0622 410.612 20.2702ZM413.404 20.2862H414.444V19.6302H413.42V18.9262H414.444V17.2782H415.324V21.7982H414.444V20.9902H413.404V20.2862ZM422.285 17.2782V22.4702H421.405V17.2782H422.285ZM416.421 20.7982C416.97 20.5956 417.394 20.2729 417.693 19.8302C417.997 19.3822 418.149 18.8969 418.149 18.3742V17.6622H419.037V18.3742C419.037 18.8809 419.183 19.3449 419.477 19.7662C419.775 20.1876 420.197 20.4889 420.741 20.6702L420.285 21.3742C419.89 21.2302 419.551 21.0249 419.269 20.7582C418.986 20.4862 418.765 20.1636 418.605 19.7902C418.445 20.1902 418.218 20.5369 417.925 20.8302C417.631 21.1236 417.279 21.3449 416.869 21.4942L416.421 20.7982ZM417.613 21.9822H418.493V23.5502H422.485V24.2542H417.613V21.9822ZM428.949 17.2782V20.1102H430.029V20.8382H428.949V24.3982H428.069V17.2782H428.949ZM423.365 18.3582H425.021V17.3822H425.909V18.3582H427.541V19.0622H423.365V18.3582ZM423.693 21.2142C423.693 20.8942 423.77 20.6062 423.925 20.3502C424.079 20.0942 424.29 19.8969 424.557 19.7582C424.829 19.6142 425.133 19.5422 425.469 19.5422C425.81 19.5422 426.117 19.6142 426.389 19.7582C426.661 19.8969 426.871 20.0942 427.021 20.3502C427.175 20.6009 427.253 20.8889 427.253 21.2142C427.253 21.5396 427.175 21.8302 427.021 22.0862C426.866 22.3369 426.653 22.5342 426.381 22.6782C426.114 22.8169 425.81 22.8862 425.469 22.8862C425.133 22.8862 424.829 22.8169 424.557 22.6782C424.29 22.5342 424.079 22.3342 423.925 22.0782C423.77 21.8222 423.693 21.5342 423.693 21.2142ZM424.541 21.2142C424.541 21.5022 424.626 21.7342 424.797 21.9102C424.967 22.0809 425.191 22.1662 425.469 22.1662C425.746 22.1662 425.97 22.0809 426.141 21.9102C426.317 21.7342 426.405 21.5022 426.405 21.2142C426.405 20.9262 426.317 20.6942 426.141 20.5182C425.97 20.3422 425.746 20.2542 425.469 20.2542C425.197 20.2542 424.973 20.3422 424.797 20.5182C424.626 20.6942 424.541 20.9262 424.541 21.2142ZM436.157 17.9182V18.6062C436.157 19.2142 436.141 19.7636 436.109 20.2542C436.082 20.7449 436.01 21.3182 435.893 21.9742L435.005 21.8782C435.128 21.2702 435.202 20.7262 435.229 20.2462C435.261 19.7609 435.277 19.2222 435.277 18.6302H431.061V17.9182H436.157ZM430.397 22.7582H432.765V20.2782H433.637V22.7582H436.837V23.4782H430.397V22.7582ZM445.121 17.2702V24.3902H444.241V17.2702H445.121ZM439.273 22.4462C440.18 22.0089 440.86 21.4862 441.313 20.8782C441.766 20.2702 442.033 19.5529 442.113 18.7262H439.625V18.0142H443.017C443.017 19.1556 442.764 20.1529 442.257 21.0062C441.75 21.8596 440.908 22.5716 439.729 23.1422L439.273 22.4462ZM452.097 17.2782V24.3982H451.225V17.2782H452.097ZM446.257 22.4222C447.046 22.4222 447.662 22.4169 448.105 22.4062V21.7422C447.705 21.6782 447.388 21.5316 447.153 21.3022C446.918 21.0676 446.801 20.7822 446.801 20.4462C446.801 20.1849 446.873 19.9529 447.017 19.7502C447.166 19.5476 447.372 19.3929 447.633 19.2862C447.9 19.1742 448.204 19.1182 448.545 19.1182C448.886 19.1182 449.19 19.1742 449.457 19.2862C449.724 19.3929 449.929 19.5476 450.073 19.7502C450.222 19.9529 450.297 20.1849 450.297 20.4462C450.297 20.7822 450.177 21.0676 449.937 21.3022C449.702 21.5316 449.385 21.6782 448.985 21.7422V22.3742C449.689 22.3369 450.302 22.2836 450.825 22.2142L450.881 22.8462C450.193 22.9742 449.489 23.0569 448.769 23.0942C448.054 23.1262 447.252 23.1422 446.361 23.1422L446.257 22.4222ZM446.393 18.0942H448.105V17.2942H448.985V18.0942H450.697V18.7822H446.393V18.0942ZM447.633 20.4462C447.633 20.6489 447.716 20.8116 447.881 20.9342C448.052 21.0516 448.273 21.1102 448.545 21.1102C448.822 21.1102 449.044 21.0516 449.209 20.9342C449.374 20.8169 449.457 20.6542 449.457 20.4462C449.457 20.2382 449.374 20.0756 449.209 19.9582C449.044 19.8409 448.822 19.7822 448.545 19.7822C448.273 19.7822 448.052 19.8436 447.881 19.9662C447.716 20.0836 447.633 20.2436 447.633 20.4462ZM459.665 20.5182V21.1582H453.217V20.5182H459.665ZM453.953 21.5982H458.881V23.2222H454.841V23.7182H459.089V24.3262H453.969V22.6542H458.017V22.2062H453.953V21.5982ZM454.017 17.4302H458.857V19.0382H454.889V19.4942H458.993V20.1102H454.033V18.4702H457.993V18.0382H454.017V17.4302ZM463.725 18.0542V17.2462H464.597V18.0542H466.069V18.7582H464.597V18.7902C464.597 19.2009 464.741 19.5742 465.029 19.9102C465.323 20.2462 465.739 20.4889 466.277 20.6382L465.877 21.3182C465.483 21.2062 465.141 21.0409 464.853 20.8222C464.571 20.5982 464.347 20.3316 464.181 20.0222C464.021 20.3689 463.795 20.6702 463.501 20.9262C463.208 21.1769 462.856 21.3662 462.445 21.4942L462.029 20.8142C462.568 20.6542 462.984 20.3902 463.277 20.0222C463.576 19.6542 463.725 19.2436 463.725 18.7902V18.7582H462.253V18.0542H463.725ZM462.941 23.0622C462.941 22.6462 463.152 22.3236 463.573 22.0942C464 21.8596 464.584 21.7422 465.325 21.7422C466.067 21.7422 466.648 21.8596 467.069 22.0942C467.491 22.3236 467.701 22.6462 467.701 23.0622C467.701 23.4782 467.491 23.8009 467.069 24.0302C466.648 24.2649 466.067 24.3822 465.325 24.3822C464.584 24.3822 464 24.2649 463.573 24.0302C463.152 23.8009 462.941 23.4782 462.941 23.0622ZM463.813 23.0622C463.813 23.2756 463.941 23.4382 464.197 23.5502C464.459 23.6622 464.835 23.7182 465.325 23.7182C465.805 23.7182 466.176 23.6622 466.437 23.5502C466.704 23.4382 466.837 23.2756 466.837 23.0622C466.837 22.8542 466.707 22.6942 466.445 22.5822C466.184 22.4702 465.811 22.4142 465.325 22.4142C464.835 22.4142 464.459 22.4702 464.197 22.5822C463.941 22.6889 463.813 22.8489 463.813 23.0622ZM466.741 17.2782H467.621V19.0142H468.613V19.7422H467.621V21.5902H466.741V17.2782ZM475.469 20.3502V20.9982H472.693V21.5182H474.677V23.1982H470.669V23.6862H474.877V24.3342H469.813V22.5982H473.813V22.1582H469.789V21.5182H471.813V20.9982H469.053V20.3502H475.469ZM469.333 19.4542C470.016 19.4276 470.565 19.3289 470.981 19.1582C471.397 18.9822 471.651 18.7636 471.741 18.5022H469.677V17.8542H471.813V17.2542H472.701V17.8542H474.845V18.5022H472.773C472.864 18.7636 473.117 18.9822 473.533 19.1582C473.949 19.3289 474.499 19.4276 475.181 19.4542L474.933 20.1182C474.288 20.0756 473.736 19.9716 473.277 19.8062C472.824 19.6356 472.485 19.4089 472.261 19.1262C472.037 19.4089 471.696 19.6356 471.237 19.8062C470.779 19.9716 470.227 20.0756 469.581 20.1182L469.333 19.4542ZM481.606 17.2622V18.8542H482.598V19.5742H481.606V21.1342H480.726V17.2622H481.606ZM476.046 17.8382H477.702V17.2062H478.582V17.8382H480.238V18.5102H476.046V17.8382ZM476.414 19.9022C476.414 19.5449 476.568 19.2622 476.878 19.0542C477.192 18.8409 477.614 18.7342 478.142 18.7342C478.664 18.7342 479.083 18.8409 479.398 19.0542C479.718 19.2622 479.878 19.5449 479.878 19.9022C479.878 20.2596 479.718 20.5422 479.398 20.7502C479.083 20.9582 478.664 21.0622 478.142 21.0622C477.614 21.0622 477.192 20.9582 476.878 20.7502C476.568 20.5422 476.414 20.2596 476.414 19.9022ZM476.982 21.4542H481.606V23.1742H477.862V23.6782H481.838V24.3342H476.998V22.5662H480.742V22.1022H476.982V21.4542ZM477.254 19.9022C477.254 20.0729 477.331 20.2062 477.486 20.3022C477.646 20.3929 477.864 20.4382 478.142 20.4382C478.419 20.4382 478.635 20.3929 478.79 20.3022C478.95 20.2062 479.03 20.0729 479.03 19.9022C479.03 19.7316 478.95 19.6009 478.79 19.5102C478.635 19.4142 478.419 19.3662 478.142 19.3662C477.864 19.3662 477.646 19.4142 477.486 19.5102C477.331 19.6009 477.254 19.7316 477.254 19.9022ZM488.562 17.5022V17.8622C488.562 18.1609 488.666 18.4516 488.874 18.7342C489.082 19.0169 489.375 19.2622 489.754 19.4702C490.132 19.6729 490.564 19.8089 491.05 19.8782L490.706 20.5742C490.114 20.4836 489.588 20.2996 489.13 20.0222C488.676 19.7449 488.332 19.4036 488.098 18.9982C487.868 19.4036 487.527 19.7449 487.074 20.0222C486.62 20.2996 486.092 20.4836 485.49 20.5742L485.146 19.8782C485.631 19.8089 486.063 19.6729 486.442 19.4702C486.82 19.2676 487.114 19.0249 487.322 18.7422C487.53 18.4596 487.634 18.1662 487.634 17.8622V17.5022H488.562ZM484.874 21.1982H491.314V21.9182H488.514V24.3982H487.634V21.9182H484.874V21.1982ZM496.222 21.6222V21.9102C496.222 22.2249 496.294 22.5262 496.438 22.8142C496.582 23.0969 496.8 23.3316 497.094 23.5182C497.387 23.3156 497.608 23.0702 497.758 22.7822C497.912 22.4889 497.99 22.1982 497.99 21.9102V21.6222H498.846V21.9102C498.846 22.2996 498.963 22.6516 499.198 22.9662C499.432 23.2756 499.771 23.5022 500.214 23.6462L499.79 24.2942C499.459 24.1822 499.176 24.0169 498.942 23.7982C498.707 23.5849 498.528 23.3316 498.406 23.0382C498.283 23.3369 498.112 23.6009 497.894 23.8302C497.68 24.0596 497.422 24.2382 497.118 24.3662C496.494 24.1316 496.054 23.6969 495.798 23.0622C495.67 23.3449 495.491 23.5902 495.262 23.7982C495.038 24.0116 494.766 24.1769 494.446 24.2942L494.014 23.6462C494.456 23.4916 494.795 23.2542 495.03 22.9342C495.264 22.6142 495.382 22.2729 495.382 21.9102V21.6222H496.222ZM493.838 19.3502C493.838 19.0249 493.92 18.7342 494.086 18.4782C494.251 18.2222 494.478 18.0222 494.766 17.8782C495.054 17.7342 495.379 17.6622 495.742 17.6622C496.104 17.6622 496.43 17.7342 496.718 17.8782C497.006 18.0222 497.232 18.2222 497.398 18.4782C497.563 18.7342 497.646 19.0249 497.646 19.3502C497.646 19.6756 497.563 19.9662 497.398 20.2222C497.232 20.4782 497.006 20.6782 496.718 20.8222C496.43 20.9609 496.104 21.0302 495.742 21.0302C495.379 21.0302 495.054 20.9609 494.766 20.8222C494.478 20.6782 494.251 20.4782 494.086 20.2222C493.92 19.9662 493.838 19.6756 493.838 19.3502ZM494.694 19.3502C494.694 19.6436 494.792 19.8782 494.99 20.0542C495.187 20.2249 495.438 20.3102 495.742 20.3102C496.051 20.3102 496.302 20.2249 496.494 20.0542C496.691 19.8782 496.79 19.6436 496.79 19.3502C496.79 19.0622 496.691 18.8302 496.494 18.6542C496.302 18.4782 496.051 18.3902 495.742 18.3902C495.438 18.3902 495.187 18.4782 494.99 18.6542C494.792 18.8302 494.694 19.0622 494.694 19.3502ZM498.71 17.2782H499.598V21.3182H498.71V17.2782ZM502.398 17.5262V19.2782H506.422V19.9822H501.526V17.5262H502.398ZM500.702 20.8062H507.15V21.5102H500.702V20.8062ZM501.47 22.1262H502.342V23.5262H506.462V24.2382H501.47V22.1262ZM515.418 17.2782V22.4222H514.538V17.2782H515.418ZM509.658 19.5342C509.658 19.1929 509.74 18.8862 509.906 18.6142C510.076 18.3369 510.306 18.1236 510.594 17.9742C510.887 17.8196 511.21 17.7422 511.562 17.7422C511.919 17.7422 512.242 17.8196 512.53 17.9742C512.823 18.1236 513.052 18.3369 513.218 18.6142C513.383 18.8862 513.466 19.1929 513.466 19.5342C513.466 19.8702 513.383 20.1742 513.218 20.4462C513.052 20.7182 512.823 20.9316 512.53 21.0862C512.242 21.2409 511.919 21.3182 511.562 21.3182C511.21 21.3182 510.887 21.2409 510.594 21.0862C510.306 20.9316 510.076 20.7182 509.906 20.4462C509.74 20.1742 509.658 19.8702 509.658 19.5342ZM510.514 19.5342C510.514 19.8382 510.612 20.0836 510.81 20.2702C511.012 20.4569 511.263 20.5502 511.562 20.5502C511.86 20.5502 512.108 20.4569 512.306 20.2702C512.508 20.0836 512.61 19.8382 512.61 19.5342C512.61 19.2249 512.511 18.9769 512.314 18.7902C512.116 18.5982 511.866 18.5022 511.562 18.5022C511.258 18.5022 511.007 18.5982 510.81 18.7902C510.612 18.9769 510.514 19.2249 510.514 19.5342ZM510.746 21.9102H511.618V23.5502H515.61V24.2542H510.746V21.9102ZM522.65 17.2702V24.3902H521.81V20.7742H521.098V24.0542H520.274V17.4062H521.098V20.0622H521.81V17.2702H522.65ZM516.41 22.3262C516.906 22.0329 517.271 21.6062 517.506 21.0462C517.746 20.4809 517.866 19.8276 517.866 19.0862V18.7582H516.618V18.0382H519.874V18.7582H518.714V19.0862C518.714 19.7582 518.834 20.3582 519.074 20.8862C519.314 21.4142 519.682 21.8089 520.178 22.0702L519.674 22.7422C519.039 22.4009 518.586 21.8196 518.314 20.9982C518.058 21.9369 517.602 22.6036 516.946 22.9982L516.41 22.3262Z" fill="#27272A"/>
<path d="M262 5.25005L259.5 4.05668L259.5 6.94343L262 5.75005L262 5.25005ZM544.5 5.75003C544.638 5.75003 544.75 5.6381 544.75 5.50003C544.75 5.36196 544.638 5.25003 544.5 5.25003L544.5 5.75003ZM261.75 5.75005L544.5 5.75003L544.5 5.25003L261.75 5.25005L261.75 5.75005Z" fill="#71717A"/>
<path d="M402.444 66.5644H401.54L400.948 64.9564H398.524L397.908 66.5644H397.004L399.236 60.6604H400.252L402.444 66.5644ZM400.668 64.2204L399.748 61.7324L398.796 64.2204H400.668ZM404.363 60.6604V66.5644H403.515V60.6604H404.363ZM411.728 63.2684V63.9084H405.28V63.2684H411.728ZM406.016 64.3484H410.944V65.9724H406.904V66.4684H411.152V67.0764H406.032V65.4044H410.08V64.9564H406.016V64.3484ZM406.08 60.1804H410.92V61.7884H406.952V62.2444H411.056V62.8604H406.096V61.2204H410.056V60.7884H406.08V60.1804ZM419.708 60.0204V61.7564H420.668V62.4844H419.708V64.2124H418.828V60.0204H419.708ZM414.044 63.5004C414.806 63.5004 415.401 63.495 415.828 63.4844V63.1164C415.433 63.0737 415.121 62.975 414.892 62.8204C414.668 62.6604 414.556 62.455 414.556 62.2044C414.556 61.9164 414.708 61.6897 415.012 61.5244C415.321 61.3537 415.734 61.2684 416.252 61.2684C416.78 61.2684 417.196 61.351 417.5 61.5164C417.809 61.6817 417.964 61.911 417.964 62.2044C417.964 62.455 417.852 62.6604 417.628 62.8204C417.409 62.975 417.1 63.0737 416.7 63.1164V63.4524C417.356 63.4204 417.948 63.3697 418.476 63.3004L418.54 63.8364C417.873 63.9537 417.182 64.031 416.468 64.0684C415.758 64.1004 414.982 64.1164 414.14 64.1164L414.044 63.5004ZM414.228 60.5004H415.828V59.9564H416.7V60.5004H418.284V61.1004H414.228V60.5004ZM414.996 64.5004H419.708V66.0444H415.876V66.4924H419.964V67.0844H415.004V65.4924H418.844V65.0844H414.996V64.5004ZM415.388 62.2044C415.388 62.327 415.462 62.423 415.612 62.4924C415.766 62.5564 415.98 62.5884 416.252 62.5884C416.529 62.5884 416.745 62.5564 416.9 62.4924C417.054 62.423 417.132 62.327 417.132 62.2044C417.132 62.0817 417.054 61.9884 416.9 61.9244C416.745 61.855 416.529 61.8204 416.252 61.8204C415.98 61.8204 415.766 61.855 415.612 61.9244C415.462 61.9884 415.388 62.0817 415.388 62.2044ZM422.604 63.4604V62.5484C422.337 62.431 422.132 62.2844 421.988 62.1084C421.844 61.927 421.772 61.7217 421.772 61.4924C421.772 61.071 422.001 60.7404 422.46 60.5004C422.919 60.2604 423.54 60.1404 424.324 60.1404C425.108 60.1404 425.729 60.2604 426.188 60.5004C426.647 60.7404 426.876 61.071 426.876 61.4924C426.876 61.7217 426.801 61.927 426.652 62.1084C426.508 62.2897 426.3 62.439 426.028 62.5564V63.4604H427.54V64.1484H421.108V63.4604H422.604ZM421.852 65.8604C421.852 65.455 422.068 65.1404 422.5 64.9164C422.937 64.6924 423.543 64.5804 424.316 64.5804C425.084 64.5804 425.684 64.6924 426.116 64.9164C426.553 65.1404 426.772 65.455 426.772 65.8604C426.772 66.271 426.553 66.5884 426.116 66.8124C425.684 67.0364 425.084 67.1484 424.316 67.1484C423.543 67.1484 422.937 67.0364 422.5 66.8124C422.068 66.5884 421.852 66.271 421.852 65.8604ZM422.676 61.4924C422.676 61.711 422.82 61.879 423.108 61.9964C423.396 62.1137 423.801 62.1724 424.324 62.1724C424.841 62.1724 425.244 62.1137 425.532 61.9964C425.82 61.879 425.964 61.711 425.964 61.4924C425.964 61.2737 425.82 61.1057 425.532 60.9884C425.244 60.871 424.841 60.8124 424.324 60.8124C423.801 60.8124 423.396 60.871 423.108 60.9884C422.82 61.1057 422.676 61.2737 422.676 61.4924ZM422.74 65.8604C422.74 66.063 422.873 66.2177 423.14 66.3244C423.412 66.4257 423.804 66.4764 424.316 66.4764C424.828 66.4764 425.217 66.4257 425.484 66.3244C425.751 66.2177 425.884 66.063 425.884 65.8604C425.884 65.663 425.751 65.5137 425.484 65.4124C425.217 65.3057 424.828 65.2524 424.316 65.2524C423.804 65.2524 423.412 65.3057 423.14 65.4124C422.873 65.5137 422.74 65.663 422.74 65.8604ZM425.156 63.4604V62.7804C424.916 62.8177 424.639 62.8364 424.324 62.8364C423.999 62.8364 423.716 62.8177 423.476 62.7804V63.4604H425.156ZM433.644 60.0284V62.8604H434.724V63.5884H433.644V67.1484H432.764V60.0284H433.644ZM428.06 61.1084H429.716V60.1324H430.604V61.1084H432.236V61.8124H428.06V61.1084ZM428.388 63.9644C428.388 63.6444 428.465 63.3564 428.62 63.1004C428.775 62.8444 428.985 62.647 429.252 62.5084C429.524 62.3644 429.828 62.2924 430.164 62.2924C430.505 62.2924 430.812 62.3644 431.084 62.5084C431.356 62.647 431.567 62.8444 431.716 63.1004C431.871 63.351 431.948 63.639 431.948 63.9644C431.948 64.2897 431.871 64.5804 431.716 64.8364C431.561 65.087 431.348 65.2844 431.076 65.4284C430.809 65.567 430.505 65.6364 430.164 65.6364C429.828 65.6364 429.524 65.567 429.252 65.4284C428.985 65.2844 428.775 65.0844 428.62 64.8284C428.465 64.5724 428.388 64.2844 428.388 63.9644ZM429.236 63.9644C429.236 64.2524 429.321 64.4844 429.492 64.6604C429.663 64.831 429.887 64.9164 430.164 64.9164C430.441 64.9164 430.665 64.831 430.836 64.6604C431.012 64.4844 431.1 64.2524 431.1 63.9644C431.1 63.6764 431.012 63.4444 430.836 63.2684C430.665 63.0924 430.441 63.0044 430.164 63.0044C429.892 63.0044 429.668 63.0924 429.492 63.2684C429.321 63.4444 429.236 63.6764 429.236 63.9644ZM437.012 60.5324C437.332 60.5324 437.62 60.6204 437.876 60.7964C438.138 60.967 438.348 61.2124 438.508 61.5324H440.14V60.0124H441.012V67.1564H440.14V64.4684H438.564C438.41 64.8204 438.196 65.095 437.924 65.2924C437.658 65.4844 437.354 65.5804 437.012 65.5804C436.666 65.5804 436.354 65.479 436.076 65.2764C435.804 65.0684 435.591 64.7724 435.436 64.3884C435.282 64.0044 435.204 63.559 435.204 63.0524C435.204 62.5457 435.282 62.103 435.436 61.7244C435.591 61.3404 435.804 61.047 436.076 60.8444C436.354 60.6364 436.666 60.5324 437.012 60.5324ZM436.036 63.0524C436.036 63.591 436.124 64.015 436.3 64.3244C436.482 64.6337 436.719 64.7884 437.012 64.7884C437.311 64.7884 437.551 64.6337 437.732 64.3244C437.914 64.015 438.004 63.591 438.004 63.0524C438.004 62.5137 437.914 62.0924 437.732 61.7884C437.551 61.4844 437.311 61.3324 437.012 61.3324C436.719 61.3324 436.482 61.487 436.3 61.7964C436.124 62.1004 436.036 62.519 436.036 63.0524ZM438.748 62.2444C438.802 62.479 438.828 62.7484 438.828 63.0524C438.828 63.319 438.81 63.5537 438.772 63.7564H440.14V62.2444H438.748ZM445.92 60.2524C446.278 60.2524 446.6 60.3217 446.888 60.4604C447.176 60.5937 447.4 60.783 447.56 61.0284C447.726 61.2737 447.808 61.551 447.808 61.8604C447.808 62.1697 447.726 62.447 447.56 62.6924C447.4 62.9324 447.176 63.1217 446.888 63.2604C446.6 63.3937 446.278 63.4604 445.92 63.4604C445.568 63.4604 445.248 63.3937 444.96 63.2604C444.678 63.1217 444.454 62.9324 444.288 62.6924C444.128 62.447 444.048 62.1697 444.048 61.8604C444.048 61.551 444.128 61.2737 444.288 61.0284C444.454 60.783 444.678 60.5937 444.96 60.4604C445.248 60.3217 445.568 60.2524 445.92 60.2524ZM444.896 61.8604C444.896 62.1324 444.992 62.3484 445.184 62.5084C445.376 62.6684 445.622 62.7484 445.92 62.7484C446.224 62.7484 446.472 62.6684 446.664 62.5084C446.856 62.3484 446.952 62.1324 446.952 61.8604C446.952 61.5884 446.856 61.3724 446.664 61.2124C446.472 61.047 446.224 60.9644 445.92 60.9644C445.622 60.9644 445.376 61.047 445.184 61.2124C444.992 61.3724 444.896 61.5884 444.896 61.8604ZM445.12 63.9324H449.808V65.7964H445.992V66.3724H450.008V67.0604H445.136V65.1564H448.936V64.6124H445.12V63.9324ZM448.928 60.0284H449.808V63.6204H448.928V60.0284ZM454.136 60.1404C454.942 60.1404 455.568 60.2444 456.016 60.4524C456.464 60.6604 456.688 60.9617 456.688 61.3564C456.688 61.751 456.464 62.055 456.016 62.2684C455.568 62.4764 454.942 62.5804 454.136 62.5804C453.331 62.5804 452.704 62.4764 452.256 62.2684C451.808 62.055 451.584 61.751 451.584 61.3564C451.584 60.9617 451.808 60.6604 452.256 60.4524C452.704 60.2444 453.331 60.1404 454.136 60.1404ZM450.92 62.9644H457.352V63.6684H450.92V62.9644ZM451.664 64.1404H456.552V65.8844H452.544V66.4204H456.752V67.0844H451.688V65.2684H455.688V64.8044H451.664V64.1404ZM452.496 61.3564C452.496 61.7404 453.043 61.9324 454.136 61.9324C455.23 61.9324 455.776 61.7404 455.776 61.3564C455.776 61.1697 455.635 61.0284 455.352 60.9324C455.075 60.831 454.67 60.7804 454.136 60.7804C453.598 60.7804 453.19 60.831 452.912 60.9324C452.635 61.0284 452.496 61.1697 452.496 61.3564ZM465.668 60.0284V65.2844H464.788V63.4924H463.38V64.1404H460.076V60.4924H460.94V61.6444H462.516V60.4924H463.38V61.2604H464.788V60.0284H465.668ZM462.516 63.4284V62.3164H460.94V63.4284H462.516ZM461.012 64.7724H461.892V66.3004H465.828V67.0044H461.012V64.7724ZM464.788 62.7884V61.9644H463.38V62.7884H464.788ZM472.341 60.0284V62.9644H473.317V63.7004H472.341V67.1484H471.461V60.0284H472.341ZM466.669 65.1724C467.437 65.1724 468.037 65.167 468.469 65.1564V64.4844C468.079 64.4204 467.77 64.2737 467.541 64.0444C467.311 63.815 467.197 63.5324 467.197 63.1964C467.197 62.935 467.269 62.703 467.413 62.5004C467.557 62.2977 467.757 62.143 468.013 62.0364C468.274 61.9244 468.573 61.8684 468.909 61.8684C469.245 61.8684 469.541 61.9244 469.797 62.0364C470.058 62.143 470.261 62.2977 470.405 62.5004C470.554 62.703 470.629 62.935 470.629 63.1964C470.629 63.5324 470.511 63.815 470.277 64.0444C470.047 64.2737 469.738 64.4204 469.349 64.4844V65.1164C469.887 65.095 470.461 65.0444 471.069 64.9644L471.141 65.5964C470.474 65.7244 469.799 65.807 469.117 65.8444C468.439 65.8764 467.663 65.8924 466.789 65.8924L466.669 65.1724ZM466.797 60.8364H468.469V60.0524H469.349V60.8364H471.013V61.5324H466.797V60.8364ZM468.029 63.1964C468.029 63.4044 468.109 63.567 468.269 63.6844C468.429 63.8017 468.642 63.8604 468.909 63.8604C469.181 63.8604 469.397 63.8017 469.557 63.6844C469.717 63.567 469.797 63.4044 469.797 63.1964C469.797 62.9884 469.717 62.8257 469.557 62.7084C469.397 62.591 469.181 62.5324 468.909 62.5324C468.642 62.5324 468.429 62.591 468.269 62.7084C468.109 62.8257 468.029 62.9884 468.029 63.1964ZM476.405 60.6044V61.7244C476.405 62.167 476.477 62.5964 476.621 63.0124C476.765 63.4284 476.973 63.799 477.245 64.1244C477.522 64.4444 477.847 64.687 478.221 64.8524L477.709 65.5644C477.303 65.3777 476.954 65.1057 476.661 64.7484C476.367 64.3857 476.138 63.967 475.973 63.4924C475.807 64.0044 475.573 64.455 475.269 64.8444C474.97 65.2284 474.61 65.519 474.189 65.7164L473.661 64.9884C474.039 64.8177 474.367 64.5644 474.645 64.2284C474.927 63.8924 475.143 63.5084 475.293 63.0764C475.442 62.639 475.517 62.1884 475.517 61.7244V60.6044H476.405ZM478.725 60.0124H479.605V67.1564H478.725V60.0124ZM486.613 60.0284V63.7004H485.733V60.0284H486.613ZM483.445 61.5244C483.514 61.3377 483.557 61.1644 483.573 61.0044H481.221V60.3164H484.517C484.517 61.2497 484.237 62.0204 483.677 62.6284C483.122 63.231 482.29 63.6657 481.181 63.9324L480.877 63.2284C481.864 63.0097 482.581 62.655 483.029 62.1644L480.997 62.3164L480.869 61.6284L483.445 61.5244ZM481.925 64.0284H486.613V65.8364H482.797V66.4124H486.813V67.0844H481.933V65.2044H485.741V64.7004H481.925V64.0284ZM493.257 60.2524V60.6124C493.257 60.911 493.361 61.2017 493.569 61.4844C493.777 61.767 494.07 62.0124 494.449 62.2204C494.828 62.423 495.26 62.559 495.745 62.6284L495.401 63.3244C494.809 63.2337 494.284 63.0497 493.825 62.7724C493.372 62.495 493.028 62.1537 492.793 61.7484C492.564 62.1537 492.222 62.495 491.769 62.7724C491.316 63.0497 490.788 63.2337 490.185 63.3244L489.841 62.6284C490.326 62.559 490.758 62.423 491.137 62.2204C491.516 62.0177 491.809 61.775 492.017 61.4924C492.225 61.2097 492.329 60.9164 492.329 60.6124V60.2524H493.257ZM489.569 63.9484H496.009V64.6684H493.209V67.1484H492.329V64.6684H489.569V63.9484ZM500.917 64.3724V64.6604C500.917 64.975 500.989 65.2764 501.133 65.5644C501.277 65.847 501.495 66.0817 501.789 66.2684C502.082 66.0657 502.303 65.8204 502.453 65.5324C502.607 65.239 502.685 64.9484 502.685 64.6604V64.3724H503.541V64.6604C503.541 65.0497 503.658 65.4017 503.893 65.7164C504.127 66.0257 504.466 66.2524 504.909 66.3964L504.485 67.0444C504.154 66.9324 503.871 66.767 503.637 66.5484C503.402 66.335 503.223 66.0817 503.101 65.7884C502.978 66.087 502.807 66.351 502.589 66.5804C502.375 66.8097 502.117 66.9884 501.813 67.1164C501.189 66.8817 500.749 66.447 500.493 65.8124C500.365 66.095 500.186 66.3404 499.957 66.5484C499.733 66.7617 499.461 66.927 499.141 67.0444L498.709 66.3964C499.151 66.2417 499.49 66.0044 499.725 65.6844C499.959 65.3644 500.077 65.023 500.077 64.6604V64.3724H500.917ZM498.533 62.1004C498.533 61.775 498.615 61.4844 498.781 61.2284C498.946 60.9724 499.173 60.7724 499.461 60.6284C499.749 60.4844 500.074 60.4124 500.437 60.4124C500.799 60.4124 501.125 60.4844 501.413 60.6284C501.701 60.7724 501.927 60.9724 502.093 61.2284C502.258 61.4844 502.341 61.775 502.341 62.1004C502.341 62.4257 502.258 62.7164 502.093 62.9724C501.927 63.2284 501.701 63.4284 501.413 63.5724C501.125 63.711 500.799 63.7804 500.437 63.7804C500.074 63.7804 499.749 63.711 499.461 63.5724C499.173 63.4284 498.946 63.2284 498.781 62.9724C498.615 62.7164 498.533 62.4257 498.533 62.1004ZM499.389 62.1004C499.389 62.3937 499.487 62.6284 499.685 62.8044C499.882 62.975 500.133 63.0604 500.437 63.0604C500.746 63.0604 500.997 62.975 501.189 62.8044C501.386 62.6284 501.485 62.3937 501.485 62.1004C501.485 61.8124 501.386 61.5804 501.189 61.4044C500.997 61.2284 500.746 61.1404 500.437 61.1404C500.133 61.1404 499.882 61.2284 499.685 61.4044C499.487 61.5804 499.389 61.8124 499.389 62.1004ZM503.405 60.0284H504.293V64.0684H503.405V60.0284ZM507.093 60.2764V62.0284H511.117V62.7324H506.221V60.2764H507.093ZM505.397 63.5564H511.845V64.2604H505.397V63.5564ZM506.165 64.8764H507.037V66.2764H511.157V66.9884H506.165V64.8764ZM520.113 60.0284V65.1724H519.233V60.0284H520.113ZM514.353 62.2844C514.353 61.943 514.436 61.6364 514.601 61.3644C514.772 61.087 515.001 60.8737 515.289 60.7244C515.582 60.5697 515.905 60.4924 516.257 60.4924C516.614 60.4924 516.937 60.5697 517.225 60.7244C517.518 60.8737 517.748 61.087 517.913 61.3644C518.078 61.6364 518.161 61.943 518.161 62.2844C518.161 62.6204 518.078 62.9244 517.913 63.1964C517.748 63.4684 517.518 63.6817 517.225 63.8364C516.937 63.991 516.614 64.0684 516.257 64.0684C515.905 64.0684 515.582 63.991 515.289 63.8364C515.001 63.6817 514.772 63.4684 514.601 63.1964C514.436 62.9244 514.353 62.6204 514.353 62.2844ZM515.209 62.2844C515.209 62.5884 515.308 62.8337 515.505 63.0204C515.708 63.207 515.958 63.3004 516.257 63.3004C516.556 63.3004 516.804 63.207 517.001 63.0204C517.204 62.8337 517.305 62.5884 517.305 62.2844C517.305 61.975 517.206 61.727 517.009 61.5404C516.812 61.3484 516.561 61.2524 516.257 61.2524C515.953 61.2524 515.702 61.3484 515.505 61.5404C515.308 61.727 515.209 61.975 515.209 62.2844ZM515.441 64.6604H516.313V66.3004H520.305V67.0044H515.441V64.6604ZM527.345 60.0204V67.1404H526.505V63.5244H525.793V66.8044H524.969V60.1564H525.793V62.8124H526.505V60.0204H527.345ZM521.105 65.0764C521.601 64.783 521.966 64.3564 522.201 63.7964C522.441 63.231 522.561 62.5777 522.561 61.8364V61.5084H521.313V60.7884H524.569V61.5084H523.409V61.8364C523.409 62.5084 523.529 63.1084 523.769 63.6364C524.009 64.1644 524.377 64.559 524.873 64.8204L524.369 65.4924C523.734 65.151 523.281 64.5697 523.009 63.7484C522.753 64.687 522.297 65.3537 521.641 65.7484L521.105 65.0764Z" fill="#27272A"/>
<path d="M287.5 48.25L285 47.0566L285 49.9434L287.5 48.75L287.5 48.25ZM544.5 48.75C544.638 48.75 544.75 48.6381 544.75 48.5C544.75 48.362 544.638 48.25 544.5 48.25L544.5 48.75ZM287.25 48.75L544.5 48.75L544.5 48.25L287.25 48.25L287.25 48.75Z" fill="#71717A"/>
<path d="M425.944 109.565H425.04L424.448 107.957H422.024L421.408 109.565H420.504L422.736 103.661H423.752L425.944 109.565ZM424.168 107.221L423.248 104.733L422.296 107.221H424.168ZM427.863 103.661V109.565H427.015V103.661H427.863ZM435.228 106.269V106.909H428.78V106.269H435.228ZM429.516 107.349H434.444V108.973H430.404V109.469H434.652V110.077H429.532V108.405H433.58V107.957H429.516V107.349ZM429.58 103.181H434.42V104.789H430.452V105.245H434.556V105.861H429.596V104.221H433.556V103.789H429.58V103.181ZM443.16 103.013V105.773H444.2V106.501H443.16V110.141H442.272V103.013H443.16ZM437.864 103.709H438.736V107.653C439.776 107.637 440.776 107.533 441.736 107.341L441.832 108.061C440.834 108.269 439.709 108.373 438.456 108.373H437.864V103.709ZM446.896 103.509C447.264 103.509 447.595 103.583 447.888 103.733C448.181 103.877 448.411 104.082 448.576 104.349C448.747 104.61 448.832 104.906 448.832 105.237C448.832 105.567 448.747 105.866 448.576 106.133C448.411 106.394 448.181 106.599 447.888 106.749C447.595 106.893 447.264 106.965 446.896 106.965C446.528 106.965 446.195 106.893 445.896 106.749C445.603 106.599 445.371 106.394 445.2 106.133C445.035 105.871 444.952 105.573 444.952 105.237C444.952 104.906 445.035 104.61 445.2 104.349C445.371 104.082 445.603 103.877 445.896 103.733C446.195 103.583 446.528 103.509 446.896 103.509ZM444.632 107.949C445.528 107.949 446.344 107.935 447.08 107.909C447.816 107.877 448.517 107.81 449.184 107.709L449.248 108.349C448.56 108.482 447.851 108.57 447.12 108.613C446.389 108.65 445.595 108.669 444.736 108.669L444.632 107.949ZM445.808 105.237C445.808 105.53 445.909 105.767 446.112 105.949C446.32 106.125 446.581 106.213 446.896 106.213C447.211 106.213 447.469 106.125 447.672 105.949C447.875 105.767 447.976 105.53 447.976 105.237C447.976 104.943 447.875 104.709 447.672 104.533C447.469 104.357 447.211 104.269 446.896 104.269C446.576 104.269 446.315 104.357 446.112 104.533C445.909 104.709 445.808 104.943 445.808 105.237ZM449.608 103.013H450.48V110.157H449.608V103.013ZM455.436 103.253C455.793 103.253 456.116 103.322 456.404 103.461C456.692 103.594 456.916 103.783 457.076 104.029C457.241 104.274 457.324 104.551 457.324 104.861C457.324 105.17 457.241 105.447 457.076 105.693C456.916 105.933 456.692 106.122 456.404 106.261C456.116 106.394 455.793 106.461 455.436 106.461C455.084 106.461 454.764 106.394 454.476 106.261C454.193 106.122 453.969 105.933 453.804 105.693C453.644 105.447 453.564 105.17 453.564 104.861C453.564 104.551 453.644 104.274 453.804 104.029C453.969 103.783 454.193 103.594 454.476 103.461C454.764 103.322 455.084 103.253 455.436 103.253ZM454.412 104.861C454.412 105.133 454.508 105.349 454.7 105.509C454.892 105.669 455.137 105.749 455.436 105.749C455.74 105.749 455.988 105.669 456.18 105.509C456.372 105.349 456.468 105.133 456.468 104.861C456.468 104.589 456.372 104.373 456.18 104.213C455.988 104.047 455.74 103.965 455.436 103.965C455.137 103.965 454.892 104.047 454.7 104.213C454.508 104.373 454.412 104.589 454.412 104.861ZM454.636 106.933H459.324V108.797H455.508V109.373H459.524V110.061H454.652V108.157H458.452V107.613H454.636V106.933ZM458.444 103.029H459.324V106.621H458.444V103.029ZM466.516 103.021V110.141H465.684V103.021H466.516ZM460.5 106.101C460.5 105.583 460.561 105.133 460.684 104.749C460.812 104.365 460.991 104.071 461.22 103.869C461.449 103.661 461.719 103.557 462.028 103.557C462.455 103.557 462.804 103.749 463.076 104.133C463.348 104.511 463.508 105.034 463.556 105.701H464.244V103.157H465.068V109.805H464.244V106.413H463.564C463.527 107.111 463.369 107.661 463.092 108.061C462.82 108.455 462.465 108.653 462.028 108.653C461.719 108.653 461.449 108.551 461.22 108.349C460.991 108.141 460.812 107.845 460.684 107.461C460.561 107.077 460.5 106.623 460.5 106.101ZM461.3 106.101C461.3 106.655 461.364 107.082 461.492 107.381C461.62 107.679 461.799 107.829 462.028 107.829C462.263 107.829 462.444 107.679 462.572 107.381C462.7 107.082 462.764 106.655 462.764 106.101C462.764 105.546 462.7 105.122 462.572 104.829C462.444 104.535 462.263 104.389 462.028 104.389C461.799 104.389 461.62 104.538 461.492 104.837C461.364 105.13 461.3 105.551 461.3 106.101ZM474.296 104.781V103.029H475.176V107.269H474.296V105.501H473.112V104.781H474.296ZM469.248 106.501C469.792 106.314 470.213 106.013 470.512 105.597C470.816 105.181 470.968 104.727 470.968 104.237V104.157H469.496V103.453H473.32V104.157H471.856V104.237C471.856 104.69 472 105.111 472.288 105.501C472.581 105.89 472.992 106.175 473.52 106.357L473.08 107.045C472.696 106.911 472.365 106.717 472.088 106.461C471.811 106.205 471.592 105.903 471.432 105.557C471.277 105.935 471.051 106.269 470.752 106.557C470.459 106.839 470.107 107.05 469.696 107.189L469.248 106.501ZM470.368 107.613H475.176V110.149H474.296V108.325H470.368V107.613ZM477.76 106.461V105.549C477.494 105.431 477.288 105.285 477.144 105.109C477 104.927 476.928 104.722 476.928 104.493C476.928 104.071 477.158 103.741 477.616 103.501C478.075 103.261 478.696 103.141 479.48 103.141C480.264 103.141 480.886 103.261 481.344 103.501C481.803 103.741 482.032 104.071 482.032 104.493C482.032 104.722 481.958 104.927 481.808 105.109C481.664 105.29 481.456 105.439 481.184 105.557V106.461H482.696V107.149H476.264V106.461H477.76ZM477.008 108.861C477.008 108.455 477.224 108.141 477.656 107.917C478.094 107.693 478.699 107.581 479.472 107.581C480.24 107.581 480.84 107.693 481.272 107.917C481.71 108.141 481.928 108.455 481.928 108.861C481.928 109.271 481.71 109.589 481.272 109.813C480.84 110.037 480.24 110.149 479.472 110.149C478.699 110.149 478.094 110.037 477.656 109.813C477.224 109.589 477.008 109.271 477.008 108.861ZM477.832 104.493C477.832 104.711 477.976 104.879 478.264 104.997C478.552 105.114 478.958 105.173 479.48 105.173C479.998 105.173 480.4 105.114 480.688 104.997C480.976 104.879 481.12 104.711 481.12 104.493C481.12 104.274 480.976 104.106 480.688 103.989C480.4 103.871 479.998 103.813 479.48 103.813C478.958 103.813 478.552 103.871 478.264 103.989C477.976 104.106 477.832 104.274 477.832 104.493ZM477.896 108.861C477.896 109.063 478.03 109.218 478.296 109.325C478.568 109.426 478.96 109.477 479.472 109.477C479.984 109.477 480.374 109.426 480.64 109.325C480.907 109.218 481.04 109.063 481.04 108.861C481.04 108.663 480.907 108.514 480.64 108.413C480.374 108.306 479.984 108.253 479.472 108.253C478.96 108.253 478.568 108.306 478.296 108.413C478.03 108.514 477.896 108.663 477.896 108.861ZM480.312 106.461V105.781C480.072 105.818 479.795 105.837 479.48 105.837C479.155 105.837 478.872 105.818 478.632 105.781V106.461H480.312ZM488.824 103.013V104.605H489.816V105.325H488.824V106.885H487.944V103.013H488.824ZM483.264 103.589H484.92V102.957H485.8V103.589H487.456V104.261H483.264V103.589ZM483.632 105.653C483.632 105.295 483.787 105.013 484.096 104.805C484.411 104.591 484.832 104.485 485.36 104.485C485.883 104.485 486.302 104.591 486.616 104.805C486.936 105.013 487.096 105.295 487.096 105.653C487.096 106.01 486.936 106.293 486.616 106.501C486.302 106.709 485.883 106.813 485.36 106.813C484.832 106.813 484.411 106.709 484.096 106.501C483.787 106.293 483.632 106.01 483.632 105.653ZM484.2 107.205H488.824V108.925H485.08V109.429H489.056V110.085H484.216V108.317H487.96V107.853H484.2V107.205ZM484.472 105.653C484.472 105.823 484.55 105.957 484.704 106.053C484.864 106.143 485.083 106.189 485.36 106.189C485.638 106.189 485.854 106.143 486.008 106.053C486.168 105.957 486.248 105.823 486.248 105.653C486.248 105.482 486.168 105.351 486.008 105.261C485.854 105.165 485.638 105.117 485.36 105.117C485.083 105.117 484.864 105.165 484.704 105.261C484.55 105.351 484.472 105.482 484.472 105.653ZM495.78 103.253V103.613C495.78 103.911 495.884 104.202 496.092 104.485C496.3 104.767 496.594 105.013 496.972 105.221C497.351 105.423 497.783 105.559 498.268 105.629L497.924 106.325C497.332 106.234 496.807 106.05 496.348 105.773C495.895 105.495 495.551 105.154 495.316 104.749C495.087 105.154 494.746 105.495 494.292 105.773C493.839 106.05 493.311 106.234 492.708 106.325L492.364 105.629C492.85 105.559 493.282 105.423 493.66 105.221C494.039 105.018 494.332 104.775 494.54 104.493C494.748 104.21 494.852 103.917 494.852 103.613V103.253H495.78ZM492.092 106.949H498.532V107.669H495.732V110.149H494.852V107.669H492.092V106.949ZM503.44 107.373V107.661C503.44 107.975 503.512 108.277 503.656 108.565C503.8 108.847 504.019 109.082 504.312 109.269C504.606 109.066 504.827 108.821 504.976 108.533C505.131 108.239 505.208 107.949 505.208 107.661V107.373H506.064V107.661C506.064 108.05 506.182 108.402 506.416 108.717C506.651 109.026 506.99 109.253 507.432 109.397L507.008 110.045C506.678 109.933 506.395 109.767 506.16 109.549C505.926 109.335 505.747 109.082 505.624 108.789C505.502 109.087 505.331 109.351 505.112 109.581C504.899 109.81 504.64 109.989 504.336 110.117C503.712 109.882 503.272 109.447 503.016 108.813C502.888 109.095 502.71 109.341 502.48 109.549C502.256 109.762 501.984 109.927 501.664 110.045L501.232 109.397C501.675 109.242 502.014 109.005 502.248 108.685C502.483 108.365 502.6 108.023 502.6 107.661V107.373H503.44ZM501.056 105.101C501.056 104.775 501.139 104.485 501.304 104.229C501.47 103.973 501.696 103.773 501.984 103.629C502.272 103.485 502.598 103.413 502.96 103.413C503.323 103.413 503.648 103.485 503.936 103.629C504.224 103.773 504.451 103.973 504.616 104.229C504.782 104.485 504.864 104.775 504.864 105.101C504.864 105.426 504.782 105.717 504.616 105.973C504.451 106.229 504.224 106.429 503.936 106.573C503.648 106.711 503.323 106.781 502.96 106.781C502.598 106.781 502.272 106.711 501.984 106.573C501.696 106.429 501.47 106.229 501.304 105.973C501.139 105.717 501.056 105.426 501.056 105.101ZM501.912 105.101C501.912 105.394 502.011 105.629 502.208 105.805C502.406 105.975 502.656 106.061 502.96 106.061C503.27 106.061 503.52 105.975 503.712 105.805C503.91 105.629 504.008 105.394 504.008 105.101C504.008 104.813 503.91 104.581 503.712 104.405C503.52 104.229 503.27 104.141 502.96 104.141C502.656 104.141 502.406 104.229 502.208 104.405C502.011 104.581 501.912 104.813 501.912 105.101ZM505.928 103.029H506.816V107.069H505.928V103.029ZM509.616 103.277V105.029H513.64V105.733H508.744V103.277H509.616ZM507.92 106.557H514.368V107.261H507.92V106.557ZM508.688 107.877H509.56V109.277H513.68V109.989H508.688V107.877ZM522.636 103.029V108.173H521.756V103.029H522.636ZM516.876 105.285C516.876 104.943 516.959 104.637 517.124 104.365C517.295 104.087 517.524 103.874 517.812 103.725C518.106 103.57 518.428 103.493 518.78 103.493C519.138 103.493 519.46 103.57 519.748 103.725C520.042 103.874 520.271 104.087 520.436 104.365C520.602 104.637 520.684 104.943 520.684 105.285C520.684 105.621 520.602 105.925 520.436 106.197C520.271 106.469 520.042 106.682 519.748 106.837C519.46 106.991 519.138 107.069 518.78 107.069C518.428 107.069 518.106 106.991 517.812 106.837C517.524 106.682 517.295 106.469 517.124 106.197C516.959 105.925 516.876 105.621 516.876 105.285ZM517.732 105.285C517.732 105.589 517.831 105.834 518.028 106.021C518.231 106.207 518.482 106.301 518.78 106.301C519.079 106.301 519.327 106.207 519.524 106.021C519.727 105.834 519.828 105.589 519.828 105.285C519.828 104.975 519.73 104.727 519.532 104.541C519.335 104.349 519.084 104.253 518.78 104.253C518.476 104.253 518.226 104.349 518.028 104.541C517.831 104.727 517.732 104.975 517.732 105.285ZM517.964 107.661H518.836V109.301H522.828V110.005H517.964V107.661ZM529.869 103.021V110.141H529.029V106.525H528.317V109.805H527.493V103.157H528.317V105.813H529.029V103.021H529.869ZM523.629 108.077C524.125 107.783 524.49 107.357 524.725 106.797C524.965 106.231 525.085 105.578 525.085 104.837V104.509H523.837V103.789H527.093V104.509H525.933V104.837C525.933 105.509 526.053 106.109 526.293 106.637C526.533 107.165 526.901 107.559 527.397 107.821L526.893 108.493C526.258 108.151 525.805 107.57 525.533 106.749C525.277 107.687 524.821 108.354 524.165 108.749L523.629 108.077Z" fill="#27272A"/>
<path d="M313 91.25L310.5 90.0567L310.5 92.9434L313 91.75L313 91.25ZM544.5 91.75C544.638 91.75 544.75 91.6381 544.75 91.5C544.75 91.362 544.638 91.25 544.5 91.25L544.5 91.75ZM312.75 91.75L544.5 91.75L544.5 91.25L312.75 91.25L312.75 91.75Z" fill="#71717A"/>
<path d="M463.944 152.565H463.04L462.448 150.957H460.024L459.408 152.565H458.504L460.736 146.661H461.752L463.944 152.565ZM462.168 150.221L461.248 147.733L460.296 150.221H462.168ZM465.863 146.661V152.565H465.015V146.661H465.863ZM474.512 146.013V153.157H473.632V146.013H474.512ZM469 146.653H472.336V149.325H469.904V150.749C470.512 150.743 471.061 150.725 471.552 150.693C472.048 150.655 472.554 150.594 473.072 150.509L473.16 151.221C472.594 151.317 472.04 151.383 471.496 151.421C470.957 151.453 470.336 151.469 469.632 151.469H469.016V148.621H471.448V147.357H469V146.653ZM481.544 146.013V153.157H480.672V149.309H479.344V148.605H480.672V146.013H481.544ZM475.936 146.637H479.224V147.357H476.808V148.621H478.96V149.317H476.808V150.797C477.4 150.791 477.906 150.775 478.328 150.749C478.749 150.722 479.173 150.674 479.6 150.605L479.688 151.309C479.202 151.389 478.72 151.442 478.24 151.469C477.765 151.495 477.184 151.509 476.496 151.509H475.936V146.637ZM488.52 146.013V153.157H487.64V149.357H486.432V148.645H487.64V146.013H488.52ZM482.84 146.653H486.032V149.253H483.72V150.757C484.291 150.751 484.795 150.735 485.232 150.709C485.669 150.677 486.112 150.623 486.56 150.549L486.64 151.269C486.139 151.354 485.64 151.413 485.144 151.445C484.653 151.471 484.08 151.485 483.424 151.485H482.848V148.557H485.168V147.357H482.84V146.653ZM492.264 146.605V147.725C492.264 148.167 492.336 148.597 492.48 149.013C492.624 149.429 492.832 149.799 493.104 150.125C493.381 150.445 493.707 150.687 494.08 150.853L493.568 151.565C493.163 151.378 492.813 151.106 492.52 150.749C492.227 150.386 491.997 149.967 491.832 149.493C491.667 150.005 491.432 150.455 491.128 150.845C490.829 151.229 490.469 151.519 490.048 151.717L489.52 150.989C489.899 150.818 490.227 150.565 490.504 150.229C490.787 149.893 491.003 149.509 491.152 149.077C491.301 148.639 491.376 148.189 491.376 147.725V146.605H492.264ZM494.584 146.013H495.464V153.157H494.584V146.013ZM503.04 149.269V149.909H496.592V149.269H503.04ZM497.328 150.349H502.256V151.973H498.216V152.469H502.464V153.077H497.344V151.405H501.392V150.957H497.328V150.349ZM497.392 146.181H502.232V147.789H498.264V148.245H502.368V148.861H497.408V147.221H501.368V146.789H497.392V146.181ZM510.996 146.013V147.725H511.988V148.445H510.996V150.013H510.116V146.013H510.996ZM505.404 149.357C506.226 149.159 506.863 148.871 507.316 148.493C507.775 148.109 508.034 147.661 508.092 147.149H505.74V146.445H509.06C509.06 147.367 508.775 148.135 508.204 148.749C507.634 149.357 506.81 149.797 505.732 150.069L505.404 149.357ZM506.084 152.461C506.714 152.37 507.223 152.194 507.612 151.933C508.002 151.666 508.22 151.365 508.268 151.029H506.38V150.333H511.1V151.029H509.22C509.252 151.242 509.362 151.447 509.548 151.645C509.735 151.842 509.986 152.015 510.3 152.165C510.62 152.309 510.986 152.41 511.396 152.469L511.076 153.141C510.532 153.061 510.058 152.906 509.652 152.677C509.252 152.453 508.951 152.175 508.748 151.845C508.54 152.17 508.234 152.445 507.828 152.669C507.428 152.893 506.956 153.045 506.412 153.125L506.084 152.461ZM516.076 146.037V146.741H518.22V147.429H516.132C516.186 147.759 516.42 148.045 516.836 148.285C517.258 148.519 517.823 148.663 518.532 148.717L518.252 149.389C517.628 149.335 517.09 149.207 516.636 149.005C516.188 148.797 515.855 148.53 515.636 148.205C515.418 148.53 515.082 148.797 514.628 149.005C514.175 149.207 513.636 149.335 513.012 149.389L512.732 148.717C513.436 148.663 513.999 148.519 514.42 148.285C514.842 148.045 515.079 147.759 515.132 147.429H513.052V146.741H515.188V146.037H516.076ZM512.412 149.733H518.86V150.429H516.148V151.669H515.268V150.429H512.412V149.733ZM513.188 151.029H514.068V152.301H518.148V153.005H513.188V151.029ZM527.136 146.029V151.173H526.256V146.029H527.136ZM521.376 148.285C521.376 147.943 521.459 147.637 521.624 147.365C521.795 147.087 522.024 146.874 522.312 146.725C522.606 146.57 522.928 146.493 523.28 146.493C523.638 146.493 523.96 146.57 524.248 146.725C524.542 146.874 524.771 147.087 524.936 147.365C525.102 147.637 525.184 147.943 525.184 148.285C525.184 148.621 525.102 148.925 524.936 149.197C524.771 149.469 524.542 149.682 524.248 149.837C523.96 149.991 523.638 150.069 523.28 150.069C522.928 150.069 522.606 149.991 522.312 149.837C522.024 149.682 521.795 149.469 521.624 149.197C521.459 148.925 521.376 148.621 521.376 148.285ZM522.232 148.285C522.232 148.589 522.331 148.834 522.528 149.021C522.731 149.207 522.982 149.301 523.28 149.301C523.579 149.301 523.827 149.207 524.024 149.021C524.227 148.834 524.328 148.589 524.328 148.285C524.328 147.975 524.23 147.727 524.032 147.541C523.835 147.349 523.584 147.253 523.28 147.253C522.976 147.253 522.726 147.349 522.528 147.541C522.331 147.727 522.232 147.975 522.232 148.285ZM522.464 150.661H523.336V152.301H527.328V153.005H522.464V150.661ZM534.369 146.021V153.141H533.529V149.525H532.817V152.805H531.993V146.157H532.817V148.813H533.529V146.021H534.369ZM528.129 151.077C528.625 150.783 528.99 150.357 529.225 149.797C529.465 149.231 529.585 148.578 529.585 147.837V147.509H528.337V146.789H531.593V147.509H530.433V147.837C530.433 148.509 530.553 149.109 530.793 149.637C531.033 150.165 531.401 150.559 531.897 150.821L531.393 151.493C530.758 151.151 530.305 150.57 530.033 149.749C529.777 150.687 529.321 151.354 528.665 151.749L528.129 151.077Z" fill="#27272A"/>
<path d="M338.5 134.25L336 133.057L336 135.943L338.5 134.75L338.5 134.25ZM544.5 134.75C544.638 134.75 544.75 134.638 544.75 134.5C544.75 134.362 544.638 134.25 544.5 134.25L544.5 134.75ZM338.25 134.75L544.5 134.75L544.5 134.25L338.25 134.25L338.25 134.75Z" fill="#71717A"/>
<defs>
<linearGradient id="paint0_linear_4438_9520" x1="177.5" y1="5.5" x2="177.5" y2="174.5" gradientUnits="userSpaceOnUse">
<stop stop-color="#3E0487"/>
<stop offset="0.615" stop-color="#9735D0"/>
<stop offset="1" stop-color="#C16AF3"/>
</linearGradient>
</defs>
</svg>
