<svg width="140" height="140" viewBox="0 0 140 140" fill="none" xmlns="http://www.w3.org/2000/svg">
<rect width="140" height="140" rx="70" fill="#F5EBFB"/>
<path d="M91.9414 63.0955C88.674 63.0955 86.0783 65.7438 86.0783 68.9586C86.0783 72.1734 88.674 74.8218 91.9414 74.8218C95.2089 74.8218 97.8046 72.1734 97.8046 68.9586C97.8046 65.7438 95.2089 63.0955 91.9414 63.0955Z" fill="#6D0CA6"/>
<path d="M91.9415 75.4143C89.0719 75.4143 86.4753 76.3991 84.5794 77.7702C82.7598 79.0861 81.2876 80.9951 81.2876 82.9885C81.2876 85.2916 83.1635 86.4697 84.9847 87.0413C86.869 87.6327 89.3554 87.825 91.9415 87.825C94.5277 87.825 97.0141 87.6327 98.8983 87.0413C100.72 86.4697 102.595 85.2916 102.595 82.9885C102.595 80.9951 101.123 79.0861 99.3037 77.7702C97.4077 76.3991 94.8111 75.4143 91.9415 75.4143Z" fill="#6D0CA6"/>
<path d="M48.0581 63.0955C44.7907 63.0955 42.195 65.7438 42.195 68.9586C42.195 72.1734 44.7907 74.8218 48.0581 74.8218C51.3256 74.8218 53.9213 72.1734 53.9213 68.9586C53.9213 65.7438 51.3256 63.0955 48.0581 63.0955Z" fill="#6D0CA6"/>
<path d="M48.0582 75.4143C45.1886 75.4143 42.592 76.3991 40.6961 77.7702C38.8765 79.0861 37.4043 80.9951 37.4043 82.9885C37.4043 85.2916 39.2802 86.4697 41.1014 87.0413C42.9857 87.6327 45.4721 87.825 48.0582 87.825C50.6444 87.825 53.1308 87.6327 55.015 87.0413C56.8363 86.4697 58.7121 85.2916 58.7121 82.9885C58.7121 80.9951 57.2399 79.0861 55.4204 77.7702C53.5244 76.3991 50.9278 75.4143 48.0582 75.4143Z" fill="#6D0CA6"/>
<path d="M70.0014 61C66.1766 61 63.1379 64.0997 63.1379 67.8635C63.1379 71.6272 66.1766 74.7269 70.0014 74.7269C73.8261 74.7269 76.8648 71.6272 76.8648 67.8635C76.8648 64.0997 73.8261 61 70.0014 61Z" fill="#CC7DFA"/>
<path d="M70.0005 76.0886C66.5572 76.0886 63.4412 77.271 61.1693 78.914C58.9738 80.5017 57.269 82.7569 57.269 85.0478C57.269 87.6484 59.3774 89.0189 61.5747 89.7085C63.8349 90.4179 66.8407 90.6538 70.0005 90.6538C73.1603 90.6538 76.1661 90.4179 78.4263 89.7085C80.6235 89.0189 82.7319 87.6484 82.7319 85.0478C82.7319 82.7569 81.0272 80.5017 78.8317 78.914C76.5597 77.271 73.4438 76.0886 70.0005 76.0886Z" fill="#CC7DFA"/>
<path d="M55.0762 53.0261C55.0762 54.5338 56.6933 56.1284 57.8771 57.0937C58.413 57.5307 58.6809 57.7492 59.0994 57.7492C59.518 57.7492 59.7859 57.5307 60.3218 57.0937C61.5056 56.1284 63.1227 54.5338 63.1227 53.0261C63.1227 50.6479 60.9099 49.5669 59.0994 51.5126C57.289 49.5669 55.0762 50.6479 55.0762 53.0261Z" fill="#6D0CA6"/>
<path d="M76.876 53.0261C76.876 54.5338 78.4931 56.1284 79.6769 57.0937C80.2128 57.5307 80.4807 57.7492 80.8993 57.7492C81.3178 57.7492 81.5857 57.5307 82.1216 57.0937C83.3054 56.1284 84.9225 54.5338 84.9225 53.0261C84.9225 50.6479 82.7097 49.5669 80.8993 51.5126C79.0888 49.5669 76.876 50.6479 76.876 53.0261Z" fill="#6D0CA6"/>
</svg>
