<svg width="141" height="140" viewBox="0 0 141 140" fill="none" xmlns="http://www.w3.org/2000/svg">
<rect x="0.5" width="140" height="140" rx="70" fill="#F5EBFB"/>
<path d="M69.8223 64C66.2794 64 63.4629 66.8166 63.4629 70.3594V88.235C63.4629 91.7779 66.2794 94.5945 69.8223 94.5945H77.7331L81.3096 99.0983C81.762 99.668 82.4497 100 83.1772 100C83.9046 100 84.5923 99.668 85.0447 99.0983L88.6213 94.5945H96.691C100.234 94.5945 103.05 91.7779 103.05 88.235V70.3594C103.05 66.8166 100.234 64 96.691 64H69.8223Z" fill="#6D0CA6"/>
<path fill-rule="evenodd" clip-rule="evenodd" d="M90.2714 74.5416C91.0768 75.347 91.0768 76.653 90.2714 77.4584L82.7714 84.9584C81.9659 85.7639 80.66 85.7639 79.8546 84.9584L76.1046 81.2084C75.2991 80.403 75.2991 79.097 76.1046 78.2916C76.91 77.4861 78.2159 77.4861 79.0214 78.2916L81.313 80.5832L87.3546 74.5416C88.16 73.7361 89.4659 73.7361 90.2714 74.5416Z" fill="white"/>
<path d="M44.3096 43C40.7668 43 37.9502 45.8166 37.9502 49.3594V67.235C37.9502 70.7779 40.7668 73.5945 44.3096 73.5945H47.7204L51.2969 78.0983C51.7493 78.668 52.437 79 53.1645 79C53.8919 79 54.5796 78.668 55.032 78.0983L58.6086 73.5945H72.6783C76.2212 73.5945 79.0377 70.7779 79.0377 67.235V49.3594C79.0377 45.8166 76.2212 43 72.6783 43H44.3096Z" fill="#CC7DFA"/>
<path d="M47.6444 51.25C46.4329 51.25 45.4507 52.2322 45.4507 53.4437C45.4507 54.6553 46.4329 55.6375 47.6444 55.6375H53.1575C54.3691 55.6375 55.3513 54.6553 55.3513 53.4437C55.3513 52.2322 54.3691 51.25 53.1575 51.25H47.6444Z" fill="white"/>
<path d="M47.6444 60.2811C46.4329 60.2811 45.4507 61.2633 45.4507 62.4749C45.4507 63.6865 46.4329 64.6686 47.6444 64.6686H64.8728C66.0844 64.6686 67.0666 63.6865 67.0666 62.4749C67.0666 61.2633 66.0844 60.2811 64.8728 60.2811H47.6444Z" fill="white"/>
</svg>
