<svg width="141" height="140" viewBox="0 0 141 140" fill="none" xmlns="http://www.w3.org/2000/svg">
<rect x="0.5" width="140" height="140" rx="70" fill="#F5EBFB"/>
<path d="M52.1372 101.052H51.302C48.2725 101.052 46.7578 101.052 45.8166 100.111C44.8755 99.17 44.8755 97.6553 44.8755 94.6258V91.0529C44.8755 89.3868 44.8755 88.5537 45.3034 87.8098C45.7314 87.0659 46.3769 86.6904 47.6681 85.9394C56.1686 80.9954 68.2407 78.2124 76.2979 83.018C76.8393 83.3409 77.3261 83.7307 77.7422 84.198C79.5355 86.2123 79.4048 89.2524 77.338 91.0563C76.9016 91.4372 76.4364 91.7261 75.9679 91.8265C76.3529 91.7819 76.7219 91.7307 77.0739 91.6745C80.0025 91.2074 82.4608 89.6425 84.7113 87.9424L90.5183 83.5558C92.5654 82.0094 95.6038 82.0091 97.6513 83.5551C99.4947 84.9469 100.058 87.2387 98.8929 89.1066C97.5339 91.285 95.6192 94.0718 93.7807 95.7746C91.9395 97.4799 89.1985 99.0023 86.9608 100.082C84.482 101.279 81.7435 101.968 78.9581 102.419C73.3089 103.334 67.4214 103.194 61.8296 102.042C58.6684 101.391 55.3853 101.052 52.1372 101.052Z" fill="#CC7DFA"/>
<path d="M80.4022 39.9703C80.4022 38.3298 79.0724 37 77.432 37H62.5806C60.9402 37 59.6104 38.3298 59.6104 39.9703V54.8216H80.4022V39.9703Z" fill="#CC7DFA"/>
<path fill-rule="evenodd" clip-rule="evenodd" d="M70.5006 54.6016C69.834 54.6016 69.3881 55.4015 68.4962 57.0013L68.2655 57.4152C68.0121 57.8698 67.8854 58.0971 67.6878 58.2471C67.4903 58.397 67.2442 58.4527 66.7521 58.5641L66.3041 58.6654C64.5723 59.0573 63.7064 59.2532 63.5004 59.9156C63.2944 60.5781 63.8847 61.2684 65.0653 62.649L65.3707 63.0061C65.7062 63.3984 65.874 63.5946 65.9494 63.8373C66.0249 64.0799 65.9995 64.3417 65.9488 64.8651L65.9026 65.3416C65.7241 67.1836 65.6349 68.1046 66.1742 68.514C66.7136 68.9234 67.5243 68.5502 69.1458 67.8036L69.5652 67.6104C70.026 67.3983 70.2564 67.2922 70.5006 67.2922C70.7448 67.2922 70.9752 67.3983 71.436 67.6104L71.8555 67.8036C73.4769 68.5502 74.2876 68.9234 74.827 68.514C75.3663 68.1046 75.2771 67.1836 75.0986 65.3416L75.0524 64.8651C75.0017 64.3417 74.9763 64.0799 75.0518 63.8373C75.1272 63.5946 75.295 63.3984 75.6305 63.0062L75.9359 62.649C77.1165 61.2684 77.7068 60.5781 77.5008 59.9156C77.2948 59.2532 76.4289 59.0573 74.6972 58.6654L74.2491 58.5641C73.757 58.4527 73.5109 58.397 73.3134 58.2471C73.1158 58.0971 72.9891 57.8698 72.7357 57.4152L72.505 57.0013C71.6132 55.4015 71.1673 54.6016 70.5006 54.6016Z" fill="white"/>
<path fill-rule="evenodd" clip-rule="evenodd" d="M70.5006 77.5945C79.2496 77.5945 86.3421 70.5021 86.3421 61.7531C86.3421 53.0041 79.2496 45.9116 70.5006 45.9116C61.7516 45.9116 54.6592 53.0041 54.6592 61.7531C54.6592 70.5021 61.7516 77.5945 70.5006 77.5945ZM70.5006 55.8125C69.9381 55.8125 69.5619 56.4874 68.8094 57.8373L68.6148 58.1865C68.401 58.5701 68.294 58.7619 68.1273 58.8884C67.9606 59.015 67.753 59.0619 67.3378 59.1559L66.9598 59.2414C65.4986 59.572 64.768 59.7373 64.5942 60.2963C64.4204 60.8552 64.9184 61.4377 65.9146 62.6025L66.1723 62.9039C66.4554 63.2349 66.5969 63.4004 66.6606 63.6052C66.7242 63.8099 66.7029 64.0307 66.6601 64.4724L66.6211 64.8745C66.4705 66.4286 66.3952 67.2057 66.8502 67.5512C67.3053 67.8966 67.9894 67.5817 69.3575 66.9517L69.7114 66.7888C70.1002 66.6098 70.2946 66.5203 70.5006 66.5203C70.7067 66.5203 70.9011 66.6098 71.2898 66.7888L71.6438 66.9517C73.0119 67.5817 73.6959 67.8966 74.151 67.5512C74.6061 67.2057 74.5308 66.4286 74.3802 64.8745L74.3412 64.4724C74.2984 64.0308 74.277 63.8099 74.3407 63.6052C74.4043 63.4004 74.5459 63.2349 74.8289 62.9039L75.0867 62.6025C76.0828 61.4377 76.5809 60.8552 76.4071 60.2963C76.2332 59.7373 75.5026 59.572 74.0415 59.2414L73.6634 59.1559C73.2482 59.0619 73.0406 59.015 72.8739 58.8884C72.7072 58.7619 72.6003 58.5701 72.3865 58.1865L72.1918 57.8373C71.4393 56.4874 71.0631 55.8125 70.5006 55.8125Z" fill="#6D0CA6"/>
</svg>
