<svg width="141" height="140" viewBox="0 0 141 140" fill="none" xmlns="http://www.w3.org/2000/svg">
<rect x="0.5" width="140" height="140" rx="70" fill="#F5EBFB"/>
<path d="M90.6113 63.4275C90.6113 52.5753 81.8139 43.7778 70.9617 43.7778H67.5659C56.7137 43.7778 47.9163 52.5753 47.9163 63.4275C47.9163 65.1144 47.4976 66.7749 46.6977 68.2601L43.7359 73.759C43.0364 75.0579 43.9771 76.633 45.4523 76.633H47.4663C47.7148 76.633 47.9163 76.8345 47.9163 77.083V84.1366C47.9163 85.8102 49.3184 87.1425 50.9899 87.0571L57.1908 86.7401C57.448 86.7269 57.6638 86.9319 57.6638 87.1895V93.2989C57.6638 94.9139 58.973 96.2232 60.5881 96.2232H78.7624C80.4356 96.2232 81.7676 94.822 81.683 93.1509L81.24 84.4053C81.2328 84.2619 81.2948 84.1235 81.4058 84.0325C85.4307 80.7354 88.5893 77.1236 90.2404 70.982C90.5139 69.9646 90.6113 68.9087 90.6113 67.8552V63.4275Z" fill="#6D0CA6"/>
<path d="M97.915 63.426C97.915 52.5738 89.1176 43.7764 78.2654 43.7764H74.8697C64.0175 43.7764 55.22 52.5738 55.22 63.426C55.22 65.1129 54.8013 66.7734 54.0014 68.2586L51.0396 73.7576C50.3401 75.0564 51.2808 76.6316 52.7561 76.6316H54.77C55.0185 76.6316 55.22 76.8331 55.22 77.0816V84.1351C55.22 85.8088 56.6221 87.141 58.2936 87.0556L64.4945 86.7386C64.7517 86.7255 64.9675 86.9305 64.9675 87.188V93.2974C64.9675 94.9125 66.2768 96.2217 67.8918 96.2217H86.0662C87.7393 96.2217 89.0714 94.8205 88.9867 93.1495L88.5438 84.4038C88.5365 84.2604 88.5985 84.122 88.7095 84.031C92.7344 80.7339 95.893 77.1222 97.5441 70.9805C97.8176 69.9632 97.915 68.9072 97.915 67.8537V63.426Z" fill="#CC7DFA"/>
<path d="M70.6595 72.5899L71.9312 73.802C72.288 74.1421 72.4903 74.6162 72.4903 75.1124C72.4903 75.8577 73.087 76.462 73.823 76.462H78.0688C78.8049 76.462 79.4016 75.8577 79.4016 75.1124C79.4016 74.6162 79.6039 74.1421 79.9606 73.802L81.2324 72.5899C83.0076 70.8848 83.999 68.6449 84.009 66.3161L84.0091 66.2182C84.0091 62.2393 80.3991 58.9651 75.9459 58.9651C71.4928 58.9651 67.8828 62.2393 67.8828 66.2182L67.8829 66.3161C67.8929 68.6449 68.8842 70.8848 70.6595 72.5899Z" fill="white"/>
<path fill-rule="evenodd" clip-rule="evenodd" d="M72.7788 78.2108C72.7788 77.7276 73.1656 77.3359 73.6427 77.3359H78.2502C78.7273 77.3359 79.1141 77.7276 79.1141 78.2108C79.1141 78.6939 78.7273 79.0856 78.2502 79.0856H73.6427C73.1656 79.0856 72.7788 78.6939 72.7788 78.2108ZM73.5467 81.1269C73.5467 80.6438 73.9335 80.2521 74.4106 80.2521H77.4823C77.9594 80.2521 78.3462 80.6438 78.3462 81.1269C78.3462 81.6101 77.9594 82.0018 77.4823 82.0018H74.4106C73.9335 82.0018 73.5467 81.6101 73.5467 81.1269Z" fill="white"/>
<path d="M75.9448 52C76.4428 52 76.8464 52.4036 76.8464 52.9016V55.3023C76.8464 55.8002 76.4428 56.2039 75.9448 56.2039C75.4469 56.2039 75.0433 55.8002 75.0433 55.3023V52.9016C75.0433 52.4036 75.4469 52 75.9448 52Z" fill="white"/>
<path d="M60.6963 67.2454C60.6963 66.7475 61.0999 66.3438 61.5979 66.3438H64.0009C64.4989 66.3438 64.9025 66.7475 64.9025 67.2454C64.9025 67.7433 64.4989 68.147 64.0009 68.147H61.5979C61.0999 68.147 60.6963 67.7433 60.6963 67.2454Z" fill="white"/>
<path d="M87.8899 66.3438C87.392 66.3438 86.9884 66.7475 86.9884 67.2454C86.9884 67.7433 87.392 68.147 87.8899 68.147H90.293C90.7909 68.147 91.1946 67.7433 91.1946 67.2454C91.1946 66.7475 90.7909 66.3438 90.293 66.3438H87.8899Z" fill="white"/>
<path d="M68.137 58.1623C68.4891 58.5144 68.4891 59.0853 68.137 59.4373C67.785 59.7894 67.2141 59.7894 66.862 59.4373L66.3495 58.9248C65.9974 58.5727 65.9974 58.0019 66.3495 57.6498C66.7016 57.2977 67.2724 57.2977 67.6245 57.6498L68.137 58.1623Z" fill="white"/>
<path d="M83.7541 58.1623C83.402 58.5144 83.402 59.0853 83.7541 59.4373C84.1062 59.7894 84.677 59.7894 85.0291 59.4373L85.5416 58.9248C85.8937 58.5727 85.8937 58.0019 85.5416 57.6498C85.1895 57.2977 84.6187 57.2977 84.2666 57.6498L83.7541 58.1623Z" fill="white"/>
</svg>
