<svg width="141" height="140" viewBox="0 0 141 140" fill="none" xmlns="http://www.w3.org/2000/svg">
<rect x="0.5" width="140" height="140" rx="70" fill="#F5EBFB"/>
<path d="M70.5001 53.5C64.7683 53.5 60.2144 58.1449 60.2144 63.7857C60.2144 69.4265 64.7683 74.0714 70.5001 74.0714C76.2318 74.0714 80.7858 69.4265 80.7858 63.7857C80.7858 58.1449 76.2318 53.5 70.5001 53.5Z" fill="#6D0CA6"/>
<path d="M70.5005 76.6434C65.2736 76.6434 60.5434 78.4387 57.0971 80.931C53.7549 83.348 51.2148 86.7441 51.2148 90.1434C51.2148 93.965 54.3051 96.012 57.6497 97.0617C61.0801 98.1384 65.6601 98.5006 70.5005 98.5006C75.341 98.5006 79.921 98.1384 83.3514 97.0617C86.6959 96.012 89.7862 93.965 89.7862 90.1434C89.7862 86.7441 87.2462 83.348 83.904 80.931C80.4577 78.4387 75.7275 76.6434 70.5005 76.6434Z" fill="#6D0CA6"/>
<path fill-rule="evenodd" clip-rule="evenodd" d="M47.25 52C46.7529 52 46.4204 52.5965 45.7554 53.7894L45.5834 54.098C45.3944 54.437 45.2999 54.6065 45.1526 54.7183C45.0053 54.8302 44.8218 54.8717 44.4548 54.9547L44.1208 55.0303C42.8294 55.3225 42.1838 55.4686 42.0301 55.9626C41.8765 56.4565 42.3167 56.9713 43.1971 58.0007L43.4248 58.267C43.675 58.5596 43.8001 58.7058 43.8563 58.8868C43.9126 59.0678 43.8937 59.2629 43.8559 59.6532L43.8214 60.0086C43.6883 61.3821 43.6218 62.0688 44.024 62.3741C44.4261 62.6794 45.0307 62.4011 46.2397 61.8444L46.5525 61.7003C46.8961 61.5421 47.0679 61.463 47.25 61.463C47.4321 61.463 47.6039 61.5421 47.9475 61.7003L48.2603 61.8444C49.4693 62.4011 50.0739 62.6794 50.476 62.3741C50.8782 62.0688 50.8117 61.3821 50.6786 60.0086L50.6441 59.6532C50.6063 59.2629 50.5874 59.0678 50.6437 58.8868C50.6999 58.7058 50.825 58.5596 51.0752 58.2671L51.303 58.0007C52.1833 56.9713 52.6235 56.4565 52.4699 55.9626C52.3162 55.4686 51.6706 55.3225 50.3792 55.0303L50.0452 54.9547C49.6782 54.8717 49.4947 54.8302 49.3474 54.7183C49.2001 54.6065 49.1056 54.437 48.9166 54.098L48.7446 53.7894C48.0796 52.5965 47.7471 52 47.25 52Z" fill="#CC7DFA"/>
<path fill-rule="evenodd" clip-rule="evenodd" d="M60.75 52C60.2529 52 59.9204 51.4035 59.2554 50.2106L59.0834 49.902C58.8944 49.563 58.7999 49.3935 58.6526 49.2817C58.5053 49.1698 58.3218 49.1283 57.9548 49.0453L57.6208 48.9697C56.3294 48.6775 55.6838 48.5314 55.5301 48.0374C55.3765 47.5435 55.8167 47.0287 56.6971 45.9993L56.9248 45.733C57.175 45.4404 57.3001 45.2942 57.3563 45.1132C57.4126 44.9322 57.3937 44.7371 57.3559 44.3468L57.3214 43.9914C57.1883 42.6179 57.1218 41.9312 57.524 41.6259C57.9261 41.3206 58.5307 41.5989 59.7397 42.1556L60.0525 42.2997C60.3961 42.4579 60.5679 42.537 60.75 42.537C60.9321 42.537 61.1039 42.4579 61.4475 42.2997L61.7603 42.1556C62.9693 41.5989 63.5739 41.3206 63.976 41.6259C64.3782 41.9312 64.3117 42.6179 64.1786 43.9914L64.1441 44.3468C64.1063 44.7371 64.0874 44.9322 64.1437 45.1132C64.1999 45.2942 64.325 45.4404 64.5752 45.7329L64.803 45.9993C65.6833 47.0287 66.1235 47.5435 65.9699 48.0374C65.8162 48.5314 65.1706 48.6775 63.8792 48.9697L63.5452 49.0453C63.1782 49.1283 62.9947 49.1698 62.8474 49.2817C62.7001 49.3935 62.6056 49.563 62.4166 49.902L62.2446 50.2106C61.5796 51.4035 61.2471 52 60.75 52Z" fill="#CC7DFA"/>
<path fill-rule="evenodd" clip-rule="evenodd" d="M80.25 52C79.7529 52 79.4204 51.4035 78.7554 50.2106L78.5834 49.902C78.3944 49.563 78.2999 49.3935 78.1526 49.2817C78.0053 49.1698 77.8218 49.1283 77.4548 49.0453L77.1208 48.9697C75.8294 48.6775 75.1838 48.5314 75.0301 48.0374C74.8765 47.5435 75.3167 47.0287 76.1971 45.9993L76.4248 45.733C76.675 45.4404 76.8001 45.2942 76.8563 45.1132C76.9126 44.9322 76.8937 44.7371 76.8559 44.3468L76.8214 43.9914C76.6883 42.6179 76.6218 41.9312 77.024 41.6259C77.4261 41.3206 78.0307 41.5989 79.2397 42.1556L79.5525 42.2997C79.8961 42.4579 80.0679 42.537 80.25 42.537C80.4321 42.537 80.6039 42.4579 80.9475 42.2997L81.2603 42.1556C82.4693 41.5989 83.0739 41.3206 83.476 41.6259C83.8782 41.9312 83.8117 42.6179 83.6786 43.9914L83.6441 44.3468C83.6063 44.7371 83.5874 44.9322 83.6437 45.1132C83.6999 45.2942 83.825 45.4404 84.0752 45.7329L84.303 45.9993C85.1833 47.0287 85.6235 47.5435 85.4699 48.0374C85.3162 48.5314 84.6706 48.6775 83.3792 48.9697L83.0452 49.0453C82.6782 49.1283 82.4947 49.1698 82.3474 49.2817C82.2001 49.3935 82.1056 49.563 81.9166 49.902L81.7446 50.2106C81.0796 51.4035 80.7471 52 80.25 52Z" fill="#CC7DFA"/>
<path fill-rule="evenodd" clip-rule="evenodd" d="M93.75 52C93.2529 52 92.9204 52.5965 92.2554 53.7894L92.0834 54.098C91.8944 54.437 91.7999 54.6065 91.6526 54.7183C91.5053 54.8302 91.3218 54.8717 90.9548 54.9547L90.6208 55.0303C89.3294 55.3225 88.6838 55.4686 88.5301 55.9626C88.3765 56.4565 88.8167 56.9713 89.6971 58.0007L89.9248 58.267C90.175 58.5596 90.3001 58.7058 90.3563 58.8868C90.4126 59.0678 90.3937 59.2629 90.3559 59.6532L90.3214 60.0086C90.1883 61.3821 90.1218 62.0688 90.524 62.3741C90.9261 62.6794 91.5307 62.4011 92.7397 61.8444L93.0525 61.7003C93.3961 61.5421 93.5679 61.463 93.75 61.463C93.9321 61.463 94.1039 61.5421 94.4475 61.7003L94.7603 61.8444C95.9693 62.4011 96.5739 62.6794 96.976 62.3741C97.3782 62.0688 97.3117 61.3821 97.1786 60.0086L97.1441 59.6532C97.1063 59.2629 97.0874 59.0678 97.1437 58.8868C97.1999 58.7058 97.325 58.5596 97.5752 58.2671L97.803 58.0007C98.6833 56.9713 99.1235 56.4565 98.9699 55.9626C98.8162 55.4686 98.1706 55.3225 96.8792 55.0303L96.5452 54.9547C96.1782 54.8717 95.9947 54.8302 95.8474 54.7183C95.7001 54.6065 95.6056 54.437 95.4166 54.098L95.2446 53.7894C94.5796 52.5965 94.2471 52 93.75 52Z" fill="#CC7DFA"/>
</svg>
