<svg width="141" height="140" viewBox="0 0 141 140" fill="none" xmlns="http://www.w3.org/2000/svg">
<rect x="0.5" width="140" height="140" rx="70" fill="#F5EBFB"/>
<path d="M49.5 79C49.5 75.6863 52.1863 73 55.5 73H85.5C88.8137 73 91.5 75.6863 91.5 79V89.5C91.5 92.8137 88.8137 95.5 85.5 95.5H55.5C52.1863 95.5 49.5 92.8137 49.5 89.5V79Z" fill="#6D0CA6"/>
<path d="M66.9263 78.5942V89.2611V89.2611C66.9263 90.0208 66.9263 90.4006 66.6515 90.5542C66.3768 90.7077 66.001 90.5378 65.2495 90.1981L65.2495 90.1981L63.6213 88.5714L63.6212 88.5714C63.367 88.4565 63.2399 88.399 63.1031 88.399C62.9664 88.399 62.8392 88.4565 62.585 88.5714L62.585 88.5714L60.7495 90.1981C59.998 90.5378 59.6223 90.7077 59.3475 90.5542C59.0728 90.4006 59.0728 90.0208 59.0728 89.2611V77.0942L66.9263 78.5942Z" fill="white"/>
<path d="M51.5902 44.5C50.4358 44.5 49.5 45.4075 49.5 46.527V84.25C50.7 80.05 65.25 82.75 91.5 82V46.527C91.5 45.4075 90.5642 44.5 89.4099 44.5H51.5902Z" fill="#CC7DFA"/>
<path d="M60.0006 54.4756C58.8822 54.4756 57.9756 55.3822 57.9756 56.5006C57.9756 57.619 58.8822 58.5256 60.0006 58.5256H65.0896C66.208 58.5256 67.1146 57.619 67.1146 56.5006C67.1146 55.3822 66.208 54.4756 65.0896 54.4756H60.0006Z" fill="white"/>
<path d="M60.0006 62.8135C58.8822 62.8135 57.9756 63.7201 57.9756 64.8385C57.9756 65.9569 58.8822 66.8635 60.0006 66.8635H75.9037C77.0221 66.8635 77.9287 65.9569 77.9287 64.8385C77.9287 63.7201 77.0221 62.8135 75.9037 62.8135H60.0006Z" fill="white"/>
</svg>
