<svg width="72" height="72" viewBox="0 0 72 72" fill="none" xmlns="http://www.w3.org/2000/svg">
<g clip-path="url(#clip0_4162_2376)">
<path fill-rule="evenodd" clip-rule="evenodd" d="M45.4915 10.9134C46.2824 10.1226 47.5645 10.1226 48.3553 10.9134L57.5353 20.0934C58.3261 20.8842 58.3261 22.1664 57.5353 22.9572C56.7445 23.748 55.4624 23.748 54.6715 22.9572L45.4915 13.7772C44.7007 12.9864 44.7007 11.7042 45.4915 10.9134Z" fill="#CC7DFA"/>
<path d="M42.9585 16.179C42.5773 15.7979 42.0599 15.5844 41.5209 15.5859C40.9819 15.5875 40.4657 15.8038 40.0867 16.1871L28.0797 28.329L15.9377 40.3361C15.6208 40.6494 15.4162 41.0586 15.3555 41.5001L13.8705 52.3001C13.7835 52.9322 13.9996 53.5682 14.4535 54.0166C14.9074 54.4649 15.546 54.6732 16.177 54.5785L26.977 52.9585C27.4055 52.8943 27.8021 52.6942 28.1085 52.3878L40.1155 40.3808L40.1235 40.3728L52.2655 28.3658C52.6487 27.9868 52.8651 27.4706 52.8666 26.9316C52.8681 26.3926 52.6546 25.8752 52.2735 25.494L42.9585 16.179Z" fill="#CC7DFA"/>
<path fill-rule="evenodd" clip-rule="evenodd" d="M13.9844 61.6187C13.9844 60.5004 14.891 59.5938 16.0094 59.5938H52.5944C53.7128 59.5938 54.6194 60.5004 54.6194 61.6187C54.6194 62.7371 53.7128 63.6437 52.5944 63.6437H16.0094C14.891 63.6437 13.9844 62.7371 13.9844 61.6187Z" fill="#6D0CA6"/>
</g>
<defs>
<clipPath id="clip0_4162_2376">
<rect width="45.765" height="56.16" fill="white" transform="translate(13.0391 7.61719)"/>
</clipPath>
</defs>
</svg>
