<svg width="1200" height="359" viewBox="0 0 1200 359" fill="none" xmlns="http://www.w3.org/2000/svg">
<rect width="1200" height="88" rx="16" fill="#9735D0"/>
<path d="M443.26 46.96C443.687 47.7867 444.193 48.4133 444.78 48.84C445.38 49.2667 446.013 49.48 446.68 49.48C447.6 49.48 448.313 49.2733 448.82 48.86C449.327 48.4333 449.58 47.8667 449.58 47.16C449.58 46.6933 449.44 46.3 449.16 45.98C448.893 45.66 448.553 45.4067 448.14 45.22C447.74 45.02 447.18 44.7867 446.46 44.52C445.54 44.1867 444.793 43.8667 444.22 43.56C443.647 43.2533 443.16 42.82 442.76 42.26C442.36 41.7 442.16 40.98 442.16 40.1C442.16 39.3133 442.36 38.6267 442.76 38.04C443.16 37.4533 443.713 37.0067 444.42 36.7C445.127 36.3933 445.933 36.24 446.84 36.24C447.867 36.24 448.787 36.5267 449.6 37.1C450.427 37.66 451.04 38.5 451.44 39.62L449.54 40.3C449.287 39.5667 448.927 39.02 448.46 38.66C447.993 38.2867 447.467 38.0933 446.88 38.08C446.093 38.08 445.46 38.2667 444.98 38.64C444.513 39 444.28 39.4867 444.28 40.1C444.28 40.5667 444.413 40.96 444.68 41.28C444.96 41.6 445.307 41.8667 445.72 42.08C446.147 42.28 446.713 42.5133 447.42 42.78C448.34 43.14 449.08 43.4733 449.64 43.78C450.2 44.0867 450.68 44.52 451.08 45.08C451.48 45.6267 451.68 46.3267 451.68 47.18C451.68 47.9933 451.48 48.7133 451.08 49.34C450.68 49.9667 450.1 50.4533 449.34 50.8C448.593 51.1467 447.713 51.32 446.7 51.32C445.62 51.32 444.64 51.0333 443.76 50.46C442.88 49.8733 442.127 49.0333 441.5 47.94L443.26 46.96ZM460.184 42.96L466.144 51.16H463.504L458.724 44.6L456.904 46.6V51.16H454.784V36.42H456.904V43.44L463.184 36.4H466.024L460.184 42.96ZM470.943 36.6V46.38C471.917 46.3533 472.803 46.3067 473.603 46.24C474.417 46.16 475.243 46.0333 476.083 45.86L476.363 47.7C475.35 47.9267 474.35 48.08 473.363 48.16C472.377 48.2267 471.257 48.26 470.003 48.26H468.783V36.6H470.943ZM473.723 40.56H477.423V35.16H479.463V51.76H477.423V42.36H473.723V40.56ZM481.203 34.8H483.283V52.6H481.203V34.8ZM499.724 36.18V37.94H489.704V40.12H499.324V41.84H489.704V44.12H499.884V45.88H487.484V36.18H499.724ZM485.524 48.68H501.644V50.46H485.524V48.68ZM517.784 34.82V46.58H515.604V45.74H512.004V44.22H515.604V34.82H517.784ZM502.884 42.04C505.044 42.04 507.064 42.0067 508.944 41.94C510.824 41.8733 512.598 41.7267 514.264 41.5L514.404 43.02C513.124 43.2467 511.498 43.4333 509.524 43.58V46.44H507.364V43.68C506.031 43.7333 504.631 43.76 503.164 43.76L502.884 42.04ZM504.204 38.18C504.204 37.6067 504.391 37.1 504.764 36.66C505.138 36.2067 505.658 35.86 506.324 35.62C507.004 35.3667 507.778 35.24 508.644 35.24C509.511 35.24 510.278 35.3667 510.944 35.62C511.611 35.86 512.131 36.2067 512.504 36.66C512.878 37.1 513.064 37.6067 513.064 38.18C513.064 38.7667 512.878 39.2867 512.504 39.74C512.131 40.18 511.611 40.52 510.944 40.76C510.278 41 509.511 41.12 508.644 41.12C507.764 41.12 506.991 41 506.324 40.76C505.658 40.52 505.138 40.18 504.764 39.74C504.391 39.2867 504.204 38.7667 504.204 38.18ZM505.344 47.26H517.784V52.62H515.604V48.98H505.344V47.26ZM506.264 38.18C506.264 38.62 506.478 38.9667 506.904 39.22C507.331 39.46 507.911 39.58 508.644 39.58C509.364 39.58 509.938 39.46 510.364 39.22C510.791 38.9667 511.004 38.62 511.004 38.18C511.004 37.7533 510.791 37.42 510.364 37.18C509.938 36.9267 509.364 36.8 508.644 36.8C507.924 36.8 507.344 36.9267 506.904 37.18C506.478 37.42 506.264 37.7533 506.264 38.18ZM529.625 35.9V37.22C529.625 38.14 529.898 39.0333 530.445 39.9C530.991 40.7667 531.745 41.5133 532.705 42.14C533.678 42.7533 534.765 43.1667 535.965 43.38L535.005 45.2C533.525 44.9067 532.205 44.34 531.045 43.5C529.898 42.6467 529.038 41.62 528.465 40.42C527.878 41.6067 527.005 42.6267 525.845 43.48C524.698 44.3333 523.391 44.9067 521.925 45.2L520.985 43.38C522.171 43.1667 523.245 42.7467 524.205 42.12C525.178 41.4933 525.938 40.7467 526.485 39.88C527.031 39.0133 527.305 38.1267 527.305 37.22V35.9H529.625ZM520.485 48.54H536.605V50.34H520.485V48.54ZM549.535 43.34V41.66H544.575V35.6H556.715V37.36H546.735V39.9H556.835V41.66H551.715V43.34H558.675V45.1H542.595V43.34H549.535ZM544.435 49.38C544.435 48.3533 544.975 47.56 546.055 47C547.148 46.4267 548.661 46.14 550.595 46.14C552.515 46.14 554.015 46.4267 555.095 47C556.188 47.56 556.735 48.3533 556.735 49.38C556.735 50.4067 556.188 51.2 555.095 51.76C554.015 52.3333 552.515 52.62 550.595 52.62C548.661 52.62 547.148 52.3333 546.055 51.76C544.975 51.2 544.435 50.4067 544.435 49.38ZM546.655 49.38C546.655 50.42 547.968 50.94 550.595 50.94C553.208 50.94 554.515 50.42 554.515 49.38C554.515 48.8733 554.175 48.4867 553.495 48.22C552.828 47.9533 551.861 47.82 550.595 47.82C549.315 47.82 548.335 47.9533 547.655 48.22C546.988 48.4867 546.655 48.8733 546.655 49.38ZM573.995 34.82V39.96H576.455V41.78H573.995V47.9H571.795V34.82H573.995ZM560.675 36.08H562.855V38.8H566.935V36.08H569.095V45.04H560.675V36.08ZM562.675 46.6H564.875V50.5H574.695V52.26H562.675V46.6ZM566.935 43.28V40.5H562.855V43.28H566.935ZM583.995 35.78V37.36C583.995 38.6133 584.349 39.74 585.055 40.74C585.762 41.74 586.782 42.4533 588.115 42.88L586.955 44.6C586.022 44.28 585.215 43.8133 584.535 43.2C583.869 42.5733 583.342 41.8333 582.955 40.98C582.555 41.9667 581.982 42.82 581.235 43.54C580.502 44.2467 579.609 44.78 578.555 45.14L577.415 43.36C578.815 42.8933 579.895 42.1267 580.655 41.06C581.415 39.98 581.795 38.7733 581.795 37.44V35.78H583.995ZM580.295 49.18C580.295 48.1 580.835 47.26 581.915 46.66C582.995 46.06 584.475 45.76 586.355 45.76C588.222 45.76 589.689 46.06 590.755 46.66C591.835 47.26 592.375 48.1 592.375 49.18C592.375 50.26 591.842 51.1 590.775 51.7C589.709 52.3 588.235 52.6 586.355 52.6C584.475 52.6 582.995 52.3 581.915 51.7C580.835 51.1 580.295 50.26 580.295 49.18ZM582.515 49.18C582.515 49.74 582.842 50.1667 583.495 50.46C584.162 50.7533 585.115 50.9 586.355 50.9C587.582 50.9 588.529 50.7533 589.195 50.46C589.862 50.1667 590.195 49.74 590.195 49.18C590.195 48.62 589.862 48.1933 589.195 47.9C588.529 47.6067 587.582 47.46 586.355 47.46C585.115 47.46 584.162 47.6067 583.495 47.9C582.842 48.1933 582.515 48.62 582.515 49.18ZM586.615 38.24H590.095V34.82H592.295V45.28H590.095V40.06H586.615V38.24ZM605.016 36.04V37.82H601.356V38C601.356 39.12 601.709 40.1467 602.416 41.08C603.136 42 604.169 42.6733 605.516 43.1L604.456 44.8C603.483 44.4933 602.643 44.04 601.936 43.44C601.243 42.84 600.703 42.1333 600.316 41.32C599.916 42.28 599.343 43.1133 598.596 43.82C597.863 44.5267 596.976 45.0533 595.936 45.4L594.836 43.66C596.209 43.1933 597.269 42.4467 598.016 41.42C598.776 40.38 599.156 39.24 599.156 38V37.82H595.436V36.04H605.016ZM597.236 49.2C597.236 48.1333 597.769 47.3067 598.836 46.72C599.903 46.12 601.356 45.82 603.196 45.82C605.036 45.82 606.483 46.12 607.536 46.72C608.603 47.3067 609.136 48.1333 609.136 49.2C609.136 50.2667 608.603 51.1 607.536 51.7C606.483 52.3 605.036 52.6 603.196 52.6C601.356 52.6 599.903 52.3 598.836 51.7C597.769 51.1 597.236 50.2667 597.236 49.2ZM599.396 49.2C599.396 49.7467 599.723 50.1667 600.376 50.46C601.043 50.7533 601.983 50.9 603.196 50.9C604.396 50.9 605.323 50.7533 605.976 50.46C606.643 50.1667 606.976 49.7467 606.976 49.2C606.976 48.6533 606.649 48.24 605.996 47.96C605.343 47.68 604.409 47.54 603.196 47.54C601.969 47.54 601.029 47.68 600.376 47.96C599.723 48.24 599.396 48.6533 599.396 49.2ZM606.736 34.82H608.936V39.08H611.416V40.88H608.936V45.44H606.736V34.82ZM625.146 43.54C625.786 43.9133 626.299 44.42 626.686 45.06C627.072 45.6867 627.266 46.3133 627.266 46.94C627.266 47.7533 627.052 48.4867 626.626 49.14C626.212 49.78 625.632 50.28 624.886 50.64C624.139 51 623.286 51.18 622.326 51.18C621.379 51.18 620.532 50.9933 619.786 50.62C619.039 50.2467 618.452 49.7333 618.026 49.08C617.612 48.4133 617.406 47.66 617.406 46.82H619.526C619.526 47.5533 619.786 48.1533 620.306 48.62C620.826 49.0733 621.499 49.3 622.326 49.3C623.166 49.3 623.852 49.0733 624.386 48.62C624.932 48.1533 625.206 47.5533 625.206 46.82C625.206 46.1133 624.939 45.54 624.406 45.1C623.872 44.6467 623.192 44.42 622.366 44.42H621.326V42.64H622.386C623.146 42.64 623.766 42.44 624.246 42.04C624.739 41.6267 624.986 41.1 624.986 40.46C624.986 39.8067 624.752 39.28 624.286 38.88C623.819 38.4667 623.212 38.26 622.466 38.26C621.732 38.26 621.132 38.4667 620.666 38.88C620.199 39.2933 619.966 39.8267 619.966 40.48H617.846C617.846 39.68 618.039 38.9733 618.426 38.36C618.826 37.7333 619.372 37.2467 620.066 36.9C620.772 36.5533 621.572 36.38 622.466 36.38C623.346 36.38 624.132 36.5533 624.826 36.9C625.519 37.2333 626.059 37.7 626.446 38.3C626.846 38.9 627.046 39.58 627.046 40.34C627.046 40.9133 626.872 41.5 626.526 42.1C626.179 42.6867 625.719 43.1667 625.146 43.54ZM644.122 34.8V52.6H642.022V43.56H640.082V51.72H638.042V35.16H640.082V41.76H642.022V34.8H644.122ZM629.482 36.92H636.042V38.7H631.642V46.64C633.589 46.6133 635.349 46.4533 636.922 46.16L637.122 47.96C636.109 48.16 635.116 48.2933 634.142 48.36C633.169 48.4267 632.016 48.46 630.682 48.46H629.482V36.92ZM667.092 43V44.76H660.132V46.3C661.732 46.4067 662.972 46.7333 663.852 47.28C664.732 47.8133 665.172 48.5333 665.172 49.44C665.172 50.44 664.625 51.2133 663.532 51.76C662.452 52.32 660.952 52.6 659.032 52.6C657.099 52.6 655.585 52.32 654.492 51.76C653.412 51.2133 652.872 50.44 652.872 49.44C652.872 48.5333 653.312 47.8133 654.192 47.28C655.085 46.7333 656.332 46.4067 657.932 46.3V44.76H651.012V43H667.092ZM651.772 40.44C652.839 40.3467 653.779 40.1467 654.592 39.84C655.419 39.5333 656.079 39.1667 656.572 38.74C657.065 38.3 657.372 37.8333 657.492 37.34H652.472V35.6H665.652V37.34H660.612C660.799 38.1133 661.399 38.7867 662.412 39.36C663.425 39.9333 664.732 40.2933 666.332 40.44L665.552 42.16C663.965 41.9867 662.605 41.6 661.472 41C660.339 40.4 659.532 39.6467 659.052 38.74C658.572 39.6467 657.765 40.4 656.632 41C655.499 41.6 654.132 41.9867 652.532 42.16L651.772 40.44ZM655.092 49.44C655.092 49.9333 655.425 50.3067 656.092 50.56C656.759 50.8133 657.739 50.94 659.032 50.94C660.312 50.94 661.285 50.8133 661.952 50.56C662.619 50.3067 662.952 49.9333 662.952 49.44C662.952 48.9333 662.619 48.5533 661.952 48.3C661.285 48.0467 660.312 47.92 659.032 47.92C656.405 47.92 655.092 48.4267 655.092 49.44ZM681.053 39.04V34.82H683.253V45.14H681.053V40.84H678.033V39.04H681.053ZM668.433 43.36C669.793 42.9067 670.846 42.16 671.593 41.12C672.353 40.08 672.733 38.9467 672.733 37.72V37.56H669.053V35.8H678.613V37.56H674.953V37.7C674.953 38.8333 675.313 39.8933 676.033 40.88C676.766 41.8533 677.793 42.56 679.112 43L678.013 44.74C677.053 44.4067 676.226 43.92 675.533 43.28C674.839 42.6267 674.293 41.8667 673.893 41C673.506 41.96 672.939 42.8 672.193 43.52C671.459 44.2267 670.579 44.76 669.553 45.12L668.433 43.36ZM671.513 45.92H683.253V52.4H671.513V45.92ZM681.113 50.66V47.64H673.673V50.66H681.113ZM706.682 45.5V47.3H699.722V52.64H697.502V47.3H690.582V45.5H706.682ZM691.482 42.7C692.616 42.5533 693.622 42.28 694.502 41.88C695.396 41.4667 696.096 40.98 696.602 40.42C697.109 39.86 697.402 39.2733 697.482 38.66H692.062V36.9H697.502V34.84H699.722V36.9H705.182V38.66H699.742C699.822 39.26 700.116 39.8467 700.622 40.42C701.142 40.98 701.842 41.4667 702.722 41.88C703.602 42.28 704.609 42.5533 705.742 42.7L704.962 44.42C703.522 44.2467 702.249 43.86 701.142 43.26C700.049 42.66 699.209 41.92 698.622 41.04C698.049 41.92 697.209 42.66 696.102 43.26C694.996 43.8467 693.709 44.2333 692.242 44.42L691.482 42.7ZM718.483 36.14V37.9H714.763V38.4C714.763 39.56 715.136 40.6267 715.883 41.6C716.643 42.56 717.703 43.2667 719.063 43.72L717.943 45.42C716.956 45.1 716.103 44.62 715.383 43.98C714.663 43.34 714.096 42.58 713.683 41.7C713.283 42.6467 712.709 43.4667 711.963 44.16C711.229 44.8533 710.343 45.38 709.303 45.74L708.183 44.02C709.556 43.5533 710.623 42.8067 711.383 41.78C712.143 40.7533 712.523 39.6267 712.523 38.4V37.9H708.783V36.14H718.483ZM711.063 46.54H713.263V50.5H723.243V52.26H711.063V46.54ZM720.543 34.82H722.763V47.74H720.543V34.82ZM738.123 39.52V34.82H740.323V47.8H738.123V41.3H735.023V39.52H738.123ZM725.483 44C726.843 43.5333 727.903 42.78 728.663 41.74C729.423 40.7 729.803 39.5667 729.803 38.34V37.86H726.103V36.1H735.663V37.86H732.023V38.34C732.023 39.4733 732.383 40.5333 733.103 41.52C733.837 42.4933 734.857 43.2 736.163 43.64L735.083 45.36C734.123 45.0267 733.29 44.54 732.583 43.9C731.89 43.26 731.343 42.5 730.943 41.62C730.557 42.58 729.99 43.42 729.243 44.14C728.51 44.86 727.63 45.3933 726.603 45.74L725.483 44ZM728.703 46.7H730.923V50.5H740.763V52.26H728.703V46.7ZM751.784 35.84V41.08H745.904V43.1C747.517 43.0867 748.877 43.0467 749.984 42.98C751.104 42.9 752.23 42.7533 753.364 42.54L753.564 44.32C752.337 44.5467 751.104 44.7 749.864 44.78C748.637 44.8467 747.077 44.88 745.184 44.88H743.724V39.44H749.604V37.58H743.684V35.84H751.784ZM745.204 46.5H756.964V52.62H754.764V48.26H745.204V46.5ZM754.764 34.82H756.964V37.42H759.424V39.22H756.964V41.18H759.424V42.98H756.964V45.64H754.764V34.82Z" fill="white"/>
<rect y="104" width="384" height="255" rx="16" fill="#F6F6F7"/>
<path d="M47.776 160.464C51.214 160.464 53.428 161.598 53.428 163.47C53.428 165.324 51.214 166.458 47.776 166.458C44.338 166.458 42.142 165.324 42.142 163.47C42.142 161.598 44.338 160.464 47.776 160.464ZM40.63 159.294V157.71H46.21V154.812H48.172V157.71H55.066V159.294H40.63ZM42.286 152.76V151.194H53.302V152.526C53.302 153.804 53.302 155.136 52.87 156.792L50.926 156.576C51.322 155.046 51.34 153.912 51.34 152.76H42.286ZM44.104 163.47C44.104 164.424 45.472 164.946 47.776 164.946C50.08 164.946 51.448 164.424 51.448 163.47C51.448 162.498 50.08 161.958 47.776 161.958C45.472 161.958 44.104 162.498 44.104 163.47ZM64.9484 154.416H67.6664V150.438H69.6464V159.942H67.6664V156.018H64.9484V154.416ZM56.3084 158.34C58.8284 157.458 60.1784 155.316 60.1784 153.156V153.066H56.8484V151.482H65.4524V153.066H62.1764V153.156C62.1764 155.118 63.4364 157.08 65.9024 157.926L64.9124 159.474C63.1484 158.862 61.9064 157.656 61.2224 156.144C60.5204 157.854 59.2064 159.24 57.2984 159.906L56.3084 158.34ZM58.8464 163.416C58.8464 161.508 60.9164 160.356 64.2824 160.356C67.6304 160.356 69.7004 161.508 69.7004 163.416C69.7004 165.342 67.6304 166.458 64.2824 166.458C60.9164 166.458 58.8464 165.342 58.8464 163.416ZM60.8264 163.416C60.8264 164.406 62.0684 164.946 64.2824 164.946C66.4784 164.946 67.7384 164.406 67.7384 163.416C67.7384 162.408 66.4784 161.868 64.2824 161.868C62.0684 161.868 60.8264 162.408 60.8264 163.416ZM82.6248 150.438H84.6048V155.46H86.8368V157.098H84.6048V162.426H82.6248V150.438ZM72.0948 153.768V152.202H75.8208V150.42H77.8008V152.202H81.5268V153.768H72.0948ZM72.9228 157.512C72.9228 155.694 74.5248 154.47 76.8108 154.47C79.1148 154.47 80.7168 155.694 80.7168 157.512C80.7168 159.348 79.1148 160.572 76.8108 160.572C74.5248 160.572 72.9228 159.348 72.9228 157.512ZM74.4168 166.134V161.49H76.3968V164.55H85.2528V166.134H74.4168ZM74.8128 157.512C74.8128 158.484 75.6228 159.042 76.8108 159.042C77.9988 159.042 78.8088 158.484 78.8088 157.512C78.8088 156.54 77.9988 155.982 76.8108 155.982C75.6228 155.982 74.8128 156.54 74.8128 157.512ZM103.226 150.42H105.206V166.44H103.226V150.42ZM92.0477 162.066C96.2057 160.068 98.0957 157.35 98.4377 153.696H92.8397V152.094H100.472C100.472 156.9 98.6537 160.932 93.0737 163.632L92.0477 162.066ZM118.94 150.438H120.902V166.458H118.94V150.438ZM107.762 162.012C109.004 162.012 110.426 162.012 111.92 161.976V160.482C110.138 160.194 108.986 159.096 108.986 157.566C108.986 155.766 110.57 154.578 112.91 154.578C115.232 154.578 116.852 155.766 116.852 157.566C116.852 159.096 115.682 160.194 113.9 160.482V161.904C115.304 161.832 116.708 161.724 118.04 161.544L118.166 162.966C114.656 163.614 110.876 163.632 107.996 163.632L107.762 162.012ZM108.068 153.822V152.274H111.92V150.474H113.9V152.274H117.752V153.822H108.068ZM110.858 157.566C110.858 158.502 111.704 159.06 112.91 159.06C114.134 159.06 114.962 158.502 114.962 157.566C114.962 156.63 114.134 156.072 112.91 156.072C111.704 156.072 110.858 156.63 110.858 157.566ZM139.361 150.42H141.233V166.44H139.361V150.42ZM127.283 161.922C129.569 160.482 130.559 157.602 130.559 154.794V153.75H127.805V152.13H135.023V153.75H132.485V154.794C132.485 157.494 133.421 160.23 135.689 161.562L134.519 162.984C133.061 162.102 132.089 160.59 131.531 158.772C130.991 160.752 129.983 162.426 128.471 163.38L127.283 161.922ZM133.853 157.62V156.018H136.139V150.726H137.975V165.684H136.139V157.62H133.853ZM150.467 160.464C153.905 160.464 156.119 161.598 156.119 163.47C156.119 165.324 153.905 166.458 150.467 166.458C147.029 166.458 144.833 165.324 144.833 163.47C144.833 161.598 147.029 160.464 150.467 160.464ZM143.321 159.294V157.71H148.901V154.812H150.863V157.71H157.757V159.294H143.321ZM144.977 152.76V151.194H155.993V152.526C155.993 153.804 155.993 155.136 155.561 156.792L153.617 156.576C154.013 155.046 154.031 153.912 154.031 152.76H144.977ZM146.795 163.47C146.795 164.424 148.163 164.946 150.467 164.946C152.771 164.946 154.139 164.424 154.139 163.47C154.139 162.498 152.771 161.958 150.467 161.958C148.163 161.958 146.795 162.498 146.795 163.47ZM164.012 151.41H171.644V158.106H164.012V151.41ZM164.948 164.91C168.026 164.622 169.934 163.272 170.114 161.994H165.578V160.5H170.15V159.114H172.166V160.5H176.702V161.994H172.184C172.364 163.236 174.272 164.604 177.296 164.91L176.666 166.404C174.074 166.134 172.112 165.108 171.14 163.794C170.168 165.126 168.206 166.134 165.596 166.404L164.948 164.91ZM165.938 156.54H169.736V152.976H165.938V156.54ZM174.434 159.564V150.438H176.432V159.564H174.434ZM191.669 153.822H194.387V150.438H196.349V158.61H194.387V155.388H191.669V153.822ZM182.975 157.368C185.477 156.54 186.845 154.596 186.845 152.742V152.688H183.533V151.104H192.119V152.688H188.843V152.742C188.843 154.524 190.121 156.288 192.551 157.008L191.615 158.556C189.833 158.016 188.555 156.882 187.871 155.478C187.151 157.044 185.819 158.322 183.929 158.898L182.975 157.368ZM185.873 160.86V159.33H196.349V163.452H187.871V164.73H196.871V166.278H185.909V162.012H194.405V160.86H185.873ZM199.05 153.102H202.452V150.762H204.414V153.102H207.744V154.668H204.414V155.496C204.414 157.89 205.728 160.464 208.14 161.652L207.078 163.146C205.368 162.336 204.126 160.734 203.46 158.862C202.776 160.896 201.462 162.588 199.644 163.434L198.564 161.922C201.066 160.752 202.452 158.034 202.452 155.496V154.668H199.05V153.102ZM209.256 166.458V150.438H211.254V156.792H213.702V158.43H211.254V166.458H209.256ZM223.17 154.38H225.834V150.438H227.814V159.978H225.834V156H223.17V154.38ZM214.476 158.25C217.014 157.386 218.346 155.28 218.346 153.156V152.976H215.034V151.392H223.638V152.976H220.344V153.156C220.344 155.118 221.622 157.08 224.088 157.926L223.098 159.474C221.334 158.862 220.092 157.638 219.39 156.126C218.706 157.8 217.374 159.15 215.484 159.798L214.476 158.25ZM216.996 162.354V160.752H227.814V166.458H225.834V162.354H216.996ZM234.393 160.014H248.901V161.634H242.637V166.476H240.639V161.634H234.393V160.014ZM236.265 158.682V151.122H247.173V152.688H238.209V154.092H246.831V155.622H238.209V157.098H247.353V158.682H236.265ZM261.465 150.438H263.445V159.852H261.465V157.638H258.297V158.88H250.827V151.59H258.297V152.85H261.465V150.438ZM252.645 163.362C252.645 161.418 254.715 160.284 258.081 160.284C261.429 160.284 263.517 161.418 263.517 163.362C263.517 165.324 261.429 166.44 258.081 166.44C254.715 166.44 252.645 165.324 252.645 163.362ZM252.771 157.332H256.353V153.174H252.771V157.332ZM254.625 163.362C254.625 164.37 255.867 164.928 258.081 164.928C260.295 164.928 261.537 164.37 261.537 163.362C261.537 162.354 260.295 161.814 258.081 161.814C255.867 161.814 254.625 162.354 254.625 163.362ZM258.297 156.054H261.465V154.434H258.297V156.054ZM269.71 151.302H271.69V152.724C271.69 154.902 272.932 156.9 275.398 157.692L274.354 159.24C272.644 158.646 271.438 157.476 270.754 155.982C270.052 157.71 268.72 159.06 266.794 159.726L265.768 158.124C268.378 157.26 269.71 155.118 269.71 152.796V151.302ZM268.36 163.362C268.36 161.418 270.448 160.284 273.814 160.284C277.162 160.284 279.232 161.418 279.232 163.362C279.232 165.324 277.162 166.44 273.814 166.44C270.448 166.44 268.36 165.324 268.36 163.362ZM270.358 163.362C270.358 164.37 271.582 164.91 273.814 164.91C276.01 164.91 277.27 164.37 277.27 163.362C277.27 162.354 276.01 161.814 273.814 161.814C271.582 161.814 270.358 162.354 270.358 163.362ZM274.048 155.154V153.516H277.18V150.438H279.16V159.852H277.18V155.154H274.048ZM285.757 159.42H300.265V161.04H296.737V166.44H294.721V161.04H291.229V166.44H289.195V161.04H285.757V159.42ZM287.251 154.56C287.251 152.382 289.573 151.032 292.957 151.032C296.359 151.032 298.681 152.382 298.681 154.56C298.681 156.738 296.359 158.106 292.957 158.106C289.573 158.106 287.251 156.738 287.251 154.56ZM289.285 154.56C289.285 155.82 290.725 156.522 292.957 156.522C295.207 156.522 296.665 155.82 296.665 154.56C296.665 153.336 295.207 152.598 292.957 152.598C290.725 152.598 289.285 153.336 289.285 154.56ZM301.975 152.004H310.957V153.642H307.465V154.974C307.465 157.62 309.013 160.374 311.551 161.454L310.453 163.02C308.599 162.192 307.231 160.518 306.493 158.484C305.773 160.68 304.387 162.534 302.515 163.416L301.381 161.85C303.919 160.68 305.467 157.71 305.467 154.974V153.642H301.975V152.004ZM312.703 166.458V150.438H314.683V166.458H312.703Z" fill="#6D0CA6"/>
<path d="M50.2242 202.16C50.2242 201.68 50.2989 201.296 50.4482 201.008C50.6082 200.709 50.8215 200.496 51.0882 200.368C51.3655 200.24 51.6695 200.176 52.0002 200.176C52.3309 200.176 52.6295 200.24 52.8962 200.368C53.1629 200.496 53.3762 200.709 53.5362 201.008C53.6962 201.296 53.7762 201.68 53.7762 202.16C53.7762 202.629 53.6962 203.013 53.5362 203.312C53.3762 203.6 53.1629 203.813 52.8962 203.952C52.6295 204.08 52.3309 204.144 52.0002 204.144C51.6695 204.144 51.3655 204.08 51.0882 203.952C50.8215 203.813 50.6082 203.6 50.4482 203.312C50.2989 203.013 50.2242 202.629 50.2242 202.16ZM70.96 195.456C73.952 195.456 75.92 196.56 75.92 198.304C75.92 200.032 73.952 201.12 70.96 201.12C67.984 201.12 66.016 200.032 66.016 198.304C66.016 196.56 67.984 195.456 70.96 195.456ZM64.624 203.264V202.144H77.344V203.264H74.144V206.128H72.752V203.264H70.416V206.128H69.024V203.264H64.624ZM66.16 208.896V204.944H67.536V207.776H76.032V208.896H66.16ZM67.488 198.304C67.488 199.36 68.88 200 70.96 200C73.056 200 74.448 199.36 74.448 198.304C74.448 197.248 73.056 196.592 70.96 196.592C68.88 196.592 67.488 197.248 67.488 198.304ZM88.7684 195.104H90.1604V209.232H88.7684V195.104ZM79.3604 197.552V196.432H85.8884V201.504H80.7844V204.688C83.0884 204.688 85.0884 204.576 87.4884 204.192L87.6324 205.328C85.1204 205.744 83.0084 205.824 80.5764 205.824H79.3924V200.384H84.4964V197.552H79.3604ZM100.113 198.752H102.769V195.136H104.161V203.536H102.769V199.904H100.113V198.752ZM92.5928 202.24C94.7048 201.504 96.0968 199.632 96.0968 197.664V197.2H93.0088V196.064H100.545V197.2H97.4888V197.664C97.4888 199.456 98.8168 201.2 100.897 201.92L100.177 203.024C98.6088 202.448 97.4408 201.296 96.8328 199.872C96.2248 201.472 94.9768 202.736 93.3128 203.328L92.5928 202.24ZM94.7528 205.424V204.288H104.161V209.216H102.769V205.424H94.7528ZM111.833 196.032H121.337V197.264C121.337 198.592 121.337 200.048 120.937 202.08H122.985V203.232H117.289V209.232H115.881V203.232H110.249V202.08H119.529C119.961 200.08 119.961 198.576 119.961 197.264V197.152H111.833V196.032ZM134.873 195.12H136.201V209.2H134.873V201.808H133.065V208.496H131.769V195.424H133.065V200.672H134.873V195.12ZM124.729 205.456V196.72H130.105V205.456H124.729ZM126.025 204.368H128.825V197.824H126.025V204.368ZM149.121 198.4H152.113V195.136H153.505V205.648H152.113V199.552H149.121V198.4ZM141.889 202.576C144.017 201.792 145.377 199.824 145.377 197.68V195.968H146.769V197.712C146.769 199.664 148.097 201.504 150.145 202.272L149.409 203.344C147.873 202.736 146.705 201.552 146.097 200.064C145.505 201.728 144.273 203.024 142.625 203.68L141.889 202.576ZM144.417 208.896V204.496H145.793V207.776H153.841V208.896H144.417ZM166.097 195.136H167.489V205.488H166.097V200.128H163.329C163.041 201.856 161.585 203.024 159.729 203.024C157.649 203.024 156.097 201.568 156.097 199.52C156.097 197.472 157.649 196.032 159.729 196.032C161.617 196.032 163.105 197.232 163.345 199.008H166.097V195.136ZM157.409 199.52C157.409 200.88 158.417 201.808 159.729 201.808C161.041 201.808 162.049 200.88 162.049 199.52C162.049 198.176 161.041 197.248 159.729 197.248C158.417 197.248 157.409 198.176 157.409 199.52ZM158.449 208.896V204.448H159.841V207.776H167.873V208.896H158.449ZM50.2242 228.16C50.2242 227.68 50.2989 227.296 50.4482 227.008C50.6082 226.709 50.8215 226.496 51.0882 226.368C51.3655 226.24 51.6695 226.176 52.0002 226.176C52.3309 226.176 52.6295 226.24 52.8962 226.368C53.1629 226.496 53.3762 226.709 53.5362 227.008C53.6962 227.296 53.7762 227.68 53.7762 228.16C53.7762 228.629 53.6962 229.013 53.5362 229.312C53.3762 229.6 53.1629 229.813 52.8962 229.952C52.6295 230.08 52.3309 230.144 52.0002 230.144C51.6695 230.144 51.3655 230.08 51.0882 229.952C50.8215 229.813 50.6082 229.6 50.4482 229.312C50.2989 229.013 50.2242 228.629 50.2242 228.16ZM65.04 222.56H72.912V223.712H69.664V225.36C69.664 227.744 71.296 230.16 73.392 231.056L72.608 232.16C70.992 231.408 69.648 229.84 68.992 227.936C68.336 229.968 67.008 231.712 65.376 232.512L64.576 231.408C66.64 230.432 68.272 227.792 68.272 225.36V223.712H65.04V222.56ZM74.736 235.216V221.136H76.128V235.216H74.736ZM78.5924 228.16H84.2564V226.064H85.6324V228.16H91.3444V229.28H78.5924V228.16ZM79.3284 225.712C81.9364 225.36 84.2564 223.792 84.2564 221.952V221.36H85.6484V221.952C85.6484 223.792 87.9524 225.36 90.5604 225.712L90.0324 226.816C87.8404 226.448 85.8404 225.36 84.9444 223.776C84.0644 225.36 82.0484 226.448 79.8564 226.816L79.3284 225.712ZM80.0004 231.728V230.608H89.7444V235.216H88.3684V231.728H80.0004ZM100.113 224.752H102.769V221.136H104.161V229.536H102.769V225.904H100.113V224.752ZM92.5928 228.24C94.7048 227.504 96.0968 225.632 96.0968 223.664V223.2H93.0088V222.064H100.545V223.2H97.4888V223.664C97.4888 225.456 98.8168 227.2 100.897 227.92L100.177 229.024C98.6088 228.448 97.4408 227.296 96.8328 225.872C96.2248 227.472 94.9768 228.736 93.3128 229.328L92.5928 228.24ZM94.7528 231.424V230.288H104.161V235.216H102.769V231.424H94.7528ZM116.721 221.136H118.113V231.392H116.721V221.136ZM106.849 225.584C106.849 223.536 108.449 222.096 110.545 222.096C112.657 222.096 114.241 223.536 114.241 225.584C114.241 227.616 112.657 229.056 110.545 229.056C108.449 229.056 106.849 227.616 106.849 225.584ZM108.209 225.584C108.209 226.912 109.217 227.84 110.545 227.84C111.873 227.84 112.897 226.912 112.897 225.584C112.897 224.224 111.873 223.296 110.545 223.296C109.217 223.296 108.209 224.224 108.209 225.584ZM109.041 234.896V230.352H110.417V233.776H118.529V234.896H109.041ZM132.137 224.368H134.425V221.136H135.817V229.44H134.425V228.24H132.121V227.12H134.425V225.488H132.137V224.368ZM124.233 223.616V222.512H127.545V220.992H128.937V222.512H132.121V223.616H124.233ZM125.017 226.816C125.017 225.28 126.345 224.272 128.217 224.272C130.121 224.272 131.417 225.28 131.417 226.816C131.417 228.336 130.121 229.344 128.217 229.344C126.345 229.344 125.017 228.336 125.017 226.816ZM126.329 226.816C126.329 227.712 127.081 228.32 128.217 228.32C129.353 228.32 130.121 227.712 130.121 226.816C130.121 225.904 129.353 225.312 128.217 225.312C127.081 225.312 126.329 225.904 126.329 226.816ZM126.681 235.024V230.048H128.041V231.44H134.457V230.048H135.817V235.024H126.681ZM128.041 233.936H134.457V232.512H128.041V233.936ZM138.745 221.968H144.841V226.016H140.169V228.08C142.681 228.08 144.009 228.016 145.609 227.728L145.753 228.848C144.025 229.152 142.617 229.2 139.801 229.2H138.793V224.944H143.481V223.104H138.745V221.968ZM140.361 231.648V230.528H149.817V235.232H148.425V231.648H140.361ZM145.753 227.248V226.128H148.425V224.336H145.753V223.2H148.425V221.136H149.817V229.792H148.425V227.248H145.753ZM156.042 221.776C157.914 221.776 159.338 222.832 159.626 224.448H162.41V221.136H163.802V228.672H162.41V225.584H159.626C159.37 227.216 157.93 228.32 156.042 228.32C153.93 228.32 152.394 226.976 152.394 225.04C152.394 223.104 153.93 221.776 156.042 221.776ZM153.722 225.04C153.722 226.288 154.682 227.152 156.042 227.152C157.386 227.152 158.346 226.288 158.346 225.04C158.346 223.776 157.386 222.928 156.042 222.928C154.682 222.928 153.722 223.776 153.722 225.04ZM154.746 235.024V229.376H156.122V231.072H162.426V229.376H163.802V235.024H154.746ZM156.122 233.904H162.426V232.176H156.122V233.904ZM171.914 226.656H173.994V221.44H175.29V234.496H173.994V227.792H171.914V226.656ZM166.042 231.312C167.962 230.176 168.986 227.744 168.986 225.456V224.832H166.442V223.696H168.986V221.616H170.314V223.696H172.842V224.832H170.314V225.456C170.314 227.68 171.386 229.968 173.29 231.008L172.506 232.048C171.146 231.296 170.186 229.92 169.674 228.288C169.178 230.032 168.218 231.552 166.842 232.368L166.042 231.312ZM176.81 235.2V221.12H178.138V235.2H176.81ZM184.434 221.712H185.81V223.696H189.618V221.712H190.978V227.856H184.434V221.712ZM185.81 226.736H189.618V224.768H185.81V226.736ZM185.826 230.128V229.04H194.818V232.512H187.234V233.952H195.314V235.056H185.858V231.472H193.458V230.128H185.826ZM193.426 228.368V221.136H194.818V224.128H196.85V225.264H194.818V228.368H193.426ZM199.474 221.696H208.962V222.608C208.962 223.52 208.962 224.704 208.69 226.176H210.594V227.296H204.882V229.008H209.01V232.496H200.754V233.952H209.362V235.056H199.378V231.504H207.634V230.128H199.33V229.008H203.506V227.296H197.842V226.176H207.314C207.602 224.752 207.618 223.712 207.618 222.816H199.474V221.696ZM216.266 222.032H222.842V227.808H216.266V222.032ZM217.21 234.096C219.706 233.824 221.802 232.528 221.866 231.2H217.77V230.128H221.882V228.8H223.29V230.128H227.386V231.2H223.29C223.354 232.496 225.418 233.808 227.882 234.096L227.418 235.168C225.258 234.88 223.418 233.92 222.57 232.64C221.722 233.936 219.85 234.88 217.674 235.168L217.21 234.096ZM217.594 226.704H221.514V223.136H217.594V226.704ZM225.69 229.2V221.136H227.082V229.2H225.69ZM239.49 230.016C242.498 230.016 244.418 230.992 244.418 232.608C244.418 234.224 242.498 235.2 239.49 235.2C236.498 235.2 234.594 234.224 234.594 232.608C234.594 230.992 236.498 230.016 239.49 230.016ZM233.202 228.784V227.664H238.354V224.992H239.73V227.664H245.89V228.784H233.202ZM234.69 222.96V221.84H244.29V223.024C244.29 224.16 244.29 225.312 243.906 226.752L242.562 226.608C242.93 225.168 242.93 224.128 242.93 223.024V222.96H234.69ZM235.954 232.608C235.954 233.552 237.33 234.128 239.49 234.128C241.666 234.128 243.026 233.552 243.026 232.608C243.026 231.648 241.666 231.072 239.49 231.072C237.33 231.072 235.954 231.648 235.954 232.608ZM254.675 224.752H257.379V221.136H258.771V229.504H257.379V225.888H254.675V224.752ZM247.203 228.304C249.315 227.536 250.707 225.648 250.707 223.648V223.264H247.603V222.128H255.139V223.264H252.099V223.648C252.099 225.456 253.411 227.2 255.491 227.92L254.771 229.008C253.203 228.448 252.035 227.296 251.427 225.872C250.835 227.488 249.571 228.784 247.907 229.408L247.203 228.304ZM249.411 232.576C249.411 230.912 251.187 229.92 254.115 229.92C257.027 229.92 258.819 230.912 258.819 232.576C258.819 234.24 257.027 235.2 254.115 235.2C251.187 235.2 249.411 234.24 249.411 232.576ZM250.786 232.576C250.786 233.552 252.035 234.128 254.115 234.128C256.195 234.128 257.443 233.552 257.443 232.576C257.443 231.584 256.195 231.008 254.115 231.008C252.035 231.008 250.786 231.584 250.786 232.576ZM270.707 221.136H272.099V225.712H274.163V226.864H272.099V231.696H270.707V221.136ZM261.187 223.92V222.8H264.659V221.136H266.035V222.8H269.507V223.92H261.187ZM261.971 227.296C261.971 225.712 263.347 224.656 265.347 224.656C267.347 224.656 268.723 225.712 268.723 227.296C268.723 228.896 267.347 229.936 265.347 229.936C263.347 229.936 261.971 228.896 261.971 227.296ZM263.283 227.296C263.283 228.256 264.115 228.848 265.347 228.848C266.563 228.848 267.395 228.256 267.395 227.296C267.395 226.336 266.563 225.744 265.347 225.744C264.115 225.744 263.283 226.336 263.283 227.296ZM263.299 234.896V230.848H264.675V233.776H272.723V234.896H263.299ZM289.019 221.136H290.395V235.216H289.019V227.888H285.819V226.736H289.019V221.136ZM278.779 231.488C282.523 229.648 284.219 227.04 284.475 223.76H279.403V222.624H285.867C285.867 226.672 284.251 230.224 279.547 232.56L278.779 231.488ZM293.243 222.64H298.507V227.648H294.603V230.72C296.139 230.704 297.595 230.64 299.323 230.352L299.451 231.488C297.515 231.824 295.947 231.872 294.203 231.872H293.275V226.528H297.179V223.76H293.243V222.64ZM300.251 234.48V221.44H301.563V226.656H303.435V221.12H304.763V235.2H303.435V227.792H301.563V234.48H300.251ZM320.659 221.12H322.051V235.2H320.659V221.12ZM310.627 231.504C314.371 229.712 316.211 227.072 316.483 223.76H311.283V222.624H317.891C317.891 226.736 316.115 230.304 311.363 232.608L310.627 231.504ZM334.579 221.136H335.955V235.216H334.579V221.136ZM324.531 231.408C325.699 231.408 327.027 231.408 328.403 231.36V229.888C326.755 229.68 325.699 228.72 325.699 227.328C325.699 225.744 327.059 224.72 329.091 224.72C331.107 224.72 332.499 225.744 332.499 227.328C332.499 228.72 331.427 229.68 329.795 229.888V231.312C331.123 231.248 332.451 231.136 333.699 230.976L333.795 232C330.675 232.544 327.283 232.576 324.723 232.576L324.531 231.408ZM324.819 223.936V222.832H328.403V221.136H329.795V222.832H333.363V223.936H324.819ZM327.011 227.328C327.011 228.272 327.859 228.864 329.091 228.864C330.339 228.864 331.171 228.272 331.171 227.328C331.171 226.384 330.339 225.776 329.091 225.776C327.859 225.776 327.011 226.384 327.011 227.328ZM75.232 247.12H76.56V261.2H75.232V247.12ZM64.416 257.392C66.368 256.192 67.424 253.632 67.424 251.072V249.888H64.8V248.736H71.216V249.888H68.768V251.072C68.768 253.504 69.776 255.936 71.712 257.072L70.88 258.08C69.536 257.264 68.608 255.792 68.112 254.048C67.616 255.936 66.656 257.536 65.264 258.416L64.416 257.392ZM70.16 253.296V252.16H72.416V247.44H73.712V260.496H72.416V253.296H70.16ZM84.8964 256.016C87.9044 256.016 89.8244 256.992 89.8244 258.608C89.8244 260.224 87.9044 261.2 84.8964 261.2C81.9044 261.2 80.0004 260.224 80.0004 258.608C80.0004 256.992 81.9044 256.016 84.8964 256.016ZM78.6084 254.784V253.664H83.7604V250.992H85.1364V253.664H91.2964V254.784H78.6084ZM80.0964 248.96V247.84H89.6964V249.024C89.6964 250.16 89.6964 251.312 89.3124 252.752L87.9684 252.608C88.3364 251.168 88.3364 250.128 88.3364 249.024V248.96H80.0964ZM81.3604 258.608C81.3604 259.552 82.7364 260.128 84.8964 260.128C87.0724 260.128 88.4324 259.552 88.4324 258.608C88.4324 257.648 87.0724 257.072 84.8964 257.072C82.7364 257.072 81.3604 257.648 81.3604 258.608ZM50.2242 280.16C50.2242 279.68 50.2989 279.296 50.4482 279.008C50.6082 278.709 50.8215 278.496 51.0882 278.368C51.3655 278.24 51.6695 278.176 52.0002 278.176C52.3309 278.176 52.6295 278.24 52.8962 278.368C53.1629 278.496 53.3762 278.709 53.5362 279.008C53.6962 279.296 53.7762 279.68 53.7762 280.16C53.7762 280.629 53.6962 281.013 53.5362 281.312C53.3762 281.6 53.1629 281.813 52.8962 281.952C52.6295 282.08 52.3309 282.144 52.0002 282.144C51.6695 282.144 51.3655 282.08 51.0882 281.952C50.8215 281.813 50.6082 281.6 50.4482 281.312C50.2989 281.013 50.2242 280.629 50.2242 280.16ZM72.512 276.368H74.8V273.136H76.192V281.44H74.8V280.24H72.496V279.12H74.8V277.488H72.512V276.368ZM64.608 275.616V274.512H67.92V272.992H69.312V274.512H72.496V275.616H64.608ZM65.392 278.816C65.392 277.28 66.72 276.272 68.592 276.272C70.496 276.272 71.792 277.28 71.792 278.816C71.792 280.336 70.496 281.344 68.592 281.344C66.72 281.344 65.392 280.336 65.392 278.816ZM66.704 278.816C66.704 279.712 67.456 280.32 68.592 280.32C69.728 280.32 70.496 279.712 70.496 278.816C70.496 277.904 69.728 277.312 68.592 277.312C67.456 277.312 66.704 277.904 66.704 278.816ZM67.056 287.024V282.048H68.416V283.44H74.832V282.048H76.192V287.024H67.056ZM68.416 285.936H74.832V284.512H68.416V285.936ZM79.1204 273.968H85.2164V278.016H80.5444V280.08C83.0564 280.08 84.3844 280.016 85.9844 279.728L86.1284 280.848C84.4004 281.152 82.9924 281.2 80.1764 281.2H79.1684V276.944H83.8564V275.104H79.1204V273.968ZM80.7364 283.648V282.528H90.1924V287.232H88.8004V283.648H80.7364ZM86.1284 279.248V278.128H88.8004V276.336H86.1284V275.2H88.8004V273.136H90.1924V281.792H88.8004V279.248H86.1284ZM96.4168 273.776C98.2888 273.776 99.7128 274.832 100.001 276.448H102.785V273.136H104.177V280.672H102.785V277.584H100.001C99.7448 279.216 98.3048 280.32 96.4168 280.32C94.3048 280.32 92.7688 278.976 92.7688 277.04C92.7688 275.104 94.3048 273.776 96.4168 273.776ZM94.0968 277.04C94.0968 278.288 95.0568 279.152 96.4168 279.152C97.7608 279.152 98.7208 278.288 98.7208 277.04C98.7208 275.776 97.7608 274.928 96.4168 274.928C95.0568 274.928 94.0968 275.776 94.0968 277.04ZM95.1208 287.024V281.376H96.4968V283.072H102.801V281.376H104.177V287.024H95.1208ZM96.4968 285.904H102.801V284.176H96.4968V285.904ZM112.289 278.656H114.369V273.44H115.665V286.496H114.369V279.792H112.289V278.656ZM106.417 283.312C108.337 282.176 109.361 279.744 109.361 277.456V276.832H106.817V275.696H109.361V273.616H110.689V275.696H113.217V276.832H110.689V277.456C110.689 279.68 111.761 281.968 113.665 283.008L112.881 284.048C111.521 283.296 110.561 281.92 110.049 280.288C109.553 282.032 108.593 283.552 107.217 284.368L106.417 283.312ZM117.185 287.2V273.12H118.513V287.2H117.185ZM131.449 276.4H134.441V273.136H135.833V283.648H134.441V277.552H131.449V276.4ZM124.217 280.576C126.345 279.792 127.705 277.824 127.705 275.68V273.968H129.097V275.712C129.097 277.664 130.425 279.504 132.473 280.272L131.737 281.344C130.201 280.736 129.033 279.552 128.425 278.064C127.833 279.728 126.601 281.024 124.953 281.68L124.217 280.576ZM126.745 286.896V282.496H128.121V285.776H136.169V286.896H126.745ZM145.721 276.752H148.425V273.136H149.817V281.504H148.425V277.888H145.721V276.752ZM138.249 280.304C140.361 279.536 141.753 277.648 141.753 275.648V275.264H138.649V274.128H146.185V275.264H143.145V275.648C143.145 277.456 144.457 279.2 146.537 279.92L145.817 281.008C144.249 280.448 143.081 279.296 142.473 277.872C141.881 279.488 140.617 280.784 138.953 281.408L138.249 280.304ZM140.457 284.576C140.457 282.912 142.233 281.92 145.161 281.92C148.073 281.92 149.865 282.912 149.865 284.576C149.865 286.24 148.073 287.2 145.161 287.2C142.233 287.2 140.457 286.24 140.457 284.576ZM141.833 284.576C141.833 285.552 143.081 286.128 145.161 286.128C147.241 286.128 148.489 285.552 148.489 284.576C148.489 283.584 147.241 283.008 145.161 283.008C143.081 283.008 141.833 283.584 141.833 284.576ZM152.682 279.44H159.514V280.768H152.682V279.44ZM166.561 280.544H169.025V278.144H166.801C166.129 280.528 164.625 282.608 161.969 284.192L161.169 283.184C164.145 281.408 165.617 278.96 165.857 276.032H161.809V274.896H167.217C167.217 275.616 167.169 276.336 167.041 277.024H169.025V273.488H170.337V286.496H169.025V281.664H166.561V280.544ZM171.873 287.2V273.12H173.185V287.2H171.873ZM184.754 273.136H186.146V275.232H188.162V276.4H186.146V278.24H188.162V279.392H186.146V281.488H184.754V273.136ZM175.442 277.312C175.442 275.328 176.994 273.968 179.138 273.968C181.266 273.968 182.834 275.328 182.834 277.312C182.834 279.28 181.266 280.656 179.138 280.656C176.994 280.656 175.442 279.28 175.442 277.312ZM176.802 277.312C176.802 278.624 177.794 279.488 179.138 279.488C180.482 279.488 181.49 278.624 181.49 277.312C181.49 276.016 180.482 275.136 179.138 275.136C177.794 275.136 176.802 276.016 176.802 277.312ZM176.978 283.248V282.128H186.146V287.216H184.754V283.248H176.978ZM189.666 279.44H196.498V280.768H189.666V279.44ZM205.706 276.752H208.41V273.136H209.802V281.504H208.41V277.888H205.706V276.752ZM198.234 280.304C200.346 279.536 201.738 277.648 201.738 275.648V275.264H198.634V274.128H206.17V275.264H203.13V275.648C203.13 277.456 204.442 279.2 206.522 279.92L205.802 281.008C204.234 280.448 203.066 279.296 202.458 277.872C201.866 279.488 200.602 280.784 198.938 281.408L198.234 280.304ZM200.442 284.576C200.442 282.912 202.218 281.92 205.146 281.92C208.058 281.92 209.85 282.912 209.85 284.576C209.85 286.24 208.058 287.2 205.146 287.2C202.218 287.2 200.442 286.24 200.442 284.576ZM201.818 284.576C201.818 285.552 203.066 286.128 205.146 286.128C207.226 286.128 208.474 285.552 208.474 284.576C208.474 283.584 207.226 283.008 205.146 283.008C203.066 283.008 201.818 283.584 201.818 284.576ZM215.61 273.968H216.986V275.712C216.986 277.632 218.33 279.424 220.426 280.16L219.722 281.248C218.154 280.688 216.954 279.52 216.346 278.064C215.738 279.696 214.522 280.96 212.858 281.584L212.106 280.496C214.298 279.712 215.61 277.824 215.61 275.68V273.968ZM214.362 286.896V282.512H215.754V285.776H223.738V286.896H214.362ZM221.738 283.504V273.12H223.13V277.408H225.194V278.56H223.13V283.504H221.738ZM239.426 273.12H240.818V277.264H242.882V278.4H240.818V283.312H239.426V273.12ZM230.514 280.864V274.32H236.738V275.456H231.89V279.712C234.626 279.712 236.194 279.616 237.986 279.248L238.146 280.368C236.226 280.752 234.594 280.864 231.618 280.864H230.514ZM232.018 286.896V282.288H233.394V285.776H241.426V286.896H232.018ZM249.186 280.544H251.65V278.144H249.426C248.754 280.528 247.25 282.608 244.594 284.192L243.794 283.184C246.77 281.408 248.242 278.96 248.482 276.032H244.434V274.896H249.842C249.842 275.616 249.794 276.336 249.666 277.024H251.65V273.488H252.962V286.496H251.65V281.664H249.186V280.544ZM254.498 287.2V273.12H255.81V287.2H254.498ZM268.051 273.136H269.427V280.448H268.051V278.736H264.899V279.92H258.515V273.776H259.891V275.728H263.539V273.776H264.899V275.104H268.051V273.136ZM259.891 278.8H263.539V276.8H259.891V278.8ZM260.323 282.224V281.12H269.427V284.512H261.731V285.92H269.923V287.024H260.371V283.472H268.067V282.224H260.323ZM264.899 277.664H268.051V276.176H264.899V277.664ZM281.803 282.016C284.811 282.016 286.731 282.992 286.731 284.608C286.731 286.224 284.811 287.2 281.803 287.2C278.811 287.2 276.907 286.224 276.907 284.608C276.907 282.992 278.811 282.016 281.803 282.016ZM275.515 280.784V279.664H280.667V276.992H282.043V279.664H288.203V280.784H275.515ZM277.003 274.96V273.84H286.603V275.024C286.603 276.16 286.603 277.312 286.219 278.752L284.875 278.608C285.243 277.168 285.243 276.128 285.243 275.024V274.96H277.003ZM278.267 284.608C278.267 285.552 279.643 286.128 281.803 286.128C283.979 286.128 285.339 285.552 285.339 284.608C285.339 283.648 283.979 283.072 281.803 283.072C279.643 283.072 278.267 283.648 278.267 284.608ZM296.987 276.752H299.691V273.136H301.083V281.504H299.691V277.888H296.987V276.752ZM289.515 280.304C291.627 279.536 293.019 277.648 293.019 275.648V275.264H289.915V274.128H297.451V275.264H294.411V275.648C294.411 277.456 295.723 279.2 297.803 279.92L297.083 281.008C295.515 280.448 294.347 279.296 293.739 277.872C293.147 279.488 291.883 280.784 290.219 281.408L289.515 280.304ZM291.723 284.576C291.723 282.912 293.499 281.92 296.427 281.92C299.339 281.92 301.131 282.912 301.131 284.576C301.131 286.24 299.339 287.2 296.427 287.2C293.499 287.2 291.723 286.24 291.723 284.576ZM293.099 284.576C293.099 285.552 294.347 286.128 296.427 286.128C298.507 286.128 299.755 285.552 299.755 284.576C299.755 283.584 298.507 283.008 296.427 283.008C294.347 283.008 293.099 283.584 293.099 284.576ZM313.659 273.136H315.035V287.216H313.659V279.888H310.459V278.736H313.659V273.136ZM303.419 283.488C307.163 281.648 308.859 279.04 309.115 275.76H304.043V274.624H310.507C310.507 278.672 308.891 282.224 304.187 284.56L303.419 283.488ZM317.884 274.64H323.148V279.648H319.244V282.72C320.78 282.704 322.236 282.64 323.964 282.352L324.092 283.488C322.156 283.824 320.588 283.872 318.844 283.872H317.916V278.528H321.82V275.76H317.884V274.64ZM324.892 286.48V273.44H326.204V278.656H328.076V273.12H329.404V287.2H328.076V279.792H326.204V286.48H324.892ZM64.592 307.632H77.344V308.784H71.664V313.232H70.272V308.784H64.592V307.632ZM66.304 306.256V299.776H75.776V300.896H67.648V302.416H75.472V303.52H67.648V305.136H75.936V306.256H66.304ZM88.8004 299.136H90.1924V307.44H88.8004V305.296H85.6804V306.48H79.2324V300.176H85.6804V301.376H88.8004V299.136ZM80.5924 305.376H84.3204V301.296H80.5924V305.376ZM80.8324 310.528C80.8324 308.832 82.6244 307.856 85.5364 307.856C88.4484 307.856 90.2564 308.832 90.2564 310.528C90.2564 312.224 88.4484 313.184 85.5364 313.184C82.6244 313.184 80.8324 312.224 80.8324 310.528ZM82.2084 310.528C82.2084 311.52 83.4564 312.112 85.5364 312.112C87.6324 312.112 88.8644 311.52 88.8644 310.528C88.8644 309.52 87.6324 308.944 85.5364 308.944C83.4564 308.944 82.2084 309.52 82.2084 310.528ZM85.6804 304.176H88.8004V302.496H85.6804V304.176ZM96.0807 299.92H97.4568V301.28C97.4568 303.264 98.7688 305.024 100.849 305.728L100.097 306.816C98.5768 306.24 97.4248 305.136 96.8168 303.712C96.2088 305.344 94.9608 306.608 93.2648 307.232L92.5448 306.112C94.7208 305.344 96.0807 303.472 96.0807 301.328V299.92ZM94.8008 310.528C94.8008 308.832 96.5928 307.856 99.5208 307.856C102.433 307.856 104.225 308.832 104.225 310.528C104.225 312.224 102.433 313.184 99.5208 313.184C96.5928 313.184 94.8008 312.224 94.8008 310.528ZM96.1927 310.528C96.1927 311.52 97.4248 312.096 99.5208 312.096C101.601 312.096 102.849 311.52 102.849 310.528C102.849 309.52 101.601 308.944 99.5208 308.944C97.4248 308.944 96.1927 309.52 96.1927 310.528ZM99.7768 303.2V302.048H102.769V299.136H104.161V307.44H102.769V303.2H99.7768ZM110.249 307.12H123.001V308.272H119.721V313.2H118.313V308.272H114.889V313.2H113.465V308.272H110.249V307.12ZM111.641 302.768C111.641 300.864 113.641 299.696 116.585 299.696C119.545 299.696 121.529 300.864 121.529 302.768C121.529 304.656 119.545 305.84 116.585 305.84C113.641 305.84 111.641 304.656 111.641 302.768ZM113.065 302.768C113.065 303.984 114.473 304.72 116.585 304.72C118.697 304.72 120.121 303.984 120.121 302.768C120.121 301.568 118.697 300.8 116.585 300.8C114.473 300.8 113.065 301.568 113.065 302.768ZM124.665 300.56H132.537V301.712H129.289V303.36C129.289 305.744 130.921 308.16 133.017 309.056L132.233 310.16C130.617 309.408 129.273 307.84 128.617 305.936C127.961 307.968 126.633 309.712 125.001 310.512L124.201 309.408C126.265 308.432 127.897 305.792 127.897 303.36V301.712H124.665V300.56ZM134.361 313.216V299.136H135.753V313.216H134.361Z" fill="#3F3F46"/>
<rect x="408" y="104" width="384" height="255" rx="16" fill="#F6F6F7"/>
<path d="M452.284 151.284H454.246V152.958C454.246 154.992 455.524 156.9 457.954 157.692L456.928 159.222C455.218 158.628 453.976 157.458 453.292 155.964C452.608 157.674 451.33 159.006 449.476 159.69L448.414 158.124C451.006 157.224 452.284 155.064 452.284 152.796V151.284ZM450.61 163.416C450.61 161.508 452.662 160.392 455.974 160.392C459.286 160.392 461.32 161.508 461.32 163.416C461.32 165.324 459.286 166.44 455.974 166.44C452.662 166.44 450.61 165.324 450.61 163.416ZM452.554 163.416C452.554 164.388 453.796 164.91 455.974 164.91C458.134 164.91 459.376 164.388 459.376 163.416C459.376 162.444 458.134 161.922 455.974 161.922C453.796 161.922 452.554 162.444 452.554 163.416ZM459.16 159.996V150.438H461.14V154.308H463.372V155.946H461.14V159.996H459.16ZM467.386 151.392H469.294V153.354C469.294 155.118 470.284 156.864 472.372 157.692L471.328 159.186C469.924 158.628 468.934 157.62 468.376 156.36C467.782 157.8 466.756 159.024 465.226 159.672L464.182 158.142C466.36 157.188 467.386 155.172 467.386 153.354V151.392ZM467.098 163.488C467.098 161.652 469.204 160.536 472.534 160.536C475.882 160.536 477.988 161.652 477.988 163.488C477.988 165.342 475.882 166.44 472.534 166.44C469.204 166.44 467.098 165.342 467.098 163.488ZM469.06 163.488C469.06 164.424 470.338 164.946 472.534 164.946C474.748 164.946 476.008 164.424 476.008 163.488C476.008 162.552 474.748 162.048 472.534 162.048C470.338 162.048 469.06 162.552 469.06 163.488ZM472.624 159.762V150.744H474.478V154.488H476.026V150.438H477.916V160.266H476.026V156.09H474.478V159.762H472.624ZM493.243 153.966H495.529V150.438H497.509V159.924H495.529V158.682H493.207V157.116H495.529V155.532H493.243V153.966ZM484.243 153.444V151.878H487.771V150.276H489.769V151.878H493.117V153.444H484.243ZM485.053 156.936C485.053 155.208 486.583 154.038 488.743 154.038C490.939 154.038 492.451 155.208 492.451 156.936C492.451 158.664 490.939 159.834 488.743 159.834C486.583 159.834 485.053 158.664 485.053 156.936ZM486.907 156.936C486.907 157.836 487.645 158.394 488.743 158.394C489.859 158.394 490.615 157.836 490.615 156.936C490.615 156.036 489.859 155.496 488.743 155.496C487.645 155.496 486.907 156.036 486.907 156.936ZM486.943 166.26V160.572H488.887V161.922H495.565V160.572H497.509V166.26H486.943ZM488.887 164.73H495.565V163.416H488.887V164.73ZM500.534 151.356H507.536V156.216H502.55V158.178C505.106 158.16 506.528 158.088 508.238 157.8L508.436 159.366C506.528 159.708 504.89 159.762 501.758 159.762H500.57V154.722H505.592V152.958H500.534V151.356ZM502.388 162.66V161.076H513.26V166.476H511.28V162.66H502.388ZM508.508 157.656V156.09H511.28V154.308H508.508V152.706H511.28V150.438H513.26V160.302H511.28V157.656H508.508ZM526.337 156.594H528.407V150.726H530.243V165.684H528.407V158.196H526.337V156.594ZM519.587 161.85C521.819 160.536 522.791 157.836 522.791 155.316V154.83H520.127V153.228H522.791V150.96H524.681V153.228H527.327V154.83H524.681V155.316C524.681 157.782 525.689 160.302 527.903 161.49L526.805 162.966C525.347 162.174 524.339 160.788 523.763 159.096C523.205 160.914 522.197 162.48 520.703 163.344L519.587 161.85ZM531.629 166.44V150.42H533.519V166.44H531.629ZM541.637 158.754H544.121V156.324H541.943C541.187 159.006 539.531 161.292 536.525 163.074L535.409 161.67C538.667 159.708 540.179 157.206 540.467 153.966H536.237V152.364H542.429C542.429 153.192 542.375 153.984 542.267 154.758H544.121V150.798H545.975V165.684H544.121V160.338H541.637V158.754ZM547.397 166.44V150.42H549.269V166.44H547.397ZM566 150.42H567.98V154.326H570.212V155.964H567.98V159.816H566V150.42ZM555.38 158.484C559.016 157.476 561.122 155.514 561.446 153.12H556.118V151.518H563.606C563.606 155.748 560.87 158.736 556.19 160.068L555.38 158.484ZM557.54 163.236C557.54 161.256 559.646 160.032 562.868 160.032C566.072 160.032 568.16 161.256 568.16 163.236C568.16 165.216 566.072 166.44 562.868 166.44C559.646 166.44 557.54 165.216 557.54 163.236ZM559.502 163.236C559.502 164.298 560.78 164.91 562.868 164.91C564.956 164.91 566.234 164.298 566.234 163.236C566.234 162.156 564.956 161.562 562.868 161.562C560.78 161.562 559.502 162.156 559.502 163.236ZM581.786 150.438H583.766V157.044H585.962V158.7H583.766V166.458H581.786V150.438ZM571.004 162.012C572.21 162.012 573.596 162.012 575.054 161.976V160.464C573.326 160.176 572.192 159.096 572.192 157.566C572.192 155.766 573.776 154.578 576.044 154.578C578.312 154.578 579.914 155.766 579.914 157.566C579.914 159.096 578.762 160.176 577.034 160.464V161.886C578.348 161.832 579.662 161.706 580.904 161.544L581.066 162.966C577.664 163.632 573.992 163.632 571.274 163.632L571.004 162.012ZM571.292 153.822V152.256H575.054V150.492H577.034V152.256H580.778V153.822H571.292ZM574.064 157.566C574.064 158.502 574.856 159.06 576.044 159.06C577.25 159.06 578.042 158.502 578.042 157.566C578.042 156.63 577.25 156.072 576.044 156.072C574.856 156.072 574.064 156.63 574.064 157.566Z" fill="#6D0CA6"/>
<path d="M458.224 202.16C458.224 201.68 458.299 201.296 458.448 201.008C458.608 200.709 458.822 200.496 459.088 200.368C459.366 200.24 459.67 200.176 460 200.176C460.331 200.176 460.63 200.24 460.896 200.368C461.163 200.496 461.376 200.709 461.536 201.008C461.696 201.296 461.776 201.68 461.776 202.16C461.776 202.629 461.696 203.013 461.536 203.312C461.376 203.6 461.163 203.813 460.896 203.952C460.63 204.08 460.331 204.144 460 204.144C459.67 204.144 459.366 204.08 459.088 203.952C458.822 203.813 458.608 203.6 458.448 203.312C458.299 203.013 458.224 202.629 458.224 202.16ZM472.608 203.12H485.344V204.256H479.632V209.216H478.256V204.256H472.608V203.12ZM473.344 200.88C475.904 200.528 478.192 198.912 478.192 197.12V197.104H473.792V195.984H484.112V197.104H479.744V197.12C479.744 198.912 482.048 200.528 484.608 200.88L484.08 202C481.856 201.632 479.824 200.464 478.976 198.816C478.112 200.464 476.096 201.632 473.872 202L473.344 200.88ZM486.592 206.272H489.68V202.528C488.512 201.888 487.808 200.896 487.808 199.616C487.808 197.408 489.968 195.984 492.944 195.984C495.952 195.984 498.08 197.408 498.08 199.616C498.08 200.88 497.392 201.872 496.256 202.496V206.272H499.344V207.408H486.592V206.272ZM489.168 199.616C489.168 201.168 490.736 202.16 492.944 202.16C495.168 202.16 496.736 201.168 496.736 199.616C496.736 198.08 495.168 197.072 492.944 197.072C490.736 197.072 489.168 198.08 489.168 199.616ZM491.056 206.272H494.864V203.024C494.288 203.168 493.632 203.248 492.944 203.248C492.272 203.248 491.632 203.168 491.056 203.04V206.272ZM512.168 198.368H514.456V195.136H515.848V203.44H514.456V202.24H512.152V201.12H514.456V199.488H512.168V198.368ZM504.264 197.616V196.512H507.576V194.992H508.968V196.512H512.152V197.616H504.264ZM505.048 200.816C505.048 199.28 506.376 198.272 508.248 198.272C510.152 198.272 511.448 199.28 511.448 200.816C511.448 202.336 510.152 203.344 508.248 203.344C506.376 203.344 505.048 202.336 505.048 200.816ZM506.36 200.816C506.36 201.712 507.112 202.32 508.248 202.32C509.384 202.32 510.152 201.712 510.152 200.816C510.152 199.904 509.384 199.312 508.248 199.312C507.112 199.312 506.36 199.904 506.36 200.816ZM506.712 209.024V204.048H508.072V205.44H514.488V204.048H515.848V209.024H506.712ZM508.072 207.936H514.488V206.512H508.072V207.936ZM518.777 195.968H524.873V200.016H520.201V202.08C522.713 202.08 524.041 202.016 525.641 201.728L525.785 202.848C524.057 203.152 522.649 203.2 519.833 203.2H518.825V198.944H523.513V197.104H518.777V195.968ZM520.393 205.648V204.528H529.849V209.232H528.457V205.648H520.393ZM525.785 201.248V200.128H528.457V198.336H525.785V197.2H528.457V195.136H529.849V203.792H528.457V201.248H525.785ZM536.073 195.776C537.945 195.776 539.369 196.832 539.657 198.448H542.441V195.136H543.833V202.672H542.441V199.584H539.657C539.401 201.216 537.961 202.32 536.073 202.32C533.961 202.32 532.425 200.976 532.425 199.04C532.425 197.104 533.961 195.776 536.073 195.776ZM533.753 199.04C533.753 200.288 534.713 201.152 536.073 201.152C537.417 201.152 538.377 200.288 538.377 199.04C538.377 197.776 537.417 196.928 536.073 196.928C534.713 196.928 533.753 197.776 533.753 199.04ZM534.777 209.024V203.376H536.153V205.072H542.457V203.376H543.833V209.024H534.777ZM536.153 207.904H542.457V206.176H536.153V207.904ZM551.945 200.656H554.025V195.44H555.321V208.496H554.025V201.792H551.945V200.656ZM546.073 205.312C547.993 204.176 549.017 201.744 549.017 199.456V198.832H546.473V197.696H549.017V195.616H550.345V197.696H552.873V198.832H550.345V199.456C550.345 201.68 551.417 203.968 553.321 205.008L552.537 206.048C551.177 205.296 550.217 203.92 549.705 202.288C549.209 204.032 548.249 205.552 546.873 206.368L546.073 205.312ZM556.841 209.2V195.12H558.169V209.2H556.841ZM563.889 206.24H569.521V202.864H570.897V206.24H576.641V207.392H563.889V206.24ZM564.369 201.92C566.945 201.472 569.489 199.392 569.489 197.12V196.032H570.929V197.12C570.929 199.392 573.505 201.472 576.065 201.92L575.457 203.088C573.265 202.624 571.137 201.184 570.209 199.232C569.281 201.184 567.153 202.624 564.945 203.088L564.369 201.92ZM577.874 202.56H583.522V201.248H579.538V195.536H589.042V196.624H580.914V197.824H588.674V198.88H580.914V200.176H589.122V201.248H584.914V202.56H590.578V203.68H577.874V202.56ZM579.394 206.928C579.394 205.44 581.138 204.688 584.226 204.688C587.282 204.688 589.058 205.44 589.058 206.928C589.058 208.4 587.282 209.184 584.226 209.184C581.138 209.184 579.394 208.4 579.394 206.928ZM580.786 206.928C580.786 207.744 582.002 208.144 584.226 208.144C586.434 208.144 587.666 207.744 587.666 206.928C587.666 206.144 586.434 205.712 584.226 205.712C582.002 205.712 580.786 206.144 580.786 206.928ZM595.77 197.728H598.346V195.616H599.674V197.728H602.266V198.864H599.674V199.44C599.674 201.664 600.762 203.936 602.666 204.96L601.866 206.016C600.506 205.264 599.546 203.872 599.034 202.24C598.538 203.984 597.578 205.504 596.202 206.32L595.386 205.28C597.306 204.144 598.346 201.728 598.346 199.44V198.864H595.77V197.728ZM603.178 208.496V195.424H604.474V200.768H606.234V195.12H607.562V209.2H606.234V201.92H604.474V208.496H603.178ZM610.33 195.776H611.722V200.672C613.802 200.656 615.642 200.528 617.674 200.144L617.85 201.28C615.658 201.712 613.706 201.824 611.45 201.824H610.33V195.776ZM612.042 204.128V203.024H621.146V206.464H613.45V207.904H621.626V209.024H612.074V205.424H619.754V204.128H612.042ZM615.834 198.544V197.408H619.754V195.12H621.146V202.368H619.754V198.544H615.834ZM628.786 196.032H638.29V197.264C638.29 198.592 638.29 200.048 637.89 202.08H639.938V203.232H634.242V209.232H632.834V203.232H627.202V202.08H636.482C636.914 200.08 636.914 198.576 636.914 197.264V197.152H628.786V196.032ZM641.186 202.192H653.906V203.312H648.242V204.848H652.338V209.168H650.962V205.968H642.594V204.848H646.85V203.312H641.186V202.192ZM641.922 200.384C644.642 200.144 646.658 199.056 646.786 197.584H642.482V196.496H646.85V195.072H648.242V196.496H652.626V197.584H648.306C648.434 199.056 650.45 200.144 653.17 200.384L652.738 201.44C650.386 201.216 648.402 200.384 647.538 199.024C646.69 200.384 644.69 201.216 642.338 201.44L641.922 200.384ZM659.61 196.032H666.186V201.808H659.61V196.032ZM660.554 208.096C663.05 207.824 665.146 206.528 665.21 205.2H661.114V204.128H665.226V202.8H666.634V204.128H670.73V205.2H666.634C666.698 206.496 668.762 207.808 671.226 208.096L670.762 209.168C668.602 208.88 666.762 207.92 665.914 206.64C665.066 207.936 663.194 208.88 661.018 209.168L660.554 208.096ZM660.938 200.704H664.858V197.136H660.938V200.704ZM669.034 203.2V195.136H670.426V203.2H669.034ZM687.042 196.4L682.882 208.048H681.394L677.01 196.4H678.434L682.13 206.192L685.618 196.4H687.042ZM693.367 206.992C695.975 206.992 697.767 205.04 697.767 202.224C697.767 199.408 695.975 197.456 693.367 197.456C690.775 197.456 688.983 199.408 688.983 202.224C688.983 205.04 690.775 206.992 693.367 206.992ZM687.623 202.224C687.623 198.736 690.007 196.272 693.367 196.272C696.743 196.272 699.127 198.736 699.127 202.224C699.127 205.712 696.743 208.176 693.367 208.176C690.007 208.176 687.623 205.712 687.623 202.224ZM706.444 208.176C703.068 208.176 700.7 205.712 700.7 202.224C700.7 198.72 703.068 196.272 706.444 196.272C708.044 196.272 709.468 196.96 710.508 198.016L709.612 198.816C708.828 197.968 707.66 197.456 706.444 197.456C703.852 197.456 702.06 199.408 702.06 202.224C702.06 205.04 703.852 206.992 706.444 206.992C707.692 206.992 708.796 206.464 709.564 205.648L710.508 206.432C709.468 207.488 708.06 208.176 706.444 208.176ZM715.945 196.784H719.049V195.072H720.409V196.784H723.465V197.904H720.409V198.112C720.409 199.84 721.801 201.392 723.913 202L723.273 203.072C721.641 202.592 720.393 201.568 719.753 200.24C719.145 201.728 717.897 202.896 716.249 203.44L715.577 202.352C717.689 201.68 719.049 199.984 719.049 198.112V197.904H715.945V196.784ZM717.817 206.592C717.817 204.944 719.593 204 722.521 204C725.433 204 727.225 204.944 727.225 206.592C727.225 208.224 725.433 209.184 722.521 209.184C719.593 209.184 717.817 208.224 717.817 206.592ZM719.193 206.592C719.193 207.552 720.441 208.112 722.521 208.112C724.601 208.112 725.849 207.552 725.849 206.592C725.849 205.648 724.601 205.088 722.521 205.088C720.441 205.088 719.193 205.648 719.193 206.592ZM723.065 200.24V199.104H725.785V195.136H727.177V203.648H725.785V200.24H723.065ZM730.457 196.688H733.497V195.152H734.873V196.688H737.929V197.792H734.873V197.808C734.873 199.184 736.201 200.368 738.185 200.816L737.625 201.888C736.041 201.504 734.825 200.688 734.217 199.584C733.609 200.784 732.377 201.696 730.729 202.096L730.153 201.008C732.201 200.544 733.513 199.264 733.513 197.808V197.792H730.457V196.688ZM729.529 203.008C732.169 203.008 735.705 202.992 738.761 202.576L738.857 203.6C737.561 203.824 736.217 203.952 734.905 204.032V208.8H733.513V204.112C732.153 204.16 730.841 204.176 729.705 204.176L729.529 203.008ZM739.737 209.216V195.12H741.113V209.216H739.737ZM458.224 228.16C458.224 227.68 458.299 227.296 458.448 227.008C458.608 226.709 458.822 226.496 459.088 226.368C459.366 226.24 459.67 226.176 460 226.176C460.331 226.176 460.63 226.24 460.896 226.368C461.163 226.496 461.376 226.709 461.536 227.008C461.696 227.296 461.776 227.68 461.776 228.16C461.776 228.629 461.696 229.013 461.536 229.312C461.376 229.6 461.163 229.813 460.896 229.952C460.63 230.08 460.331 230.144 460 230.144C459.67 230.144 459.366 230.08 459.088 229.952C458.822 229.813 458.608 229.6 458.448 229.312C458.299 229.013 458.224 228.629 458.224 228.16ZM476 221.856H477.36V223.376C477.36 225.264 478.704 227.008 480.752 227.712L480.032 228.784C478.496 228.224 477.312 227.088 476.704 225.648C476.112 227.28 474.912 228.544 473.264 229.184L472.512 228.08C474.688 227.296 476 225.392 476 223.28V221.856ZM474.416 232.608C474.416 230.976 476.176 230.016 479.056 230.016C481.952 230.016 483.696 230.976 483.696 232.608C483.696 234.24 481.952 235.184 479.056 235.184C476.176 235.184 474.416 234.24 474.416 232.608ZM475.776 232.608C475.776 233.552 477.008 234.096 479.056 234.096C481.104 234.096 482.336 233.552 482.336 232.608C482.336 231.648 481.104 231.104 479.056 231.104C477.008 231.104 475.776 231.648 475.776 232.608ZM482.16 229.648V221.136H483.552V224.72H485.616V225.872H483.552V229.648H482.16ZM489.472 221.984H490.8V223.84C490.8 225.408 491.824 226.976 493.616 227.68L492.896 228.736C491.584 228.224 490.656 227.248 490.144 226.048C489.648 227.376 488.672 228.544 487.296 229.136L486.56 228.064C488.416 227.248 489.472 225.44 489.472 223.84V221.984ZM489.088 232.64C489.088 231.056 490.896 230.112 493.808 230.112C496.72 230.112 498.528 231.056 498.528 232.64C498.528 234.256 496.72 235.184 493.808 235.184C490.896 235.184 489.088 234.256 489.088 232.64ZM490.464 232.64C490.464 233.568 491.728 234.128 493.808 234.128C495.888 234.128 497.136 233.568 497.136 232.64C497.136 231.712 495.888 231.184 493.808 231.184C491.728 231.184 490.464 231.712 490.464 232.64ZM494.128 229.36V221.408H495.424V224.864H497.136V221.136H498.464V229.808H497.136V226H495.424V229.36H494.128ZM504.888 222.64H512.008V223.456C512.008 224.64 512.008 226.448 511.608 229.024L510.248 228.912C510.632 226.624 510.664 224.944 510.664 223.776H504.888V222.64ZM504.12 231.008C505 231.008 505.992 230.992 507.032 230.976V226.672H508.408V230.928C509.928 230.88 511.464 230.784 512.872 230.608L512.952 231.632C510.04 232.096 506.776 232.16 504.296 232.16L504.12 231.008ZM513.704 235.2V221.12H515.08V226.992H517.288V228.144H515.08V235.2H513.704ZM528.873 221.12H530.201V235.2H528.873V221.12ZM518.057 231.392C520.009 230.192 521.065 227.632 521.065 225.072V223.888H518.441V222.736H524.857V223.888H522.409V225.072C522.409 227.504 523.417 229.936 525.353 231.072L524.521 232.08C523.177 231.264 522.249 229.792 521.753 228.048C521.257 229.936 520.297 231.536 518.905 232.416L518.057 231.392ZM523.801 227.296V226.16H526.057V221.44H527.353V234.496H526.057V227.296H523.801ZM536.497 221.712H537.873V223.696H541.681V221.712H543.041V227.856H536.497V221.712ZM537.873 226.736H541.681V224.768H537.873V226.736ZM537.889 230.128V229.04H546.881V232.512H539.297V233.952H547.377V235.056H537.921V231.472H545.521V230.128H537.889ZM545.489 228.368V221.136H546.881V224.128H548.913V225.264H546.881V228.368H545.489ZM551.537 221.696H561.025V222.608C561.025 223.52 561.025 224.704 560.753 226.176H562.657V227.296H556.945V229.008H561.073V232.496H552.817V233.952H561.425V235.056H551.441V231.504H559.697V230.128H551.393V229.008H555.569V227.296H549.905V226.176H559.377C559.665 224.752 559.681 223.712 559.681 222.816H551.537V221.696ZM458.224 254.16C458.224 253.68 458.299 253.296 458.448 253.008C458.608 252.709 458.822 252.496 459.088 252.368C459.366 252.24 459.67 252.176 460 252.176C460.331 252.176 460.63 252.24 460.896 252.368C461.163 252.496 461.376 252.709 461.536 253.008C461.696 253.296 461.776 253.68 461.776 254.16C461.776 254.629 461.696 255.013 461.536 255.312C461.376 255.6 461.163 255.813 460.896 255.952C460.63 256.08 460.331 256.144 460 256.144C459.67 256.144 459.366 256.08 459.088 255.952C458.822 255.813 458.608 255.6 458.448 255.312C458.299 255.013 458.224 254.629 458.224 254.16ZM480.496 248.4V249.584H474.528V253.456H479.68V254.64H474.528V258.864H480.496V260.048H473.184V248.4H480.496ZM483.666 256.912C484.274 258.128 485.298 258.992 486.498 258.992C488.066 259.024 489.042 258.224 489.042 256.976C489.042 254 483.058 255.248 483.058 251.2C483.058 249.328 484.626 248.256 486.706 248.272C488.306 248.304 489.602 249.152 490.162 250.848L488.962 251.264C488.61 250.128 487.746 249.472 486.69 249.456C485.346 249.44 484.386 250.08 484.386 251.2C484.386 254.144 490.37 252.944 490.37 256.992C490.37 258.912 488.866 260.208 486.482 260.176C484.786 260.144 483.49 259.2 482.53 257.52L483.666 256.912ZM503.246 253.984C503.246 254.384 503.23 254.896 503.23 254.944C503.23 258.256 500.894 260.112 497.758 260.176C494.398 260.176 492.014 257.712 492.014 254.224C492.014 250.736 494.398 248.288 497.758 248.288C501.39 248.288 502.638 251.104 502.638 251.104L501.47 251.664C501.47 251.664 500.526 249.472 497.758 249.472C495.166 249.472 493.358 251.424 493.358 254.224C493.358 257.04 495.166 258.992 497.758 258.992C500.158 258.912 501.934 257.68 501.95 255.136H497.966V253.984H503.246ZM510.128 247.728L506.768 260.816H505.424L508.799 247.728H510.128ZM513.604 256.912C514.212 258.128 515.236 258.992 516.436 258.992C518.004 259.024 518.98 258.224 518.98 256.976C518.98 254 512.996 255.248 512.996 251.2C512.996 249.328 514.564 248.256 516.644 248.272C518.244 248.304 519.54 249.152 520.1 250.848L518.9 251.264C518.548 250.128 517.684 249.472 516.628 249.456C515.284 249.44 514.324 250.08 514.324 251.2C514.324 254.144 520.308 252.944 520.308 256.992C520.308 258.912 518.804 260.208 516.42 260.176C514.724 260.144 513.428 259.2 512.468 257.52L513.604 256.912ZM526.908 254.192C528.284 254.192 529.244 253.248 529.244 251.872C529.244 250.496 528.284 249.584 526.908 249.584H524.204V254.192H526.908ZM522.86 260.048V248.4H526.956C529.084 248.4 530.572 249.84 530.572 251.888C530.588 253.472 529.548 254.816 527.852 255.248L531.116 260.048H529.516L526.332 255.376H524.204V260.048H522.86ZM538.633 257.76L535.001 251.04V260.048H533.657V248.4H535.049L539.273 256.128L543.497 248.4H544.889V260.048H543.561V251.04L539.897 257.76H538.633ZM549.232 248.509V249.939L550.576 249.517L550.806 250.227L549.472 250.65L550.326 251.83L549.731 252.301L548.858 251.101L547.994 252.301L547.408 251.83L548.262 250.65L546.918 250.227L547.149 249.517L548.483 249.939V248.509H549.232ZM560.33 249.616H562.538V247.136H563.93V255.808H562.538V253.28H560.33V252.128H562.538V250.72H560.33V249.616ZM552.362 253.856C552.89 253.856 553.482 253.856 554.09 253.84V249.312H552.746V248.16H560.154V249.312H558.794V253.68C559.402 253.632 559.994 253.568 560.554 253.504L560.634 254.544C557.93 254.976 554.778 255.008 552.506 255.008L552.362 253.856ZM554.586 258.624C554.586 257.008 556.346 256.08 559.29 256.08C562.218 256.08 563.994 257.008 563.994 258.624C563.994 260.24 562.218 261.184 559.29 261.184C556.346 261.184 554.586 260.24 554.586 258.624ZM555.45 253.824C556.106 253.808 556.778 253.792 557.45 253.76V249.312H555.45V253.824ZM555.946 258.624C555.946 259.568 557.178 260.128 559.29 260.128C561.386 260.128 562.618 259.568 562.618 258.624C562.618 257.712 561.386 257.168 559.29 257.168C557.178 257.168 555.946 257.712 555.946 258.624ZM575.786 247.104H577.194V252.784H579.386V253.952H577.194V261.2H575.786V247.104ZM566.378 257.504C569.93 255.712 571.834 253.072 572.138 249.76H567.066V248.624H573.546C573.546 252.656 571.738 256.272 567.162 258.56L566.378 257.504ZM584.002 255.168H596.754V256.304H591.026V261.216H589.65V256.304H584.002V255.168ZM585.394 250.784C585.394 248.88 587.394 247.696 590.338 247.696C593.298 247.696 595.282 248.88 595.282 250.784C595.282 252.672 593.298 253.872 590.338 253.872C587.394 253.872 585.394 252.672 585.394 250.784ZM586.818 250.784C586.818 252 588.226 252.768 590.338 252.768C592.45 252.768 593.874 252 593.874 250.784C593.874 249.584 592.45 248.8 590.338 248.8C588.226 248.8 586.818 249.584 586.818 250.784ZM603.635 247.616H605.091V248.4C605.091 250.304 607.475 252.064 610.115 252.448L609.555 253.552C607.331 253.184 605.283 251.984 604.371 250.304C603.475 252 601.427 253.184 599.171 253.552L598.611 252.448C601.267 252.064 603.635 250.352 603.635 248.4V247.616ZM597.987 256.16V255.024H610.723V256.16H605.011V261.216H603.635V256.16H597.987ZM623.563 250.368H625.851V247.136H627.243V255.44H625.851V254.24H623.547V253.12H625.851V251.488H623.563V250.368ZM615.659 249.616V248.512H618.971V246.992H620.363V248.512H623.547V249.616H615.659ZM616.443 252.816C616.443 251.28 617.771 250.272 619.643 250.272C621.547 250.272 622.843 251.28 622.843 252.816C622.843 254.336 621.547 255.344 619.643 255.344C617.771 255.344 616.443 254.336 616.443 252.816ZM617.755 252.816C617.755 253.712 618.507 254.32 619.643 254.32C620.779 254.32 621.547 253.712 621.547 252.816C621.547 251.904 620.779 251.312 619.643 251.312C618.507 251.312 617.755 251.904 617.755 252.816ZM618.107 261.024V256.048H619.467V257.44H625.883V256.048H627.243V261.024H618.107ZM619.467 259.936H625.883V258.512H619.467V259.936ZM630.171 247.968H636.267V252.016H631.595V254.08C634.107 254.08 635.435 254.016 637.035 253.728L637.179 254.848C635.451 255.152 634.043 255.2 631.227 255.2H630.219V250.944H634.907V249.104H630.171V247.968ZM631.787 257.648V256.528H641.243V261.232H639.851V257.648H631.787ZM637.179 253.248V252.128H639.851V250.336H637.179V249.2H639.851V247.136H641.243V255.792H639.851V253.248H637.179ZM647.467 247.776C649.339 247.776 650.763 248.832 651.051 250.448H653.835V247.136H655.227V254.672H653.835V251.584H651.051C650.795 253.216 649.355 254.32 647.467 254.32C645.355 254.32 643.819 252.976 643.819 251.04C643.819 249.104 645.355 247.776 647.467 247.776ZM645.147 251.04C645.147 252.288 646.107 253.152 647.467 253.152C648.811 253.152 649.771 252.288 649.771 251.04C649.771 249.776 648.811 248.928 647.467 248.928C646.107 248.928 645.147 249.776 645.147 251.04ZM646.171 261.024V255.376H647.547V257.072H653.851V255.376H655.227V261.024H646.171ZM647.547 259.904H653.851V258.176H647.547V259.904ZM663.34 252.656H665.42V247.44H666.716V260.496H665.42V253.792H663.34V252.656ZM657.468 257.312C659.388 256.176 660.412 253.744 660.412 251.456V250.832H657.868V249.696H660.412V247.616H661.74V249.696H664.268V250.832H661.74V251.456C661.74 253.68 662.812 255.968 664.716 257.008L663.932 258.048C662.572 257.296 661.612 255.92 661.1 254.288C660.604 256.032 659.644 257.552 658.268 258.368L657.468 257.312ZM668.236 261.2V247.12H669.564V261.2H668.236ZM682.5 250.4H685.492V247.136H686.884V257.648H685.492V251.552H682.5V250.4ZM675.268 254.576C677.396 253.792 678.756 251.824 678.756 249.68V247.968H680.148V249.712C680.148 251.664 681.476 253.504 683.524 254.272L682.788 255.344C681.252 254.736 680.084 253.552 679.476 252.064C678.884 253.728 677.652 255.024 676.004 255.68L675.268 254.576ZM677.796 260.896V256.496H679.172V259.776H687.22V260.896H677.796ZM696.772 250.752H699.476V247.136H700.868V255.504H699.476V251.888H696.772V250.752ZM689.3 254.304C691.412 253.536 692.804 251.648 692.804 249.648V249.264H689.7V248.128H697.236V249.264H694.196V249.648C694.196 251.456 695.508 253.2 697.588 253.92L696.868 255.008C695.3 254.448 694.132 253.296 693.524 251.872C692.932 253.488 691.668 254.784 690.004 255.408L689.3 254.304ZM691.508 258.576C691.508 256.912 693.284 255.92 696.212 255.92C699.124 255.92 700.916 256.912 700.916 258.576C700.916 260.24 699.124 261.2 696.212 261.2C693.284 261.2 691.508 260.24 691.508 258.576ZM692.884 258.576C692.884 259.552 694.132 260.128 696.212 260.128C698.292 260.128 699.54 259.552 699.54 258.576C699.54 257.584 698.292 257.008 696.212 257.008C694.132 257.008 692.884 257.584 692.884 258.576ZM705.236 258.704L704.292 261.904H703.3L703.828 258.704H705.236ZM719.328 250.368H721.616V247.136H723.008V255.44H721.616V254.24H719.312V253.12H721.616V251.488H719.328V250.368ZM711.424 249.616V248.512H714.736V246.992H716.128V248.512H719.312V249.616H711.424ZM712.208 252.816C712.208 251.28 713.536 250.272 715.408 250.272C717.312 250.272 718.608 251.28 718.608 252.816C718.608 254.336 717.312 255.344 715.408 255.344C713.536 255.344 712.208 254.336 712.208 252.816ZM713.52 252.816C713.52 253.712 714.272 254.32 715.408 254.32C716.544 254.32 717.312 253.712 717.312 252.816C717.312 251.904 716.544 251.312 715.408 251.312C714.272 251.312 713.52 251.904 713.52 252.816ZM713.872 261.024V256.048H715.232V257.44H721.648V256.048H723.008V261.024H713.872ZM715.232 259.936H721.648V258.512H715.232V259.936ZM725.937 247.968H732.033V252.016H727.361V254.08C729.873 254.08 731.201 254.016 732.801 253.728L732.945 254.848C731.217 255.152 729.809 255.2 726.993 255.2H725.985V250.944H730.673V249.104H725.937V247.968ZM727.553 257.648V256.528H737.009V261.232H735.617V257.648H727.553ZM732.945 253.248V252.128H735.617V250.336H732.945V249.2H735.617V247.136H737.009V255.792H735.617V253.248H732.945ZM482.16 273.12H483.552V276.72H485.616V277.888H483.552V281.504H482.16V273.12ZM472.608 280.48C475.936 279.504 477.984 277.632 478.224 275.28H473.232V274.144H479.744C479.744 277.776 477.264 280.4 473.184 281.6L472.608 280.48ZM474.512 284.448C474.512 282.736 476.32 281.696 479.12 281.696C481.92 281.696 483.712 282.736 483.712 284.448C483.712 286.144 481.92 287.184 479.12 287.184C476.32 287.184 474.512 286.144 474.512 284.448ZM475.888 284.448C475.888 285.456 477.152 286.096 479.12 286.096C481.104 286.096 482.368 285.456 482.368 284.448C482.368 283.392 481.104 282.784 479.12 282.784C477.152 282.784 475.888 283.392 475.888 284.448ZM496.096 273.136H497.488V279.072H499.616V280.24H497.488V287.216H496.096V273.136ZM486.432 283.408C487.552 283.408 488.848 283.408 490.192 283.36V281.888C488.608 281.68 487.552 280.72 487.552 279.328C487.552 277.744 488.912 276.72 490.88 276.72C492.848 276.72 494.224 277.744 494.224 279.328C494.224 280.72 493.168 281.68 491.584 281.888V283.312C492.832 283.248 494.096 283.152 495.264 282.976L495.376 283.984C492.352 284.56 489.072 284.576 486.64 284.576L486.432 283.408ZM486.672 275.92V274.816H490.192V273.152H491.584V274.816H495.072V275.92H486.672ZM488.864 279.328C488.864 280.272 489.68 280.864 490.88 280.864C492.096 280.864 492.912 280.272 492.912 279.328C492.912 278.384 492.096 277.776 490.88 277.776C489.68 277.776 488.864 278.384 488.864 279.328Z" fill="#3F3F46"/>
<rect x="816" y="104" width="384" height="255" rx="16" fill="#F6F6F7"/>
<path d="M865.63 153.966H867.916V150.438H869.896V159.924H867.916V158.682H865.594V157.116H867.916V155.532H865.63V153.966ZM856.63 153.444V151.878H860.158V150.276H862.156V151.878H865.504V153.444H856.63ZM857.44 156.936C857.44 155.208 858.97 154.038 861.13 154.038C863.326 154.038 864.838 155.208 864.838 156.936C864.838 158.664 863.326 159.834 861.13 159.834C858.97 159.834 857.44 158.664 857.44 156.936ZM859.294 156.936C859.294 157.836 860.032 158.394 861.13 158.394C862.246 158.394 863.002 157.836 863.002 156.936C863.002 156.036 862.246 155.496 861.13 155.496C860.032 155.496 859.294 156.036 859.294 156.936ZM859.33 166.26V160.572H861.274V161.922H867.952V160.572H869.896V166.26H859.33ZM861.274 164.73H867.952V163.416H861.274V164.73ZM872.92 151.356H879.922V156.216H874.936V158.178C877.492 158.16 878.914 158.088 880.624 157.8L880.822 159.366C878.914 159.708 877.276 159.762 874.144 159.762H872.956V154.722H877.978V152.958H872.92V151.356ZM874.774 162.66V161.076H885.646V166.476H883.666V162.66H874.774ZM880.894 157.656V156.09H883.666V154.308H880.894V152.706H883.666V150.438H885.646V160.302H883.666V157.656H880.894ZM892.469 151.122C894.557 151.122 896.177 152.31 896.555 154.074H899.399V150.438H901.379V159.024H899.399V155.676H896.573C896.213 157.476 894.575 158.682 892.469 158.682C890.057 158.682 888.275 157.116 888.275 154.902C888.275 152.688 890.057 151.122 892.469 151.122ZM890.165 154.902C890.165 156.198 891.119 157.026 892.469 157.026C893.801 157.026 894.755 156.198 894.755 154.902C894.755 153.588 893.801 152.76 892.469 152.76C891.119 152.76 890.165 153.588 890.165 154.902ZM890.885 166.26V159.78H892.865V161.472H899.417V159.78H901.379V166.26H890.885ZM892.865 164.676H899.417V163.002H892.865V164.676ZM910.307 156.594H912.377V150.726H914.213V165.684H912.377V158.196H910.307V156.594ZM903.557 161.85C905.789 160.536 906.761 157.836 906.761 155.316V154.83H904.097V153.228H906.761V150.96H908.651V153.228H911.297V154.83H908.651V155.316C908.651 157.782 909.659 160.302 911.873 161.49L910.775 162.966C909.317 162.174 908.309 160.788 907.733 159.096C907.175 160.914 906.167 162.48 904.673 163.344L903.557 161.85ZM915.599 166.44V150.42H917.489V166.44H915.599ZM931.232 156.45H935.012V154.704H931.412C930.404 157.242 928.082 159.024 924.608 160.014L923.834 158.448C927.578 157.44 929.54 155.532 929.828 153.138H924.68V151.554H931.97C931.97 152.094 931.934 152.616 931.844 153.12H935.012V150.42H936.992V159.798H935.012V158.034H931.232V156.45ZM926.354 163.182C926.354 161.202 928.46 159.996 931.718 159.996C934.958 159.996 937.082 161.202 937.082 163.182C937.082 165.144 934.958 166.368 931.718 166.368C928.46 166.368 926.354 165.144 926.354 163.182ZM928.316 163.182C928.316 164.244 929.612 164.838 931.718 164.838C933.842 164.838 935.138 164.244 935.138 163.182C935.138 162.102 933.842 161.526 931.718 161.526C929.612 161.526 928.316 162.102 928.316 163.182ZM939.747 151.662H946.857V153.246H944.301V153.606C944.301 155.424 945.237 157.08 947.217 157.872L946.191 159.366C944.841 158.826 943.923 157.872 943.383 156.666C942.825 158.052 941.817 159.168 940.341 159.78L939.297 158.268C941.439 157.386 942.393 155.496 942.393 153.606V153.246H939.747V151.662ZM942.177 163.452C942.177 161.598 944.283 160.464 947.613 160.464C950.961 160.464 953.067 161.598 953.067 163.452C953.067 165.324 950.961 166.44 947.613 166.44C944.283 166.44 942.177 165.324 942.177 163.452ZM944.139 163.452C944.139 164.406 945.417 164.928 947.613 164.928C949.827 164.928 951.087 164.406 951.087 163.452C951.087 162.498 949.827 161.994 947.613 161.994C945.417 161.994 944.139 162.498 944.139 163.452ZM947.739 159.69V150.744H949.611V154.434H951.105V150.438H952.995V160.176H951.105V156.054H949.611V159.69H947.739ZM955.731 151.356H962.733V156.216H957.747V158.178C960.303 158.16 961.725 158.088 963.435 157.8L963.633 159.366C961.725 159.708 960.087 159.762 956.955 159.762H955.767V154.722H960.789V152.958H955.731V151.356ZM957.585 162.66V161.076H968.457V166.476H966.477V162.66H957.585ZM963.705 157.656V156.09H966.477V154.308H963.705V152.706H966.477V150.438H968.457V160.302H966.477V157.656H963.705ZM985.584 150.42H987.564V154.326H989.796V155.964H987.564V159.816H985.584V150.42ZM974.964 158.484C978.6 157.476 980.706 155.514 981.03 153.12H975.702V151.518H983.19C983.19 155.748 980.454 158.736 975.774 160.068L974.964 158.484ZM977.124 163.236C977.124 161.256 979.23 160.032 982.452 160.032C985.656 160.032 987.744 161.256 987.744 163.236C987.744 165.216 985.656 166.44 982.452 166.44C979.23 166.44 977.124 165.216 977.124 163.236ZM979.086 163.236C979.086 164.298 980.364 164.91 982.452 164.91C984.54 164.91 985.818 164.298 985.818 163.236C985.818 162.156 984.54 161.562 982.452 161.562C980.364 161.562 979.086 162.156 979.086 163.236ZM1001.37 150.438H1003.35V157.044H1005.55V158.7H1003.35V166.458H1001.37V150.438ZM990.588 162.012C991.794 162.012 993.18 162.012 994.638 161.976V160.464C992.91 160.176 991.776 159.096 991.776 157.566C991.776 155.766 993.36 154.578 995.628 154.578C997.896 154.578 999.498 155.766 999.498 157.566C999.498 159.096 998.346 160.176 996.618 160.464V161.886C997.932 161.832 999.246 161.706 1000.49 161.544L1000.65 162.966C997.248 163.632 993.576 163.632 990.858 163.632L990.588 162.012ZM990.876 153.822V152.256H994.638V150.492H996.618V152.256H1000.36V153.822H990.876ZM993.648 157.566C993.648 158.502 994.44 159.06 995.628 159.06C996.834 159.06 997.626 158.502 997.626 157.566C997.626 156.63 996.834 156.072 995.628 156.072C994.44 156.072 993.648 156.63 993.648 157.566Z" fill="#6D0CA6"/>
<path d="M866.224 202.16C866.224 201.68 866.299 201.296 866.448 201.008C866.608 200.709 866.822 200.496 867.088 200.368C867.366 200.24 867.67 200.176 868 200.176C868.331 200.176 868.63 200.24 868.896 200.368C869.163 200.496 869.376 200.709 869.536 201.008C869.696 201.296 869.776 201.68 869.776 202.16C869.776 202.629 869.696 203.013 869.536 203.312C869.376 203.6 869.163 203.813 868.896 203.952C868.63 204.08 868.331 204.144 868 204.144C867.67 204.144 867.366 204.08 867.088 203.952C866.822 203.813 866.608 203.6 866.448 203.312C866.299 203.013 866.224 202.629 866.224 202.16ZM884 195.856H885.36V197.376C885.36 199.264 886.704 201.008 888.752 201.712L888.032 202.784C886.496 202.224 885.312 201.088 884.704 199.648C884.112 201.28 882.912 202.544 881.264 203.184L880.512 202.08C882.688 201.296 884 199.392 884 197.28V195.856ZM882.416 206.608C882.416 204.976 884.176 204.016 887.056 204.016C889.952 204.016 891.696 204.976 891.696 206.608C891.696 208.24 889.952 209.184 887.056 209.184C884.176 209.184 882.416 208.24 882.416 206.608ZM883.776 206.608C883.776 207.552 885.008 208.096 887.056 208.096C889.104 208.096 890.336 207.552 890.336 206.608C890.336 205.648 889.104 205.104 887.056 205.104C885.008 205.104 883.776 205.648 883.776 206.608ZM890.16 203.648V195.136H891.552V198.72H893.616V199.872H891.552V203.648H890.16ZM897.472 195.984H898.8V197.84C898.8 199.408 899.824 200.976 901.616 201.68L900.896 202.736C899.584 202.224 898.656 201.248 898.144 200.048C897.648 201.376 896.672 202.544 895.296 203.136L894.56 202.064C896.416 201.248 897.472 199.44 897.472 197.84V195.984ZM897.088 206.64C897.088 205.056 898.896 204.112 901.808 204.112C904.72 204.112 906.528 205.056 906.528 206.64C906.528 208.256 904.72 209.184 901.808 209.184C898.896 209.184 897.088 208.256 897.088 206.64ZM898.464 206.64C898.464 207.568 899.728 208.128 901.808 208.128C903.888 208.128 905.136 207.568 905.136 206.64C905.136 205.712 903.888 205.184 901.808 205.184C899.728 205.184 898.464 205.712 898.464 206.64ZM902.128 203.36V195.408H903.424V198.864H905.136V195.136H906.464V203.808H905.136V200H903.424V203.36H902.128ZM922.472 195.136H923.864V205.536H922.472V200.208H920.024V199.088H922.472V195.136ZM912.28 202.128H914.024V197.488H912.664V196.352H920.104V197.488H918.744V201.952C919.416 201.888 920.072 201.824 920.696 201.744L920.776 202.768C918.008 203.248 914.792 203.28 912.44 203.28L912.28 202.128ZM914.808 208.896V204.624H916.184V207.776H924.216V208.896H914.808ZM915.368 202.096C916.04 202.08 916.712 202.064 917.4 202.032V197.488H915.368V202.096ZM927.849 196.4H937.401V197.536H929.225V201.84H937.545V202.96H927.849V196.4ZM926.249 207.312V206.176H939.001V207.312H926.249ZM943.921 206.272H949.601V202.912H950.993V206.272H956.673V207.424H943.921V206.272ZM944.529 202.32C947.041 201.888 949.569 199.92 949.569 197.728V197.504H944.977V196.384H955.601V197.504H951.009V197.728C951.009 199.92 953.569 201.856 956.113 202.256L955.553 203.36C953.345 202.928 951.201 201.584 950.305 199.696C949.393 201.6 947.265 202.96 945.089 203.408L944.529 202.32ZM961.409 195.92H962.785V197.28C962.785 199.264 964.097 201.024 966.177 201.728L965.425 202.816C963.905 202.24 962.753 201.136 962.145 199.712C961.537 201.344 960.289 202.608 958.593 203.232L957.873 202.112C960.049 201.344 961.409 199.472 961.409 197.328V195.92ZM960.129 206.528C960.129 204.832 961.921 203.856 964.849 203.856C967.761 203.856 969.553 204.832 969.553 206.528C969.553 208.224 967.761 209.184 964.849 209.184C961.921 209.184 960.129 208.224 960.129 206.528ZM961.521 206.528C961.521 207.52 962.753 208.096 964.849 208.096C966.929 208.096 968.177 207.52 968.177 206.528C968.177 205.52 966.929 204.944 964.849 204.944C962.753 204.944 961.521 205.52 961.521 206.528ZM965.105 199.2V198.048H968.097V195.136H969.489V203.44H968.097V199.2H965.105ZM866.224 228.16C866.224 227.68 866.299 227.296 866.448 227.008C866.608 226.709 866.822 226.496 867.088 226.368C867.366 226.24 867.67 226.176 868 226.176C868.331 226.176 868.63 226.24 868.896 226.368C869.163 226.496 869.376 226.709 869.536 227.008C869.696 227.296 869.776 227.68 869.776 228.16C869.776 228.629 869.696 229.013 869.536 229.312C869.376 229.6 869.163 229.813 868.896 229.952C868.63 230.08 868.331 230.144 868 230.144C867.67 230.144 867.366 230.08 867.088 229.952C866.822 229.813 866.608 229.6 866.448 229.312C866.299 229.013 866.224 228.629 866.224 228.16ZM888.512 224.368H890.8V221.136H892.192V229.44H890.8V228.24H888.496V227.12H890.8V225.488H888.512V224.368ZM880.608 223.616V222.512H883.92V220.992H885.312V222.512H888.496V223.616H880.608ZM881.392 226.816C881.392 225.28 882.72 224.272 884.592 224.272C886.496 224.272 887.792 225.28 887.792 226.816C887.792 228.336 886.496 229.344 884.592 229.344C882.72 229.344 881.392 228.336 881.392 226.816ZM882.704 226.816C882.704 227.712 883.456 228.32 884.592 228.32C885.728 228.32 886.496 227.712 886.496 226.816C886.496 225.904 885.728 225.312 884.592 225.312C883.456 225.312 882.704 225.904 882.704 226.816ZM883.056 235.024V230.048H884.416V231.44H890.832V230.048H892.192V235.024H883.056ZM884.416 233.936H890.832V232.512H884.416V233.936ZM895.12 221.968H901.216V226.016H896.544V228.08C899.056 228.08 900.384 228.016 901.984 227.728L902.128 228.848C900.4 229.152 898.992 229.2 896.176 229.2H895.168V224.944H899.856V223.104H895.12V221.968ZM896.736 231.648V230.528H906.192V235.232H904.8V231.648H896.736ZM902.128 227.248V226.128H904.8V224.336H902.128V223.2H904.8V221.136H906.192V229.792H904.8V227.248H902.128ZM912.417 221.776C914.289 221.776 915.713 222.832 916.001 224.448H918.785V221.136H920.177V228.672H918.785V225.584H916.001C915.745 227.216 914.305 228.32 912.417 228.32C910.305 228.32 908.769 226.976 908.769 225.04C908.769 223.104 910.305 221.776 912.417 221.776ZM910.097 225.04C910.097 226.288 911.057 227.152 912.417 227.152C913.761 227.152 914.721 226.288 914.721 225.04C914.721 223.776 913.761 222.928 912.417 222.928C911.057 222.928 910.097 223.776 910.097 225.04ZM911.121 235.024V229.376H912.497V231.072H918.801V229.376H920.177V235.024H911.121ZM912.497 233.904H918.801V232.176H912.497V233.904ZM928.289 226.656H930.369V221.44H931.665V234.496H930.369V227.792H928.289V226.656ZM922.417 231.312C924.337 230.176 925.361 227.744 925.361 225.456V224.832H922.817V223.696H925.361V221.616H926.689V223.696H929.217V224.832H926.689V225.456C926.689 227.68 927.761 229.968 929.665 231.008L928.881 232.048C927.521 231.296 926.561 229.92 926.049 228.288C925.553 230.032 924.593 231.552 923.217 232.368L922.417 231.312ZM933.185 235.2V221.12H934.513V235.2H933.185ZM940.665 222.56H948.537V223.712H945.289V225.36C945.289 227.744 946.921 230.16 949.017 231.056L948.233 232.16C946.617 231.408 945.273 229.84 944.617 227.936C943.961 229.968 942.633 231.712 941.001 232.512L940.201 231.408C942.265 230.432 943.897 227.792 943.897 225.36V223.712H940.665V222.56ZM950.361 235.216V221.136H951.753V235.216H950.361ZM964.377 221.12H965.769V231.84H964.377V230.416H961.561V229.424H964.377V221.12ZM954.121 227.6C956.729 227.584 960.201 227.552 963.209 227.184L963.289 228.176C962.073 228.384 960.809 228.512 959.545 228.592V231.344H958.153V228.656C956.777 228.72 955.449 228.736 954.313 228.736L954.121 227.6ZM955.225 224.144C955.225 222.656 956.633 221.68 958.697 221.68C960.761 221.68 962.169 222.656 962.169 224.144C962.169 225.648 960.761 226.608 958.697 226.608C956.633 226.608 955.225 225.648 955.225 224.144ZM956.089 234.896V230.8H957.481V233.776H966.121V234.896H956.089ZM956.537 224.144C956.537 225.024 957.433 225.568 958.697 225.568C959.977 225.568 960.841 225.024 960.841 224.144C960.841 223.264 959.977 222.704 958.697 222.704C957.433 222.704 956.537 223.264 956.537 224.144ZM971.889 232.256H984.641V233.424H971.889V232.256ZM972.993 223.632V222.496H983.473V223.632H981.329V228.432H983.457V229.552H973.041V228.432H975.137V223.632H972.993ZM976.529 228.432H979.953V223.632H976.529V228.432ZM985.874 232.352H991.538V229.776H987.458V225.36H995.698V223.264H987.426V222.144H997.074V226.464H988.818V228.656H997.394V229.776H992.914V232.352H998.626V233.488H985.874V232.352ZM1001.23 222.576H1010.9V224.032C1010.9 225.84 1010.9 227.84 1010.37 230.864L1008.98 230.736C1009.52 227.888 1009.52 225.808 1009.52 224.032V223.712H1001.23V222.576ZM999.858 233.184V232.032H1012.59V233.184H999.858ZM1024.4 221.12H1025.71V229.504H1024.4V225.808H1022.61V229.344H1021.31V221.392H1022.61V224.672H1024.4V221.12ZM1014.43 223.152V222.048H1019.76V225.936H1015.79V227.808C1017.57 227.792 1018.93 227.728 1020.51 227.408L1020.64 228.512C1018.9 228.864 1017.43 228.912 1015.39 228.912H1014.48V224.864H1018.4V223.152H1014.43ZM1016.43 235.024V230.176H1025.71V235.024H1016.43ZM1017.79 233.904H1024.39V231.296H1017.79V233.904ZM1032.07 222.528H1038.57V231.664H1032.07V222.528ZM1033.43 230.544H1037.21V223.632H1033.43V230.544ZM1040.99 235.216V221.136H1042.38V226.72H1044.65V227.872H1042.38V235.216H1040.99ZM1046.04 222.128H1052.12V226.288H1047.45V228.496C1049.85 228.496 1051.24 228.432 1052.92 228.144L1053.05 229.264C1051.27 229.584 1049.77 229.632 1047.1 229.632H1046.07V225.216H1050.73V223.232H1046.04V222.128ZM1047.96 234.832V230.736H1049.34V233.696H1057.51V234.832H1047.96ZM1053.05 227.744V226.624H1055.71V224.576H1053.05V223.472H1055.71V221.136H1057.1V231.488H1055.71V227.744H1053.05Z" fill="#3F3F46"/>
</svg>
