<svg width="339" height="577" viewBox="0 0 339 577" fill="none" xmlns="http://www.w3.org/2000/svg">
<rect width="339" height="77" rx="8" fill="#9735D0"/>
<path d="M28.434 41.364C28.818 42.108 29.274 42.672 29.802 43.056C30.342 43.44 30.912 43.632 31.512 43.632C32.34 43.632 32.982 43.446 33.438 43.074C33.894 42.69 34.122 42.18 34.122 41.544C34.122 41.124 33.996 40.77 33.744 40.482C33.504 40.194 33.198 39.966 32.826 39.798C32.466 39.618 31.962 39.408 31.314 39.168C30.486 38.868 29.814 38.58 29.298 38.304C28.782 38.028 28.344 37.638 27.984 37.134C27.624 36.63 27.444 35.982 27.444 35.19C27.444 34.482 27.624 33.864 27.984 33.336C28.344 32.808 28.842 32.406 29.478 32.13C30.114 31.854 30.84 31.716 31.656 31.716C32.58 31.716 33.408 31.974 34.14 32.49C34.884 32.994 35.436 33.75 35.796 34.758L34.086 35.37C33.858 34.71 33.534 34.218 33.114 33.894C32.694 33.558 32.22 33.384 31.692 33.372C30.984 33.372 30.414 33.54 29.982 33.876C29.562 34.2 29.352 34.638 29.352 35.19C29.352 35.61 29.472 35.964 29.712 36.252C29.964 36.54 30.276 36.78 30.648 36.972C31.032 37.152 31.542 37.362 32.178 37.602C33.006 37.926 33.672 38.226 34.176 38.502C34.68 38.778 35.112 39.168 35.472 39.672C35.832 40.164 36.012 40.794 36.012 41.562C36.012 42.294 35.832 42.942 35.472 43.506C35.112 44.07 34.59 44.508 33.906 44.82C33.234 45.132 32.442 45.288 31.53 45.288C30.558 45.288 29.676 45.03 28.884 44.514C28.092 43.986 27.414 43.23 26.85 42.246L28.434 41.364ZM43.6652 37.764L49.0292 45.144H46.6532L42.3512 39.24L40.7132 41.04V45.144H38.8052V31.878H40.7132V38.196L46.3652 31.86H48.9212L43.6652 37.764ZM53.349 32.04V40.842C54.225 40.818 55.023 40.776 55.743 40.716C56.475 40.644 57.219 40.53 57.975 40.374L58.227 42.03C57.315 42.234 56.415 42.372 55.527 42.444C54.639 42.504 53.631 42.534 52.503 42.534H51.405V32.04H53.349ZM55.851 35.604H59.181V30.744H61.017V45.684H59.181V37.224H55.851V35.604ZM62.583 30.42H64.455V46.44H62.583V30.42ZM79.2514 31.662V33.246H70.2334V35.208H78.8914V36.756H70.2334V38.808H79.3954V40.392H68.2354V31.662H79.2514ZM66.4714 42.912H80.9794V44.514H66.4714V42.912ZM95.5058 30.438V41.022H93.5438V40.266H90.3038V38.898H93.5438V30.438H95.5058ZM82.0958 36.936C84.0398 36.936 85.8578 36.906 87.5498 36.846C89.2418 36.786 90.8378 36.654 92.3378 36.45L92.4638 37.818C91.3118 38.022 89.8478 38.19 88.0718 38.322V40.896H86.1278V38.412C84.9278 38.46 83.6678 38.484 82.3478 38.484L82.0958 36.936ZM83.2838 33.462C83.2838 32.946 83.4518 32.49 83.7878 32.094C84.1238 31.686 84.5918 31.374 85.1918 31.158C85.8038 30.93 86.4998 30.816 87.2798 30.816C88.0598 30.816 88.7498 30.93 89.3498 31.158C89.9498 31.374 90.4178 31.686 90.7538 32.094C91.0898 32.49 91.2578 32.946 91.2578 33.462C91.2578 33.99 91.0898 34.458 90.7538 34.866C90.4178 35.262 89.9498 35.568 89.3498 35.784C88.7498 36 88.0598 36.108 87.2798 36.108C86.4878 36.108 85.7918 36 85.1918 35.784C84.5918 35.568 84.1238 35.262 83.7878 34.866C83.4518 34.458 83.2838 33.99 83.2838 33.462ZM84.3098 41.634H95.5058V46.458H93.5438V43.182H84.3098V41.634ZM85.1378 33.462C85.1378 33.858 85.3298 34.17 85.7138 34.398C86.0978 34.614 86.6198 34.722 87.2798 34.722C87.9278 34.722 88.4438 34.614 88.8278 34.398C89.2118 34.17 89.4038 33.858 89.4038 33.462C89.4038 33.078 89.2118 32.778 88.8278 32.562C88.4438 32.334 87.9278 32.22 87.2798 32.22C86.6318 32.22 86.1098 32.334 85.7138 32.562C85.3298 32.778 85.1378 33.078 85.1378 33.462ZM106.162 31.41V32.598C106.162 33.426 106.408 34.23 106.9 35.01C107.392 35.79 108.07 36.462 108.934 37.026C109.81 37.578 110.788 37.95 111.868 38.142L111.004 39.78C109.672 39.516 108.484 39.006 107.44 38.25C106.408 37.482 105.634 36.558 105.118 35.478C104.59 36.546 103.804 37.464 102.76 38.232C101.728 39 100.552 39.516 99.2322 39.78L98.3862 38.142C99.4542 37.95 100.42 37.572 101.284 37.008C102.16 36.444 102.844 35.772 103.336 34.992C103.828 34.212 104.074 33.414 104.074 32.598V31.41H106.162ZM97.9362 42.786H112.444V44.406H97.9362V42.786ZM124.081 38.106V36.594H119.617V31.14H130.543V32.724H121.561V35.01H130.651V36.594H126.043V38.106H132.307V39.69H117.835V38.106H124.081ZM119.491 43.542C119.491 42.618 119.977 41.904 120.949 41.4C121.933 40.884 123.295 40.626 125.035 40.626C126.763 40.626 128.113 40.884 129.085 41.4C130.069 41.904 130.561 42.618 130.561 43.542C130.561 44.466 130.069 45.18 129.085 45.684C128.113 46.2 126.763 46.458 125.035 46.458C123.295 46.458 121.933 46.2 120.949 45.684C119.977 45.18 119.491 44.466 119.491 43.542ZM121.489 43.542C121.489 44.478 122.671 44.946 125.035 44.946C127.387 44.946 128.563 44.478 128.563 43.542C128.563 43.086 128.257 42.738 127.645 42.498C127.045 42.258 126.175 42.138 125.035 42.138C123.883 42.138 123.001 42.258 122.389 42.498C121.789 42.738 121.489 43.086 121.489 43.542ZM146.096 30.438V35.064H148.31V36.702H146.096V42.21H144.116V30.438H146.096ZM134.108 31.572H136.07V34.02H139.742V31.572H141.686V39.636H134.108V31.572ZM135.908 41.04H137.888V44.55H146.726V46.134H135.908V41.04ZM139.742 38.052V35.55H136.07V38.052H139.742ZM155.096 31.302V32.724C155.096 33.852 155.414 34.866 156.05 35.766C156.686 36.666 157.604 37.308 158.804 37.692L157.76 39.24C156.92 38.952 156.194 38.532 155.582 37.98C154.982 37.416 154.508 36.75 154.16 35.982C153.8 36.87 153.284 37.638 152.612 38.286C151.952 38.922 151.148 39.402 150.2 39.726L149.174 38.124C150.434 37.704 151.406 37.014 152.09 36.054C152.774 35.082 153.116 33.996 153.116 32.796V31.302H155.096ZM151.766 43.362C151.766 42.39 152.252 41.634 153.224 41.094C154.196 40.554 155.528 40.284 157.22 40.284C158.9 40.284 160.22 40.554 161.18 41.094C162.152 41.634 162.638 42.39 162.638 43.362C162.638 44.334 162.158 45.09 161.198 45.63C160.238 46.17 158.912 46.44 157.22 46.44C155.528 46.44 154.196 46.17 153.224 45.63C152.252 45.09 151.766 44.334 151.766 43.362ZM153.764 43.362C153.764 43.866 154.058 44.25 154.646 44.514C155.246 44.778 156.104 44.91 157.22 44.91C158.324 44.91 159.176 44.778 159.776 44.514C160.376 44.25 160.676 43.866 160.676 43.362C160.676 42.858 160.376 42.474 159.776 42.21C159.176 41.946 158.324 41.814 157.22 41.814C156.104 41.814 155.246 41.946 154.646 42.21C154.058 42.474 153.764 42.858 153.764 43.362ZM157.454 33.516H160.586V30.438H162.566V39.852H160.586V35.154H157.454V33.516ZM174.014 31.536V33.138H170.72V33.3C170.72 34.308 171.038 35.232 171.674 36.072C172.322 36.9 173.252 37.506 174.464 37.89L173.51 39.42C172.634 39.144 171.878 38.736 171.242 38.196C170.618 37.656 170.132 37.02 169.784 36.288C169.424 37.152 168.908 37.902 168.236 38.538C167.576 39.174 166.778 39.648 165.842 39.96L164.852 38.394C166.088 37.974 167.042 37.302 167.714 36.378C168.398 35.442 168.74 34.416 168.74 33.3V33.138H165.392V31.536H174.014ZM167.012 43.38C167.012 42.42 167.492 41.676 168.452 41.148C169.412 40.608 170.72 40.338 172.376 40.338C174.032 40.338 175.334 40.608 176.282 41.148C177.242 41.676 177.722 42.42 177.722 43.38C177.722 44.34 177.242 45.09 176.282 45.63C175.334 46.17 174.032 46.44 172.376 46.44C170.72 46.44 169.412 46.17 168.452 45.63C167.492 45.09 167.012 44.34 167.012 43.38ZM168.956 43.38C168.956 43.872 169.25 44.25 169.838 44.514C170.438 44.778 171.284 44.91 172.376 44.91C173.456 44.91 174.29 44.778 174.878 44.514C175.478 44.25 175.778 43.872 175.778 43.38C175.778 42.888 175.484 42.516 174.896 42.264C174.308 42.012 173.468 41.886 172.376 41.886C171.272 41.886 170.426 42.012 169.838 42.264C169.25 42.516 168.956 42.888 168.956 43.38ZM175.562 30.438H177.542V34.272H179.774V35.892H177.542V39.996H175.562V30.438ZM192.131 38.286C192.707 38.622 193.169 39.078 193.517 39.654C193.865 40.218 194.039 40.782 194.039 41.346C194.039 42.078 193.847 42.738 193.463 43.326C193.091 43.902 192.569 44.352 191.897 44.676C191.225 45 190.457 45.162 189.593 45.162C188.741 45.162 187.979 44.994 187.307 44.658C186.635 44.322 186.107 43.86 185.723 43.272C185.351 42.672 185.165 41.994 185.165 41.238H187.073C187.073 41.898 187.307 42.438 187.775 42.858C188.243 43.266 188.849 43.47 189.593 43.47C190.349 43.47 190.967 43.266 191.447 42.858C191.939 42.438 192.185 41.898 192.185 41.238C192.185 40.602 191.945 40.086 191.465 39.69C190.985 39.282 190.373 39.078 189.629 39.078H188.693V37.476H189.647C190.331 37.476 190.889 37.296 191.321 36.936C191.765 36.564 191.987 36.09 191.987 35.514C191.987 34.926 191.777 34.452 191.357 34.092C190.937 33.72 190.391 33.534 189.719 33.534C189.059 33.534 188.519 33.72 188.099 34.092C187.679 34.464 187.469 34.944 187.469 35.532H185.561C185.561 34.812 185.735 34.176 186.083 33.624C186.443 33.06 186.935 32.622 187.559 32.31C188.195 31.998 188.915 31.842 189.719 31.842C190.511 31.842 191.219 31.998 191.843 32.31C192.467 32.61 192.953 33.03 193.301 33.57C193.661 34.11 193.841 34.722 193.841 35.406C193.841 35.922 193.685 36.45 193.373 36.99C193.061 37.518 192.647 37.95 192.131 38.286ZM209.21 30.42V46.44H207.32V38.304H205.574V45.648H203.738V30.744H205.574V36.684H207.32V30.42H209.21ZM196.034 32.328H201.938V33.93H197.978V41.076C199.73 41.052 201.314 40.908 202.73 40.644L202.91 42.264C201.998 42.444 201.104 42.564 200.228 42.624C199.352 42.684 198.314 42.714 197.114 42.714H196.034V32.328ZM229.883 37.8V39.384H223.619V40.77C225.059 40.866 226.175 41.16 226.967 41.652C227.759 42.132 228.155 42.78 228.155 43.596C228.155 44.496 227.663 45.192 226.679 45.684C225.707 46.188 224.357 46.44 222.629 46.44C220.889 46.44 219.527 46.188 218.543 45.684C217.571 45.192 217.085 44.496 217.085 43.596C217.085 42.78 217.481 42.132 218.273 41.652C219.077 41.16 220.199 40.866 221.639 40.77V39.384H215.411V37.8H229.883ZM216.095 35.496C217.055 35.412 217.901 35.232 218.633 34.956C219.377 34.68 219.971 34.35 220.415 33.966C220.859 33.57 221.135 33.15 221.243 32.706H216.725V31.14H228.587V32.706H224.051C224.219 33.402 224.759 34.008 225.671 34.524C226.583 35.04 227.759 35.364 229.199 35.496L228.497 37.044C227.069 36.888 225.845 36.54 224.825 36C223.805 35.46 223.079 34.782 222.647 33.966C222.215 34.782 221.489 35.46 220.469 36C219.449 36.54 218.219 36.888 216.779 37.044L216.095 35.496ZM219.083 43.596C219.083 44.04 219.383 44.376 219.983 44.604C220.583 44.832 221.465 44.946 222.629 44.946C223.781 44.946 224.657 44.832 225.257 44.604C225.857 44.376 226.157 44.04 226.157 43.596C226.157 43.14 225.857 42.798 225.257 42.57C224.657 42.342 223.781 42.228 222.629 42.228C220.265 42.228 219.083 42.684 219.083 43.596ZM242.447 34.236V30.438H244.427V39.726H242.447V35.856H239.729V34.236H242.447ZM231.089 38.124C232.313 37.716 233.261 37.044 233.933 36.108C234.617 35.172 234.959 34.152 234.959 33.048V32.904H231.647V31.32H240.251V32.904H236.957V33.03C236.957 34.05 237.281 35.004 237.929 35.892C238.589 36.768 239.513 37.404 240.701 37.8L239.711 39.366C238.847 39.066 238.103 38.628 237.479 38.052C236.855 37.464 236.363 36.78 236.003 36C235.655 36.864 235.145 37.62 234.473 38.268C233.813 38.904 233.021 39.384 232.097 39.708L231.089 38.124ZM233.861 40.428H244.427V46.26H233.861V40.428ZM242.501 44.694V41.976H235.805V44.694H242.501ZM265.514 40.05V41.67H259.25V46.476H257.252V41.67H251.024V40.05H265.514ZM251.834 37.53C252.854 37.398 253.76 37.152 254.552 36.792C255.356 36.42 255.986 35.982 256.442 35.478C256.898 34.974 257.162 34.446 257.234 33.894H252.356V32.31H257.252V30.456H259.25V32.31H264.164V33.894H259.268C259.34 34.434 259.604 34.962 260.06 35.478C260.528 35.982 261.158 36.42 261.95 36.792C262.742 37.152 263.648 37.398 264.668 37.53L263.966 39.078C262.67 38.922 261.524 38.574 260.528 38.034C259.544 37.494 258.788 36.828 258.26 36.036C257.744 36.828 256.988 37.494 255.992 38.034C254.996 38.562 253.838 38.91 252.518 39.078L251.834 37.53ZM276.135 31.626V33.21H272.787V33.66C272.787 34.704 273.123 35.664 273.795 36.54C274.479 37.404 275.433 38.04 276.657 38.448L275.649 39.978C274.761 39.69 273.993 39.258 273.345 38.682C272.697 38.106 272.187 37.422 271.815 36.63C271.455 37.482 270.939 38.22 270.267 38.844C269.607 39.468 268.809 39.942 267.873 40.266L266.865 38.718C268.101 38.298 269.061 37.626 269.745 36.702C270.429 35.778 270.771 34.764 270.771 33.66V33.21H267.405V31.626H276.135ZM269.457 40.986H271.437V44.55H280.419V46.134H269.457V40.986ZM277.989 30.438H279.987V42.066H277.989V30.438ZM293.811 34.668V30.438H295.791V42.12H293.811V36.27H291.021V34.668H293.811ZM282.435 38.7C283.659 38.28 284.613 37.602 285.297 36.666C285.981 35.73 286.323 34.71 286.323 33.606V33.174H282.993V31.59H291.597V33.174H288.321V33.606C288.321 34.626 288.645 35.58 289.293 36.468C289.953 37.344 290.871 37.98 292.047 38.376L291.075 39.924C290.211 39.624 289.461 39.186 288.825 38.61C288.201 38.034 287.709 37.35 287.349 36.558C287.001 37.422 286.491 38.178 285.819 38.826C285.159 39.474 284.367 39.954 283.443 40.266L282.435 38.7ZM285.333 41.13H287.331V44.55H296.187V46.134H285.333V41.13ZM306.105 31.356V36.072H300.813V37.89C302.265 37.878 303.489 37.842 304.485 37.782C305.493 37.71 306.507 37.578 307.527 37.386L307.707 38.988C306.603 39.192 305.493 39.33 304.377 39.402C303.273 39.462 301.869 39.492 300.165 39.492H298.851V34.596H304.143V32.922H298.815V31.356H306.105ZM300.183 40.95H310.767V46.458H308.787V42.534H300.183V40.95ZM308.787 30.438H310.767V32.778H312.981V34.398H310.767V36.162H312.981V37.782H310.767V40.176H308.787V30.438Z" fill="white"/>
<rect y="89" width="339" height="174" rx="8" fill="#F6F6F7"/>
<path d="M30.912 127.968C33.968 127.968 35.936 128.976 35.936 130.64C35.936 132.288 33.968 133.296 30.912 133.296C27.856 133.296 25.904 132.288 25.904 130.64C25.904 128.976 27.856 127.968 30.912 127.968ZM24.56 126.928V125.52H29.52V122.944H31.264V125.52H37.392V126.928H24.56ZM26.032 121.12V119.728H35.824V120.912C35.824 122.048 35.824 123.232 35.44 124.704L33.712 124.512C34.064 123.152 34.08 122.144 34.08 121.12H26.032ZM27.648 130.64C27.648 131.488 28.864 131.952 30.912 131.952C32.96 131.952 34.176 131.488 34.176 130.64C34.176 129.776 32.96 129.296 30.912 129.296C28.864 129.296 27.648 129.776 27.648 130.64ZM46.1764 122.592H48.5924V119.056H50.3524V127.504H48.5924V124.016H46.1764V122.592ZM38.4964 126.08C40.7364 125.296 41.9364 123.392 41.9364 121.472V121.392H38.9764V119.984H46.6244V121.392H43.7124V121.472C43.7124 123.216 44.8324 124.96 47.0244 125.712L46.1444 127.088C44.5764 126.544 43.4724 125.472 42.8644 124.128C42.2404 125.648 41.0724 126.88 39.3764 127.472L38.4964 126.08ZM40.7524 130.592C40.7524 128.896 42.5924 127.872 45.5844 127.872C48.5604 127.872 50.4004 128.896 50.4004 130.592C50.4004 132.304 48.5604 133.296 45.5844 133.296C42.5924 133.296 40.7524 132.304 40.7524 130.592ZM42.5124 130.592C42.5124 131.472 43.6164 131.952 45.5844 131.952C47.5364 131.952 48.6564 131.472 48.6564 130.592C48.6564 129.696 47.5364 129.216 45.5844 129.216C43.6164 129.216 42.5124 129.696 42.5124 130.592ZM61.8888 119.056H63.6488V123.52H65.6328V124.976H63.6488V129.712H61.8888V119.056ZM52.5288 122.016V120.624H55.8408V119.04H57.6008V120.624H60.9128V122.016H52.5288ZM53.2648 125.344C53.2648 123.728 54.6888 122.64 56.7208 122.64C58.7688 122.64 60.1927 123.728 60.1927 125.344C60.1927 126.976 58.7688 128.064 56.7208 128.064C54.6888 128.064 53.2648 126.976 53.2648 125.344ZM54.5928 133.008V128.88H56.3528V131.6H64.2248V133.008H54.5928ZM54.9448 125.344C54.9448 126.208 55.6648 126.704 56.7208 126.704C57.7768 126.704 58.4968 126.208 58.4968 125.344C58.4968 124.48 57.7768 123.984 56.7208 123.984C55.6648 123.984 54.9448 124.48 54.9448 125.344ZM80.2006 119.04H81.9606V133.28H80.2006V119.04ZM70.2646 129.392C73.9606 127.616 75.6406 125.2 75.9446 121.952H70.9686V120.528H77.7526C77.7526 124.8 76.1366 128.384 71.1766 130.784L70.2646 129.392ZM94.169 119.056H95.913V133.296H94.169V119.056ZM84.233 129.344C85.337 129.344 86.601 129.344 87.929 129.312V127.984C86.345 127.728 85.321 126.752 85.321 125.392C85.321 123.792 86.729 122.736 88.809 122.736C90.873 122.736 92.313 123.792 92.313 125.392C92.313 126.752 91.273 127.728 89.689 127.984V129.248C90.937 129.184 92.185 129.088 93.369 128.928L93.481 130.192C90.361 130.768 87.001 130.784 84.441 130.784L84.233 129.344ZM84.505 122.064V120.688H87.929V119.088H89.689V120.688H93.113V122.064H84.505ZM86.985 125.392C86.985 126.224 87.737 126.72 88.809 126.72C89.897 126.72 90.633 126.224 90.633 125.392C90.633 124.56 89.897 124.064 88.809 124.064C87.737 124.064 86.985 124.56 86.985 125.392ZM112.321 119.04H113.985V133.28H112.321V119.04ZM101.585 129.264C103.617 127.984 104.497 125.424 104.497 122.928V122H102.049V120.56H108.465V122H106.209V122.928C106.209 125.328 107.041 127.76 109.057 128.944L108.017 130.208C106.721 129.424 105.857 128.08 105.361 126.464C104.881 128.224 103.985 129.712 102.641 130.56L101.585 129.264ZM107.425 125.44V124.016H109.457V119.312H111.089V132.608H109.457V125.44H107.425ZM122.193 127.968C125.249 127.968 127.217 128.976 127.217 130.64C127.217 132.288 125.249 133.296 122.193 133.296C119.137 133.296 117.185 132.288 117.185 130.64C117.185 128.976 119.137 127.968 122.193 127.968ZM115.841 126.928V125.52H120.801V122.944H122.545V125.52H128.673V126.928H115.841ZM117.313 121.12V119.728H127.105V120.912C127.105 122.048 127.105 123.232 126.721 124.704L124.993 124.512C125.345 123.152 125.361 122.144 125.361 121.12H117.313ZM118.929 130.64C118.929 131.488 120.145 131.952 122.193 131.952C124.241 131.952 125.457 131.488 125.457 130.64C125.457 129.776 124.241 129.296 122.193 129.296C120.145 129.296 118.929 129.776 118.929 130.64ZM134.233 119.92H141.017V125.872H134.233V119.92ZM135.065 131.92C137.801 131.664 139.497 130.464 139.657 129.328H135.625V128H139.689V126.768H141.481V128H145.513V129.328H141.497C141.657 130.432 143.353 131.648 146.041 131.92L145.481 133.248C143.177 133.008 141.433 132.096 140.569 130.928C139.705 132.112 137.961 133.008 135.641 133.248L135.065 131.92ZM135.945 124.48H139.321V121.312H135.945V124.48ZM143.497 127.168V119.056H145.273V127.168H143.497ZM158.817 122.064H161.233V119.056H162.977V126.32H161.233V123.456H158.817V122.064ZM151.089 125.216C153.313 124.48 154.529 122.752 154.529 121.104V121.056H151.585V119.648H159.217V121.056H156.305V121.104C156.305 122.688 157.441 124.256 159.601 124.896L158.769 126.272C157.185 125.792 156.049 124.784 155.441 123.536C154.801 124.928 153.617 126.064 151.937 126.576L151.089 125.216ZM153.665 128.32V126.96H162.977V130.624H155.441V131.76H163.441V133.136H153.697V129.344H161.249V128.32H153.665ZM165.377 121.424H168.401V119.344H170.145V121.424H173.105V122.816H170.145V123.552C170.145 125.68 171.313 127.968 173.457 129.024L172.513 130.352C170.993 129.632 169.889 128.208 169.297 126.544C168.689 128.352 167.521 129.856 165.905 130.608L164.945 129.264C167.169 128.224 168.401 125.808 168.401 123.552V122.816H165.377V121.424ZM174.449 133.296V119.056H176.225V124.704H178.401V126.16H176.225V133.296H174.449ZM186.818 122.56H189.186V119.056H190.946V127.536H189.186V124H186.818V122.56ZM179.09 126C181.346 125.232 182.53 123.36 182.53 121.472V121.312H179.586V119.904H187.234V121.312H184.306V121.472C184.306 123.216 185.442 124.96 187.634 125.712L186.754 127.088C185.186 126.544 184.082 125.456 183.458 124.112C182.85 125.6 181.666 126.8 179.986 127.376L179.09 126ZM181.33 129.648V128.224H190.946V133.296H189.186V129.648H181.33ZM196.794 127.568H209.69V129.008H204.122V133.312H202.346V129.008H196.794V127.568ZM198.458 126.384V119.664H208.154V121.056H200.186V122.304H207.85V123.664H200.186V124.976H208.314V126.384H198.458ZM220.858 119.056H222.618V127.424H220.858V125.456H218.042V126.56H211.402V120.08H218.042V121.2H220.858V119.056ZM213.018 130.544C213.018 128.816 214.858 127.808 217.85 127.808C220.826 127.808 222.682 128.816 222.682 130.544C222.682 132.288 220.826 133.28 217.85 133.28C214.858 133.28 213.018 132.288 213.018 130.544ZM213.13 125.184H216.314V121.488H213.13V125.184ZM214.778 130.544C214.778 131.44 215.882 131.936 217.85 131.936C219.818 131.936 220.922 131.44 220.922 130.544C220.922 129.648 219.818 129.168 217.85 129.168C215.882 129.168 214.778 129.648 214.778 130.544ZM218.042 124.048H220.858V122.608H218.042V124.048ZM228.186 119.824H229.946V121.088C229.946 123.024 231.05 124.8 233.242 125.504L232.314 126.88C230.794 126.352 229.722 125.312 229.114 123.984C228.49 125.52 227.306 126.72 225.594 127.312L224.682 125.888C227.002 125.12 228.186 123.216 228.186 121.152V119.824ZM226.986 130.544C226.986 128.816 228.842 127.808 231.834 127.808C234.81 127.808 236.65 128.816 236.65 130.544C236.65 132.288 234.81 133.28 231.834 133.28C228.842 133.28 226.986 132.288 226.986 130.544ZM228.762 130.544C228.762 131.44 229.85 131.92 231.834 131.92C233.786 131.92 234.906 131.44 234.906 130.544C234.906 129.648 233.786 129.168 231.834 129.168C229.85 129.168 228.762 129.648 228.762 130.544ZM232.042 123.248V121.792H234.826V119.056H236.586V127.424H234.826V123.248H232.042ZM242.45 127.04H255.346V128.48H252.21V133.28H250.418V128.48H247.314V133.28H245.506V128.48H242.45V127.04ZM243.778 122.72C243.778 120.784 245.842 119.584 248.85 119.584C251.874 119.584 253.938 120.784 253.938 122.72C253.938 124.656 251.874 125.872 248.85 125.872C245.842 125.872 243.778 124.656 243.778 122.72ZM245.586 122.72C245.586 123.84 246.866 124.464 248.85 124.464C250.85 124.464 252.146 123.84 252.146 122.72C252.146 121.632 250.85 120.976 248.85 120.976C246.866 120.976 245.586 121.632 245.586 122.72ZM256.867 120.448H264.851V121.904H261.747V123.088C261.747 125.44 263.123 127.888 265.379 128.848L264.403 130.24C262.755 129.504 261.539 128.016 260.883 126.208C260.243 128.16 259.011 129.808 257.347 130.592L256.339 129.2C258.595 128.16 259.971 125.52 259.971 123.088V121.904H256.867V120.448ZM266.403 133.296V119.056H268.163V133.296H266.403Z" fill="#6D0CA6"/>
<path d="M32.9462 161.89C32.9462 161.47 33.0115 161.134 33.1422 160.882C33.2822 160.621 33.4688 160.434 33.7022 160.322C33.9448 160.21 34.2108 160.154 34.5002 160.154C34.7895 160.154 35.0508 160.21 35.2842 160.322C35.5175 160.434 35.7042 160.621 35.8442 160.882C35.9842 161.134 36.0542 161.47 36.0542 161.89C36.0542 162.301 35.9842 162.637 35.8442 162.898C35.7042 163.15 35.5175 163.337 35.2842 163.458C35.0508 163.57 34.7895 163.626 34.5002 163.626C34.2108 163.626 33.9448 163.57 33.7022 163.458C33.4688 163.337 33.2822 163.15 33.1422 162.898C33.0115 162.637 32.9462 162.301 32.9462 161.89ZM51.09 156.024C53.708 156.024 55.43 156.99 55.43 158.516C55.43 160.028 53.708 160.98 51.09 160.98C48.486 160.98 46.764 160.028 46.764 158.516C46.764 156.99 48.486 156.024 51.09 156.024ZM45.546 162.856V161.876H56.676V162.856H53.876V165.362H52.658V162.856H50.614V165.362H49.396V162.856H45.546ZM46.89 167.784V164.326H48.094V166.804H55.528V167.784H46.89ZM48.052 158.516C48.052 159.44 49.27 160 51.09 160C52.924 160 54.142 159.44 54.142 158.516C54.142 157.592 52.924 157.018 51.09 157.018C49.27 157.018 48.052 157.592 48.052 158.516ZM66.6723 155.716H67.8903V168.078H66.6723V155.716ZM58.4403 157.858V156.878H64.1523V161.316H59.6863V164.102C61.7023 164.102 63.4523 164.004 65.5523 163.668L65.6783 164.662C63.4803 165.026 61.6323 165.096 59.5043 165.096H58.4683V160.336H62.9343V157.858H58.4403ZM76.5987 158.908H78.9227V155.744H80.1407V163.094H78.9227V159.916H76.5987V158.908ZM70.0187 161.96C71.8667 161.316 73.0847 159.678 73.0847 157.956V157.55H70.3827V156.556H76.9767V157.55H74.3027V157.956C74.3027 159.524 75.4647 161.05 77.2847 161.68L76.6547 162.646C75.2827 162.142 74.2607 161.134 73.7287 159.888C73.1967 161.288 72.1047 162.394 70.6487 162.912L70.0187 161.96ZM71.9087 164.746V163.752H80.1407V168.064H78.9227V164.746H71.9087ZM86.8535 156.528H95.1695V157.606C95.1695 158.768 95.1695 160.042 94.8195 161.82H96.6115V162.828H91.6275V168.078H90.3955V162.828H85.4675V161.82H93.5875C93.9655 160.07 93.9655 158.754 93.9655 157.606V157.508H86.8535V156.528ZM107.014 155.73H108.176V168.05H107.014V161.582H105.432V167.434H104.298V155.996H105.432V160.588H107.014V155.73ZM98.1379 164.774V157.13H102.842V164.774H98.1379ZM99.2719 163.822H101.722V158.096H99.2719V163.822ZM119.481 158.6H122.099V155.744H123.317V164.942H122.099V159.608H119.481V158.6ZM113.153 162.254C115.015 161.568 116.205 159.846 116.205 157.97V156.472H117.423V157.998C117.423 159.706 118.585 161.316 120.377 161.988L119.733 162.926C118.389 162.394 117.367 161.358 116.835 160.056C116.317 161.512 115.239 162.646 113.797 163.22L113.153 162.254ZM115.365 167.784V163.934H116.569V166.804H123.611V167.784H115.365ZM134.335 155.744H135.553V164.802H134.335V160.112H131.913C131.661 161.624 130.387 162.646 128.763 162.646C126.943 162.646 125.585 161.372 125.585 159.58C125.585 157.788 126.943 156.528 128.763 156.528C130.415 156.528 131.717 157.578 131.927 159.132H134.335V155.744ZM126.733 159.58C126.733 160.77 127.615 161.582 128.763 161.582C129.911 161.582 130.793 160.77 130.793 159.58C130.793 158.404 129.911 157.592 128.763 157.592C127.615 157.592 126.733 158.404 126.733 159.58ZM127.643 167.784V163.892H128.861V166.804H135.889V167.784H127.643ZM32.9462 183.89C32.9462 183.47 33.0115 183.134 33.1422 182.882C33.2822 182.621 33.4688 182.434 33.7022 182.322C33.9448 182.21 34.2108 182.154 34.5002 182.154C34.7895 182.154 35.0508 182.21 35.2842 182.322C35.5175 182.434 35.7042 182.621 35.8442 182.882C35.9842 183.134 36.0542 183.47 36.0542 183.89C36.0542 184.301 35.9842 184.637 35.8442 184.898C35.7042 185.15 35.5175 185.337 35.2842 185.458C35.0508 185.57 34.7895 185.626 34.5002 185.626C34.2108 185.626 33.9448 185.57 33.7022 185.458C33.4688 185.337 33.2822 185.15 33.1422 184.898C33.0115 184.637 32.9462 184.301 32.9462 183.89ZM45.91 178.99H52.798V179.998H49.956V181.44C49.956 183.526 51.384 185.64 53.218 186.424L52.532 187.39C51.118 186.732 49.942 185.36 49.368 183.694C48.794 185.472 47.632 186.998 46.204 187.698L45.504 186.732C47.31 185.878 48.738 183.568 48.738 181.44V179.998H45.91V178.99ZM54.394 190.064V177.744H55.612V190.064H54.394ZM57.7683 183.89H62.7243V182.056H63.9283V183.89H68.9263V184.87H57.7683V183.89ZM58.4123 181.748C60.6943 181.44 62.7243 180.068 62.7243 178.458V177.94H63.9423V178.458C63.9423 180.068 65.9583 181.44 68.2403 181.748L67.7783 182.714C65.8603 182.392 64.1103 181.44 63.3263 180.054C62.5563 181.44 60.7923 182.392 58.8743 182.714L58.4123 181.748ZM59.0003 187.012V186.032H67.5263V190.064H66.3223V187.012H59.0003ZM76.5987 180.908H78.9227V177.744H80.1407V185.094H78.9227V181.916H76.5987V180.908ZM70.0187 183.96C71.8667 183.316 73.0847 181.678 73.0847 179.956V179.55H70.3827V178.556H76.9767V179.55H74.3027V179.956C74.3027 181.524 75.4647 183.05 77.2847 183.68L76.6547 184.646C75.2827 184.142 74.2607 183.134 73.7287 181.888C73.1967 183.288 72.1047 184.394 70.6487 184.912L70.0187 183.96ZM71.9087 186.746V185.752H80.1407V190.064H78.9227V186.746H71.9087ZM91.131 177.744H92.349V186.718H91.131V177.744ZM82.493 181.636C82.493 179.844 83.893 178.584 85.727 178.584C87.575 178.584 88.961 179.844 88.961 181.636C88.961 183.414 87.575 184.674 85.727 184.674C83.893 184.674 82.493 183.414 82.493 181.636ZM83.683 181.636C83.683 182.798 84.565 183.61 85.727 183.61C86.889 183.61 87.785 182.798 87.785 181.636C87.785 180.446 86.889 179.634 85.727 179.634C84.565 179.634 83.683 180.446 83.683 181.636ZM84.411 189.784V185.808H85.615V188.804H92.713V189.784H84.411ZM104.62 180.572H106.622V177.744H107.84V185.01H106.622V183.96H104.606V182.98H106.622V181.552H104.62V180.572ZM97.7039 179.914V178.948H100.602V177.618H101.82V178.948H104.606V179.914H97.7039ZM98.3899 182.714C98.3899 181.37 99.5519 180.488 101.19 180.488C102.856 180.488 103.99 181.37 103.99 182.714C103.99 184.044 102.856 184.926 101.19 184.926C99.5519 184.926 98.3899 184.044 98.3899 182.714ZM99.5379 182.714C99.5379 183.498 100.196 184.03 101.19 184.03C102.184 184.03 102.856 183.498 102.856 182.714C102.856 181.916 102.184 181.398 101.19 181.398C100.196 181.398 99.5379 181.916 99.5379 182.714ZM99.8459 189.896V185.542H101.036V186.76H106.65V185.542H107.84V189.896H99.8459ZM101.036 188.944H106.65V187.698H101.036V188.944ZM110.402 178.472H115.736V182.014H111.648V183.82C113.846 183.82 115.008 183.764 116.408 183.512L116.534 184.492C115.022 184.758 113.79 184.8 111.326 184.8H110.444V181.076H114.546V179.466H110.402V178.472ZM111.816 186.942V185.962H120.09V190.078H118.872V186.942H111.816ZM116.534 183.092V182.112H118.872V180.544H116.534V179.55H118.872V177.744H120.09V185.318H118.872V183.092H116.534ZM125.537 178.304C127.175 178.304 128.421 179.228 128.673 180.642H131.109V177.744H132.327V184.338H131.109V181.636H128.673C128.449 183.064 127.189 184.03 125.537 184.03C123.689 184.03 122.345 182.854 122.345 181.16C122.345 179.466 123.689 178.304 125.537 178.304ZM123.507 181.16C123.507 182.252 124.347 183.008 125.537 183.008C126.713 183.008 127.553 182.252 127.553 181.16C127.553 180.054 126.713 179.312 125.537 179.312C124.347 179.312 123.507 180.054 123.507 181.16ZM124.403 189.896V184.954H125.607V186.438H131.123V184.954H132.327V189.896H124.403ZM125.607 188.916H131.123V187.404H125.607V188.916ZM139.425 182.574H141.245V178.01H142.379V189.434H141.245V183.568H139.425V182.574ZM134.287 186.648C135.967 185.654 136.863 183.526 136.863 181.524V180.978H134.637V179.984H136.863V178.164H138.025V179.984H140.237V180.978H138.025V181.524C138.025 183.47 138.963 185.472 140.629 186.382L139.943 187.292C138.753 186.634 137.913 185.43 137.465 184.002C137.031 185.528 136.191 186.858 134.987 187.572L134.287 186.648ZM143.709 190.05V177.73H144.871V190.05H143.709ZM150.38 178.248H151.584V179.984H154.916V178.248H156.106V183.624H150.38V178.248ZM151.584 182.644H154.916V180.922H151.584V182.644ZM151.598 185.612V184.66H159.466V187.698H152.83V188.958H159.9V189.924H151.626V186.788H158.276V185.612H151.598ZM158.248 184.072V177.744H159.466V180.362H161.244V181.356H159.466V184.072H158.248ZM163.54 178.234H171.842V179.032C171.842 179.83 171.842 180.866 171.604 182.154H173.27V183.134H168.272V184.632H171.884V187.684H164.66V188.958H172.192V189.924H163.456V186.816H170.68V185.612H163.414V184.632H167.068V183.134H162.112V182.154H170.4C170.652 180.908 170.666 179.998 170.666 179.214H163.54V178.234ZM178.233 178.528H183.987V183.582H178.233V178.528ZM179.059 189.084C181.243 188.846 183.077 187.712 183.133 186.55H179.549V185.612H183.147V184.45H184.379V185.612H187.963V186.55H184.379C184.435 187.684 186.241 188.832 188.397 189.084L187.991 190.022C186.101 189.77 184.491 188.93 183.749 187.81C183.007 188.944 181.369 189.77 179.465 190.022L179.059 189.084ZM179.395 182.616H182.825V179.494H179.395V182.616ZM186.479 184.8V177.744H187.697V184.8H186.479ZM198.554 185.514C201.186 185.514 202.866 186.368 202.866 187.782C202.866 189.196 201.186 190.05 198.554 190.05C195.936 190.05 194.27 189.196 194.27 187.782C194.27 186.368 195.936 185.514 198.554 185.514ZM193.052 184.436V183.456H197.56V181.118H198.764V183.456H204.154V184.436H193.052ZM194.354 179.34V178.36H202.754V179.396C202.754 180.39 202.754 181.398 202.418 182.658L201.242 182.532C201.564 181.272 201.564 180.362 201.564 179.396V179.34H194.354ZM195.46 187.782C195.46 188.608 196.664 189.112 198.554 189.112C200.458 189.112 201.648 188.608 201.648 187.782C201.648 186.942 200.458 186.438 198.554 186.438C196.664 186.438 195.46 186.942 195.46 187.782ZM211.84 180.908H214.206V177.744H215.424V185.066H214.206V181.902H211.84V180.908ZM205.302 184.016C207.15 183.344 208.368 181.692 208.368 179.942V179.606H205.652V178.612H212.246V179.606H209.586V179.942C209.586 181.524 210.734 183.05 212.554 183.68L211.924 184.632C210.552 184.142 209.53 183.134 208.998 181.888C208.48 183.302 207.374 184.436 205.918 184.982L205.302 184.016ZM207.234 187.754C207.234 186.298 208.788 185.43 211.35 185.43C213.898 185.43 215.466 186.298 215.466 187.754C215.466 189.21 213.898 190.05 211.35 190.05C208.788 190.05 207.234 189.21 207.234 187.754ZM208.438 187.754C208.438 188.608 209.53 189.112 211.35 189.112C213.17 189.112 214.262 188.608 214.262 187.754C214.262 186.886 213.17 186.382 211.35 186.382C209.53 186.382 208.438 186.886 208.438 187.754ZM225.869 177.744H227.087V181.748H228.893V182.756H227.087V186.984H225.869V177.744ZM217.539 180.18V179.2H220.577V177.744H221.781V179.2H224.819V180.18H217.539ZM218.225 183.134C218.225 181.748 219.429 180.824 221.179 180.824C222.929 180.824 224.133 181.748 224.133 183.134C224.133 184.534 222.929 185.444 221.179 185.444C219.429 185.444 218.225 184.534 218.225 183.134ZM219.373 183.134C219.373 183.974 220.101 184.492 221.179 184.492C222.243 184.492 222.971 183.974 222.971 183.134C222.971 182.294 222.243 181.776 221.179 181.776C220.101 181.776 219.373 182.294 219.373 183.134ZM219.387 189.784V186.242H220.591V188.804H227.633V189.784H219.387ZM241.891 177.744H243.095V190.064H241.891V183.652H239.091V182.644H241.891V177.744ZM232.931 186.802C236.207 185.192 237.691 182.91 237.915 180.04H233.477V179.046H239.133C239.133 182.588 237.719 185.696 233.603 187.74L232.931 186.802ZM245.588 179.06H250.194V183.442H246.778V186.13C248.122 186.116 249.396 186.06 250.908 185.808L251.02 186.802C249.326 187.096 247.954 187.138 246.428 187.138H245.616V182.462H249.032V180.04H245.588V179.06ZM251.72 189.42V178.01H252.868V182.574H254.506V177.73H255.668V190.05H254.506V183.568H252.868V189.42H251.72ZM269.577 177.73H270.795V190.05H269.577V177.73ZM260.799 186.816C264.075 185.248 265.685 182.938 265.923 180.04H261.373V179.046H267.155C267.155 182.644 265.601 185.766 261.443 187.782L260.799 186.816ZM281.757 177.744H282.961V190.064H281.757V177.744ZM272.965 186.732C273.987 186.732 275.149 186.732 276.353 186.69V185.402C274.911 185.22 273.987 184.38 273.987 183.162C273.987 181.776 275.177 180.88 276.955 180.88C278.719 180.88 279.937 181.776 279.937 183.162C279.937 184.38 278.999 185.22 277.571 185.402V186.648C278.733 186.592 279.895 186.494 280.987 186.354L281.071 187.25C278.341 187.726 275.373 187.754 273.133 187.754L272.965 186.732ZM273.217 180.194V179.228H276.353V177.744H277.571V179.228H280.693V180.194H273.217ZM275.135 183.162C275.135 183.988 275.877 184.506 276.955 184.506C278.047 184.506 278.775 183.988 278.775 183.162C278.775 182.336 278.047 181.804 276.955 181.804C275.877 181.804 275.135 182.336 275.135 183.162ZM297.668 177.73H298.83V190.05H297.668V177.73ZM288.204 186.718C289.912 185.668 290.836 183.428 290.836 181.188V180.152H288.54V179.144H294.154V180.152H292.012V181.188C292.012 183.316 292.894 185.444 294.588 186.438L293.86 187.32C292.684 186.606 291.872 185.318 291.438 183.792C291.004 185.444 290.164 186.844 288.946 187.614L288.204 186.718ZM293.23 183.134V182.14H295.204V178.01H296.338V189.434H295.204V183.134H293.23ZM306.124 185.514C308.756 185.514 310.436 186.368 310.436 187.782C310.436 189.196 308.756 190.05 306.124 190.05C303.506 190.05 301.84 189.196 301.84 187.782C301.84 186.368 303.506 185.514 306.124 185.514ZM300.622 184.436V183.456H305.13V181.118H306.334V183.456H311.724V184.436H300.622ZM301.924 179.34V178.36H310.324V179.396C310.324 180.39 310.324 181.398 309.988 182.658L308.812 182.532C309.134 181.272 309.134 180.362 309.134 179.396V179.34H301.924ZM303.03 187.782C303.03 188.608 304.234 189.112 306.124 189.112C308.028 189.112 309.218 188.608 309.218 187.782C309.218 186.942 308.028 186.438 306.124 186.438C304.234 186.438 303.03 186.942 303.03 187.782ZM32.9462 205.89C32.9462 205.47 33.0115 205.134 33.1422 204.882C33.2822 204.621 33.4688 204.434 33.7022 204.322C33.9448 204.21 34.2108 204.154 34.5002 204.154C34.7895 204.154 35.0508 204.21 35.2842 204.322C35.5175 204.434 35.7042 204.621 35.8442 204.882C35.9842 205.134 36.0542 205.47 36.0542 205.89C36.0542 206.301 35.9842 206.637 35.8442 206.898C35.7042 207.15 35.5175 207.337 35.2842 207.458C35.0508 207.57 34.7895 207.626 34.5002 207.626C34.2108 207.626 33.9448 207.57 33.7022 207.458C33.4688 207.337 33.2822 207.15 33.1422 206.898C33.0115 206.637 32.9462 206.301 32.9462 205.89ZM52.448 202.572H54.45V199.744H55.668V207.01H54.45V205.96H52.434V204.98H54.45V203.552H52.448V202.572ZM45.532 201.914V200.948H48.43V199.618H49.648V200.948H52.434V201.914H45.532ZM46.218 204.714C46.218 203.37 47.38 202.488 49.018 202.488C50.684 202.488 51.818 203.37 51.818 204.714C51.818 206.044 50.684 206.926 49.018 206.926C47.38 206.926 46.218 206.044 46.218 204.714ZM47.366 204.714C47.366 205.498 48.024 206.03 49.018 206.03C50.012 206.03 50.684 205.498 50.684 204.714C50.684 203.916 50.012 203.398 49.018 203.398C48.024 203.398 47.366 203.916 47.366 204.714ZM47.674 211.896V207.542H48.864V208.76H54.478V207.542H55.668V211.896H47.674ZM48.864 210.944H54.478V209.698H48.864V210.944ZM58.2303 200.472H63.5643V204.014H59.4763V205.82C61.6743 205.82 62.8363 205.764 64.2363 205.512L64.3623 206.492C62.8503 206.758 61.6183 206.8 59.1543 206.8H58.2723V203.076H62.3743V201.466H58.2303V200.472ZM59.6443 208.942V207.962H67.9183V212.078H66.7003V208.942H59.6443ZM64.3623 205.092V204.112H66.7003V202.544H64.3623V201.55H66.7003V199.744H67.9183V207.318H66.7003V205.092H64.3623ZM73.3647 200.304C75.0027 200.304 76.2487 201.228 76.5007 202.642H78.9367V199.744H80.1547V206.338H78.9367V203.636H76.5007C76.2767 205.064 75.0167 206.03 73.3647 206.03C71.5167 206.03 70.1727 204.854 70.1727 203.16C70.1727 201.466 71.5167 200.304 73.3647 200.304ZM71.3347 203.16C71.3347 204.252 72.1747 205.008 73.3647 205.008C74.5407 205.008 75.3807 204.252 75.3807 203.16C75.3807 202.054 74.5407 201.312 73.3647 201.312C72.1747 201.312 71.3347 202.054 71.3347 203.16ZM72.2307 211.896V206.954H73.4347V208.438H78.9507V206.954H80.1547V211.896H72.2307ZM73.4347 210.916H78.9507V209.404H73.4347V210.916ZM87.253 204.574H89.073V200.01H90.207V211.434H89.073V205.568H87.253V204.574ZM82.115 208.648C83.795 207.654 84.691 205.526 84.691 203.524V202.978H82.465V201.984H84.691V200.164H85.853V201.984H88.065V202.978H85.853V203.524C85.853 205.47 86.791 207.472 88.457 208.382L87.771 209.292C86.581 208.634 85.741 207.43 85.293 206.002C84.859 207.528 84.019 208.858 82.815 209.572L82.115 208.648ZM91.537 212.05V199.73H92.699V212.05H91.537ZM104.018 202.6H106.636V199.744H107.854V208.942H106.636V203.608H104.018V202.6ZM97.6899 206.254C99.5519 205.568 100.742 203.846 100.742 201.97V200.472H101.96V201.998C101.96 203.706 103.122 205.316 104.914 205.988L104.27 206.926C102.926 206.394 101.904 205.358 101.372 204.056C100.854 205.512 99.7759 206.646 98.3339 207.22L97.6899 206.254ZM99.9019 211.784V207.934H101.106V210.804H108.148V211.784H99.9019ZM116.506 202.908H118.872V199.744H120.09V207.066H118.872V203.902H116.506V202.908ZM109.968 206.016C111.816 205.344 113.034 203.692 113.034 201.942V201.606H110.318V200.612H116.912V201.606H114.252V201.942C114.252 203.524 115.4 205.05 117.22 205.68L116.59 206.632C115.218 206.142 114.196 205.134 113.664 203.888C113.146 205.302 112.04 206.436 110.584 206.982L109.968 206.016ZM111.9 209.754C111.9 208.298 113.454 207.43 116.016 207.43C118.564 207.43 120.132 208.298 120.132 209.754C120.132 211.21 118.564 212.05 116.016 212.05C113.454 212.05 111.9 211.21 111.9 209.754ZM113.104 209.754C113.104 210.608 114.196 211.112 116.016 211.112C117.836 211.112 118.928 210.608 118.928 209.754C118.928 208.886 117.836 208.382 116.016 208.382C114.196 208.382 113.104 208.886 113.104 209.754ZM122.597 205.26H128.575V206.422H122.597V205.26ZM134.741 206.226H136.897V204.126H134.951C134.363 206.212 133.047 208.032 130.723 209.418L130.023 208.536C132.627 206.982 133.915 204.84 134.125 202.278H130.583V201.284H135.315C135.315 201.914 135.273 202.544 135.161 203.146H136.897V200.052H138.045V211.434H136.897V207.206H134.741V206.226ZM139.389 212.05V199.73H140.537V212.05H139.389ZM150.66 199.744H151.878V201.578H153.642V202.6H151.878V204.21H153.642V205.218H151.878V207.052H150.66V199.744ZM142.512 203.398C142.512 201.662 143.87 200.472 145.746 200.472C147.608 200.472 148.98 201.662 148.98 203.398C148.98 205.12 147.608 206.324 145.746 206.324C143.87 206.324 142.512 205.12 142.512 203.398ZM143.702 203.398C143.702 204.546 144.57 205.302 145.746 205.302C146.922 205.302 147.804 204.546 147.804 203.398C147.804 202.264 146.922 201.494 145.746 201.494C144.57 201.494 143.702 202.264 143.702 203.398ZM143.856 208.592V207.612H151.878V212.064H150.66V208.592H143.856ZM154.958 205.26H160.936V206.422H154.958V205.26ZM168.993 202.908H171.359V199.744H172.577V207.066H171.359V203.902H168.993V202.908ZM162.455 206.016C164.303 205.344 165.521 203.692 165.521 201.942V201.606H162.805V200.612H169.399V201.606H166.739V201.942C166.739 203.524 167.887 205.05 169.707 205.68L169.077 206.632C167.705 206.142 166.683 205.134 166.151 203.888C165.633 205.302 164.527 206.436 163.071 206.982L162.455 206.016ZM164.387 209.754C164.387 208.298 165.941 207.43 168.503 207.43C171.051 207.43 172.619 208.298 172.619 209.754C172.619 211.21 171.051 212.05 168.503 212.05C165.941 212.05 164.387 211.21 164.387 209.754ZM165.591 209.754C165.591 210.608 166.683 211.112 168.503 211.112C170.323 211.112 171.415 210.608 171.415 209.754C171.415 208.886 170.323 208.382 168.503 208.382C166.683 208.382 165.591 208.886 165.591 209.754ZM177.659 200.472H178.863V201.998C178.863 203.678 180.039 205.246 181.873 205.89L181.257 206.842C179.885 206.352 178.835 205.33 178.303 204.056C177.771 205.484 176.707 206.59 175.251 207.136L174.593 206.184C176.511 205.498 177.659 203.846 177.659 201.97V200.472ZM176.567 211.784V207.948H177.785V210.804H184.771V211.784H176.567ZM183.021 208.816V199.73H184.239V203.482H186.045V204.49H184.239V208.816H183.021ZM198.498 199.73H199.716V203.356H201.522V204.35H199.716V208.648H198.498V199.73ZM190.7 206.506V200.78H196.146V201.774H191.904V205.498C194.298 205.498 195.67 205.414 197.238 205.092L197.378 206.072C195.698 206.408 194.27 206.506 191.666 206.506H190.7ZM192.016 211.784V207.752H193.22V210.804H200.248V211.784H192.016ZM207.038 206.226H209.194V204.126H207.248C206.66 206.212 205.344 208.032 203.02 209.418L202.32 208.536C204.924 206.982 206.212 204.84 206.422 202.278H202.88V201.284H207.612C207.612 201.914 207.57 202.544 207.458 203.146H209.194V200.052H210.342V211.434H209.194V207.206H207.038V206.226ZM211.686 212.05V199.73H212.834V212.05H211.686ZM223.544 199.744H224.748V206.142H223.544V204.644H220.786V205.68H215.2V200.304H216.404V202.012H219.596V200.304H220.786V201.466H223.544V199.744ZM216.404 204.7H219.596V202.95H216.404V204.7ZM216.782 207.696V206.73H224.748V209.698H218.014V210.93H225.182V211.896H216.824V208.788H223.558V207.696H216.782ZM220.786 203.706H223.544V202.404H220.786V203.706ZM235.577 207.514C238.209 207.514 239.889 208.368 239.889 209.782C239.889 211.196 238.209 212.05 235.577 212.05C232.959 212.05 231.293 211.196 231.293 209.782C231.293 208.368 232.959 207.514 235.577 207.514ZM230.075 206.436V205.456H234.583V203.118H235.787V205.456H241.177V206.436H230.075ZM231.377 201.34V200.36H239.777V201.396C239.777 202.39 239.777 203.398 239.441 204.658L238.265 204.532C238.587 203.272 238.587 202.362 238.587 201.396V201.34H231.377ZM232.483 209.782C232.483 210.608 233.687 211.112 235.577 211.112C237.481 211.112 238.671 210.608 238.671 209.782C238.671 208.942 237.481 208.438 235.577 208.438C233.687 208.438 232.483 208.942 232.483 209.782ZM248.864 202.908H251.23V199.744H252.448V207.066H251.23V203.902H248.864V202.908ZM242.326 206.016C244.174 205.344 245.392 203.692 245.392 201.942V201.606H242.676V200.612H249.27V201.606H246.61V201.942C246.61 203.524 247.758 205.05 249.578 205.68L248.948 206.632C247.576 206.142 246.554 205.134 246.022 203.888C245.504 205.302 244.398 206.436 242.942 206.982L242.326 206.016ZM244.258 209.754C244.258 208.298 245.812 207.43 248.374 207.43C250.922 207.43 252.49 208.298 252.49 209.754C252.49 211.21 250.922 212.05 248.374 212.05C245.812 212.05 244.258 211.21 244.258 209.754ZM245.462 209.754C245.462 210.608 246.554 211.112 248.374 211.112C250.194 211.112 251.286 210.608 251.286 209.754C251.286 208.886 250.194 208.382 248.374 208.382C246.554 208.382 245.462 208.886 245.462 209.754ZM263.452 199.744H264.656V212.064H263.452V205.652H260.652V204.644H263.452V199.744ZM254.492 208.802C257.768 207.192 259.252 204.91 259.476 202.04H255.038V201.046H260.694C260.694 204.588 259.28 207.696 255.164 209.74L254.492 208.802ZM267.148 201.06H271.754V205.442H268.338V208.13C269.682 208.116 270.956 208.06 272.468 207.808L272.58 208.802C270.886 209.096 269.514 209.138 267.988 209.138H267.176V204.462H270.592V202.04H267.148V201.06ZM273.28 211.42V200.01H274.428V204.574H276.066V199.73H277.228V212.05H276.066V205.568H274.428V211.42H273.28ZM282.219 207.178H293.377V208.186H288.407V212.078H287.189V208.186H282.219V207.178ZM283.717 205.974V200.304H292.005V201.284H284.893V202.614H291.739V203.58H284.893V204.994H292.145V205.974H283.717ZM303.402 199.744H304.62V207.01H303.402V205.134H300.672V206.17H295.03V200.654H300.672V201.704H303.402V199.744ZM296.22 205.204H299.482V201.634H296.22V205.204ZM296.43 209.712C296.43 208.228 297.998 207.374 300.546 207.374C303.094 207.374 304.676 208.228 304.676 209.712C304.676 211.196 303.094 212.036 300.546 212.036C297.998 212.036 296.43 211.196 296.43 209.712ZM297.633 209.712C297.633 210.58 298.726 211.098 300.546 211.098C302.38 211.098 303.458 210.58 303.458 209.712C303.458 208.83 302.38 208.326 300.546 208.326C298.726 208.326 297.633 208.83 297.633 209.712ZM300.672 204.154H303.402V202.684H300.672V204.154ZM48.598 222.43H49.802V223.62C49.802 225.356 50.95 226.896 52.77 227.512L52.112 228.464C50.782 227.96 49.774 226.994 49.242 225.748C48.71 227.176 47.618 228.282 46.134 228.828L45.504 227.848C47.408 227.176 48.598 225.538 48.598 223.662V222.43ZM47.478 231.712C47.478 230.228 49.046 229.374 51.608 229.374C54.156 229.374 55.724 230.228 55.724 231.712C55.724 233.196 54.156 234.036 51.608 234.036C49.046 234.036 47.478 233.196 47.478 231.712ZM48.696 231.712C48.696 232.58 49.774 233.084 51.608 233.084C53.428 233.084 54.52 232.58 54.52 231.712C54.52 230.83 53.428 230.326 51.608 230.326C49.774 230.326 48.696 230.83 48.696 231.712ZM51.832 225.3V224.292H54.45V221.744H55.668V229.01H54.45V225.3H51.832ZM60.9949 228.73H72.1529V229.738H69.2829V234.05H68.0509V229.738H65.0549V234.05H63.8089V229.738H60.9949V228.73ZM62.2129 224.922C62.2129 223.256 63.9629 222.234 66.5389 222.234C69.1289 222.234 70.8649 223.256 70.8649 224.922C70.8649 226.574 69.1289 227.61 66.5389 227.61C63.9629 227.61 62.2129 226.574 62.2129 224.922ZM63.4589 224.922C63.4589 225.986 64.6909 226.63 66.5389 226.63C68.3869 226.63 69.6329 225.986 69.6329 224.922C69.6329 223.872 68.3869 223.2 66.5389 223.2C64.6909 223.2 63.4589 223.872 63.4589 224.922ZM73.6092 222.99H80.4972V223.998H77.6552V225.44C77.6552 227.526 79.0832 229.64 80.9172 230.424L80.2312 231.39C78.8172 230.732 77.6412 229.36 77.0672 227.694C76.4932 229.472 75.3312 230.998 73.9032 231.698L73.2032 230.732C75.0092 229.878 76.4372 227.568 76.4372 225.44V223.998H73.6092V222.99ZM82.0932 234.064V221.744H83.3112V234.064H82.0932Z" fill="#3F3F46"/>
<rect y="279" width="339" height="152" rx="8" fill="#F6F6F7"/>
<path d="M27.808 309.808H29.552V311.296C29.552 313.104 30.688 314.8 32.848 315.504L31.936 316.864C30.416 316.336 29.312 315.296 28.704 313.968C28.096 315.488 26.96 316.672 25.312 317.28L24.368 315.888C26.672 315.088 27.808 313.168 27.808 311.152V309.808ZM26.32 320.592C26.32 318.896 28.144 317.904 31.088 317.904C34.032 317.904 35.84 318.896 35.84 320.592C35.84 322.288 34.032 323.28 31.088 323.28C28.144 323.28 26.32 322.288 26.32 320.592ZM28.048 320.592C28.048 321.456 29.152 321.92 31.088 321.92C33.008 321.92 34.112 321.456 34.112 320.592C34.112 319.728 33.008 319.264 31.088 319.264C29.152 319.264 28.048 319.728 28.048 320.592ZM33.92 317.552V309.056H35.68V312.496H37.664V313.952H35.68V317.552H33.92ZM41.2324 309.904H42.9284V311.648C42.9284 313.216 43.8084 314.768 45.6644 315.504L44.7364 316.832C43.4884 316.336 42.6084 315.44 42.1124 314.32C41.5844 315.6 40.6724 316.688 39.3124 317.264L38.3844 315.904C40.3204 315.056 41.2324 313.264 41.2324 311.648V309.904ZM40.9764 320.656C40.9764 319.024 42.8484 318.032 45.8084 318.032C48.7844 318.032 50.6564 319.024 50.6564 320.656C50.6564 322.304 48.7844 323.28 45.8084 323.28C42.8484 323.28 40.9764 322.304 40.9764 320.656ZM42.7204 320.656C42.7204 321.488 43.8564 321.952 45.8084 321.952C47.7764 321.952 48.8964 321.488 48.8964 320.656C48.8964 319.824 47.7764 319.376 45.8084 319.376C43.8564 319.376 42.7204 319.824 42.7204 320.656ZM45.8884 317.344V309.328H47.5364V312.656H48.9124V309.056H50.5924V317.792H48.9124V314.08H47.5364V317.344H45.8884ZM64.2163 312.192H66.2483V309.056H68.0083V317.488H66.2483V316.384H64.1843V314.992H66.2483V313.584H64.2163V312.192ZM56.2163 311.728V310.336H59.3523V308.912H61.1283V310.336H64.1042V311.728H56.2163ZM56.9363 314.832C56.9363 313.296 58.2963 312.256 60.2163 312.256C62.1683 312.256 63.5123 313.296 63.5123 314.832C63.5123 316.368 62.1683 317.408 60.2163 317.408C58.2963 317.408 56.9363 316.368 56.9363 314.832ZM58.5843 314.832C58.5843 315.632 59.2403 316.128 60.2163 316.128C61.2083 316.128 61.8803 315.632 61.8803 314.832C61.8803 314.032 61.2083 313.552 60.2163 313.552C59.2403 313.552 58.5843 314.032 58.5843 314.832ZM58.6163 323.12V318.064H60.3443V319.264H66.2803V318.064H68.0083V323.12H58.6163ZM60.3443 321.76H66.2803V320.592H60.3443V321.76ZM70.6966 309.872H76.9206V314.192H72.4886V315.936C74.7606 315.92 76.0246 315.856 77.5446 315.6L77.7206 316.992C76.0246 317.296 74.5686 317.344 71.7846 317.344H70.7286V312.864H75.1926V311.296H70.6966V309.872ZM72.3446 319.92V318.512H82.0086V323.312H80.2486V319.92H72.3446ZM77.7846 315.472V314.08H80.2486V312.496H77.7846V311.072H80.2486V309.056H82.0086V317.824H80.2486V315.472H77.7846ZM93.6325 314.528H95.4725V309.312H97.1045V322.608H95.4725V315.952H93.6325V314.528ZM87.6325 319.2C89.6165 318.032 90.4805 315.632 90.4805 313.392V312.96H88.1125V311.536H90.4805V309.52H92.1605V311.536H94.5125V312.96H92.1605V313.392C92.1605 315.584 93.0565 317.824 95.0245 318.88L94.0485 320.192C92.7525 319.488 91.8565 318.256 91.3445 316.752C90.8485 318.368 89.9525 319.76 88.6245 320.528L87.6325 319.2ZM98.3365 323.28V309.04H100.017V323.28H98.3365ZM107.233 316.448H109.441V314.288H107.505C106.833 316.672 105.361 318.704 102.689 320.288L101.697 319.04C104.593 317.296 105.937 315.072 106.193 312.192H102.433V310.768H107.937C107.937 311.504 107.889 312.208 107.793 312.896H109.441V309.376H111.089V322.608H109.441V317.856H107.233V316.448ZM112.353 323.28V309.04H114.017V323.28H112.353ZM128.889 309.04H130.649V312.512H132.633V313.968H130.649V317.392H128.889V309.04ZM119.449 316.208C122.681 315.312 124.553 313.568 124.841 311.44H120.105V310.016H126.761C126.761 313.776 124.329 316.432 120.169 317.616L119.449 316.208ZM121.369 320.432C121.369 318.672 123.241 317.584 126.105 317.584C128.953 317.584 130.809 318.672 130.809 320.432C130.809 322.192 128.953 323.28 126.105 323.28C123.241 323.28 121.369 322.192 121.369 320.432ZM123.113 320.432C123.113 321.376 124.249 321.92 126.105 321.92C127.961 321.92 129.097 321.376 129.097 320.432C129.097 319.472 127.961 318.944 126.105 318.944C124.249 318.944 123.113 319.472 123.113 320.432ZM142.921 309.056H144.681V314.928H146.633V316.4H144.681V323.296H142.921V309.056ZM133.337 319.344C134.409 319.344 135.641 319.344 136.937 319.312V317.968C135.401 317.712 134.393 316.752 134.393 315.392C134.393 313.792 135.801 312.736 137.817 312.736C139.833 312.736 141.257 313.792 141.257 315.392C141.257 316.752 140.233 317.712 138.697 317.968V319.232C139.865 319.184 141.033 319.072 142.137 318.928L142.281 320.192C139.257 320.784 135.993 320.784 133.577 320.784L133.337 319.344ZM133.593 312.064V310.672H136.937V309.104H138.697V310.672H142.025V312.064H133.593ZM136.057 315.392C136.057 316.224 136.761 316.72 137.817 316.72C138.889 316.72 139.593 316.224 139.593 315.392C139.593 314.56 138.889 314.064 137.817 314.064C136.761 314.064 136.057 314.56 136.057 315.392Z" fill="#6D0CA6"/>
<path d="M32.9462 351.89C32.9462 351.47 33.0115 351.134 33.1422 350.882C33.2822 350.621 33.4688 350.434 33.7022 350.322C33.9448 350.21 34.2108 350.154 34.5002 350.154C34.7895 350.154 35.0508 350.21 35.2842 350.322C35.5175 350.434 35.7042 350.621 35.8442 350.882C35.9842 351.134 36.0542 351.47 36.0542 351.89C36.0542 352.301 35.9842 352.637 35.8442 352.898C35.7042 353.15 35.5175 353.337 35.2842 353.458C35.0508 353.57 34.7895 353.626 34.5002 353.626C34.2108 353.626 33.9448 353.57 33.7022 353.458C33.4688 353.337 33.2822 353.15 33.1422 352.898C33.0115 352.637 32.9462 352.301 32.9462 351.89ZM45.532 352.73H56.676V353.724H51.678V358.064H50.474V353.724H45.532V352.73ZM46.176 350.77C48.416 350.462 50.418 349.048 50.418 347.48V347.466H46.568V346.486H55.598V347.466H51.776V347.48C51.776 349.048 53.792 350.462 56.032 350.77L55.57 351.75C53.624 351.428 51.846 350.406 51.104 348.964C50.348 350.406 48.584 351.428 46.638 351.75L46.176 350.77ZM57.7683 355.488H60.4703V352.212C59.4483 351.652 58.8323 350.784 58.8323 349.664C58.8323 347.732 60.7223 346.486 63.3263 346.486C65.9583 346.486 67.8203 347.732 67.8203 349.664C67.8203 350.77 67.2183 351.638 66.2243 352.184V355.488H68.9263V356.482H57.7683V355.488ZM60.0223 349.664C60.0223 351.022 61.3943 351.89 63.3263 351.89C65.2723 351.89 66.6443 351.022 66.6443 349.664C66.6443 348.32 65.2723 347.438 63.3263 347.438C61.3943 347.438 60.0223 348.32 60.0223 349.664ZM61.6743 355.488H65.0063V352.646C64.5023 352.772 63.9283 352.842 63.3263 352.842C62.7383 352.842 62.1783 352.772 61.6743 352.66V355.488ZM80.1472 348.572H82.1492V345.744H83.3672V353.01H82.1492V351.96H80.1332V350.98H82.1492V349.552H80.1472V348.572ZM73.2312 347.914V346.948H76.1292V345.618H77.3472V346.948H80.1332V347.914H73.2312ZM73.9172 350.714C73.9172 349.37 75.0792 348.488 76.7172 348.488C78.3832 348.488 79.5172 349.37 79.5172 350.714C79.5172 352.044 78.3832 352.926 76.7172 352.926C75.0792 352.926 73.9172 352.044 73.9172 350.714ZM75.0652 350.714C75.0652 351.498 75.7232 352.03 76.7172 352.03C77.7112 352.03 78.3832 351.498 78.3832 350.714C78.3832 349.916 77.7112 349.398 76.7172 349.398C75.7232 349.398 75.0652 349.916 75.0652 350.714ZM75.3732 357.896V353.542H76.5632V354.76H82.1772V353.542H83.3672V357.896H75.3732ZM76.5632 356.944H82.1772V355.698H76.5632V356.944ZM85.9295 346.472H91.2635V350.014H87.1755V351.82C89.3735 351.82 90.5355 351.764 91.9355 351.512L92.0615 352.492C90.5495 352.758 89.3175 352.8 86.8535 352.8H85.9715V349.076H90.0735V347.466H85.9295V346.472ZM87.3435 354.942V353.962H95.6175V358.078H94.3995V354.942H87.3435ZM92.0615 351.092V350.112H94.3995V348.544H92.0615V347.55H94.3995V345.744H95.6175V353.318H94.3995V351.092H92.0615ZM101.064 346.304C102.702 346.304 103.948 347.228 104.2 348.642H106.636V345.744H107.854V352.338H106.636V349.636H104.2C103.976 351.064 102.716 352.03 101.064 352.03C99.2159 352.03 97.8719 350.854 97.8719 349.16C97.8719 347.466 99.2159 346.304 101.064 346.304ZM99.0339 349.16C99.0339 350.252 99.8739 351.008 101.064 351.008C102.24 351.008 103.08 350.252 103.08 349.16C103.08 348.054 102.24 347.312 101.064 347.312C99.8739 347.312 99.0339 348.054 99.0339 349.16ZM99.9299 357.896V352.954H101.134V354.438H106.65V352.954H107.854V357.896H99.9299ZM101.134 356.916H106.65V355.404H101.134V356.916ZM114.952 350.574H116.772V346.01H117.906V357.434H116.772V351.568H114.952V350.574ZM109.814 354.648C111.494 353.654 112.39 351.526 112.39 349.524V348.978H110.164V347.984H112.39V346.164H113.552V347.984H115.764V348.978H113.552V349.524C113.552 351.47 114.49 353.472 116.156 354.382L115.47 355.292C114.28 354.634 113.44 353.43 112.992 352.002C112.558 353.528 111.718 354.858 110.514 355.572L109.814 354.648ZM119.236 358.05V345.73H120.398V358.05H119.236ZM125.403 355.46H130.331V352.506H131.535V355.46H136.561V356.468H125.403V355.46ZM125.823 351.68C128.077 351.288 130.303 349.468 130.303 347.48V346.528H131.563V347.48C131.563 349.468 133.817 351.288 136.057 351.68L135.525 352.702C133.607 352.296 131.745 351.036 130.933 349.328C130.121 351.036 128.259 352.296 126.327 352.702L125.823 351.68ZM137.639 352.24H142.581V351.092H139.095V346.094H147.411V347.046H140.299V348.096H147.089V349.02H140.299V350.154H147.481V351.092H143.799V352.24H148.755V353.22H137.639V352.24ZM138.969 356.062C138.969 354.76 140.495 354.102 143.197 354.102C145.871 354.102 147.425 354.76 147.425 356.062C147.425 357.35 145.871 358.036 143.197 358.036C140.495 358.036 138.969 357.35 138.969 356.062ZM140.187 356.062C140.187 356.776 141.251 357.126 143.197 357.126C145.129 357.126 146.207 356.776 146.207 356.062C146.207 355.376 145.129 354.998 143.197 354.998C141.251 354.998 140.187 355.376 140.187 356.062ZM153.298 348.012H155.552V346.164H156.714V348.012H158.982V349.006H156.714V349.51C156.714 351.456 157.666 353.444 159.332 354.34L158.632 355.264C157.442 354.606 156.602 353.388 156.154 351.96C155.72 353.486 154.88 354.816 153.676 355.53L152.962 354.62C154.642 353.626 155.552 351.512 155.552 349.51V349.006H153.298V348.012ZM159.78 357.434V345.996H160.914V350.672H162.454V345.73H163.616V358.05H162.454V351.68H160.914V357.434H159.78ZM166.039 346.304H167.257V350.588C169.077 350.574 170.687 350.462 172.465 350.126L172.619 351.12C170.701 351.498 168.993 351.596 167.019 351.596H166.039V346.304ZM167.537 353.612V352.646H175.503V355.656H168.769V356.916H175.923V357.896H167.565V354.746H174.285V353.612H167.537ZM170.855 348.726V347.732H174.285V345.73H175.503V352.072H174.285V348.726H170.855ZM182.188 346.528H190.504V347.606C190.504 348.768 190.504 350.042 190.154 351.82H191.946V352.828H186.962V358.078H185.73V352.828H180.802V351.82H188.922C189.3 350.07 189.3 348.754 189.3 347.606V347.508H182.188V346.528ZM193.038 351.918H204.168V352.898H199.212V354.242H202.796V358.022H201.592V355.222H194.27V354.242H197.994V352.898H193.038V351.918ZM193.682 350.336C196.062 350.126 197.826 349.174 197.938 347.886H194.172V346.934H197.994V345.688H199.212V346.934H203.048V347.886H199.268C199.38 349.174 201.144 350.126 203.524 350.336L203.146 351.26C201.088 351.064 199.352 350.336 198.596 349.146C197.854 350.336 196.104 351.064 194.046 351.26L193.682 350.336ZM209.159 346.528H214.913V351.582H209.159V346.528ZM209.985 357.084C212.169 356.846 214.003 355.712 214.059 354.55H210.475V353.612H214.073V352.45H215.305V353.612H218.889V354.55H215.305C215.361 355.684 217.167 356.832 219.323 357.084L218.917 358.022C217.027 357.77 215.417 356.93 214.675 355.81C213.933 356.944 212.295 357.77 210.391 358.022L209.985 357.084ZM210.321 350.616H213.751V347.494H210.321V350.616ZM217.405 352.8V345.744H218.623V352.8H217.405ZM233.162 346.85L229.522 357.042H228.22L224.384 346.85H225.63L228.864 355.418L231.916 346.85H233.162ZM238.696 356.118C240.978 356.118 242.546 354.41 242.546 351.946C242.546 349.482 240.978 347.774 238.696 347.774C236.428 347.774 234.86 349.482 234.86 351.946C234.86 354.41 236.428 356.118 238.696 356.118ZM233.67 351.946C233.67 348.894 235.756 346.738 238.696 346.738C241.65 346.738 243.736 348.894 243.736 351.946C243.736 354.998 241.65 357.154 238.696 357.154C235.756 357.154 233.67 354.998 233.67 351.946ZM250.139 357.154C247.185 357.154 245.113 354.998 245.113 351.946C245.113 348.88 247.185 346.738 250.139 346.738C251.539 346.738 252.785 347.34 253.695 348.264L252.911 348.964C252.225 348.222 251.203 347.774 250.139 347.774C247.871 347.774 246.303 349.482 246.303 351.946C246.303 354.41 247.871 356.118 250.139 356.118C251.231 356.118 252.197 355.656 252.869 354.942L253.695 355.628C252.785 356.552 251.553 357.154 250.139 357.154ZM258.452 347.186H261.168V345.688H262.358V347.186H265.032V348.166H262.358V348.348C262.358 349.86 263.576 351.218 265.424 351.75L264.864 352.688C263.436 352.268 262.344 351.372 261.784 350.21C261.252 351.512 260.16 352.534 258.718 353.01L258.13 352.058C259.978 351.47 261.168 349.986 261.168 348.348V348.166H258.452V347.186ZM260.09 355.768C260.09 354.326 261.644 353.5 264.206 353.5C266.754 353.5 268.322 354.326 268.322 355.768C268.322 357.196 266.754 358.036 264.206 358.036C261.644 358.036 260.09 357.196 260.09 355.768ZM261.294 355.768C261.294 356.608 262.386 357.098 264.206 357.098C266.026 357.098 267.118 356.608 267.118 355.768C267.118 354.942 266.026 354.452 264.206 354.452C262.386 354.452 261.294 354.942 261.294 355.768ZM264.682 350.21V349.216H267.062V345.744H268.28V353.192H267.062V350.21H264.682ZM271.15 347.102H273.81V345.758H275.014V347.102H277.688V348.068H275.014V348.082C275.014 349.286 276.176 350.322 277.912 350.714L277.422 351.652C276.036 351.316 274.972 350.602 274.44 349.636C273.908 350.686 272.83 351.484 271.388 351.834L270.884 350.882C272.676 350.476 273.824 349.356 273.824 348.082V348.068H271.15V347.102ZM270.338 352.632C272.648 352.632 275.742 352.618 278.416 352.254L278.5 353.15C277.366 353.346 276.19 353.458 275.042 353.528V357.7H273.824V353.598C272.634 353.64 271.486 353.654 270.492 353.654L270.338 352.632ZM279.27 358.064V345.73H280.474V358.064H279.27ZM32.9462 373.89C32.9462 373.47 33.0115 373.134 33.1422 372.882C33.2822 372.621 33.4688 372.434 33.7022 372.322C33.9448 372.21 34.2108 372.154 34.5002 372.154C34.7895 372.154 35.0508 372.21 35.2842 372.322C35.5175 372.434 35.7042 372.621 35.8442 372.882C35.9842 373.134 36.0542 373.47 36.0542 373.89C36.0542 374.301 35.9842 374.637 35.8442 374.898C35.7042 375.15 35.5175 375.337 35.2842 375.458C35.0508 375.57 34.7895 375.626 34.5002 375.626C34.2108 375.626 33.9448 375.57 33.7022 375.458C33.4688 375.337 33.2822 375.15 33.1422 374.898C33.0115 374.637 32.9462 374.301 32.9462 373.89ZM48.5 368.374H49.69V369.704C49.69 371.356 50.866 372.882 52.658 373.498L52.028 374.436C50.684 373.946 49.648 372.952 49.116 371.692C48.598 373.12 47.548 374.226 46.106 374.786L45.448 373.82C47.352 373.134 48.5 371.468 48.5 369.62V368.374ZM47.114 377.782C47.114 376.354 48.654 375.514 51.174 375.514C53.708 375.514 55.234 376.354 55.234 377.782C55.234 379.21 53.708 380.036 51.174 380.036C48.654 380.036 47.114 379.21 47.114 377.782ZM48.304 377.782C48.304 378.608 49.382 379.084 51.174 379.084C52.966 379.084 54.044 378.608 54.044 377.782C54.044 376.942 52.966 376.466 51.174 376.466C49.382 376.466 48.304 376.942 48.304 377.782ZM53.89 375.192V367.744H55.108V370.88H56.914V371.888H55.108V375.192H53.89ZM60.2883 368.486H61.4503V370.11C61.4503 371.482 62.3463 372.854 63.9143 373.47L63.2843 374.394C62.1363 373.946 61.3243 373.092 60.8763 372.042C60.4423 373.204 59.5883 374.226 58.3843 374.744L57.7403 373.806C59.3643 373.092 60.2883 371.51 60.2883 370.11V368.486ZM59.9523 377.81C59.9523 376.424 61.5343 375.598 64.0823 375.598C66.6303 375.598 68.2123 376.424 68.2123 377.81C68.2123 379.224 66.6303 380.036 64.0823 380.036C61.5343 380.036 59.9523 379.224 59.9523 377.81ZM61.1563 377.81C61.1563 378.622 62.2623 379.112 64.0823 379.112C65.9023 379.112 66.9943 378.622 66.9943 377.81C66.9943 376.998 65.9023 376.536 64.0823 376.536C62.2623 376.536 61.1563 376.998 61.1563 377.81ZM64.3623 374.94V367.982H65.4963V371.006H66.9943V367.744H68.1563V375.332H66.9943V372H65.4963V374.94H64.3623ZM73.7772 369.06H80.0072V369.774C80.0072 370.81 80.0072 372.392 79.6572 374.646L78.4672 374.548C78.8032 372.546 78.8312 371.076 78.8312 370.054H73.7772V369.06ZM73.1052 376.382C73.8752 376.382 74.7432 376.368 75.6532 376.354V372.588H76.8572V376.312C78.1872 376.27 79.5312 376.186 80.7632 376.032L80.8332 376.928C78.2852 377.334 75.4292 377.39 73.2592 377.39L73.1052 376.382ZM81.4912 380.05V367.73H82.6952V372.868H84.6272V373.876H82.6952V380.05H81.4912ZM94.7635 367.73H95.9255V380.05H94.7635V367.73ZM85.2995 376.718C87.0075 375.668 87.9315 373.428 87.9315 371.188V370.152H85.6355V369.144H91.2495V370.152H89.1075V371.188C89.1075 373.316 89.9895 375.444 91.6835 376.438L90.9555 377.32C89.7795 376.606 88.9675 375.318 88.5335 373.792C88.0995 375.444 87.2595 376.844 86.0415 377.614L85.2995 376.718ZM90.3255 373.134V372.14H92.2995V368.01H93.4335V379.434H92.2995V373.134H90.3255ZM101.434 368.248H102.638V369.984H105.97V368.248H107.16V373.624H101.434V368.248ZM102.638 372.644H105.97V370.922H102.638V372.644ZM102.652 375.612V374.66H110.52V377.698H103.884V378.958H110.954V379.924H102.68V376.788H109.33V375.612H102.652ZM109.302 374.072V367.744H110.52V370.362H112.298V371.356H110.52V374.072H109.302ZM114.595 368.234H122.897V369.032C122.897 369.83 122.897 370.866 122.659 372.154H124.325V373.134H119.327V374.632H122.939V377.684H115.715V378.958H123.247V379.924H114.511V376.816H121.735V375.612H114.469V374.632H118.123V373.134H113.167V372.154H121.455C121.707 370.908 121.721 369.998 121.721 369.214H114.595V368.234ZM32.9462 395.89C32.9462 395.47 33.0115 395.134 33.1422 394.882C33.2822 394.621 33.4688 394.434 33.7022 394.322C33.9448 394.21 34.2108 394.154 34.5002 394.154C34.7895 394.154 35.0508 394.21 35.2842 394.322C35.5175 394.434 35.7042 394.621 35.8442 394.882C35.9842 395.134 36.0542 395.47 36.0542 395.89C36.0542 396.301 35.9842 396.637 35.8442 396.898C35.7042 397.15 35.5175 397.337 35.2842 397.458C35.0508 397.57 34.7895 397.626 34.5002 397.626C34.2108 397.626 33.9448 397.57 33.7022 397.458C33.4688 397.337 33.2822 397.15 33.1422 396.898C33.0115 396.637 32.9462 396.301 32.9462 395.89ZM52.434 390.85V391.886H47.212V395.274H51.72V396.31H47.212V400.006H52.434V401.042H46.036V390.85H52.434ZM55.2078 398.298C55.7398 399.362 56.6358 400.118 57.6858 400.118C59.0578 400.146 59.9118 399.446 59.9118 398.354C59.9118 395.75 54.6758 396.842 54.6758 393.3C54.6758 391.662 56.0478 390.724 57.8678 390.738C59.2678 390.766 60.4018 391.508 60.8918 392.992L59.8418 393.356C59.5338 392.362 58.7778 391.788 57.8538 391.774C56.6778 391.76 55.8378 392.32 55.8378 393.3C55.8378 395.876 61.0738 394.826 61.0738 398.368C61.0738 400.048 59.7578 401.182 57.6718 401.154C56.1878 401.126 55.0538 400.3 54.2138 398.83L55.2078 398.298ZM72.3403 395.736C72.3403 396.086 72.3263 396.534 72.3263 396.576C72.3263 399.474 70.2823 401.098 67.5383 401.154C64.5983 401.154 62.5123 398.998 62.5123 395.946C62.5123 392.894 64.5983 390.752 67.5383 390.752C70.7163 390.752 71.8083 393.216 71.8083 393.216L70.7863 393.706C70.7863 393.706 69.9603 391.788 67.5383 391.788C65.2703 391.788 63.6883 393.496 63.6883 395.946C63.6883 398.41 65.2703 400.118 67.5383 400.118C69.6382 400.048 71.1923 398.97 71.2063 396.744H67.7203V395.736H72.3403ZM78.3616 390.262L75.4216 401.714H74.2456L77.1996 390.262H78.3616ZM81.4031 398.298C81.9351 399.362 82.8311 400.118 83.8811 400.118C85.2531 400.146 86.1071 399.446 86.1071 398.354C86.1071 395.75 80.8711 396.842 80.8711 393.3C80.8711 391.662 82.2431 390.724 84.0631 390.738C85.4631 390.766 86.5971 391.508 87.0871 392.992L86.0371 393.356C85.7291 392.362 84.9731 391.788 84.0491 391.774C82.8731 391.76 82.0331 392.32 82.0331 393.3C82.0331 395.876 87.2691 394.826 87.2691 398.368C87.2691 400.048 85.9531 401.182 83.8671 401.154C82.3831 401.126 81.2491 400.3 80.4091 398.83L81.4031 398.298ZM93.0448 395.918C94.2488 395.918 95.0888 395.092 95.0888 393.888C95.0888 392.684 94.2488 391.886 93.0448 391.886H90.6788V395.918H93.0448ZM89.5028 401.042V390.85H93.0868C94.9488 390.85 96.2508 392.11 96.2508 393.902C96.2648 395.288 95.3548 396.464 93.8708 396.842L96.7268 401.042H95.3268L92.5408 396.954H90.6788V401.042H89.5028ZM103.304 399.04L100.126 393.16V401.042H98.9498V390.85H100.168L103.864 397.612L107.56 390.85H108.778V401.042H107.616V393.16L104.41 399.04H103.304ZM112.578 391.195V392.447L113.754 392.077L113.956 392.699L112.788 393.068L113.536 394.102L113.015 394.513L112.25 393.463L111.494 394.513L110.982 394.102L111.73 393.068L110.554 392.699L110.755 392.077L111.923 392.447V391.195H112.578ZM122.289 391.914H124.221V389.744H125.439V397.332H124.221V395.12H122.289V394.112H124.221V392.88H122.289V391.914ZM115.317 395.624C115.779 395.624 116.297 395.624 116.829 395.61V391.648H115.653V390.64H122.135V391.648H120.945V395.47C121.477 395.428 121.995 395.372 122.485 395.316L122.555 396.226C120.189 396.604 117.431 396.632 115.443 396.632L115.317 395.624ZM117.263 399.796C117.263 398.382 118.803 397.57 121.379 397.57C123.941 397.57 125.495 398.382 125.495 399.796C125.495 401.21 123.941 402.036 121.379 402.036C118.803 402.036 117.263 401.21 117.263 399.796ZM118.019 395.596C118.593 395.582 119.181 395.568 119.769 395.54V391.648H118.019V395.596ZM118.453 399.796C118.453 400.622 119.531 401.112 121.379 401.112C123.213 401.112 124.291 400.622 124.291 399.796C124.291 398.998 123.213 398.522 121.379 398.522C119.531 398.522 118.453 398.998 118.453 399.796ZM135.813 389.716H137.045V394.686H138.963V395.708H137.045V402.05H135.813V389.716ZM127.581 398.816C130.689 397.248 132.355 394.938 132.621 392.04H128.183V391.046H133.853C133.853 394.574 132.271 397.738 128.267 399.74L127.581 398.816ZM143.002 396.772H154.16V397.766H149.148V402.064H147.944V397.766H143.002V396.772ZM144.22 392.936C144.22 391.27 145.97 390.234 148.546 390.234C151.136 390.234 152.872 391.27 152.872 392.936C152.872 394.588 151.136 395.638 148.546 395.638C145.97 395.638 144.22 394.588 144.22 392.936ZM145.466 392.936C145.466 394 146.698 394.672 148.546 394.672C150.394 394.672 151.64 394 151.64 392.936C151.64 391.886 150.394 391.2 148.546 391.2C146.698 391.2 145.466 391.886 145.466 392.936ZM160.18 390.164H161.454V390.85C161.454 392.516 163.54 394.056 165.85 394.392L165.36 395.358C163.414 395.036 161.622 393.986 160.824 392.516C160.04 394 158.248 395.036 156.274 395.358L155.784 394.392C158.108 394.056 160.18 392.558 160.18 390.85V390.164ZM155.238 397.64V396.646H166.382V397.64H161.384V402.064H160.18V397.64H155.238ZM177.617 392.572H179.619V389.744H180.837V397.01H179.619V395.96H177.603V394.98H179.619V393.552H177.617V392.572ZM170.701 391.914V390.948H173.599V389.618H174.817V390.948H177.603V391.914H170.701ZM171.387 394.714C171.387 393.37 172.549 392.488 174.187 392.488C175.853 392.488 176.987 393.37 176.987 394.714C176.987 396.044 175.853 396.926 174.187 396.926C172.549 396.926 171.387 396.044 171.387 394.714ZM172.535 394.714C172.535 395.498 173.193 396.03 174.187 396.03C175.181 396.03 175.853 395.498 175.853 394.714C175.853 393.916 175.181 393.398 174.187 393.398C173.193 393.398 172.535 393.916 172.535 394.714ZM172.843 401.896V397.542H174.033V398.76H179.647V397.542H180.837V401.896H172.843ZM174.033 400.944H179.647V399.698H174.033V400.944ZM183.4 390.472H188.734V394.014H184.646V395.82C186.844 395.82 188.006 395.764 189.406 395.512L189.532 396.492C188.02 396.758 186.788 396.8 184.324 396.8H183.442V393.076H187.544V391.466H183.4V390.472ZM184.814 398.942V397.962H193.088V402.078H191.87V398.942H184.814ZM189.532 395.092V394.112H191.87V392.544H189.532V391.55H191.87V389.744H193.088V397.318H191.87V395.092H189.532ZM198.534 390.304C200.172 390.304 201.418 391.228 201.67 392.642H204.106V389.744H205.324V396.338H204.106V393.636H201.67C201.446 395.064 200.186 396.03 198.534 396.03C196.686 396.03 195.342 394.854 195.342 393.16C195.342 391.466 196.686 390.304 198.534 390.304ZM196.504 393.16C196.504 394.252 197.344 395.008 198.534 395.008C199.71 395.008 200.55 394.252 200.55 393.16C200.55 392.054 199.71 391.312 198.534 391.312C197.344 391.312 196.504 392.054 196.504 393.16ZM197.4 401.896V396.954H198.604V398.438H204.12V396.954H205.324V401.896H197.4ZM198.604 400.916H204.12V399.404H198.604V400.916ZM212.422 394.574H214.242V390.01H215.376V401.434H214.242V395.568H212.422V394.574ZM207.284 398.648C208.964 397.654 209.86 395.526 209.86 393.524V392.978H207.634V391.984H209.86V390.164H211.022V391.984H213.234V392.978H211.022V393.524C211.022 395.47 211.96 397.472 213.626 398.382L212.94 399.292C211.75 398.634 210.91 397.43 210.462 396.002C210.028 397.528 209.188 398.858 207.984 399.572L207.284 398.648ZM216.706 402.05V389.73H217.868V402.05H216.706ZM229.187 392.6H231.805V389.744H233.023V398.942H231.805V393.608H229.187V392.6ZM222.859 396.254C224.721 395.568 225.911 393.846 225.911 391.97V390.472H227.129V391.998C227.129 393.706 228.291 395.316 230.083 395.988L229.439 396.926C228.095 396.394 227.073 395.358 226.541 394.056C226.023 395.512 224.945 396.646 223.503 397.22L222.859 396.254ZM225.071 401.784V397.934H226.275V400.804H233.317V401.784H225.071ZM241.675 392.908H244.041V389.744H245.259V397.066H244.041V393.902H241.675V392.908ZM235.137 396.016C236.985 395.344 238.203 393.692 238.203 391.942V391.606H235.487V390.612H242.081V391.606H239.421V391.942C239.421 393.524 240.569 395.05 242.389 395.68L241.759 396.632C240.387 396.142 239.365 395.134 238.833 393.888C238.315 395.302 237.209 396.436 235.753 396.982L235.137 396.016ZM237.069 399.754C237.069 398.298 238.623 397.43 241.185 397.43C243.733 397.43 245.301 398.298 245.301 399.754C245.301 401.21 243.733 402.05 241.185 402.05C238.623 402.05 237.069 401.21 237.069 399.754ZM238.273 399.754C238.273 400.608 239.365 401.112 241.185 401.112C243.005 401.112 244.097 400.608 244.097 399.754C244.097 398.886 243.005 398.382 241.185 398.382C239.365 398.382 238.273 398.886 238.273 399.754ZM249.082 399.866L248.256 402.666H247.388L247.85 399.866H249.082ZM261.412 392.572H263.414V389.744H264.632V397.01H263.414V395.96H261.398V394.98H263.414V393.552H261.412V392.572ZM254.496 391.914V390.948H257.394V389.618H258.612V390.948H261.398V391.914H254.496ZM255.182 394.714C255.182 393.37 256.344 392.488 257.982 392.488C259.648 392.488 260.782 393.37 260.782 394.714C260.782 396.044 259.648 396.926 257.982 396.926C256.344 396.926 255.182 396.044 255.182 394.714ZM256.33 394.714C256.33 395.498 256.988 396.03 257.982 396.03C258.976 396.03 259.648 395.498 259.648 394.714C259.648 393.916 258.976 393.398 257.982 393.398C256.988 393.398 256.33 393.916 256.33 394.714ZM256.638 401.896V397.542H257.828V398.76H263.442V397.542H264.632V401.896H256.638ZM257.828 400.944H263.442V399.698H257.828V400.944ZM267.194 390.472H272.528V394.014H268.44V395.82C270.638 395.82 271.8 395.764 273.2 395.512L273.326 396.492C271.814 396.758 270.582 396.8 268.118 396.8H267.236V393.076H271.338V391.466H267.194V390.472ZM268.608 398.942V397.962H276.882V402.078H275.664V398.942H268.608ZM273.326 395.092V394.112H275.664V392.544H273.326V391.55H275.664V389.744H276.882V397.318H275.664V395.092H273.326ZM290.553 389.73H291.771V392.88H293.577V393.902H291.771V397.066H290.553V389.73ZM282.195 396.17C285.107 395.316 286.899 393.678 287.109 391.62H282.741V390.626H288.439C288.439 393.804 286.269 396.1 282.699 397.15L282.195 396.17ZM283.861 399.642C283.861 398.144 285.443 397.234 287.893 397.234C290.343 397.234 291.911 398.144 291.911 399.642C291.911 401.126 290.343 402.036 287.893 402.036C285.443 402.036 283.861 401.126 283.861 399.642ZM285.065 399.642C285.065 400.524 286.171 401.084 287.893 401.084C289.629 401.084 290.735 400.524 290.735 399.642C290.735 398.718 289.629 398.186 287.893 398.186C286.171 398.186 285.065 398.718 285.065 399.642ZM302.748 389.744H303.966V394.938H305.828V395.96H303.966V402.064H302.748V389.744ZM294.292 398.732C295.272 398.732 296.406 398.732 297.582 398.69V397.402C296.196 397.22 295.272 396.38 295.272 395.162C295.272 393.776 296.462 392.88 298.184 392.88C299.906 392.88 301.11 393.776 301.11 395.162C301.11 396.38 300.186 397.22 298.8 397.402V398.648C299.892 398.592 300.998 398.508 302.02 398.354L302.118 399.236C299.472 399.74 296.602 399.754 294.474 399.754L294.292 398.732ZM294.502 392.18V391.214H297.582V389.758H298.8V391.214H301.852V392.18H294.502ZM296.42 395.162C296.42 395.988 297.134 396.506 298.184 396.506C299.248 396.506 299.962 395.988 299.962 395.162C299.962 394.336 299.248 393.804 298.184 393.804C297.134 393.804 296.42 394.336 296.42 395.162Z" fill="#3F3F46"/>
<rect y="447" width="339" height="130" rx="8" fill="#F6F6F7"/>
<path d="M32.56 480.192H34.592V477.056H36.352V485.488H34.592V484.384H32.528V482.992H34.592V481.584H32.56V480.192ZM24.56 479.728V478.336H27.696V476.912H29.472V478.336H32.448V479.728H24.56ZM25.28 482.832C25.28 481.296 26.64 480.256 28.56 480.256C30.512 480.256 31.856 481.296 31.856 482.832C31.856 484.368 30.512 485.408 28.56 485.408C26.64 485.408 25.28 484.368 25.28 482.832ZM26.928 482.832C26.928 483.632 27.584 484.128 28.56 484.128C29.552 484.128 30.224 483.632 30.224 482.832C30.224 482.032 29.552 481.552 28.56 481.552C27.584 481.552 26.928 482.032 26.928 482.832ZM26.96 491.12V486.064H28.688V487.264H34.624V486.064H36.352V491.12H26.96ZM28.688 489.76H34.624V488.592H28.688V489.76ZM39.0404 477.872H45.2644V482.192H40.8324V483.936C43.1044 483.92 44.3684 483.856 45.8884 483.6L46.0644 484.992C44.3684 485.296 42.9124 485.344 40.1284 485.344H39.0724V480.864H43.5364V479.296H39.0404V477.872ZM40.6884 487.92V486.512H50.3524V491.312H48.5924V487.92H40.6884ZM46.1284 483.472V482.08H48.5924V480.496H46.1284V479.072H48.5924V477.056H50.3524V485.824H48.5924V483.472H46.1284ZM56.4168 477.664C58.2728 477.664 59.7128 478.72 60.0487 480.288H62.5768V477.056H64.3368V484.688H62.5768V481.712H60.0648C59.7448 483.312 58.2888 484.384 56.4168 484.384C54.2728 484.384 52.6888 482.992 52.6888 481.024C52.6888 479.056 54.2728 477.664 56.4168 477.664ZM54.3688 481.024C54.3688 482.176 55.2168 482.912 56.4168 482.912C57.6008 482.912 58.4488 482.176 58.4488 481.024C58.4488 479.856 57.6008 479.12 56.4168 479.12C55.2168 479.12 54.3688 479.856 54.3688 481.024ZM55.0088 491.12V485.36H56.7688V486.864H62.5928V485.36H64.3368V491.12H55.0088ZM56.7688 489.712H62.5928V488.224H56.7688V489.712ZM72.2731 482.528H74.1131V477.312H75.7451V490.608H74.1131V483.952H72.2731V482.528ZM66.2731 487.2C68.2571 486.032 69.1211 483.632 69.1211 481.392V480.96H66.7531V479.536H69.1211V477.52H70.8011V479.536H73.1531V480.96H70.8011V481.392C70.8011 483.584 71.6971 485.824 73.6651 486.88L72.6891 488.192C71.3931 487.488 70.4971 486.256 69.9851 484.752C69.4891 486.368 68.5931 487.76 67.2651 488.528L66.2731 487.2ZM76.9771 491.28V477.04H78.6571V491.28H76.9771ZM90.873 482.4H94.233V480.848H91.033C90.137 483.104 88.073 484.688 84.985 485.568L84.297 484.176C87.625 483.28 89.369 481.584 89.625 479.456H85.049V478.048H91.529C91.529 478.528 91.497 478.992 91.417 479.44H94.233V477.04H95.993V485.376H94.233V483.808H90.873V482.4ZM86.537 488.384C86.537 486.624 88.409 485.552 91.305 485.552C94.185 485.552 96.073 486.624 96.073 488.384C96.073 490.128 94.185 491.216 91.305 491.216C88.409 491.216 86.537 490.128 86.537 488.384ZM88.281 488.384C88.281 489.328 89.433 489.856 91.305 489.856C93.193 489.856 94.345 489.328 94.345 488.384C94.345 487.424 93.193 486.912 91.305 486.912C89.433 486.912 88.281 487.424 88.281 488.384ZM98.4414 478.144H104.761V479.552H102.489V479.872C102.489 481.488 103.321 482.96 105.081 483.664L104.169 484.992C102.969 484.512 102.153 483.664 101.673 482.592C101.177 483.824 100.281 484.816 98.9694 485.36L98.0414 484.016C99.9454 483.232 100.793 481.552 100.793 479.872V479.552H98.4414V478.144ZM100.601 488.624C100.601 486.976 102.473 485.968 105.433 485.968C108.409 485.968 110.281 486.976 110.281 488.624C110.281 490.288 108.409 491.28 105.433 491.28C102.473 491.28 100.601 490.288 100.601 488.624ZM102.345 488.624C102.345 489.472 103.481 489.936 105.433 489.936C107.401 489.936 108.521 489.472 108.521 488.624C108.521 487.776 107.401 487.328 105.433 487.328C103.481 487.328 102.345 487.776 102.345 488.624ZM105.545 485.28V477.328H107.209V480.608H108.537V477.056H110.217V485.712H108.537V482.048H107.209V485.28H105.545ZM112.65 477.872H118.874V482.192H114.442V483.936C116.714 483.92 117.978 483.856 119.498 483.6L119.674 484.992C117.978 485.296 116.522 485.344 113.738 485.344H112.682V480.864H117.146V479.296H112.65V477.872ZM114.298 487.92V486.512H123.962V491.312H122.202V487.92H114.298ZM119.738 483.472V482.08H122.202V480.496H119.738V479.072H122.202V477.056H123.962V485.824H122.202V483.472H119.738ZM139.186 477.04H140.946V480.512H142.93V481.968H140.946V485.392H139.186V477.04ZM129.746 484.208C132.978 483.312 134.85 481.568 135.138 479.44H130.402V478.016H137.058C137.058 481.776 134.626 484.432 130.466 485.616L129.746 484.208ZM131.666 488.432C131.666 486.672 133.538 485.584 136.402 485.584C139.25 485.584 141.106 486.672 141.106 488.432C141.106 490.192 139.25 491.28 136.402 491.28C133.538 491.28 131.666 490.192 131.666 488.432ZM133.41 488.432C133.41 489.376 134.546 489.92 136.402 489.92C138.258 489.92 139.394 489.376 139.394 488.432C139.394 487.472 138.258 486.944 136.402 486.944C134.546 486.944 133.41 487.472 133.41 488.432ZM153.218 477.056H154.978V482.928H156.93V484.4H154.978V491.296H153.218V477.056ZM143.634 487.344C144.706 487.344 145.938 487.344 147.234 487.312V485.968C145.698 485.712 144.69 484.752 144.69 483.392C144.69 481.792 146.098 480.736 148.114 480.736C150.13 480.736 151.554 481.792 151.554 483.392C151.554 484.752 150.53 485.712 148.994 485.968V487.232C150.162 487.184 151.33 487.072 152.434 486.928L152.578 488.192C149.554 488.784 146.29 488.784 143.874 488.784L143.634 487.344ZM143.89 480.064V478.672H147.234V477.104H148.994V478.672H152.322V480.064H143.89ZM146.354 483.392C146.354 484.224 147.058 484.72 148.114 484.72C149.186 484.72 149.89 484.224 149.89 483.392C149.89 482.56 149.186 482.064 148.114 482.064C147.058 482.064 146.354 482.56 146.354 483.392Z" fill="#6D0CA6"/>
<path d="M32.9462 519.89C32.9462 519.47 33.0115 519.134 33.1422 518.882C33.2822 518.621 33.4688 518.434 33.7022 518.322C33.9448 518.21 34.2108 518.154 34.5002 518.154C34.7895 518.154 35.0508 518.21 35.2842 518.322C35.5175 518.434 35.7042 518.621 35.8442 518.882C35.9842 519.134 36.0542 519.47 36.0542 519.89C36.0542 520.301 35.9842 520.637 35.8442 520.898C35.7042 521.15 35.5175 521.337 35.2842 521.458C35.0508 521.57 34.7895 521.626 34.5002 521.626C34.2108 521.626 33.9448 521.57 33.7022 521.458C33.4688 521.337 33.2822 521.15 33.1422 520.898C33.0115 520.637 32.9462 520.301 32.9462 519.89ZM48.5 514.374H49.69V515.704C49.69 517.356 50.866 518.882 52.658 519.498L52.028 520.436C50.684 519.946 49.648 518.952 49.116 517.692C48.598 519.12 47.548 520.226 46.106 520.786L45.448 519.82C47.352 519.134 48.5 517.468 48.5 515.62V514.374ZM47.114 523.782C47.114 522.354 48.654 521.514 51.174 521.514C53.708 521.514 55.234 522.354 55.234 523.782C55.234 525.21 53.708 526.036 51.174 526.036C48.654 526.036 47.114 525.21 47.114 523.782ZM48.304 523.782C48.304 524.608 49.382 525.084 51.174 525.084C52.966 525.084 54.044 524.608 54.044 523.782C54.044 522.942 52.966 522.466 51.174 522.466C49.382 522.466 48.304 522.942 48.304 523.782ZM53.89 521.192V513.744H55.108V516.88H56.914V517.888H55.108V521.192H53.89ZM60.2883 514.486H61.4503V516.11C61.4503 517.482 62.3463 518.854 63.9143 519.47L63.2843 520.394C62.1363 519.946 61.3243 519.092 60.8763 518.042C60.4423 519.204 59.5883 520.226 58.3843 520.744L57.7403 519.806C59.3643 519.092 60.2883 517.51 60.2883 516.11V514.486ZM59.9523 523.81C59.9523 522.424 61.5343 521.598 64.0823 521.598C66.6303 521.598 68.2123 522.424 68.2123 523.81C68.2123 525.224 66.6303 526.036 64.0823 526.036C61.5343 526.036 59.9523 525.224 59.9523 523.81ZM61.1563 523.81C61.1563 524.622 62.2623 525.112 64.0823 525.112C65.9023 525.112 66.9943 524.622 66.9943 523.81C66.9943 522.998 65.9023 522.536 64.0823 522.536C62.2623 522.536 61.1563 522.998 61.1563 523.81ZM64.3623 520.94V513.982H65.4963V517.006H66.9943V513.744H68.1563V521.332H66.9943V518H65.4963V520.94H64.3623ZM82.1632 513.744H83.3812V522.844H82.1632V518.182H80.0212V517.202H82.1632V513.744ZM73.2452 519.862H74.7712V515.802H73.5812V514.808H80.0912V515.802H78.9012V519.708C79.4892 519.652 80.0632 519.596 80.6092 519.526L80.6792 520.422C78.2572 520.842 75.4432 520.87 73.3852 520.87L73.2452 519.862ZM75.4572 525.784V522.046H76.6612V524.804H83.6892V525.784H75.4572ZM75.9472 519.834C76.5352 519.82 77.1232 519.806 77.7252 519.778V515.802H75.9472V519.834ZM86.8675 514.85H95.2255V515.844H88.0715V519.61H95.3515V520.59H86.8675V514.85ZM85.4675 524.398V523.404H96.6255V524.398H85.4675ZM100.93 523.488H105.9V520.548H107.118V523.488H112.088V524.496H100.93V523.488ZM101.462 520.03C103.66 519.652 105.872 517.93 105.872 516.012V515.816H101.854V514.836H111.15V515.816H107.132V516.012C107.132 517.93 109.372 519.624 111.598 519.974L111.108 520.94C109.176 520.562 107.3 519.386 106.516 517.734C105.718 519.4 103.856 520.59 101.952 520.982L101.462 520.03ZM116.233 514.43H117.437V515.62C117.437 517.356 118.585 518.896 120.405 519.512L119.747 520.464C118.417 519.96 117.409 518.994 116.877 517.748C116.345 519.176 115.253 520.282 113.769 520.828L113.139 519.848C115.043 519.176 116.233 517.538 116.233 515.662V514.43ZM115.113 523.712C115.113 522.228 116.681 521.374 119.243 521.374C121.791 521.374 123.359 522.228 123.359 523.712C123.359 525.196 121.791 526.036 119.243 526.036C116.681 526.036 115.113 525.196 115.113 523.712ZM116.331 523.712C116.331 524.58 117.409 525.084 119.243 525.084C121.063 525.084 122.155 524.58 122.155 523.712C122.155 522.83 121.063 522.326 119.243 522.326C117.409 522.326 116.331 522.83 116.331 523.712ZM119.467 517.3V516.292H122.085V513.744H123.303V521.01H122.085V517.3H119.467ZM32.9462 541.89C32.9462 541.47 33.0115 541.134 33.1422 540.882C33.2822 540.621 33.4688 540.434 33.7022 540.322C33.9448 540.21 34.2108 540.154 34.5002 540.154C34.7895 540.154 35.0508 540.21 35.2842 540.322C35.5175 540.434 35.7042 540.621 35.8442 540.882C35.9842 541.134 36.0542 541.47 36.0542 541.89C36.0542 542.301 35.9842 542.637 35.8442 542.898C35.7042 543.15 35.5175 543.337 35.2842 543.458C35.0508 543.57 34.7895 543.626 34.5002 543.626C34.2108 543.626 33.9448 543.57 33.7022 543.458C33.4688 543.337 33.2822 543.15 33.1422 542.898C33.0115 542.637 32.9462 542.301 32.9462 541.89ZM52.448 538.572H54.45V535.744H55.668V543.01H54.45V541.96H52.434V540.98H54.45V539.552H52.448V538.572ZM45.532 537.914V536.948H48.43V535.618H49.648V536.948H52.434V537.914H45.532ZM46.218 540.714C46.218 539.37 47.38 538.488 49.018 538.488C50.684 538.488 51.818 539.37 51.818 540.714C51.818 542.044 50.684 542.926 49.018 542.926C47.38 542.926 46.218 542.044 46.218 540.714ZM47.366 540.714C47.366 541.498 48.024 542.03 49.018 542.03C50.012 542.03 50.684 541.498 50.684 540.714C50.684 539.916 50.012 539.398 49.018 539.398C48.024 539.398 47.366 539.916 47.366 540.714ZM47.674 547.896V543.542H48.864V544.76H54.478V543.542H55.668V547.896H47.674ZM48.864 546.944H54.478V545.698H48.864V546.944ZM58.2303 536.472H63.5643V540.014H59.4763V541.82C61.6743 541.82 62.8363 541.764 64.2363 541.512L64.3623 542.492C62.8503 542.758 61.6183 542.8 59.1543 542.8H58.2723V539.076H62.3743V537.466H58.2303V536.472ZM59.6443 544.942V543.962H67.9183V548.078H66.7003V544.942H59.6443ZM64.3623 541.092V540.112H66.7003V538.544H64.3623V537.55H66.7003V535.744H67.9183V543.318H66.7003V541.092H64.3623ZM73.3647 536.304C75.0027 536.304 76.2487 537.228 76.5007 538.642H78.9367V535.744H80.1547V542.338H78.9367V539.636H76.5007C76.2767 541.064 75.0167 542.03 73.3647 542.03C71.5167 542.03 70.1727 540.854 70.1727 539.16C70.1727 537.466 71.5167 536.304 73.3647 536.304ZM71.3347 539.16C71.3347 540.252 72.1747 541.008 73.3647 541.008C74.5407 541.008 75.3807 540.252 75.3807 539.16C75.3807 538.054 74.5407 537.312 73.3647 537.312C72.1747 537.312 71.3347 538.054 71.3347 539.16ZM72.2307 547.896V542.954H73.4347V544.438H78.9507V542.954H80.1547V547.896H72.2307ZM73.4347 546.916H78.9507V545.404H73.4347V546.916ZM87.253 540.574H89.073V536.01H90.207V547.434H89.073V541.568H87.253V540.574ZM82.115 544.648C83.795 543.654 84.691 541.526 84.691 539.524V538.978H82.465V537.984H84.691V536.164H85.853V537.984H88.065V538.978H85.853V539.524C85.853 541.47 86.791 543.472 88.457 544.382L87.771 545.292C86.581 544.634 85.741 543.43 85.293 542.002C84.859 543.528 84.019 544.858 82.815 545.572L82.115 544.648ZM91.537 548.05V535.73H92.699V548.05H91.537ZM98.0819 536.99H104.97V537.998H102.128V539.44C102.128 541.526 103.556 543.64 105.39 544.424L104.704 545.39C103.29 544.732 102.114 543.36 101.54 541.694C100.966 543.472 99.8039 544.998 98.3759 545.698L97.6759 544.732C99.4819 543.878 100.91 541.568 100.91 539.44V537.998H98.0819V536.99ZM106.566 548.064V535.744H107.784V548.064H106.566ZM118.83 535.73H120.048V545.11H118.83V543.864H116.366V542.996H118.83V535.73ZM109.856 541.4C112.138 541.386 115.176 541.358 117.808 541.036L117.878 541.904C116.814 542.086 115.708 542.198 114.602 542.268V544.676H113.384V542.324C112.18 542.38 111.018 542.394 110.024 542.394L109.856 541.4ZM110.822 538.376C110.822 537.074 112.054 536.22 113.86 536.22C115.666 536.22 116.898 537.074 116.898 538.376C116.898 539.692 115.666 540.532 113.86 540.532C112.054 540.532 110.822 539.692 110.822 538.376ZM111.578 547.784V544.2H112.796V546.804H120.356V547.784H111.578ZM111.97 538.376C111.97 539.146 112.754 539.622 113.86 539.622C114.98 539.622 115.736 539.146 115.736 538.376C115.736 537.606 114.98 537.116 113.86 537.116C112.754 537.116 111.97 537.606 111.97 538.376ZM125.403 545.474H136.561V546.496H125.403V545.474ZM126.369 537.928V536.934H135.539V537.928H133.663V542.128H135.525V543.108H126.411V542.128H128.245V537.928H126.369ZM129.463 542.128H132.459V537.928H129.463V542.128ZM137.639 545.558H142.595V543.304H139.025V539.44H146.235V537.606H138.997V536.626H147.439V540.406H140.215V542.324H147.719V543.304H143.799V545.558H148.797V546.552H137.639V545.558ZM151.08 537.004H159.536V538.278C159.536 539.86 159.536 541.61 159.074 544.256L157.856 544.144C158.332 541.652 158.332 539.832 158.332 538.278V537.998H151.08V537.004ZM149.876 546.286V545.278H161.02V546.286H149.876ZM171.352 535.73H172.5V543.066H171.352V539.832H169.784V542.926H168.65V535.968H169.784V538.838H171.352V535.73ZM162.63 537.508V536.542H167.292V539.944H163.82V541.582C165.374 541.568 166.564 541.512 167.95 541.232L168.062 542.198C166.536 542.506 165.248 542.548 163.47 542.548H162.672V539.006H166.102V537.508H162.63ZM164.38 547.896V543.654H172.5V547.896H164.38ZM165.57 546.916H171.338V544.634H165.57V546.916ZM178.065 536.962H183.749V544.956H178.065V536.962ZM179.255 543.976H182.559V537.928H179.255V543.976ZM185.863 548.064V535.744H187.081V540.63H189.069V541.638H187.081V548.064H185.863ZM190.287 536.612H195.607V540.252H191.519V542.184C193.619 542.184 194.837 542.128 196.307 541.876L196.419 542.856C194.865 543.136 193.549 543.178 191.211 543.178H190.315V539.314H194.389V537.578H190.287V536.612ZM191.967 547.728V544.144H193.171V546.734H200.325V547.728H191.967ZM196.419 541.526V540.546H198.743V538.754H196.419V537.788H198.743V535.744H199.961V544.802H198.743V541.526H196.419Z" fill="#3F3F46"/>
</svg>
