<svg width="1200" height="824" viewBox="0 0 1200 824" fill="none" xmlns="http://www.w3.org/2000/svg">
<path d="M0 16C0 7.16344 7.16344 0 16 0H1184C1192.84 0 1200 7.16344 1200 16V808C1200 816.837 1192.84 824 1184 824H16C7.16343 824 0 816.837 0 808V16Z" fill="white"/>
<line x1="600.5" y1="110" x2="600.5" y2="560" stroke="#71717A"/>
<path d="M601 497H1030C1034.42 497 1038 500.582 1038 505V537" stroke="#71717A"/>
<g filter="url(#filter0_d_4466_2542)">
<rect x="470" y="40" width="260" height="77" rx="8" fill="#9735D0" shape-rendering="crispEdges"/>
<path d="M517.434 81.364C518.208 82.876 519.306 83.632 520.458 83.632C522.168 83.65 523.122 82.822 523.122 81.544C523.122 78.52 516.444 79.816 516.444 75.19C516.444 72.994 518.244 71.698 520.71 71.716C522.42 71.734 524.058 72.688 524.796 74.758L523.086 75.37C522.618 73.984 521.682 73.39 520.692 73.372C519.27 73.372 518.352 74.074 518.352 75.19C518.352 78.178 525.012 77.044 525.012 81.562C525.012 83.794 523.266 85.324 520.44 85.288C518.496 85.27 516.948 84.154 515.85 82.246L517.434 81.364ZM537.921 71.86L532.665 77.764L538.029 85.144H535.653L531.351 79.24L529.713 81.04V85.144H527.805V71.878H529.713V78.196L535.365 71.86H537.921ZM540.405 72.04H542.349V80.842C543.897 80.806 545.337 80.716 546.975 80.374L547.227 82.03C545.247 82.462 543.483 82.534 541.503 82.534H540.405V72.04ZM544.851 77.224V75.604H548.181V70.744H550.017V85.684H548.181V77.224H544.851ZM551.583 86.44V70.42H553.455V86.44H551.583ZM557.235 71.662H568.251V73.246H559.233V75.208H567.891V76.756H559.233V78.808H568.395V80.392H557.235V71.662ZM555.471 84.514V82.912H569.979V84.514H555.471ZM582.544 70.438H584.506V81.022H582.544V80.266H579.304V78.898H582.544V70.438ZM571.096 76.936C573.994 76.936 577.954 76.9 581.338 76.45L581.464 77.818C580.042 78.07 578.53 78.214 577.072 78.322V80.896H575.128V78.412C573.778 78.466 572.482 78.484 571.348 78.484L571.096 76.936ZM572.284 73.462C572.284 71.878 573.904 70.816 576.28 70.816C578.638 70.816 580.258 71.878 580.258 73.462C580.258 75.064 578.638 76.108 576.28 76.108C573.904 76.108 572.284 75.064 572.284 73.462ZM573.31 83.182V81.634H584.506V86.458H582.544V83.182H573.31ZM574.138 73.462C574.138 74.254 574.984 74.722 576.28 74.722C577.576 74.722 578.404 74.254 578.404 73.462C578.404 72.688 577.576 72.22 576.28 72.22C574.984 72.22 574.138 72.688 574.138 73.462ZM593.074 71.41H595.162V72.598C595.162 75.082 597.538 77.566 600.868 78.142L600.004 79.78C597.322 79.24 595.144 77.62 594.118 75.478C593.074 77.602 590.896 79.24 588.232 79.78L587.386 78.142C590.662 77.548 593.074 75.064 593.074 72.598V71.41ZM586.936 84.406V82.786H601.444V84.406H586.936ZM617.365 70.42H619.345V74.056H621.577V75.694H619.345V79.42H617.365V70.42ZM606.709 78.142C610.399 77.206 612.487 75.298 612.811 72.958H607.447V71.374H614.935C614.935 75.568 612.217 78.466 607.465 79.708L606.709 78.142ZM609.085 86.242V80.086H619.345V86.242H609.085ZM611.029 84.676H617.401V81.67H611.029V84.676ZM626.276 71.734H628.238V74.254C628.238 77.098 629.624 80.032 632.09 81.238L630.884 82.804C629.174 81.922 627.95 80.248 627.266 78.214C626.563 80.392 625.268 82.192 623.45 83.11L622.262 81.508C624.818 80.284 626.276 77.206 626.276 74.254V71.734ZM633.008 86.458V70.438H635.006V76.72H637.454V78.376H635.006V86.458H633.008ZM643.466 71.104C645.878 71.104 647.624 72.49 647.624 74.488C647.624 76.45 645.878 77.854 643.466 77.854C641.072 77.854 639.308 76.45 639.308 74.488C639.308 72.49 641.072 71.104 643.466 71.104ZM638.282 78.952C641.144 78.952 645.14 78.934 648.596 78.394L648.722 79.852C647.336 80.122 645.914 80.284 644.528 80.392V85.954H642.548V80.518C641.09 80.572 639.722 80.59 638.516 80.59L638.282 78.952ZM641.216 74.488C641.216 75.568 642.17 76.234 643.466 76.234C644.78 76.234 645.734 75.568 645.734 74.488C645.734 73.39 644.78 72.724 643.466 72.724C642.17 72.724 641.216 73.39 641.216 74.488ZM649.586 86.458V70.42H651.566V86.458H649.586ZM665.354 70.42H667.334V82.588H665.354V81.166H662.258V79.798H665.354V70.42ZM653.924 77.638C656.858 77.62 660.782 77.584 664.184 77.17L664.292 78.574C662.996 78.79 661.628 78.934 660.296 79.024V82.102H658.316V79.132C656.84 79.204 655.418 79.222 654.176 79.222L653.924 77.638ZM655.112 73.84C655.112 72.148 656.75 71.014 659.09 71.014C661.448 71.014 663.068 72.148 663.068 73.84C663.068 75.568 661.448 76.684 659.09 76.684C656.75 76.684 655.112 75.568 655.112 73.84ZM656.03 86.134V81.418H658.01V84.55H667.712V86.134H656.03ZM657.002 73.84C657.002 74.722 657.866 75.226 659.09 75.226C660.35 75.226 661.178 74.722 661.178 73.84C661.178 72.958 660.35 72.454 659.09 72.454C657.866 72.454 657.002 72.958 657.002 73.84ZM680.997 70.438H682.959V86.458H680.997V70.438ZM669.819 82.012C671.061 82.012 672.483 82.012 673.977 81.976V80.482C672.195 80.194 671.043 79.096 671.043 77.566C671.043 75.766 672.627 74.578 674.967 74.578C677.289 74.578 678.909 75.766 678.909 77.566C678.909 79.096 677.739 80.194 675.957 80.482V81.904C677.361 81.832 678.765 81.724 680.097 81.544L680.223 82.966C676.713 83.614 672.933 83.632 670.053 83.632L669.819 82.012ZM670.125 73.822V72.274H673.977V70.474H675.957V72.274H679.809V73.822H670.125ZM672.915 77.566C672.915 78.502 673.761 79.06 674.967 79.06C676.191 79.06 677.019 78.502 677.019 77.566C677.019 76.63 676.191 76.072 674.967 76.072C673.761 76.072 672.915 76.63 672.915 77.566Z" fill="white"/>
</g>
<path d="M470 165C470 160.582 473.582 157 478 157H722C726.418 157 730 160.582 730 165V256C730 260.418 726.418 264 722 264H478C473.582 264 470 260.418 470 256V165Z" fill="#F5EBFB"/>
<path d="M544.918 187.762C548.338 187.762 550.624 189.04 550.624 191.038C550.624 193.036 548.338 194.314 544.918 194.314C541.498 194.314 539.212 193.036 539.212 191.038C539.212 189.04 541.498 187.762 544.918 187.762ZM537.7 196.87V195.286H552.172V196.87H548.68V199.894H546.7V196.87H544.648V199.876H542.668V196.87H537.7ZM539.374 203.134V198.526H541.354V201.55H550.732V203.134H539.374ZM541.336 191.038C541.336 192.118 542.74 192.73 544.918 192.73C547.096 192.73 548.5 192.118 548.5 191.038C548.5 189.958 547.096 189.346 544.918 189.346C542.74 189.346 541.336 189.958 541.336 191.038ZM564.683 187.402H566.663V203.476H564.683V187.402ZM554.261 190.426V188.842H561.767V194.854H556.295V198.058C558.797 198.04 560.957 197.932 563.423 197.518L563.621 199.12C560.903 199.588 558.527 199.678 555.683 199.678H554.297V193.27H559.769V190.426H554.261ZM576.689 193.45H580.469V191.704H576.869C575.861 194.242 573.539 196.024 570.065 197.014L569.291 195.448C573.035 194.44 574.997 192.532 575.285 190.138H570.137V188.554H577.427C577.427 189.094 577.391 189.616 577.301 190.12H580.469V187.42H582.449V196.798H580.469V195.034H576.689V193.45ZM571.811 200.182C571.811 198.202 573.917 196.996 577.175 196.996C580.415 196.996 582.539 198.202 582.539 200.182C582.539 202.144 580.415 203.368 577.175 203.368C573.917 203.368 571.811 202.144 571.811 200.182ZM573.773 200.182C573.773 201.244 575.069 201.838 577.175 201.838C579.299 201.838 580.595 201.244 580.595 200.182C580.595 199.102 579.299 198.526 577.175 198.526C575.069 198.526 573.773 199.102 573.773 200.182ZM589.272 188.32C590.568 188.32 591.684 188.806 592.44 189.616H596.202V187.438H598.182V196.852H596.202V194.818H592.422C591.666 195.61 590.55 196.078 589.272 196.078C586.878 196.078 585.078 194.458 585.078 192.208C585.078 189.94 586.878 188.32 589.272 188.32ZM586.95 192.208C586.95 193.54 587.94 194.404 589.272 194.404C590.604 194.404 591.558 193.54 591.558 192.208C591.558 190.84 590.604 189.994 589.272 189.994C587.94 189.994 586.95 190.84 586.95 192.208ZM587.382 200.326C587.382 198.346 589.47 197.194 592.818 197.194C596.148 197.194 598.236 198.346 598.236 200.326C598.236 202.288 596.148 203.44 592.818 203.44C589.47 203.44 587.382 202.288 587.382 200.326ZM589.326 200.326C589.326 201.352 590.586 201.91 592.818 201.91C595.05 201.91 596.292 201.352 596.292 200.326C596.292 199.282 595.05 198.724 592.818 198.724C590.586 198.724 589.326 199.282 589.326 200.326ZM593.322 193.216H596.202V191.2H593.322C593.412 191.524 593.448 191.848 593.448 192.208C593.448 192.568 593.412 192.892 593.322 193.216ZM609.63 190.966H611.916V187.438H613.896V196.924H611.916V195.682H609.594V194.116H611.916V192.532H609.63V190.966ZM600.63 190.444V188.878H604.158V187.276H606.156V188.878H609.504V190.444H600.63ZM601.44 193.936C601.44 192.208 602.97 191.038 605.13 191.038C607.326 191.038 608.838 192.208 608.838 193.936C608.838 195.664 607.326 196.834 605.13 196.834C602.97 196.834 601.44 195.664 601.44 193.936ZM603.294 193.936C603.294 194.836 604.032 195.394 605.13 195.394C606.246 195.394 607.002 194.836 607.002 193.936C607.002 193.036 606.246 192.496 605.13 192.496C604.032 192.496 603.294 193.036 603.294 193.936ZM603.33 203.26V197.572H605.274V198.922H611.952V197.572H613.896V203.26H603.33ZM605.274 201.73H611.952V200.416H605.274V201.73ZM621.492 188.518C623.994 188.518 625.848 190.138 625.848 192.406C625.848 194.692 623.994 196.294 621.492 196.294C618.972 196.294 617.118 194.692 617.118 192.406C617.118 190.138 618.972 188.518 621.492 188.518ZM616.398 198.508C619.242 198.508 623.238 198.49 626.64 197.968L626.784 199.408C623.274 200.092 619.44 200.128 616.632 200.128L616.398 198.508ZM619.044 192.406C619.044 193.738 620.088 194.602 621.492 194.602C622.878 194.602 623.922 193.738 623.922 192.406C623.922 191.056 622.878 190.228 621.492 190.228C620.088 190.228 619.044 191.056 619.044 192.406ZM627.594 203.476V187.402H629.556V203.476H627.594ZM638.575 193.594H640.645V187.726H642.481V202.684H640.645V195.196H638.575V193.594ZM631.825 198.85C634.057 197.536 635.029 194.836 635.029 192.316V191.83H632.365V190.228H635.029V187.96H636.919V190.228H639.565V191.83H636.919V192.316C636.919 194.782 637.927 197.302 640.141 198.49L639.043 199.966C637.585 199.174 636.577 197.788 636.001 196.096C635.443 197.914 634.435 199.48 632.941 200.344L631.825 198.85ZM643.867 203.44V187.42H645.757V203.44H643.867ZM648.187 188.536H656.809V190.138H653.515V190.3C653.515 192.244 654.757 194.098 657.259 194.89L656.305 196.42C654.523 195.862 653.263 194.728 652.579 193.288C651.877 194.98 650.545 196.312 648.637 196.96L647.647 195.394C650.203 194.53 651.535 192.442 651.535 190.3V190.138H648.187V188.536ZM649.807 200.38C649.807 198.454 651.877 197.338 655.171 197.338C658.465 197.338 660.517 198.454 660.517 200.38C660.517 202.306 658.465 203.44 655.171 203.44C651.877 203.44 649.807 202.306 649.807 200.38ZM651.751 200.38C651.751 201.37 652.993 201.91 655.171 201.91C657.331 201.91 658.573 201.37 658.573 200.38C658.573 199.39 657.331 198.886 655.171 198.886C652.993 198.886 651.751 199.39 651.751 200.38ZM658.357 196.996V187.438H660.337V191.272H662.569V192.892H660.337V196.996H658.357Z" fill="#6D0CA6"/>
<path d="M542.306 231.298C542.838 232.362 543.734 233.118 544.784 233.118C546.156 233.146 547.01 232.446 547.01 231.354C547.01 228.75 541.774 229.842 541.774 226.3C541.774 224.662 543.146 223.724 544.966 223.738C546.366 223.766 547.5 224.508 547.99 225.992L546.94 226.356C546.632 225.362 545.876 224.788 544.952 224.774C543.776 224.76 542.936 225.32 542.936 226.3C542.936 228.876 548.172 227.826 548.172 231.368C548.172 233.048 546.856 234.182 544.77 234.154C543.286 234.126 542.152 233.3 541.312 231.83L542.306 231.298ZM557.672 223.85L553.612 228.372L557.756 234.042H556.3L552.814 229.282L551.568 230.654V234.042H550.392V223.864H551.568V228.904L556.09 223.85H557.672ZM559.796 224.046H560.986V230.92C562.274 230.906 563.492 230.822 564.892 230.528L565.06 231.564C563.464 231.9 562.092 231.956 560.608 231.956H559.796V224.046ZM563.212 227.84V226.846H565.942V223.01H567.076V234.434H565.942V227.84H563.212ZM568.56 235.05V222.73H569.708V235.05H568.56ZM572.873 223.766H581.245V224.746H574.105V226.51H580.965V227.476H574.105V229.324H581.357V230.318H572.873V223.766ZM571.459 233.482V232.488H582.617V233.482H571.459ZM592.585 222.744H593.789V230.878H592.585V230.122H590.023V229.268H592.585V222.744ZM583.611 227.84C585.851 227.84 588.917 227.812 591.535 227.462L591.619 228.316C590.471 228.512 589.253 228.624 588.077 228.694V230.724H586.887V228.75C585.767 228.792 584.703 228.806 583.765 228.806L583.611 227.84ZM584.563 225.068C584.563 223.864 585.795 223.052 587.615 223.052C589.421 223.052 590.639 223.864 590.639 225.068C590.639 226.314 589.421 227.098 587.615 227.098C585.795 227.098 584.563 226.314 584.563 225.068ZM585.361 232.334V231.368H593.789V235.064H592.585V232.334H585.361ZM585.697 225.068C585.697 225.782 586.467 226.23 587.615 226.23C588.763 226.23 589.505 225.782 589.505 225.068C589.505 224.382 588.763 223.934 587.615 223.934C586.467 223.934 585.697 224.382 585.697 225.068ZM600.831 223.556H602.091V224.494C602.091 226.552 604.317 228.442 606.571 228.848L606.025 229.856C604.107 229.436 602.259 228.134 601.461 226.384C600.649 228.134 598.801 229.436 596.897 229.856L596.379 228.848C598.591 228.428 600.831 226.552 600.831 224.494V223.556ZM595.931 233.412V232.404H607.089V233.412H595.931ZM619.752 222.73H620.97V225.684H622.776V226.692H620.97V229.702H619.752V222.73ZM611.38 228.89C614.334 228.106 616.098 226.51 616.308 224.494H611.926V223.514H617.61C617.61 226.65 615.468 228.876 611.842 229.856L611.38 228.89ZM613.186 234.882V230.262H620.97V234.882H613.186ZM614.376 233.902H619.78V231.242H614.376V233.902ZM626.627 223.794H627.817V225.936C627.817 228.106 629.119 230.36 630.911 231.242L630.169 232.194C628.839 231.494 627.775 230.094 627.229 228.414C626.683 230.206 625.577 231.704 624.191 232.446L623.449 231.466C625.283 230.556 626.627 228.19 626.627 225.936V223.794ZM631.905 235.064V222.744H633.123V227.686H635.125V228.722H633.123V235.064H631.905ZM644.757 222.744H645.961V229.086H644.757V222.744ZM635.923 228.036C637.799 227.392 639.031 225.768 639.031 224.018V223.08H640.249V224.018C640.249 225.698 641.481 227.224 643.329 227.826L642.727 228.764C641.299 228.274 640.207 227.28 639.647 225.992C639.115 227.378 637.995 228.47 636.525 229.002L635.923 228.036ZM637.981 230.668V229.702H645.961V232.712H639.185V233.958H646.381V234.924H638.009V231.816H644.771V230.668H637.981ZM648.397 223.626H655.005V224.62H652.317V225.026C652.317 226.608 653.437 228.05 655.271 228.652L654.697 229.59C653.297 229.128 652.275 228.19 651.743 226.986C651.211 228.372 650.119 229.464 648.649 229.982L648.047 229.016C649.923 228.372 651.113 226.776 651.113 225.026V224.62H648.397V223.626ZM649.685 232.74C649.685 231.298 651.239 230.472 653.745 230.472C656.265 230.472 657.805 231.298 657.805 232.74C657.805 234.196 656.265 235.036 653.745 235.036C651.239 235.036 649.685 234.196 649.685 232.74ZM650.875 232.74C650.875 233.594 651.953 234.084 653.745 234.084C655.537 234.084 656.615 233.594 656.615 232.74C656.615 231.9 655.537 231.424 653.745 231.424C651.953 231.424 650.875 231.9 650.875 232.74ZM656.461 230.15V222.744H657.679V225.838H659.485V226.832H657.679V230.15H656.461Z" fill="#15151A"/>
<rect x="64" y="537" width="860" height="247" rx="8" fill="#F6F6F7"/>
<path d="M446.785 567.762C450.205 567.762 452.491 569.04 452.491 571.038C452.491 573.036 450.205 574.314 446.785 574.314C443.365 574.314 441.079 573.036 441.079 571.038C441.079 569.04 443.365 567.762 446.785 567.762ZM439.567 576.87V575.286H454.039V576.87H450.547V579.894H448.567V576.87H446.515V579.876H444.535V576.87H439.567ZM441.241 583.134V578.526H443.221V581.55H452.599V583.134H441.241ZM443.203 571.038C443.203 572.118 444.607 572.73 446.785 572.73C448.963 572.73 450.367 572.118 450.367 571.038C450.367 569.958 448.963 569.346 446.785 569.346C444.607 569.346 443.203 569.958 443.203 571.038ZM466.549 567.402H468.529V583.476H466.549V567.402ZM456.127 570.426V568.842H463.633V574.854H458.161V578.058C460.663 578.04 462.823 577.932 465.289 577.518L465.487 579.12C462.769 579.588 460.393 579.678 457.549 579.678H456.163V573.27H461.635V570.426H456.127ZM478.555 573.45H482.335V571.704H478.735C477.727 574.242 475.405 576.024 471.931 577.014L471.157 575.448C474.901 574.44 476.863 572.532 477.151 570.138H472.003V568.554H479.293C479.293 569.094 479.257 569.616 479.167 570.12H482.335V567.42H484.315V576.798H482.335V575.034H478.555V573.45ZM473.677 580.182C473.677 578.202 475.783 576.996 479.041 576.996C482.281 576.996 484.405 578.202 484.405 580.182C484.405 582.144 482.281 583.368 479.041 583.368C475.783 583.368 473.677 582.144 473.677 580.182ZM475.639 580.182C475.639 581.244 476.935 581.838 479.041 581.838C481.165 581.838 482.461 581.244 482.461 580.182C482.461 579.102 481.165 578.526 479.041 578.526C476.935 578.526 475.639 579.102 475.639 580.182ZM491.138 568.32C492.434 568.32 493.55 568.806 494.306 569.616H498.068V567.438H500.048V576.852H498.068V574.818H494.288C493.532 575.61 492.416 576.078 491.138 576.078C488.744 576.078 486.944 574.458 486.944 572.208C486.944 569.94 488.744 568.32 491.138 568.32ZM488.816 572.208C488.816 573.54 489.806 574.404 491.138 574.404C492.47 574.404 493.424 573.54 493.424 572.208C493.424 570.84 492.47 569.994 491.138 569.994C489.806 569.994 488.816 570.84 488.816 572.208ZM489.248 580.326C489.248 578.346 491.336 577.194 494.684 577.194C498.014 577.194 500.102 578.346 500.102 580.326C500.102 582.288 498.014 583.44 494.684 583.44C491.336 583.44 489.248 582.288 489.248 580.326ZM491.192 580.326C491.192 581.352 492.452 581.91 494.684 581.91C496.916 581.91 498.158 581.352 498.158 580.326C498.158 579.282 496.916 578.724 494.684 578.724C492.452 578.724 491.192 579.282 491.192 580.326ZM495.188 573.216H498.068V571.2H495.188C495.278 571.524 495.314 571.848 495.314 572.208C495.314 572.568 495.278 572.892 495.188 573.216ZM511.496 570.966H513.782V567.438H515.762V576.924H513.782V575.682H511.46V574.116H513.782V572.532H511.496V570.966ZM502.496 570.444V568.878H506.024V567.276H508.022V568.878H511.37V570.444H502.496ZM503.306 573.936C503.306 572.208 504.836 571.038 506.996 571.038C509.192 571.038 510.704 572.208 510.704 573.936C510.704 575.664 509.192 576.834 506.996 576.834C504.836 576.834 503.306 575.664 503.306 573.936ZM505.16 573.936C505.16 574.836 505.898 575.394 506.996 575.394C508.112 575.394 508.868 574.836 508.868 573.936C508.868 573.036 508.112 572.496 506.996 572.496C505.898 572.496 505.16 573.036 505.16 573.936ZM505.196 583.26V577.572H507.14V578.922H513.818V577.572H515.762V583.26H505.196ZM507.14 581.73H513.818V580.416H507.14V581.73ZM523.359 568.518C525.861 568.518 527.715 570.138 527.715 572.406C527.715 574.692 525.861 576.294 523.359 576.294C520.839 576.294 518.985 574.692 518.985 572.406C518.985 570.138 520.839 568.518 523.359 568.518ZM518.265 578.508C521.109 578.508 525.105 578.49 528.507 577.968L528.651 579.408C525.141 580.092 521.307 580.128 518.499 580.128L518.265 578.508ZM520.911 572.406C520.911 573.738 521.955 574.602 523.359 574.602C524.745 574.602 525.789 573.738 525.789 572.406C525.789 571.056 524.745 570.228 523.359 570.228C521.955 570.228 520.911 571.056 520.911 572.406ZM529.461 583.476V567.402H531.423V583.476H529.461ZM540.441 573.594H542.511V567.726H544.347V582.684H542.511V575.196H540.441V573.594ZM533.691 578.85C535.923 577.536 536.895 574.836 536.895 572.316V571.83H534.231V570.228H536.895V567.96H538.785V570.228H541.431V571.83H538.785V572.316C538.785 574.782 539.793 577.302 542.007 578.49L540.909 579.966C539.451 579.174 538.443 577.788 537.867 576.096C537.309 577.914 536.301 579.48 534.807 580.344L533.691 578.85ZM545.733 583.44V567.42H547.623V583.44H545.733Z" fill="#15151A"/>
<path d="M96 614.5H277C281.142 614.5 284.5 617.858 284.5 622V752C284.5 756.142 281.142 759.5 277 759.5H96C91.8579 759.5 88.5 756.142 88.5 752V622C88.5 617.858 91.8579 614.5 96 614.5Z" fill="white"/>
<path d="M96 614.5H277C281.142 614.5 284.5 617.858 284.5 622V752C284.5 756.142 281.142 759.5 277 759.5H96C91.8579 759.5 88.5 756.142 88.5 752V622C88.5 617.858 91.8579 614.5 96 614.5Z" stroke="#E4E4E7"/>
<path d="M114.156 651.41C114.814 652.208 115.78 652.782 116.634 652.782C117.908 652.796 118.818 652.124 118.818 651.158C118.832 649.114 113.26 650.136 113.302 646.51C113.316 644.816 114.786 643.64 116.872 643.668C118.076 643.682 119.364 644.34 120.12 645.292L118.888 646.258C118.37 645.586 117.572 645.11 116.844 645.11C115.752 645.096 114.982 645.684 114.982 646.538C114.954 648.624 120.54 647.77 120.498 651.186C120.484 652.992 118.874 654.252 116.62 654.224C115.248 654.21 113.778 653.454 112.896 652.39L114.156 651.41ZM131.096 643.738L126.98 648.288L131.166 654.154H129.094L125.832 649.576L123.984 651.648V654.154H122.304V643.752H123.984V649.1L128.828 643.738H131.096ZM132.789 643.836H134.497V650.668C135.659 650.654 136.723 650.57 137.899 650.332L138.123 651.774C136.611 652.096 135.253 652.152 133.671 652.152H132.789V643.836ZM136.275 648.008V646.608H138.781V642.842H140.391V654.602H138.781V648.008H136.275ZM141.441 655.162V642.618H143.093V655.162H141.441ZM145.88 643.556H154.588V644.928H147.644V646.314H154.294V647.658H147.644V649.1H154.686V650.486H145.88V643.556ZM144.55 653.706V652.306H155.904V653.706H144.55ZM165.55 642.632H167.286V650.92H165.55V650.43H163.058V649.24H165.55V642.632ZM156.702 647.672C158.956 647.672 162.05 647.63 164.682 647.28L164.794 648.47C163.702 648.666 162.568 648.792 161.462 648.862V650.85H159.74V648.96C158.732 649.002 157.766 649.016 156.912 649.016L156.702 647.672ZM157.612 644.998C157.612 643.752 158.886 642.912 160.748 642.912C162.61 642.912 163.87 643.752 163.87 644.998C163.87 646.258 162.61 647.07 160.748 647.07C158.886 647.07 157.612 646.258 157.612 644.998ZM158.41 652.74V651.382H167.286V655.176H165.55V652.74H158.41ZM159.236 644.998C159.236 645.558 159.824 645.866 160.748 645.866C161.672 645.866 162.26 645.558 162.26 644.998C162.26 644.452 161.672 644.144 160.748 644.144C159.824 644.144 159.236 644.452 159.236 644.998ZM173.712 643.346H175.56V644.256C175.56 646.132 177.184 648.078 179.97 648.554L179.214 649.996C177.058 649.562 175.448 648.344 174.636 646.734C173.81 648.33 172.2 649.562 170.044 649.996L169.302 648.554C172.06 648.078 173.712 646.09 173.712 644.256V643.346ZM169.022 653.608V652.194H180.376V653.608H169.022ZM182.267 648.946C182.267 647.112 182.981 644.69 183.989 643.094H185.739C184.591 644.69 183.779 647.098 183.779 648.946C183.779 650.794 184.591 653.202 185.739 654.798H183.989C182.981 653.202 182.267 650.78 182.267 648.946ZM195.202 642.632H196.938V646.146H198.632V647.574H196.938V651.62H195.202V642.632ZM186.998 649.016C189.798 648.232 191.394 646.748 191.66 644.956H187.544V643.57H193.564C193.564 646.958 191.45 649.31 187.726 650.388L186.998 649.016ZM188.86 654.938V650.71H190.596V653.552H197.386V654.938H188.86ZM202.175 643.612H203.897V645.46C203.897 647.714 204.835 649.996 206.837 650.976L205.787 652.348C204.471 651.676 203.561 650.43 203.043 648.918C202.497 650.542 201.531 651.886 200.117 652.586L199.067 651.186C201.153 650.206 202.175 647.798 202.175 645.46V643.612ZM207.383 655.176V642.632H209.119V647.476H210.981V648.918H209.119V655.176H207.383ZM215.503 648.946C215.503 650.78 214.789 653.188 213.781 654.798H212.031C213.179 653.216 213.991 650.794 213.991 648.946C213.991 647.098 213.179 644.676 212.031 643.094H213.781C214.789 644.704 215.503 647.112 215.503 648.946Z" fill="#15151A"/>
<path d="M118.09 681.024C118.958 681.024 119.719 681.127 120.372 681.332C121.025 681.537 121.529 681.827 121.884 682.2C122.248 682.573 122.43 683.012 122.43 683.516C122.43 684.011 122.248 684.445 121.884 684.818C121.529 685.191 121.025 685.481 120.372 685.686C119.719 685.882 118.958 685.98 118.09 685.98C117.231 685.98 116.475 685.882 115.822 685.686C115.169 685.481 114.66 685.191 114.296 684.818C113.941 684.445 113.764 684.011 113.764 683.516C113.764 683.012 113.941 682.573 114.296 682.2C114.66 681.827 115.169 681.537 115.822 681.332C116.475 681.127 117.231 681.024 118.09 681.024ZM112.546 686.876H123.676V687.856H120.876V690.362H119.658V687.856H117.614V690.362H116.396V687.856H112.546V686.876ZM113.89 689.326H115.094V691.804H122.528V692.784H113.89V689.326ZM115.052 683.516C115.052 683.973 115.327 684.337 115.878 684.608C116.438 684.869 117.175 685 118.09 685C119.014 685 119.751 684.869 120.302 684.608C120.862 684.337 121.142 683.973 121.142 683.516C121.142 683.059 120.862 682.695 120.302 682.424C119.751 682.153 119.014 682.018 118.09 682.018C117.175 682.018 116.438 682.153 115.878 682.424C115.327 682.695 115.052 683.059 115.052 683.516ZM134.89 680.716V693.078H133.672V680.716H134.89ZM125.44 681.878H131.152V686.316H126.686V689.102C127.75 689.102 128.74 689.069 129.654 689.004C130.578 688.939 131.544 688.827 132.552 688.668L132.678 689.662C131.652 689.83 130.662 689.947 129.71 690.012C128.758 690.068 127.69 690.096 126.504 690.096H125.468V685.336H129.934V682.858H125.44V681.878ZM145.937 685.532V683.95H142.913C142.521 684.93 141.872 685.77 140.967 686.47C140.071 687.17 138.96 687.716 137.635 688.108L137.145 687.142C138.61 686.722 139.763 686.125 140.603 685.35C141.452 684.566 141.928 683.661 142.031 682.634H137.789V681.64H143.347C143.347 682.107 143.305 682.55 143.221 682.97H145.937V680.73H147.155V688.08H145.937V686.512H142.787V685.532H145.937ZM139.049 690.614C139.049 689.867 139.413 689.284 140.141 688.864C140.878 688.435 141.877 688.22 143.137 688.22C144.387 688.22 145.377 688.435 146.105 688.864C146.842 689.284 147.211 689.867 147.211 690.614C147.211 691.351 146.842 691.93 146.105 692.35C145.377 692.779 144.387 692.994 143.137 692.994C141.877 692.994 140.878 692.779 140.141 692.35C139.413 691.93 139.049 691.351 139.049 690.614ZM140.253 690.614C140.253 691.062 140.509 691.412 141.023 691.664C141.545 691.916 142.25 692.042 143.137 692.042C144.033 692.042 144.737 691.916 145.251 691.664C145.764 691.412 146.021 691.062 146.021 690.614C146.021 690.166 145.764 689.816 145.251 689.564C144.737 689.303 144.033 689.172 143.137 689.172C142.25 689.172 141.545 689.303 141.023 689.564C140.509 689.816 140.253 690.166 140.253 690.614ZM152.601 681.458C153.105 681.458 153.572 681.551 154.001 681.738C154.43 681.915 154.79 682.167 155.079 682.494H158.173V680.744H159.391V688.01H158.173V686.316H155.065C154.776 686.643 154.416 686.895 153.987 687.072C153.567 687.249 153.105 687.338 152.601 687.338C152.004 687.338 151.462 687.212 150.977 686.96C150.492 686.708 150.109 686.358 149.829 685.91C149.549 685.462 149.409 684.958 149.409 684.398C149.409 683.838 149.549 683.334 149.829 682.886C150.109 682.438 150.492 682.088 150.977 681.836C151.462 681.584 152.004 681.458 152.601 681.458ZM150.571 684.398C150.571 684.958 150.762 685.415 151.145 685.77C151.528 686.125 152.013 686.302 152.601 686.302C153.189 686.302 153.67 686.125 154.043 685.77C154.426 685.415 154.617 684.958 154.617 684.398C154.617 683.838 154.426 683.381 154.043 683.026C153.67 682.671 153.189 682.494 152.601 682.494C152.013 682.494 151.528 682.671 151.145 683.026C150.762 683.381 150.571 683.838 150.571 684.398ZM151.201 690.67C151.201 689.923 151.565 689.345 152.293 688.934C153.03 688.514 154.038 688.304 155.317 688.304C156.596 688.304 157.599 688.514 158.327 688.934C159.064 689.345 159.433 689.923 159.433 690.67C159.433 691.417 159.064 691.995 158.327 692.406C157.599 692.826 156.596 693.036 155.317 693.036C154.038 693.036 153.03 692.826 152.293 692.406C151.565 691.995 151.201 691.417 151.201 690.67ZM152.391 690.67C152.391 691.118 152.648 691.468 153.161 691.72C153.684 691.963 154.402 692.084 155.317 692.084C156.241 692.084 156.96 691.963 157.473 691.72C157.986 691.468 158.243 691.118 158.243 690.67C158.243 690.222 157.986 689.877 157.473 689.634C156.96 689.382 156.241 689.256 155.317 689.256C154.402 689.256 153.684 689.382 153.161 689.634C152.648 689.877 152.391 690.222 152.391 690.67ZM158.173 685.322V683.474H155.639C155.732 683.782 155.779 684.09 155.779 684.398C155.779 684.706 155.732 685.014 155.639 685.322H158.173ZM168.043 681.472V682.452H163.381V683.894H167.707V684.86H163.381V686.386C164.707 686.386 165.775 686.363 166.587 686.316C167.409 686.269 168.221 686.181 169.023 686.05L169.149 687.002C168.309 687.151 167.469 687.249 166.629 687.296C165.789 687.333 164.641 687.352 163.185 687.352H162.177V681.472H168.043ZM163.605 688.682H171.585V692.896H163.605V688.682ZM170.395 691.916V689.648H164.781V691.916H170.395ZM170.367 680.744H171.585V688.08H170.367V680.744ZM180.616 681.626V682.62H177.928V683.026C177.928 683.829 178.194 684.561 178.726 685.224C179.258 685.877 179.976 686.353 180.882 686.652L180.308 687.59C179.617 687.366 179.02 687.03 178.516 686.582C178.012 686.125 177.624 685.593 177.354 684.986C177.083 685.686 176.682 686.297 176.15 686.82C175.618 687.343 174.988 687.73 174.26 687.982L173.658 687.016C174.591 686.699 175.333 686.176 175.884 685.448C176.444 684.711 176.724 683.903 176.724 683.026V682.62H174.008V681.626H180.616ZM175.296 690.74C175.296 690.021 175.655 689.466 176.374 689.074C177.102 688.673 178.096 688.472 179.356 688.472C180.625 688.472 181.619 688.673 182.338 689.074C183.056 689.466 183.416 690.021 183.416 690.74C183.416 691.468 183.056 692.033 182.338 692.434C181.619 692.835 180.625 693.036 179.356 693.036C178.096 693.036 177.102 692.831 176.374 692.42C175.655 692.019 175.296 691.459 175.296 690.74ZM176.486 690.74C176.486 691.169 176.738 691.501 177.242 691.734C177.755 691.967 178.46 692.084 179.356 692.084C180.252 692.084 180.952 691.967 181.456 691.734C181.969 691.501 182.226 691.169 182.226 690.74C182.226 690.32 181.974 689.998 181.47 689.774C180.966 689.541 180.261 689.424 179.356 689.424C178.45 689.424 177.746 689.541 177.242 689.774C176.738 689.998 176.486 690.32 176.486 690.74ZM182.072 680.744H183.29V683.838H185.096V684.832H183.29V688.15H182.072V680.744ZM118.09 703.024C118.958 703.024 119.719 703.127 120.372 703.332C121.025 703.537 121.529 703.827 121.884 704.2C122.248 704.573 122.43 705.012 122.43 705.516C122.43 706.011 122.248 706.445 121.884 706.818C121.529 707.191 121.025 707.481 120.372 707.686C119.719 707.882 118.958 707.98 118.09 707.98C117.231 707.98 116.475 707.882 115.822 707.686C115.169 707.481 114.66 707.191 114.296 706.818C113.941 706.445 113.764 706.011 113.764 705.516C113.764 705.012 113.941 704.573 114.296 704.2C114.66 703.827 115.169 703.537 115.822 703.332C116.475 703.127 117.231 703.024 118.09 703.024ZM112.546 708.876H123.676V709.856H120.876V712.362H119.658V709.856H117.614V712.362H116.396V709.856H112.546V708.876ZM113.89 711.326H115.094V713.804H122.528V714.784H113.89V711.326ZM115.052 705.516C115.052 705.973 115.327 706.337 115.878 706.608C116.438 706.869 117.175 707 118.09 707C119.014 707 119.751 706.869 120.302 706.608C120.862 706.337 121.142 705.973 121.142 705.516C121.142 705.059 120.862 704.695 120.302 704.424C119.751 704.153 119.014 704.018 118.09 704.018C117.175 704.018 116.438 704.153 115.878 704.424C115.327 704.695 115.052 705.059 115.052 705.516ZM134.89 702.716V715.078H133.672V702.716H134.89ZM125.44 703.878H131.152V708.316H126.686V711.102C127.75 711.102 128.74 711.069 129.654 711.004C130.578 710.939 131.544 710.827 132.552 710.668L132.678 711.662C131.652 711.83 130.662 711.947 129.71 712.012C128.758 712.068 127.69 712.096 126.504 712.096H125.468V707.336H129.934V704.858H125.44V703.878ZM145.937 707.532V705.95H142.913C142.521 706.93 141.872 707.77 140.967 708.47C140.071 709.17 138.96 709.716 137.635 710.108L137.145 709.142C138.61 708.722 139.763 708.125 140.603 707.35C141.452 706.566 141.928 705.661 142.031 704.634H137.789V703.64H143.347C143.347 704.107 143.305 704.55 143.221 704.97H145.937V702.73H147.155V710.08H145.937V708.512H142.787V707.532H145.937ZM139.049 712.614C139.049 711.867 139.413 711.284 140.141 710.864C140.878 710.435 141.877 710.22 143.137 710.22C144.387 710.22 145.377 710.435 146.105 710.864C146.842 711.284 147.211 711.867 147.211 712.614C147.211 713.351 146.842 713.93 146.105 714.35C145.377 714.779 144.387 714.994 143.137 714.994C141.877 714.994 140.878 714.779 140.141 714.35C139.413 713.93 139.049 713.351 139.049 712.614ZM140.253 712.614C140.253 713.062 140.509 713.412 141.023 713.664C141.545 713.916 142.25 714.042 143.137 714.042C144.033 714.042 144.737 713.916 145.251 713.664C145.764 713.412 146.021 713.062 146.021 712.614C146.021 712.166 145.764 711.816 145.251 711.564C144.737 711.303 144.033 711.172 143.137 711.172C142.25 711.172 141.545 711.303 141.023 711.564C140.509 711.816 140.253 712.166 140.253 712.614ZM152.601 703.458C153.105 703.458 153.572 703.551 154.001 703.738C154.43 703.915 154.79 704.167 155.079 704.494H158.173V702.744H159.391V710.01H158.173V708.316H155.065C154.776 708.643 154.416 708.895 153.987 709.072C153.567 709.249 153.105 709.338 152.601 709.338C152.004 709.338 151.462 709.212 150.977 708.96C150.492 708.708 150.109 708.358 149.829 707.91C149.549 707.462 149.409 706.958 149.409 706.398C149.409 705.838 149.549 705.334 149.829 704.886C150.109 704.438 150.492 704.088 150.977 703.836C151.462 703.584 152.004 703.458 152.601 703.458ZM150.571 706.398C150.571 706.958 150.762 707.415 151.145 707.77C151.528 708.125 152.013 708.302 152.601 708.302C153.189 708.302 153.67 708.125 154.043 707.77C154.426 707.415 154.617 706.958 154.617 706.398C154.617 705.838 154.426 705.381 154.043 705.026C153.67 704.671 153.189 704.494 152.601 704.494C152.013 704.494 151.528 704.671 151.145 705.026C150.762 705.381 150.571 705.838 150.571 706.398ZM151.201 712.67C151.201 711.923 151.565 711.345 152.293 710.934C153.03 710.514 154.038 710.304 155.317 710.304C156.596 710.304 157.599 710.514 158.327 710.934C159.064 711.345 159.433 711.923 159.433 712.67C159.433 713.417 159.064 713.995 158.327 714.406C157.599 714.826 156.596 715.036 155.317 715.036C154.038 715.036 153.03 714.826 152.293 714.406C151.565 713.995 151.201 713.417 151.201 712.67ZM152.391 712.67C152.391 713.118 152.648 713.468 153.161 713.72C153.684 713.963 154.402 714.084 155.317 714.084C156.241 714.084 156.96 713.963 157.473 713.72C157.986 713.468 158.243 713.118 158.243 712.67C158.243 712.222 157.986 711.877 157.473 711.634C156.96 711.382 156.241 711.256 155.317 711.256C154.402 711.256 153.684 711.382 153.161 711.634C152.648 711.877 152.391 712.222 152.391 712.67ZM158.173 707.322V705.474H155.639C155.732 705.782 155.779 706.09 155.779 706.398C155.779 706.706 155.732 707.014 155.639 707.322H158.173ZM171.067 702.73V705.712H172.859V706.706H171.067V709.702H169.849V702.73H171.067ZM162.051 703.556H167.469V704.536H163.255V708.05C164.487 708.05 165.491 708.022 166.265 707.966C167.049 707.91 167.824 707.803 168.589 707.644L168.729 708.624C167.927 708.792 167.115 708.904 166.293 708.96C165.481 709.016 164.389 709.044 163.017 709.044H162.051V703.556ZM163.297 710.332H171.067V714.882H163.297V710.332ZM169.877 713.902V711.298H164.487V713.902H169.877ZM183.318 702.73V705.908H185.096V706.916H183.318V710.038H182.1V702.73H183.318ZM174.26 703.654H179.706V704.662H175.464V708.106C176.705 708.106 177.718 708.078 178.502 708.022C179.286 707.966 180.065 707.863 180.84 707.714L180.98 708.68C180.158 708.848 179.332 708.96 178.502 709.016C177.671 709.072 176.579 709.1 175.226 709.1H174.26V703.654ZM175.296 712.67C175.296 711.923 175.66 711.34 176.388 710.92C177.116 710.491 178.11 710.276 179.37 710.276C180.62 710.276 181.61 710.491 182.338 710.92C183.066 711.34 183.43 711.923 183.43 712.67C183.43 713.417 183.066 713.995 182.338 714.406C181.619 714.826 180.63 715.036 179.37 715.036C178.11 715.036 177.116 714.826 176.388 714.406C175.66 713.995 175.296 713.417 175.296 712.67ZM176.486 712.67C176.486 713.099 176.742 713.44 177.256 713.692C177.769 713.935 178.474 714.056 179.37 714.056C180.266 714.056 180.966 713.935 181.47 713.692C181.983 713.44 182.24 713.099 182.24 712.67C182.24 712.222 181.983 711.877 181.47 711.634C180.966 711.382 180.266 711.256 179.37 711.256C178.464 711.256 177.755 711.382 177.242 711.634C176.738 711.877 176.486 712.222 176.486 712.67ZM192.838 703.99V704.998H190.15V706.44C190.15 707.084 190.285 707.737 190.556 708.4C190.827 709.063 191.2 709.665 191.676 710.206C192.161 710.738 192.703 711.144 193.3 711.424L192.614 712.39C191.933 712.054 191.321 711.559 190.78 710.906C190.248 710.243 189.842 709.501 189.562 708.68C189.282 709.576 188.862 710.383 188.302 711.102C187.751 711.821 187.135 712.353 186.454 712.698L185.74 711.732C186.328 711.443 186.869 711.013 187.364 710.444C187.859 709.875 188.246 709.235 188.526 708.526C188.815 707.817 188.96 707.121 188.96 706.44V704.998H186.174V703.99H192.838ZM194.224 702.744H195.442V707.686H197.43V708.694H195.442V715.064H194.224V702.744Z" fill="#71717A"/>
<path d="M301 614.5H482C486.142 614.5 489.5 617.858 489.5 622V752C489.5 756.142 486.142 759.5 482 759.5H301C296.858 759.5 293.5 756.142 293.5 752V622C293.5 617.858 296.858 614.5 301 614.5Z" fill="white"/>
<path d="M301 614.5H482C486.142 614.5 489.5 617.858 489.5 622V752C489.5 756.142 486.142 759.5 482 759.5H301C296.858 759.5 293.5 756.142 293.5 752V622C293.5 617.858 296.858 614.5 301 614.5Z" stroke="#E4E4E7"/>
<path d="M326.352 642.66H327.892V655.134H326.352V652.278H323.734V651.088H326.352V642.66ZM317.42 649.086C319.744 649.086 322.824 649.072 325.498 648.708L325.596 649.814C324.462 650.01 323.286 650.136 322.152 650.22V654.756H320.612V650.304C319.534 650.346 318.526 650.346 317.602 650.346L317.42 649.086ZM318.288 645.74C318.288 644.242 319.604 643.234 321.452 643.234C323.3 643.234 324.602 644.242 324.602 645.74C324.602 647.252 323.3 648.246 321.452 648.246C319.604 648.246 318.288 647.252 318.288 645.74ZM319.744 645.74C319.744 646.58 320.444 647.084 321.452 647.084C322.46 647.084 323.146 646.58 323.146 645.74C323.146 644.914 322.46 644.382 321.452 644.382C320.444 644.382 319.744 644.914 319.744 645.74ZM336.012 643.906C336.012 647.658 334.906 650.892 330.482 653.188L329.628 652.012C331.686 650.948 332.96 649.702 333.688 648.232L329.894 648.568L329.698 647.266L334.164 647C334.332 646.412 334.444 645.782 334.486 645.124H330.342V643.906H336.012ZM335.984 648.792V647.532H338.504V642.674H340.044V655.134H338.504V648.792H335.984ZM350.699 642.646H352.239V649.422H350.699V642.646ZM342.103 644.83V643.654H345.085V642.534H346.625V643.654H349.621V644.83H342.103ZM342.789 647.28C342.789 646.02 344.007 645.236 345.869 645.236C347.745 645.236 348.949 646.02 348.949 647.28C348.949 648.54 347.745 649.31 345.869 649.31C344.007 649.31 342.789 648.54 342.789 647.28ZM344.035 651.102V649.968H352.239V652.992H345.561V653.874H352.589V655.022H344.049V651.928H350.713V651.102H344.035ZM344.245 647.28C344.245 647.882 344.875 648.204 345.869 648.204C346.849 648.204 347.479 647.882 347.479 647.28C347.479 646.664 346.849 646.342 345.869 646.342C344.875 646.342 344.245 646.664 344.245 647.28Z" fill="#15151A"/>
<path d="M323.09 681.024C325.708 681.024 327.43 681.99 327.43 683.516C327.43 685.028 325.708 685.98 323.09 685.98C320.486 685.98 318.764 685.028 318.764 683.516C318.764 681.99 320.486 681.024 323.09 681.024ZM317.546 687.856V686.876H328.676V687.856H325.876V690.362H324.658V687.856H322.614V690.362H321.396V687.856H317.546ZM318.89 692.784V689.326H320.094V691.804H327.528V692.784H318.89ZM320.052 683.516C320.052 684.44 321.27 685 323.09 685C324.924 685 326.142 684.44 326.142 683.516C326.142 682.592 324.924 682.018 323.09 682.018C321.27 682.018 320.052 682.592 320.052 683.516ZM338.672 680.716H339.89V693.078H338.672V680.716ZM330.44 682.858V681.878H336.152V686.316H331.686V689.102C333.702 689.102 335.452 689.004 337.552 688.668L337.678 689.662C335.48 690.026 333.632 690.096 331.504 690.096H330.468V685.336H334.934V682.858H330.44ZM347.787 685.532H350.937V683.95H347.913C347.129 685.924 345.267 687.338 342.635 688.108L342.145 687.142C345.085 686.302 346.821 684.692 347.031 682.634H342.789V681.64H348.347C348.347 682.102 348.305 682.55 348.221 682.97H350.937V680.73H352.155V688.08H350.937V686.512H347.787V685.532ZM344.049 690.614C344.049 689.116 345.631 688.22 348.137 688.22C350.615 688.22 352.211 689.116 352.211 690.614C352.211 692.098 350.615 692.994 348.137 692.994C345.631 692.994 344.049 692.098 344.049 690.614ZM345.253 690.614C345.253 691.51 346.373 692.042 348.137 692.042C349.915 692.042 351.021 691.51 351.021 690.614C351.021 689.704 349.915 689.172 348.137 689.172C346.373 689.172 345.253 689.704 345.253 690.614ZM357.601 681.458C358.623 681.458 359.505 681.85 360.079 682.494H363.173V680.744H364.391V688.01H363.173V686.316H360.065C359.491 686.96 358.609 687.338 357.601 687.338C355.781 687.338 354.409 686.12 354.409 684.398C354.409 682.676 355.781 681.458 357.601 681.458ZM355.571 684.398C355.571 685.518 356.439 686.302 357.601 686.302C358.763 686.302 359.617 685.518 359.617 684.398C359.617 683.264 358.763 682.494 357.601 682.494C356.439 682.494 355.571 683.264 355.571 684.398ZM356.201 690.67C356.201 689.172 357.769 688.304 360.317 688.304C362.851 688.304 364.433 689.172 364.433 690.67C364.433 692.168 362.851 693.036 360.317 693.036C357.769 693.036 356.201 692.168 356.201 690.67ZM357.391 690.67C357.391 691.566 358.497 692.084 360.317 692.084C362.151 692.084 363.243 691.566 363.243 690.67C363.243 689.774 362.151 689.256 360.317 689.256C358.497 689.256 357.391 689.774 357.391 690.67ZM360.639 685.322H363.173V683.474H360.639C360.723 683.754 360.779 684.076 360.779 684.398C360.779 684.72 360.723 685.042 360.639 685.322ZM374.849 680.73H376.067V683.712H377.859V684.706H376.067V687.702H374.849V680.73ZM367.051 687.044V681.556H372.469V682.536H368.255V686.05C370.649 686.05 372.021 685.966 373.589 685.644L373.729 686.624C372.049 686.974 370.621 687.044 368.017 687.044H367.051ZM368.297 692.882V688.332H376.067V692.882H368.297ZM369.487 691.902H374.877V689.298H369.487V691.902ZM387.1 680.73H388.318V683.908H390.096V684.916H388.318V688.038H387.1V680.73ZM379.26 687.1V681.654H384.706V682.662H380.464V686.106C382.886 686.106 384.258 686.022 385.84 685.714L385.98 686.68C384.3 687.016 382.844 687.1 380.226 687.1H379.26ZM380.296 690.67C380.296 689.172 381.864 688.276 384.37 688.276C386.862 688.276 388.43 689.172 388.43 690.67C388.43 692.168 386.862 693.036 384.37 693.036C381.864 693.036 380.296 692.168 380.296 690.67ZM381.486 690.67C381.486 691.538 382.578 692.056 384.37 692.056C386.148 692.056 387.24 691.538 387.24 690.67C387.24 689.76 386.148 689.256 384.37 689.256C382.578 689.256 381.486 689.76 381.486 690.67ZM391.174 681.99H397.838V682.998H395.15V684.44C395.15 686.386 396.48 688.57 398.3 689.424L397.614 690.39C396.242 689.718 395.122 688.304 394.562 686.68C394.002 688.444 392.84 689.998 391.454 690.698L390.74 689.732C392.532 688.85 393.96 686.526 393.96 684.44V682.998H391.174V681.99ZM399.224 693.064V680.744H400.442V685.686H402.43V686.694H400.442V693.064H399.224Z" fill="#71717A"/>
<path d="M506 614.5H687C691.142 614.5 694.5 617.858 694.5 622V752C694.5 756.142 691.142 759.5 687 759.5H506C501.858 759.5 498.5 756.142 498.5 752V622C498.5 617.858 501.858 614.5 506 614.5Z" fill="white"/>
<path d="M506 614.5H687C691.142 614.5 694.5 617.858 694.5 622V752C694.5 756.142 691.142 759.5 687 759.5H506C501.858 759.5 498.5 756.142 498.5 752V622C498.5 617.858 501.858 614.5 506 614.5Z" stroke="#E4E4E7"/>
<path d="M524.282 651.172C524.884 652.348 525.738 652.936 526.634 652.936C527.964 652.95 528.706 652.306 528.706 651.312C528.706 648.96 523.512 649.968 523.512 646.37C523.512 644.662 524.912 643.654 526.83 643.668C528.16 643.682 529.434 644.424 530.008 646.034L528.678 646.51C528.314 645.432 527.586 644.97 526.816 644.956C525.71 644.956 524.996 645.502 524.996 646.37C524.996 648.694 530.176 647.812 530.176 651.326C530.176 653.062 528.818 654.252 526.62 654.224C525.108 654.21 523.904 653.342 523.05 651.858L524.282 651.172ZM540.217 643.78L536.129 648.372L540.301 654.112H538.453L535.107 649.52L533.833 650.92V654.112H532.349V643.794H533.833V648.708L538.229 643.78H540.217ZM542.148 643.92H543.66V650.766C544.864 650.738 545.984 650.668 547.258 650.402L547.454 651.69C545.914 652.026 544.542 652.082 543.002 652.082H542.148V643.92ZM545.606 647.952V646.692H548.196V642.912H549.624V654.532H548.196V647.952H545.606ZM550.842 655.12V642.66H552.298V655.12H550.842ZM555.239 643.626H563.807V644.858H556.793V646.384H563.527V647.588H556.793V649.184H563.919V650.416H555.239V643.626ZM553.867 653.622V652.376H565.151V653.622H553.867ZM574.923 642.674H576.449V650.906H574.923V650.318H572.403V649.254H574.923V642.674ZM566.019 647.728C568.273 647.728 571.353 647.7 573.985 647.35L574.083 648.414C572.977 648.61 571.801 648.722 570.667 648.806V650.808H569.155V648.876C568.105 648.918 567.097 648.932 566.215 648.932L566.019 647.728ZM566.943 645.026C566.943 643.794 568.203 642.968 570.051 642.968C571.885 642.968 573.145 643.794 573.145 645.026C573.145 646.272 571.885 647.084 570.051 647.084C568.203 647.084 566.943 646.272 566.943 645.026ZM567.741 652.586V651.382H576.449V655.134H574.923V652.586H567.741ZM568.385 645.026C568.385 645.642 569.043 646.006 570.051 646.006C571.059 646.006 571.703 645.642 571.703 645.026C571.703 644.424 571.059 644.06 570.051 644.06C569.043 644.06 568.385 644.424 568.385 645.026ZM583.113 643.43H584.737V644.354C584.737 646.286 586.585 648.218 589.175 648.666L588.503 649.94C586.417 649.52 584.723 648.26 583.925 646.594C583.113 648.246 581.419 649.52 579.347 649.94L578.689 648.666C581.237 648.204 583.113 646.272 583.113 644.354V643.43ZM578.339 653.538V652.278H589.623V653.538H578.339ZM596.82 646.692H599.41V642.646H600.936V655.148H599.41V647.938H596.82V646.692ZM590.45 651.34C592.452 650.388 593.586 647.98 593.586 645.642V643.668H595.126V645.642C595.126 647.952 596.204 650.234 598.178 651.13L597.268 652.362C595.882 651.676 594.902 650.36 594.356 648.75C593.81 650.458 592.802 651.858 591.402 652.572L590.45 651.34ZM611.548 642.646H613.088V655.148H611.548V642.646ZM603.456 652.194V643.682H604.982V646.804H607.964V643.682H609.476V652.194H603.456ZM604.982 650.962H607.964V648.008H604.982V650.962ZM619.822 643.43H621.446V644.354C621.446 646.286 623.294 648.218 625.884 648.666L625.212 649.94C623.126 649.52 621.432 648.26 620.634 646.594C619.822 648.246 618.128 649.52 616.056 649.94L615.398 648.666C617.946 648.204 619.822 646.272 619.822 644.354V643.43ZM615.048 653.538V652.278H626.332V653.538H615.048Z" fill="#15151A"/>
<path d="M523.554 681.332H532.654V682.326H528.902C528.944 683.754 530.806 684.958 533.018 685.238L532.556 686.218C530.526 685.924 528.762 684.93 528.104 683.53C527.446 684.93 525.682 685.924 523.638 686.218L523.176 685.238C525.402 684.958 527.25 683.74 527.292 682.326H523.554V681.332ZM522.518 688.038V687.058H533.676V688.038H528.804V690.474H527.586V688.038H522.518ZM523.918 692.798V689.284H525.136V691.818H532.444V692.798H523.918ZM535.356 681.374H536.56V683.222H539.766V681.374H540.956V683.726H543.7V680.744H544.918V687.464H543.7V684.72H540.956V687.03H535.356V681.374ZM536.56 686.036H539.766V684.16H536.56V686.036ZM536.994 692.882V688.052H538.184V689.48H543.714V688.052H544.904V692.882H536.994ZM538.184 691.902H543.714V690.46H538.184V691.902ZM552.787 685.532H555.937V683.95H552.913C552.129 685.924 550.267 687.338 547.635 688.108L547.145 687.142C550.085 686.302 551.821 684.692 552.031 682.634H547.789V681.64H553.347C553.347 682.102 553.305 682.55 553.221 682.97H555.937V680.73H557.155V688.08H555.937V686.512H552.787V685.532ZM549.049 690.614C549.049 689.116 550.631 688.22 553.137 688.22C555.615 688.22 557.211 689.116 557.211 690.614C557.211 692.098 555.615 692.994 553.137 692.994C550.631 692.994 549.049 692.098 549.049 690.614ZM550.253 690.614C550.253 691.51 551.373 692.042 553.137 692.042C554.915 692.042 556.021 691.51 556.021 690.614C556.021 689.704 554.915 689.172 553.137 689.172C551.373 689.172 550.253 689.704 550.253 690.614ZM562.601 681.458C563.623 681.458 564.505 681.85 565.079 682.494H568.173V680.744H569.391V688.01H568.173V686.316H565.065C564.491 686.96 563.609 687.338 562.601 687.338C560.781 687.338 559.409 686.12 559.409 684.398C559.409 682.676 560.781 681.458 562.601 681.458ZM560.571 684.398C560.571 685.518 561.439 686.302 562.601 686.302C563.763 686.302 564.617 685.518 564.617 684.398C564.617 683.264 563.763 682.494 562.601 682.494C561.439 682.494 560.571 683.264 560.571 684.398ZM561.201 690.67C561.201 689.172 562.769 688.304 565.317 688.304C567.851 688.304 569.433 689.172 569.433 690.67C569.433 692.168 567.851 693.036 565.317 693.036C562.769 693.036 561.201 692.168 561.201 690.67ZM562.391 690.67C562.391 691.566 563.497 692.084 565.317 692.084C567.151 692.084 568.243 691.566 568.243 690.67C568.243 689.774 567.151 689.256 565.317 689.256C563.497 689.256 562.391 689.774 562.391 690.67ZM565.639 685.322H568.173V683.474H565.639C565.723 683.754 565.779 684.076 565.779 684.398C565.779 684.72 565.723 685.042 565.639 685.322ZM572.177 681.472H578.043V682.452H573.381V683.894H577.707V684.86H573.381V686.386C575.887 686.386 577.343 686.33 579.023 686.05L579.149 687.002C577.371 687.31 575.859 687.352 573.185 687.352H572.177V681.472ZM573.605 692.896V688.682H581.585V692.896H573.605ZM574.781 691.916H580.395V689.648H574.781V691.916ZM580.367 688.08V680.744H581.585V688.08H580.367ZM584.008 681.626H590.616V682.62H587.928V683.026C587.928 684.608 589.048 686.05 590.882 686.652L590.308 687.59C588.908 687.128 587.886 686.19 587.354 684.986C586.822 686.372 585.73 687.464 584.26 687.982L583.658 687.016C585.534 686.372 586.724 684.776 586.724 683.026V682.62H584.008V681.626ZM585.296 690.74C585.296 689.298 586.85 688.472 589.356 688.472C591.876 688.472 593.416 689.298 593.416 690.74C593.416 692.196 591.876 693.036 589.356 693.036C586.85 693.036 585.296 692.196 585.296 690.74ZM586.486 690.74C586.486 691.594 587.564 692.084 589.356 692.084C591.148 692.084 592.226 691.594 592.226 690.74C592.226 689.9 591.148 689.424 589.356 689.424C587.564 689.424 586.486 689.9 586.486 690.74ZM592.072 688.15V680.744H593.29V683.838H595.096V684.832H593.29V688.15H592.072ZM528.09 714.154C525.136 714.154 523.064 711.998 523.064 708.946C523.064 705.88 525.136 703.738 528.09 703.738C529.49 703.738 530.736 704.34 531.646 705.264L530.862 705.964C530.176 705.222 529.154 704.774 528.09 704.774C525.822 704.774 524.254 706.482 524.254 708.946C524.254 711.41 525.822 713.118 528.09 713.118C529.182 713.118 530.148 712.656 530.82 711.942L531.646 712.628C530.736 713.552 529.504 714.154 528.09 714.154ZM536.092 713.09C537.254 713.09 538.052 712.166 538.052 710.822C538.052 709.478 537.254 708.54 536.092 708.54C534.944 708.54 534.146 709.464 534.146 710.822C534.146 712.18 534.93 713.09 536.092 713.09ZM532.984 710.822C532.984 708.89 534.272 707.504 536.092 707.504C537.926 707.504 539.228 708.89 539.228 710.822C539.228 712.74 537.926 714.126 536.092 714.126C534.272 714.126 532.984 712.74 532.984 710.822ZM549.14 710.15C549.14 709.198 548.58 708.554 547.768 708.554C546.83 708.554 546.186 709.17 546.186 710.038V714.042H545.01V710.15C545.01 709.198 544.464 708.554 543.666 708.554C542.714 708.554 542.056 709.352 542.056 710.276V714.042H540.894V707.518H542.056V708.456C542.448 707.896 543.092 707.518 543.708 707.518C544.52 707.518 545.318 708.008 545.696 708.722C546.13 708.008 546.984 707.518 547.796 707.518C549.266 707.518 550.316 708.568 550.316 710.066V714.042H549.14V710.15ZM555.296 713.09C556.486 713.09 557.284 712.166 557.284 710.808C557.284 709.464 556.486 708.526 555.296 708.526C554.218 708.526 553.308 709.562 553.308 710.808C553.308 712.068 554.218 713.09 555.296 713.09ZM552.132 717.024V707.504H553.294V708.61C553.784 707.868 554.68 707.504 555.338 707.504C557.158 707.504 558.446 708.876 558.446 710.808C558.446 712.754 557.158 714.126 555.338 714.126C554.652 714.126 553.784 713.706 553.294 713.006V717.024H552.132ZM559.921 704.158H561.083V714.042H559.921V704.158ZM563.165 707.504H564.327V714.042H563.165V707.504ZM563.039 704.97C563.039 704.564 563.333 704.27 563.753 704.27C564.159 704.27 564.453 704.564 564.453 704.97C564.453 705.39 564.159 705.684 563.753 705.684C563.333 705.684 563.039 705.39 563.039 704.97ZM569.259 714.126C567.453 714.126 566.165 712.754 566.165 710.836C566.165 708.904 567.453 707.532 569.259 707.532C569.959 707.532 570.729 707.882 571.289 708.638V707.518H572.451V714.042H571.289V712.992C570.715 713.818 569.959 714.126 569.259 714.126ZM567.327 710.836C567.327 712.166 568.139 713.104 569.301 713.104C570.351 713.104 571.289 712.152 571.303 710.836C571.289 709.52 570.351 708.554 569.301 708.554C568.139 708.554 567.327 709.478 567.327 710.836ZM578.69 710.29C578.69 709.24 578.074 708.554 577.15 708.554C576.114 708.554 575.386 709.352 575.386 710.29V714.042H574.224V707.518H575.386V708.47C575.834 707.91 576.562 707.518 577.206 707.518C578.634 707.518 579.852 708.498 579.852 710.206V714.042H578.69V710.29ZM584.405 712.992C584.979 712.992 585.651 712.712 586.029 712.278L586.869 713.062C586.295 713.678 585.273 714.112 584.461 714.112C582.515 714.112 581.143 712.726 581.143 710.808C581.143 708.876 582.515 707.504 584.461 707.504C585.287 707.504 586.281 707.952 586.869 708.568L586.029 709.338C585.651 708.904 584.979 708.624 584.405 708.624C583.173 708.624 582.305 709.506 582.305 710.808C582.305 712.11 583.173 712.992 584.405 712.992ZM590.957 714.098C589.123 714.098 587.835 712.726 587.835 710.808C587.835 708.876 589.123 707.518 590.957 707.518C592.973 707.518 593.589 709.142 593.645 709.296C594.037 710.304 593.911 711.27 593.911 711.312H589.011C589.179 712.348 589.991 713.076 590.957 713.076C592.245 713.076 592.721 712.264 592.819 712.11L593.743 712.586C593.421 713.314 592.497 714.098 590.957 714.098ZM589.011 710.318L592.777 710.304C592.651 709.31 592.161 708.54 590.957 708.54C589.963 708.54 589.179 709.268 589.011 710.318ZM595.98 703.472H601.846V704.452H597.184V705.894H601.51V706.86H597.184V708.386C599.69 708.386 601.146 708.33 602.826 708.05L602.952 709.002C601.174 709.31 599.662 709.352 596.988 709.352H595.98V703.472ZM597.408 714.896V710.682H605.388V714.896H597.408ZM598.584 713.916H604.198V711.648H598.584V713.916ZM604.17 710.08V702.744H605.388V710.08H604.17ZM607.81 703.626H614.418V704.62H611.73V705.026C611.73 706.608 612.85 708.05 614.684 708.652L614.11 709.59C612.71 709.128 611.688 708.19 611.156 706.986C610.624 708.372 609.532 709.464 608.062 709.982L607.46 709.016C609.336 708.372 610.526 706.776 610.526 705.026V704.62H607.81V703.626ZM609.098 712.74C609.098 711.298 610.652 710.472 613.158 710.472C615.678 710.472 617.218 711.298 617.218 712.74C617.218 714.196 615.678 715.036 613.158 715.036C610.652 715.036 609.098 714.196 609.098 712.74ZM610.288 712.74C610.288 713.594 611.366 714.084 613.158 714.084C614.95 714.084 616.028 713.594 616.028 712.74C616.028 711.9 614.95 711.424 613.158 711.424C611.366 711.424 610.288 711.9 610.288 712.74ZM615.874 710.15V702.744H617.092V705.838H618.898V706.832H617.092V710.15H615.874Z" fill="#71717A"/>
<path d="M711 614.5H892C896.142 614.5 899.5 617.858 899.5 622V752C899.5 756.142 896.142 759.5 892 759.5H711C706.858 759.5 703.5 756.142 703.5 752V622C703.5 617.858 706.858 614.5 711 614.5Z" fill="white"/>
<path d="M711 614.5H892C896.142 614.5 899.5 617.858 899.5 622V752C899.5 756.142 896.142 759.5 892 759.5H711C706.858 759.5 703.5 756.142 703.5 752V622C703.5 617.858 706.858 614.5 711 614.5Z" stroke="#E4E4E7"/>
<path d="M729.282 651.172C729.884 652.348 730.738 652.936 731.634 652.936C732.964 652.95 733.706 652.306 733.706 651.312C733.706 648.96 728.512 649.968 728.512 646.37C728.512 644.662 729.912 643.654 731.83 643.668C733.16 643.682 734.434 644.424 735.008 646.034L733.678 646.51C733.314 645.432 732.586 644.97 731.816 644.956C730.71 644.956 729.996 645.502 729.996 646.37C729.996 648.694 735.176 647.812 735.176 651.326C735.176 653.062 733.818 654.252 731.62 654.224C730.108 654.21 728.904 653.342 728.05 651.858L729.282 651.172ZM745.217 643.78L741.129 648.372L745.301 654.112H743.453L740.107 649.52L738.833 650.92V654.112H737.349V643.794H738.833V648.708L743.229 643.78H745.217ZM755.814 642.66H757.27V655.12H755.814V648.736H754.512V654.532H753.07V642.898H754.512V647.49H755.814V642.66ZM747.022 651.928V644.004H751.866V651.928H747.022ZM748.45 650.724H750.438V645.208H748.45V650.724ZM767.603 642.66H769.143V650.178H767.603V642.66ZM758.951 648.75C760.939 648.078 761.975 646.454 761.975 644.816V644.676H759.357V643.458H766.147V644.676H763.543V644.816C763.543 646.37 764.621 647.882 766.567 648.526L765.783 649.716C764.369 649.268 763.361 648.316 762.801 647.126C762.241 648.414 761.205 649.436 759.735 649.94L758.951 648.75ZM760.729 652.012V650.78H769.143V655.134H767.603V652.012H760.729Z" fill="#15151A"/>
<path d="M733.314 685.532H736.464V683.95H733.44C732.656 685.924 730.794 687.338 728.162 688.108L727.672 687.142C730.612 686.302 732.348 684.692 732.558 682.634H728.316V681.64H733.874C733.874 682.102 733.832 682.55 733.748 682.97H736.464V680.73H737.682V688.08H736.464V686.512H733.314V685.532ZM729.576 690.614C729.576 689.116 731.158 688.22 733.664 688.22C736.142 688.22 737.738 689.116 737.738 690.614C737.738 692.098 736.142 692.994 733.664 692.994C731.158 692.994 729.576 692.098 729.576 690.614ZM730.78 690.614C730.78 691.51 731.9 692.042 733.664 692.042C735.442 692.042 736.548 691.51 736.548 690.614C736.548 689.704 735.442 689.172 733.664 689.172C731.9 689.172 730.78 689.704 730.78 690.614ZM743.128 681.458C744.15 681.458 745.032 681.85 745.606 682.494H748.7V680.744H749.918V688.01H748.7V686.316H745.592C745.018 686.96 744.136 687.338 743.128 687.338C741.308 687.338 739.936 686.12 739.936 684.398C739.936 682.676 741.308 681.458 743.128 681.458ZM741.098 684.398C741.098 685.518 741.966 686.302 743.128 686.302C744.29 686.302 745.144 685.518 745.144 684.398C745.144 683.264 744.29 682.494 743.128 682.494C741.966 682.494 741.098 683.264 741.098 684.398ZM741.728 690.67C741.728 689.172 743.296 688.304 745.844 688.304C748.378 688.304 749.96 689.172 749.96 690.67C749.96 692.168 748.378 693.036 745.844 693.036C743.296 693.036 741.728 692.168 741.728 690.67ZM742.918 690.67C742.918 691.566 744.024 692.084 745.844 692.084C747.678 692.084 748.77 691.566 748.77 690.67C748.77 689.774 747.678 689.256 745.844 689.256C744.024 689.256 742.918 689.774 742.918 690.67ZM746.166 685.322H748.7V683.474H746.166C746.25 683.754 746.306 684.076 746.306 684.398C746.306 684.72 746.25 685.042 746.166 685.322ZM752.481 681.724H759.215V682.718H756.471V683.32C756.471 684.958 757.717 686.456 759.551 687.072L758.935 688.024C757.521 687.548 756.429 686.54 755.883 685.266C755.351 686.638 754.245 687.73 752.775 688.248L752.145 687.296C754.021 686.638 755.239 685.042 755.239 683.32V682.718H752.481V681.724ZM754.161 692.784V688.892H755.365V691.804H762.477V692.784H754.161ZM760.895 689.746V680.744H762.113V689.746H760.895ZM772.613 680.73H773.831V684.356H775.637V685.35H773.831V689.648H772.613V680.73ZM764.815 687.506V681.78H770.261V682.774H766.019V686.498C768.413 686.498 769.785 686.414 771.353 686.092L771.493 687.072C769.813 687.408 768.385 687.506 765.781 687.506H764.815ZM766.131 692.784V688.752H767.335V691.804H774.363V692.784H766.131ZM777.177 681.472H783.043V682.452H778.381V683.894H782.707V684.86H778.381V686.386C780.887 686.386 782.343 686.33 784.023 686.05L784.149 687.002C782.371 687.31 780.859 687.352 778.185 687.352H777.177V681.472ZM778.605 692.896V688.682H786.585V692.896H778.605ZM779.781 691.916H785.395V689.648H779.781V691.916ZM785.367 688.08V680.744H786.585V688.08H785.367ZM789.008 681.626H795.616V682.62H792.928V683.026C792.928 684.608 794.048 686.05 795.882 686.652L795.308 687.59C793.908 687.128 792.886 686.19 792.354 684.986C791.822 686.372 790.73 687.464 789.26 687.982L788.658 687.016C790.534 686.372 791.724 684.776 791.724 683.026V682.62H789.008V681.626ZM790.296 690.74C790.296 689.298 791.85 688.472 794.356 688.472C796.876 688.472 798.416 689.298 798.416 690.74C798.416 692.196 796.876 693.036 794.356 693.036C791.85 693.036 790.296 692.196 790.296 690.74ZM791.486 690.74C791.486 691.594 792.564 692.084 794.356 692.084C796.148 692.084 797.226 691.594 797.226 690.74C797.226 689.9 796.148 689.424 794.356 689.424C792.564 689.424 791.486 689.9 791.486 690.74ZM797.072 688.15V680.744H798.29V683.838H800.096V684.832H798.29V688.15H797.072ZM733.09 703.024C735.708 703.024 737.43 703.99 737.43 705.516C737.43 707.028 735.708 707.98 733.09 707.98C730.486 707.98 728.764 707.028 728.764 705.516C728.764 703.99 730.486 703.024 733.09 703.024ZM727.546 709.856V708.876H738.676V709.856H735.876V712.362H734.658V709.856H732.614V712.362H731.396V709.856H727.546ZM728.89 714.784V711.326H730.094V713.804H737.528V714.784H728.89ZM730.052 705.516C730.052 706.44 731.27 707 733.09 707C734.924 707 736.142 706.44 736.142 705.516C736.142 704.592 734.924 704.018 733.09 704.018C731.27 704.018 730.052 704.592 730.052 705.516ZM748.672 702.716H749.89V715.078H748.672V702.716ZM740.44 704.858V703.878H746.152V708.316H741.686V711.102C743.702 711.102 745.452 711.004 747.552 710.668L747.678 711.662C745.48 712.026 743.632 712.096 741.504 712.096H740.468V707.336H744.934V704.858H740.44ZM757.787 707.532H760.937V705.95H757.913C757.129 707.924 755.267 709.338 752.635 710.108L752.145 709.142C755.085 708.302 756.821 706.692 757.031 704.634H752.789V703.64H758.347C758.347 704.102 758.305 704.55 758.221 704.97H760.937V702.73H762.155V710.08H760.937V708.512H757.787V707.532ZM754.049 712.614C754.049 711.116 755.631 710.22 758.137 710.22C760.615 710.22 762.211 711.116 762.211 712.614C762.211 714.098 760.615 714.994 758.137 714.994C755.631 714.994 754.049 714.098 754.049 712.614ZM755.253 712.614C755.253 713.51 756.373 714.042 758.137 714.042C759.915 714.042 761.021 713.51 761.021 712.614C761.021 711.704 759.915 711.172 758.137 711.172C756.373 711.172 755.253 711.704 755.253 712.614ZM767.601 703.458C768.623 703.458 769.505 703.85 770.079 704.494H773.173V702.744H774.391V710.01H773.173V708.316H770.065C769.491 708.96 768.609 709.338 767.601 709.338C765.781 709.338 764.409 708.12 764.409 706.398C764.409 704.676 765.781 703.458 767.601 703.458ZM765.571 706.398C765.571 707.518 766.439 708.302 767.601 708.302C768.763 708.302 769.617 707.518 769.617 706.398C769.617 705.264 768.763 704.494 767.601 704.494C766.439 704.494 765.571 705.264 765.571 706.398ZM766.201 712.67C766.201 711.172 767.769 710.304 770.317 710.304C772.851 710.304 774.433 711.172 774.433 712.67C774.433 714.168 772.851 715.036 770.317 715.036C767.769 715.036 766.201 714.168 766.201 712.67ZM767.391 712.67C767.391 713.566 768.497 714.084 770.317 714.084C772.151 714.084 773.243 713.566 773.243 712.67C773.243 711.774 772.151 711.256 770.317 711.256C768.497 711.256 767.391 711.774 767.391 712.67ZM770.639 707.322H773.173V705.474H770.639C770.723 705.754 770.779 706.076 770.779 706.398C770.779 706.72 770.723 707.042 770.639 707.322ZM784.849 702.73H786.067V705.712H787.859V706.706H786.067V709.702H784.849V702.73ZM777.051 709.044V703.556H782.469V704.536H778.255V708.05C780.649 708.05 782.021 707.966 783.589 707.644L783.729 708.624C782.049 708.974 780.621 709.044 778.017 709.044H777.051ZM778.297 714.882V710.332H786.067V714.882H778.297ZM779.487 713.902H784.877V711.298H779.487V713.902ZM797.1 702.73H798.318V705.908H800.096V706.916H798.318V710.038H797.1V702.73ZM789.26 709.1V703.654H794.706V704.662H790.464V708.106C792.886 708.106 794.258 708.022 795.84 707.714L795.98 708.68C794.3 709.016 792.844 709.1 790.226 709.1H789.26ZM790.296 712.67C790.296 711.172 791.864 710.276 794.37 710.276C796.862 710.276 798.43 711.172 798.43 712.67C798.43 714.168 796.862 715.036 794.37 715.036C791.864 715.036 790.296 714.168 790.296 712.67ZM791.486 712.67C791.486 713.538 792.578 714.056 794.37 714.056C796.148 714.056 797.24 713.538 797.24 712.67C797.24 711.76 796.148 711.256 794.37 711.256C792.578 711.256 791.486 711.76 791.486 712.67ZM801.174 703.99H807.838V704.998H805.15V706.44C805.15 708.386 806.48 710.57 808.3 711.424L807.614 712.39C806.242 711.718 805.122 710.304 804.562 708.68C804.002 710.444 802.84 711.998 801.454 712.698L800.74 711.732C802.532 710.85 803.96 708.526 803.96 706.44V704.998H801.174V703.99ZM809.224 715.064V702.744H810.442V707.686H812.43V708.694H810.442V715.064H809.224Z" fill="#71717A"/>
<rect x="940" y="537" width="196" height="247" rx="8" fill="#F6F6F7"/>
<path d="M1008.44 567.438H1010.42V579.12H1008.44V567.438ZM999.907 578.022H1001.89V581.55H1010.87V583.134H999.907V578.022ZM1001.11 568.302H1003.11V569.904C1003.11 572.1 1004.41 574.224 1006.94 575.07L1005.92 576.654C1004.12 576.006 1002.84 574.728 1002.14 573.09C1001.44 574.836 1000.12 576.24 998.233 576.924L997.225 575.358C999.799 574.422 1001.11 572.154 1001.11 569.904V568.302ZM1014.7 568.392H1025.52V569.472C1025.52 570.858 1025.52 572.694 1025.05 575.322H1027.43V576.924H1023.87V583.494H1021.89V576.924H1018.34V583.494H1016.38V576.924H1012.94V575.322H1023.06C1023.52 573.036 1023.58 571.308 1023.58 569.994H1014.7V568.392ZM1033.09 569.004H1041.84V570.642H1038.51V571.974C1038.51 574.44 1039.98 577.284 1042.49 578.454L1041.39 580.02C1039.59 579.156 1038.27 577.446 1037.55 575.466C1036.83 577.644 1035.47 579.516 1033.63 580.416L1032.5 578.85C1035 577.644 1036.55 574.638 1036.55 571.974V570.642H1033.09V569.004ZM1043.28 567.438H1045.28V573.684H1047.71V575.322H1045.28V583.458H1043.28V567.438ZM1059.8 567.438H1061.76V583.458H1059.8V567.438ZM1048.62 579.012C1049.87 579.012 1051.29 579.012 1052.78 578.976V577.482C1051 577.194 1049.85 576.096 1049.85 574.566C1049.85 572.766 1051.43 571.578 1053.77 571.578C1056.09 571.578 1057.71 572.766 1057.71 574.566C1057.71 576.096 1056.54 577.194 1054.76 577.482V578.904C1056.17 578.832 1057.57 578.724 1058.9 578.544L1059.03 579.966C1055.52 580.614 1051.74 580.632 1048.86 580.632L1048.62 579.012ZM1048.93 569.274H1052.78V567.474H1054.76V569.274H1058.61V570.822H1048.93V569.274ZM1053.77 573.072C1052.57 573.072 1051.72 573.63 1051.72 574.566C1051.72 575.502 1052.57 576.06 1053.77 576.06C1055 576.06 1055.82 575.502 1055.82 574.566C1055.82 573.63 1055 573.072 1053.77 573.072ZM1068.01 568.734H1069.97V571.254C1069.97 574.098 1071.36 577.032 1073.82 578.238L1072.62 579.804C1070.91 578.922 1069.68 577.248 1069 575.214C1068.3 577.392 1067 579.192 1065.18 580.11L1064 578.508C1066.55 577.284 1068.01 574.206 1068.01 571.254V568.734ZM1074.74 567.438H1076.74V573.72H1079.19V575.376H1076.74V583.458H1074.74V567.438Z" fill="#15151A"/>
<path d="M972 614.5H1104C1108.14 614.5 1111.5 617.858 1111.5 622V748C1111.5 752.142 1108.14 755.5 1104 755.5H972C967.858 755.5 964.5 752.142 964.5 748V622C964.5 617.858 967.858 614.5 972 614.5Z" fill="white"/>
<path d="M972 614.5H1104C1108.14 614.5 1111.5 617.858 1111.5 622V748C1111.5 752.142 1108.14 755.5 1104 755.5H972C967.858 755.5 964.5 752.142 964.5 748V622C964.5 617.858 967.858 614.5 972 614.5Z" stroke="#E4E4E7"/>
<path d="M1006.39 665.298C1006.92 666.362 1007.82 667.118 1008.87 667.118C1010.24 667.146 1011.1 666.446 1011.1 665.354C1011.1 662.75 1005.86 663.842 1005.86 660.3C1005.86 658.662 1007.23 657.724 1009.05 657.738C1010.45 657.766 1011.59 658.508 1012.08 659.992L1011.03 660.356C1010.72 659.362 1009.96 658.788 1009.04 658.774C1007.86 658.76 1007.02 659.32 1007.02 660.3C1007.02 662.876 1012.26 661.826 1012.26 665.368C1012.26 667.048 1010.94 668.182 1008.86 668.154C1007.37 668.126 1006.24 667.3 1005.4 665.83L1006.39 665.298ZM1021.76 657.85L1017.7 662.372L1021.84 668.042H1020.39L1016.9 663.282L1015.65 664.654V668.042H1014.48V657.864H1015.65V662.904L1020.18 657.85H1021.76ZM1026.75 657.178C1028.6 657.178 1029.97 658.298 1029.97 659.922C1029.97 661.532 1028.6 662.638 1026.75 662.638C1024.92 662.638 1023.56 661.532 1023.56 659.922C1023.56 658.298 1024.92 657.178 1026.75 657.178ZM1024.74 659.922C1024.74 660.958 1025.6 661.658 1026.75 661.658C1027.93 661.658 1028.78 660.958 1028.78 659.922C1028.78 658.872 1027.93 658.158 1026.75 658.158C1025.6 658.158 1024.74 658.872 1024.74 659.922ZM1025.42 664.57V663.618H1033.42V666.656H1026.63V667.93H1033.82V668.896H1025.46V665.76H1032.21V664.57H1025.42ZM1032.2 663.03V656.744H1033.42V663.03H1032.2ZM1037.7 665.004H1045.93V669.064H1044.73V665.998H1037.7V665.004ZM1036.06 658.634V657.654H1040.43V661.14H1037.25V662.89C1038.79 662.876 1039.98 662.792 1041.34 662.526L1041.48 663.506C1039.95 663.786 1038.67 663.856 1036.89 663.856H1036.1V660.244H1039.25V658.634H1036.06ZM1040.91 660.86V659.866H1042.36V656.982H1043.51V664.346H1042.36V660.86H1040.91ZM1044.78 664.416V656.73H1045.93V664.416H1044.78ZM1056.67 656.744H1057.89V664.318H1056.67V656.744ZM1048.38 658.494V657.514H1053.98V660.958H1049.6V662.596C1051.77 662.596 1053.37 662.512 1055.24 662.218L1055.4 663.198C1053.4 663.52 1051.73 663.59 1049.42 663.59H1048.41V660.02H1052.79V658.494H1048.38ZM1049.67 666.796C1049.67 665.368 1051.25 664.556 1053.83 664.556C1056.39 664.556 1057.97 665.368 1057.97 666.796C1057.97 668.224 1056.39 669.036 1053.83 669.036C1051.25 669.036 1049.67 668.224 1049.67 666.796ZM1050.89 666.796C1050.89 667.622 1051.97 668.084 1053.83 668.084C1055.66 668.084 1056.77 667.622 1056.77 666.796C1056.77 665.998 1055.66 665.522 1053.83 665.522C1051.97 665.522 1050.89 665.998 1050.89 666.796ZM1061.33 657.962H1069.82V659.46C1069.82 661.266 1069.82 662.96 1069.3 665.494L1068.1 665.382C1068.35 664.234 1068.49 663.212 1068.56 662.274L1061.18 662.68L1061.01 661.686L1068.6 661.378C1068.63 660.72 1068.63 660.09 1068.63 659.46V658.956H1061.33V657.962ZM1060.02 667.37V666.362H1071.16V667.37H1060.02ZM1023.08 679.696C1024.56 679.696 1025.65 680.704 1025.85 682.216H1027.07V678.968H1028.21V687.592H1027.07V683.224H1025.83C1025.64 684.708 1024.55 685.688 1023.08 685.688C1021.47 685.688 1020.28 684.47 1020.28 682.692C1020.28 680.928 1021.47 679.696 1023.08 679.696ZM1021.38 682.692C1021.38 683.854 1022.1 684.666 1023.08 684.666C1024.06 684.666 1024.78 683.854 1024.78 682.692C1024.78 681.53 1024.06 680.732 1023.08 680.732C1022.1 680.732 1021.38 681.53 1021.38 682.692ZM1022.5 690.784V686.766H1023.72V689.804H1030.93V690.784H1022.5ZM1029.42 687.928V678.744H1030.57V687.928H1029.42ZM1033.73 679.906H1042.24V681.068C1042.24 682.566 1042.24 684.26 1041.72 686.808L1040.52 686.668C1040.76 685.59 1040.88 684.652 1040.95 683.798L1033.56 684.218L1033.39 683.168L1041.01 682.874C1041.04 682.216 1041.04 681.628 1041.04 681.068V680.9H1033.73V679.906ZM1032.41 689.398V688.404H1036.7V685.254H1037.9V688.404H1043.54V689.398H1032.41ZM1047.94 679.668C1049.75 679.668 1051.03 681.334 1051.03 683.98C1051.03 686.612 1049.75 688.292 1047.94 688.292C1046.12 688.292 1044.82 686.612 1044.82 683.98C1044.82 681.334 1046.12 679.668 1047.94 679.668ZM1045.98 683.98C1045.98 685.954 1046.78 687.214 1047.94 687.214C1049.09 687.214 1049.89 685.954 1049.89 683.98C1049.89 682.006 1049.09 680.76 1047.94 680.76C1046.78 680.76 1045.98 682.006 1045.98 683.98ZM1052.94 691.064V678.744H1054.16V683.63H1056.14V684.638H1054.16V691.064H1052.94ZM1026.94 701.78H1032.71V707.562H1026.94V701.78ZM1028.12 706.582H1031.53V702.76H1028.12V706.582ZM1028.47 712.658V708.738H1029.67V711.678H1036.78V712.658H1028.47ZM1035.19 709.578V700.744H1036.4V709.578H1035.19ZM1039.25 701.654H1045.11V702.634H1040.45V704.132H1044.78V705.098H1040.45V706.666C1042.96 706.666 1044.4 706.61 1046.09 706.316L1046.22 707.296C1044.44 707.59 1042.91 707.646 1040.25 707.646H1039.25V701.654ZM1039.92 712.07C1042.19 711.706 1044.02 710.432 1044.02 708.766V708.542H1045.28V708.766C1045.28 710.432 1047.09 711.706 1049.35 712.07L1048.89 713.022C1047 712.686 1045.36 711.776 1044.64 710.404C1043.91 711.776 1042.28 712.686 1040.39 713.022L1039.92 712.07ZM1047.44 709.256V700.744H1048.65V709.256H1047.44Z" fill="#71717A"/>
<path d="M600 368.5H700" stroke="#71717A"/>
<path d="M700 312C700 307.582 703.582 304 708 304H1062C1066.42 304 1070 307.582 1070 312V425C1070 429.418 1066.42 433 1062 433H708C703.582 433 700 429.418 700 425V312Z" fill="#F5EBFB"/>
<path d="M805.545 345.364C806.319 346.876 807.417 347.632 808.569 347.632C810.279 347.65 811.233 346.822 811.233 345.544C811.233 342.52 804.555 343.816 804.555 339.19C804.555 336.994 806.355 335.698 808.821 335.716C810.531 335.734 812.169 336.688 812.907 338.758L811.197 339.37C810.729 337.984 809.793 337.39 808.803 337.372C807.381 337.372 806.463 338.074 806.463 339.19C806.463 342.178 813.123 341.044 813.123 345.562C813.123 347.794 811.377 349.324 808.551 349.288C806.607 349.27 805.059 348.154 803.961 346.246L805.545 345.364ZM816.537 349.162V342.214H814.917V340.558H816.537V337.552H818.445V340.558H820.479V342.214H818.445V349.162H816.537ZM825.969 349.198C823.539 349.198 821.829 347.416 821.829 344.896C821.829 342.358 823.539 340.576 825.969 340.576C828.633 340.576 829.479 342.754 829.533 342.898C830.055 344.122 829.893 345.49 829.893 345.634H823.701C823.917 346.786 824.889 347.578 825.969 347.578C827.391 347.578 827.967 346.75 828.111 346.498L829.641 347.182C829.227 348.154 828.021 349.198 825.969 349.198ZM828.093 344.122C827.913 343.06 827.301 342.196 825.969 342.196C824.817 342.196 823.917 343.006 823.701 344.122H828.093ZM835.796 349.198C833.366 349.198 831.656 347.416 831.656 344.896C831.656 342.358 833.366 340.576 835.796 340.576C838.46 340.576 839.306 342.754 839.36 342.898C839.882 344.122 839.72 345.49 839.72 345.634H833.528C833.744 346.786 834.716 347.578 835.796 347.578C837.218 347.578 837.794 346.75 837.938 346.498L839.468 347.182C839.054 348.154 837.848 349.198 835.796 349.198ZM837.92 344.122C837.74 343.06 837.128 342.196 835.796 342.196C834.644 342.196 833.744 343.006 833.528 344.122H837.92ZM841.663 349.162V340.576H843.571V341.836C844.147 341.026 845.191 340.486 846.199 340.54V342.304C844.669 342.232 843.571 343.582 843.571 344.896V349.162H841.663ZM848.384 340.558H850.292V349.144H848.384V340.558ZM849.338 336.274C849.968 336.274 850.418 336.724 850.418 337.354C850.418 337.984 849.968 338.434 849.338 338.434C848.708 338.434 848.258 337.984 848.258 337.354C848.258 336.724 848.708 336.274 849.338 336.274ZM858.801 344.428C858.801 343.06 858.099 342.232 856.911 342.232C855.741 342.25 854.841 343.168 854.859 344.428V349.162H852.951V340.576H854.859V341.746C855.399 341.08 856.317 340.594 857.145 340.594C858.765 340.594 860.709 341.656 860.709 344.356V349.162H858.801V344.428ZM866.822 347.578C868.19 347.578 869.18 346.372 869.18 344.878C869.18 343.42 868.19 342.196 866.822 342.196C865.472 342.196 864.554 343.258 864.554 344.878C864.554 346.516 865.472 347.578 866.822 347.578ZM871.088 348.514C871.088 350.962 869.432 352.978 866.804 352.978C865.364 352.978 863.978 352.384 863.132 350.98L864.644 349.972C865.274 350.89 865.886 351.286 866.804 351.286C868.334 351.286 869.18 350.08 869.18 348.676V347.92C868.514 348.766 867.524 349.216 866.714 349.216C864.338 349.216 862.646 347.416 862.646 344.896C862.646 342.376 864.338 340.558 866.714 340.558C867.596 340.558 868.586 341.008 869.18 341.818V340.558H871.088V348.514ZM884.393 349.288C880.541 349.288 877.841 346.48 877.841 342.502C877.841 338.506 880.541 335.716 884.393 335.716C886.211 335.716 887.831 336.49 889.019 337.696L887.759 338.938C886.967 338.002 885.707 337.39 884.375 337.39C881.621 337.39 879.767 339.442 879.767 342.502C879.767 345.562 881.621 347.614 884.375 347.614C885.797 347.614 886.931 346.966 887.687 346.102L889.019 347.308C887.831 348.514 886.301 349.306 884.393 349.288ZM894.717 347.596C896.049 347.596 896.949 346.534 896.949 344.896C896.949 343.276 896.049 342.196 894.717 342.196C893.385 342.196 892.485 343.258 892.485 344.896C892.485 346.534 893.367 347.596 894.717 347.596ZM894.717 340.558C897.147 340.558 898.857 342.358 898.857 344.896C898.857 347.416 897.147 349.234 894.717 349.234C892.287 349.234 890.577 347.416 890.577 344.896C890.577 342.358 892.287 340.558 894.717 340.558ZM911.706 344.284C911.706 343.06 911.04 342.25 910.068 342.25C908.97 342.25 908.232 343.096 908.232 344.194V349.162H906.306V344.284C906.306 343.06 905.658 342.25 904.704 342.25C903.606 342.25 902.832 343.186 902.832 344.392V349.162H900.924V340.576H902.832V341.746C903.336 341.062 904.074 340.594 904.884 340.594C905.91 340.594 906.918 341.242 907.422 342.142C908.016 341.242 909.168 340.594 910.194 340.594C912.228 340.594 913.632 342.106 913.632 344.212V349.162H911.706V344.284ZM926.859 344.284C926.859 343.06 926.193 342.25 925.221 342.25C924.123 342.25 923.385 343.096 923.385 344.194V349.162H921.459V344.284C921.459 343.06 920.811 342.25 919.857 342.25C918.759 342.25 917.985 343.186 917.985 344.392V349.162H916.077V340.576H917.985V341.746C918.489 341.062 919.227 340.594 920.037 340.594C921.063 340.594 922.071 341.242 922.575 342.142C923.169 341.242 924.321 340.594 925.347 340.594C927.381 340.594 928.785 342.106 928.785 344.212V349.162H926.859V344.284ZM931.37 340.558H933.278V349.144H931.37V340.558ZM932.324 336.274C932.954 336.274 933.404 336.724 933.404 337.354C933.404 337.984 932.954 338.434 932.324 338.434C931.694 338.434 931.244 337.984 931.244 337.354C931.244 336.724 931.694 336.274 932.324 336.274ZM937.017 349.162V342.214H935.397V340.558H937.017V337.552H938.925V340.558H940.959V342.214H938.925V349.162H937.017ZM943.134 349.162V342.214H941.514V340.558H943.134V337.552H945.042V340.558H947.076V342.214H945.042V349.162H943.134ZM952.567 349.198C950.137 349.198 948.427 347.416 948.427 344.896C948.427 342.358 950.137 340.576 952.567 340.576C955.231 340.576 956.077 342.754 956.131 342.898C956.653 344.122 956.491 345.49 956.491 345.634H950.299C950.515 346.786 951.487 347.578 952.567 347.578C953.989 347.578 954.565 346.75 954.709 346.498L956.239 347.182C955.825 348.154 954.619 349.198 952.567 349.198ZM954.691 344.122C954.511 343.06 953.899 342.196 952.567 342.196C951.415 342.196 950.515 343.006 950.299 344.122H954.691ZM962.393 349.198C959.963 349.198 958.253 347.416 958.253 344.896C958.253 342.358 959.963 340.576 962.393 340.576C965.057 340.576 965.903 342.754 965.957 342.898C966.479 344.122 966.317 345.49 966.317 345.634H960.125C960.341 346.786 961.313 347.578 962.393 347.578C963.815 347.578 964.391 346.75 964.535 346.498L966.065 347.182C965.651 348.154 964.445 349.198 962.393 349.198ZM964.517 344.122C964.337 343.06 963.725 342.196 962.393 342.196C961.241 342.196 960.341 343.006 960.125 344.122H964.517Z" fill="#6D0CA6"/>
<path d="M741.852 369.73H743.07V382.064H741.852V379.082H739.108V378.13H741.852V369.73ZM732.864 376.198C735.174 376.198 738.254 376.184 740.928 375.806L741.012 376.688C739.836 376.898 738.604 377.024 737.414 377.094V381.686H736.196V377.15C735.062 377.192 733.97 377.206 733.004 377.206L732.864 376.198ZM733.76 372.782C733.76 371.312 735.034 370.346 736.868 370.346C738.688 370.346 739.948 371.312 739.948 372.782C739.948 374.252 738.688 375.204 736.868 375.204C735.034 375.204 733.76 374.252 733.76 372.782ZM734.908 372.782C734.908 373.692 735.706 374.28 736.868 374.28C738.016 374.28 738.8 373.692 738.8 372.782C738.8 371.872 738.016 371.27 736.868 371.27C735.706 371.27 734.908 371.872 734.908 372.782ZM751.358 371.004C751.358 374.602 750.154 377.85 745.814 380.062L745.142 379.11C747.312 378.004 748.67 376.646 749.412 375.05L745.366 375.414L745.184 374.378L749.79 374.084C750 373.412 750.112 372.712 750.168 371.984H745.8V371.004H751.358ZM751.33 375.652V374.644H754.074V369.744H755.278V382.064H754.074V375.652H751.33ZM766.282 369.702H767.5V376.478H766.282V369.702ZM757.56 371.76V370.808H760.682V369.59H761.9V370.808H765.036V371.76H757.56ZM758.288 374.308C758.288 373.062 759.478 372.278 761.298 372.278C763.132 372.278 764.308 373.062 764.308 374.308C764.308 375.554 763.132 376.324 761.298 376.324C759.478 376.324 758.288 375.554 758.288 374.308ZM759.436 374.308C759.436 375.008 760.164 375.428 761.298 375.428C762.418 375.428 763.16 375.008 763.16 374.308C763.16 373.594 762.418 373.174 761.298 373.174C760.164 373.174 759.436 373.594 759.436 374.308ZM759.506 377.99V377.08H767.5V379.88H760.71V381H767.892V381.924H759.534V379.012H766.296V377.99H759.506ZM778.637 374.532H781.787V372.95H778.763C777.979 374.924 776.117 376.338 773.485 377.108L772.995 376.142C775.935 375.302 777.671 373.692 777.881 371.634H773.639V370.64H779.197C779.197 371.102 779.155 371.55 779.071 371.97H781.787V369.73H783.005V377.08H781.787V375.512H778.637V374.532ZM774.899 379.614C774.899 378.116 776.481 377.22 778.987 377.22C781.465 377.22 783.061 378.116 783.061 379.614C783.061 381.098 781.465 381.994 778.987 381.994C776.481 381.994 774.899 381.098 774.899 379.614ZM776.103 379.614C776.103 380.51 777.223 381.042 778.987 381.042C780.765 381.042 781.871 380.51 781.871 379.614C781.871 378.704 780.765 378.172 778.987 378.172C777.223 378.172 776.103 378.704 776.103 379.614ZM788.452 370.458C789.474 370.458 790.356 370.85 790.93 371.494H794.024V369.744H795.242V377.01H794.024V375.316H790.916C790.342 375.96 789.46 376.338 788.452 376.338C786.632 376.338 785.26 375.12 785.26 373.398C785.26 371.676 786.632 370.458 788.452 370.458ZM786.422 373.398C786.422 374.518 787.29 375.302 788.452 375.302C789.614 375.302 790.468 374.518 790.468 373.398C790.468 372.264 789.614 371.494 788.452 371.494C787.29 371.494 786.422 372.264 786.422 373.398ZM787.052 379.67C787.052 378.172 788.62 377.304 791.168 377.304C793.702 377.304 795.284 378.172 795.284 379.67C795.284 381.168 793.702 382.036 791.168 382.036C788.62 382.036 787.052 381.168 787.052 379.67ZM788.242 379.67C788.242 380.566 789.348 381.084 791.168 381.084C793.002 381.084 794.094 380.566 794.094 379.67C794.094 378.774 793.002 378.256 791.168 378.256C789.348 378.256 788.242 378.774 788.242 379.67ZM791.49 374.322H794.024V372.474H791.49C791.574 372.754 791.63 373.076 791.63 373.398C791.63 373.72 791.574 374.042 791.49 374.322ZM797.706 370.99H804.594V371.998H801.752V373.44C801.752 375.526 803.18 377.64 805.014 378.424L804.328 379.39C802.914 378.732 801.738 377.36 801.164 375.694C800.59 377.472 799.428 378.998 798 379.698L797.3 378.732C799.106 377.878 800.534 375.568 800.534 373.44V371.998H797.706V370.99ZM806.19 382.064V369.744H807.408V382.064H806.19ZM818.454 369.73H819.672V379.11H818.454V377.864H815.99V376.996H818.454V369.73ZM809.48 375.4C811.762 375.386 814.8 375.358 817.432 375.036L817.502 375.904C816.438 376.086 815.332 376.198 814.226 376.268V378.676H813.008V376.324C811.804 376.38 810.642 376.394 809.648 376.394L809.48 375.4ZM810.446 372.376C810.446 371.074 811.678 370.22 813.484 370.22C815.29 370.22 816.522 371.074 816.522 372.376C816.522 373.692 815.29 374.532 813.484 374.532C811.678 374.532 810.446 373.692 810.446 372.376ZM811.202 381.784V378.2H812.42V380.804H819.98V381.784H811.202ZM811.594 372.376C811.594 373.146 812.378 373.622 813.484 373.622C814.604 373.622 815.36 373.146 815.36 372.376C815.36 371.606 814.604 371.116 813.484 371.116C812.378 371.116 811.594 371.606 811.594 372.376ZM830.691 369.744H831.895V376.086H830.691V369.744ZM821.857 375.036C823.733 374.392 824.965 372.768 824.965 371.018V370.08H826.183V371.018C826.183 372.698 827.415 374.224 829.263 374.826L828.661 375.764C827.233 375.274 826.141 374.28 825.581 372.992C825.049 374.378 823.929 375.47 822.459 376.002L821.857 375.036ZM823.915 377.668V376.702H831.895V379.712H825.119V380.958H832.315V381.924H823.943V378.816H830.705V377.668H823.915ZM834.331 370.626H840.939V371.62H838.251V372.026C838.251 373.608 839.371 375.05 841.205 375.652L840.631 376.59C839.231 376.128 838.209 375.19 837.677 373.986C837.145 375.372 836.053 376.464 834.583 376.982L833.981 376.016C835.857 375.372 837.047 373.776 837.047 372.026V371.62H834.331V370.626ZM835.619 379.74C835.619 378.298 837.173 377.472 839.679 377.472C842.199 377.472 843.739 378.298 843.739 379.74C843.739 381.196 842.199 382.036 839.679 382.036C837.173 382.036 835.619 381.196 835.619 379.74ZM836.809 379.74C836.809 380.594 837.887 381.084 839.679 381.084C841.471 381.084 842.549 380.594 842.549 379.74C842.549 378.9 841.471 378.424 839.679 378.424C837.887 378.424 836.809 378.9 836.809 379.74ZM842.395 377.15V369.744H843.613V372.838H845.419V373.832H843.613V377.15H842.395ZM848.009 379.866L847.183 382.666H846.315L846.777 379.866H848.009ZM855.006 378.298C855.538 379.362 856.434 380.118 857.484 380.118C858.856 380.146 859.71 379.446 859.71 378.354C859.71 375.75 854.474 376.842 854.474 373.3C854.474 371.662 855.846 370.724 857.666 370.738C859.066 370.766 860.2 371.508 860.69 372.992L859.64 373.356C859.332 372.362 858.576 371.788 857.652 371.774C856.476 371.76 855.636 372.32 855.636 373.3C855.636 375.876 860.872 374.826 860.872 378.368C860.872 380.048 859.556 381.182 857.47 381.154C855.986 381.126 854.852 380.3 854.012 378.83L855.006 378.298ZM870.371 370.85L866.311 375.372L870.455 381.042H868.999L865.513 376.282L864.267 377.654V381.042H863.091V370.864H864.267V375.904L868.789 370.85H870.371ZM872.496 371.046H873.686V377.92C874.974 377.906 876.192 377.822 877.592 377.528L877.76 378.564C876.164 378.9 874.792 378.956 873.308 378.956H872.496V371.046ZM875.912 374.84V373.846H878.642V370.01H879.776V381.434H878.642V374.84H875.912ZM881.26 382.05V369.73H882.408V382.05H881.26ZM885.572 370.766H893.944V371.746H886.804V373.51H893.664V374.476H886.804V376.324H894.056V377.318H885.572V370.766ZM884.158 380.482V379.488H895.316V380.482H884.158ZM905.284 369.744H906.488V377.878H905.284V377.122H902.722V376.268H905.284V369.744ZM896.31 374.84C898.55 374.84 901.616 374.812 904.234 374.462L904.318 375.316C903.17 375.512 901.952 375.624 900.776 375.694V377.724H899.586V375.75C898.466 375.792 897.402 375.806 896.464 375.806L896.31 374.84ZM897.262 372.068C897.262 370.864 898.494 370.052 900.314 370.052C902.12 370.052 903.338 370.864 903.338 372.068C903.338 373.314 902.12 374.098 900.314 374.098C898.494 374.098 897.262 373.314 897.262 372.068ZM898.06 379.334V378.368H906.488V382.064H905.284V379.334H898.06ZM898.396 372.068C898.396 372.782 899.166 373.23 900.314 373.23C901.462 373.23 902.204 372.782 902.204 372.068C902.204 371.382 901.462 370.934 900.314 370.934C899.166 370.934 898.396 371.382 898.396 372.068ZM913.531 370.556H914.791V371.494C914.791 373.552 917.017 375.442 919.271 375.848L918.725 376.856C916.807 376.436 914.959 375.134 914.161 373.384C913.349 375.134 911.501 376.436 909.597 376.856L909.079 375.848C911.291 375.428 913.531 373.552 913.531 371.494V370.556ZM908.631 380.412V379.404H919.789V380.412H908.631ZM927.013 373.874H929.813V369.716H931.017V382.078H929.813V374.868H927.013V373.874ZM920.825 378.494C922.659 377.598 924.003 375.218 924.003 372.936V370.78H925.207V372.936C925.207 375.176 926.523 377.43 928.343 378.284L927.629 379.264C926.243 378.55 925.165 377.122 924.619 375.414C924.073 377.22 922.967 378.732 921.581 379.474L920.825 378.494ZM941.979 369.716H943.197V382.078H941.979V369.716ZM933.789 379.11V370.78H934.993V373.986H938.423V370.78H939.613V379.11H933.789ZM934.993 378.116H938.423V374.938H934.993V378.116ZM950.24 370.556H951.5V371.494C951.5 373.552 953.726 375.442 955.98 375.848L955.434 376.856C953.516 376.436 951.668 375.134 950.87 373.384C950.058 375.134 948.21 376.436 946.306 376.856L945.788 375.848C948 375.428 950.24 373.552 950.24 371.494V370.556ZM945.34 380.412V379.404H956.498V380.412H945.34ZM966.585 374.532H969.735V372.95H966.711C965.927 374.924 964.065 376.338 961.433 377.108L960.943 376.142C963.883 375.302 965.619 373.692 965.829 371.634H961.587V370.64H967.145C967.145 371.102 967.103 371.55 967.019 371.97H969.735V369.73H970.953V377.08H969.735V375.512H966.585V374.532ZM962.847 379.614C962.847 378.116 964.429 377.22 966.935 377.22C969.413 377.22 971.009 378.116 971.009 379.614C971.009 381.098 969.413 381.994 966.935 381.994C964.429 381.994 962.847 381.098 962.847 379.614ZM964.051 379.614C964.051 380.51 965.171 381.042 966.935 381.042C968.713 381.042 969.819 380.51 969.819 379.614C969.819 378.704 968.713 378.172 966.935 378.172C965.171 378.172 964.051 378.704 964.051 379.614ZM976.399 370.458C977.421 370.458 978.303 370.85 978.877 371.494H981.971V369.744H983.189V377.01H981.971V375.316H978.863C978.289 375.96 977.407 376.338 976.399 376.338C974.579 376.338 973.207 375.12 973.207 373.398C973.207 371.676 974.579 370.458 976.399 370.458ZM974.369 373.398C974.369 374.518 975.237 375.302 976.399 375.302C977.561 375.302 978.415 374.518 978.415 373.398C978.415 372.264 977.561 371.494 976.399 371.494C975.237 371.494 974.369 372.264 974.369 373.398ZM974.999 379.67C974.999 378.172 976.567 377.304 979.115 377.304C981.649 377.304 983.231 378.172 983.231 379.67C983.231 381.168 981.649 382.036 979.115 382.036C976.567 382.036 974.999 381.168 974.999 379.67ZM976.189 379.67C976.189 380.566 977.295 381.084 979.115 381.084C980.949 381.084 982.041 380.566 982.041 379.67C982.041 378.774 980.949 378.256 979.115 378.256C977.295 378.256 976.189 378.774 976.189 379.67ZM979.437 374.322H981.971V372.474H979.437C979.521 372.754 979.577 373.076 979.577 373.398C979.577 373.72 979.521 374.042 979.437 374.322ZM991.813 373.104H994.207V369.744H995.425V378.746H994.207V374.098H991.813V373.104ZM985.289 376.254C987.137 375.61 988.369 373.972 988.369 372.25V371.704H985.653V370.71H992.247V371.704H989.587V372.236C989.587 373.804 990.749 375.358 992.555 375.988L991.939 376.94C990.567 376.436 989.531 375.428 988.999 374.182C988.467 375.568 987.389 376.688 985.919 377.22L985.289 376.254ZM987.515 381.784V377.976H988.733V380.804H995.761V381.784H987.515ZM998.015 370.472H1003.57V373.93H999.247V375.61C1001.39 375.61 1002.93 375.526 1004.75 375.204L1004.86 376.212C1002.96 376.534 1001.32 376.604 999.023 376.604H998.043V372.992H1002.38V371.452H998.015V370.472ZM999.065 378.858V377.864H1007.1V382.064H1005.88V378.858H999.065ZM1005.88 377.234V369.744H1007.1V371.676H1008.89V372.67H1007.1V374.252H1008.89V375.26H1007.1V377.234H1005.88ZM1018.64 369.744H1019.84V376.086H1018.64V369.744ZM1009.8 375.036C1011.68 374.392 1012.91 372.768 1012.91 371.018V370.08H1014.13V371.018C1014.13 372.698 1015.36 374.224 1017.21 374.826L1016.61 375.764C1015.18 375.274 1014.09 374.28 1013.53 372.992C1013 374.378 1011.88 375.47 1010.41 376.002L1009.8 375.036ZM1011.86 377.668V376.702H1019.84V379.712H1013.07V380.958H1020.26V381.924H1011.89V378.816H1018.65V377.668H1011.86ZM1022.28 370.626H1028.89V371.62H1026.2V372.026C1026.2 373.608 1027.32 375.05 1029.15 375.652L1028.58 376.59C1027.18 376.128 1026.16 375.19 1025.62 373.986C1025.09 375.372 1024 376.464 1022.53 376.982L1021.93 376.016C1023.8 375.372 1024.99 373.776 1024.99 372.026V371.62H1022.28V370.626ZM1023.57 379.74C1023.57 378.298 1025.12 377.472 1027.63 377.472C1030.15 377.472 1031.69 378.298 1031.69 379.74C1031.69 381.196 1030.15 382.036 1027.63 382.036C1025.12 382.036 1023.57 381.196 1023.57 379.74ZM1024.76 379.74C1024.76 380.594 1025.83 381.084 1027.63 381.084C1029.42 381.084 1030.5 380.594 1030.5 379.74C1030.5 378.9 1029.42 378.424 1027.63 378.424C1025.83 378.424 1024.76 378.9 1024.76 379.74ZM1030.34 377.15V369.744H1031.56V372.838H1033.37V373.832H1031.56V377.15H1030.34ZM1035.96 379.866L1035.13 382.666H1034.26L1034.72 379.866H1035.96ZM840.937 400.298C841.469 401.362 842.365 402.118 843.415 402.118C844.787 402.146 845.641 401.446 845.641 400.354C845.641 397.75 840.405 398.842 840.405 395.3C840.405 393.662 841.777 392.724 843.597 392.738C844.997 392.766 846.131 393.508 846.621 394.992L845.571 395.356C845.263 394.362 844.507 393.788 843.583 393.774C842.407 393.76 841.567 394.32 841.567 395.3C841.567 397.876 846.803 396.826 846.803 400.368C846.803 402.048 845.487 403.182 843.401 403.154C841.917 403.126 840.783 402.3 839.943 400.83L840.937 400.298ZM856.303 392.85L852.243 397.372L856.387 403.042H854.931L851.445 398.282L850.199 399.654V403.042H849.023V392.864H850.199V397.904L854.721 392.85H856.303ZM867.163 391.73H868.325V404.05H867.163V397.582H865.581V403.434H864.447V391.996H865.581V396.588H867.163V391.73ZM858.287 400.774V393.13H862.991V400.774H858.287ZM859.421 399.822H861.871V394.096H859.421V399.822ZM878.98 391.73H880.184V399.178H878.98V391.73ZM870.23 397.946C872.106 397.288 873.31 395.692 873.31 393.97V393.564H870.552V392.584H877.286V393.564H874.542V393.97C874.542 395.594 875.802 397.092 877.636 397.708L877.02 398.66C875.606 398.184 874.514 397.176 873.954 395.916C873.422 397.288 872.33 398.366 870.86 398.884L870.23 397.946ZM871.952 400.816V399.822H880.184V404.064H878.98V400.816H871.952ZM889.767 397.918C890.971 397.918 891.811 397.092 891.811 395.888C891.811 394.684 890.971 393.886 889.767 393.886H887.401V397.918H889.767ZM886.225 403.042V392.85H889.809C891.671 392.85 892.973 394.11 892.973 395.902C892.987 397.288 892.077 398.464 890.593 398.842L893.449 403.042H892.049L889.263 398.954H887.401V403.042H886.225ZM900.025 401.04L896.847 395.16V403.042H895.671V392.85H896.889L900.585 399.612L904.281 392.85H905.499V403.042H904.337V395.16L901.131 401.04H900.025ZM916.126 391.744H917.33V398.086H916.126V391.744ZM907.292 397.036C909.168 396.392 910.4 394.768 910.4 393.018V392.08H911.618V393.018C911.618 394.698 912.85 396.224 914.698 396.826L914.096 397.764C912.668 397.274 911.576 396.28 911.016 394.992C910.484 396.378 909.364 397.47 907.894 398.002L907.292 397.036ZM909.35 399.668V398.702H917.33V401.712H910.554V402.958H917.75V403.924H909.378V400.816H916.14V399.668H909.35ZM919.766 392.626H926.374V393.62H923.686V394.026C923.686 395.608 924.806 397.05 926.64 397.652L926.066 398.59C924.666 398.128 923.644 397.19 923.112 395.986C922.58 397.372 921.488 398.464 920.018 398.982L919.416 398.016C921.292 397.372 922.482 395.776 922.482 394.026V393.62H919.766V392.626ZM921.054 401.74C921.054 400.298 922.608 399.472 925.114 399.472C927.634 399.472 929.174 400.298 929.174 401.74C929.174 403.196 927.634 404.036 925.114 404.036C922.608 404.036 921.054 403.196 921.054 401.74ZM922.244 401.74C922.244 402.594 923.322 403.084 925.114 403.084C926.906 403.084 927.984 402.594 927.984 401.74C927.984 400.9 926.906 400.424 925.114 400.424C923.322 400.424 922.244 400.9 922.244 401.74ZM927.83 399.15V391.744H929.048V394.838H930.854V395.832H929.048V399.15H927.83Z" fill="#15151A"/>
<defs>
<filter id="filter0_d_4466_2542" x="434" y="4" width="332" height="149" filterUnits="userSpaceOnUse" color-interpolation-filters="sRGB">
<feFlood flood-opacity="0" result="BackgroundImageFix"/>
<feColorMatrix in="SourceAlpha" type="matrix" values="0 0 0 0 0 0 0 0 0 0 0 0 0 0 0 0 0 0 127 0" result="hardAlpha"/>
<feOffset/>
<feGaussianBlur stdDeviation="18"/>
<feComposite in2="hardAlpha" operator="out"/>
<feColorMatrix type="matrix" values="0 0 0 0 0.592485 0 0 0 0 0.207569 0 0 0 0 0.816667 0 0 0 0.5 0"/>
<feBlend mode="normal" in2="BackgroundImageFix" result="effect1_dropShadow_4466_2542"/>
<feBlend mode="normal" in="SourceGraphic" in2="effect1_dropShadow_4466_2542" result="shape"/>
</filter>
</defs>
</svg>
