<svg width="1212" height="651" viewBox="0 0 1212 651" fill="none" xmlns="http://www.w3.org/2000/svg">
<g filter="url(#filter0_d_4103_3153)">
<rect x="6" y="4" width="1200" height="640" rx="16" fill="white" shape-rendering="crispEdges"/>
<path d="M97 52C97 47.5817 100.582 44 105 44H411C415.418 44 419 47.5817 419 52V97C419 101.418 415.418 105 411 105H105C100.582 105 97 101.418 97 97V52Z" fill="#F5EBFB"/>
<path d="M185.724 76.014H200.232V77.634H193.968V82.476H191.97V77.634H185.724V76.014ZM187.596 74.682V67.122H198.504V68.688H189.54V70.092H198.162V71.622H189.54V73.098H198.684V74.682H187.596ZM201.744 68.004H210.492V69.642H207.162V70.974C207.162 73.44 208.638 76.284 211.14 77.454L210.042 79.02C208.242 78.156 206.928 76.446 206.208 74.466C205.488 76.644 204.12 78.516 202.284 79.416L201.15 77.85C203.652 76.644 205.2 73.638 205.2 70.974V69.642H201.744V68.004ZM211.932 82.458V66.438H213.93V72.684H216.36V74.322H213.93V82.458H211.932ZM228.439 66.438H230.419V74.592H228.439V66.438ZM217.189 73.008C219.763 72.198 221.113 70.146 221.113 68.04V66.834H223.111V68.04C223.111 70.074 224.461 71.982 226.963 72.756L226.009 74.286C224.173 73.71 222.859 72.504 222.139 70.992C221.419 72.63 220.069 73.944 218.143 74.592L217.189 73.008ZM219.871 76.878V75.348H230.419V79.488H221.851V80.766H230.887V82.314H219.907V78.066H228.475V76.878H219.871ZM232.939 75.528H247.447V77.112H241.129V82.476H239.149V77.112H232.939V75.528ZM234.667 73.638V67.266H245.647V73.638H234.667ZM236.611 72.09H243.721V68.832H236.611V72.09ZM257.69 69.966H259.976V66.438H261.956V75.924H259.976V74.682H257.654V73.116H259.976V71.532H257.69V69.966ZM248.69 69.444V67.878H252.218V66.276H254.216V67.878H257.564V69.444H248.69ZM249.5 72.936C249.5 71.208 251.03 70.038 253.19 70.038C255.386 70.038 256.898 71.208 256.898 72.936C256.898 74.664 255.386 75.834 253.19 75.834C251.03 75.834 249.5 74.664 249.5 72.936ZM251.354 72.936C251.354 73.836 252.092 74.394 253.19 74.394C254.306 74.394 255.062 73.836 255.062 72.936C255.062 72.036 254.306 71.496 253.19 71.496C252.092 71.496 251.354 72.036 251.354 72.936ZM251.39 82.26V76.572H253.334V77.922H260.012V76.572H261.956V82.26H251.39ZM253.334 80.73H260.012V79.416H253.334V80.73ZM269.552 67.518C272.054 67.518 273.908 69.138 273.908 71.406C273.908 73.692 272.054 75.294 269.552 75.294C267.032 75.294 265.178 73.692 265.178 71.406C265.178 69.138 267.032 67.518 269.552 67.518ZM264.458 77.508C267.302 77.508 271.298 77.49 274.7 76.968L274.844 78.408C271.334 79.092 267.5 79.128 264.692 79.128L264.458 77.508ZM267.104 71.406C267.104 72.738 268.148 73.602 269.552 73.602C270.938 73.602 271.982 72.738 271.982 71.406C271.982 70.056 270.938 69.228 269.552 69.228C268.148 69.228 267.104 70.056 267.104 71.406ZM275.654 82.476V66.402H277.616V82.476H275.654ZM286.634 72.594H288.704V66.726H290.54V81.684H288.704V74.196H286.634V72.594ZM279.884 77.85C282.116 76.536 283.088 73.836 283.088 71.316V70.83H280.424V69.228H283.088V66.96H284.978V69.228H287.624V70.83H284.978V71.316C284.978 73.782 285.986 76.302 288.2 77.49L287.102 78.966C285.644 78.174 284.636 76.788 284.06 75.096C283.502 76.914 282.494 78.48 281 79.344L279.884 77.85ZM291.926 82.44V66.42H293.816V82.44H291.926ZM308.225 67.374C308.225 71.532 305.543 74.43 300.881 75.726L300.107 74.178C303.689 73.206 305.777 71.316 306.101 68.958H300.953V67.374H308.225ZM302.843 82.242V76.104H313.319V82.242H302.843ZM304.787 80.676H311.375V77.67H304.787V80.676ZM308.297 71.964V70.344H311.339V66.42H313.319V75.456H311.339V71.964H308.297ZM317.514 67.59H328.53V69.174H319.512V71.01H328.17V72.54H319.512V74.502H328.674V76.068H323.976V78.984H330.258V80.586H315.75V78.984H321.996V76.068H317.514V67.59Z" fill="#6D0CA6"/>
<path fill-rule="evenodd" clip-rule="evenodd" d="M266.852 124.148C267.32 124.617 267.32 125.377 266.852 125.845L258.003 134.694L249.155 125.845C248.686 125.377 248.686 124.617 249.155 124.148C249.623 123.68 250.383 123.68 250.852 124.148L258.003 131.3L265.155 124.148C265.623 123.68 266.383 123.68 266.852 124.148Z" fill="#A1A1AA"/>
<path d="M97 161C97 156.582 100.582 153 105 153H411C415.418 153 419 156.582 419 161V206C419 210.418 415.418 214 411 214H105C100.582 214 97 210.418 97 206V161Z" fill="#F5EBFB"/>
<path d="M236.323 175.438H238.285V191.458H236.323V175.438ZM225.145 187.012C226.387 187.012 227.809 187.012 229.303 186.976V185.482C227.521 185.194 226.369 184.096 226.369 182.566C226.369 180.766 227.953 179.578 230.293 179.578C232.615 179.578 234.235 180.766 234.235 182.566C234.235 184.096 233.065 185.194 231.283 185.482V186.904C232.687 186.832 234.091 186.724 235.423 186.544L235.549 187.966C232.039 188.614 228.259 188.632 225.379 188.632L225.145 187.012ZM225.451 178.822V177.274H229.303V175.474H231.283V177.274H235.135V178.822H225.451ZM228.241 182.566C228.241 183.502 229.087 184.06 230.293 184.06C231.517 184.06 232.345 183.502 232.345 182.566C232.345 181.63 231.517 181.072 230.293 181.072C229.087 181.072 228.241 181.63 228.241 182.566ZM245.953 176.518C248.455 176.518 250.309 178.138 250.309 180.406C250.309 182.692 248.455 184.294 245.953 184.294C243.433 184.294 241.579 182.692 241.579 180.406C241.579 178.138 243.433 176.518 245.953 176.518ZM240.859 186.508C243.703 186.508 247.699 186.49 251.101 185.968L251.245 187.408C247.735 188.092 243.901 188.128 241.093 188.128L240.859 186.508ZM243.505 180.406C243.505 181.738 244.549 182.602 245.953 182.602C247.339 182.602 248.383 181.738 248.383 180.406C248.383 179.056 247.339 178.228 245.953 178.228C244.549 178.228 243.505 179.056 243.505 180.406ZM252.055 191.476V175.402H254.017V191.476H252.055ZM260.686 187.858H266.878V184.168H268.858V187.858H275.194V189.478H260.686V187.858ZM261.118 182.908C264.448 182.368 266.824 179.938 266.824 177.562V176.374H268.912V177.562C268.912 179.974 271.306 182.368 274.636 182.908L273.79 184.582C271.09 184.042 268.912 182.476 267.868 180.406C266.806 182.476 264.61 184.042 261.928 184.582L261.118 182.908ZM277.049 176.374H285.779V177.922H282.431C282.449 179.794 283.835 181.63 286.319 182.368L285.347 183.898C283.511 183.358 282.197 182.188 281.459 180.712C280.757 182.314 279.407 183.574 277.499 184.168L276.509 182.62C279.065 181.864 280.397 179.92 280.415 177.922H277.049V176.374ZM279.119 191.26V184.834H281.063V186.472H287.687V184.834H289.631V191.26H279.119ZM281.063 189.658H287.687V188.002H281.063V189.658ZM287.651 184.114V175.438H289.631V184.114H287.651Z" fill="#6D0CA6"/>
<path fill-rule="evenodd" clip-rule="evenodd" d="M266.852 233.148C267.32 233.617 267.32 234.377 266.852 234.845L258.003 243.694L249.155 234.845C248.686 234.377 248.686 233.617 249.155 233.148C249.623 232.68 250.383 232.68 250.852 233.148L258.003 240.3L265.155 233.148C265.623 232.68 266.383 232.68 266.852 233.148Z" fill="#A1A1AA"/>
<path d="M97 270C97 265.582 100.582 262 105 262H411C415.418 262 419 265.582 419 270V315C419 319.418 415.418 323 411 323H105C100.582 323 97 319.418 97 315V270Z" fill="#F5EBFB"/>
<path d="M204.548 285.518C207.05 285.518 208.904 287.138 208.904 289.406C208.904 291.692 207.05 293.294 204.548 293.294C202.028 293.294 200.174 291.692 200.174 289.406C200.174 287.138 202.028 285.518 204.548 285.518ZM199.454 295.508C202.298 295.508 206.294 295.49 209.696 294.968L209.84 296.408C206.33 297.092 202.496 297.128 199.688 297.128L199.454 295.508ZM202.1 289.406C202.1 290.738 203.144 291.602 204.548 291.602C205.934 291.602 206.978 290.738 206.978 289.406C206.978 288.056 205.934 287.228 204.548 287.228C203.144 287.228 202.1 288.056 202.1 289.406ZM210.65 300.476V284.402H212.612V300.476H210.65ZM226.455 284.42H228.453V296.264H226.455V292.79H222.621V291.188H226.455V289.172H222.873C221.739 291.638 219.399 293.492 216.177 294.518L215.331 292.934C218.841 291.836 221.127 289.766 221.469 287.228H216.177V285.644H223.611C223.611 286.328 223.539 286.976 223.395 287.588H226.455V284.42ZM218.085 300.134V295.13H220.083V298.55H228.831V300.134H218.085ZM231.279 286.184H234.609V284.366H236.571V286.184H239.865V287.75H236.571V287.822C236.571 289.622 237.903 291.332 240.405 292.016L239.505 293.546C237.687 293.042 236.355 291.98 235.635 290.594C234.933 292.142 233.601 293.366 231.729 293.942L230.793 292.394C233.295 291.656 234.609 289.766 234.609 287.822V287.75H231.279V286.184ZM233.367 297.434C233.367 295.544 235.437 294.446 238.803 294.446C242.151 294.446 244.221 295.544 244.221 297.434C244.221 299.324 242.151 300.44 238.803 300.44C235.437 300.44 233.367 299.324 233.367 297.434ZM235.347 297.434C235.347 298.406 236.571 298.928 238.803 298.928C241.017 298.928 242.259 298.406 242.259 297.434C242.259 296.48 241.017 295.958 238.803 295.958C236.571 295.958 235.347 296.48 235.347 297.434ZM239.415 290.414V288.812H242.187V284.438H244.167V294.104H242.187V290.414H239.415ZM247.587 286.094H250.863V284.456H252.843V286.094H256.137V287.642H252.843C252.879 289.028 254.157 290.252 256.461 290.738L255.687 292.25C253.887 291.872 252.591 291.008 251.889 289.874C251.205 291.134 249.891 292.07 248.001 292.484L247.191 290.954C249.585 290.468 250.845 289.118 250.881 287.642H247.587V286.094ZM246.597 293.33C249.549 293.33 253.491 293.312 256.911 292.844L257.037 294.284C255.651 294.518 254.229 294.68 252.843 294.77V299.972H250.863V294.878C249.423 294.932 248.037 294.95 246.831 294.95L246.597 293.33ZM257.901 300.458V284.42H259.881V300.458H257.901ZM267.306 285.41H274.938V292.106H267.306V285.41ZM268.242 298.91C271.32 298.622 273.228 297.272 273.408 295.994H268.872V294.5H273.444V293.114H275.46V294.5H279.996V295.994H275.478C275.658 297.236 277.566 298.604 280.59 298.91L279.96 300.404C277.368 300.134 275.406 299.108 274.434 297.794C273.462 299.126 271.5 300.134 268.89 300.404L268.242 298.91ZM269.232 290.54H273.03V286.976H269.232V290.54ZM277.728 293.564V284.438H279.726V293.564H277.728ZM287.007 285.626H295.737V287.21H292.389V287.66C292.389 289.676 293.757 291.62 296.259 292.448L295.251 293.978C293.433 293.384 292.137 292.178 291.417 290.63C290.715 292.304 289.365 293.618 287.475 294.266L286.467 292.718C289.023 291.854 290.373 289.784 290.373 287.66V287.21H287.007V285.626ZM289.059 300.134V294.986H291.039V298.55H300.021V300.134H289.059ZM297.591 296.066V284.438H299.589V296.066H297.591ZM313.791 284.438H315.663V294.5H313.791V290.144H312.279V293.96H310.425V284.744H312.279V288.542H313.791V284.438ZM301.983 287.732V286.166H304.989V284.582H306.933V286.166H309.903V287.732H301.983ZM302.541 291.116C302.541 289.46 303.963 288.344 305.961 288.344C307.977 288.344 309.399 289.46 309.399 291.116C309.399 292.79 307.977 293.888 305.961 293.888C303.963 293.888 302.541 292.79 302.541 291.116ZM304.287 291.116C304.287 291.962 304.971 292.484 305.961 292.484C306.951 292.484 307.653 291.962 307.653 291.116C307.653 290.27 306.951 289.784 305.961 289.784C304.971 289.784 304.287 290.27 304.287 291.116ZM304.863 297.578C304.863 295.742 306.897 294.716 310.299 294.716C313.719 294.716 315.753 295.742 315.753 297.578C315.753 299.396 313.719 300.44 310.299 300.44C306.897 300.44 304.863 299.396 304.863 297.578ZM306.825 297.578C306.825 298.496 308.049 298.946 310.299 298.946C312.567 298.946 313.773 298.496 313.773 297.578C313.773 296.642 312.567 296.192 310.299 296.192C308.049 296.192 306.825 296.642 306.825 297.578Z" fill="#6D0CA6"/>
<path fill-rule="evenodd" clip-rule="evenodd" d="M266.852 342.148C267.32 342.617 267.32 343.377 266.852 343.845L258.003 352.694L249.155 343.845C248.686 343.377 248.686 342.617 249.155 342.148C249.623 341.68 250.383 341.68 250.852 342.148L258.003 349.3L265.155 342.148C265.623 341.68 266.383 341.68 266.852 342.148Z" fill="#A1A1AA"/>
<path d="M97 379C97 374.582 100.582 371 105 371H411C415.418 371 419 374.582 419 379V424C419 428.418 415.418 432 411 432H105C100.582 432 97 428.418 97 424V379Z" fill="#F5EBFB"/>
<path d="M192.843 393.438H194.805V409.458H192.843V393.438ZM181.665 405.012C182.907 405.012 184.329 405.012 185.823 404.976V403.482C184.041 403.194 182.889 402.096 182.889 400.566C182.889 398.766 184.473 397.578 186.813 397.578C189.135 397.578 190.755 398.766 190.755 400.566C190.755 402.096 189.585 403.194 187.803 403.482V404.904C189.207 404.832 190.611 404.724 191.943 404.544L192.069 405.966C188.559 406.614 184.779 406.632 181.899 406.632L181.665 405.012ZM181.971 396.822V395.274H185.823V393.474H187.803V395.274H191.655V396.822H181.971ZM184.761 400.566C184.761 401.502 185.607 402.06 186.813 402.06C188.037 402.06 188.865 401.502 188.865 400.566C188.865 399.63 188.037 399.072 186.813 399.072C185.607 399.072 184.761 399.63 184.761 400.566ZM202.474 394.518C204.976 394.518 206.83 396.138 206.83 398.406C206.83 400.692 204.976 402.294 202.474 402.294C199.954 402.294 198.1 400.692 198.1 398.406C198.1 396.138 199.954 394.518 202.474 394.518ZM197.38 404.508C200.224 404.508 204.22 404.49 207.622 403.968L207.766 405.408C204.256 406.092 200.422 406.128 197.614 406.128L197.38 404.508ZM200.026 398.406C200.026 399.738 201.07 400.602 202.474 400.602C203.86 400.602 204.904 399.738 204.904 398.406C204.904 397.056 203.86 396.228 202.474 396.228C201.07 396.228 200.026 397.056 200.026 398.406ZM208.576 409.476V393.402H210.538V409.476H208.576ZM228.475 393.42H230.455V409.44H228.475V393.42ZM217.297 405.066C221.455 403.068 223.345 400.35 223.687 396.696H218.089V395.094H225.721C225.721 399.9 223.903 403.932 218.323 406.632L217.297 405.066ZM232.939 402.096H239.185V400.746H234.775V396.534H243.685V395.292H234.739V393.78H245.629V397.938H236.701V399.234H245.971V400.746H241.165V402.096H247.447V403.698H232.939V402.096ZM234.541 406.308V404.706H245.737V409.368H243.757V406.308H234.541ZM253.648 394.41H261.28V401.106H253.648V394.41ZM254.584 407.91C257.662 407.622 259.57 406.272 259.75 404.994H255.214V403.5H259.786V402.114H261.802V403.5H266.338V404.994H261.82C262 406.236 263.908 407.604 266.932 407.91L266.302 409.404C263.71 409.134 261.748 408.108 260.776 406.794C259.804 408.126 257.842 409.134 255.232 409.404L254.584 407.91ZM255.574 399.54H259.372V395.976H255.574V399.54ZM264.07 402.564V393.438H266.068V402.564H264.07ZM283.969 393.42H285.949V409.44H283.969V393.42ZM272.791 405.066C276.949 403.068 278.839 400.35 279.181 396.696H273.583V395.094H281.215C281.215 399.9 279.397 403.932 273.817 406.632L272.791 405.066ZM289.243 394.266H296.893V400.962H289.243V394.266ZM291.115 403.842V402.312H301.663V406.47H293.077V407.766H302.131V409.314H291.133V405.048H299.719V403.842H291.115ZM291.187 399.396H294.967V395.814H291.187V399.396ZM299.683 401.556V393.438H301.663V401.556H299.683ZM304.166 402.42H318.674V404.04H315.146V409.44H313.13V404.04H309.638V409.44H307.604V404.04H304.166V402.42ZM305.66 397.56C305.66 395.382 307.982 394.032 311.366 394.032C314.768 394.032 317.09 395.382 317.09 397.56C317.09 399.738 314.768 401.106 311.366 401.106C307.982 401.106 305.66 399.738 305.66 397.56ZM307.694 397.56C307.694 398.82 309.134 399.522 311.366 399.522C313.616 399.522 315.074 398.82 315.074 397.56C315.074 396.336 313.616 395.598 311.366 395.598C309.134 395.598 307.694 396.336 307.694 397.56ZM320.384 395.004H329.366V396.642H325.874V397.974C325.874 400.62 327.422 403.374 329.96 404.454L328.862 406.02C327.008 405.192 325.64 403.518 324.902 401.484C324.182 403.68 322.796 405.534 320.924 406.416L319.79 404.85C322.328 403.68 323.876 400.71 323.876 397.974V396.642H320.384V395.004ZM331.112 409.458V393.438H333.092V409.458H331.112Z" fill="#6D0CA6"/>
<path fill-rule="evenodd" clip-rule="evenodd" d="M266.852 451.148C267.32 451.617 267.32 452.377 266.852 452.845L258.003 461.694L249.155 452.845C248.686 452.377 248.686 451.617 249.155 451.148C249.623 450.68 250.383 450.68 250.852 451.148L258.003 458.3L265.155 451.148C265.623 450.68 266.383 450.68 266.852 451.148Z" fill="#A1A1AA"/>
<path d="M97 488C97 483.582 100.582 480 105 480H411C415.418 480 419 483.582 419 488V533C419 537.418 415.418 541 411 541H105C100.582 541 97 537.418 97 533V488Z" fill="#F5EBFB"/>
<path d="M230.221 503.518C232.723 503.518 234.577 505.138 234.577 507.406C234.577 509.692 232.723 511.294 230.221 511.294C227.701 511.294 225.847 509.692 225.847 507.406C225.847 505.138 227.701 503.518 230.221 503.518ZM225.127 513.508C227.971 513.508 231.967 513.49 235.369 512.968L235.513 514.408C232.003 515.092 228.169 515.128 225.361 515.128L225.127 513.508ZM227.773 507.406C227.773 508.738 228.817 509.602 230.221 509.602C231.607 509.602 232.651 508.738 232.651 507.406C232.651 506.056 231.607 505.228 230.221 505.228C228.817 505.228 227.773 506.056 227.773 507.406ZM236.323 518.476V502.402H238.285V518.476H236.323ZM244.531 503.734H246.493V506.254C246.493 509.098 247.879 512.032 250.345 513.238L249.139 514.804C247.429 513.922 246.205 512.248 245.521 510.214C244.819 512.392 243.523 514.192 241.705 515.11L240.517 513.508C243.073 512.284 244.531 509.206 244.531 506.254V503.734ZM251.263 518.458V502.438H253.261V508.72H255.709V510.376H253.261V518.458H251.263ZM272.008 502.42H273.988V510.52H272.008V509.152H268.21V507.64H272.008V506.056H268.408C267.418 508.504 265.078 510.088 261.55 510.88L260.902 509.296C264.646 508.486 266.482 506.812 266.734 504.688H261.766V503.104H268.93C268.93 503.608 268.894 504.094 268.822 504.562H272.008V502.42ZM263.512 512.716V511.168H273.988V515.398H265.51V516.73H274.384V518.296H263.548V513.904H272.008V512.716H263.512ZM285.023 506.416H287.741V502.438H289.721V511.942H287.741V508.018H285.023V506.416ZM276.383 510.34C278.903 509.458 280.253 507.316 280.253 505.156V505.066H276.923V503.482H285.527V505.066H282.251V505.156C282.251 507.118 283.511 509.08 285.977 509.926L284.987 511.474C283.223 510.862 281.981 509.656 281.297 508.144C280.595 509.854 279.281 511.24 277.373 511.906L276.383 510.34ZM278.921 515.416C278.921 513.508 280.991 512.356 284.357 512.356C287.705 512.356 289.775 513.508 289.775 515.416C289.775 517.342 287.705 518.458 284.357 518.458C280.991 518.458 278.921 517.342 278.921 515.416ZM280.901 515.416C280.901 516.406 282.143 516.946 284.357 516.946C286.553 516.946 287.813 516.406 287.813 515.416C287.813 514.408 286.553 513.868 284.357 513.868C282.143 513.868 280.901 514.408 280.901 515.416Z" fill="#6D0CA6"/>
<path d="M443 75H475" stroke="#71717A" stroke-width="0.95" stroke-dasharray="2.85 2.85"/>
<path d="M499.592 76.632H512.344V77.784H506.664V82.232H505.272V77.784H499.592V76.632ZM501.304 75.256V68.776H510.776V69.896H502.648V71.416H510.472V72.52H502.648V74.136H510.936V75.256H501.304ZM513.848 69.56H521.464V70.712H518.392V72.36C518.392 74.584 519.912 77.08 521.992 78.056L521.208 79.16C519.64 78.392 518.36 76.776 517.72 74.92C517.08 76.936 515.752 78.712 514.168 79.512L513.352 78.408C515.4 77.4 517.032 74.744 517.032 72.36V70.712H513.848V69.56ZM523.048 82.216V68.136H524.44V73.784H526.712V74.936H524.44V82.216H523.048ZM534.688 69.336H536.048V71.784C536.048 74.264 537.536 76.84 539.584 77.848L538.736 78.936C537.216 78.136 536 76.536 535.376 74.616C534.752 76.664 533.488 78.376 531.904 79.224L531.056 78.104C533.152 77.064 534.688 74.36 534.688 71.784V69.336ZM540.72 82.216V68.136H542.112V73.784H544.4V74.968H542.112V82.216H540.72ZM554.801 68.12H556.193V72.36H558.257V73.512H556.193V78.472H554.801V68.12ZM545.489 72.584C545.489 70.536 547.073 69.096 549.185 69.096C551.297 69.096 552.881 70.536 552.881 72.584C552.881 74.632 551.297 76.072 549.185 76.072C547.073 76.072 545.489 74.632 545.489 72.584ZM546.849 72.584C546.849 73.928 547.857 74.856 549.185 74.856C550.513 74.856 551.537 73.928 551.537 72.584C551.537 71.24 550.513 70.312 549.185 70.312C547.857 70.312 546.849 71.24 546.849 72.584ZM547.393 81.896V77.416H548.769V80.776H556.817V81.896H547.393ZM563.777 69.128C565.969 69.128 567.553 70.504 567.553 72.472C567.553 74.456 565.969 75.816 563.777 75.816C561.569 75.816 559.985 74.456 559.985 72.472C559.985 70.504 561.569 69.128 563.777 69.128ZM559.297 78.008C561.841 78.008 565.393 78.008 568.433 77.528L568.545 78.552C565.409 79.16 561.969 79.176 559.473 79.176L559.297 78.008ZM561.329 72.472C561.329 73.736 562.369 74.616 563.777 74.616C565.169 74.616 566.209 73.736 566.209 72.472C566.209 71.192 565.169 70.328 563.777 70.328C562.369 70.328 561.329 71.192 561.329 72.472ZM569.345 82.232V68.104H570.721V82.232H569.345ZM580.329 69.336H581.689V71.784C581.689 74.264 583.177 76.84 585.225 77.848L584.377 78.936C582.857 78.136 581.641 76.536 581.017 74.616C580.393 76.664 579.129 78.376 577.545 79.224L576.697 78.104C578.793 77.064 580.329 74.36 580.329 71.784V69.336ZM586.361 82.216V68.136H587.753V73.784H590.041V74.968H587.753V82.216H586.361ZM598.361 71.976H601.097V68.136H602.489V78.424H601.097V73.112H598.361V71.976ZM590.905 75.576C593.017 74.84 594.425 72.968 594.425 71V70.376H591.321V69.24H598.857V70.376H595.817V70.984C595.817 72.776 597.145 74.552 599.209 75.272L598.505 76.36C596.937 75.784 595.753 74.632 595.145 73.208C594.537 74.792 593.305 76.072 591.625 76.68L590.905 75.576ZM593.449 81.896V77.544H594.841V80.776H602.873V81.896H593.449ZM615.761 69.016C615.761 72.584 613.297 75.112 609.249 76.264L608.689 75.176C611.985 74.264 614.017 72.456 614.273 70.136H609.409V69.016H615.761ZM611.057 82.008V76.728H620.161V82.008H611.057ZM612.401 80.888H618.801V77.832H612.401V80.888ZM615.793 72.856V71.704H618.769V68.12H620.161V76.136H618.769V72.856H615.793ZM624.162 69.24H633.73V70.36H625.57V72.264H633.41V73.352H625.57V75.384H633.858V76.504H629.602V79.336H635.298V80.472H622.546V79.336H628.21V76.504H624.162V69.24Z" fill="#3F3F46"/>
<path d="M443 184H475" stroke="#71717A" stroke-width="0.95" stroke-dasharray="2.85 2.85"/>
<path d="M499.592 185.632H512.344V186.784H506.664V191.232H505.272V186.784H499.592V185.632ZM501.304 184.256V177.776H510.776V178.896H502.648V180.416H510.472V181.52H502.648V183.136H510.936V184.256H501.304ZM513.848 178.56H521.464V179.712H518.392V181.36C518.392 183.584 519.912 186.08 521.992 187.056L521.208 188.16C519.64 187.392 518.36 185.776 517.72 183.92C517.08 185.936 515.752 187.712 514.168 188.512L513.352 187.408C515.4 186.4 517.032 183.744 517.032 181.36V179.712H513.848V178.56ZM523.048 191.216V177.136H524.44V182.784H526.712V183.936H524.44V191.216H523.048ZM532.153 177.776C534.249 177.776 535.769 178.96 535.769 180.688C535.769 182.4 534.249 183.6 532.153 183.6C530.073 183.6 528.553 182.4 528.553 180.688C528.553 178.96 530.073 177.776 532.153 177.776ZM527.545 184.736C530.137 184.736 533.689 184.704 536.777 184.224L536.873 185.264C535.577 185.504 534.233 185.648 532.921 185.744V190.768H531.529V185.824C530.153 185.888 528.857 185.904 527.721 185.904L527.545 184.736ZM529.881 180.688C529.881 181.744 530.841 182.448 532.153 182.448C533.481 182.448 534.441 181.744 534.441 180.688C534.441 179.632 533.481 178.912 532.153 178.912C530.841 178.912 529.881 179.632 529.881 180.688ZM537.753 191.216V177.12H539.129V191.216H537.753ZM551.721 177.12H553.113V187.84H551.721V186.416H548.905V185.424H551.721V177.12ZM541.465 183.6C544.073 183.584 547.545 183.552 550.553 183.184L550.633 184.176C549.417 184.384 548.153 184.512 546.889 184.592V187.344H545.497V184.656C544.121 184.72 542.793 184.736 541.657 184.736L541.465 183.6ZM542.569 180.144C542.569 178.656 543.977 177.68 546.041 177.68C548.105 177.68 549.513 178.656 549.513 180.144C549.513 181.648 548.105 182.608 546.041 182.608C543.977 182.608 542.569 181.648 542.569 180.144ZM543.433 190.896V186.8H544.825V189.776H553.465V190.896H543.433ZM543.881 180.144C543.881 181.024 544.777 181.568 546.041 181.568C547.321 181.568 548.185 181.024 548.185 180.144C548.185 179.264 547.321 178.704 546.041 178.704C544.777 178.704 543.881 179.264 543.881 180.144ZM565.658 177.136H567.034V191.216H565.658V177.136ZM555.61 187.408C556.778 187.408 558.106 187.408 559.482 187.36V185.888C557.834 185.68 556.778 184.72 556.778 183.328C556.778 181.744 558.138 180.72 560.17 180.72C562.186 180.72 563.578 181.744 563.578 183.328C563.578 184.72 562.506 185.68 560.874 185.888V187.312C562.202 187.248 563.53 187.136 564.778 186.976L564.874 188C561.754 188.544 558.362 188.576 555.802 188.576L555.61 187.408ZM555.898 179.936V178.832H559.482V177.136H560.874V178.832H564.442V179.936H555.898ZM558.09 183.328C558.09 184.272 558.938 184.864 560.17 184.864C561.418 184.864 562.25 184.272 562.25 183.328C562.25 182.384 561.418 181.776 560.17 181.776C558.938 181.776 558.09 182.384 558.09 183.328ZM582.769 177.136H584.161V181.344H586.225V182.496H584.161V187.376H582.769V177.136ZM573.217 184.688C576.529 183.68 578.625 181.744 578.881 179.344H573.809V178.208H580.385C580.385 181.872 577.873 184.544 573.809 185.808L573.217 184.688ZM575.345 190.896V186.336H576.737V189.776H584.769V190.896H575.345ZM590.626 178.336H591.986V180.784C591.986 183.264 593.474 185.84 595.522 186.848L594.674 187.936C593.154 187.136 591.938 185.536 591.314 183.616C590.69 185.664 589.426 187.376 587.842 188.224L586.994 187.104C589.09 186.064 590.626 183.36 590.626 180.784V178.336ZM596.658 191.216V177.136H598.05V182.784H600.338V183.968H598.05V191.216H596.658ZM611.826 177.12H613.154V191.2H611.826V177.12ZM601.346 183.2C601.346 180.16 602.53 178.272 604.338 178.272C606.05 178.272 607.186 179.904 607.346 182.56H609.026V177.424H610.338V190.496H609.026V183.696H607.346C607.234 186.464 606.082 188.144 604.338 188.144C602.53 188.144 601.346 186.256 601.346 183.2ZM602.61 183.2C602.61 185.472 603.282 186.848 604.338 186.848C605.426 186.848 606.082 185.472 606.082 183.2C606.082 180.928 605.426 179.568 604.338 179.568C603.282 179.568 602.61 180.928 602.61 183.2ZM623.402 178.128C625.594 178.128 627.178 179.504 627.178 181.472C627.178 183.456 625.594 184.816 623.402 184.816C621.194 184.816 619.61 183.456 619.61 181.472C619.61 179.504 621.194 178.128 623.402 178.128ZM618.922 187.008C621.466 187.008 625.018 187.008 628.058 186.528L628.17 187.552C625.034 188.16 621.594 188.176 619.098 188.176L618.922 187.008ZM620.954 181.472C620.954 182.736 621.994 183.616 623.402 183.616C624.794 183.616 625.834 182.736 625.834 181.472C625.834 180.192 624.794 179.328 623.402 179.328C621.994 179.328 620.954 180.192 620.954 181.472ZM628.97 191.232V177.104H630.346V191.232H628.97ZM642.394 177.136H643.786V181.712H645.85V182.864H643.786V187.696H642.394V177.136ZM632.874 179.92V178.8H636.346V177.136H637.722V178.8H641.194V179.92H632.874ZM633.658 183.296C633.658 181.712 635.034 180.656 637.034 180.656C639.034 180.656 640.41 181.712 640.41 183.296C640.41 184.896 639.034 185.936 637.034 185.936C635.034 185.936 633.658 184.896 633.658 183.296ZM634.97 183.296C634.97 184.256 635.802 184.848 637.034 184.848C638.25 184.848 639.082 184.256 639.082 183.296C639.082 182.336 638.25 181.744 637.034 181.744C635.802 181.744 634.97 182.336 634.97 183.296ZM634.986 190.896V186.848H636.362V189.776H644.41V190.896H634.986ZM660.626 177.136H662.002V191.216H660.626V177.136ZM650.578 187.408C651.746 187.408 653.074 187.408 654.45 187.36V185.888C652.802 185.68 651.746 184.72 651.746 183.328C651.746 181.744 653.106 180.72 655.138 180.72C657.154 180.72 658.546 181.744 658.546 183.328C658.546 184.72 657.474 185.68 655.842 185.888V187.312C657.17 187.248 658.498 187.136 659.746 186.976L659.842 188C656.722 188.544 653.33 188.576 650.77 188.576L650.578 187.408ZM650.866 179.936V178.832H654.45V177.136H655.842V178.832H659.41V179.936H650.866ZM653.058 183.328C653.058 184.272 653.906 184.864 655.138 184.864C656.386 184.864 657.218 184.272 657.218 183.328C657.218 182.384 656.386 181.776 655.138 181.776C653.906 181.776 653.058 182.384 653.058 183.328ZM669.043 178.128C671.235 178.128 672.819 179.504 672.819 181.472C672.819 183.456 671.235 184.816 669.043 184.816C666.835 184.816 665.251 183.456 665.251 181.472C665.251 179.504 666.835 178.128 669.043 178.128ZM664.563 187.008C667.107 187.008 670.659 187.008 673.699 186.528L673.811 187.552C670.675 188.16 667.235 188.176 664.739 188.176L664.563 187.008ZM666.595 181.472C666.595 182.736 667.635 183.616 669.043 183.616C670.435 183.616 671.475 182.736 671.475 181.472C671.475 180.192 670.435 179.328 669.043 179.328C667.635 179.328 666.595 180.192 666.595 181.472ZM674.611 191.232V177.104H675.987V191.232H674.611ZM682.171 188.24H687.803V184.864H689.179V188.24H694.923V189.392H682.171V188.24ZM682.651 183.92C685.227 183.472 687.771 181.392 687.771 179.12V178.032H689.211V179.12C689.211 181.392 691.787 183.472 694.347 183.92L693.739 185.088C691.547 184.624 689.419 183.184 688.491 181.232C687.563 183.184 685.435 184.624 683.227 185.088L682.651 183.92ZM696.683 178.032H704.379V179.136H701.243V179.392C701.243 181.184 702.683 182.816 704.779 183.456L704.107 184.544C702.475 184.032 701.211 182.928 700.571 181.52C699.963 183.04 698.683 184.224 697.003 184.784L696.299 183.696C698.443 183.024 699.835 181.28 699.835 179.392V179.136H696.683V178.032ZM698.603 191.024V185.424H699.947V187.056H706.331V185.424H707.691V191.024H698.603ZM699.947 189.888H706.331V188.144H699.947V189.888ZM706.315 184.752V177.136H707.691V184.752H706.315Z" fill="#3F3F46"/>
<path d="M443 293H475" stroke="#71717A" stroke-width="0.95" stroke-dasharray="2.85 2.85"/>
<path d="M499.592 294.632H512.344V295.784H506.664V300.232H505.272V295.784H499.592V294.632ZM501.304 293.256V286.776H510.776V287.896H502.648V289.416H510.472V290.52H502.648V292.136H510.936V293.256H501.304ZM513.848 287.56H521.464V288.712H518.392V290.36C518.392 292.584 519.912 295.08 521.992 296.056L521.208 297.16C519.64 296.392 518.36 294.776 517.72 292.92C517.08 294.936 515.752 296.712 514.168 297.512L513.352 296.408C515.4 295.4 517.032 292.744 517.032 290.36V288.712H513.848V287.56ZM523.048 300.216V286.136H524.44V291.784H526.712V292.936H524.44V300.216H523.048ZM532.153 286.776C534.249 286.776 535.769 287.96 535.769 289.688C535.769 291.4 534.249 292.6 532.153 292.6C530.073 292.6 528.553 291.4 528.553 289.688C528.553 287.96 530.073 286.776 532.153 286.776ZM527.545 293.736C530.137 293.736 533.689 293.704 536.777 293.224L536.873 294.264C535.577 294.504 534.233 294.648 532.921 294.744V299.768H531.529V294.824C530.153 294.888 528.857 294.904 527.721 294.904L527.545 293.736ZM529.881 289.688C529.881 290.744 530.841 291.448 532.153 291.448C533.481 291.448 534.441 290.744 534.441 289.688C534.441 288.632 533.481 287.912 532.153 287.912C530.841 287.912 529.881 288.632 529.881 289.688ZM537.753 300.216V286.12H539.129V300.216H537.753ZM551.721 286.12H553.113V296.84H551.721V295.416H548.905V294.424H551.721V286.12ZM541.465 292.6C544.073 292.584 547.545 292.552 550.553 292.184L550.633 293.176C549.417 293.384 548.153 293.512 546.889 293.592V296.344H545.497V293.656C544.121 293.72 542.793 293.736 541.657 293.736L541.465 292.6ZM542.569 289.144C542.569 287.656 543.977 286.68 546.041 286.68C548.105 286.68 549.513 287.656 549.513 289.144C549.513 290.648 548.105 291.608 546.041 291.608C543.977 291.608 542.569 290.648 542.569 289.144ZM543.433 299.896V295.8H544.825V298.776H553.465V299.896H543.433ZM543.881 289.144C543.881 290.024 544.777 290.568 546.041 290.568C547.321 290.568 548.185 290.024 548.185 289.144C548.185 288.264 547.321 287.704 546.041 287.704C544.777 287.704 543.881 288.264 543.881 289.144ZM565.658 286.136H567.034V300.216H565.658V286.136ZM555.61 296.408C556.778 296.408 558.106 296.408 559.482 296.36V294.888C557.834 294.68 556.778 293.72 556.778 292.328C556.778 290.744 558.138 289.72 560.17 289.72C562.186 289.72 563.578 290.744 563.578 292.328C563.578 293.72 562.506 294.68 560.874 294.888V296.312C562.202 296.248 563.53 296.136 564.778 295.976L564.874 297C561.754 297.544 558.362 297.576 555.802 297.576L555.61 296.408ZM555.898 288.936V287.832H559.482V286.136H560.874V287.832H564.442V288.936H555.898ZM558.09 292.328C558.09 293.272 558.938 293.864 560.17 293.864C561.418 293.864 562.25 293.272 562.25 292.328C562.25 291.384 561.418 290.776 560.17 290.776C558.938 290.776 558.09 291.384 558.09 292.328ZM577.793 286.776C579.889 286.776 581.409 287.96 581.409 289.688C581.409 291.4 579.889 292.6 577.793 292.6C575.713 292.6 574.193 291.4 574.193 289.688C574.193 287.96 575.713 286.776 577.793 286.776ZM573.185 293.736C575.777 293.736 579.329 293.704 582.417 293.224L582.513 294.264C581.217 294.504 579.873 294.648 578.561 294.744V299.768H577.169V294.824C575.793 294.888 574.497 294.904 573.361 294.904L573.185 293.736ZM575.521 289.688C575.521 290.744 576.481 291.448 577.793 291.448C579.121 291.448 580.081 290.744 580.081 289.688C580.081 288.632 579.121 287.912 577.793 287.912C576.481 287.912 575.521 288.632 575.521 289.688ZM583.393 300.216V286.12H584.769V300.216H583.393ZM597.362 286.12H598.754V296.84H597.362V295.416H594.546V294.424H597.362V286.12ZM587.106 292.6C589.714 292.584 593.186 292.552 596.194 292.184L596.274 293.176C595.058 293.384 593.794 293.512 592.53 293.592V296.344H591.138V293.656C589.762 293.72 588.434 293.736 587.298 293.736L587.106 292.6ZM588.21 289.144C588.21 287.656 589.618 286.68 591.682 286.68C593.746 286.68 595.154 287.656 595.154 289.144C595.154 290.648 593.746 291.608 591.682 291.608C589.618 291.608 588.21 290.648 588.21 289.144ZM589.074 299.896V295.8H590.466V298.776H599.106V299.896H589.074ZM589.522 289.144C589.522 290.024 590.418 290.568 591.682 290.568C592.962 290.568 593.826 290.024 593.826 289.144C593.826 288.264 592.962 287.704 591.682 287.704C590.418 287.704 589.522 288.264 589.522 289.144ZM607.538 286.984C610.482 286.984 612.674 288.552 612.674 290.888C612.674 293.256 610.482 294.792 607.538 294.792C604.626 294.792 602.402 293.256 602.402 290.888C602.402 288.552 604.626 286.984 607.538 286.984ZM601.186 298.344V297.192H613.938V298.344H601.186ZM603.746 290.888C603.746 292.568 605.362 293.672 607.538 293.672C609.73 293.672 611.346 292.568 611.346 290.888C611.346 289.224 609.73 288.104 607.538 288.104C605.362 288.104 603.746 289.224 603.746 290.888ZM615.171 297.352H620.835V294.776H616.755V290.36H624.995V288.264H616.723V287.144H626.371V291.464H618.115V293.656H626.691V294.776H622.211V297.352H627.923V298.488H615.171V297.352ZM629.731 287.368H636.227V293.944H629.731V287.368ZM631.091 292.808H634.883V288.488H631.091V292.808ZM631.315 299.896V295.448H632.691V298.776H640.723V299.896H631.315ZM638.723 296.424V286.12H640.115V290.376H642.163V291.528H640.115V296.424H638.723ZM648.411 287.032H657.915V288.264C657.915 289.592 657.915 291.048 657.515 293.08H659.563V294.232H653.867V300.232H652.459V294.232H646.827V293.08H656.107C656.539 291.08 656.539 289.576 656.539 288.264V288.152H648.411V287.032ZM664.315 286.92H665.691V288.28C665.691 290.264 667.003 292.024 669.083 292.728L668.331 293.816C666.811 293.24 665.659 292.136 665.051 290.712C664.443 292.344 663.195 293.608 661.499 294.232L660.779 293.112C662.955 292.344 664.315 290.472 664.315 288.328V286.92ZM663.035 297.528C663.035 295.832 664.827 294.856 667.755 294.856C670.667 294.856 672.459 295.832 672.459 297.528C672.459 299.224 670.667 300.184 667.755 300.184C664.827 300.184 663.035 299.224 663.035 297.528ZM664.427 297.528C664.427 298.52 665.659 299.096 667.755 299.096C669.835 299.096 671.083 298.52 671.083 297.528C671.083 296.52 669.835 295.944 667.755 295.944C665.659 295.944 664.427 296.52 664.427 297.528ZM668.011 290.2V289.048H671.003V286.136H672.395V294.44H671.003V290.2H668.011ZM676.108 287.032H682.796V288.168H677.484V290.696H682.892V291.816H680.156V293.672C681.42 293.608 682.684 293.528 683.852 293.4L683.948 294.408C680.972 294.84 677.66 294.904 675.052 294.904L674.844 293.784C676.044 293.784 677.388 293.768 678.764 293.72V291.816H676.108V287.032ZM677.164 299.896V295.96H678.556V298.776H686.78V299.896H677.164ZM684.94 296.664V286.136H686.332V296.664H684.94ZM702.691 286.136H704.067V293.448H702.691V291.736H699.539V292.92H693.155V286.776H694.531V288.728H698.179V286.776H699.539V288.104H702.691V286.136ZM694.531 291.8H698.179V289.8H694.531V291.8ZM694.963 295.224V294.12H704.067V297.512H696.371V298.92H704.563V300.024H695.011V296.472H702.707V295.224H694.963ZM699.539 290.664H702.691V289.176H699.539V290.664ZM708.052 287.224H717.604V288.344H709.444V292.648H717.748V293.784H713.492V297.304H719.204V298.456H706.452V297.304H712.116V293.784H708.052V287.224ZM724.98 287.128C727.172 287.128 728.756 288.504 728.756 290.472C728.756 292.456 727.172 293.816 724.98 293.816C722.772 293.816 721.188 292.456 721.188 290.472C721.188 288.504 722.772 287.128 724.98 287.128ZM720.5 296.008C723.044 296.008 726.596 296.008 729.636 295.528L729.748 296.552C726.612 297.16 723.172 297.176 720.676 297.176L720.5 296.008ZM722.532 290.472C722.532 291.736 723.572 292.616 724.98 292.616C726.372 292.616 727.412 291.736 727.412 290.472C727.412 289.192 726.372 288.328 724.98 288.328C723.572 288.328 722.532 289.192 722.532 290.472ZM730.548 300.232V286.104H731.924V300.232H730.548ZM746.012 289.368H748.3V286.136H749.692V294.44H748.3V293.24H745.996V292.12H748.3V290.488H746.012V289.368ZM738.108 288.616V287.512H741.42V285.992H742.812V287.512H745.996V288.616H738.108ZM738.892 291.816C738.892 290.28 740.22 289.272 742.092 289.272C743.996 289.272 745.292 290.28 745.292 291.816C745.292 293.336 743.996 294.344 742.092 294.344C740.22 294.344 738.892 293.336 738.892 291.816ZM740.204 291.816C740.204 292.712 740.956 293.32 742.092 293.32C743.228 293.32 743.996 292.712 743.996 291.816C743.996 290.904 743.228 290.312 742.092 290.312C740.956 290.312 740.204 290.904 740.204 291.816ZM740.556 300.024V295.048H741.916V296.44H748.332V295.048H749.692V300.024H740.556ZM741.916 298.936H748.332V297.512H741.916V298.936ZM756.636 287.128C758.828 287.128 760.412 288.504 760.412 290.472C760.412 292.456 758.828 293.816 756.636 293.816C754.428 293.816 752.844 292.456 752.844 290.472C752.844 288.504 754.428 287.128 756.636 287.128ZM752.156 296.008C754.7 296.008 758.252 296.008 761.292 295.528L761.404 296.552C758.268 297.16 754.828 297.176 752.332 297.176L752.156 296.008ZM754.188 290.472C754.188 291.736 755.228 292.616 756.636 292.616C758.028 292.616 759.068 291.736 759.068 290.472C759.068 289.192 758.028 288.328 756.636 288.328C755.228 288.328 754.188 289.192 754.188 290.472ZM762.204 300.232V286.104H763.58V300.232H762.204ZM770.388 287.64H777.508V288.456C777.508 289.64 777.508 291.448 777.108 294.024L775.748 293.912C776.132 291.624 776.164 289.944 776.164 288.776H770.388V287.64ZM769.62 296.008C770.5 296.008 771.492 295.992 772.532 295.976V291.672H773.908V295.928C775.428 295.88 776.964 295.784 778.372 295.608L778.452 296.632C775.54 297.096 772.276 297.16 769.796 297.16L769.62 296.008ZM779.204 300.2V286.12H780.58V291.992H782.788V293.144H780.58V300.2H779.204ZM791.253 289.752H793.957V286.136H795.349V294.504H793.957V290.888H791.253V289.752ZM783.781 293.304C785.893 292.536 787.285 290.648 787.285 288.648V288.264H784.181V287.128H791.717V288.264H788.677V288.648C788.677 290.456 789.989 292.2 792.069 292.92L791.349 294.008C789.781 293.448 788.613 292.296 788.005 290.872C787.413 292.488 786.149 293.784 784.485 294.408L783.781 293.304ZM785.989 297.576C785.989 295.912 787.765 294.92 790.693 294.92C793.605 294.92 795.397 295.912 795.397 297.576C795.397 299.24 793.605 300.2 790.693 300.2C787.765 300.2 785.989 299.24 785.989 297.576ZM787.365 297.576C787.365 298.552 788.613 299.128 790.693 299.128C792.773 299.128 794.021 298.552 794.021 297.576C794.021 296.584 792.773 296.008 790.693 296.008C788.613 296.008 787.365 296.584 787.365 297.576ZM804.085 286.376C807.205 286.376 809.061 287.224 809.061 288.792C809.061 290.376 807.205 291.24 804.085 291.24C800.981 291.24 799.109 290.376 799.109 288.792C799.109 287.224 800.981 286.376 804.085 286.376ZM797.733 293.256V292.136H810.453V293.256H797.733ZM799.253 295.464V294.392H808.821V297.624H800.645V298.984H809.253V300.056H799.301V296.632H807.477V295.464H799.253ZM800.549 288.792C800.549 289.704 801.829 290.2 804.085 290.2C806.341 290.2 807.637 289.704 807.637 288.792C807.637 287.912 806.341 287.4 804.085 287.4C801.829 287.4 800.549 287.912 800.549 288.792ZM825.581 286.136H826.989V293.416H825.581V286.136ZM815.645 291.832C816.189 291.832 816.765 291.816 817.373 291.816V288.168H816.029V287.064H823.581V288.168H822.237V291.624C822.925 291.576 823.613 291.512 824.253 291.432L824.317 292.424C821.517 292.872 818.253 292.952 815.805 292.952L815.645 291.832ZM817.757 295.176V294.088H826.989V297.528H819.149V298.952H827.485V300.056H817.789V296.504H825.597V295.176H817.757ZM818.717 291.784C819.437 291.768 820.157 291.736 820.893 291.704V288.168H818.717V291.784ZM835.037 286.616H836.493V287.4C836.493 289.304 838.877 291.064 841.517 291.448L840.957 292.552C838.733 292.184 836.685 290.984 835.773 289.304C834.877 291 832.829 292.184 830.573 292.552L830.013 291.448C832.669 291.064 835.037 289.352 835.037 287.4V286.616ZM829.389 295.16V294.024H842.125V295.16H836.413V300.216H835.037V295.16H829.389ZM843.374 297.352H849.038V294.776H844.958V290.36H853.198V288.264H844.926V287.144H854.574V291.464H846.318V293.656H854.894V294.776H850.414V297.352H856.126V298.488H843.374V297.352ZM861.59 287.256H869.286V288.392H866.15V289.08C866.15 290.952 867.574 292.664 869.67 293.368L868.966 294.456C867.35 293.912 866.102 292.76 865.478 291.304C864.87 292.872 863.606 294.12 861.926 294.712L861.206 293.624C863.35 292.872 864.742 291.048 864.742 289.08V288.392H861.59V287.256ZM863.51 299.896V295.448H864.886V298.776H873.014V299.896H863.51ZM871.206 296.424V286.136H872.598V296.424H871.206ZM885.574 286.136H886.902V295.016H885.574V291.048H883.878V294.52H882.582V286.408H883.878V289.912H885.574V286.136ZM874.934 288.888V287.768H877.83V286.248H879.19V287.768H882.038V288.888H874.934ZM875.51 291.976C875.51 290.52 876.742 289.56 878.502 289.56C880.278 289.56 881.51 290.52 881.51 291.976C881.51 293.448 880.278 294.392 878.502 294.392C876.742 294.392 875.51 293.448 875.51 291.976ZM876.742 291.976C876.742 292.824 877.462 293.384 878.502 293.384C879.542 293.384 880.278 292.824 880.278 291.976C880.278 291.128 879.542 290.6 878.502 290.6C877.462 290.6 876.742 291.128 876.742 291.976ZM877.542 297.72C877.542 296.152 879.302 295.256 882.246 295.256C885.222 295.256 886.982 296.152 886.982 297.72C886.982 299.288 885.222 300.184 882.246 300.184C879.302 300.184 877.542 299.288 877.542 297.72ZM878.902 297.72C878.902 298.632 880.15 299.128 882.246 299.128C884.374 299.128 885.59 298.632 885.59 297.72C885.59 296.792 884.374 296.312 882.246 296.312C880.15 296.312 878.902 296.792 878.902 297.72Z" fill="#3F3F46"/>
<path d="M443 399H475" stroke="#71717A" stroke-width="0.95" stroke-dasharray="2.85 2.85"/>
<path d="M509.72 392.136H511.096V406.216H509.72V392.136ZM499.672 402.408C500.84 402.408 502.168 402.408 503.544 402.36V400.888C501.896 400.68 500.84 399.72 500.84 398.328C500.84 396.744 502.2 395.72 504.232 395.72C506.248 395.72 507.64 396.744 507.64 398.328C507.64 399.72 506.568 400.68 504.936 400.888V402.312C506.264 402.248 507.592 402.136 508.84 401.976L508.936 403C505.816 403.544 502.424 403.576 499.864 403.576L499.672 402.408ZM499.96 394.936V393.832H503.544V392.136H504.936V393.832H508.504V394.936H499.96ZM502.152 398.328C502.152 399.272 503 399.864 504.232 399.864C505.48 399.864 506.312 399.272 506.312 398.328C506.312 397.384 505.48 396.776 504.232 396.776C503 396.776 502.152 397.384 502.152 398.328ZM518.136 393.128C520.328 393.128 521.912 394.504 521.912 396.472C521.912 398.456 520.328 399.816 518.136 399.816C515.928 399.816 514.344 398.456 514.344 396.472C514.344 394.504 515.928 393.128 518.136 393.128ZM513.656 402.008C516.2 402.008 519.752 402.008 522.792 401.528L522.904 402.552C519.768 403.16 516.328 403.176 513.832 403.176L513.656 402.008ZM515.688 396.472C515.688 397.736 516.728 398.616 518.136 398.616C519.528 398.616 520.568 397.736 520.568 396.472C520.568 395.192 519.528 394.328 518.136 394.328C516.728 394.328 515.688 395.192 515.688 396.472ZM523.704 406.232V392.104H525.08V406.232H523.704ZM541.872 392.12H543.2V406.2H541.872V398.968H539.984V405.48H538.704V392.44H539.984V397.816H541.872V392.12ZM531.936 402.6V393.816H533.312V401.384C534.624 401.368 536.08 401.272 537.712 400.936L537.872 402.152C535.952 402.52 534.352 402.6 532.848 402.6H531.936ZM545.249 399.064H548.353V397.112C547.249 396.664 546.625 395.96 546.625 395.016C546.625 393.352 548.545 392.392 551.601 392.392C554.657 392.392 556.577 393.352 556.577 395.016C556.577 395.944 555.953 396.664 554.865 397.112V399.064H557.969V400.152H545.249V399.064ZM546.769 403.672C546.769 402.088 548.577 401.176 551.601 401.176C554.609 401.176 556.433 402.088 556.433 403.672C556.433 405.288 554.609 406.2 551.601 406.2C548.577 406.2 546.769 405.288 546.769 403.672ZM548.049 395.016C548.049 395.992 549.409 396.568 551.601 396.568C553.793 396.568 555.153 395.992 555.153 395.016C555.153 394.024 553.793 393.448 551.601 393.448C549.409 393.448 548.049 394.024 548.049 395.016ZM548.161 403.672C548.161 404.616 549.425 405.128 551.601 405.128C553.761 405.128 555.025 404.616 555.025 403.672C555.025 402.776 553.761 402.248 551.601 402.248C549.425 402.248 548.161 402.776 548.161 403.672ZM549.713 399.064H553.489V397.48C552.929 397.576 552.289 397.624 551.601 397.624C550.913 397.624 550.273 397.576 549.713 397.48V399.064ZM563.777 393.128C565.969 393.128 567.553 394.504 567.553 396.472C567.553 398.456 565.969 399.816 563.777 399.816C561.569 399.816 559.985 398.456 559.985 396.472C559.985 394.504 561.569 393.128 563.777 393.128ZM559.297 402.008C561.841 402.008 565.393 402.008 568.433 401.528L568.545 402.552C565.409 403.16 561.969 403.176 559.473 403.176L559.297 402.008ZM561.329 396.472C561.329 397.736 562.369 398.616 563.777 398.616C565.169 398.616 566.209 397.736 566.209 396.472C566.209 395.192 565.169 394.328 563.777 394.328C562.369 394.328 561.329 395.192 561.329 396.472ZM569.345 406.232V392.104H570.721V406.232H569.345ZM576.889 399.304H589.641V400.424H584.073V403.208H582.681V400.424H576.889V399.304ZM578.489 405.912V401.864H579.881V404.792H588.233V405.912H578.489ZM578.521 397.768V392.792H587.993V397.768H578.521ZM579.881 396.648H586.633V393.88H579.881V396.648ZM597.913 396.856H601.113V392.104H602.489V406.232H601.113V397.992H597.913V396.856ZM590.841 402.136C592.937 401.112 594.473 398.392 594.473 395.784V393.32H595.849V395.784C595.849 398.344 597.353 400.92 599.433 401.896L598.617 403.016C597.033 402.2 595.801 400.568 595.177 398.616C594.553 400.68 593.289 402.408 591.705 403.256L590.841 402.136ZM614.378 392.136H615.77V398.072H617.898V399.24H615.77V406.216H614.378V392.136ZM604.714 402.408C605.834 402.408 607.13 402.408 608.474 402.36V400.888C606.89 400.68 605.834 399.72 605.834 398.328C605.834 396.744 607.194 395.72 609.162 395.72C611.13 395.72 612.506 396.744 612.506 398.328C612.506 399.72 611.45 400.68 609.866 400.888V402.312C611.114 402.248 612.378 402.152 613.546 401.976L613.658 402.984C610.634 403.56 607.354 403.576 604.922 403.576L604.714 402.408ZM604.954 394.92V393.816H608.474V392.152H609.866V393.816H613.354V394.92H604.954ZM607.146 398.328C607.146 399.272 607.962 399.864 609.162 399.864C610.378 399.864 611.194 399.272 611.194 398.328C611.194 397.384 610.378 396.776 609.162 396.776C607.962 396.776 607.146 397.384 607.146 398.328ZM623.298 393.032H629.874V398.808H623.298V393.032ZM624.242 405.096C626.738 404.824 628.834 403.528 628.898 402.2H624.802V401.128H628.914V399.8H630.322V401.128H634.418V402.2H630.322C630.385 403.496 632.45 404.808 634.914 405.096L634.45 406.168C632.29 405.88 630.45 404.92 629.602 403.64C628.754 404.936 626.882 405.88 624.706 406.168L624.242 405.096ZM624.626 397.704H628.546V394.136H624.626V397.704ZM632.722 400.2V392.136H634.114V400.2H632.722ZM640.217 403.272H645.881V400.312H641.705V393.096H643.081V395.56H650.089V393.096H651.465V400.312H647.257V403.272H652.969V404.424H640.217V403.272ZM643.081 399.192H650.089V396.68H643.081V399.192ZM663.754 392.12H665.146V396.36H667.21V397.512H665.146V402.472H663.754V392.12ZM654.442 396.584C654.442 394.536 656.026 393.096 658.138 393.096C660.25 393.096 661.834 394.536 661.834 396.584C661.834 398.632 660.25 400.072 658.138 400.072C656.026 400.072 654.442 398.632 654.442 396.584ZM655.802 396.584C655.802 397.928 656.81 398.856 658.138 398.856C659.466 398.856 660.49 397.928 660.49 396.584C660.49 395.24 659.466 394.312 658.138 394.312C656.81 394.312 655.802 395.24 655.802 396.584ZM656.346 405.896V401.416H657.722V404.776H665.77V405.896H656.346ZM671.874 400.12H684.626V401.272H681.346V406.2H679.938V401.272H676.514V406.2H675.09V401.272H671.874V400.12ZM673.266 395.768C673.266 393.864 675.266 392.696 678.21 392.696C681.17 392.696 683.154 393.864 683.154 395.768C683.154 397.656 681.17 398.84 678.21 398.84C675.266 398.84 673.266 397.656 673.266 395.768ZM674.69 395.768C674.69 396.984 676.098 397.72 678.21 397.72C680.322 397.72 681.746 396.984 681.746 395.768C681.746 394.568 680.322 393.8 678.21 393.8C676.098 393.8 674.69 394.568 674.69 395.768ZM686.29 393.56H694.162V394.712H690.914V396.36C690.914 398.744 692.546 401.16 694.642 402.056L693.858 403.16C692.242 402.408 690.898 400.84 690.242 398.936C689.586 400.968 688.258 402.712 686.626 403.512L685.826 402.408C687.89 401.432 689.522 398.792 689.522 396.36V394.712H686.29V393.56ZM695.986 406.216V392.136H697.378V406.216H695.986Z" fill="#3F3F46"/>
<path d="M443 510.5H475" stroke="#71717A" stroke-width="0.95" stroke-dasharray="2.85 2.85"/>
<path d="M504.12 503.016C506.344 503.016 507.992 504.456 507.992 506.472C507.992 508.504 506.344 509.928 504.12 509.928C501.88 509.928 500.232 508.504 500.232 506.472C500.232 504.456 501.88 503.016 504.12 503.016ZM499.592 511.896C502.12 511.896 505.672 511.88 508.696 511.416L508.824 512.696C505.704 513.304 502.296 513.336 499.8 513.336L499.592 511.896ZM501.944 506.472C501.944 507.656 502.872 508.424 504.12 508.424C505.352 508.424 506.28 507.656 506.28 506.472C506.28 505.272 505.352 504.536 504.12 504.536C502.872 504.536 501.944 505.272 501.944 506.472ZM509.544 516.312V502.024H511.288V516.312H509.544ZM523.592 502.04H525.352V509.24H523.592V508.024H520.216V506.68H523.592V505.272H520.392C519.512 507.448 517.432 508.856 514.296 509.56L513.72 508.152C517.048 507.432 518.68 505.944 518.904 504.056H514.488V502.648H520.856C520.856 503.096 520.824 503.528 520.76 503.944H523.592V502.04ZM516.04 511.192V509.816H525.352V513.576H517.816V514.76H525.704V516.152H516.072V512.248H523.592V511.192H516.04ZM541.216 502.04H542.976V516.28H541.216V502.04ZM531.28 512.392C534.976 510.616 536.656 508.2 536.96 504.952H531.984V503.528H538.768C538.768 507.8 537.152 511.384 532.192 513.784L531.28 512.392ZM546.353 502.696H556.897V504.104H552.833C553.009 505.448 554.689 506.728 557.409 507.032L556.753 508.44C554.225 508.12 552.369 506.984 551.617 505.464C550.865 506.984 549.009 508.12 546.481 508.44L545.825 507.032C548.545 506.728 550.225 505.432 550.401 504.104H546.353V502.696ZM545.169 510.648V509.24H558.065V510.648H552.641V513.24H550.881V510.648H545.169ZM546.721 516.024V511.944H548.481V514.616H556.641V516.024H546.721Z" fill="#3F3F46"/>
<path d="M507.08 535.976H509.816V532.136H511.208V542.424H509.816V537.112H507.08V535.976ZM499.624 539.576C501.736 538.84 503.144 536.968 503.144 535V534.376H500.04V533.24H507.576V534.376H504.536V534.984C504.536 536.776 505.864 538.552 507.928 539.272L507.224 540.36C505.656 539.784 504.472 538.632 503.864 537.208C503.256 538.792 502.024 540.072 500.344 540.68L499.624 539.576ZM502.168 545.896V541.544H503.56V544.776H511.592V545.896H502.168ZM514.168 532.968H520.52V536.92H515.576V538.84C518.024 538.84 519.784 538.744 521.864 538.376L521.992 539.528C519.816 539.896 517.944 539.976 515.32 539.976H514.2V535.848H519.16V534.088H514.168V532.968ZM515.368 542.552V541.416H524.552V546.216H523.16V542.552H515.368ZM523.16 540.696V532.136H524.552V534.344H526.6V535.48H524.552V537.288H526.6V538.44H524.552V540.696H523.16ZM535.113 535.752H537.769V532.136H539.161V540.536H537.769V536.904H535.113V535.752ZM527.593 539.24C529.705 538.504 531.097 536.632 531.097 534.664V534.2H528.009V533.064H535.545V534.2H532.489V534.664C532.489 536.456 533.817 538.2 535.897 538.92L535.177 540.024C533.609 539.448 532.441 538.296 531.833 536.872C531.225 538.472 529.977 539.736 528.313 540.328L527.593 539.24ZM529.753 542.424V541.288H539.161V546.216H537.769V542.424H529.753ZM551.713 540.92C554.593 540.92 556.353 541.896 556.353 543.56C556.353 545.24 554.593 546.2 551.713 546.2C548.833 546.2 547.057 545.24 547.057 543.56C547.057 541.896 548.833 540.92 551.713 540.92ZM545.825 539.528V533.016H547.201V535.08H551.009V533.016H552.369V539.528H545.825ZM547.201 538.424H551.009V536.184H547.201V538.424ZM548.417 543.56C548.417 544.536 549.649 545.096 551.713 545.096C553.745 545.096 554.977 544.536 554.977 543.56C554.977 542.6 553.745 542.04 551.713 542.04C549.649 542.04 548.417 542.6 548.417 543.56ZM554.817 540.568V532.136H556.209V535.64H558.257V536.792H556.209V540.568H554.817ZM568.785 532.136H570.177V534.504H572.193V535.64H570.177V537.512H572.193V538.648H570.177V541.176H568.785V532.136ZM559.265 534.792V533.688H562.737V532.008H564.113V533.688H567.585V534.792H559.265ZM560.049 537.944C560.049 536.44 561.409 535.464 563.425 535.464C565.441 535.464 566.801 536.44 566.801 537.944C566.801 539.464 565.441 540.44 563.425 540.44C561.409 540.44 560.049 539.464 560.049 537.944ZM561.121 543.736C561.121 542.2 562.881 541.304 565.745 541.304C568.593 541.304 570.337 542.2 570.337 543.736C570.337 545.272 568.593 546.184 565.745 546.184C562.881 546.184 561.121 545.272 561.121 543.736ZM561.361 537.944C561.361 538.84 562.193 539.4 563.425 539.4C564.641 539.4 565.473 538.84 565.473 537.944C565.473 537.064 564.641 536.504 563.425 536.504C562.193 536.504 561.361 537.064 561.361 537.944ZM562.513 543.736C562.513 544.632 563.729 545.128 565.745 545.128C567.777 545.128 568.977 544.632 568.977 543.736C568.977 542.856 567.777 542.36 565.745 542.36C563.729 542.36 562.513 542.856 562.513 543.736ZM576.721 532.92H578.097V534.28C578.097 536.264 579.409 538.024 581.489 538.728L580.737 539.816C579.217 539.24 578.065 538.136 577.457 536.712C576.849 538.344 575.601 539.608 573.905 540.232L573.185 539.112C575.361 538.344 576.721 536.472 576.721 534.328V532.92ZM575.441 543.528C575.441 541.832 577.233 540.856 580.161 540.856C583.073 540.856 584.865 541.832 584.865 543.528C584.865 545.224 583.073 546.184 580.161 546.184C577.233 546.184 575.441 545.224 575.441 543.528ZM576.833 543.528C576.833 544.52 578.065 545.096 580.161 545.096C582.241 545.096 583.489 544.52 583.489 543.528C583.489 542.52 582.241 541.944 580.161 541.944C578.065 541.944 576.833 542.52 576.833 543.528ZM580.417 536.2V535.048H583.409V532.136H584.801V540.44H583.409V536.2H580.417ZM589.186 543.704L588.242 546.904H587.25L587.778 543.704H589.186ZM600.19 539.192C601.566 539.192 602.526 538.248 602.526 536.872C602.526 535.496 601.566 534.584 600.19 534.584H597.486V539.192H600.19ZM596.142 545.048V533.4H600.238C602.366 533.4 603.854 534.84 603.854 536.888C603.87 538.472 602.83 539.816 601.134 540.248L604.398 545.048H602.798L599.614 540.376H597.486V545.048H596.142ZM616.774 545.032H614.902L613.83 543.832C613.014 544.616 611.958 545.192 610.614 545.192C607.142 545.192 606.934 542.312 606.934 541.88C606.934 541.464 607.142 539.608 608.998 538.488C608.406 537.896 607.75 537.208 607.75 536.088C607.75 535.016 608.646 533.352 610.614 533.352C612.518 533.352 613.51 534.904 613.51 536.088C613.51 537.288 612.662 538.12 611.27 538.888L613.798 541.72C614.214 541.096 614.582 540.392 614.902 539.768L616.118 540.424C615.766 541.096 615.334 541.96 614.742 542.776L616.774 545.032ZM608.31 541.88C608.31 542.232 608.438 543.816 610.614 543.816C611.542 543.816 612.294 543.4 612.918 542.808L609.99 539.528C608.47 540.264 608.31 541.56 608.31 541.88ZM609.126 536.088C609.126 536.76 609.734 537.176 610.342 537.832C611.622 537.208 612.134 536.744 612.134 536.088C612.134 535.432 611.686 534.728 610.614 534.728C609.526 534.728 609.126 535.464 609.126 536.088ZM624.21 545.176C620.834 545.176 618.466 542.712 618.466 539.224C618.466 535.72 620.834 533.272 624.21 533.272C625.81 533.272 627.234 533.96 628.274 535.016L627.378 535.816C626.594 534.968 625.426 534.456 624.21 534.456C621.618 534.456 619.826 536.408 619.826 539.224C619.826 542.04 621.618 543.992 624.21 543.992C625.458 543.992 626.562 543.464 627.33 542.648L628.274 543.432C627.234 544.488 625.826 545.176 624.21 545.176ZM642.894 532.136H644.286V536.36H646.318V537.512H644.286V541.592H642.894V532.136ZM633.246 540.104C634.35 540.104 635.646 540.104 636.974 540.056V539.064C635.358 538.904 634.35 538.152 634.35 537C634.35 535.704 635.646 534.92 637.63 534.92C639.646 534.92 640.942 535.704 640.942 537C640.942 538.136 639.95 538.888 638.334 539.064V540.008C639.614 539.944 640.894 539.832 642.094 539.656L642.206 540.648C639.198 541.192 635.886 541.208 633.438 541.208L633.246 540.104ZM633.614 534.408V533.368H636.974V532.008H638.334V533.368H641.678V534.408H633.614ZM634.99 543.384V542.28H644.286V546.216H642.894V543.384H634.99ZM635.662 537C635.662 537.688 636.43 538.152 637.63 538.152C638.862 538.152 639.63 537.688 639.63 537C639.63 536.296 638.862 535.864 637.63 535.864C636.43 535.864 635.662 536.296 635.662 537ZM647.327 543.272H652.991V540.312H648.815V533.096H650.191V535.56H657.199V533.096H658.575V540.312H654.367V543.272H660.079V544.424H647.327V543.272ZM650.191 539.192H657.199V536.68H650.191V539.192ZM667.775 540.92C670.655 540.92 672.415 541.896 672.415 543.56C672.415 545.24 670.655 546.2 667.775 546.2C664.895 546.2 663.119 545.24 663.119 543.56C663.119 541.896 664.895 540.92 667.775 540.92ZM661.887 539.528V533.016H663.263V535.08H667.071V533.016H668.431V539.528H661.887ZM663.263 538.424H667.071V536.184H663.263V538.424ZM664.479 543.56C664.479 544.536 665.711 545.096 667.775 545.096C669.807 545.096 671.039 544.536 671.039 543.56C671.039 542.6 669.807 542.04 667.775 542.04C665.711 542.04 664.479 542.6 664.479 543.56ZM670.879 540.568V532.136H672.271V535.64H674.319V536.792H672.271V540.568H670.879ZM684.848 532.12H686.24V536.36H688.304V537.512H686.24V542.472H684.848V532.12ZM675.536 536.584C675.536 534.536 677.12 533.096 679.232 533.096C681.344 533.096 682.928 534.536 682.928 536.584C682.928 538.632 681.344 540.072 679.232 540.072C677.12 540.072 675.536 538.632 675.536 536.584ZM676.896 536.584C676.896 537.928 677.904 538.856 679.232 538.856C680.56 538.856 681.584 537.928 681.584 536.584C681.584 535.24 680.56 534.312 679.232 534.312C677.904 534.312 676.896 535.24 676.896 536.584ZM677.44 545.896V541.416H678.816V544.776H686.864V545.896H677.44ZM691.264 543.704L690.32 546.904H689.328L689.856 543.704H691.264ZM707.964 533.4L703.804 545.048H702.316L697.932 533.4H699.356L703.052 543.192L706.54 533.4H707.964ZM711.901 545.144C709.837 545.144 708.365 543.576 708.365 541.384C708.365 539.176 709.837 537.608 711.901 537.608C712.701 537.608 713.581 538.008 714.221 538.872V537.592H715.549V545.048H714.221V543.848C713.565 544.792 712.701 545.144 711.901 545.144ZM709.693 541.384C709.693 542.904 710.621 543.976 711.949 543.976C713.149 543.976 714.221 542.888 714.237 541.384C714.221 539.88 713.149 538.776 711.949 538.776C710.621 538.776 709.693 539.832 709.693 541.384ZM717.713 533.752H719.041V545.048H717.713V533.752ZM722.685 541.928C722.685 543.112 723.405 543.976 724.445 543.976C725.629 543.976 726.445 543.224 726.445 542.04V537.592H727.789V545.048H726.445V544.104C725.949 544.744 725.117 545.16 724.365 545.16C722.605 545.16 721.341 543.832 721.341 542.04V537.592H722.685V541.928ZM733.292 545.144C731.228 545.144 729.756 543.576 729.756 541.384C729.756 539.176 731.228 537.608 733.292 537.608C734.092 537.608 734.972 538.008 735.612 538.872V537.592H736.94V545.048H735.612V543.848C734.956 544.792 734.092 545.144 733.292 545.144ZM731.084 541.384C731.084 542.904 732.012 543.976 733.34 543.976C734.54 543.976 735.612 542.888 735.628 541.384C735.612 539.88 734.54 538.776 733.34 538.776C732.012 538.776 731.084 539.832 731.084 541.384ZM739.846 545.048V538.76H738.486V537.576H739.846V535H741.19V537.576H742.95V538.76H741.19V545.048H739.846ZM744.64 537.576H745.968V545.048H744.64V537.576ZM744.496 534.68C744.496 534.216 744.832 533.88 745.312 533.88C745.776 533.88 746.112 534.216 746.112 534.68C746.112 535.16 745.776 535.496 745.312 535.496C744.832 535.496 744.496 535.16 744.496 534.68ZM751.62 543.96C752.948 543.96 753.86 542.904 753.86 541.368C753.86 539.832 752.948 538.76 751.62 538.76C750.308 538.76 749.396 539.816 749.396 541.368C749.396 542.92 750.292 543.96 751.62 543.96ZM748.068 541.368C748.068 539.16 749.54 537.576 751.62 537.576C753.716 537.576 755.204 539.16 755.204 541.368C755.204 543.56 753.716 545.144 751.62 545.144C749.54 545.144 748.068 543.56 748.068 541.368ZM762.101 540.76C762.101 539.56 761.397 538.776 760.341 538.776C759.157 538.776 758.325 539.688 758.325 540.76V545.048H756.997V537.592H758.325V538.68C758.837 538.04 759.669 537.592 760.405 537.592C762.037 537.592 763.429 538.712 763.429 540.664V545.048H762.101V540.76ZM767.076 543.704L766.132 546.904H765.14L765.668 543.704H767.076ZM505.336 568.76L501.704 562.04V571.048H500.36V559.4H501.752L505.976 567.128L510.2 559.4H511.592V571.048H510.264V562.04L506.6 568.76H505.336ZM514.265 563.576H515.593V571.048H514.265V563.576ZM514.121 560.68C514.121 560.216 514.457 559.88 514.937 559.88C515.401 559.88 515.737 560.216 515.737 560.68C515.737 561.16 515.401 561.496 514.937 561.496C514.457 561.496 514.121 561.16 514.121 560.68ZM517.869 559.752H519.197V571.048H517.869V559.752ZM524.449 571.112C522.353 571.112 520.881 569.544 520.881 567.352C520.881 565.144 522.353 563.592 524.449 563.592C526.753 563.592 527.457 565.448 527.521 565.624C527.969 566.776 527.825 567.88 527.825 567.928H522.225C522.417 569.112 523.345 569.944 524.449 569.944C525.921 569.944 526.465 569.016 526.577 568.84L527.633 569.384C527.265 570.216 526.209 571.112 524.449 571.112ZM522.225 566.792L526.529 566.776C526.385 565.64 525.825 564.76 524.449 564.76C523.313 564.76 522.417 565.592 522.225 566.792ZM530.453 568.664C530.869 569.56 531.749 569.944 532.309 569.944C533.205 569.944 533.845 569.56 533.845 568.92C533.845 568.312 533.013 568.072 532.181 567.784C531.157 567.432 529.717 566.984 529.717 565.56C529.717 564.296 530.885 563.512 532.373 563.512C533.253 563.512 534.661 564.024 535.013 565.352L533.845 565.752C533.605 564.872 532.805 564.696 532.373 564.696C531.605 564.696 531.045 565.016 531.045 565.56C531.045 566.168 531.813 566.376 532.709 566.68C533.781 567.048 535.173 567.496 535.173 568.92C535.173 570.248 533.957 571.112 532.309 571.112C531.173 571.112 529.989 570.472 529.381 569.304L530.453 568.664ZM537.862 571.048V564.76H536.502V563.576H537.862V561H539.206V563.576H540.966V564.76H539.206V571.048H537.862ZM545.573 569.96C546.901 569.96 547.813 568.904 547.813 567.368C547.813 565.832 546.901 564.76 545.573 564.76C544.261 564.76 543.349 565.816 543.349 567.368C543.349 568.92 544.245 569.96 545.573 569.96ZM542.021 567.368C542.021 565.16 543.493 563.576 545.573 563.576C547.669 563.576 549.157 565.16 549.157 567.368C549.157 569.56 547.669 571.144 545.573 571.144C543.493 571.144 542.021 569.56 542.021 567.368ZM556.054 566.76C556.054 565.56 555.35 564.776 554.294 564.776C553.11 564.776 552.278 565.688 552.278 566.76V571.048H550.95V563.592H552.278V564.68C552.79 564.04 553.622 563.592 554.358 563.592C555.99 563.592 557.382 564.712 557.382 566.664V571.048H556.054V566.76ZM562.761 571.112C560.665 571.112 559.193 569.544 559.193 567.352C559.193 565.144 560.665 563.592 562.761 563.592C565.065 563.592 565.769 565.448 565.833 565.624C566.281 566.776 566.137 567.88 566.137 567.928H560.537C560.729 569.112 561.657 569.944 562.761 569.944C564.233 569.944 564.777 569.016 564.889 568.84L565.945 569.384C565.577 570.216 564.521 571.112 562.761 571.112ZM560.537 566.792L564.841 566.776C564.697 565.64 564.137 564.76 562.761 564.76C561.625 564.76 560.729 565.592 560.537 566.792ZM569.686 569.704L568.742 572.904H567.75L568.278 569.704H569.686ZM575.874 566.12H588.61V567.256H582.898V572.216H581.522V567.256H575.874V566.12ZM576.61 563.88C579.17 563.528 581.458 561.912 581.458 560.12V560.104H577.058V558.984H587.378V560.104H583.01V560.12C583.01 561.912 585.314 563.528 587.874 563.88L587.346 565C585.122 564.632 583.09 563.464 582.242 561.816C581.378 563.464 579.362 564.632 577.138 565L576.61 563.88ZM589.858 569.272H592.946V565.528C591.778 564.888 591.074 563.896 591.074 562.616C591.074 560.408 593.234 558.984 596.21 558.984C599.218 558.984 601.346 560.408 601.346 562.616C601.346 563.88 600.658 564.872 599.522 565.496V569.272H602.61V570.408H589.858V569.272ZM592.434 562.616C592.434 564.168 594.002 565.16 596.21 565.16C598.434 565.16 600.002 564.168 600.002 562.616C600.002 561.08 598.434 560.072 596.21 560.072C594.002 560.072 592.434 561.08 592.434 562.616ZM594.322 569.272H598.13V566.024C597.554 566.168 596.898 566.248 596.21 566.248C595.538 566.248 594.898 566.168 594.322 566.04V569.272ZM608.298 559.4H609.642V571.048H608.298V559.4ZM613 568.664C613.416 569.56 614.296 569.944 614.856 569.944C615.752 569.944 616.392 569.56 616.392 568.92C616.392 568.312 615.56 568.072 614.728 567.784C613.704 567.432 612.264 566.984 612.264 565.56C612.264 564.296 613.432 563.512 614.92 563.512C615.8 563.512 617.208 564.024 617.56 565.352L616.392 565.752C616.152 564.872 615.352 564.696 614.92 564.696C614.152 564.696 613.592 565.016 613.592 565.56C613.592 566.168 614.36 566.376 615.256 566.68C616.328 567.048 617.72 567.496 617.72 568.92C617.72 570.248 616.504 571.112 614.856 571.112C613.72 571.112 612.536 570.472 611.928 569.304L613 568.664ZM620.14 568.664C620.556 569.56 621.436 569.944 621.996 569.944C622.892 569.944 623.532 569.56 623.532 568.92C623.532 568.312 622.7 568.072 621.868 567.784C620.844 567.432 619.404 566.984 619.404 565.56C619.404 564.296 620.572 563.512 622.06 563.512C622.94 563.512 624.348 564.024 624.7 565.352L623.532 565.752C623.292 564.872 622.492 564.696 622.06 564.696C621.292 564.696 620.732 565.016 620.732 565.56C620.732 566.168 621.5 566.376 622.396 566.68C623.468 567.048 624.86 567.496 624.86 568.92C624.86 570.248 623.644 571.112 621.996 571.112C620.86 571.112 619.676 570.472 619.068 569.304L620.14 568.664ZM628.341 567.928C628.341 569.112 629.061 569.976 630.101 569.976C631.285 569.976 632.101 569.224 632.101 568.04V563.592H633.445V571.048H632.101V570.104C631.605 570.744 630.773 571.16 630.021 571.16C628.261 571.16 626.997 569.832 626.997 568.04V563.592H628.341V567.928ZM638.98 571.112C636.884 571.112 635.412 569.544 635.412 567.352C635.412 565.144 636.884 563.592 638.98 563.592C641.284 563.592 641.988 565.448 642.052 565.624C642.5 566.776 642.356 567.88 642.356 567.928H636.756C636.948 569.112 637.876 569.944 638.98 569.944C640.452 569.944 640.996 569.016 641.108 568.84L642.164 569.384C641.796 570.216 640.74 571.112 638.98 571.112ZM636.756 566.792L641.06 566.776C640.916 565.64 640.356 564.76 638.98 564.76C637.844 564.76 636.948 565.592 636.756 566.792ZM648.36 559.032H654.936V564.808H648.36V559.032ZM649.304 571.096C651.8 570.824 653.896 569.528 653.96 568.2H649.864V567.128H653.976V565.8H655.384V567.128H659.48V568.2H655.384C655.448 569.496 657.512 570.808 659.976 571.096L659.512 572.168C657.352 571.88 655.512 570.92 654.664 569.64C653.816 570.936 651.944 571.88 649.768 572.168L649.304 571.096ZM649.688 563.704H653.608V560.136H649.688V563.704ZM657.784 566.2V558.136H659.176V566.2H657.784ZM671.632 571.176C668.256 571.176 665.888 568.712 665.888 565.224C665.888 561.72 668.256 559.272 671.632 559.272C673.232 559.272 674.656 559.96 675.696 561.016L674.8 561.816C674.016 560.968 672.848 560.456 671.632 560.456C669.04 560.456 667.248 562.408 667.248 565.224C667.248 568.04 669.04 569.992 671.632 569.992C672.88 569.992 673.984 569.464 674.752 568.648L675.696 569.432C674.656 570.488 673.248 571.176 671.632 571.176ZM680.777 569.96C682.105 569.96 683.017 568.904 683.017 567.368C683.017 565.832 682.105 564.76 680.777 564.76C679.465 564.76 678.553 565.816 678.553 567.368C678.553 568.92 679.449 569.96 680.777 569.96ZM677.225 567.368C677.225 565.16 678.697 563.576 680.777 563.576C682.873 563.576 684.361 565.16 684.361 567.368C684.361 569.56 682.873 571.144 680.777 571.144C678.697 571.144 677.225 569.56 677.225 567.368ZM691.258 566.76C691.258 565.56 690.554 564.776 689.498 564.776C688.314 564.776 687.482 565.688 687.482 566.76V571.048H686.154V563.592H687.482V564.68C687.994 564.04 688.826 563.592 689.562 563.592C691.194 563.592 692.586 564.712 692.586 566.664V571.048H691.258V566.76ZM695.315 571.048V564.76H693.955V563.576H695.315V561H696.659V563.576H698.419V564.76H696.659V571.048H695.315ZM700.109 563.576H701.437V571.048H700.109V563.576ZM699.965 560.68C699.965 560.216 700.301 559.88 700.781 559.88C701.245 559.88 701.581 560.216 701.581 560.68C701.581 561.16 701.245 561.496 700.781 561.496C700.301 561.496 699.965 561.16 699.965 560.68ZM708.945 566.76C708.945 565.56 708.241 564.776 707.185 564.776C706.001 564.776 705.169 565.688 705.169 566.76V571.048H703.841V563.592H705.169V564.68C705.681 564.04 706.513 563.592 707.249 563.592C708.881 563.592 710.273 564.712 710.273 566.664V571.048H708.945V566.76ZM715.668 569.944C716.948 569.944 717.924 568.776 717.924 567.352C717.924 565.96 716.932 564.76 715.668 564.76C714.34 564.76 713.412 565.832 713.412 567.352C713.412 568.904 714.34 569.944 715.668 569.944ZM712.084 567.368C712.084 565.176 713.556 563.576 715.62 563.576C716.548 563.576 717.428 564.072 717.924 564.856V563.576H719.268V570.568C719.268 572.728 717.828 574.456 715.588 574.456C714.372 574.456 713.252 573.912 712.5 572.728L713.588 572.04C714.116 572.888 714.772 573.256 715.588 573.256C717.06 573.256 717.924 572.072 717.924 570.6V569.8C717.38 570.6 716.452 571.128 715.62 571.128C713.556 571.128 712.084 569.56 712.084 567.368ZM724.48 571.112C722.384 571.112 720.912 569.544 720.912 567.352C720.912 565.144 722.384 563.592 724.48 563.592C726.784 563.592 727.488 565.448 727.552 565.624C728 566.776 727.856 567.88 727.856 567.928H722.256C722.448 569.112 723.376 569.944 724.48 569.944C725.952 569.944 726.496 569.016 726.608 568.84L727.664 569.384C727.296 570.216 726.24 571.112 724.48 571.112ZM722.256 566.792L726.56 566.776C726.416 565.64 725.856 564.76 724.48 564.76C723.344 564.76 722.448 565.592 722.256 566.792ZM734.82 566.76C734.82 565.56 734.116 564.776 733.06 564.776C731.876 564.776 731.044 565.688 731.044 566.76V571.048H729.716V563.592H731.044V564.68C731.556 564.04 732.388 563.592 733.124 563.592C734.756 563.592 736.148 564.712 736.148 566.664V571.048H734.82V566.76ZM741.351 569.848C742.007 569.848 742.775 569.528 743.207 569.032L744.167 569.928C743.511 570.632 742.343 571.128 741.415 571.128C739.191 571.128 737.623 569.544 737.623 567.352C737.623 565.144 739.191 563.576 741.415 563.576C742.359 563.576 743.495 564.088 744.167 564.792L743.207 565.672C742.775 565.176 742.007 564.856 741.351 564.856C739.943 564.856 738.951 565.864 738.951 567.352C738.951 568.84 739.943 569.848 741.351 569.848ZM748.26 574.44H746.804L748.372 570.616L745.364 563.592H746.82L749.076 569.032L751.236 563.592H752.676L748.26 574.44ZM762.549 565.192C763.925 565.192 764.885 564.232 764.885 562.888C764.885 561.544 763.909 560.584 762.533 560.584H759.813L759.829 565.192H762.549ZM758.485 571.048V559.4H762.581C764.709 559.4 766.197 560.84 766.197 562.888C766.197 564.92 764.709 566.36 762.581 566.36H759.829V571.048H758.485ZM767.838 559.752H769.166V571.048H767.838V559.752ZM774.386 571.144C772.322 571.144 770.85 569.576 770.85 567.384C770.85 565.176 772.322 563.608 774.386 563.608C775.186 563.608 776.066 564.008 776.706 564.872V563.592H778.034V571.048H776.706V569.848C776.05 570.792 775.186 571.144 774.386 571.144ZM772.178 567.384C772.178 568.904 773.106 569.976 774.434 569.976C775.634 569.976 776.706 568.888 776.722 567.384C776.706 565.88 775.634 564.776 774.434 564.776C773.106 564.776 772.178 565.832 772.178 567.384ZM785.164 566.76C785.164 565.56 784.46 564.776 783.404 564.776C782.22 564.776 781.388 565.688 781.388 566.76V571.048H780.06V563.592H781.388V564.68C781.9 564.04 782.732 563.592 783.468 563.592C785.1 563.592 786.492 564.712 786.492 566.664V571.048H785.164V566.76ZM790.139 569.704L789.195 572.904H788.203L788.731 569.704H790.139ZM507.496 585.4V586.584H501.528V590.456H506.68V591.64H501.528V595.864H507.496V597.048H500.184V585.4H507.496ZM510.666 593.912C511.274 595.128 512.298 595.992 513.498 595.992C515.066 596.024 516.042 595.224 516.042 593.976C516.042 591 510.058 592.248 510.058 588.2C510.058 586.328 511.626 585.256 513.706 585.272C515.306 585.304 516.602 586.152 517.162 587.848L515.962 588.264C515.61 587.128 514.746 586.472 513.69 586.456C512.346 586.44 511.386 587.08 511.386 588.2C511.386 591.144 517.37 589.944 517.37 593.992C517.37 595.912 515.866 597.208 513.482 597.176C511.786 597.144 510.49 596.2 509.53 594.52L510.666 593.912ZM530.246 590.984C530.246 591.384 530.23 591.896 530.23 591.944C530.23 595.256 527.894 597.112 524.758 597.176C521.398 597.176 519.014 594.712 519.014 591.224C519.014 587.736 521.398 585.288 524.758 585.288C528.39 585.288 529.638 588.104 529.638 588.104L528.47 588.664C528.47 588.664 527.526 586.472 524.758 586.472C522.166 586.472 520.358 588.424 520.358 591.224C520.358 594.04 522.166 595.992 524.758 595.992C527.158 595.912 528.934 594.68 528.95 592.136H524.966V590.984H530.246ZM537.128 584.728L533.768 597.816H532.424L535.799 584.728H537.128ZM540.604 593.912C541.212 595.128 542.236 595.992 543.436 595.992C545.004 596.024 545.98 595.224 545.98 593.976C545.98 591 539.996 592.248 539.996 588.2C539.996 586.328 541.564 585.256 543.644 585.272C545.244 585.304 546.54 586.152 547.1 587.848L545.9 588.264C545.548 587.128 544.684 586.472 543.628 586.456C542.284 586.44 541.324 587.08 541.324 588.2C541.324 591.144 547.308 589.944 547.308 593.992C547.308 595.912 545.804 597.208 543.42 597.176C541.724 597.144 540.428 596.2 539.468 594.52L540.604 593.912ZM558.761 585.4L554.601 597.048H553.113L548.729 585.4H550.153L553.849 595.192L557.337 585.4H558.761ZM561.155 595.704L560.211 598.904H559.219L559.747 595.704H561.155ZM575.23 585.4V586.584H569.262V590.456H574.414V591.64H569.262V595.864H575.23V597.048H567.918V585.4H575.23ZM584.137 589.592L581.321 593.32L584.137 597.048H582.457L580.585 594.472L578.729 597.048H577.049L579.833 593.32L577.033 589.592H578.713L580.585 592.2L582.457 589.592H584.137ZM586.187 589.576H587.515V597.048H586.187V589.576ZM586.043 586.68C586.043 586.216 586.379 585.88 586.859 585.88C587.323 585.88 587.659 586.216 587.659 586.68C587.659 587.16 587.323 587.496 586.859 587.496C586.379 587.496 586.043 587.16 586.043 586.68ZM590.815 597.048V590.76H589.455V589.576H590.815V587H592.159V589.576H593.919V590.76H592.159V597.048H590.815ZM603.908 591.192C605.284 591.192 606.244 590.232 606.244 588.888C606.244 587.544 605.268 586.584 603.892 586.584H601.172L601.188 591.192H603.908ZM599.844 597.048V585.4H603.94C606.068 585.4 607.556 586.84 607.556 588.888C607.556 590.92 606.068 592.36 603.94 592.36H601.188V597.048H599.844ZM609.197 585.752H610.525V597.048H609.197V585.752ZM615.745 597.144C613.681 597.144 612.209 595.576 612.209 593.384C612.209 591.176 613.681 589.608 615.745 589.608C616.545 589.608 617.425 590.008 618.065 590.872V589.592H619.393V597.048H618.065V595.848C617.409 596.792 616.545 597.144 615.745 597.144ZM613.537 593.384C613.537 594.904 614.465 595.976 615.793 595.976C616.993 595.976 618.065 594.888 618.081 593.384C618.065 591.88 616.993 590.776 615.793 590.776C614.465 590.776 613.537 591.832 613.537 593.384ZM626.523 592.76C626.523 591.56 625.819 590.776 624.763 590.776C623.579 590.776 622.747 591.688 622.747 592.76V597.048H621.419V589.592H622.747V590.68C623.259 590.04 624.091 589.592 624.827 589.592C626.459 589.592 627.851 590.712 627.851 592.664V597.048H626.523V592.76ZM631.498 595.704L630.554 598.904H629.562L630.09 595.704H631.498ZM647.862 584.12H649.254V598.2H647.862V584.12ZM637.83 594.504C641.574 592.712 643.414 590.072 643.686 586.76H638.486V585.624H645.094C645.094 589.736 643.318 593.304 638.566 595.608L637.83 594.504ZM652.295 585.384H658.839V586.536H653.671V589.336H658.551V590.44H653.671V593.704C656.087 593.704 657.831 593.624 659.878 593.272L660.007 594.392C657.847 594.776 655.991 594.84 653.399 594.84H652.295V585.384ZM661.143 598.216V584.136H662.535V589.752H664.807V590.904H662.535V598.216H661.143Z" fill="#3F3F46"/>
<path d="M815.528 510.568H828.424V512.008H822.856V516.312H821.08V512.008H815.528V510.568ZM817.192 509.384V502.664H826.888V504.056H818.92V505.304H826.584V506.664H818.92V507.976H827.048V509.384H817.192ZM829.768 503.448H837.544V504.904H834.584V506.088C834.584 508.28 835.896 510.808 838.12 511.848L837.144 513.24C835.544 512.472 834.376 510.952 833.736 509.192C833.096 511.128 831.88 512.792 830.248 513.592L829.24 512.2C831.464 511.128 832.84 508.456 832.84 506.088V504.904H829.768V503.448ZM838.824 516.296V502.056H840.6V507.608H842.76V509.064H840.6V516.296H838.824ZM851.808 502.648C853.952 502.648 855.504 503.88 855.504 505.656C855.504 507.4 853.952 508.648 851.808 508.648C849.68 508.648 848.112 507.4 848.112 505.656C848.112 503.88 849.68 502.648 851.808 502.648ZM847.2 509.624C849.744 509.624 853.296 509.608 856.368 509.128L856.48 510.424C855.248 510.664 853.984 510.808 852.752 510.904V515.848H850.992V511.016C849.696 511.064 848.48 511.08 847.408 511.08L847.2 509.624ZM849.808 505.656C849.808 506.616 850.656 507.208 851.808 507.208C852.976 507.208 853.824 506.616 853.824 505.656C853.824 504.68 852.976 504.088 851.808 504.088C850.656 504.088 849.808 504.68 849.808 505.656ZM857.248 516.296V502.04H859.008V516.296H857.248ZM871.265 502.04H873.025V512.856H871.265V511.592H868.513V510.376H871.265V502.04ZM861.105 508.456C863.713 508.44 867.201 508.408 870.225 508.04L870.321 509.288C869.169 509.48 867.953 509.608 866.769 509.688V512.424H865.009V509.784C863.697 509.848 862.433 509.864 861.329 509.864L861.105 508.456ZM862.161 505.08C862.161 503.576 863.617 502.568 865.697 502.568C867.793 502.568 869.233 503.576 869.233 505.08C869.233 506.616 867.793 507.608 865.697 507.608C863.617 507.608 862.161 506.616 862.161 505.08ZM862.977 516.008V511.816H864.737V514.6H873.361V516.008H862.977ZM863.841 505.08C863.841 505.864 864.609 506.312 865.697 506.312C866.817 506.312 867.553 505.864 867.553 505.08C867.553 504.296 866.817 503.848 865.697 503.848C864.609 503.848 863.841 504.296 863.841 505.08ZM885.169 502.056H886.913V516.296H885.169V502.056ZM875.233 512.344C876.337 512.344 877.601 512.344 878.929 512.312V510.984C877.345 510.728 876.321 509.752 876.321 508.392C876.321 506.792 877.729 505.736 879.809 505.736C881.873 505.736 883.313 506.792 883.313 508.392C883.313 509.752 882.273 510.728 880.689 510.984V512.248C881.937 512.184 883.185 512.088 884.369 511.928L884.481 513.192C881.361 513.768 878.001 513.784 875.441 513.784L875.233 512.344ZM875.505 505.064V503.688H878.929V502.088H880.689V503.688H884.113V505.064H875.505ZM877.985 508.392C877.985 509.224 878.737 509.72 879.809 509.72C880.897 509.72 881.633 509.224 881.633 508.392C881.633 507.56 880.897 507.064 879.809 507.064C878.737 507.064 877.985 507.56 877.985 508.392ZM892.825 509.464H898.377V508.392H894.473V502.44H904.185V503.784H896.217V504.728H903.849V506.04H896.217V507.048H904.281V508.392H900.137V509.464H905.689V510.856H892.825V509.464ZM894.329 513.976C894.329 512.456 896.121 511.672 899.257 511.672C902.361 511.672 904.169 512.456 904.169 513.976C904.169 515.48 902.361 516.28 899.257 516.28C896.121 516.28 894.329 515.48 894.329 513.976ZM896.105 513.976C896.105 514.664 897.161 514.984 899.257 514.984C901.337 514.984 902.409 514.664 902.409 513.976C902.409 513.288 901.337 512.952 899.257 512.952C897.161 512.952 896.105 513.288 896.105 513.976ZM907.433 503.512H914.713V504.52C914.713 505.832 914.713 507.592 914.313 510.056L912.585 509.912C912.937 507.768 912.985 506.152 912.985 504.92H907.433V503.512ZM906.681 511.88C907.513 511.88 908.441 511.88 909.417 511.864V507.592H911.145V511.816C912.601 511.752 914.073 511.672 915.417 511.496L915.513 512.776C912.601 513.256 909.353 513.32 906.873 513.32L906.681 511.88ZM916.153 516.28V502.04H917.897V507.864H919.961V509.32H917.897V516.28H916.153ZM934.513 502.04H936.273V516.28H934.513V502.04ZM924.577 512.392C928.273 510.616 929.953 508.2 930.257 504.952H925.281V503.528H932.065C932.065 507.8 930.449 511.384 925.489 513.784L924.577 512.392ZM939.65 502.696H950.194V504.104H946.13C946.306 505.448 947.986 506.728 950.706 507.032L950.05 508.44C947.522 508.12 945.666 506.984 944.914 505.464C944.162 506.984 942.306 508.12 939.778 508.44L939.122 507.032C941.842 506.728 943.522 505.432 943.698 504.104H939.65V502.696ZM938.465 510.648V509.24H951.362V510.648H945.938V513.24H944.178V510.648H938.465ZM940.018 516.024V511.944H941.778V514.616H949.938V516.024H940.018Z" fill="#3F3F46"/>
<path d="M823.08 535.976H825.816V532.136H827.208V542.424H825.816V537.112H823.08V535.976ZM815.624 539.576C817.736 538.84 819.144 536.968 819.144 535V534.376H816.04V533.24H823.576V534.376H820.536V534.984C820.536 536.776 821.864 538.552 823.928 539.272L823.224 540.36C821.656 539.784 820.472 538.632 819.864 537.208C819.256 538.792 818.024 540.072 816.344 540.68L815.624 539.576ZM818.168 545.896V541.544H819.56V544.776H827.592V545.896H818.168ZM835.32 537.656H837.4V532.44H838.696V545.496H837.4V538.792H835.32V537.656ZM829.448 542.312C831.368 541.176 832.392 538.744 832.392 536.456V535.832H829.848V534.696H832.392V532.616H833.72V534.696H836.248V535.832H833.72V536.456C833.72 538.68 834.792 540.968 836.696 542.008L835.912 543.048C834.552 542.296 833.592 540.92 833.08 539.288C832.584 541.032 831.624 542.552 830.248 543.368L829.448 542.312ZM840.216 546.2V532.12H841.544V546.2H840.216ZM851.84 532.776C853.936 532.776 855.456 533.96 855.456 535.688C855.456 537.4 853.936 538.6 851.84 538.6C849.76 538.6 848.24 537.4 848.24 535.688C848.24 533.96 849.76 532.776 851.84 532.776ZM847.232 539.736C849.824 539.736 853.376 539.704 856.464 539.224L856.56 540.264C855.264 540.504 853.92 540.648 852.608 540.744V545.768H851.216V540.824C849.84 540.888 848.544 540.904 847.408 540.904L847.232 539.736ZM849.568 535.688C849.568 536.744 850.528 537.448 851.84 537.448C853.168 537.448 854.128 536.744 854.128 535.688C854.128 534.632 853.168 533.912 851.84 533.912C850.528 533.912 849.568 534.632 849.568 535.688ZM857.44 546.216V532.12H858.816V546.216H857.44ZM871.409 532.12H872.801V542.84H871.409V541.416H868.593V540.424H871.409V532.12ZM861.153 538.6C863.761 538.584 867.233 538.552 870.241 538.184L870.321 539.176C869.105 539.384 867.841 539.512 866.577 539.592V542.344H865.185V539.656C863.809 539.72 862.481 539.736 861.345 539.736L861.153 538.6ZM862.257 535.144C862.257 533.656 863.665 532.68 865.729 532.68C867.793 532.68 869.201 533.656 869.201 535.144C869.201 536.648 867.793 537.608 865.729 537.608C863.665 537.608 862.257 536.648 862.257 535.144ZM863.121 545.896V541.8H864.513V544.776H873.153V545.896H863.121ZM863.569 535.144C863.569 536.024 864.465 536.568 865.729 536.568C867.009 536.568 867.873 536.024 867.873 535.144C867.873 534.264 867.009 533.704 865.729 533.704C864.465 533.704 863.569 534.264 863.569 535.144ZM879.777 533.128C881.969 533.128 883.553 534.504 883.553 536.472C883.553 538.456 881.969 539.816 879.777 539.816C877.569 539.816 875.985 538.456 875.985 536.472C875.985 534.504 877.569 533.128 879.777 533.128ZM875.297 542.008C877.841 542.008 881.393 542.008 884.433 541.528L884.545 542.552C881.409 543.16 877.969 543.176 875.473 543.176L875.297 542.008ZM877.329 536.472C877.329 537.736 878.369 538.616 879.777 538.616C881.169 538.616 882.209 537.736 882.209 536.472C882.209 535.192 881.169 534.328 879.777 534.328C878.369 534.328 877.329 535.192 877.329 536.472ZM885.345 546.232V532.104H886.721V546.232H885.345ZM893.273 543.848C895.577 541.624 898.953 539 898.953 536.936C898.953 535.512 898.041 534.504 896.745 534.504C895.785 534.504 894.809 535.208 894.361 536.232L893.161 535.704C893.785 534.296 895.273 533.304 896.745 533.304C898.825 533.304 900.281 534.808 900.281 536.936C900.281 539.384 897.321 541.832 895.113 543.848H900.473V545.032H893.433L893.273 543.848ZM906.768 532.728L903.408 545.816H902.064L905.44 532.728H906.768ZM914.644 539.032C915.668 539.656 916.26 540.776 916.26 541.736C916.26 543.72 914.692 545.112 912.468 545.112C910.244 545.112 908.676 543.704 908.676 541.704H910.004C910.004 543.016 911.028 543.928 912.468 543.928C913.924 543.928 914.948 543.016 914.948 541.72C914.948 540.488 913.924 539.608 912.5 539.608H911.652V538.424H912.5C913.828 538.424 914.788 537.64 914.788 536.504C914.788 535.336 913.86 534.52 912.564 534.52C911.252 534.52 910.34 535.352 910.34 536.536H909.012C909.012 534.648 910.468 533.336 912.564 533.336C914.628 533.336 916.1 534.632 916.1 536.488C916.1 537.368 915.572 538.408 914.644 539.032ZM931.549 532.104H932.941V546.232H931.549V532.104ZM921.885 538.12C921.885 535.096 923.389 533.192 925.485 533.192C927.581 533.192 929.085 535.096 929.085 538.12C929.085 541.128 927.581 543.048 925.485 543.048C923.389 543.048 921.885 541.128 921.885 538.12ZM923.229 538.12C923.229 540.376 924.157 541.816 925.485 541.816C926.813 541.816 927.741 540.376 927.741 538.12C927.741 535.864 926.813 534.44 925.485 534.44C924.157 534.44 923.229 535.864 923.229 538.12ZM938.781 532.856H940.141V534.376C940.141 536.264 941.485 538.008 943.533 538.712L942.813 539.784C941.277 539.224 940.093 538.088 939.485 536.648C938.893 538.28 937.693 539.544 936.045 540.184L935.293 539.08C937.469 538.296 938.781 536.392 938.781 534.28V532.856ZM937.197 543.608C937.197 541.976 938.957 541.016 941.837 541.016C944.733 541.016 946.477 541.976 946.477 543.608C946.477 545.24 944.733 546.184 941.837 546.184C938.957 546.184 937.197 545.24 937.197 543.608ZM938.557 543.608C938.557 544.552 939.789 545.096 941.837 545.096C943.885 545.096 945.117 544.552 945.117 543.608C945.117 542.648 943.885 542.104 941.837 542.104C939.789 542.104 938.557 542.648 938.557 543.608ZM944.941 540.648V532.136H946.333V535.72H948.397V536.872H946.333V540.648H944.941ZM953.461 533.736H956.549V532.072H957.909V533.736H960.981V534.856H957.909V535.032C957.909 536.712 959.237 538.248 961.333 538.856L960.693 539.944C959.077 539.448 957.861 538.424 957.253 537.112C956.629 538.552 955.381 539.672 953.717 540.2L953.061 539.112C955.173 538.472 956.549 536.856 956.549 535.032V534.856H953.461V533.736ZM955.125 546.024V541.096H964.005V546.024H955.125ZM956.485 544.904H962.645V542.2H956.485V544.904ZM962.613 540.44V532.136H964.005V535.656H966.069V536.808H964.005V540.44H962.613ZM974.246 535.032H977.238V532.136H978.63V540.456H977.238V536.184H974.246V535.032ZM967.046 539.064C969.174 538.296 970.518 536.408 970.518 534.296V532.84H971.894V534.36C971.894 536.28 973.222 538.056 975.286 538.792L974.534 539.88C972.998 539.304 971.83 538.136 971.222 536.68C970.614 538.28 969.414 539.544 967.75 540.168L967.046 539.064ZM969.222 542.328V541.208H978.63V546.216H977.238V542.328H969.222ZM985.469 533.032H992.045V538.808H985.469V533.032ZM986.413 545.096C988.909 544.824 991.005 543.528 991.069 542.2H986.973V541.128H991.085V539.8H992.493V541.128H996.589V542.2H992.493C992.557 543.496 994.621 544.808 997.085 545.096L996.621 546.168C994.461 545.88 992.621 544.92 991.773 543.64C990.925 544.936 989.053 545.88 986.877 546.168L986.413 545.096ZM986.797 537.704H990.717V534.136H986.797V537.704ZM994.893 540.2V532.136H996.285V540.2H994.893ZM1002.79 533.736H1005.88V532.072H1007.24V533.736H1010.31V534.856H1007.24V535.032C1007.24 536.712 1008.57 538.248 1010.66 538.856L1010.02 539.944C1008.41 539.448 1007.19 538.424 1006.58 537.112C1005.96 538.552 1004.71 539.672 1003.05 540.2L1002.39 539.112C1004.5 538.472 1005.88 536.856 1005.88 535.032V534.856H1002.79V533.736ZM1004.45 546.024V541.096H1013.33V546.024H1004.45ZM1005.81 544.904H1011.97V542.2H1005.81V544.904ZM1011.94 540.44V532.136H1013.33V535.656H1015.4V536.808H1013.33V540.44H1011.94ZM1023.57 535.032H1026.57V532.136H1027.96V540.456H1026.57V536.184H1023.57V535.032ZM1016.37 539.064C1018.5 538.296 1019.85 536.408 1019.85 534.296V532.84H1021.22V534.36C1021.22 536.28 1022.55 538.056 1024.61 538.792L1023.86 539.88C1022.33 539.304 1021.16 538.136 1020.55 536.68C1019.94 538.28 1018.74 539.544 1017.08 540.168L1016.37 539.064ZM1018.55 542.328V541.208H1027.96V546.216H1026.57V542.328H1018.55ZM1038.62 532.776C1040.72 532.776 1042.24 533.96 1042.24 535.688C1042.24 537.4 1040.72 538.6 1038.62 538.6C1036.54 538.6 1035.02 537.4 1035.02 535.688C1035.02 533.96 1036.54 532.776 1038.62 532.776ZM1034.01 539.736C1036.61 539.736 1040.16 539.704 1043.25 539.224L1043.34 540.264C1042.05 540.504 1040.7 540.648 1039.39 540.744V545.768H1038V540.824C1036.62 540.888 1035.33 540.904 1034.19 540.904L1034.01 539.736ZM1036.35 535.688C1036.35 536.744 1037.31 537.448 1038.62 537.448C1039.95 537.448 1040.91 536.744 1040.91 535.688C1040.91 534.632 1039.95 533.912 1038.62 533.912C1037.31 533.912 1036.35 534.632 1036.35 535.688ZM1044.22 546.216V532.12H1045.6V546.216H1044.22ZM1058.19 532.12H1059.58V542.84H1058.19V541.416H1055.37V540.424H1058.19V532.12ZM1047.93 538.6C1050.54 538.584 1054.01 538.552 1057.02 538.184L1057.1 539.176C1055.89 539.384 1054.62 539.512 1053.36 539.592V542.344H1051.97V539.656C1050.59 539.72 1049.26 539.736 1048.13 539.736L1047.93 538.6ZM1049.04 535.144C1049.04 533.656 1050.45 532.68 1052.51 532.68C1054.57 532.68 1055.98 533.656 1055.98 535.144C1055.98 536.648 1054.57 537.608 1052.51 537.608C1050.45 537.608 1049.04 536.648 1049.04 535.144ZM1049.9 545.896V541.8H1051.29V544.776H1059.93V545.896H1049.9ZM1050.35 535.144C1050.35 536.024 1051.25 536.568 1052.51 536.568C1053.79 536.568 1054.65 536.024 1054.65 535.144C1054.65 534.264 1053.79 533.704 1052.51 533.704C1051.25 533.704 1050.35 534.264 1050.35 535.144ZM1066.56 533.128C1068.75 533.128 1070.33 534.504 1070.33 536.472C1070.33 538.456 1068.75 539.816 1066.56 539.816C1064.35 539.816 1062.77 538.456 1062.77 536.472C1062.77 534.504 1064.35 533.128 1066.56 533.128ZM1062.08 542.008C1064.62 542.008 1068.17 542.008 1071.21 541.528L1071.33 542.552C1068.19 543.16 1064.75 543.176 1062.25 543.176L1062.08 542.008ZM1064.11 536.472C1064.11 537.736 1065.15 538.616 1066.56 538.616C1067.95 538.616 1068.99 537.736 1068.99 536.472C1068.99 535.192 1067.95 534.328 1066.56 534.328C1065.15 534.328 1064.11 535.192 1064.11 536.472ZM1072.13 546.232V532.104H1073.5V546.232H1072.13ZM1080.05 543.848C1082.36 541.624 1085.73 539 1085.73 536.936C1085.73 535.512 1084.82 534.504 1083.53 534.504C1082.57 534.504 1081.59 535.208 1081.14 536.232L1079.94 535.704C1080.57 534.296 1082.05 533.304 1083.53 533.304C1085.61 533.304 1087.06 534.808 1087.06 536.936C1087.06 539.384 1084.1 541.832 1081.89 543.848H1087.25V545.032H1080.21L1080.05 543.848ZM1093.55 532.728L1090.19 545.816H1088.85L1092.22 532.728H1093.55ZM1101.43 539.032C1102.45 539.656 1103.04 540.776 1103.04 541.736C1103.04 543.72 1101.47 545.112 1099.25 545.112C1097.03 545.112 1095.46 543.704 1095.46 541.704H1096.79C1096.79 543.016 1097.81 543.928 1099.25 543.928C1100.71 543.928 1101.73 543.016 1101.73 541.72C1101.73 540.488 1100.71 539.608 1099.28 539.608H1098.43V538.424H1099.28C1100.61 538.424 1101.57 537.64 1101.57 536.504C1101.57 535.336 1100.64 534.52 1099.35 534.52C1098.03 534.52 1097.12 535.352 1097.12 536.536H1095.79C1095.79 534.648 1097.25 533.336 1099.35 533.336C1101.41 533.336 1102.88 534.632 1102.88 536.488C1102.88 537.368 1102.35 538.408 1101.43 539.032ZM825.752 558.104H827.144V572.232H825.752V558.104ZM816.088 564.12C816.088 561.096 817.592 559.192 819.688 559.192C821.784 559.192 823.288 561.096 823.288 564.12C823.288 567.128 821.784 569.048 819.688 569.048C817.592 569.048 816.088 567.128 816.088 564.12ZM817.432 564.12C817.432 566.376 818.36 567.816 819.688 567.816C821.016 567.816 821.944 566.376 821.944 564.12C821.944 561.864 821.016 560.44 819.688 560.44C818.36 560.44 817.432 561.864 817.432 564.12ZM832.984 558.856H834.344V560.376C834.344 562.264 835.688 564.008 837.736 564.712L837.016 565.784C835.48 565.224 834.296 564.088 833.688 562.648C833.096 564.28 831.896 565.544 830.248 566.184L829.496 565.08C831.672 564.296 832.984 562.392 832.984 560.28V558.856ZM831.4 569.608C831.4 567.976 833.16 567.016 836.04 567.016C838.936 567.016 840.68 567.976 840.68 569.608C840.68 571.24 838.936 572.184 836.04 572.184C833.16 572.184 831.4 571.24 831.4 569.608ZM832.76 569.608C832.76 570.552 833.992 571.096 836.04 571.096C838.088 571.096 839.32 570.552 839.32 569.608C839.32 568.648 838.088 568.104 836.04 568.104C833.992 568.104 832.76 568.648 832.76 569.608ZM839.144 566.648V558.136H840.536V561.72H842.6V562.872H840.536V566.648H839.144ZM847.664 560.008H850.752V558.232H852.112V560.008H855.184V561.112H852.112V561.432C852.112 563.192 853.44 564.84 855.52 565.512L854.832 566.6C853.264 566.088 852.064 565.016 851.44 563.64C850.832 565.144 849.6 566.296 847.968 566.856L847.28 565.768C849.392 565.08 850.752 563.352 850.752 561.432V561.112H847.664V560.008ZM849.408 571.896V567.656H850.784V570.776H858.832V571.896H849.408ZM856.816 568.552V558.12H858.208V562.472H860.272V563.624H858.208V568.552H856.816ZM864.753 558.92H866.129V560.28C866.129 562.264 867.441 564.024 869.521 564.728L868.769 565.816C867.249 565.24 866.097 564.136 865.489 562.712C864.881 564.344 863.633 565.608 861.937 566.232L861.217 565.112C863.393 564.344 864.753 562.472 864.753 560.328V558.92ZM863.473 569.528C863.473 567.832 865.265 566.856 868.193 566.856C871.105 566.856 872.897 567.832 872.897 569.528C872.897 571.224 871.105 572.184 868.193 572.184C865.265 572.184 863.473 571.224 863.473 569.528ZM864.865 569.528C864.865 570.52 866.097 571.096 868.193 571.096C870.273 571.096 871.521 570.52 871.521 569.528C871.521 568.52 870.273 567.944 868.193 567.944C866.097 567.944 864.865 568.52 864.865 569.528ZM868.449 562.2V561.048H871.441V558.136H872.833V566.44H871.441V562.2H868.449ZM889.097 558.136H890.505V565.416H889.097V558.136ZM879.161 563.832C879.705 563.832 880.281 563.816 880.889 563.816V560.168H879.545V559.064H887.097V560.168H885.753V563.624C886.441 563.576 887.128 563.512 887.769 563.432L887.833 564.424C885.033 564.872 881.769 564.952 879.321 564.952L879.161 563.832ZM881.273 567.176V566.088H890.505V569.528H882.665V570.952H891.001V572.056H881.305V568.504H889.113V567.176H881.273ZM882.233 563.784C882.953 563.768 883.673 563.736 884.409 563.704V560.168H882.233V563.784ZM892.905 569.272H895.993V565.528C894.825 564.888 894.121 563.896 894.121 562.616C894.121 560.408 896.281 558.984 899.257 558.984C902.265 558.984 904.393 560.408 904.393 562.616C904.393 563.88 903.705 564.872 902.569 565.496V569.272H905.657V570.408H892.905V569.272ZM895.481 562.616C895.481 564.168 897.049 565.16 899.257 565.16C901.481 565.16 903.049 564.168 903.049 562.616C903.049 561.08 901.481 560.072 899.257 560.072C897.049 560.072 895.481 561.08 895.481 562.616ZM897.369 569.272H901.177V566.024C900.601 566.168 899.945 566.248 899.257 566.248C898.585 566.248 897.945 566.168 897.369 566.04V569.272Z" fill="#3F3F46"/>
</g>
<defs>
<filter id="filter0_d_4103_3153" x="0.657534" y="-0.00684941" width="1210.68" height="650.685" filterUnits="userSpaceOnUse" color-interpolation-filters="sRGB">
<feFlood flood-opacity="0" result="BackgroundImageFix"/>
<feColorMatrix in="SourceAlpha" type="matrix" values="0 0 0 0 0 0 0 0 0 0 0 0 0 0 0 0 0 0 127 0" result="hardAlpha"/>
<feOffset dy="1.33562"/>
<feGaussianBlur stdDeviation="2.67123"/>
<feComposite in2="hardAlpha" operator="out"/>
<feColorMatrix type="matrix" values="0 0 0 0 0 0 0 0 0 0 0 0 0 0 0 0 0 0 0.1 0"/>
<feBlend mode="normal" in2="BackgroundImageFix" result="effect1_dropShadow_4103_3153"/>
<feBlend mode="normal" in="SourceGraphic" in2="effect1_dropShadow_4103_3153" result="shape"/>
</filter>
</defs>
</svg>
