<svg width="1200" height="332" viewBox="0 0 1200 332" fill="none" xmlns="http://www.w3.org/2000/svg">
<path d="M0 316C0 324.837 7.16344 332 16 332H1184C1192.84 332 1200 324.837 1200 316V16C1200 7.16345 1192.84 0 1184 0H16C7.16343 0 0 7.16344 0 16V316Z" fill="white"/>
<mask id="path-2-inside-1_4595_2403" fill="white">
<path d="M203 16C203 7.16344 210.163 0 219 0H981C989.837 0 997 7.16344 997 16V280H203V16Z"/>
</mask>
<path d="M203 16C203 7.16344 210.163 0 219 0H981C989.837 0 997 7.16344 997 16V280H203V16Z" fill="url(#paint0_linear_4595_2403)"/>
<path d="M203 0H997H203ZM997 281H203V279H997V281ZM203 280V0V280ZM997 0V280V0Z" fill="#71717A" mask="url(#path-2-inside-1_4595_2403)"/>
<rect x="289" y="258" width="46" height="22" rx="4" fill="url(#paint1_linear_4595_2403)"/>
<rect x="289" y="274" width="46" height="6" fill="#27272A"/>
<path d="M268.794 310.38C271.422 307.86 275.004 305.304 275.004 303.09C275.004 301.614 274.068 300.57 272.736 300.57C271.71 300.57 270.684 301.308 270.216 302.37L268.542 301.632C269.262 299.976 271.008 298.824 272.736 298.824C275.202 298.824 276.912 300.588 276.912 303.09C276.912 305.844 273.924 308.292 271.494 310.38H277.128V312.054H268.974L268.794 310.38ZM283.809 310.488C285.609 310.488 286.815 308.472 286.815 305.502C286.815 302.514 285.609 300.498 283.809 300.498C282.009 300.498 280.785 302.514 280.785 305.502C280.785 308.472 282.009 310.488 283.809 310.488ZM278.877 305.502C278.877 301.578 280.911 298.824 283.809 298.824C286.689 298.824 288.723 301.578 288.723 305.502C288.723 309.408 286.689 312.18 283.809 312.18C280.911 312.18 278.877 309.408 278.877 305.502ZM290.749 310.38C293.377 307.86 296.959 305.304 296.959 303.09C296.959 301.614 296.023 300.57 294.691 300.57C293.665 300.57 292.639 301.308 292.171 302.37L290.497 301.632C291.217 299.976 292.963 298.824 294.691 298.824C297.157 298.824 298.867 300.588 298.867 303.09C298.867 305.844 295.879 308.292 293.449 310.38H299.083V312.054H290.929L290.749 310.38ZM301.12 310.38C303.748 307.86 307.33 305.304 307.33 303.09C307.33 301.614 306.394 300.57 305.062 300.57C304.036 300.57 303.01 301.308 302.542 302.37L300.868 301.632C301.588 299.976 303.334 298.824 305.062 298.824C307.528 298.824 309.238 300.588 309.238 303.09C309.238 305.844 306.25 308.292 303.82 310.38H309.454V312.054H301.3L301.12 310.38ZM312.211 305.502C312.211 303.162 313.129 300.084 314.425 298.032H316.441C314.965 300.066 313.939 303.144 313.939 305.502C313.939 307.86 314.965 310.938 316.441 312.972H314.425C313.129 310.92 312.211 307.842 312.211 305.502ZM329.46 297.438H331.44V305.592H329.46V297.438ZM318.21 304.008C320.784 303.198 322.134 301.146 322.134 299.04V297.834H324.132V299.04C324.132 301.074 325.482 302.982 327.984 303.756L327.03 305.286C325.194 304.71 323.88 303.504 323.16 301.992C322.44 303.63 321.09 304.944 319.164 305.592L318.21 304.008ZM320.892 307.878V306.348H331.44V310.488H322.872V311.766H331.908V313.314H320.928V309.066H329.496V307.878H320.892ZM342.601 301.38H345.265V297.438H347.245V306.978H345.265V303H342.601V301.38ZM333.907 305.25C336.445 304.386 337.777 302.28 337.777 300.156V299.976H334.465V298.392H343.069V299.976H339.775V300.156C339.775 302.118 341.053 304.08 343.519 304.926L342.529 306.474C340.765 305.862 339.523 304.638 338.821 303.126C338.137 304.8 336.805 306.15 334.915 306.798L333.907 305.25ZM336.427 309.354V307.752H347.245V313.458H345.265V309.354H336.427ZM354.463 305.502C354.463 307.842 353.563 310.902 352.267 312.972H350.251C351.709 310.956 352.735 307.86 352.735 305.502C352.735 303.144 351.709 300.048 350.251 298.032H352.267C353.563 300.102 354.463 303.162 354.463 305.502Z" fill="#3F3F46"/>
<rect x="433" y="234" width="46" height="46" rx="4" fill="url(#paint2_linear_4595_2403)"/>
<rect x="433" y="272" width="46" height="8" fill="#27272A"/>
<path d="M435.575 310.38C438.203 307.86 441.785 305.304 441.785 303.09C441.785 301.614 440.849 300.57 439.517 300.57C438.491 300.57 437.465 301.308 436.997 302.37L435.323 301.632C436.043 299.976 437.789 298.824 439.517 298.824C441.983 298.824 443.693 300.588 443.693 303.09C443.693 305.844 440.705 308.292 438.275 310.38H443.909V312.054H435.755L435.575 310.38ZM450.59 310.488C452.39 310.488 453.596 308.472 453.596 305.502C453.596 302.514 452.39 300.498 450.59 300.498C448.79 300.498 447.566 302.514 447.566 305.502C447.566 308.472 448.79 310.488 450.59 310.488ZM445.658 305.502C445.658 301.578 447.692 298.824 450.59 298.824C453.47 298.824 455.504 301.578 455.504 305.502C455.504 309.408 453.47 312.18 450.59 312.18C447.692 312.18 445.658 309.408 445.658 305.502ZM457.53 310.38C460.158 307.86 463.74 305.304 463.74 303.09C463.74 301.614 462.804 300.57 461.472 300.57C460.446 300.57 459.42 301.308 458.952 302.37L457.278 301.632C457.998 299.976 459.744 298.824 461.472 298.824C463.938 298.824 465.648 300.588 465.648 303.09C465.648 305.844 462.66 308.292 460.23 310.38H465.864V312.054H457.71L457.53 310.38ZM470.061 306.186L468.153 305.952L468.603 298.95H475.605V300.624H470.439L470.223 303.828C470.817 303.558 471.483 303.396 472.077 303.396C474.777 303.396 476.685 305.214 476.685 307.788C476.685 310.398 474.777 312.234 472.077 312.234C469.953 312.234 468.117 310.812 467.649 308.796L469.503 308.364C469.773 309.57 470.835 310.434 472.077 310.434C473.661 310.434 474.777 309.336 474.777 307.788C474.777 306.276 473.661 305.196 472.077 305.196C471.411 305.196 470.583 305.61 470.061 306.186Z" fill="#3F3F46"/>
<rect x="577" y="198" width="46" height="82" rx="4" fill="url(#paint3_linear_4595_2403)"/>
<rect x="577" y="270" width="46" height="10" fill="#27272A"/>
<path d="M579.065 310.38C581.693 307.86 585.275 305.304 585.275 303.09C585.275 301.614 584.339 300.57 583.007 300.57C581.981 300.57 580.955 301.308 580.487 302.37L578.813 301.632C579.533 299.976 581.279 298.824 583.007 298.824C585.473 298.824 587.183 300.588 587.183 303.09C587.183 305.844 584.195 308.292 581.765 310.38H587.399V312.054H579.245L579.065 310.38ZM594.08 310.488C595.88 310.488 597.086 308.472 597.086 305.502C597.086 302.514 595.88 300.498 594.08 300.498C592.28 300.498 591.056 302.514 591.056 305.502C591.056 308.472 592.28 310.488 594.08 310.488ZM589.148 305.502C589.148 301.578 591.182 298.824 594.08 298.824C596.96 298.824 598.994 301.578 598.994 305.502C598.994 309.408 596.96 312.18 594.08 312.18C591.182 312.18 589.148 309.408 589.148 305.502ZM607.716 305.286C608.886 305.97 609.624 307.248 609.624 308.346C609.624 310.578 607.788 312.162 605.178 312.162C602.586 312.162 600.75 310.542 600.75 308.238H602.658C602.658 309.552 603.702 310.47 605.178 310.47C606.69 310.47 607.77 309.552 607.77 308.238C607.77 306.978 606.708 306.078 605.214 306.078H604.278V304.476H605.232C606.6 304.476 607.572 303.666 607.572 302.514C607.572 301.344 606.636 300.534 605.304 300.534C603.972 300.534 603.054 301.362 603.054 302.532H601.146C601.146 300.354 602.856 298.842 605.304 298.842C607.716 298.842 609.426 300.318 609.426 302.406C609.426 303.414 608.778 304.602 607.716 305.286ZM616.299 310.488C618.099 310.488 619.305 308.472 619.305 305.502C619.305 302.514 618.099 300.498 616.299 300.498C614.499 300.498 613.275 302.514 613.275 305.502C613.275 308.472 614.499 310.488 616.299 310.488ZM611.367 305.502C611.367 301.578 613.401 298.824 616.299 298.824C619.179 298.824 621.213 301.578 621.213 305.502C621.213 309.408 619.179 312.18 616.299 312.18C613.401 312.18 611.367 309.408 611.367 305.502Z" fill="#3F3F46"/>
<rect x="721" y="136" width="46" height="144" rx="4" fill="url(#paint4_linear_4595_2403)"/>
<rect x="721" y="272" width="46" height="8" fill="#27272A"/>
<path d="M723.443 310.38C726.071 307.86 729.653 305.304 729.653 303.09C729.653 301.614 728.717 300.57 727.385 300.57C726.359 300.57 725.333 301.308 724.865 302.37L723.191 301.632C723.911 299.976 725.657 298.824 727.385 298.824C729.851 298.824 731.561 300.588 731.561 303.09C731.561 305.844 728.573 308.292 726.143 310.38H731.777V312.054H723.623L723.443 310.38ZM738.458 310.488C740.258 310.488 741.464 308.472 741.464 305.502C741.464 302.514 740.258 300.498 738.458 300.498C736.658 300.498 735.434 302.514 735.434 305.502C735.434 308.472 736.658 310.488 738.458 310.488ZM733.526 305.502C733.526 301.578 735.56 298.824 738.458 298.824C741.338 298.824 743.372 301.578 743.372 305.502C743.372 309.408 741.338 312.18 738.458 312.18C735.56 312.18 733.526 309.408 733.526 305.502ZM752.094 305.286C753.264 305.97 754.002 307.248 754.002 308.346C754.002 310.578 752.166 312.162 749.556 312.162C746.964 312.162 745.128 310.542 745.128 308.238H747.036C747.036 309.552 748.08 310.47 749.556 310.47C751.068 310.47 752.148 309.552 752.148 308.238C752.148 306.978 751.086 306.078 749.592 306.078H748.656V304.476H749.61C750.978 304.476 751.95 303.666 751.95 302.514C751.95 301.344 751.014 300.534 749.682 300.534C748.35 300.534 747.432 301.362 747.432 302.532H745.524C745.524 300.354 747.234 298.842 749.682 298.842C752.094 298.842 753.804 300.318 753.804 302.406C753.804 303.414 753.156 304.602 752.094 305.286ZM758.193 306.186L756.285 305.952L756.735 298.95H763.737V300.624H758.571L758.355 303.828C758.949 303.558 759.615 303.396 760.209 303.396C762.909 303.396 764.817 305.214 764.817 307.788C764.817 310.398 762.909 312.234 760.209 312.234C758.085 312.234 756.249 310.812 755.781 308.796L757.635 308.364C757.905 309.57 758.967 310.434 760.209 310.434C761.793 310.434 762.909 309.336 762.909 307.788C762.909 306.276 761.793 305.196 760.209 305.196C759.543 305.196 758.715 305.61 758.193 306.186Z" fill="#3F3F46"/>
<rect x="865" y="80" width="46" height="200" rx="4" fill="url(#paint5_linear_4595_2403)"/>
<rect x="865" y="272" width="46" height="8" fill="#27272A"/>
<path d="M866.81 310.38C869.438 307.86 873.02 305.304 873.02 303.09C873.02 301.614 872.084 300.57 870.752 300.57C869.726 300.57 868.7 301.308 868.232 302.37L866.558 301.632C867.278 299.976 869.024 298.824 870.752 298.824C873.218 298.824 874.928 300.588 874.928 303.09C874.928 305.844 871.94 308.292 869.51 310.38H875.144V312.054H866.99L866.81 310.38ZM881.825 310.488C883.625 310.488 884.831 308.472 884.831 305.502C884.831 302.514 883.625 300.498 881.825 300.498C880.025 300.498 878.801 302.514 878.801 305.502C878.801 308.472 880.025 310.488 881.825 310.488ZM876.893 305.502C876.893 301.578 878.927 298.824 881.825 298.824C884.705 298.824 886.739 301.578 886.739 305.502C886.739 309.408 884.705 312.18 881.825 312.18C878.927 312.18 876.893 309.408 876.893 305.502ZM896.217 298.95V307.014H897.873V308.67H896.217V312.054H894.309V308.67H888.675L888.495 307.014L894.399 298.95H896.217ZM890.763 307.014H894.309V302.136L890.763 307.014ZM904.554 310.488C906.354 310.488 907.56 308.472 907.56 305.502C907.56 302.514 906.354 300.498 904.554 300.498C902.754 300.498 901.53 302.514 901.53 305.502C901.53 308.472 902.754 310.488 904.554 310.488ZM899.622 305.502C899.622 301.578 901.656 298.824 904.554 298.824C907.434 298.824 909.468 301.578 909.468 305.502C909.468 309.408 907.434 312.18 904.554 312.18C901.656 312.18 899.622 309.408 899.622 305.502Z" fill="#3F3F46"/>
<g filter="url(#filter0_d_4595_2403)">
<rect x="270" y="194" width="85" height="48" rx="24" fill="white" shape-rendering="crispEdges"/>
<path d="M299.67 210.52V225.06L297.55 225.04V212.78L294.99 214.2L294.11 212.42L297.57 210.52H299.67ZM308.069 223.32C310.069 223.32 311.409 221.08 311.409 217.78C311.409 214.46 310.069 212.22 308.069 212.22C306.069 212.22 304.709 214.46 304.709 217.78C304.709 221.08 306.069 223.32 308.069 223.32ZM308.069 225.2C304.849 225.2 302.589 222.12 302.589 217.78C302.589 213.42 304.849 210.36 308.069 210.36C311.269 210.36 313.529 213.42 313.529 217.78C313.529 222.12 311.269 225.2 308.069 225.2Z" fill="#00662E"/>
<path d="M319.785 224.016L327.049 212.4H328.505L321.209 224.016H319.785ZM320.201 218.528C318.473 218.528 317.129 217.136 317.129 215.376C317.129 213.6 318.473 212.208 320.201 212.208C321.913 212.208 323.257 213.6 323.257 215.376C323.257 217.136 321.913 218.528 320.201 218.528ZM320.201 217.232C321.193 217.232 321.961 216.4 321.961 215.376C321.961 214.336 321.193 213.52 320.201 213.52C319.209 213.52 318.441 214.336 318.441 215.376C318.441 216.4 319.209 217.232 320.201 217.232ZM327.961 224.144C326.233 224.144 324.889 222.752 324.889 220.976C324.889 219.216 326.233 217.824 327.961 217.824C329.673 217.824 331.017 219.216 331.017 220.976C331.017 222.752 329.673 224.144 327.961 224.144ZM327.961 222.848C328.953 222.848 329.721 222.016 329.721 220.976C329.721 219.952 328.953 219.12 327.961 219.12C326.969 219.12 326.201 219.952 326.201 220.976C326.201 222.016 326.969 222.848 327.961 222.848Z" fill="#00662E"/>
</g>
<g filter="url(#filter1_d_4595_2403)">
<rect x="557" y="134" width="85" height="48" rx="24" fill="white" shape-rendering="crispEdges"/>
<path d="M589.818 150.5V159.46H591.658V161.3H589.818V165.06H587.698V161.3H581.438L581.238 159.46L587.798 150.5H589.818ZM583.758 159.46H587.698V154.04L583.758 159.46ZM599.041 150.52V165.06L596.921 165.04V152.78L594.361 154.2L593.481 152.42L596.941 150.52H599.041Z" fill="#6D0CA6"/>
<path d="M606.285 164.016L613.549 152.4H615.005L607.709 164.016H606.285ZM606.701 158.528C604.973 158.528 603.629 157.136 603.629 155.376C603.629 153.6 604.973 152.208 606.701 152.208C608.413 152.208 609.757 153.6 609.757 155.376C609.757 157.136 608.413 158.528 606.701 158.528ZM606.701 157.232C607.693 157.232 608.461 156.4 608.461 155.376C608.461 154.336 607.693 153.52 606.701 153.52C605.709 153.52 604.941 154.336 604.941 155.376C604.941 156.4 605.709 157.232 606.701 157.232ZM614.461 164.144C612.733 164.144 611.389 162.752 611.389 160.976C611.389 159.216 612.733 157.824 614.461 157.824C616.173 157.824 617.517 159.216 617.517 160.976C617.517 162.752 616.173 164.144 614.461 164.144ZM614.461 162.848C615.453 162.848 616.221 162.016 616.221 160.976C616.221 159.952 615.453 159.12 614.461 159.12C613.469 159.12 612.701 159.952 612.701 160.976C612.701 162.016 613.469 162.848 614.461 162.848Z" fill="#6D0CA6"/>
</g>
<g filter="url(#filter2_d_4595_2403)">
<rect x="413" y="170" width="85" height="48" rx="24" fill="white" shape-rendering="crispEdges"/>
<path d="M436.44 199.2C439.36 196.4 443.34 193.56 443.34 191.1C443.34 189.46 442.3 188.3 440.82 188.3C439.68 188.3 438.54 189.12 438.02 190.3L436.16 189.48C436.96 187.64 438.9 186.36 440.82 186.36C443.56 186.36 445.46 188.32 445.46 191.1C445.46 194.16 442.14 196.88 439.44 199.2H445.7V201.06H436.64L436.44 199.2ZM455.404 193.54C456.704 194.3 457.524 195.72 457.524 196.94C457.524 199.42 455.484 201.18 452.584 201.18C449.704 201.18 447.664 199.38 447.664 196.82H449.784C449.784 198.28 450.944 199.3 452.584 199.3C454.264 199.3 455.464 198.28 455.464 196.82C455.464 195.42 454.284 194.42 452.624 194.42H451.584V192.64H452.644C454.164 192.64 455.244 191.74 455.244 190.46C455.244 189.16 454.204 188.26 452.724 188.26C451.244 188.26 450.224 189.18 450.224 190.48H448.104C448.104 188.06 450.004 186.38 452.724 186.38C455.404 186.38 457.304 188.02 457.304 190.34C457.304 191.46 456.584 192.78 455.404 193.54Z" fill="#00662E"/>
<path d="M463.785 200.016L471.049 188.4H472.505L465.209 200.016H463.785ZM464.201 194.528C462.473 194.528 461.129 193.136 461.129 191.376C461.129 189.6 462.473 188.208 464.201 188.208C465.913 188.208 467.257 189.6 467.257 191.376C467.257 193.136 465.913 194.528 464.201 194.528ZM464.201 193.232C465.193 193.232 465.961 192.4 465.961 191.376C465.961 190.336 465.193 189.52 464.201 189.52C463.209 189.52 462.441 190.336 462.441 191.376C462.441 192.4 463.209 193.232 464.201 193.232ZM471.961 200.144C470.233 200.144 468.889 198.752 468.889 196.976C468.889 195.216 470.233 193.824 471.961 193.824C473.673 193.824 475.017 195.216 475.017 196.976C475.017 198.752 473.673 200.144 471.961 200.144ZM471.961 198.848C472.953 198.848 473.721 198.016 473.721 196.976C473.721 195.952 472.953 195.12 471.961 195.12C470.969 195.12 470.201 195.952 470.201 196.976C470.201 198.016 470.969 198.848 471.961 198.848Z" fill="#00662E"/>
</g>
<g filter="url(#filter3_d_4595_2403)">
<rect x="701" y="72" width="85" height="48" rx="24" fill="white" shape-rendering="crispEdges"/>
<path d="M727.983 103.1H725.663L731.363 90.3L724.683 90.32V88.44H733.483L733.683 90.3L727.983 103.1ZM739.291 103.1H736.971L742.671 90.3L735.991 90.32V88.44H744.791L744.991 90.3L739.291 103.1Z" fill="#6D0CA6"/>
<path d="M751.285 102.016L758.549 90.4H760.005L752.709 102.016H751.285ZM751.701 96.528C749.973 96.528 748.629 95.136 748.629 93.376C748.629 91.6 749.973 90.208 751.701 90.208C753.413 90.208 754.757 91.6 754.757 93.376C754.757 95.136 753.413 96.528 751.701 96.528ZM751.701 95.232C752.693 95.232 753.461 94.4 753.461 93.376C753.461 92.336 752.693 91.52 751.701 91.52C750.709 91.52 749.941 92.336 749.941 93.376C749.941 94.4 750.709 95.232 751.701 95.232ZM759.461 102.144C757.733 102.144 756.389 100.752 756.389 98.976C756.389 97.216 757.733 95.824 759.461 95.824C761.173 95.824 762.517 97.216 762.517 98.976C762.517 100.752 761.173 102.144 759.461 102.144ZM759.461 100.848C760.453 100.848 761.221 100.016 761.221 98.976C761.221 97.952 760.453 97.12 759.461 97.12C758.469 97.12 757.701 97.952 757.701 98.976C757.701 100.016 758.469 100.848 759.461 100.848Z" fill="#6D0CA6"/>
</g>
<g filter="url(#filter4_d_4595_2403)">
<rect x="845" y="16" width="85" height="48" rx="24" fill="white" shape-rendering="crispEdges"/>
<path d="M868.298 32.52V47.06L866.178 47.04V34.78L863.618 36.2L862.738 34.42L866.198 32.52H868.298ZM876.698 45.32C878.698 45.32 880.038 43.08 880.038 39.78C880.038 36.46 878.698 34.22 876.698 34.22C874.698 34.22 873.338 36.46 873.338 39.78C873.338 43.08 874.698 45.32 876.698 45.32ZM876.698 47.2C873.478 47.2 871.218 44.12 871.218 39.78C871.218 35.42 873.478 32.36 876.698 32.36C879.898 32.36 882.158 35.42 882.158 39.78C882.158 44.12 879.898 47.2 876.698 47.2ZM889.569 45.32C891.569 45.32 892.909 43.08 892.909 39.78C892.909 36.46 891.569 34.22 889.569 34.22C887.569 34.22 886.209 36.46 886.209 39.78C886.209 43.08 887.569 45.32 889.569 45.32ZM889.569 47.2C886.349 47.2 884.089 44.12 884.089 39.78C884.089 35.42 886.349 32.36 889.569 32.36C892.769 32.36 895.029 35.42 895.029 39.78C895.029 44.12 892.769 47.2 889.569 47.2Z" fill="#6D0CA6"/>
<path d="M901.285 46.016L908.549 34.4H910.005L902.709 46.016H901.285ZM901.701 40.528C899.973 40.528 898.629 39.136 898.629 37.376C898.629 35.6 899.973 34.208 901.701 34.208C903.413 34.208 904.757 35.6 904.757 37.376C904.757 39.136 903.413 40.528 901.701 40.528ZM901.701 39.232C902.693 39.232 903.461 38.4 903.461 37.376C903.461 36.336 902.693 35.52 901.701 35.52C900.709 35.52 899.941 36.336 899.941 37.376C899.941 38.4 900.709 39.232 901.701 39.232ZM909.461 46.144C907.733 46.144 906.389 44.752 906.389 42.976C906.389 41.216 907.733 39.824 909.461 39.824C911.173 39.824 912.517 41.216 912.517 42.976C912.517 44.752 911.173 46.144 909.461 46.144ZM909.461 44.848C910.453 44.848 911.221 44.016 911.221 42.976C911.221 41.952 910.453 41.12 909.461 41.12C908.469 41.12 907.701 41.952 907.701 42.976C907.701 44.016 908.469 44.848 909.461 44.848Z" fill="#6D0CA6"/>
</g>
<rect x="32" y="40" width="12" height="12" rx="4" fill="url(#paint6_linear_4595_2403)"/>
<path d="M54.304 39.424H55.68V43.024H63.904V44.144H59.664V46H65.344V47.104H52.624V46H58.272V44.144H54.304V39.424ZM54.096 49.616V48.496H63.76V53.216H62.384V49.616H54.096ZM69.4724 39.968H70.8004V41.824C70.8004 43.408 71.8084 45.008 73.6164 45.744L72.8804 46.816C71.5844 46.272 70.6564 45.264 70.1444 44.048C69.6484 45.392 68.6724 46.56 67.3124 47.168L66.5604 46.08C68.4164 45.248 69.4724 43.408 69.4724 41.824V39.968ZM68.9764 49.536V48.416H78.4644V53.216H77.0724V49.536H68.9764ZM74.1284 47.568V39.376H75.4244V42.768H77.1364V39.136H78.4644V47.648H77.1364V43.904H75.4244V47.568H74.1284ZM80.5768 50.256H93.3288V51.424H80.5768V50.256ZM81.6808 41.632V40.496H92.1608V41.632H90.0168V46.432H92.1448V47.552H81.7288V46.432H83.8248V41.632H81.6808ZM85.2168 46.432H88.6408V41.632H85.2168V46.432ZM104.737 39.104H106.129V53.232H104.737V39.104ZM95.3291 41.552V40.432H101.857V45.504H96.7531V48.688C99.0571 48.688 101.057 48.576 103.457 48.192L103.601 49.328C101.089 49.744 98.9771 49.824 96.5451 49.824H95.3611V44.384H100.465V41.552H95.3291ZM109.33 40.48H115.826V49.696H109.33V40.48ZM110.69 48.576H114.498V41.6H110.69V48.576ZM118.69 53.232V39.104H120.082V53.232H118.69ZM126.37 39.92C128.226 39.92 129.666 41.024 129.954 42.656H132.738V39.136H134.13V47.2H132.738V43.792H129.97C129.714 45.472 128.258 46.592 126.37 46.592C124.258 46.592 122.722 45.232 122.722 43.264C122.722 41.296 124.258 39.92 126.37 39.92ZM124.05 43.264C124.05 44.56 125.026 45.44 126.37 45.44C127.698 45.44 128.674 44.56 128.674 43.264C128.674 41.984 127.698 41.088 126.37 41.088C125.026 41.088 124.05 41.984 124.05 43.264ZM124.946 53.024V47.904H134.13V53.024H124.946ZM126.322 51.904H132.786V49.008H126.322V51.904Z" fill="#3F3F46"/>
<rect x="32" y="74" width="12" height="12" rx="4" fill="url(#paint7_linear_4595_2403)"/>
<path d="M57.424 80.192C58.8 80.192 59.76 79.232 59.76 77.888C59.76 76.544 58.784 75.584 57.408 75.584H54.688L54.704 80.192H57.424ZM53.36 86.048V74.4H57.456C59.584 74.4 61.072 75.84 61.072 77.888C61.072 79.92 59.584 81.36 57.456 81.36H54.704V86.048H53.36ZM67.3771 80.192C68.7531 80.192 69.7131 79.232 69.7131 77.888C69.7131 76.544 68.7371 75.584 67.3611 75.584H64.6411L64.6571 80.192H67.3771ZM63.3131 86.048V74.4H67.4091C69.5371 74.4 71.0251 75.84 71.0251 77.888C71.0251 79.92 69.5371 81.36 67.4091 81.36H64.6571V86.048H63.3131ZM77.1204 74.4L81.5044 86.048H80.0804L78.8484 82.752H73.7764L72.4964 86.048H71.0724L75.5364 74.4H77.1204ZM74.2084 81.584H78.4004L76.3364 76.096L74.2084 81.584Z" fill="#3F3F46"/>
<rect x="32" y="108" width="12" height="12" rx="4" fill="#27272A"/>
<path d="M53.168 108.72H58.704V109.84H54.48V112.432H58.496V113.536H54.48V116.608C56.448 116.608 57.696 116.544 59.168 116.256L59.328 117.408C57.68 117.728 56.32 117.76 54.064 117.76H53.168V108.72ZM60.16 120.496V107.424H61.472V112.736H63.248V107.12H64.576V121.2H63.248V113.888H61.472V120.496H60.16ZM70.5284 107.952C72.6564 107.952 74.2244 109.312 74.2244 111.28C74.2244 113.248 72.6564 114.608 70.5284 114.608C68.3844 114.608 66.8324 113.248 66.8324 111.28C66.8324 109.312 68.3844 107.952 70.5284 107.952ZM68.1924 111.28C68.1924 112.576 69.1844 113.44 70.5284 113.44C71.8724 113.44 72.8804 112.576 72.8804 111.28C72.8804 110 71.8724 109.12 70.5284 109.12C69.1844 109.12 68.1924 110 68.1924 111.28ZM68.4004 118.528C68.4004 116.848 70.1764 115.872 73.0564 115.872C75.9204 115.872 77.6804 116.848 77.6804 118.528C77.6804 120.208 75.9204 121.184 73.0564 121.184C70.1764 121.184 68.4004 120.208 68.4004 118.528ZM69.7604 118.528C69.7604 119.504 70.9924 120.08 73.0564 120.08C75.0884 120.08 76.3204 119.504 76.3204 118.528C76.3204 117.536 75.0884 116.976 73.0564 116.976C70.9924 116.976 69.7604 117.536 69.7604 118.528ZM76.1444 115.456V107.136H77.5364V109.184H79.5524V110.336H77.5364V112.192H79.5524V113.344H77.5364V115.456H76.1444ZM81.3288 108H88.3208V108.784C88.3208 109.664 88.3208 110.928 87.9688 112.56L86.6248 112.464C86.9288 111.024 86.9768 109.952 86.9768 109.12H81.3288V108ZM80.4648 113.84C81.3608 113.84 82.3528 113.84 83.3928 113.808V111.056H84.7528V113.776C86.2728 113.712 87.8408 113.616 89.2648 113.424L89.3608 114.432C86.4488 114.896 83.1368 114.976 80.6248 114.976L80.4648 113.84ZM82.3207 118.592C82.3207 117.008 84.1128 116.048 86.9928 116.048C89.9048 116.048 91.6968 117.008 91.6968 118.592C91.6968 120.224 89.9048 121.184 86.9928 121.184C84.1128 121.184 82.3207 120.224 82.3207 118.592ZM83.7128 118.592C83.7128 119.536 84.9608 120.08 86.9928 120.08C89.0568 120.08 90.3048 119.536 90.3048 118.592C90.3048 117.68 89.0568 117.136 86.9928 117.136C84.9608 117.136 83.7128 117.68 83.7128 118.592ZM90.1768 115.888V107.12H91.5688V110.912H93.5368V112.064H91.5688V115.888H90.1768Z" fill="#3F3F46"/>
<defs>
<filter id="filter0_d_4595_2403" x="255" y="183" width="115" height="78" filterUnits="userSpaceOnUse" color-interpolation-filters="sRGB">
<feFlood flood-opacity="0" result="BackgroundImageFix"/>
<feColorMatrix in="SourceAlpha" type="matrix" values="0 0 0 0 0 0 0 0 0 0 0 0 0 0 0 0 0 0 127 0" result="hardAlpha"/>
<feOffset dy="4"/>
<feGaussianBlur stdDeviation="7.5"/>
<feComposite in2="hardAlpha" operator="out"/>
<feColorMatrix type="matrix" values="0 0 0 0 0 0 0 0 0 0 0 0 0 0 0 0 0 0 0.15 0"/>
<feBlend mode="normal" in2="BackgroundImageFix" result="effect1_dropShadow_4595_2403"/>
<feBlend mode="normal" in="SourceGraphic" in2="effect1_dropShadow_4595_2403" result="shape"/>
</filter>
<filter id="filter1_d_4595_2403" x="542" y="123" width="115" height="78" filterUnits="userSpaceOnUse" color-interpolation-filters="sRGB">
<feFlood flood-opacity="0" result="BackgroundImageFix"/>
<feColorMatrix in="SourceAlpha" type="matrix" values="0 0 0 0 0 0 0 0 0 0 0 0 0 0 0 0 0 0 127 0" result="hardAlpha"/>
<feOffset dy="4"/>
<feGaussianBlur stdDeviation="7.5"/>
<feComposite in2="hardAlpha" operator="out"/>
<feColorMatrix type="matrix" values="0 0 0 0 0 0 0 0 0 0 0 0 0 0 0 0 0 0 0.15 0"/>
<feBlend mode="normal" in2="BackgroundImageFix" result="effect1_dropShadow_4595_2403"/>
<feBlend mode="normal" in="SourceGraphic" in2="effect1_dropShadow_4595_2403" result="shape"/>
</filter>
<filter id="filter2_d_4595_2403" x="398" y="159" width="115" height="78" filterUnits="userSpaceOnUse" color-interpolation-filters="sRGB">
<feFlood flood-opacity="0" result="BackgroundImageFix"/>
<feColorMatrix in="SourceAlpha" type="matrix" values="0 0 0 0 0 0 0 0 0 0 0 0 0 0 0 0 0 0 127 0" result="hardAlpha"/>
<feOffset dy="4"/>
<feGaussianBlur stdDeviation="7.5"/>
<feComposite in2="hardAlpha" operator="out"/>
<feColorMatrix type="matrix" values="0 0 0 0 0 0 0 0 0 0 0 0 0 0 0 0 0 0 0.15 0"/>
<feBlend mode="normal" in2="BackgroundImageFix" result="effect1_dropShadow_4595_2403"/>
<feBlend mode="normal" in="SourceGraphic" in2="effect1_dropShadow_4595_2403" result="shape"/>
</filter>
<filter id="filter3_d_4595_2403" x="686" y="61" width="115" height="78" filterUnits="userSpaceOnUse" color-interpolation-filters="sRGB">
<feFlood flood-opacity="0" result="BackgroundImageFix"/>
<feColorMatrix in="SourceAlpha" type="matrix" values="0 0 0 0 0 0 0 0 0 0 0 0 0 0 0 0 0 0 127 0" result="hardAlpha"/>
<feOffset dy="4"/>
<feGaussianBlur stdDeviation="7.5"/>
<feComposite in2="hardAlpha" operator="out"/>
<feColorMatrix type="matrix" values="0 0 0 0 0 0 0 0 0 0 0 0 0 0 0 0 0 0 0.15 0"/>
<feBlend mode="normal" in2="BackgroundImageFix" result="effect1_dropShadow_4595_2403"/>
<feBlend mode="normal" in="SourceGraphic" in2="effect1_dropShadow_4595_2403" result="shape"/>
</filter>
<filter id="filter4_d_4595_2403" x="830" y="5" width="115" height="78" filterUnits="userSpaceOnUse" color-interpolation-filters="sRGB">
<feFlood flood-opacity="0" result="BackgroundImageFix"/>
<feColorMatrix in="SourceAlpha" type="matrix" values="0 0 0 0 0 0 0 0 0 0 0 0 0 0 0 0 0 0 127 0" result="hardAlpha"/>
<feOffset dy="4"/>
<feGaussianBlur stdDeviation="7.5"/>
<feComposite in2="hardAlpha" operator="out"/>
<feColorMatrix type="matrix" values="0 0 0 0 0 0 0 0 0 0 0 0 0 0 0 0 0 0 0.15 0"/>
<feBlend mode="normal" in2="BackgroundImageFix" result="effect1_dropShadow_4595_2403"/>
<feBlend mode="normal" in="SourceGraphic" in2="effect1_dropShadow_4595_2403" result="shape"/>
</filter>
<linearGradient id="paint0_linear_4595_2403" x1="600" y1="0" x2="600" y2="280" gradientUnits="userSpaceOnUse">
<stop stop-color="#F6F6F7"/>
<stop offset="1" stop-color="white"/>
</linearGradient>
<linearGradient id="paint1_linear_4595_2403" x1="312" y1="258" x2="312" y2="280" gradientUnits="userSpaceOnUse">
<stop stop-color="#00CC5C"/>
<stop offset="1" stop-color="#5EFFA6"/>
</linearGradient>
<linearGradient id="paint2_linear_4595_2403" x1="456" y1="234" x2="456" y2="280" gradientUnits="userSpaceOnUse">
<stop stop-color="#00CC5C"/>
<stop offset="1" stop-color="#5EFFA6"/>
</linearGradient>
<linearGradient id="paint3_linear_4595_2403" x1="600" y1="198" x2="600" y2="280" gradientUnits="userSpaceOnUse">
<stop stop-color="#9735D0"/>
<stop offset="1" stop-color="#9735D0" stop-opacity="0.4"/>
</linearGradient>
<linearGradient id="paint4_linear_4595_2403" x1="744" y1="136" x2="744" y2="280" gradientUnits="userSpaceOnUse">
<stop stop-color="#9735D0"/>
<stop offset="1" stop-color="#9735D0" stop-opacity="0.4"/>
</linearGradient>
<linearGradient id="paint5_linear_4595_2403" x1="888" y1="80" x2="888" y2="280" gradientUnits="userSpaceOnUse">
<stop stop-color="#9735D0"/>
<stop offset="1" stop-color="#9735D0" stop-opacity="0.4"/>
</linearGradient>
<linearGradient id="paint6_linear_4595_2403" x1="38" y1="40" x2="38" y2="52" gradientUnits="userSpaceOnUse">
<stop stop-color="#00CC5C"/>
<stop offset="1" stop-color="#5EFFA6"/>
</linearGradient>
<linearGradient id="paint7_linear_4595_2403" x1="38" y1="74" x2="38" y2="86" gradientUnits="userSpaceOnUse">
<stop stop-color="#9735D0"/>
<stop offset="1" stop-color="#9735D0" stop-opacity="0.4"/>
</linearGradient>
</defs>
</svg>
