<svg width="101" height="100" viewBox="0 0 101 100" fill="none" xmlns="http://www.w3.org/2000/svg">
<path d="M71.9902 28.1434C74.431 25.7026 74.4548 21.6962 71.6528 19.6803C67.1874 16.4678 62.067 14.2313 56.6248 13.1487C49.1292 11.6578 41.3598 12.423 34.2991 15.3476C27.2383 18.2723 21.2034 23.225 16.9575 29.5795C12.7116 35.934 10.4453 43.4048 10.4453 51.0473C10.4453 58.6898 12.7116 66.1606 16.9575 72.5151C21.2034 78.8696 27.2383 83.8223 34.2991 86.7469C41.3598 89.6716 49.1292 90.4368 56.6248 88.9458C62.067 87.8633 67.1874 85.6268 71.6528 82.4143C74.4548 80.3984 74.431 76.392 71.9902 73.9512L53.5058 55.4667C51.065 53.0259 51.065 49.0687 53.5058 46.6279L71.9902 28.1434Z" fill="#CC7DFA"/>
<path d="M76.3019 70.6313C78.7427 73.0721 82.7575 73.0969 84.7101 70.2505C86.0431 68.3074 87.1733 66.2261 88.0794 64.0386C89.7852 59.9203 90.6632 55.5064 90.6632 51.0489C90.6632 46.5913 89.7852 42.1774 88.0794 38.0591C87.1733 35.8717 86.0431 33.7903 84.7101 31.8472C82.7575 29.0008 78.7427 29.0256 76.3019 31.4664L59.6657 48.1026C58.0385 49.7298 58.0385 52.368 59.6657 53.9951L76.3019 70.6313Z" fill="#6D0CA6"/>
<path fill-rule="evenodd" clip-rule="evenodd" d="M69.1797 48.1646C69.1797 46.3047 70.6875 44.7969 72.5474 44.7969C74.4074 44.7969 75.9152 46.3047 75.9152 48.1646C75.9152 50.0246 74.4074 51.5324 72.5474 51.5324C70.6875 51.5324 69.1797 50.0246 69.1797 48.1646ZM72.5474 46.5519C71.6567 46.5519 70.9347 47.2739 70.9347 48.1646C70.9347 49.0553 71.6567 49.7774 72.5474 49.7774C73.4381 49.7774 74.1602 49.0553 74.1602 48.1646C74.1602 47.2739 73.4381 46.5519 72.5474 46.5519Z" fill="white"/>
<path fill-rule="evenodd" clip-rule="evenodd" d="M77.9667 53.9304C77.9667 52.0705 79.4745 50.5627 81.3345 50.5627C83.1944 50.5627 84.7022 52.0705 84.7022 53.9304C84.7022 55.7904 83.1944 57.2982 81.3345 57.2982C79.4745 57.2982 77.9667 55.7904 77.9667 53.9304ZM81.3345 52.3177C80.4438 52.3177 79.7217 53.0397 79.7217 53.9304C79.7217 54.8211 80.4438 55.5432 81.3345 55.5432C82.2252 55.5432 82.9472 54.8211 82.9472 53.9304C82.9472 53.0397 82.2252 52.3177 81.3345 52.3177Z" fill="white"/>
<path d="M81.1342 46.149C81.3963 45.7414 81.2783 45.1984 80.8706 44.9364C80.463 44.6743 79.92 44.7923 79.658 45.1999L72.7494 55.9459C72.4873 56.3535 72.6053 56.8965 73.0129 57.1585C73.4206 57.4206 73.9635 57.3026 74.2256 56.895L81.1342 46.149Z" fill="white"/>
</svg>
