<svg width="101" height="100" viewBox="0 0 101 100" fill="none" xmlns="http://www.w3.org/2000/svg">
<path d="M23.7266 24.0938C22.0007 24.0938 20.6016 25.4929 20.6016 27.2187C20.6016 28.9446 22.0007 30.3437 23.7266 30.3437H48.7266L48.7266 83.4687C48.7266 85.1946 50.1257 86.5937 51.8516 86.5937C53.5775 86.5937 54.9766 85.1946 54.9766 83.4687L54.9766 30.3437H79.9766C81.7024 30.3437 83.1016 28.9446 83.1016 27.2187C83.1016 25.4929 81.7024 24.0938 79.9766 24.0938H23.7266Z" fill="#CC7DFA"/>
<path fill-rule="evenodd" clip-rule="evenodd" d="M35.1875 85.5547C35.1875 83.8288 36.5866 82.4297 38.3125 82.4297H65.3958C67.1217 82.4297 68.5208 83.8288 68.5208 85.5547C68.5208 87.2806 67.1217 88.6797 65.3958 88.6797H38.3125C36.5866 88.6797 35.1875 87.2806 35.1875 85.5547Z" fill="#6D0CA6"/>
<path d="M78.8529 34.5377C79.2518 33.9793 80.0816 33.9793 80.4804 34.5377L90.0833 47.9818H69.25L78.8529 34.5377Z" fill="#CC7DFA"/>
<path d="M90.0833 47.9844C90.0833 53.7183 85.4006 58.401 79.6667 58.401C73.9327 58.401 69.25 53.7183 69.25 47.9844H90.0833Z" fill="#6D0CA6"/>
<path d="M22.6029 34.5377C23.0018 33.9793 23.8316 33.9793 24.2304 34.5377L33.8333 47.9818H13L22.6029 34.5377Z" fill="#CC7DFA"/>
<path d="M33.8333 47.9844C33.8333 53.7183 29.1506 58.401 23.4167 58.401C17.6827 58.401 13 53.7183 13 47.9844H33.8333Z" fill="#6D0CA6"/>
<path d="M45.7429 21.6875C45.1906 21.6875 44.7355 21.2372 44.8129 20.6904C45.3007 17.2457 48.2769 14.5785 51.8519 14.5785C55.4269 14.5785 58.4031 17.2457 58.8909 20.6904C58.9683 21.2372 58.5132 21.6875 57.9609 21.6875L45.7429 21.6875Z" fill="#6D0CA6"/>
</svg>
