<svg width="1098" height="600" viewBox="0 0 1098 600" fill="none" xmlns="http://www.w3.org/2000/svg">
<g clip-path="url(#clip0_17842_24152)">
<g filter="url(#filter0_d_17842_24152)">
<rect x="720.5" y="328" width="208" height="72" rx="8" fill="white" shape-rendering="crispEdges"/>
<path d="M752.66 359.52H755.76V354.82H757.96V367.8H755.76V361.3H752.66V359.52ZM743.12 364C745.94 363.04 747.44 360.7 747.44 358.34V357.86H743.74V356.1H753.3V357.86H749.66V358.34C749.66 360.5 751.08 362.72 753.8 363.64L752.72 365.36C750.74 364.68 749.36 363.32 748.58 361.62C747.82 363.5 746.34 365.02 744.24 365.74L743.12 364ZM746.34 372.26V366.7H748.56V370.5H758.4V372.26H746.34ZM764.8 356.26H766.98V359.06C766.98 362.22 768.52 365.48 771.26 366.82L769.92 368.56C768.02 367.58 766.66 365.72 765.9 363.46C765.12 365.88 763.68 367.88 761.66 368.9L760.34 367.12C763.18 365.76 764.8 362.34 764.8 359.06V356.26ZM772.28 372.62V354.82H774.5V361.8H777.22V363.64H774.5V372.62H772.28ZM788.381 356.4V358.26H780.961V362.64H787.341V364.48H780.961V369.3H788.381V371.16H778.841V356.4H788.381ZM792.537 366.96C793.397 368.64 794.617 369.48 795.897 369.48C797.797 369.5 798.857 368.58 798.857 367.16C798.857 363.8 791.437 365.24 791.437 360.1C791.437 357.66 793.437 356.22 796.177 356.24C798.077 356.26 799.897 357.32 800.717 359.62L798.817 360.3C798.297 358.76 797.257 358.1 796.157 358.08C794.577 358.08 793.557 358.86 793.557 360.1C793.557 363.42 800.957 362.16 800.957 367.18C800.957 369.66 799.017 371.36 795.877 371.32C793.717 371.3 791.997 370.06 790.777 367.94L792.537 366.96ZM817.225 363.42C817.225 363.92 817.205 364.5 817.205 364.7C817.205 368.84 814.385 371.26 810.285 371.32C805.985 371.32 802.945 368.2 802.945 363.78C802.945 359.36 805.985 356.26 810.285 356.26C814.905 356.26 816.525 359.82 816.525 359.82L814.705 360.76C814.705 360.76 813.545 358.12 810.285 358.12C807.165 358.12 805.065 360.4 805.065 363.78C805.065 367.18 807.165 369.46 810.285 369.46C812.965 369.38 815.105 368.08 815.125 365.18H810.525V363.42H817.225ZM819.567 365.5H835.667V367.3H828.707V372.64H826.487V367.3H819.567V365.5ZM820.467 362.7C823.987 362.26 826.247 360.46 826.467 358.66H821.047V356.9H826.487V354.84H828.707V356.9H834.167V358.66H828.727C828.947 360.42 831.227 362.26 834.727 362.7L833.947 364.42C831.007 364.06 828.747 362.76 827.607 361.04C826.467 362.78 824.187 364.04 821.227 364.42L820.467 362.7ZM837.767 356.14H847.467V357.9H843.747V358.4C843.747 360.64 845.267 362.8 848.047 363.72L846.927 365.42C844.907 364.76 843.467 363.42 842.667 361.7C841.887 363.56 840.387 365.02 838.287 365.74L837.167 364.02C840.007 363.06 841.507 360.76 841.507 358.4V357.9H837.767V356.14ZM840.047 372.26V366.54H842.247V370.5H852.227V372.26H840.047ZM849.527 367.74V354.82H851.747V367.74H849.527ZM860.288 355.56C862.968 355.56 864.908 357.1 864.908 359.32C864.908 361.5 862.968 363.06 860.288 363.06C857.628 363.06 855.668 361.5 855.668 359.32C855.668 357.1 857.628 355.56 860.288 355.56ZM854.528 364.28C857.708 364.28 862.148 364.26 865.988 363.66L866.128 365.28C864.588 365.58 863.008 365.76 861.468 365.88V372.06H859.268V366.02C857.648 366.08 856.128 366.1 854.788 366.1L854.528 364.28ZM857.788 359.32C857.788 360.52 858.848 361.26 860.288 361.26C861.748 361.26 862.808 360.52 862.808 359.32C862.808 358.1 861.748 357.36 860.288 357.36C858.848 357.36 857.788 358.1 857.788 359.32ZM867.088 372.62V354.8H869.288V372.62H867.088ZM884.608 354.8H886.808V368.32H884.608V366.74H881.168V365.22H884.608V354.8ZM871.908 362.82C875.168 362.8 879.528 362.76 883.308 362.3L883.428 363.86C881.988 364.1 880.468 364.26 878.988 364.36V367.78H876.788V364.48C875.148 364.56 873.568 364.58 872.188 364.58L871.908 362.82ZM873.228 358.6C873.228 356.72 875.048 355.46 877.648 355.46C880.268 355.46 882.068 356.72 882.068 358.6C882.068 360.52 880.268 361.76 877.648 361.76C875.048 361.76 873.228 360.52 873.228 358.6ZM874.248 372.26V367.02H876.448V370.5H887.228V372.26H874.248ZM875.328 358.6C875.328 359.58 876.288 360.14 877.648 360.14C879.048 360.14 879.968 359.58 879.968 358.6C879.968 357.62 879.048 357.06 877.648 357.06C876.288 357.06 875.328 357.62 875.328 358.6ZM901.989 354.82H904.169V372.62H901.989V354.82ZM889.569 367.68C890.949 367.68 892.529 367.68 894.189 367.64V365.98C892.209 365.66 890.929 364.44 890.929 362.74C890.929 360.74 892.689 359.42 895.289 359.42C897.869 359.42 899.669 360.74 899.669 362.74C899.669 364.44 898.369 365.66 896.389 365.98V367.56C897.949 367.48 899.509 367.36 900.989 367.16L901.129 368.74C897.229 369.46 893.029 369.48 889.829 369.48L889.569 367.68ZM889.909 358.58V356.86H894.189V354.86H896.389V356.86H900.669V358.58H889.909ZM893.009 362.74C893.009 363.78 893.949 364.4 895.289 364.4C896.649 364.4 897.569 363.78 897.569 362.74C897.569 361.7 896.649 361.08 895.289 361.08C893.949 361.08 893.009 361.7 893.009 362.74Z" fill="#6D0CA6"/>
</g>
<line x1="549.5" y1="100" x2="549.5" y2="138" stroke="#71717A"/>
<path d="M274 178V146C274 141.582 277.582 138 282 138H817C821.418 138 825 141.582 825 146V178" stroke="#71717A"/>
<path d="M357 328V296C357 291.582 360.582 288 365 288H825V328" stroke="#71717A"/>
<path d="M824.5 250L824.5 288" stroke="#71717A"/>
<line x1="357.5" y1="364" x2="357.5" y2="548" stroke="#71717A"/>
<line x1="425" y1="547.5" x2="609" y2="547.5" stroke="#71717A" stroke-dasharray="3 3"/>
<line x1="425" y1="363.5" x2="609" y2="363.5" stroke="#71717A" stroke-dasharray="3 3"/>
<g filter="url(#filter1_d_17842_24152)">
<rect x="445" y="28" width="208" height="72" rx="8" fill="#9735D0" shape-rendering="crispEdges"/>
<path d="M528.1 71.16V56.4H533.02C535.38 56.4 537.06 58.06 537.06 60.42C537.06 61.34 536.58 62.4 535.86 63.14C536.04 63.24 536.22 63.36 536.38 63.46C537.48 64.18 538.28 65.62 538.28 66.96C538.28 69.42 536.6 71.16 534.22 71.16H528.1ZM530.22 69.3H534C535.3 69.3 536.18 68.36 536.18 66.98C536.18 65.48 535.3 64.48 534 64.48H530.22V69.3ZM530.22 62.64H533.06C534.2 62.58 534.98 61.74 534.98 60.52C534.98 59.16 534.12 58.26 532.84 58.26H530.22V62.64ZM547.84 69.46C550.96 69.46 553.06 67.18 553.06 63.78C553.06 60.38 550.96 58.1 547.84 58.1C544.72 58.1 542.64 60.38 542.64 63.78C542.64 67.18 544.72 69.46 547.84 69.46ZM540.5 63.78C540.5 59.36 543.54 56.24 547.84 56.24C552.16 56.24 555.2 59.36 555.2 63.78C555.2 68.2 552.16 71.32 547.84 71.32C543.54 71.32 540.5 68.2 540.5 63.78ZM561.891 69.3C565.051 69.3 567.171 67.08 567.171 63.78C567.171 60.48 565.051 58.26 561.891 58.26L559.791 58.28V69.28L561.891 69.3ZM557.671 71.16V56.4H561.911C566.231 56.4 569.271 59.44 569.271 63.78C569.271 68.12 566.231 71.16 561.911 71.16H557.671Z" fill="white"/>
</g>
<rect x="720.5" y="178" width="208" height="72" rx="8" fill="#F5EBFB"/>
<path d="M810.7 221.32C806.42 221.32 803.42 218.2 803.42 213.78C803.42 209.34 806.42 206.24 810.7 206.24C812.72 206.24 814.52 207.1 815.84 208.44L814.44 209.82C813.56 208.78 812.16 208.1 810.68 208.1C807.62 208.1 805.56 210.38 805.56 213.78C805.56 217.18 807.62 219.46 810.68 219.46C812.26 219.46 813.52 218.74 814.36 217.78L815.84 219.12C814.52 220.46 812.82 221.34 810.7 221.32ZM827.803 206.4V208.26H820.383V212.64H826.763V214.48H820.383V219.3H827.803V221.16H818.263V206.4H827.803ZM837.441 219.46C840.561 219.46 842.661 217.18 842.661 213.78C842.661 210.38 840.561 208.1 837.441 208.1C834.321 208.1 832.241 210.38 832.241 213.78C832.241 217.18 834.321 219.46 837.441 219.46ZM830.101 213.78C830.101 209.36 833.141 206.24 837.441 206.24C841.761 206.24 844.801 209.36 844.801 213.78C844.801 218.2 841.761 221.32 837.441 221.32C833.141 221.32 830.101 218.2 830.101 213.78Z" fill="#6D0CA6"/>
<g filter="url(#filter2_d_17842_24152)">
<rect x="170" y="178" width="208" height="72" rx="8" fill="white" shape-rendering="crispEdges"/>
<path d="M210.16 209.52H213.26V204.82H215.46V217.8H213.26V211.3H210.16V209.52ZM200.62 214C203.44 213.04 204.94 210.7 204.94 208.34V207.86H201.24V206.1H210.8V207.86H207.16V208.34C207.16 210.5 208.58 212.72 211.3 213.64L210.22 215.36C208.24 214.68 206.86 213.32 206.08 211.62C205.32 213.5 203.84 215.02 201.74 215.74L200.62 214ZM203.84 222.26V216.7H206.06V220.5H215.9V222.26H203.84ZM218.82 205.84H226.92V211.08H221.04V213.1C224.02 213.08 226.1 212.98 228.5 212.54L228.7 214.32C226.1 214.8 223.78 214.88 220.32 214.88H218.86V209.44H224.74V207.58H218.82V205.84ZM220.34 218.26V216.5H232.1V222.62H229.9V218.26H220.34ZM229.9 215.64V204.82H232.1V207.42H234.56V209.22H232.1V211.18H234.56V212.98H232.1V215.64H229.9ZM242.481 213.58C242.481 212.66 243.301 211.8 244.241 211.8C245.221 211.8 246.001 212.66 246.001 213.58C246.001 214.52 245.221 215.34 244.241 215.34C243.301 215.34 242.481 214.52 242.481 213.58ZM264.279 206.4V208.26H256.859V212.64H263.239V214.48H256.859V219.3H264.279V221.16H254.739V206.4H264.279ZM268.436 216.96C269.296 218.64 270.516 219.48 271.796 219.48C273.696 219.5 274.756 218.58 274.756 217.16C274.756 213.8 267.336 215.24 267.336 210.1C267.336 207.66 269.336 206.22 272.076 206.24C273.976 206.26 275.796 207.32 276.616 209.62L274.716 210.3C274.196 208.76 273.156 208.1 272.056 208.08C270.476 208.08 269.456 208.86 269.456 210.1C269.456 213.42 276.856 212.16 276.856 217.18C276.856 219.66 274.916 221.36 271.776 221.32C269.616 221.3 267.896 220.06 266.676 217.94L268.436 216.96ZM293.123 213.42C293.123 213.92 293.103 214.5 293.103 214.7C293.103 218.84 290.283 221.26 286.183 221.32C281.883 221.32 278.843 218.2 278.843 213.78C278.843 209.36 281.883 206.26 286.183 206.26C290.803 206.26 292.423 209.82 292.423 209.82L290.603 210.76C290.603 210.76 289.443 208.12 286.183 208.12C283.063 208.12 280.963 210.4 280.963 213.78C280.963 217.18 283.063 219.46 286.183 219.46C288.863 219.38 291.003 218.08 291.023 215.18H286.423V213.42H293.123ZM301.225 205.56C303.905 205.56 305.845 207.1 305.845 209.32C305.845 211.5 303.905 213.06 301.225 213.06C298.565 213.06 296.605 211.5 296.605 209.32C296.605 207.1 298.565 205.56 301.225 205.56ZM295.465 214.28C298.645 214.28 303.085 214.26 306.925 213.66L307.065 215.28C305.525 215.58 303.945 215.76 302.405 215.88V222.06H300.205V216.02C298.585 216.08 297.065 216.1 295.725 216.1L295.465 214.28ZM298.725 209.32C298.725 210.52 299.785 211.26 301.225 211.26C302.685 211.26 303.745 210.52 303.745 209.32C303.745 208.1 302.685 207.36 301.225 207.36C299.785 207.36 298.725 208.1 298.725 209.32ZM308.025 222.62V204.8H310.225V222.62H308.025ZM325.546 204.8H327.746V218.32H325.546V216.74H322.106V215.22H325.546V204.8ZM312.846 212.82C316.106 212.8 320.466 212.76 324.246 212.3L324.366 213.86C322.926 214.1 321.406 214.26 319.926 214.36V217.78H317.726V214.48C316.086 214.56 314.506 214.58 313.126 214.58L312.846 212.82ZM314.166 208.6C314.166 206.72 315.986 205.46 318.586 205.46C321.206 205.46 323.006 206.72 323.006 208.6C323.006 210.52 321.206 211.76 318.586 211.76C315.986 211.76 314.166 210.52 314.166 208.6ZM315.186 222.26V217.02H317.386V220.5H328.166V222.26H315.186ZM316.266 208.6C316.266 209.58 317.226 210.14 318.586 210.14C319.986 210.14 320.906 209.58 320.906 208.6C320.906 207.62 319.986 207.06 318.586 207.06C317.226 207.06 316.266 207.62 316.266 208.6ZM342.926 204.82H345.106V222.62H342.926V204.82ZM330.506 217.68C331.886 217.68 333.466 217.68 335.126 217.64V215.98C333.146 215.66 331.866 214.44 331.866 212.74C331.866 210.74 333.626 209.42 336.226 209.42C338.806 209.42 340.606 210.74 340.606 212.74C340.606 214.44 339.306 215.66 337.326 215.98V217.56C338.886 217.48 340.446 217.36 341.926 217.16L342.066 218.74C338.166 219.46 333.966 219.48 330.766 219.48L330.506 217.68ZM330.846 208.58V206.86H335.126V204.86H337.326V206.86H341.606V208.58H330.846ZM333.946 212.74C333.946 213.78 334.886 214.4 336.226 214.4C337.586 214.4 338.506 213.78 338.506 212.74C338.506 211.7 337.586 211.08 336.226 211.08C334.886 211.08 333.946 211.7 333.946 212.74Z" fill="#6D0CA6"/>
</g>
<rect x="253" y="328" width="208" height="72" rx="8" fill="#F6F6F7"/>
<path d="M304.56 361.5H308.76V359.56H304.76C303.64 362.38 301.06 364.36 297.2 365.46L296.34 363.72C300.5 362.6 302.68 360.48 303 357.82H297.28V356.06H305.38C305.38 356.66 305.34 357.24 305.24 357.8H308.76V354.8H310.96V365.22H308.76V363.26H304.56V361.5ZM299.14 368.98C299.14 366.78 301.48 365.44 305.1 365.44C308.7 365.44 311.06 366.78 311.06 368.98C311.06 371.16 308.7 372.52 305.1 372.52C301.48 372.52 299.14 371.16 299.14 368.98ZM301.32 368.98C301.32 370.16 302.76 370.82 305.1 370.82C307.46 370.82 308.9 370.16 308.9 368.98C308.9 367.78 307.46 367.14 305.1 367.14C302.76 367.14 301.32 367.78 301.32 368.98ZM318.54 355.8C319.98 355.8 321.22 356.34 322.06 357.24H326.24V354.82H328.44V365.28H326.24V363.02H322.04C321.2 363.9 319.96 364.42 318.54 364.42C315.88 364.42 313.88 362.62 313.88 360.12C313.88 357.6 315.88 355.8 318.54 355.8ZM315.96 360.12C315.96 361.6 317.06 362.56 318.54 362.56C320.02 362.56 321.08 361.6 321.08 360.12C321.08 358.6 320.02 357.66 318.54 357.66C317.06 357.66 315.96 358.6 315.96 360.12ZM316.44 369.14C316.44 366.94 318.76 365.66 322.48 365.66C326.18 365.66 328.5 366.94 328.5 369.14C328.5 371.32 326.18 372.6 322.48 372.6C318.76 372.6 316.44 371.32 316.44 369.14ZM318.6 369.14C318.6 370.28 320 370.9 322.48 370.9C324.96 370.9 326.34 370.28 326.34 369.14C326.34 367.98 324.96 367.36 322.48 367.36C320 367.36 318.6 367.98 318.6 369.14ZM323.04 361.24H326.24V359H323.04C323.14 359.36 323.18 359.72 323.18 360.12C323.18 360.52 323.14 360.88 323.04 361.24ZM331.681 356.56H341.661V358.38H337.781V359.86C337.781 362.8 339.501 365.86 342.321 367.06L341.101 368.8C339.041 367.88 337.521 366.02 336.701 363.76C335.901 366.2 334.361 368.26 332.281 369.24L331.021 367.5C333.841 366.2 335.561 362.9 335.561 359.86V358.38H331.681V356.56ZM343.601 372.62V354.82H345.801V372.62H343.601ZM361.221 354.8H363.421V368.32H361.221V366.74H357.781V365.22H361.221V354.8ZM348.521 362.82C351.781 362.8 356.141 362.76 359.921 362.3L360.041 363.86C358.601 364.1 357.081 364.26 355.601 364.36V367.78H353.401V364.48C351.761 364.56 350.181 364.58 348.801 364.58L348.521 362.82ZM349.841 358.6C349.841 356.72 351.661 355.46 354.261 355.46C356.881 355.46 358.681 356.72 358.681 358.6C358.681 360.52 356.881 361.76 354.261 361.76C351.661 361.76 349.841 360.52 349.841 358.6ZM350.861 372.26V367.02H353.061V370.5H363.841V372.26H350.861ZM351.941 358.6C351.941 359.58 352.901 360.14 354.261 360.14C355.661 360.14 356.581 359.58 356.581 358.6C356.581 357.62 355.661 357.06 354.261 357.06C352.901 357.06 351.941 357.62 351.941 358.6ZM368.182 355.48H370.362V357.4H377.922V355.48H380.122V362.68H375.222V364.34H382.182V366.1H366.102V364.34H373.022V362.68H368.182V355.48ZM368.102 372.28V367.3H370.282V370.5H380.382V372.28H368.102ZM370.362 360.96H377.922V359.1H370.362V360.96ZM383.582 365.2H399.702V366.94H392.682V372.62H390.482V366.94H383.582V365.2ZM385.482 363.32V355.52H387.662V357.7H395.562V355.52H397.722V363.32H385.482ZM387.662 361.56H395.562V359.42H387.662V361.56ZM401.483 356.04H411.063V357.82H407.403V358C407.403 360.16 408.783 362.22 411.563 363.1L410.503 364.8C408.523 364.18 407.123 362.92 406.363 361.32C405.583 363.2 404.103 364.68 401.983 365.4L400.883 363.66C403.723 362.7 405.203 360.38 405.203 358V357.82H401.483V356.04ZM403.283 369.2C403.283 367.06 405.583 365.82 409.243 365.82C412.903 365.82 415.183 367.06 415.183 369.2C415.183 371.34 412.903 372.6 409.243 372.6C405.583 372.6 403.283 371.34 403.283 369.2ZM405.443 369.2C405.443 370.3 406.823 370.9 409.243 370.9C411.643 370.9 413.023 370.3 413.023 369.2C413.023 368.1 411.643 367.54 409.243 367.54C406.823 367.54 405.443 368.1 405.443 369.2ZM412.783 365.44V354.82H414.983V359.08H417.463V360.88H414.983V365.44H412.783Z" fill="#15151A"/>
<rect x="253" y="420" width="208" height="72" rx="8" fill="#F6F6F7"/>
<path d="M326.2 446.8H328.4V464.6H326.2V446.8ZM313.78 459.74C318.4 457.52 320.5 454.5 320.88 450.44H314.66V448.66H323.14C323.14 454 321.12 458.48 314.92 461.48L313.78 459.74ZM336.04 447.58C338.36 447.58 340.16 448.9 340.58 450.86H343.74V446.82H345.94V456.36H343.74V452.64H340.6C340.2 454.64 338.38 455.98 336.04 455.98C333.36 455.98 331.38 454.24 331.38 451.78C331.38 449.32 333.36 447.58 336.04 447.58ZM333.48 451.78C333.48 453.22 334.54 454.14 336.04 454.14C337.52 454.14 338.58 453.22 338.58 451.78C338.58 450.32 337.52 449.4 336.04 449.4C334.54 449.4 333.48 450.32 333.48 451.78ZM334.28 464.4V457.2H336.48V459.08H343.76V457.2H345.94V464.4H334.28ZM336.48 462.64H343.76V460.78H336.48V462.64ZM348.621 455.74H364.741V457.48H357.961V460.72H355.761V457.48H348.621V455.74ZM350.561 464.28V459.12H352.761V462.52H362.961V464.28H350.561ZM350.641 454.08V447.6H362.681V454.08H350.641ZM352.801 452.32H360.521V449.32H352.801V452.32ZM377.901 446.82H380.101V454.16H382.541V456H380.101V464.62H377.901V446.82ZM365.921 459.68C367.261 459.68 368.801 459.68 370.421 459.64V457.96C368.501 457.64 367.241 456.44 367.241 454.74C367.241 452.74 369.001 451.42 371.521 451.42C374.041 451.42 375.821 452.74 375.821 454.74C375.821 456.44 374.541 457.64 372.621 457.96V459.54C374.081 459.48 375.541 459.34 376.921 459.16L377.101 460.74C373.321 461.48 369.241 461.48 366.221 461.48L365.921 459.68ZM366.241 450.58V448.84H370.421V446.88H372.621V448.84H376.781V450.58H366.241ZM369.321 454.74C369.321 455.78 370.201 456.4 371.521 456.4C372.861 456.4 373.741 455.78 373.741 454.74C373.741 453.7 372.861 453.08 371.521 453.08C370.201 453.08 369.321 453.7 369.321 454.74ZM396.082 446.82H398.282V455.88H396.082V446.82ZM383.582 454.12C386.442 453.22 387.942 450.94 387.942 448.6V447.26H390.162V448.6C390.162 450.86 391.662 452.98 394.442 453.84L393.382 455.54C391.342 454.9 389.882 453.56 389.082 451.88C388.282 453.7 386.782 455.16 384.642 455.88L383.582 454.12ZM386.562 458.42V456.72H398.282V461.32H388.762V462.74H398.802V464.46H386.602V459.74H396.122V458.42H386.562Z" fill="#15151A"/>
<rect x="253" y="512" width="208" height="72" rx="8" fill="#F6F6F7"/>
<path d="M319.76 550.96C320.62 552.64 321.84 553.48 323.12 553.48C325.02 553.5 326.08 552.58 326.08 551.16C326.08 547.8 318.66 549.24 318.66 544.1C318.66 541.66 320.66 540.22 323.4 540.24C325.3 540.26 327.12 541.32 327.94 543.62L326.04 544.3C325.52 542.76 324.48 542.1 323.38 542.08C321.8 542.08 320.78 542.86 320.78 544.1C320.78 547.42 328.18 546.16 328.18 551.18C328.18 553.66 326.24 555.36 323.1 555.32C320.94 555.3 319.22 554.06 318 551.94L319.76 550.96ZM342.852 540.4L337.712 555.16H335.232L329.772 540.4H332.032L336.452 552.3L340.592 540.4H342.852ZM344.778 549.5H360.878V551.3H353.918V556.64H351.698V551.3H344.778V549.5ZM345.678 546.7C349.198 546.26 351.458 544.46 351.678 542.66H346.258V540.9H351.698V538.84H353.918V540.9H359.378V542.66H353.938C354.158 544.42 356.438 546.26 359.938 546.7L359.158 548.42C356.218 548.06 353.958 546.76 352.818 545.04C351.678 546.78 349.398 548.04 346.438 548.42L345.678 546.7ZM362.978 540.14H372.678V541.9H368.958V542.4C368.958 544.64 370.478 546.8 373.258 547.72L372.138 549.42C370.118 548.76 368.678 547.42 367.878 545.7C367.098 547.56 365.598 549.02 363.498 549.74L362.378 548.02C365.218 547.06 366.718 544.76 366.718 542.4V541.9H362.978V540.14ZM365.258 556.26V550.54H367.458V554.5H377.438V556.26H365.258ZM374.738 551.74V538.82H376.958V551.74H374.738ZM380.719 539.84H389.239V541.6H382.899V543.26H388.739V544.98H382.899V546.76C386.199 546.76 388.239 546.68 390.559 546.3L390.759 548C388.239 548.42 386.019 548.48 382.219 548.48H380.719V539.84ZM382.739 556.4V550.2H394.439V556.4H382.739ZM384.879 554.66H392.279V551.92H384.879V554.66ZM392.239 549.4V538.82H394.439V549.4H392.239Z" fill="#15151A"/>
<g filter="url(#filter3_d_17842_24152)">
<rect x="481" y="512" width="208" height="72" rx="8" fill="white" shape-rendering="crispEdges"/>
<path d="M558.46 538.8H560.66V544.78H563.06V546.58H560.66V552.72H558.46V538.8ZM546.5 549.16C547.82 549.16 549.36 549.14 550.96 549.1V547.96C549 547.7 547.78 546.74 547.78 545.28C547.78 543.56 549.46 542.54 552.02 542.54C554.6 542.54 556.3 543.56 556.3 545.28C556.3 546.72 555.08 547.68 553.14 547.94V549C554.66 548.9 556.18 548.78 557.58 548.56L557.76 550.08C554.02 550.76 549.82 550.84 546.78 550.86L546.5 549.16ZM546.96 541.96V540.36H550.96V538.72H553.14V540.36H557.1V541.96H546.96ZM549.04 556.26V551.82H551.26V554.5H561.28V556.26H549.04ZM549.86 545.28C549.86 546.08 550.68 546.52 552.02 546.52C553.38 546.52 554.22 546.08 554.22 545.28C554.22 544.48 553.38 544.04 552.02 544.04C550.68 544.04 549.86 544.48 549.86 545.28ZM572.54 545.5H576.74V543.56H572.74C571.62 546.38 569.04 548.36 565.18 549.46L564.32 547.72C568.48 546.6 570.66 544.48 570.98 541.82H565.26V540.06H573.36C573.36 540.66 573.32 541.24 573.22 541.8H576.74V538.8H578.94V549.22H576.74V547.26H572.54V545.5ZM567.12 552.98C567.12 550.78 569.46 549.44 573.08 549.44C576.68 549.44 579.04 550.78 579.04 552.98C579.04 555.16 576.68 556.52 573.08 556.52C569.46 556.52 567.12 555.16 567.12 552.98ZM569.3 552.98C569.3 554.16 570.74 554.82 573.08 554.82C575.44 554.82 576.88 554.16 576.88 552.98C576.88 551.78 575.44 551.14 573.08 551.14C570.74 551.14 569.3 551.78 569.3 552.98ZM594.27 555.32C589.99 555.32 586.99 552.2 586.99 547.78C586.99 543.34 589.99 540.24 594.27 540.24C596.29 540.24 598.09 541.1 599.41 542.44L598.01 543.82C597.13 542.78 595.73 542.1 594.25 542.1C591.19 542.1 589.13 544.38 589.13 547.78C589.13 551.18 591.19 553.46 594.25 553.46C595.83 553.46 597.09 552.74 597.93 551.78L599.41 553.12C598.09 554.46 596.39 555.34 594.27 555.32ZM605.743 553.44C607.223 553.44 608.223 552.26 608.223 550.44C608.223 548.64 607.223 547.44 605.743 547.44C604.263 547.44 603.263 548.62 603.263 550.44C603.263 552.26 604.243 553.44 605.743 553.44ZM601.143 550.44C601.143 547.62 603.043 545.62 605.743 545.62C608.443 545.62 610.342 547.62 610.342 550.44C610.342 553.24 608.443 555.26 605.743 555.26C603.043 555.26 601.143 553.24 601.143 550.44ZM622.154 540.4V542.26H614.734V546.64H621.114V548.48H614.734V553.3H622.154V555.16H612.614V540.4H622.154Z" fill="#6D0CA6"/>
</g>
<g filter="url(#filter4_d_17842_24152)">
<rect x="480.5" y="328" width="208" height="72" rx="8" fill="white" shape-rendering="crispEdges"/>
<path d="M510.76 366.96C511.62 368.64 512.84 369.48 514.12 369.48C516.02 369.5 517.08 368.58 517.08 367.16C517.08 363.8 509.66 365.24 509.66 360.1C509.66 357.66 511.66 356.22 514.4 356.24C516.3 356.26 518.12 357.32 518.94 359.62L517.04 360.3C516.52 358.76 515.48 358.1 514.38 358.08C512.8 358.08 511.78 358.86 511.78 360.1C511.78 363.42 519.18 362.16 519.18 367.18C519.18 369.66 517.24 371.36 514.1 371.32C511.94 371.3 510.22 370.06 509 367.94L510.76 366.96ZM533.852 356.4L528.712 371.16H526.232L520.772 356.4H523.032L527.452 368.3L531.592 356.4H533.852ZM548.278 354.82H550.498V366.68H548.278V354.82ZM536.698 364.34V356.26H545.178V364.34H536.698ZM537.698 370.84C541.258 370.3 543.438 368.34 543.438 366.14V365.72H545.718V366.14C545.718 368.32 547.838 370.3 551.398 370.84L550.558 372.54C547.758 372.06 545.618 370.74 544.558 368.9C543.498 370.74 541.338 372.08 538.538 372.54L537.698 370.84ZM538.838 362.58H543.058V358.02H538.838V362.58ZM558.138 355.58C560.458 355.58 562.258 356.9 562.678 358.86H565.838V354.82H568.038V364.36H565.838V360.64H562.698C562.298 362.64 560.478 363.98 558.138 363.98C555.458 363.98 553.478 362.24 553.478 359.78C553.478 357.32 555.458 355.58 558.138 355.58ZM555.578 359.78C555.578 361.22 556.638 362.14 558.138 362.14C559.618 362.14 560.678 361.22 560.678 359.78C560.678 358.32 559.618 357.4 558.138 357.4C556.638 357.4 555.578 358.32 555.578 359.78ZM556.378 372.4V365.2H558.578V367.08H565.858V365.2H568.038V372.4H556.378ZM558.578 370.64H565.858V368.78H558.578V370.64ZM572.139 363.78C572.139 361.18 573.159 357.76 574.599 355.48H576.839C575.199 357.74 574.059 361.16 574.059 363.78C574.059 366.4 575.199 369.82 576.839 372.08H574.599C573.159 369.8 572.139 366.38 572.139 363.78ZM591.725 365.76C591.725 364.4 590.985 363.5 589.905 363.5C588.685 363.5 587.865 364.44 587.865 365.66V371.18H585.725V365.76C585.725 364.4 585.005 363.5 583.945 363.5C582.725 363.5 581.865 364.54 581.865 365.88V371.18H579.745V361.64H581.865V362.94C582.425 362.18 583.245 361.66 584.145 361.66C585.285 361.66 586.405 362.38 586.965 363.38C587.625 362.38 588.905 361.66 590.045 361.66C592.305 361.66 593.865 363.34 593.865 365.68V371.18H591.725V365.76ZM600.797 371.22C598.097 371.22 596.197 369.24 596.197 366.44C596.197 363.62 598.097 361.64 600.797 361.64C603.757 361.64 604.697 364.06 604.757 364.22C605.337 365.58 605.157 367.1 605.157 367.26H598.277C598.517 368.54 599.597 369.42 600.797 369.42C602.377 369.42 603.017 368.5 603.177 368.22L604.877 368.98C604.417 370.06 603.077 371.22 600.797 371.22ZM598.277 365.58H603.157C602.957 364.4 602.277 363.44 600.797 363.44C599.517 363.44 598.517 364.34 598.277 365.58ZM611.715 371.22C609.015 371.22 607.115 369.24 607.115 366.44C607.115 363.62 609.015 361.64 611.715 361.64C614.675 361.64 615.615 364.06 615.675 364.22C616.255 365.58 616.075 367.1 616.075 367.26H609.195C609.435 368.54 610.515 369.42 611.715 369.42C613.295 369.42 613.935 368.5 614.095 368.22L615.795 368.98C615.335 370.06 613.995 371.22 611.715 371.22ZM609.195 365.58H614.075C613.875 364.4 613.195 363.44 611.715 363.44C610.435 363.44 609.435 364.34 609.195 365.58ZM619.125 371.18V363.46H617.325V361.62H619.125V358.28H621.245V361.62H623.505V363.46H621.245V371.18H619.125ZM632.877 367.08C632.877 368.54 633.737 369.44 634.997 369.44C636.337 369.44 637.257 368.56 637.237 367.1V361.64H639.377V371.18H637.237V370.08C636.637 370.82 635.657 371.26 634.717 371.26C632.417 371.26 630.757 369.6 630.757 367.16V361.64H632.877V367.08ZM646.985 369.44C648.525 369.44 649.525 368.24 649.525 366.42C649.525 364.6 648.525 363.4 646.985 363.4C645.545 363.4 644.365 364.74 644.365 366.42C644.365 368.1 645.545 369.44 646.985 369.44ZM642.225 375.4V361.62H644.345V363.02C645.105 362.02 646.365 361.62 647.105 361.62C649.765 361.62 651.645 363.6 651.645 366.42C651.645 369.26 649.765 371.24 647.105 371.24C646.345 371.24 645.105 370.82 644.345 369.82V375.4H642.225ZM658.695 363.78C658.695 366.38 657.695 369.78 656.255 372.08H654.015C655.635 369.84 656.775 366.4 656.775 363.78C656.775 361.16 655.635 357.72 654.015 355.48H656.255C657.695 357.78 658.695 361.18 658.695 363.78Z" fill="#6D0CA6"/>
</g>
</g>
<defs>
<filter id="filter0_d_17842_24152" x="715.158" y="323.993" width="218.685" height="82.6849" filterUnits="userSpaceOnUse" color-interpolation-filters="sRGB">
<feFlood flood-opacity="0" result="BackgroundImageFix"/>
<feColorMatrix in="SourceAlpha" type="matrix" values="0 0 0 0 0 0 0 0 0 0 0 0 0 0 0 0 0 0 127 0" result="hardAlpha"/>
<feOffset dy="1.33562"/>
<feGaussianBlur stdDeviation="2.67123"/>
<feComposite in2="hardAlpha" operator="out"/>
<feColorMatrix type="matrix" values="0 0 0 0 0 0 0 0 0 0 0 0 0 0 0 0 0 0 0.1 0"/>
<feBlend mode="normal" in2="BackgroundImageFix" result="effect1_dropShadow_17842_24152"/>
<feBlend mode="normal" in="SourceGraphic" in2="effect1_dropShadow_17842_24152" result="shape"/>
</filter>
<filter id="filter1_d_17842_24152" x="409" y="-8" width="280" height="144" filterUnits="userSpaceOnUse" color-interpolation-filters="sRGB">
<feFlood flood-opacity="0" result="BackgroundImageFix"/>
<feColorMatrix in="SourceAlpha" type="matrix" values="0 0 0 0 0 0 0 0 0 0 0 0 0 0 0 0 0 0 127 0" result="hardAlpha"/>
<feOffset/>
<feGaussianBlur stdDeviation="18"/>
<feComposite in2="hardAlpha" operator="out"/>
<feColorMatrix type="matrix" values="0 0 0 0 0.592485 0 0 0 0 0.207569 0 0 0 0 0.816667 0 0 0 0.5 0"/>
<feBlend mode="normal" in2="BackgroundImageFix" result="effect1_dropShadow_17842_24152"/>
<feBlend mode="normal" in="SourceGraphic" in2="effect1_dropShadow_17842_24152" result="shape"/>
</filter>
<filter id="filter2_d_17842_24152" x="164.658" y="173.993" width="218.685" height="82.6849" filterUnits="userSpaceOnUse" color-interpolation-filters="sRGB">
<feFlood flood-opacity="0" result="BackgroundImageFix"/>
<feColorMatrix in="SourceAlpha" type="matrix" values="0 0 0 0 0 0 0 0 0 0 0 0 0 0 0 0 0 0 127 0" result="hardAlpha"/>
<feOffset dy="1.33562"/>
<feGaussianBlur stdDeviation="2.67123"/>
<feComposite in2="hardAlpha" operator="out"/>
<feColorMatrix type="matrix" values="0 0 0 0 0 0 0 0 0 0 0 0 0 0 0 0 0 0 0.1 0"/>
<feBlend mode="normal" in2="BackgroundImageFix" result="effect1_dropShadow_17842_24152"/>
<feBlend mode="normal" in="SourceGraphic" in2="effect1_dropShadow_17842_24152" result="shape"/>
</filter>
<filter id="filter3_d_17842_24152" x="475.658" y="507.993" width="218.685" height="82.6849" filterUnits="userSpaceOnUse" color-interpolation-filters="sRGB">
<feFlood flood-opacity="0" result="BackgroundImageFix"/>
<feColorMatrix in="SourceAlpha" type="matrix" values="0 0 0 0 0 0 0 0 0 0 0 0 0 0 0 0 0 0 127 0" result="hardAlpha"/>
<feOffset dy="1.33562"/>
<feGaussianBlur stdDeviation="2.67123"/>
<feComposite in2="hardAlpha" operator="out"/>
<feColorMatrix type="matrix" values="0 0 0 0 0 0 0 0 0 0 0 0 0 0 0 0 0 0 0.1 0"/>
<feBlend mode="normal" in2="BackgroundImageFix" result="effect1_dropShadow_17842_24152"/>
<feBlend mode="normal" in="SourceGraphic" in2="effect1_dropShadow_17842_24152" result="shape"/>
</filter>
<filter id="filter4_d_17842_24152" x="475.158" y="323.993" width="218.685" height="82.6849" filterUnits="userSpaceOnUse" color-interpolation-filters="sRGB">
<feFlood flood-opacity="0" result="BackgroundImageFix"/>
<feColorMatrix in="SourceAlpha" type="matrix" values="0 0 0 0 0 0 0 0 0 0 0 0 0 0 0 0 0 0 127 0" result="hardAlpha"/>
<feOffset dy="1.33562"/>
<feGaussianBlur stdDeviation="2.67123"/>
<feComposite in2="hardAlpha" operator="out"/>
<feColorMatrix type="matrix" values="0 0 0 0 0 0 0 0 0 0 0 0 0 0 0 0 0 0 0.1 0"/>
<feBlend mode="normal" in2="BackgroundImageFix" result="effect1_dropShadow_17842_24152"/>
<feBlend mode="normal" in="SourceGraphic" in2="effect1_dropShadow_17842_24152" result="shape"/>
</filter>
<clipPath id="clip0_17842_24152">
<rect width="1098" height="600" rx="16" fill="white"/>
</clipPath>
</defs>
</svg>
