<svg width="101" height="100" viewBox="0 0 101 100" fill="none" xmlns="http://www.w3.org/2000/svg">
<g style="mix-blend-mode:darken">
<g clip-path="url(#clip0_4022_3259)">
<circle cx="50.4947" cy="49.9947" r="38.7838" fill="#CC7DFA"/>
<path d="M37.2202 40.0946C36.494 32.0113 30.2602 24.4791 27.2341 21.7234L25.5625 20.2937C32.3054 14.6253 41.0062 11.2109 50.5044 11.2109C59.0888 11.2109 67.0217 13.9999 73.4466 18.7211C74.3544 21.4768 72.6254 27.2348 70.8097 29.9904C70.1521 30.9886 68.6607 32.2278 67.0258 33.4025C63.3395 36.051 58.6873 37.3611 56.322 42.238C55.6458 43.632 55.6747 44.9948 55.9999 46.1794C56.2338 47.031 56.3832 47.9567 56.3856 48.8621C56.3931 51.79 53.4321 53.905 50.5044 53.8731C42.8861 53.7899 37.8991 47.6504 37.2202 40.0946Z" fill="#6D0CA6"/>
<path d="M56.0678 74.3473C59.9 67.1255 72.6741 67.1255 72.6741 67.1255C85.9846 66.9867 87.7826 58.9051 88.9847 54.8203C86.8333 72.2007 73.1828 86.0168 55.8818 88.4201C54.6306 85.7868 53.1484 79.8488 56.0678 74.3473Z" fill="#6D0CA6"/>
</g>
</g>
<defs>
<clipPath id="clip0_4022_3259">
<rect x="0.5" width="100" height="100" rx="8" fill="white"/>
</clipPath>
</defs>
</svg>
