<svg width="101" height="100" viewBox="0 0 101 100" fill="none" xmlns="http://www.w3.org/2000/svg">
<path d="M31.4145 89.3584L31.7727 89.7166C33.0719 91.0158 33.7215 91.6654 34.5288 91.6654C35.336 91.6654 35.9856 91.0158 37.2848 89.7166L38.8171 88.1843C39.5317 87.4698 39.8889 87.1125 40.0244 86.6099C40.16 86.1074 40.0441 85.6695 39.8125 84.7937C38.2872 79.0278 34.3035 72.657 28.7871 71.2626C28.4164 71.1689 28.0405 71.1272 27.6616 71.1492C26.0287 71.244 24.781 72.6038 24.8937 74.2638C24.9175 74.6143 24.9931 74.9377 25.151 75.1817C25.005 74.9975 24.8687 74.8173 24.7418 74.6422C23.6862 73.1859 23.303 71.4605 23.067 69.7662L22.4579 65.3946C22.2431 63.8535 20.9402 62.5503 19.399 62.3352C18.0116 62.1416 16.787 62.8827 16.4857 64.1836C16.1343 65.7006 15.7603 67.7169 15.8185 69.2357C15.8768 70.7566 16.3995 72.585 16.8959 74.0079C17.4459 75.5841 18.3246 77.0542 19.3258 78.4421C21.3564 81.257 23.9412 83.7221 26.8334 85.6261C28.4684 86.7025 30.0215 87.9654 31.4145 89.3584Z" fill="#CC7DFA"/>
<path d="M69.5818 89.3584L69.2236 89.7166C67.9244 91.0158 67.2748 91.6654 66.4675 91.6654C65.6603 91.6654 65.0107 91.0158 63.7115 89.7166L62.1792 88.1843C61.4646 87.4698 61.1074 87.1125 60.9719 86.6099C60.8363 86.1074 60.9522 85.6695 61.1839 84.7937C62.7091 79.0278 66.6928 72.657 72.2092 71.2626C72.5799 71.1689 72.9558 71.1272 73.3347 71.1492C74.9676 71.244 76.2153 72.6038 76.1026 74.2638C76.0788 74.6143 76.0032 74.9377 75.8453 75.1817C75.9913 74.9975 76.1276 74.8173 76.2545 74.6422C77.3101 73.1859 77.6933 71.4605 77.9293 69.7662L78.5384 65.3946C78.7532 63.8535 80.0561 62.5503 81.5973 62.3352C82.9847 62.1416 84.2092 62.8827 84.5106 64.1836C84.862 65.7006 85.236 67.7169 85.1778 69.2357C85.1195 70.7566 84.5968 72.585 84.1004 74.0079C83.5504 75.5841 82.6717 77.0542 81.6705 78.4421C79.6399 81.257 77.0551 83.7221 74.1629 85.6261C72.5279 86.7025 70.9748 87.9654 69.5818 89.3584Z" fill="#CC7DFA"/>
<mask id="mask0_3769_8370" style="mask-type:alpha" maskUnits="userSpaceOnUse" x="26" y="15" width="49" height="54">
<path d="M47.604 15.8155C49.3975 14.7907 51.5991 14.7907 53.3926 15.8155L71.9244 26.4051C73.7421 27.4438 74.8638 29.3767 74.8638 31.4701V52.5456C74.8638 54.6391 73.7421 56.572 71.9244 57.6107L53.3926 68.2003C51.5991 69.2251 49.3975 69.2251 47.604 68.2003L29.0722 57.6107C27.2545 56.572 26.1328 54.6391 26.1328 52.5456V31.4701C26.1328 29.3767 27.2545 27.4438 29.0722 26.4051L47.604 15.8155Z" fill="#CC7DFA"/>
</mask>
<g mask="url(#mask0_3769_8370)">
<path d="M50.4983 14.1641L74.8638 28.0872V55.9335L50.4983 69.8566L26.1328 55.9335V28.0872L50.4983 14.1641Z" fill="#CC7DFA"/>
<path d="M50.4983 69.8632L26.1328 55.94V28.0938L50.4929 41.3221L50.4983 69.8632Z" fill="#CC7DFA"/>
<path d="M34.1484 40.2286V33.7781C34.1484 32.9227 34.6165 32.1358 35.3682 31.7276L59.0624 18.8594L65.7046 22.6999L42.1847 35.4582C41.4324 35.8662 40.9639 36.6534 40.9639 37.5093V43.1239C40.9639 43.7407 40.2241 44.056 39.7791 43.6289L36.6113 40.588C36.552 40.5311 36.4671 40.5096 36.3879 40.5314L35.0341 40.9036C34.5884 41.0261 34.1484 40.6908 34.1484 40.2286Z" fill="#6D0CA6"/>
<path d="M52.2456 68.8617L74.8651 55.9362V30.0512C74.8651 29.1665 73.919 28.6037 73.1416 29.0259L51.7247 40.656C50.9731 41.0642 50.505 41.8508 50.5048 42.7062L50.5 67.8484C50.4998 68.7444 51.4677 69.3062 52.2456 68.8617Z" fill="#6D0CA6"/>
</g>
</svg>
