<svg width="540" height="230" viewBox="0 0 540 230" fill="none" xmlns="http://www.w3.org/2000/svg">
<path d="M81.0122 88.62H78.2282L85.0682 73.26L77.0522 73.284V71.028H87.6122L87.8522 73.26L81.0122 88.62ZM96.7905 86.484C99.1905 86.484 100.799 83.796 100.799 79.836C100.799 75.852 99.1905 73.164 96.7905 73.164C94.3905 73.164 92.7585 75.852 92.7585 79.836C92.7585 83.796 94.3905 86.484 96.7905 86.484ZM90.2145 79.836C90.2145 74.604 92.9265 70.932 96.7905 70.932C100.631 70.932 103.343 74.604 103.343 79.836C103.343 85.044 100.631 88.74 96.7905 88.74C92.9265 88.74 90.2145 85.044 90.2145 79.836Z" fill="#15151A"/>
<path d="M52 118.5C52 116.291 53.7909 114.5 56 114.5H124C126.209 114.5 128 116.291 128 118.5V184.5H52V118.5Z" fill="url(#paint0_linear_3821_3478)"/>
<path d="M69.1969 219.88C71.8249 217.36 75.4069 214.804 75.4069 212.59C75.4069 211.114 74.4709 210.07 73.1389 210.07C72.1129 210.07 71.0869 210.808 70.6189 211.87L68.9449 211.132C69.6649 209.476 71.4109 208.324 73.1389 208.324C75.6049 208.324 77.3149 210.088 77.3149 212.59C77.3149 215.344 74.3269 217.792 71.8969 219.88H77.5309V221.554H69.3769L69.1969 219.88ZM84.212 219.988C86.012 219.988 87.218 217.972 87.218 215.002C87.218 212.014 86.012 209.998 84.212 209.998C82.412 209.998 81.188 212.014 81.188 215.002C81.188 217.972 82.412 219.988 84.212 219.988ZM79.28 215.002C79.28 211.078 81.314 208.324 84.212 208.324C87.092 208.324 89.126 211.078 89.126 215.002C89.126 218.908 87.092 221.68 84.212 221.68C81.314 221.68 79.28 218.908 79.28 215.002ZM91.152 219.88C93.78 217.36 97.362 214.804 97.362 212.59C97.362 211.114 96.426 210.07 95.094 210.07C94.068 210.07 93.042 210.808 92.574 211.87L90.9 211.132C91.62 209.476 93.366 208.324 95.094 208.324C97.56 208.324 99.27 210.088 99.27 212.59C99.27 215.344 96.282 217.792 93.852 219.88H99.486V221.554H91.332L91.152 219.88ZM106.167 219.988C107.967 219.988 109.173 217.972 109.173 215.002C109.173 212.014 107.967 209.998 106.167 209.998C104.367 209.998 103.143 212.014 103.143 215.002C103.143 217.972 104.367 219.988 106.167 219.988ZM101.235 215.002C101.235 211.078 103.269 208.324 106.167 208.324C109.047 208.324 111.081 211.078 111.081 215.002C111.081 218.908 109.047 221.68 106.167 221.68C103.269 221.68 101.235 218.908 101.235 215.002Z" fill="#3F3F46"/>
<path d="M262.904 45.14C260.84 45.14 259.376 46.628 259.376 48.74C259.376 50.852 260.84 52.34 262.904 52.34C264.944 52.34 266.384 50.852 266.384 48.74C266.384 46.628 264.944 45.14 262.904 45.14ZM256.832 48.74C256.832 45.308 259.328 42.908 262.88 42.908C266.432 42.908 268.928 45.308 268.928 48.74C268.928 49.988 268.472 51.14 267.968 52.052L263.168 60.596H260.24L263.72 54.476C263.432 54.524 263.144 54.572 262.832 54.572C259.304 54.548 256.832 52.148 256.832 48.74ZM277.222 58.676C279.214 58.676 280.606 57.404 280.606 55.58C280.606 53.756 279.214 52.46 277.222 52.46C275.23 52.46 273.814 53.756 273.814 55.58C273.814 57.404 275.23 58.676 277.222 58.676ZM271.27 55.628C271.27 54.092 272.47 52.316 274.15 51.38C272.758 50.42 271.75 48.86 271.75 47.612C271.75 44.78 274.006 42.812 277.222 42.812C280.438 42.812 282.694 44.78 282.694 47.612C282.694 48.884 281.71 50.444 280.294 51.38C281.974 52.34 283.174 54.092 283.174 55.628C283.174 58.7 280.726 60.86 277.222 60.86C273.742 60.86 271.27 58.7 271.27 55.628ZM274.318 47.612C274.318 49.172 275.518 50.276 277.222 50.276C278.95 50.276 280.15 49.172 280.15 47.612C280.15 46.052 278.95 44.972 277.222 44.972C275.518 44.972 274.318 46.052 274.318 47.612Z" fill="#15151A"/>
<path d="M232 90.5C232 88.2909 233.791 86.5 236 86.5H304C306.209 86.5 308 88.2909 308 90.5V184.5H232V90.5Z" fill="url(#paint1_linear_3821_3478)"/>
<path d="M251.227 219.88C253.855 217.36 257.437 214.804 257.437 212.59C257.437 211.114 256.501 210.07 255.169 210.07C254.143 210.07 253.117 210.808 252.649 211.87L250.975 211.132C251.695 209.476 253.441 208.324 255.169 208.324C257.635 208.324 259.345 210.088 259.345 212.59C259.345 215.344 256.357 217.792 253.927 219.88H259.561V221.554H251.407L251.227 219.88ZM266.242 219.988C268.042 219.988 269.248 217.972 269.248 215.002C269.248 212.014 268.042 209.998 266.242 209.998C264.442 209.998 263.218 212.014 263.218 215.002C263.218 217.972 264.442 219.988 266.242 219.988ZM261.31 215.002C261.31 211.078 263.344 208.324 266.242 208.324C269.122 208.324 271.156 211.078 271.156 215.002C271.156 218.908 269.122 221.68 266.242 221.68C263.344 221.68 261.31 218.908 261.31 215.002ZM273.182 219.88C275.81 217.36 279.392 214.804 279.392 212.59C279.392 211.114 278.456 210.07 277.124 210.07C276.098 210.07 275.072 210.808 274.604 211.87L272.93 211.132C273.65 209.476 275.396 208.324 277.124 208.324C279.59 208.324 281.3 210.088 281.3 212.59C281.3 215.344 278.312 217.792 275.882 219.88H281.516V221.554H273.362L273.182 219.88ZM288.161 208.468V221.554L286.253 221.536V210.502L283.949 211.78L283.157 210.178L286.271 208.468H288.161Z" fill="#3F3F46"/>
<path d="M437.852 11.124V28.572L435.308 28.548V13.836L432.236 15.54L431.18 13.404L435.332 11.124H437.852ZM450.667 19.548C452.227 20.46 453.211 22.164 453.211 23.628C453.211 26.604 450.763 28.716 447.283 28.716C443.827 28.716 441.379 26.556 441.379 23.484H443.923C443.923 25.236 445.315 26.46 447.283 26.46C449.299 26.46 450.739 25.236 450.739 23.484C450.739 21.804 449.323 20.604 447.331 20.604H446.083V18.468H447.355C449.179 18.468 450.475 17.388 450.475 15.852C450.475 14.292 449.227 13.212 447.451 13.212C445.675 13.212 444.451 14.316 444.451 15.876H441.907C441.907 12.972 444.187 10.956 447.451 10.956C450.667 10.956 452.947 12.924 452.947 15.708C452.947 17.052 452.083 18.636 450.667 19.548ZM462.111 26.484C464.511 26.484 466.119 23.796 466.119 19.836C466.119 15.852 464.511 13.164 462.111 13.164C459.711 13.164 458.079 15.852 458.079 19.836C458.079 23.796 459.711 26.484 462.111 26.484ZM455.535 19.836C455.535 14.604 458.247 10.932 462.111 10.932C465.951 10.932 468.663 14.604 468.663 19.836C468.663 25.044 465.951 28.74 462.111 28.74C458.247 28.74 455.535 25.044 455.535 19.836Z" fill="#15151A"/>
<path d="M412 58.5C412 56.2909 413.791 54.5 416 54.5H484C486.209 54.5 488 56.2909 488 58.5V184.5H412V58.5Z" fill="url(#paint2_linear_3821_3478)"/>
<path d="M429.803 219.88C432.431 217.36 436.013 214.804 436.013 212.59C436.013 211.114 435.077 210.07 433.745 210.07C432.719 210.07 431.693 210.808 431.225 211.87L429.551 211.132C430.271 209.476 432.017 208.324 433.745 208.324C436.211 208.324 437.921 210.088 437.921 212.59C437.921 215.344 434.933 217.792 432.503 219.88H438.137V221.554H429.983L429.803 219.88ZM444.818 219.988C446.618 219.988 447.824 217.972 447.824 215.002C447.824 212.014 446.618 209.998 444.818 209.998C443.018 209.998 441.794 212.014 441.794 215.002C441.794 217.972 443.018 219.988 444.818 219.988ZM439.886 215.002C439.886 211.078 441.92 208.324 444.818 208.324C447.698 208.324 449.732 211.078 449.732 215.002C449.732 218.908 447.698 221.68 444.818 221.68C441.92 221.68 439.886 218.908 439.886 215.002ZM451.758 219.88C454.386 217.36 457.968 214.804 457.968 212.59C457.968 211.114 457.032 210.07 455.7 210.07C454.674 210.07 453.648 210.808 453.18 211.87L451.506 211.132C452.226 209.476 453.972 208.324 455.7 208.324C458.166 208.324 459.876 210.088 459.876 212.59C459.876 215.344 456.888 217.792 454.458 219.88H460.092V221.554H451.938L451.758 219.88ZM462.13 219.88C464.758 217.36 468.34 214.804 468.34 212.59C468.34 211.114 467.404 210.07 466.072 210.07C465.046 210.07 464.02 210.808 463.552 211.87L461.878 211.132C462.598 209.476 464.344 208.324 466.072 208.324C468.538 208.324 470.248 210.088 470.248 212.59C470.248 215.344 467.26 217.792 464.83 219.88H470.464V221.554H462.31L462.13 219.88Z" fill="#3F3F46"/>
<defs>
<linearGradient id="paint0_linear_3821_3478" x1="90" y1="114.5" x2="90" y2="184.5" gradientUnits="userSpaceOnUse">
<stop stop-color="#F47725"/>
<stop offset="1" stop-color="#F47725" stop-opacity="0.4"/>
</linearGradient>
<linearGradient id="paint1_linear_3821_3478" x1="270" y1="86.5" x2="270" y2="184.5" gradientUnits="userSpaceOnUse">
<stop stop-color="#F47725"/>
<stop offset="1" stop-color="#F47725" stop-opacity="0.4"/>
</linearGradient>
<linearGradient id="paint2_linear_3821_3478" x1="450" y1="54.5" x2="450" y2="184.5" gradientUnits="userSpaceOnUse">
<stop stop-color="#F47725"/>
<stop offset="1" stop-color="#F47725" stop-opacity="0.4"/>
</linearGradient>
</defs>
</svg>
