<svg width="1200" height="332" viewBox="0 0 1200 332" fill="none" xmlns="http://www.w3.org/2000/svg">
<path d="M0 316C0 324.837 7.16344 332 16 332H1184C1192.84 332 1200 324.837 1200 316V16C1200 7.16345 1192.84 0 1184 0H16C7.16343 0 0 7.16344 0 16V316Z" fill="white"/>
<mask id="path-2-inside-1_4355_2482" fill="white">
<path d="M203 16C203 7.16344 210.163 0 219 0H981C989.837 0 997 7.16344 997 16V280H203V16Z"/>
</mask>
<path d="M203 16C203 7.16344 210.163 0 219 0H981C989.837 0 997 7.16344 997 16V280H203V16Z" fill="url(#paint0_linear_4355_2482)"/>
<path d="M203 0H997H203ZM997 281H203V279H997V281ZM203 280V0V280ZM997 0V280V0Z" fill="#71717A" mask="url(#path-2-inside-1_4355_2482)"/>
<rect x="289" y="258" width="46" height="22" rx="4" fill="url(#paint1_linear_4355_2482)"/>
<rect x="289" y="274" width="46" height="6" fill="#27272A"/>
<path d="M232.504 310.38C235.132 307.86 238.714 305.304 238.714 303.09C238.714 301.614 237.778 300.57 236.446 300.57C235.42 300.57 234.394 301.308 233.926 302.37L232.252 301.632C232.972 299.976 234.718 298.824 236.446 298.824C238.912 298.824 240.622 300.588 240.622 303.09C240.622 305.844 237.634 308.292 235.204 310.38H240.838V312.054H232.684L232.504 310.38ZM247.519 310.488C249.319 310.488 250.525 308.472 250.525 305.502C250.525 302.514 249.319 300.498 247.519 300.498C245.719 300.498 244.495 302.514 244.495 305.502C244.495 308.472 245.719 310.488 247.519 310.488ZM242.587 305.502C242.587 301.578 244.621 298.824 247.519 298.824C250.399 298.824 252.433 301.578 252.433 305.502C252.433 309.408 250.399 312.18 247.519 312.18C244.621 312.18 242.587 309.408 242.587 305.502ZM254.459 310.38C257.087 307.86 260.669 305.304 260.669 303.09C260.669 301.614 259.733 300.57 258.401 300.57C257.375 300.57 256.349 301.308 255.881 302.37L254.207 301.632C254.927 299.976 256.673 298.824 258.401 298.824C260.867 298.824 262.577 300.588 262.577 303.09C262.577 305.844 259.589 308.292 257.159 310.38H262.793V312.054H254.639L254.459 310.38ZM264.83 310.38C267.458 307.86 271.04 305.304 271.04 303.09C271.04 301.614 270.104 300.57 268.772 300.57C267.746 300.57 266.72 301.308 266.252 302.37L264.578 301.632C265.298 299.976 267.044 298.824 268.772 298.824C271.238 298.824 272.948 300.588 272.948 303.09C272.948 305.844 269.96 308.292 267.53 310.38H273.164V312.054H265.01L264.83 310.38ZM275.921 305.502C275.921 303.162 276.839 300.084 278.135 298.032H280.151C278.675 300.066 277.649 303.144 277.649 305.502C277.649 307.86 278.675 310.938 280.151 312.972H278.135C276.839 310.92 275.921 307.842 275.921 305.502ZM287.032 310.596C288.418 310.596 289.318 309.516 289.318 307.878C289.318 306.24 288.418 305.16 287.032 305.16C285.736 305.16 284.674 306.366 284.674 307.878C284.674 309.39 285.736 310.596 287.032 310.596ZM282.748 315.96V303.558H284.656V304.818C285.34 303.918 286.474 303.558 287.14 303.558C289.534 303.558 291.226 305.34 291.226 307.878C291.226 310.434 289.534 312.216 287.14 312.216C286.456 312.216 285.34 311.838 284.656 310.938V315.96H282.748ZM297.02 312.198C294.59 312.198 292.88 310.416 292.88 307.896C292.88 305.358 294.59 303.576 297.02 303.576C299.684 303.576 300.53 305.754 300.584 305.898C301.106 307.122 300.944 308.49 300.944 308.634H294.752C294.968 309.786 295.94 310.578 297.02 310.578C298.442 310.578 299.018 309.75 299.162 309.498L300.692 310.182C300.278 311.154 299.072 312.198 297.02 312.198ZM294.752 307.122H299.144C298.964 306.06 298.352 305.196 297.02 305.196C295.868 305.196 294.968 306.006 294.752 307.122ZM302.888 312.162V303.576H304.796V304.836C305.372 304.026 306.416 303.486 307.424 303.54V305.304C305.894 305.232 304.796 306.582 304.796 307.896V312.162H302.888ZM312.326 312.162H310.418V305.232H308.906V303.54H310.418V301.74C310.418 300.156 311.516 298.95 313.1 298.842C313.838 298.788 314.756 299.076 315.188 299.508L314.216 300.912C313.82 300.57 313.568 300.498 313.262 300.534C312.704 300.588 312.326 301.056 312.326 301.74V303.54H314.738V305.232H312.326V312.162ZM319.977 310.596C321.309 310.596 322.209 309.534 322.209 307.896C322.209 306.276 321.309 305.196 319.977 305.196C318.645 305.196 317.745 306.258 317.745 307.896C317.745 309.534 318.627 310.596 319.977 310.596ZM315.837 307.896C315.837 305.358 317.547 303.558 319.977 303.558C322.407 303.558 324.117 305.358 324.117 307.896C324.117 310.416 322.407 312.234 319.977 312.234C317.547 312.234 315.837 310.416 315.837 307.896ZM325.968 312.162V303.576H327.876V304.836C328.452 304.026 329.496 303.486 330.504 303.54V305.304C328.974 305.232 327.876 306.582 327.876 307.896V312.162H325.968ZM343.452 307.284C343.452 306.06 342.786 305.25 341.814 305.25C340.716 305.25 339.978 306.096 339.978 307.194V312.162H338.052V307.284C338.052 306.06 337.404 305.25 336.45 305.25C335.352 305.25 334.578 306.186 334.578 307.392V312.162H332.67V303.576H334.578V304.746C335.082 304.062 335.82 303.594 336.63 303.594C337.656 303.594 338.664 304.242 339.168 305.142C339.762 304.242 340.914 303.594 341.94 303.594C343.974 303.594 345.378 305.106 345.378 307.212V312.162H343.452V307.284ZM351.546 312.234C349.17 312.234 347.478 310.434 347.478 307.914C347.478 305.394 349.17 303.594 351.546 303.594C352.392 303.594 353.328 303.99 354.012 304.8V303.576H355.92V312.162H354.012V311.01C353.328 311.874 352.392 312.234 351.546 312.234ZM349.386 307.914C349.386 309.534 350.304 310.614 351.672 310.614C352.932 310.614 354.012 309.48 354.03 307.914C354.012 306.348 352.932 305.214 351.672 305.214C350.304 305.214 349.386 306.276 349.386 307.914ZM364.111 307.428C364.111 306.06 363.409 305.232 362.221 305.232C361.051 305.25 360.151 306.168 360.169 307.428V312.162H358.261V303.576H360.169V304.746C360.709 304.08 361.627 303.594 362.455 303.594C364.075 303.594 366.019 304.656 366.019 307.356V312.162H364.111V307.428ZM371.862 310.398C372.528 310.398 373.302 310.056 373.788 309.516L375.102 310.83C374.364 311.64 373.014 312.216 371.934 312.216C369.378 312.216 367.578 310.416 367.578 307.896C367.578 305.358 369.378 303.558 371.934 303.558C373.068 303.558 374.328 304.134 375.102 304.962L373.788 306.258C373.302 305.718 372.528 305.376 371.862 305.376C370.44 305.376 369.486 306.366 369.486 307.896C369.486 309.408 370.44 310.398 371.862 310.398ZM380.376 312.198C377.946 312.198 376.236 310.416 376.236 307.896C376.236 305.358 377.946 303.576 380.376 303.576C383.04 303.576 383.886 305.754 383.94 305.898C384.462 307.122 384.3 308.49 384.3 308.634H378.108C378.324 309.786 379.296 310.578 380.376 310.578C381.798 310.578 382.374 309.75 382.518 309.498L384.048 310.182C383.634 311.154 382.428 312.198 380.376 312.198ZM378.108 307.122H382.5C382.32 306.06 381.708 305.196 380.376 305.196C379.224 305.196 378.324 306.006 378.108 307.122ZM390.753 305.502C390.753 307.842 389.853 310.902 388.557 312.972H386.541C387.999 310.956 389.025 307.86 389.025 305.502C389.025 303.144 387.999 300.048 386.541 298.032H388.557C389.853 300.102 390.753 303.162 390.753 305.502Z" fill="#3F3F46"/>
<rect x="433" y="234" width="46" height="46" rx="4" fill="url(#paint2_linear_4355_2482)"/>
<rect x="433" y="272" width="46" height="8" fill="#27272A"/>
<path d="M435.575 310.38C438.203 307.86 441.785 305.304 441.785 303.09C441.785 301.614 440.849 300.57 439.517 300.57C438.491 300.57 437.465 301.308 436.997 302.37L435.323 301.632C436.043 299.976 437.789 298.824 439.517 298.824C441.983 298.824 443.693 300.588 443.693 303.09C443.693 305.844 440.705 308.292 438.275 310.38H443.909V312.054H435.755L435.575 310.38ZM450.59 310.488C452.39 310.488 453.596 308.472 453.596 305.502C453.596 302.514 452.39 300.498 450.59 300.498C448.79 300.498 447.566 302.514 447.566 305.502C447.566 308.472 448.79 310.488 450.59 310.488ZM445.658 305.502C445.658 301.578 447.692 298.824 450.59 298.824C453.47 298.824 455.504 301.578 455.504 305.502C455.504 309.408 453.47 312.18 450.59 312.18C447.692 312.18 445.658 309.408 445.658 305.502ZM457.53 310.38C460.158 307.86 463.74 305.304 463.74 303.09C463.74 301.614 462.804 300.57 461.472 300.57C460.446 300.57 459.42 301.308 458.952 302.37L457.278 301.632C457.998 299.976 459.744 298.824 461.472 298.824C463.938 298.824 465.648 300.588 465.648 303.09C465.648 305.844 462.66 308.292 460.23 310.38H465.864V312.054H457.71L457.53 310.38ZM470.061 306.186L468.153 305.952L468.603 298.95H475.605V300.624H470.439L470.223 303.828C470.817 303.558 471.483 303.396 472.077 303.396C474.777 303.396 476.685 305.214 476.685 307.788C476.685 310.398 474.777 312.234 472.077 312.234C469.953 312.234 468.117 310.812 467.649 308.796L469.503 308.364C469.773 309.57 470.835 310.434 472.077 310.434C473.661 310.434 474.777 309.336 474.777 307.788C474.777 306.276 473.661 305.196 472.077 305.196C471.411 305.196 470.583 305.61 470.061 306.186Z" fill="#3F3F46"/>
<rect x="577" y="198" width="46" height="82" rx="4" fill="url(#paint3_linear_4355_2482)"/>
<rect x="577" y="270" width="46" height="10" fill="#27272A"/>
<path d="M579.065 310.38C581.693 307.86 585.275 305.304 585.275 303.09C585.275 301.614 584.339 300.57 583.007 300.57C581.981 300.57 580.955 301.308 580.487 302.37L578.813 301.632C579.533 299.976 581.279 298.824 583.007 298.824C585.473 298.824 587.183 300.588 587.183 303.09C587.183 305.844 584.195 308.292 581.765 310.38H587.399V312.054H579.245L579.065 310.38ZM594.08 310.488C595.88 310.488 597.086 308.472 597.086 305.502C597.086 302.514 595.88 300.498 594.08 300.498C592.28 300.498 591.056 302.514 591.056 305.502C591.056 308.472 592.28 310.488 594.08 310.488ZM589.148 305.502C589.148 301.578 591.182 298.824 594.08 298.824C596.96 298.824 598.994 301.578 598.994 305.502C598.994 309.408 596.96 312.18 594.08 312.18C591.182 312.18 589.148 309.408 589.148 305.502ZM607.716 305.286C608.886 305.97 609.624 307.248 609.624 308.346C609.624 310.578 607.788 312.162 605.178 312.162C602.586 312.162 600.75 310.542 600.75 308.238H602.658C602.658 309.552 603.702 310.47 605.178 310.47C606.69 310.47 607.77 309.552 607.77 308.238C607.77 306.978 606.708 306.078 605.214 306.078H604.278V304.476H605.232C606.6 304.476 607.572 303.666 607.572 302.514C607.572 301.344 606.636 300.534 605.304 300.534C603.972 300.534 603.054 301.362 603.054 302.532H601.146C601.146 300.354 602.856 298.842 605.304 298.842C607.716 298.842 609.426 300.318 609.426 302.406C609.426 303.414 608.778 304.602 607.716 305.286ZM616.299 310.488C618.099 310.488 619.305 308.472 619.305 305.502C619.305 302.514 618.099 300.498 616.299 300.498C614.499 300.498 613.275 302.514 613.275 305.502C613.275 308.472 614.499 310.488 616.299 310.488ZM611.367 305.502C611.367 301.578 613.401 298.824 616.299 298.824C619.179 298.824 621.213 301.578 621.213 305.502C621.213 309.408 619.179 312.18 616.299 312.18C613.401 312.18 611.367 309.408 611.367 305.502Z" fill="#3F3F46"/>
<rect x="721" y="136" width="46" height="144" rx="4" fill="url(#paint4_linear_4355_2482)"/>
<rect x="721" y="272" width="46" height="8" fill="#27272A"/>
<path d="M723.443 310.38C726.071 307.86 729.653 305.304 729.653 303.09C729.653 301.614 728.717 300.57 727.385 300.57C726.359 300.57 725.333 301.308 724.865 302.37L723.191 301.632C723.911 299.976 725.657 298.824 727.385 298.824C729.851 298.824 731.561 300.588 731.561 303.09C731.561 305.844 728.573 308.292 726.143 310.38H731.777V312.054H723.623L723.443 310.38ZM738.458 310.488C740.258 310.488 741.464 308.472 741.464 305.502C741.464 302.514 740.258 300.498 738.458 300.498C736.658 300.498 735.434 302.514 735.434 305.502C735.434 308.472 736.658 310.488 738.458 310.488ZM733.526 305.502C733.526 301.578 735.56 298.824 738.458 298.824C741.338 298.824 743.372 301.578 743.372 305.502C743.372 309.408 741.338 312.18 738.458 312.18C735.56 312.18 733.526 309.408 733.526 305.502ZM752.094 305.286C753.264 305.97 754.002 307.248 754.002 308.346C754.002 310.578 752.166 312.162 749.556 312.162C746.964 312.162 745.128 310.542 745.128 308.238H747.036C747.036 309.552 748.08 310.47 749.556 310.47C751.068 310.47 752.148 309.552 752.148 308.238C752.148 306.978 751.086 306.078 749.592 306.078H748.656V304.476H749.61C750.978 304.476 751.95 303.666 751.95 302.514C751.95 301.344 751.014 300.534 749.682 300.534C748.35 300.534 747.432 301.362 747.432 302.532H745.524C745.524 300.354 747.234 298.842 749.682 298.842C752.094 298.842 753.804 300.318 753.804 302.406C753.804 303.414 753.156 304.602 752.094 305.286ZM758.193 306.186L756.285 305.952L756.735 298.95H763.737V300.624H758.571L758.355 303.828C758.949 303.558 759.615 303.396 760.209 303.396C762.909 303.396 764.817 305.214 764.817 307.788C764.817 310.398 762.909 312.234 760.209 312.234C758.085 312.234 756.249 310.812 755.781 308.796L757.635 308.364C757.905 309.57 758.967 310.434 760.209 310.434C761.793 310.434 762.909 309.336 762.909 307.788C762.909 306.276 761.793 305.196 760.209 305.196C759.543 305.196 758.715 305.61 758.193 306.186Z" fill="#3F3F46"/>
<rect x="865" y="80" width="46" height="200" rx="4" fill="url(#paint5_linear_4355_2482)"/>
<rect x="865" y="272" width="46" height="8" fill="#27272A"/>
<path d="M866.81 310.38C869.438 307.86 873.02 305.304 873.02 303.09C873.02 301.614 872.084 300.57 870.752 300.57C869.726 300.57 868.7 301.308 868.232 302.37L866.558 301.632C867.278 299.976 869.024 298.824 870.752 298.824C873.218 298.824 874.928 300.588 874.928 303.09C874.928 305.844 871.94 308.292 869.51 310.38H875.144V312.054H866.99L866.81 310.38ZM881.825 310.488C883.625 310.488 884.831 308.472 884.831 305.502C884.831 302.514 883.625 300.498 881.825 300.498C880.025 300.498 878.801 302.514 878.801 305.502C878.801 308.472 880.025 310.488 881.825 310.488ZM876.893 305.502C876.893 301.578 878.927 298.824 881.825 298.824C884.705 298.824 886.739 301.578 886.739 305.502C886.739 309.408 884.705 312.18 881.825 312.18C878.927 312.18 876.893 309.408 876.893 305.502ZM896.217 298.95V307.014H897.873V308.67H896.217V312.054H894.309V308.67H888.675L888.495 307.014L894.399 298.95H896.217ZM890.763 307.014H894.309V302.136L890.763 307.014ZM904.554 310.488C906.354 310.488 907.56 308.472 907.56 305.502C907.56 302.514 906.354 300.498 904.554 300.498C902.754 300.498 901.53 302.514 901.53 305.502C901.53 308.472 902.754 310.488 904.554 310.488ZM899.622 305.502C899.622 301.578 901.656 298.824 904.554 298.824C907.434 298.824 909.468 301.578 909.468 305.502C909.468 309.408 907.434 312.18 904.554 312.18C901.656 312.18 899.622 309.408 899.622 305.502Z" fill="#3F3F46"/>
<g filter="url(#filter0_d_4355_2482)">
<rect x="270" y="194" width="85" height="48" rx="24" fill="white" shape-rendering="crispEdges"/>
<path d="M299.67 210.52V225.06L297.55 225.04V212.78L294.99 214.2L294.11 212.42L297.57 210.52H299.67ZM308.069 223.32C310.069 223.32 311.409 221.08 311.409 217.78C311.409 214.46 310.069 212.22 308.069 212.22C306.069 212.22 304.709 214.46 304.709 217.78C304.709 221.08 306.069 223.32 308.069 223.32ZM302.589 217.78C302.589 213.42 304.849 210.36 308.069 210.36C311.269 210.36 313.529 213.42 313.529 217.78C313.529 222.12 311.269 225.2 308.069 225.2C304.849 225.2 302.589 222.12 302.589 217.78Z" fill="#009B46"/>
<path d="M319.785 224.016L327.049 212.4H328.505L321.209 224.016H319.785ZM317.129 215.376C317.129 213.6 318.473 212.208 320.201 212.208C321.913 212.208 323.257 213.6 323.257 215.376C323.257 217.136 321.913 218.528 320.201 218.528C318.473 218.528 317.129 217.136 317.129 215.376ZM318.441 215.376C318.441 216.4 319.209 217.232 320.201 217.232C321.193 217.232 321.961 216.4 321.961 215.376C321.961 214.336 321.193 213.52 320.201 213.52C319.209 213.52 318.441 214.336 318.441 215.376ZM324.889 220.976C324.889 219.216 326.233 217.824 327.961 217.824C329.673 217.824 331.017 219.216 331.017 220.976C331.017 222.752 329.673 224.144 327.961 224.144C326.233 224.144 324.889 222.752 324.889 220.976ZM326.201 220.976C326.201 222.016 326.969 222.848 327.961 222.848C328.953 222.848 329.721 222.016 329.721 220.976C329.721 219.952 328.953 219.12 327.961 219.12C326.969 219.12 326.201 219.952 326.201 220.976Z" fill="#009B46"/>
</g>
<g filter="url(#filter1_d_4355_2482)">
<rect x="557" y="134" width="85" height="48" rx="24" fill="white" shape-rendering="crispEdges"/>
<path d="M589.818 150.5V159.46H591.658V161.3H589.818V165.06H587.698V161.3H581.438L581.238 159.46L587.798 150.5H589.818ZM583.758 159.46H587.698V154.04L583.758 159.46ZM599.041 150.52V165.06L596.921 165.04V152.78L594.361 154.2L593.481 152.42L596.941 150.52H599.041Z" fill="#6D0CA6"/>
<path d="M606.285 164.016L613.549 152.4H615.005L607.709 164.016H606.285ZM603.629 155.376C603.629 153.6 604.973 152.208 606.701 152.208C608.413 152.208 609.757 153.6 609.757 155.376C609.757 157.136 608.413 158.528 606.701 158.528C604.973 158.528 603.629 157.136 603.629 155.376ZM604.941 155.376C604.941 156.4 605.709 157.232 606.701 157.232C607.693 157.232 608.461 156.4 608.461 155.376C608.461 154.336 607.693 153.52 606.701 153.52C605.709 153.52 604.941 154.336 604.941 155.376ZM611.389 160.976C611.389 159.216 612.733 157.824 614.461 157.824C616.173 157.824 617.517 159.216 617.517 160.976C617.517 162.752 616.173 164.144 614.461 164.144C612.733 164.144 611.389 162.752 611.389 160.976ZM612.701 160.976C612.701 162.016 613.469 162.848 614.461 162.848C615.453 162.848 616.221 162.016 616.221 160.976C616.221 159.952 615.453 159.12 614.461 159.12C613.469 159.12 612.701 159.952 612.701 160.976Z" fill="#6D0CA6"/>
</g>
<g filter="url(#filter2_d_4355_2482)">
<rect x="413" y="170" width="85" height="48" rx="24" fill="white" shape-rendering="crispEdges"/>
<path d="M436.44 199.2C439.36 196.4 443.34 193.56 443.34 191.1C443.34 189.46 442.3 188.3 440.82 188.3C439.68 188.3 438.54 189.12 438.02 190.3L436.16 189.48C436.96 187.64 438.9 186.36 440.82 186.36C443.56 186.36 445.46 188.32 445.46 191.1C445.46 194.16 442.14 196.88 439.44 199.2H445.7V201.06H436.64L436.44 199.2ZM455.404 193.54C456.704 194.3 457.524 195.72 457.524 196.94C457.524 199.42 455.484 201.18 452.584 201.18C449.704 201.18 447.664 199.38 447.664 196.82H449.784C449.784 198.28 450.944 199.3 452.584 199.3C454.264 199.3 455.464 198.28 455.464 196.82C455.464 195.42 454.284 194.42 452.624 194.42H451.584V192.64H452.644C454.164 192.64 455.244 191.74 455.244 190.46C455.244 189.16 454.204 188.26 452.724 188.26C451.244 188.26 450.224 189.18 450.224 190.48H448.104C448.104 188.06 450.004 186.38 452.724 186.38C455.404 186.38 457.304 188.02 457.304 190.34C457.304 191.46 456.584 192.78 455.404 193.54Z" fill="#009B46"/>
<path d="M463.785 200.016L471.049 188.4H472.505L465.209 200.016H463.785ZM461.129 191.376C461.129 189.6 462.473 188.208 464.201 188.208C465.913 188.208 467.257 189.6 467.257 191.376C467.257 193.136 465.913 194.528 464.201 194.528C462.473 194.528 461.129 193.136 461.129 191.376ZM462.441 191.376C462.441 192.4 463.209 193.232 464.201 193.232C465.193 193.232 465.961 192.4 465.961 191.376C465.961 190.336 465.193 189.52 464.201 189.52C463.209 189.52 462.441 190.336 462.441 191.376ZM468.889 196.976C468.889 195.216 470.233 193.824 471.961 193.824C473.673 193.824 475.017 195.216 475.017 196.976C475.017 198.752 473.673 200.144 471.961 200.144C470.233 200.144 468.889 198.752 468.889 196.976ZM470.201 196.976C470.201 198.016 470.969 198.848 471.961 198.848C472.953 198.848 473.721 198.016 473.721 196.976C473.721 195.952 472.953 195.12 471.961 195.12C470.969 195.12 470.201 195.952 470.201 196.976Z" fill="#009B46"/>
</g>
<g filter="url(#filter3_d_4355_2482)">
<rect x="701" y="72" width="85" height="48" rx="24" fill="white" shape-rendering="crispEdges"/>
<path d="M727.983 103.1H725.663L731.363 90.3L724.683 90.32V88.44H733.483L733.683 90.3L727.983 103.1ZM739.291 103.1H736.971L742.671 90.3L735.991 90.32V88.44H744.791L744.991 90.3L739.291 103.1Z" fill="#6D0CA6"/>
<path d="M751.285 102.016L758.549 90.4H760.005L752.709 102.016H751.285ZM748.629 93.376C748.629 91.6 749.973 90.208 751.701 90.208C753.413 90.208 754.757 91.6 754.757 93.376C754.757 95.136 753.413 96.528 751.701 96.528C749.973 96.528 748.629 95.136 748.629 93.376ZM749.941 93.376C749.941 94.4 750.709 95.232 751.701 95.232C752.693 95.232 753.461 94.4 753.461 93.376C753.461 92.336 752.693 91.52 751.701 91.52C750.709 91.52 749.941 92.336 749.941 93.376ZM756.389 98.976C756.389 97.216 757.733 95.824 759.461 95.824C761.173 95.824 762.517 97.216 762.517 98.976C762.517 100.752 761.173 102.144 759.461 102.144C757.733 102.144 756.389 100.752 756.389 98.976ZM757.701 98.976C757.701 100.016 758.469 100.848 759.461 100.848C760.453 100.848 761.221 100.016 761.221 98.976C761.221 97.952 760.453 97.12 759.461 97.12C758.469 97.12 757.701 97.952 757.701 98.976Z" fill="#6D0CA6"/>
</g>
<g filter="url(#filter4_d_4355_2482)">
<rect x="845" y="16" width="85" height="48" rx="24" fill="white" shape-rendering="crispEdges"/>
<path d="M868.298 32.52V47.06L866.178 47.04V34.78L863.618 36.2L862.738 34.42L866.198 32.52H868.298ZM876.698 45.32C878.698 45.32 880.038 43.08 880.038 39.78C880.038 36.46 878.698 34.22 876.698 34.22C874.698 34.22 873.338 36.46 873.338 39.78C873.338 43.08 874.698 45.32 876.698 45.32ZM871.218 39.78C871.218 35.42 873.478 32.36 876.698 32.36C879.898 32.36 882.158 35.42 882.158 39.78C882.158 44.12 879.898 47.2 876.698 47.2C873.478 47.2 871.218 44.12 871.218 39.78ZM889.569 45.32C891.569 45.32 892.909 43.08 892.909 39.78C892.909 36.46 891.569 34.22 889.569 34.22C887.569 34.22 886.209 36.46 886.209 39.78C886.209 43.08 887.569 45.32 889.569 45.32ZM884.089 39.78C884.089 35.42 886.349 32.36 889.569 32.36C892.769 32.36 895.029 35.42 895.029 39.78C895.029 44.12 892.769 47.2 889.569 47.2C886.349 47.2 884.089 44.12 884.089 39.78Z" fill="#6D0CA6"/>
<path d="M901.285 46.016L908.549 34.4H910.005L902.709 46.016H901.285ZM898.629 37.376C898.629 35.6 899.973 34.208 901.701 34.208C903.413 34.208 904.757 35.6 904.757 37.376C904.757 39.136 903.413 40.528 901.701 40.528C899.973 40.528 898.629 39.136 898.629 37.376ZM899.941 37.376C899.941 38.4 900.709 39.232 901.701 39.232C902.693 39.232 903.461 38.4 903.461 37.376C903.461 36.336 902.693 35.52 901.701 35.52C900.709 35.52 899.941 36.336 899.941 37.376ZM906.389 42.976C906.389 41.216 907.733 39.824 909.461 39.824C911.173 39.824 912.517 41.216 912.517 42.976C912.517 44.752 911.173 46.144 909.461 46.144C907.733 46.144 906.389 44.752 906.389 42.976ZM907.701 42.976C907.701 44.016 908.469 44.848 909.461 44.848C910.453 44.848 911.221 44.016 911.221 42.976C911.221 41.952 910.453 41.12 909.461 41.12C908.469 41.12 907.701 41.952 907.701 42.976Z" fill="#6D0CA6"/>
</g>
<rect x="32" y="40" width="12" height="12" rx="4" fill="url(#paint6_linear_4355_2482)"/>
<path d="M64.496 45.984C64.496 46.384 64.48 46.896 64.48 46.944C64.48 50.256 62.144 52.112 59.008 52.176C55.648 52.176 53.264 49.712 53.264 46.224C53.264 42.736 55.648 40.288 59.008 40.288C62.64 40.288 63.888 43.104 63.888 43.104L62.72 43.664C62.72 43.664 61.776 41.472 59.008 41.472C56.416 41.472 54.608 43.424 54.608 46.224C54.608 49.04 56.416 50.992 59.008 50.992C61.408 50.912 63.184 49.68 63.2 47.136H59.216V45.984H64.496ZM66.5891 52.048V44.592H67.9171V45.824C68.4131 45.024 69.4211 44.48 70.4131 44.528V45.808C69.0531 45.76 67.9171 46.944 67.9171 48.256V52.048H66.5891ZM74.9175 52.112C72.8215 52.112 71.3495 50.544 71.3495 48.352C71.3495 46.144 72.8215 44.592 74.9175 44.592C77.2215 44.592 77.9255 46.448 77.9895 46.624C78.4375 47.776 78.2935 48.88 78.2935 48.928H72.6935C72.8855 50.112 73.8135 50.944 74.9175 50.944C76.3895 50.944 76.9335 50.016 77.0455 49.84L78.1015 50.384C77.7335 51.216 76.6775 52.112 74.9175 52.112ZM72.6935 47.792L76.9975 47.776C76.8535 46.64 76.2935 45.76 74.9175 45.76C73.7815 45.76 72.8855 46.592 72.6935 47.792ZM83.4331 52.112C81.3371 52.112 79.8651 50.544 79.8651 48.352C79.8651 46.144 81.3371 44.592 83.4331 44.592C85.7371 44.592 86.4411 46.448 86.5051 46.624C86.9531 47.776 86.8091 48.88 86.8091 48.928H81.2091C81.4011 50.112 82.3291 50.944 83.4331 50.944C84.9051 50.944 85.4491 50.016 85.5611 49.84L86.6171 50.384C86.2491 51.216 85.1931 52.112 83.4331 52.112ZM81.2091 47.792L85.5131 47.776C85.3691 46.64 84.8091 45.76 83.4331 45.76C82.2971 45.76 81.4011 46.592 81.2091 47.792ZM93.7731 47.76C93.7731 46.56 93.0691 45.776 92.0131 45.776C90.8291 45.776 89.9971 46.688 89.9971 47.76V52.048H88.6691V44.592H89.9971V45.68C90.5091 45.04 91.3411 44.592 92.0771 44.592C93.7091 44.592 95.1011 45.712 95.1011 47.664V52.048H93.7731V47.76ZM104.772 50.96C106.132 50.96 107.044 49.904 107.044 48.352C107.044 46.816 106.132 45.744 104.772 45.744C103.54 45.744 102.5 46.928 102.5 48.352C102.5 49.792 103.54 50.96 104.772 50.96ZM101.156 55.456V44.576H102.484V45.84C103.044 44.992 104.068 44.576 104.82 44.576C106.9 44.576 108.372 46.144 108.372 48.352C108.372 50.576 106.9 52.144 104.82 52.144C104.036 52.144 103.044 51.664 102.484 50.864V55.456H101.156ZM110.105 52.048V44.592H111.433V45.824C111.929 45.024 112.937 44.48 113.929 44.528V45.808C112.569 45.76 111.433 46.944 111.433 48.256V52.048H110.105ZM118.433 52.112C116.337 52.112 114.865 50.544 114.865 48.352C114.865 46.144 116.337 44.592 118.433 44.592C120.737 44.592 121.441 46.448 121.505 46.624C121.953 47.776 121.809 48.88 121.809 48.928H116.209C116.401 50.112 117.329 50.944 118.433 50.944C119.905 50.944 120.449 50.016 120.561 49.84L121.617 50.384C121.249 51.216 120.193 52.112 118.433 52.112ZM116.209 47.792L120.513 47.776C120.369 46.64 119.809 45.76 118.433 45.76C117.297 45.76 116.401 46.592 116.209 47.792ZM133.205 47.6C133.205 46.512 132.565 45.776 131.637 45.776C130.565 45.776 129.829 46.48 129.829 47.472V52.048H128.485V47.6C128.485 46.512 127.861 45.776 126.949 45.776C125.861 45.776 125.109 46.688 125.109 47.744V52.048H123.781V44.592H125.109V45.664C125.557 45.024 126.293 44.592 126.997 44.592C127.925 44.592 128.837 45.152 129.269 45.968C129.765 45.152 130.741 44.592 131.669 44.592C133.349 44.592 134.549 45.792 134.549 47.504V52.048H133.205V47.6ZM136.874 44.576H138.202V52.048H136.874V44.576ZM136.73 41.68C136.73 41.216 137.066 40.88 137.546 40.88C138.01 40.88 138.346 41.216 138.346 41.68C138.346 42.16 138.01 42.496 137.546 42.496C137.066 42.496 136.73 42.16 136.73 41.68ZM141.951 48.928C141.951 50.112 142.671 50.976 143.711 50.976C144.895 50.976 145.711 50.224 145.711 49.04V44.592H147.055V52.048H145.711V51.104C145.215 51.744 144.383 52.16 143.631 52.16C141.871 52.16 140.607 50.832 140.607 49.04V44.592H141.951V48.928ZM158.861 47.6C158.861 46.512 158.221 45.776 157.293 45.776C156.221 45.776 155.485 46.48 155.485 47.472V52.048H154.141V47.6C154.141 46.512 153.517 45.776 152.605 45.776C151.517 45.776 150.765 46.688 150.765 47.744V52.048H149.437V44.592H150.765V45.664C151.213 45.024 151.949 44.592 152.653 44.592C153.581 44.592 154.493 45.152 154.925 45.968C155.421 45.152 156.397 44.592 157.325 44.592C159.005 44.592 160.205 45.792 160.205 47.504V52.048H158.861V47.6Z" fill="#3F3F46"/>
<rect x="32" y="74" width="12" height="12" rx="4" fill="url(#paint7_linear_4355_2482)"/>
<path d="M57.424 80.192C58.1067 80.192 58.6667 79.9787 59.104 79.552C59.5413 79.1147 59.76 78.56 59.76 77.888C59.76 77.216 59.536 76.6667 59.088 76.24C58.6507 75.8027 58.0907 75.584 57.408 75.584H54.688L54.704 80.192H57.424ZM53.36 74.4H57.456C58.16 74.4 58.784 74.5493 59.328 74.848C59.8827 75.1467 60.3093 75.5627 60.608 76.096C60.9173 76.6187 61.072 77.216 61.072 77.888C61.072 78.56 60.9173 79.1627 60.608 79.696C60.3093 80.2187 59.8827 80.6293 59.328 80.928C58.784 81.216 58.16 81.36 57.456 81.36H54.704V86.048H53.36V74.4ZM67.3771 80.192C68.0598 80.192 68.6198 79.9787 69.0571 79.552C69.4945 79.1147 69.7131 78.56 69.7131 77.888C69.7131 77.216 69.4891 76.6667 69.0411 76.24C68.6038 75.8027 68.0438 75.584 67.3611 75.584H64.6411L64.6571 80.192H67.3771ZM63.3131 74.4H67.4091C68.1131 74.4 68.7371 74.5493 69.2811 74.848C69.8358 75.1467 70.2625 75.5627 70.5611 76.096C70.8705 76.6187 71.0251 77.216 71.0251 77.888C71.0251 78.56 70.8705 79.1627 70.5611 79.696C70.2625 80.2187 69.8358 80.6293 69.2811 80.928C68.7371 81.216 68.1131 81.36 67.4091 81.36H64.6571V86.048H63.3131V74.4ZM81.5044 86.048H80.0804L78.8484 82.752H73.7764L72.4964 86.048H71.0724L75.5364 74.4H77.1204L81.5044 86.048ZM78.4004 81.584L76.3364 76.096L74.2084 81.584H78.4004Z" fill="#3F3F46"/>
<rect x="32" y="108" width="12" height="12" rx="4" fill="#27272A"/>
<path d="M54.416 116.912C55.024 118.128 56.048 118.992 57.248 118.992C58.816 119.024 59.792 118.224 59.792 116.976C59.792 114 53.808 115.248 53.808 111.2C53.808 109.328 55.376 108.256 57.456 108.272C59.056 108.304 60.352 109.152 60.912 110.848L59.712 111.264C59.36 110.128 58.496 109.472 57.44 109.456C56.096 109.44 55.136 110.08 55.136 111.2C55.136 114.144 61.12 112.944 61.12 116.992C61.12 118.912 59.616 120.208 57.232 120.176C55.536 120.144 54.24 119.2 53.28 117.52L54.416 116.912ZM66.5578 118.96C67.8858 118.96 68.7978 117.904 68.7978 116.368C68.7978 114.832 67.8858 113.76 66.5578 113.76C65.2458 113.76 64.3338 114.816 64.3338 116.368C64.3338 117.92 65.2298 118.96 66.5578 118.96ZM63.0058 116.368C63.0058 114.16 64.4778 112.576 66.5578 112.576C68.6538 112.576 70.1418 114.16 70.1418 116.368C70.1418 118.56 68.6538 120.144 66.5578 120.144C64.4778 120.144 63.0058 118.56 63.0058 116.368ZM71.8068 108.752H73.1348V120.048H71.8068V108.752ZM78.3543 120.144C76.2903 120.144 74.8183 118.576 74.8183 116.384C74.8183 114.176 76.2903 112.608 78.3543 112.608C79.1543 112.608 80.0343 113.008 80.6743 113.872V112.592H82.0023V120.048H80.6743V118.848C80.0183 119.792 79.1543 120.144 78.3543 120.144ZM76.1463 116.384C76.1463 117.904 77.0743 118.976 78.4023 118.976C79.6023 118.976 80.6743 117.888 80.6903 116.384C80.6743 114.88 79.6023 113.776 78.4023 113.776C77.0743 113.776 76.1463 114.832 76.1463 116.384ZM83.9485 120.048V112.592H85.2765V113.824C85.7725 113.024 86.7805 112.48 87.7725 112.528V113.808C86.4125 113.76 85.2765 114.944 85.2765 116.256V120.048H83.9485ZM97.053 118.96C98.413 118.96 99.325 117.904 99.325 116.352C99.325 114.816 98.413 113.744 97.053 113.744C95.821 113.744 94.781 114.928 94.781 116.352C94.781 117.792 95.821 118.96 97.053 118.96ZM93.437 123.456V112.576H94.765V113.84C95.325 112.992 96.349 112.576 97.101 112.576C99.181 112.576 100.653 114.144 100.653 116.352C100.653 118.576 99.181 120.144 97.101 120.144C96.317 120.144 95.325 119.664 94.765 118.864V123.456H93.437ZM105.73 118.96C107.058 118.96 107.97 117.904 107.97 116.368C107.97 114.832 107.058 113.76 105.73 113.76C104.418 113.76 103.506 114.816 103.506 116.368C103.506 117.92 104.402 118.96 105.73 118.96ZM102.178 116.368C102.178 114.16 103.65 112.576 105.73 112.576C107.826 112.576 109.314 114.16 109.314 116.368C109.314 118.56 107.826 120.144 105.73 120.144C103.65 120.144 102.178 118.56 102.178 116.368ZM120.21 112.592L118.002 120.048H116.786L115.154 114.832L113.554 120.048H112.338L110.082 112.592H111.458L112.962 117.776L114.466 112.592H115.81L117.378 117.792L118.834 112.592H120.21ZM124.433 120.112C122.337 120.112 120.865 118.544 120.865 116.352C120.865 114.144 122.337 112.592 124.433 112.592C126.737 112.592 127.441 114.448 127.505 114.624C127.953 115.776 127.809 116.88 127.809 116.928H122.209C122.401 118.112 123.329 118.944 124.433 118.944C125.905 118.944 126.449 118.016 126.561 117.84L127.617 118.384C127.249 119.216 126.193 120.112 124.433 120.112ZM122.209 115.792L126.513 115.776C126.369 114.64 125.809 113.76 124.433 113.76C123.297 113.76 122.401 114.592 122.209 115.792ZM129.589 120.048V112.592H130.917V113.824C131.413 113.024 132.421 112.48 133.413 112.528V113.808C132.053 113.76 130.917 114.944 130.917 116.256V120.048H129.589Z" fill="#3F3F46"/>
<defs>
<filter id="filter0_d_4355_2482" x="255" y="183" width="115" height="78" filterUnits="userSpaceOnUse" color-interpolation-filters="sRGB">
<feFlood flood-opacity="0" result="BackgroundImageFix"/>
<feColorMatrix in="SourceAlpha" type="matrix" values="0 0 0 0 0 0 0 0 0 0 0 0 0 0 0 0 0 0 127 0" result="hardAlpha"/>
<feOffset dy="4"/>
<feGaussianBlur stdDeviation="7.5"/>
<feComposite in2="hardAlpha" operator="out"/>
<feColorMatrix type="matrix" values="0 0 0 0 0 0 0 0 0 0 0 0 0 0 0 0 0 0 0.15 0"/>
<feBlend mode="normal" in2="BackgroundImageFix" result="effect1_dropShadow_4355_2482"/>
<feBlend mode="normal" in="SourceGraphic" in2="effect1_dropShadow_4355_2482" result="shape"/>
</filter>
<filter id="filter1_d_4355_2482" x="542" y="123" width="115" height="78" filterUnits="userSpaceOnUse" color-interpolation-filters="sRGB">
<feFlood flood-opacity="0" result="BackgroundImageFix"/>
<feColorMatrix in="SourceAlpha" type="matrix" values="0 0 0 0 0 0 0 0 0 0 0 0 0 0 0 0 0 0 127 0" result="hardAlpha"/>
<feOffset dy="4"/>
<feGaussianBlur stdDeviation="7.5"/>
<feComposite in2="hardAlpha" operator="out"/>
<feColorMatrix type="matrix" values="0 0 0 0 0 0 0 0 0 0 0 0 0 0 0 0 0 0 0.15 0"/>
<feBlend mode="normal" in2="BackgroundImageFix" result="effect1_dropShadow_4355_2482"/>
<feBlend mode="normal" in="SourceGraphic" in2="effect1_dropShadow_4355_2482" result="shape"/>
</filter>
<filter id="filter2_d_4355_2482" x="398" y="159" width="115" height="78" filterUnits="userSpaceOnUse" color-interpolation-filters="sRGB">
<feFlood flood-opacity="0" result="BackgroundImageFix"/>
<feColorMatrix in="SourceAlpha" type="matrix" values="0 0 0 0 0 0 0 0 0 0 0 0 0 0 0 0 0 0 127 0" result="hardAlpha"/>
<feOffset dy="4"/>
<feGaussianBlur stdDeviation="7.5"/>
<feComposite in2="hardAlpha" operator="out"/>
<feColorMatrix type="matrix" values="0 0 0 0 0 0 0 0 0 0 0 0 0 0 0 0 0 0 0.15 0"/>
<feBlend mode="normal" in2="BackgroundImageFix" result="effect1_dropShadow_4355_2482"/>
<feBlend mode="normal" in="SourceGraphic" in2="effect1_dropShadow_4355_2482" result="shape"/>
</filter>
<filter id="filter3_d_4355_2482" x="686" y="61" width="115" height="78" filterUnits="userSpaceOnUse" color-interpolation-filters="sRGB">
<feFlood flood-opacity="0" result="BackgroundImageFix"/>
<feColorMatrix in="SourceAlpha" type="matrix" values="0 0 0 0 0 0 0 0 0 0 0 0 0 0 0 0 0 0 127 0" result="hardAlpha"/>
<feOffset dy="4"/>
<feGaussianBlur stdDeviation="7.5"/>
<feComposite in2="hardAlpha" operator="out"/>
<feColorMatrix type="matrix" values="0 0 0 0 0 0 0 0 0 0 0 0 0 0 0 0 0 0 0.15 0"/>
<feBlend mode="normal" in2="BackgroundImageFix" result="effect1_dropShadow_4355_2482"/>
<feBlend mode="normal" in="SourceGraphic" in2="effect1_dropShadow_4355_2482" result="shape"/>
</filter>
<filter id="filter4_d_4355_2482" x="830" y="5" width="115" height="78" filterUnits="userSpaceOnUse" color-interpolation-filters="sRGB">
<feFlood flood-opacity="0" result="BackgroundImageFix"/>
<feColorMatrix in="SourceAlpha" type="matrix" values="0 0 0 0 0 0 0 0 0 0 0 0 0 0 0 0 0 0 127 0" result="hardAlpha"/>
<feOffset dy="4"/>
<feGaussianBlur stdDeviation="7.5"/>
<feComposite in2="hardAlpha" operator="out"/>
<feColorMatrix type="matrix" values="0 0 0 0 0 0 0 0 0 0 0 0 0 0 0 0 0 0 0.15 0"/>
<feBlend mode="normal" in2="BackgroundImageFix" result="effect1_dropShadow_4355_2482"/>
<feBlend mode="normal" in="SourceGraphic" in2="effect1_dropShadow_4355_2482" result="shape"/>
</filter>
<linearGradient id="paint0_linear_4355_2482" x1="600" y1="0" x2="600" y2="280" gradientUnits="userSpaceOnUse">
<stop stop-color="#F6F6F7"/>
<stop offset="1" stop-color="white"/>
</linearGradient>
<linearGradient id="paint1_linear_4355_2482" x1="312" y1="258" x2="312" y2="280" gradientUnits="userSpaceOnUse">
<stop stop-color="#00CC5C"/>
<stop offset="1" stop-color="#5EFFA6"/>
</linearGradient>
<linearGradient id="paint2_linear_4355_2482" x1="456" y1="234" x2="456" y2="280" gradientUnits="userSpaceOnUse">
<stop stop-color="#00CC5C"/>
<stop offset="1" stop-color="#5EFFA6"/>
</linearGradient>
<linearGradient id="paint3_linear_4355_2482" x1="600" y1="198" x2="600" y2="280" gradientUnits="userSpaceOnUse">
<stop stop-color="#9735D0"/>
<stop offset="1" stop-color="#9735D0" stop-opacity="0.4"/>
</linearGradient>
<linearGradient id="paint4_linear_4355_2482" x1="744" y1="136" x2="744" y2="280" gradientUnits="userSpaceOnUse">
<stop stop-color="#9735D0"/>
<stop offset="1" stop-color="#9735D0" stop-opacity="0.4"/>
</linearGradient>
<linearGradient id="paint5_linear_4355_2482" x1="888" y1="80" x2="888" y2="280" gradientUnits="userSpaceOnUse">
<stop stop-color="#9735D0"/>
<stop offset="1" stop-color="#9735D0" stop-opacity="0.4"/>
</linearGradient>
<linearGradient id="paint6_linear_4355_2482" x1="38" y1="40" x2="38" y2="52" gradientUnits="userSpaceOnUse">
<stop stop-color="#00CC5C"/>
<stop offset="1" stop-color="#5EFFA6"/>
</linearGradient>
<linearGradient id="paint7_linear_4355_2482" x1="38" y1="74" x2="38" y2="86" gradientUnits="userSpaceOnUse">
<stop stop-color="#9735D0"/>
<stop offset="1" stop-color="#9735D0" stop-opacity="0.4"/>
</linearGradient>
</defs>
</svg>
