<svg width="101" height="100" viewBox="0 0 101 100" fill="none" xmlns="http://www.w3.org/2000/svg">
<path fill-rule="evenodd" clip-rule="evenodd" d="M16.125 14.5859C14.3991 14.5859 13 15.985 13 17.7109V44.4626C13 46.1885 14.3991 47.5876 16.125 47.5876H18.2083C19.9342 47.5876 21.3333 46.1885 21.3333 44.4626V17.7109C21.3333 15.985 19.9342 14.5859 18.2083 14.5859H16.125ZM41.125 14.5859C39.3991 14.5859 38 15.985 38 17.7109V44.4626C38 46.1885 39.3991 47.5876 41.125 47.5876H43.2083C44.9342 47.5876 46.3333 46.1885 46.3333 44.4626V17.7109C46.3333 15.985 44.9342 14.5859 43.2083 14.5859H41.125ZM63 17.7109C63 15.985 64.3991 14.5859 66.125 14.5859H68.2083C69.9342 14.5859 71.3333 15.985 71.3333 17.7109V44.4626C71.3333 46.1885 69.9342 47.5876 68.2083 47.5876H66.125C64.3991 47.5876 63 46.1885 63 44.4626V17.7109Z" fill="#CC7DFA"/>
<path d="M31.7474 57.1719C31.7474 55.515 30.4042 54.1719 28.7474 54.1719H13.9141C12.2572 54.1719 10.9141 55.515 10.9141 57.1719V89.5885H31.7474V57.1719Z" fill="#6D0CA6"/>
<path d="M10.9141 89.5841V37.8686C10.9141 33.0665 16.1047 30.0583 20.2713 32.4458L35.9141 41.409V37.8686C35.9141 33.0665 41.1047 30.0583 45.2713 32.4458L60.9141 41.409V37.8686C60.9141 33.0665 66.1047 30.0583 70.2713 32.4458L86.938 41.9957C88.8817 43.1095 90.0807 45.1784 90.0807 47.4186V89.5841H10.9141Z" fill="#6D0CA6"/>
<path d="M15.0859 52.0885C15.0859 53.2391 16.0187 54.1719 17.1693 54.1719C18.3199 54.1719 19.2526 53.2391 19.2526 52.0885L19.2526 50.0052C19.2526 48.8546 18.3199 47.9219 17.1693 47.9219C16.0187 47.9219 15.0859 48.8546 15.0859 50.0052V52.0885Z" fill="white"/>
<path d="M23.4193 52.0885C23.4193 53.2391 24.352 54.1719 25.5026 54.1719C26.6532 54.1719 27.5859 53.2391 27.5859 52.0885L27.5859 50.0052C27.5859 48.8546 26.6532 47.9219 25.5026 47.9219C24.352 47.9219 23.4193 48.8546 23.4193 50.0052L23.4193 52.0885Z" fill="white"/>
<path d="M17.1693 64.5885C16.0187 64.5885 15.0859 63.6558 15.0859 62.5052V60.4219C15.0859 59.2713 16.0187 58.3385 17.1693 58.3385C18.3199 58.3385 19.2526 59.2713 19.2526 60.4219L19.2526 62.5052C19.2526 63.6558 18.3199 64.5885 17.1693 64.5885Z" fill="white"/>
<path d="M23.4193 62.5052C23.4193 63.6558 24.352 64.5885 25.5026 64.5885C26.6532 64.5885 27.5859 63.6558 27.5859 62.5052L27.5859 60.4219C27.5859 59.2713 26.6532 58.3385 25.5026 58.3385C24.352 58.3385 23.4193 59.2713 23.4193 60.4219L23.4193 62.5052Z" fill="white"/>
<path d="M40.0859 54.1719C38.9353 54.1719 38.0026 53.2391 38.0026 52.0885L38.0026 50.0052C38.0026 48.8546 38.9353 47.9219 40.0859 47.9219C41.2365 47.9219 42.1693 48.8546 42.1693 50.0052L42.1693 52.0885C42.1693 53.2391 41.2365 54.1719 40.0859 54.1719Z" fill="white"/>
<path d="M46.3359 52.0885C46.3359 53.2391 47.2687 54.1719 48.4193 54.1719C49.5699 54.1719 50.5026 53.2391 50.5026 52.0885V50.0052C50.5026 48.8546 49.5699 47.9219 48.4193 47.9219C47.2687 47.9219 46.3359 48.8546 46.3359 50.0052L46.3359 52.0885Z" fill="white"/>
<path d="M40.0859 64.5885C38.9353 64.5885 38.0026 63.6558 38.0026 62.5052L38.0026 60.4219C38.0026 59.2713 38.9353 58.3385 40.0859 58.3385C41.2365 58.3385 42.1693 59.2713 42.1693 60.4219L42.1693 62.5052C42.1693 63.6558 41.2365 64.5885 40.0859 64.5885Z" fill="white"/>
<path d="M46.3359 62.5052C46.3359 63.6558 47.2687 64.5885 48.4193 64.5885C49.5699 64.5885 50.5026 63.6558 50.5026 62.5052V60.4219C50.5026 59.2713 49.5699 58.3385 48.4193 58.3385C47.2687 58.3385 46.3359 59.2713 46.3359 60.4219L46.3359 62.5052Z" fill="white"/>
<path d="M65.0859 54.1719C63.9353 54.1719 63.0026 53.2391 63.0026 52.0885V50.0052C63.0026 48.8546 63.9353 47.9219 65.0859 47.9219C66.2365 47.9219 67.1693 48.8546 67.1693 50.0052V52.0885C67.1693 53.2391 66.2365 54.1719 65.0859 54.1719Z" fill="white"/>
<path d="M71.3359 52.0885C71.3359 53.2391 72.2687 54.1719 73.4193 54.1719C74.5699 54.1719 75.5026 53.2391 75.5026 52.0885V50.0052C75.5026 48.8546 74.5699 47.9219 73.4193 47.9219C72.2687 47.9219 71.3359 48.8546 71.3359 50.0052V52.0885Z" fill="white"/>
<path d="M65.0859 64.5885C63.9353 64.5885 63.0026 63.6558 63.0026 62.5052V60.4219C63.0026 59.2713 63.9353 58.3385 65.0859 58.3385C66.2365 58.3385 67.1693 59.2713 67.1693 60.4219V62.5052C67.1693 63.6558 66.2365 64.5885 65.0859 64.5885Z" fill="white"/>
<path d="M71.3359 62.5052C71.3359 63.6558 72.2687 64.5885 73.4193 64.5885C74.5699 64.5885 75.5026 63.6558 75.5026 62.5052V60.4219C75.5026 59.2713 74.5699 58.3385 73.4193 58.3385C72.2687 58.3385 71.3359 59.2713 71.3359 60.4219V62.5052Z" fill="white"/>
<path d="M94.25 89.5807C94.25 87.2795 92.3845 85.4141 90.0833 85.4141H10.9167C8.61548 85.4141 6.75 87.2795 6.75 89.5807V91.6641H94.25V89.5807Z" fill="#CC7DFA"/>
</svg>
