<svg width="815" height="483" viewBox="0 0 815 483" fill="none" xmlns="http://www.w3.org/2000/svg">
<rect x="4" y="20" width="1" height="12" fill="#D9D9D9"/>
<rect x="5" y="26.5" width="1" height="53.5" transform="rotate(-90 5 26.5)" fill="#D9D9D9"/>
<path d="M94.6393 15.768C95.3273 17.112 96.3033 17.784 97.3273 17.784C98.8473 17.8 99.6953 17.064 99.6953 15.928C99.6953 13.24 93.7593 14.392 93.7593 10.28C93.7593 8.328 95.3593 7.176 97.5513 7.192C99.0713 7.208 100.527 8.056 101.183 9.896L99.6633 10.44C99.2473 9.208 98.4153 8.68 97.5353 8.664C96.2713 8.664 95.4553 9.288 95.4553 10.28C95.4553 12.936 101.375 11.928 101.375 15.944C101.375 17.928 99.8233 19.288 97.3113 19.256C95.5833 19.24 94.2073 18.248 93.2313 16.552L94.6393 15.768ZM105.318 15.864C105.318 17.032 106.006 17.752 107.014 17.752C108.086 17.752 108.822 17.048 108.806 15.88V11.512H110.517V19.144H108.806V18.264C108.326 18.856 107.542 19.208 106.79 19.208C104.95 19.208 103.622 17.88 103.622 15.928V11.512H105.318V15.864ZM116.603 17.752C117.835 17.752 118.635 16.792 118.635 15.336C118.635 13.88 117.835 12.92 116.603 12.92C115.451 12.92 114.507 13.992 114.507 15.336C114.507 16.68 115.451 17.752 116.603 17.752ZM112.795 22.52V11.496H114.491V12.616C115.099 11.816 116.107 11.496 116.699 11.496C118.827 11.496 120.331 13.08 120.331 15.336C120.331 17.608 118.827 19.192 116.699 19.192C116.091 19.192 115.099 18.856 114.491 18.056V22.52H112.795ZM125.947 17.752C127.179 17.752 127.979 16.792 127.979 15.336C127.979 13.88 127.179 12.92 125.947 12.92C124.795 12.92 123.851 13.992 123.851 15.336C123.851 16.68 124.795 17.752 125.947 17.752ZM122.139 22.52V11.496H123.835V12.616C124.443 11.816 125.451 11.496 126.043 11.496C128.171 11.496 129.675 13.08 129.675 15.336C129.675 17.608 128.171 19.192 126.043 19.192C125.435 19.192 124.443 18.856 123.835 18.056V22.52H122.139ZM131.259 7.704H132.955V19.128H131.259V7.704ZM135.296 11.496H136.992V19.128H135.296V11.496ZM135.184 8.648C135.184 8.088 135.584 7.688 136.144 7.688C136.704 7.688 137.104 8.088 137.104 8.648C137.104 9.208 136.704 9.608 136.144 9.608C135.584 9.608 135.184 9.208 135.184 8.648ZM142.732 19.176C140.572 19.176 139.052 17.592 139.052 15.352C139.052 13.096 140.572 11.512 142.732 11.512C145.1 11.512 145.852 13.448 145.9 13.576C146.364 14.664 146.22 15.88 146.22 16.008H140.716C140.908 17.032 141.772 17.736 142.732 17.736C143.996 17.736 144.508 17 144.636 16.776L145.996 17.384C145.628 18.248 144.556 19.176 142.732 19.176ZM140.716 14.664H144.62C144.46 13.72 143.916 12.952 142.732 12.952C141.708 12.952 140.908 13.672 140.716 14.664ZM147.947 19.144V11.512H149.643V12.632C150.155 11.912 151.083 11.432 151.979 11.48V13.048C150.619 12.984 149.643 14.184 149.643 15.352V19.144H147.947ZM154.365 16.52C154.701 17.352 155.533 17.736 156.045 17.736C156.845 17.736 157.357 17.432 157.357 16.904C157.357 16.424 156.653 16.2 155.869 15.928C154.829 15.56 153.357 15.064 153.357 13.592C153.357 12.248 154.589 11.432 156.157 11.432C157.101 11.432 158.509 11.976 158.893 13.352L157.469 13.864C157.213 13.016 156.525 12.888 156.157 12.888C155.485 12.888 155.053 13.16 155.053 13.592C155.053 14.072 155.709 14.264 156.525 14.552C157.613 14.936 159.053 15.432 159.053 16.888C159.053 18.28 157.821 19.192 156.045 19.192C154.877 19.192 153.597 18.456 153.037 17.288L154.365 16.52ZM91.5444 33.32L88.2644 45.128H86.6804L83.9124 36.248L81.3044 45.128H79.7044L76.1044 33.32H77.8804L80.5044 42.088L83.0004 33.336H84.8084L87.3684 42.088L89.7684 33.32H91.5444ZM93.3273 37.496H95.0233V45.128H93.3273V37.496ZM93.2153 34.648C93.2153 34.088 93.6153 33.688 94.1753 33.688C94.7353 33.688 95.1353 34.088 95.1353 34.648C95.1353 35.208 94.7353 35.608 94.1753 35.608C93.6153 35.608 93.2153 35.208 93.2153 34.648ZM98.3468 45.144V38.968H96.9068V37.496H98.3468V34.824H100.043V37.496H101.851V38.968H100.043V45.144H98.3468ZM108.681 40.968C108.681 39.704 108.073 38.904 107.161 38.904C106.105 38.904 105.289 39.896 105.289 41.128V45H103.593V33.704H105.289V38.408C105.753 37.816 106.505 37.432 107.161 37.432C109.049 37.432 110.393 38.84 110.393 40.776V45H108.681V40.968ZM121.618 40.968C121.618 39.704 121.01 38.904 120.098 38.904C119.042 38.904 118.226 39.896 118.226 41.128V45H116.53V33.704H118.226V38.408C118.69 37.816 119.442 37.432 120.098 37.432C121.986 37.432 123.33 38.84 123.33 40.776V45H121.618V40.968ZM125.624 37.496H127.32V45.128H125.624V37.496ZM125.512 34.648C125.512 34.088 125.912 33.688 126.472 33.688C127.032 33.688 127.432 34.088 127.432 34.648C127.432 35.208 127.032 35.608 126.472 35.608C125.912 35.608 125.512 35.208 125.512 34.648ZM133.092 43.736C134.308 43.736 135.188 42.664 135.188 41.336C135.188 40.04 134.308 38.952 133.092 38.952C131.892 38.952 131.076 39.896 131.076 41.336C131.076 42.792 131.892 43.736 133.092 43.736ZM129.38 41.352C129.38 39.112 130.884 37.496 132.996 37.496C133.78 37.496 134.66 37.896 135.188 38.616V37.496H136.884V44.568C136.884 46.744 135.412 48.536 133.076 48.536C131.796 48.536 130.564 48.008 129.812 46.76L131.156 45.864C131.716 46.68 132.26 47.032 133.076 47.032C134.436 47.032 135.188 45.96 135.188 44.712V44.04C134.596 44.792 133.716 45.192 132.996 45.192C130.884 45.192 129.38 43.592 129.38 41.352ZM144.29 40.968C144.29 39.704 143.682 38.904 142.77 38.904C141.714 38.904 140.898 39.896 140.898 41.128V45H139.202V33.704H140.898V38.408C141.362 37.816 142.114 37.432 142.77 37.432C144.658 37.432 146.002 38.84 146.002 40.776V45H144.29V40.968ZM151.932 45.144V37.512H153.628V38.632C154.14 37.912 155.068 37.432 155.964 37.48V39.048C154.604 38.984 153.628 40.184 153.628 41.352V45.144H151.932ZM157.905 37.496H159.601V45.128H157.905V37.496ZM157.793 34.648C157.793 34.088 158.193 33.688 158.753 33.688C159.313 33.688 159.713 34.088 159.713 34.648C159.713 35.208 159.313 35.608 158.753 35.608C158.193 35.608 157.793 35.208 157.793 34.648ZM163.021 42.52C163.357 43.352 164.189 43.736 164.701 43.736C165.501 43.736 166.013 43.432 166.013 42.904C166.013 42.424 165.309 42.2 164.525 41.928C163.485 41.56 162.013 41.064 162.013 39.592C162.013 38.248 163.245 37.432 164.813 37.432C165.757 37.432 167.165 37.976 167.549 39.352L166.125 39.864C165.869 39.016 165.181 38.888 164.813 38.888C164.141 38.888 163.709 39.16 163.709 39.592C163.709 40.072 164.365 40.264 165.181 40.552C166.269 40.936 167.709 41.432 167.709 42.888C167.709 44.28 166.477 45.192 164.701 45.192C163.533 45.192 162.253 44.456 161.693 43.288L163.021 42.52ZM171.257 33.704V40.664L173.977 37.512H176.265L173.289 40.92L176.201 45.144H174.137L172.073 42.184L171.257 43.144V45.144H169.561V33.704H171.257Z" fill="#F47725"/>
<rect width="1" height="12" transform="matrix(-1 0 0 1 248 20)" fill="#D9D9D9"/>
<rect width="1" height="53.5" transform="matrix(0 -1 -1 0 247 26.5)" fill="#D9D9D9"/>
<rect x="256" y="20" width="1" height="12" fill="#D9D9D9"/>
<rect x="257" y="26.5" width="1" height="77" transform="rotate(-90 257 26.5)" fill="#D9D9D9"/>
<path d="M381.561 15.768C382.249 17.112 383.225 17.784 384.249 17.784C385.769 17.8 386.617 17.064 386.617 15.928C386.617 13.24 380.681 14.392 380.681 10.28C380.681 8.328 382.281 7.176 384.473 7.192C385.993 7.208 387.449 8.056 388.105 9.896L386.585 10.44C386.169 9.208 385.337 8.68 384.457 8.664C383.193 8.664 382.377 9.288 382.377 10.28C382.377 12.936 388.297 11.928 388.297 15.944C388.297 17.928 386.745 19.288 384.233 19.256C382.505 19.24 381.129 18.248 380.153 16.552L381.561 15.768ZM392.239 15.864C392.239 17.032 392.927 17.752 393.935 17.752C395.007 17.752 395.743 17.048 395.727 15.88V11.512H397.439V19.144H395.727V18.264C395.247 18.856 394.463 19.208 393.711 19.208C391.871 19.208 390.543 17.88 390.543 15.928V11.512H392.239V15.864ZM403.525 17.752C404.757 17.752 405.557 16.792 405.557 15.336C405.557 13.88 404.757 12.92 403.525 12.92C402.373 12.92 401.429 13.992 401.429 15.336C401.429 16.68 402.373 17.752 403.525 17.752ZM399.717 22.52V11.496H401.413V12.616C402.021 11.816 403.029 11.496 403.621 11.496C405.749 11.496 407.253 13.08 407.253 15.336C407.253 17.608 405.749 19.192 403.621 19.192C403.013 19.192 402.021 18.856 401.413 18.056V22.52H399.717ZM412.869 17.752C414.101 17.752 414.901 16.792 414.901 15.336C414.901 13.88 414.101 12.92 412.869 12.92C411.717 12.92 410.773 13.992 410.773 15.336C410.773 16.68 411.717 17.752 412.869 17.752ZM409.061 22.52V11.496H410.757V12.616C411.365 11.816 412.373 11.496 412.965 11.496C415.093 11.496 416.597 13.08 416.597 15.336C416.597 17.608 415.093 19.192 412.965 19.192C412.357 19.192 411.365 18.856 410.757 18.056V22.52H409.061ZM418.181 7.704H419.877V19.128H418.181V7.704ZM422.218 11.496H423.914V19.128H422.218V11.496ZM422.106 8.648C422.106 8.088 422.506 7.688 423.066 7.688C423.626 7.688 424.026 8.088 424.026 8.648C424.026 9.208 423.626 9.608 423.066 9.608C422.506 9.608 422.106 9.208 422.106 8.648ZM429.653 19.176C427.493 19.176 425.973 17.592 425.973 15.352C425.973 13.096 427.493 11.512 429.653 11.512C432.021 11.512 432.773 13.448 432.821 13.576C433.285 14.664 433.141 15.88 433.141 16.008H427.637C427.829 17.032 428.693 17.736 429.653 17.736C430.917 17.736 431.429 17 431.557 16.776L432.917 17.384C432.549 18.248 431.477 19.176 429.653 19.176ZM427.637 14.664H431.541C431.381 13.72 430.837 12.952 429.653 12.952C428.629 12.952 427.829 13.672 427.637 14.664ZM434.869 19.144V11.512H436.565V12.632C437.077 11.912 438.005 11.432 438.901 11.48V13.048C437.541 12.984 436.565 14.184 436.565 15.352V19.144H434.869ZM441.287 16.52C441.623 17.352 442.455 17.736 442.967 17.736C443.766 17.736 444.279 17.432 444.279 16.904C444.279 16.424 443.575 16.2 442.791 15.928C441.751 15.56 440.279 15.064 440.279 13.592C440.279 12.248 441.511 11.432 443.079 11.432C444.023 11.432 445.431 11.976 445.815 13.352L444.391 13.864C444.135 13.016 443.447 12.888 443.079 12.888C442.407 12.888 441.975 13.16 441.975 13.592C441.975 14.072 442.631 14.264 443.447 14.552C444.535 14.936 445.975 15.432 445.975 16.888C445.975 18.28 444.743 19.192 442.967 19.192C441.799 19.192 440.519 18.456 439.959 17.288L441.287 16.52ZM367.037 33.32L363.757 45.128H362.173L359.405 36.248L356.797 45.128H355.197L351.597 33.32H353.373L355.997 42.088L358.493 33.336H360.301L362.861 42.088L365.261 33.32H367.037ZM368.819 37.496H370.515V45.128H368.819V37.496ZM368.707 34.648C368.707 34.088 369.107 33.688 369.667 33.688C370.227 33.688 370.627 34.088 370.627 34.648C370.627 35.208 370.227 35.608 369.667 35.608C369.107 35.608 368.707 35.208 368.707 34.648ZM373.839 45.144V38.968H372.399V37.496H373.839V34.824H375.535V37.496H377.343V38.968H375.535V45.144H373.839ZM384.173 40.968C384.173 39.704 383.565 38.904 382.653 38.904C381.597 38.904 380.781 39.896 380.781 41.128V45H379.085V33.704H380.781V38.408C381.245 37.816 381.997 37.432 382.653 37.432C384.541 37.432 385.885 38.84 385.885 40.776V45H384.173V40.968ZM401.591 40.808C401.591 39.72 400.999 39 400.135 39C399.159 39 398.503 39.752 398.503 40.728V45.144H396.791V40.808C396.791 39.72 396.215 39 395.367 39C394.391 39 393.703 39.832 393.703 40.904V45.144H392.007V37.512H393.703V38.552C394.151 37.944 394.807 37.528 395.527 37.528C396.439 37.528 397.335 38.104 397.783 38.904C398.311 38.104 399.335 37.528 400.247 37.528C402.055 37.528 403.303 38.872 403.303 40.744V45.144H401.591V40.808ZM408.849 45.176C406.689 45.176 405.169 43.592 405.169 41.352C405.169 39.096 406.689 37.512 408.849 37.512C411.217 37.512 411.969 39.448 412.017 39.576C412.481 40.664 412.337 41.88 412.337 42.008H406.833C407.025 43.032 407.889 43.736 408.849 43.736C410.113 43.736 410.625 43 410.753 42.776L412.113 43.384C411.745 44.248 410.673 45.176 408.849 45.176ZM406.833 40.664H410.737C410.577 39.72 410.033 38.952 408.849 38.952C407.825 38.952 407.025 39.672 406.833 40.664ZM417.535 45.208C415.423 45.208 413.903 43.608 413.903 41.352C413.903 39.096 415.423 37.496 417.535 37.496C418.159 37.496 419.103 37.768 419.759 38.632V33.704H421.455V45.144H419.759V44.072C419.087 44.888 418.159 45.208 417.535 45.208ZM415.599 41.368C415.599 42.824 416.415 43.784 417.647 43.784C418.799 43.784 419.759 42.728 419.759 41.368C419.759 40.024 418.799 38.952 417.647 38.952C416.415 38.952 415.599 39.912 415.599 41.368ZM423.944 37.496H425.64V45.128H423.944V37.496ZM423.832 34.648C423.832 34.088 424.232 33.688 424.792 33.688C425.352 33.688 425.752 34.088 425.752 34.648C425.752 35.208 425.352 35.608 424.792 35.608C424.232 35.608 423.832 35.208 423.832 34.648ZM429.716 41.864C429.716 43.032 430.404 43.752 431.412 43.752C432.484 43.752 433.22 43.048 433.204 41.88V37.512H434.916V45.144H433.204V44.264C432.724 44.856 431.94 45.208 431.188 45.208C429.348 45.208 428.02 43.88 428.02 41.928V37.512H429.716V41.864ZM446.794 40.808C446.794 39.72 446.202 39 445.338 39C444.362 39 443.706 39.752 443.706 40.728V45.144H441.994V40.808C441.994 39.72 441.418 39 440.57 39C439.594 39 438.906 39.832 438.906 40.904V45.144H437.21V37.512H438.906V38.552C439.354 37.944 440.01 37.528 440.73 37.528C441.642 37.528 442.538 38.104 442.986 38.904C443.514 38.104 444.538 37.528 445.45 37.528C447.258 37.528 448.506 38.872 448.506 40.744V45.144H446.794V40.808ZM454.44 45.144V37.512H456.136V38.632C456.648 37.912 457.576 37.432 458.472 37.48V39.048C457.112 38.984 456.136 40.184 456.136 41.352V45.144H454.44ZM460.413 37.496H462.109V45.128H460.413V37.496ZM460.301 34.648C460.301 34.088 460.701 33.688 461.261 33.688C461.821 33.688 462.221 34.088 462.221 34.648C462.221 35.208 461.821 35.608 461.261 35.608C460.701 35.608 460.301 35.208 460.301 34.648ZM465.529 42.52C465.865 43.352 466.697 43.736 467.209 43.736C468.009 43.736 468.521 43.432 468.521 42.904C468.521 42.424 467.817 42.2 467.033 41.928C465.993 41.56 464.521 41.064 464.521 39.592C464.521 38.248 465.753 37.432 467.321 37.432C468.265 37.432 469.673 37.976 470.057 39.352L468.633 39.864C468.377 39.016 467.689 38.888 467.321 38.888C466.649 38.888 466.217 39.16 466.217 39.592C466.217 40.072 466.873 40.264 467.689 40.552C468.777 40.936 470.217 41.432 470.217 42.888C470.217 44.28 468.985 45.192 467.209 45.192C466.041 45.192 464.761 44.456 464.201 43.288L465.529 42.52ZM473.764 33.704V40.664L476.484 37.512H478.772L475.796 40.92L478.708 45.144H476.644L474.58 42.184L473.764 43.144V45.144H472.068V33.704H473.764Z" fill="#6D0CA6"/>
<rect width="1" height="12" transform="matrix(-1 0 0 1 574 20)" fill="#D9D9D9"/>
<rect width="1" height="77" transform="matrix(0 -1 -1 0 573 26.5)" fill="#D9D9D9"/>
<rect x="582" y="20" width="1" height="12" fill="#D9D9D9"/>
<rect x="583" y="26.5" width="1" height="50.5" transform="rotate(-90 583 26.5)" fill="#D9D9D9"/>
<path d="M663.061 15.768C663.749 17.112 664.725 17.784 665.749 17.784C667.269 17.8 668.117 17.064 668.117 15.928C668.117 13.24 662.181 14.392 662.181 10.28C662.181 8.328 663.781 7.176 665.973 7.192C667.493 7.208 668.949 8.056 669.605 9.896L668.085 10.44C667.669 9.208 666.837 8.68 665.957 8.664C664.693 8.664 663.877 9.288 663.877 10.28C663.877 12.936 669.797 11.928 669.797 15.944C669.797 17.928 668.245 19.288 665.733 19.256C664.005 19.24 662.629 18.248 661.653 16.552L663.061 15.768ZM673.739 15.864C673.739 17.032 674.427 17.752 675.435 17.752C676.507 17.752 677.243 17.048 677.227 15.88V11.512H678.939V19.144H677.227V18.264C676.747 18.856 675.963 19.208 675.211 19.208C673.371 19.208 672.043 17.88 672.043 15.928V11.512H673.739V15.864ZM685.025 17.752C686.257 17.752 687.057 16.792 687.057 15.336C687.057 13.88 686.257 12.92 685.025 12.92C683.873 12.92 682.929 13.992 682.929 15.336C682.929 16.68 683.873 17.752 685.025 17.752ZM681.217 22.52V11.496H682.913V12.616C683.521 11.816 684.529 11.496 685.121 11.496C687.249 11.496 688.753 13.08 688.753 15.336C688.753 17.608 687.249 19.192 685.121 19.192C684.513 19.192 683.521 18.856 682.913 18.056V22.52H681.217ZM694.369 17.752C695.601 17.752 696.401 16.792 696.401 15.336C696.401 13.88 695.601 12.92 694.369 12.92C693.217 12.92 692.273 13.992 692.273 15.336C692.273 16.68 693.217 17.752 694.369 17.752ZM690.561 22.52V11.496H692.257V12.616C692.865 11.816 693.873 11.496 694.465 11.496C696.593 11.496 698.097 13.08 698.097 15.336C698.097 17.608 696.593 19.192 694.465 19.192C693.857 19.192 692.865 18.856 692.257 18.056V22.52H690.561ZM699.681 7.704H701.377V19.128H699.681V7.704ZM703.718 11.496H705.414V19.128H703.718V11.496ZM703.606 8.648C703.606 8.088 704.006 7.688 704.566 7.688C705.126 7.688 705.526 8.088 705.526 8.648C705.526 9.208 705.126 9.608 704.566 9.608C704.006 9.608 703.606 9.208 703.606 8.648ZM711.153 19.176C708.993 19.176 707.473 17.592 707.473 15.352C707.473 13.096 708.993 11.512 711.153 11.512C713.521 11.512 714.273 13.448 714.321 13.576C714.785 14.664 714.641 15.88 714.641 16.008H709.137C709.329 17.032 710.193 17.736 711.153 17.736C712.417 17.736 712.929 17 713.057 16.776L714.417 17.384C714.049 18.248 712.977 19.176 711.153 19.176ZM709.137 14.664H713.041C712.881 13.72 712.337 12.952 711.153 12.952C710.129 12.952 709.329 13.672 709.137 14.664ZM716.369 19.144V11.512H718.065V12.632C718.577 11.912 719.505 11.432 720.401 11.48V13.048C719.041 12.984 718.065 14.184 718.065 15.352V19.144H716.369ZM722.787 16.52C723.123 17.352 723.955 17.736 724.467 17.736C725.266 17.736 725.779 17.432 725.779 16.904C725.779 16.424 725.075 16.2 724.291 15.928C723.251 15.56 721.779 15.064 721.779 13.592C721.779 12.248 723.011 11.432 724.579 11.432C725.523 11.432 726.931 11.976 727.315 13.352L725.891 13.864C725.635 13.016 724.947 12.888 724.579 12.888C723.907 12.888 723.475 13.16 723.475 13.592C723.475 14.072 724.131 14.264 724.947 14.552C726.035 14.936 727.475 15.432 727.475 16.888C727.475 18.28 726.243 19.192 724.467 19.192C723.299 19.192 722.019 18.456 721.459 17.288L722.787 16.52ZM666.138 33.32L662.858 45.128H661.274L658.506 36.248L655.898 45.128H654.298L650.698 33.32H652.474L655.098 42.088L657.594 33.336H659.402L661.962 42.088L664.362 33.32H666.138ZM667.921 37.496H669.617V45.128H667.921V37.496ZM667.809 34.648C667.809 34.088 668.209 33.688 668.769 33.688C669.329 33.688 669.729 34.088 669.729 34.648C669.729 35.208 669.329 35.608 668.769 35.608C668.209 35.608 667.809 35.208 667.809 34.648ZM672.941 45.144V38.968H671.501V37.496H672.941V34.824H674.637V37.496H676.445V38.968H674.637V45.144H672.941ZM683.275 40.968C683.275 39.704 682.667 38.904 681.755 38.904C680.699 38.904 679.883 39.896 679.883 41.128V45H678.187V33.704H679.883V38.408C680.347 37.816 681.099 37.432 681.755 37.432C683.643 37.432 684.987 38.84 684.987 40.776V45H683.275V40.968ZM690.868 33.704H692.564V45.128H690.868V33.704ZM697.841 43.752C699.025 43.752 699.825 42.808 699.825 41.352C699.825 39.912 699.025 38.952 697.841 38.952C696.657 38.952 695.857 39.896 695.857 41.352C695.857 42.808 696.641 43.752 697.841 43.752ZM694.161 41.352C694.161 39.096 695.681 37.496 697.841 37.496C700.001 37.496 701.521 39.096 701.521 41.352C701.521 43.592 700.001 45.208 697.841 45.208C695.681 45.208 694.161 43.592 694.161 41.352ZM712.862 37.512L710.622 45.144H709.054L707.55 40.216L706.078 45.144H704.51L702.222 37.512H703.982L705.31 42.392L706.686 37.512H708.382L709.806 42.392L711.102 37.512H712.862ZM718.338 45.144V37.512H720.034V38.632C720.546 37.912 721.474 37.432 722.37 37.48V39.048C721.01 38.984 720.034 40.184 720.034 41.352V45.144H718.338ZM724.312 37.496H726.008V45.128H724.312V37.496ZM724.2 34.648C724.2 34.088 724.6 33.688 725.16 33.688C725.72 33.688 726.12 34.088 726.12 34.648C726.12 35.208 725.72 35.608 725.16 35.608C724.6 35.608 724.2 35.208 724.2 34.648ZM729.427 42.52C729.763 43.352 730.595 43.736 731.107 43.736C731.907 43.736 732.419 43.432 732.419 42.904C732.419 42.424 731.715 42.2 730.931 41.928C729.891 41.56 728.419 41.064 728.419 39.592C728.419 38.248 729.651 37.432 731.219 37.432C732.163 37.432 733.571 37.976 733.955 39.352L732.531 39.864C732.275 39.016 731.587 38.888 731.219 38.888C730.547 38.888 730.115 39.16 730.115 39.592C730.115 40.072 730.771 40.264 731.587 40.552C732.675 40.936 734.115 41.432 734.115 42.888C734.115 44.28 732.883 45.192 731.107 45.192C729.939 45.192 728.659 44.456 728.099 43.288L729.427 42.52ZM737.663 33.704V40.664L740.383 37.512H742.671L739.695 40.92L742.607 45.144H740.543L738.479 42.184L737.663 43.144V45.144H735.967V33.704H737.663Z" fill="#3F3F46"/>
<rect width="1" height="12" transform="matrix(-1 0 0 1 811 20)" fill="#D9D9D9"/>
<rect width="1" height="50.5" transform="matrix(0 -1 -1 0 810 26.5)" fill="#D9D9D9"/>
<mask id="path-16-inside-1_4487_5576" fill="white">
<path d="M0 64H126V94H0V64Z"/>
</mask>
<path d="M0 64H126V94H0V64Z" fill="#F6F6F7"/>
<path d="M125 64V94H127V64H125Z" fill="#E4E4E7" mask="url(#path-16-inside-1_4487_5576)"/>
<path d="M47.934 73.85V74.886H42.712V78.274H47.22V79.31H42.712V83.006H47.934V84.042H41.536V73.85H47.934ZM50.7078 81.298C51.2398 82.362 52.1358 83.118 53.1858 83.118C54.5578 83.146 55.4118 82.446 55.4118 81.354C55.4118 78.75 50.1758 79.842 50.1758 76.3C50.1758 74.662 51.5478 73.724 53.3678 73.738C54.7678 73.766 55.9018 74.508 56.3918 75.992L55.3418 76.356C55.0338 75.362 54.2778 74.788 53.3538 74.774C52.1778 74.76 51.3378 75.32 51.3378 76.3C51.3378 78.876 56.5738 77.826 56.5738 81.368C56.5738 83.048 55.2578 84.182 53.1718 84.154C51.6878 84.126 50.5538 83.3 49.7138 81.83L50.7078 81.298ZM67.8403 78.736L67.8263 79.576C67.8263 82.474 65.7823 84.098 63.0383 84.154C60.0983 84.154 58.0123 81.998 58.0123 78.946C58.0123 75.894 60.0983 73.752 63.0383 73.752C66.2163 73.752 67.3083 76.216 67.3083 76.216L66.2863 76.706C66.2863 76.706 65.4603 74.788 63.0383 74.788C60.7703 74.788 59.1883 76.496 59.1883 78.946C59.1883 81.41 60.7703 83.118 63.0383 83.118C65.1382 83.048 66.6923 81.97 66.7063 79.744H63.2203V78.736H67.8403ZM70.0536 78.26H76.0316V79.422H70.0536V78.26ZM79.9862 84.014H78.7122L82.7582 74.9H77.9282V73.864H83.8922L84.0322 74.9L79.9862 84.014Z" fill="#3F3F46"/>
<rect width="126" height="30" transform="translate(126 64)" fill="#F47725"/>
<path d="M173.934 73.85V74.886H168.712V78.274H173.22V79.31H168.712V83.006H173.934V84.042H167.536V73.85H173.934ZM176.708 81.298C177.24 82.362 178.136 83.118 179.186 83.118C180.558 83.146 181.412 82.446 181.412 81.354C181.412 78.75 176.176 79.842 176.176 76.3C176.176 74.662 177.548 73.724 179.368 73.738C180.768 73.766 181.902 74.508 182.392 75.992L181.342 76.356C181.034 75.362 180.278 74.788 179.354 74.774C178.178 74.76 177.338 75.32 177.338 76.3C177.338 78.876 182.574 77.826 182.574 81.368C182.574 83.048 181.258 84.182 179.172 84.154C177.688 84.126 176.554 83.3 175.714 81.83L176.708 81.298ZM193.84 78.736L193.826 79.576C193.826 82.474 191.782 84.098 189.038 84.154C186.098 84.154 184.012 81.998 184.012 78.946C184.012 75.894 186.098 73.752 189.038 73.752C192.216 73.752 193.308 76.216 193.308 76.216L192.286 76.706C192.286 76.706 191.46 74.788 189.038 74.788C186.77 74.788 185.188 76.496 185.188 78.946C185.188 81.41 186.77 83.118 189.038 83.118C191.138 83.048 192.692 81.97 192.706 79.744H189.22V78.736H193.84ZM196.054 78.26H202.032V79.422H196.054V78.26ZM207.106 83.09C208.436 83.09 209.36 82.138 209.36 80.78C209.36 79.408 208.436 78.456 207.106 78.456C205.818 78.456 204.894 79.408 204.894 80.78C204.894 82.138 205.818 83.09 207.106 83.09ZM203.732 80.78C203.732 80.052 203.97 79.408 204.264 78.876L207.106 73.864H208.45L206.364 77.504C206.616 77.462 206.868 77.42 207.134 77.42C209.136 77.42 210.522 78.806 210.522 80.78C210.522 82.74 209.122 84.126 207.134 84.126C205.132 84.126 203.732 82.74 203.732 80.78Z" fill="white"/>
<rect width="108.667" height="30" transform="translate(252 64)" fill="#9735D0"/>
<path d="M291.27 73.85V74.886H286.048V78.274H290.556V79.31H286.048V83.006H291.27V84.042H284.872V73.85H291.27ZM294.044 81.298C294.576 82.362 295.472 83.118 296.522 83.118C297.894 83.146 298.748 82.446 298.748 81.354C298.748 78.75 293.512 79.842 293.512 76.3C293.512 74.662 294.884 73.724 296.704 73.738C298.104 73.766 299.238 74.508 299.728 75.992L298.678 76.356C298.37 75.362 297.614 74.788 296.69 74.774C295.514 74.76 294.674 75.32 294.674 76.3C294.674 78.876 299.91 77.826 299.91 81.368C299.91 83.048 298.594 84.182 296.508 84.154C295.024 84.126 293.89 83.3 293.05 81.83L294.044 81.298ZM311.176 78.736L311.162 79.576C311.162 82.474 309.118 84.098 306.374 84.154C303.434 84.154 301.348 81.998 301.348 78.946C301.348 75.894 303.434 73.752 306.374 73.752C309.552 73.752 310.644 76.216 310.644 76.216L309.622 76.706C309.622 76.706 308.796 74.788 306.374 74.788C304.106 74.788 302.524 76.496 302.524 78.946C302.524 81.41 304.106 83.118 306.374 83.118C308.474 83.048 310.028 81.97 310.042 79.744H306.556V78.736H311.176ZM313.39 78.26H319.368V79.422H313.39V78.26ZM322.692 79.31L321.53 79.142L321.866 73.864H327.032V74.9H322.986L322.79 77.812C323.294 77.546 323.868 77.392 324.386 77.392C326.416 77.392 327.858 78.778 327.858 80.738C327.858 82.74 326.416 84.154 324.386 84.154C322.804 84.154 321.432 83.09 321.082 81.578L322.216 81.312C322.44 82.334 323.336 83.048 324.386 83.048C325.744 83.048 326.696 82.096 326.696 80.738C326.696 79.422 325.744 78.498 324.386 78.498C323.812 78.498 323.112 78.834 322.692 79.31Z" fill="white"/>
<mask id="path-21-inside-2_4487_5576" fill="white">
<path d="M360.664 64H469.331V94H360.664V64Z"/>
</mask>
<path d="M360.664 64H469.331V94H360.664V64Z" fill="#F6F6F7"/>
<path d="M468.331 64V94H470.331V64H468.331Z" fill="#E4E4E7" mask="url(#path-21-inside-2_4487_5576)"/>
<path d="M399.434 73.85V74.886H394.212V78.274H398.72V79.31H394.212V83.006H399.434V84.042H393.036V73.85H399.434ZM402.208 81.298C402.74 82.362 403.636 83.118 404.686 83.118C406.058 83.146 406.912 82.446 406.912 81.354C406.912 78.75 401.676 79.842 401.676 76.3C401.676 74.662 403.048 73.724 404.868 73.738C406.268 73.766 407.402 74.508 407.892 75.992L406.842 76.356C406.534 75.362 405.778 74.788 404.854 74.774C403.678 74.76 402.838 75.32 402.838 76.3C402.838 78.876 408.074 77.826 408.074 81.368C408.074 83.048 406.758 84.182 404.672 84.154C403.188 84.126 402.054 83.3 401.214 81.83L402.208 81.298ZM419.34 78.736L419.326 79.576C419.326 82.474 417.282 84.098 414.538 84.154C411.598 84.154 409.512 81.998 409.512 78.946C409.512 75.894 411.598 73.752 414.538 73.752C417.716 73.752 418.808 76.216 418.808 76.216L417.786 76.706C417.786 76.706 416.96 74.788 414.538 74.788C412.27 74.788 410.688 76.496 410.688 78.946C410.688 81.41 412.27 83.118 414.538 83.118C416.638 83.048 418.192 81.97 418.206 79.744H414.72V78.736H419.34ZM421.554 78.26H427.532V79.422H421.554V78.26ZM434.944 73.878V80.22H436.372V81.242H434.944V84.014H433.782V81.242H429.372L429.232 80.22L433.824 73.878H434.944ZM430.646 80.22H433.782V75.88L430.646 80.22Z" fill="#3F3F46"/>
<mask id="path-24-inside-3_4487_5576" fill="white">
<path d="M469.336 64H578.003V94H469.336V64Z"/>
</mask>
<path d="M469.336 64H578.003V94H469.336V64Z" fill="#F6F6F7"/>
<path d="M577.003 64V94H579.003V64H577.003Z" fill="#E4E4E7" mask="url(#path-24-inside-3_4487_5576)"/>
<path d="M508.606 73.85V74.886H503.384V78.274H507.892V79.31H503.384V83.006H508.606V84.042H502.208V73.85H508.606ZM511.38 81.298C511.912 82.362 512.808 83.118 513.858 83.118C515.23 83.146 516.084 82.446 516.084 81.354C516.084 78.75 510.848 79.842 510.848 76.3C510.848 74.662 512.22 73.724 514.04 73.738C515.44 73.766 516.574 74.508 517.064 75.992L516.014 76.356C515.706 75.362 514.95 74.788 514.026 74.774C512.85 74.76 512.01 75.32 512.01 76.3C512.01 78.876 517.246 77.826 517.246 81.368C517.246 83.048 515.93 84.182 513.844 84.154C512.36 84.126 511.226 83.3 510.386 81.83L511.38 81.298ZM528.512 78.736L528.498 79.576C528.498 82.474 526.454 84.098 523.71 84.154C520.77 84.154 518.684 81.998 518.684 78.946C518.684 75.894 520.77 73.752 523.71 73.752C526.888 73.752 527.98 76.216 527.98 76.216L526.958 76.706C526.958 76.706 526.132 74.788 523.71 74.788C521.442 74.788 519.86 76.496 519.86 78.946C519.86 81.41 521.442 83.118 523.71 83.118C525.81 83.048 527.364 81.97 527.378 79.744H523.892V78.736H528.512ZM530.725 78.26H536.703V79.422H530.725V78.26ZM543.626 78.778C544.522 79.324 545.04 80.304 545.04 81.144C545.04 82.88 543.668 84.098 541.722 84.098C539.776 84.098 538.404 82.866 538.404 81.116H539.566C539.566 82.264 540.462 83.062 541.722 83.062C542.996 83.062 543.892 82.264 543.892 81.13C543.892 80.052 542.996 79.282 541.75 79.282H541.008V78.246H541.75C542.912 78.246 543.752 77.56 543.752 76.566C543.752 75.544 542.94 74.83 541.806 74.83C540.658 74.83 539.86 75.558 539.86 76.594H538.698C538.698 74.942 539.972 73.794 541.806 73.794C543.612 73.794 544.9 74.928 544.9 76.552C544.9 77.322 544.438 78.232 543.626 78.778Z" fill="#3F3F46"/>
<mask id="path-27-inside-4_4487_5576" fill="white">
<path d="M578 64H696.5V94H578V64Z"/>
</mask>
<path d="M578 64H696.5V94H578V64Z" fill="#F6F6F7"/>
<path d="M695.5 64V94H697.5V64H695.5Z" fill="#E4E4E7" mask="url(#path-27-inside-4_4487_5576)"/>
<path d="M622.184 73.85V74.886H616.962V78.274H621.47V79.31H616.962V83.006H622.184V84.042H615.786V73.85H622.184ZM624.958 81.298C625.49 82.362 626.386 83.118 627.436 83.118C628.808 83.146 629.662 82.446 629.662 81.354C629.662 78.75 624.426 79.842 624.426 76.3C624.426 74.662 625.798 73.724 627.618 73.738C629.018 73.766 630.152 74.508 630.642 75.992L629.592 76.356C629.284 75.362 628.528 74.788 627.604 74.774C626.428 74.76 625.588 75.32 625.588 76.3C625.588 78.876 630.824 77.826 630.824 81.368C630.824 83.048 629.508 84.182 627.422 84.154C625.938 84.126 624.804 83.3 623.964 81.83L624.958 81.298ZM642.09 78.736L642.076 79.576C642.076 82.474 640.032 84.098 637.288 84.154C634.348 84.154 632.262 81.998 632.262 78.946C632.262 75.894 634.348 73.752 637.288 73.752C640.466 73.752 641.558 76.216 641.558 76.216L640.536 76.706C640.536 76.706 639.71 74.788 637.288 74.788C635.02 74.788 633.438 76.496 633.438 78.946C633.438 81.41 635.02 83.118 637.288 83.118C639.388 83.048 640.942 81.97 640.956 79.744H637.47V78.736H642.09ZM644.304 78.26H650.282V79.422H644.304V78.26ZM652.094 82.992C654.11 81.046 657.064 78.75 657.064 76.944C657.064 75.698 656.266 74.816 655.132 74.816C654.292 74.816 653.438 75.432 653.046 76.328L651.996 75.866C652.542 74.634 653.844 73.766 655.132 73.766C656.952 73.766 658.226 75.082 658.226 76.944C658.226 79.086 655.636 81.228 653.704 82.992H658.394V84.028H652.234L652.094 82.992Z" fill="#3F3F46"/>
<rect width="118.5" height="30" transform="translate(696.5 64)" fill="#F6F6F7"/>
<path d="M742.184 73.85V74.886H736.962V78.274H741.47V79.31H736.962V83.006H742.184V84.042H735.786V73.85H742.184ZM744.958 81.298C745.49 82.362 746.386 83.118 747.436 83.118C748.808 83.146 749.662 82.446 749.662 81.354C749.662 78.75 744.426 79.842 744.426 76.3C744.426 74.662 745.798 73.724 747.618 73.738C749.018 73.766 750.152 74.508 750.642 75.992L749.592 76.356C749.284 75.362 748.528 74.788 747.604 74.774C746.428 74.76 745.588 75.32 745.588 76.3C745.588 78.876 750.824 77.826 750.824 81.368C750.824 83.048 749.508 84.182 747.422 84.154C745.938 84.126 744.804 83.3 743.964 81.83L744.958 81.298ZM762.09 78.736L762.076 79.576C762.076 82.474 760.032 84.098 757.288 84.154C754.348 84.154 752.262 81.998 752.262 78.946C752.262 75.894 754.348 73.752 757.288 73.752C760.466 73.752 761.558 76.216 761.558 76.216L760.536 76.706C760.536 76.706 759.71 74.788 757.288 74.788C755.02 74.788 753.438 76.496 753.438 78.946C753.438 81.41 755.02 83.118 757.288 83.118C759.388 83.048 760.942 81.97 760.956 79.744H757.47V78.736H762.09ZM764.304 78.26H770.282V79.422H764.304V78.26ZM775.272 73.892V84.014H774.11V75.18L772.458 76.244L771.884 75.32L774.11 73.892H775.272Z" fill="#3F3F46"/>
<path d="M55.5787 123.56C57.9147 121.32 61.0987 119.048 61.0987 117.08C61.0987 115.768 60.2667 114.84 59.0827 114.84C58.1707 114.84 57.2587 115.496 56.8427 116.44L55.3547 115.784C55.9947 114.312 57.5467 113.288 59.0827 113.288C61.2747 113.288 62.7947 114.856 62.7947 117.08C62.7947 119.528 60.1387 121.704 57.9787 123.56H62.9867V125.048H55.7387L55.5787 123.56ZM67.4534 125.08H65.5974L70.1574 114.84L64.8134 114.856V113.352H71.8534L72.0134 114.84L67.4534 125.08ZM79.1158 121.768C79.8038 123.112 80.7798 123.784 81.8038 123.784C83.3238 123.8 84.1718 123.064 84.1718 121.928C84.1718 119.24 78.2358 120.392 78.2358 116.28C78.2358 114.328 79.8358 113.176 82.0278 113.192C83.5478 113.208 85.0038 114.056 85.6598 115.896L84.1398 116.44C83.7238 115.208 82.8918 114.68 82.0118 114.664C80.7478 114.664 79.9318 115.288 79.9318 116.28C79.9318 118.936 85.8518 117.928 85.8518 121.944C85.8518 123.928 84.2998 125.288 81.7878 125.256C80.0598 125.24 78.6838 124.248 77.7078 122.552L79.1158 121.768ZM89.7941 121.864C89.7941 123.032 90.4821 123.752 91.4901 123.752C92.5621 123.752 93.2981 123.048 93.2821 121.88V117.512H94.9941V125.144H93.2821V124.264C92.8021 124.856 92.0181 125.208 91.2661 125.208C89.4261 125.208 88.0981 123.88 88.0981 121.928V117.512H89.7941V121.864ZM101.08 123.752C102.312 123.752 103.112 122.792 103.112 121.336C103.112 119.88 102.312 118.92 101.08 118.92C99.9278 118.92 98.9838 119.992 98.9838 121.336C98.9838 122.68 99.9278 123.752 101.08 123.752ZM97.2718 128.52V117.496H98.9678V118.616C99.5758 117.816 100.584 117.496 101.176 117.496C103.304 117.496 104.808 119.08 104.808 121.336C104.808 123.608 103.304 125.192 101.176 125.192C100.568 125.192 99.5758 124.856 98.9678 124.056V128.52H97.2718ZM110.424 123.752C111.656 123.752 112.456 122.792 112.456 121.336C112.456 119.88 111.656 118.92 110.424 118.92C109.272 118.92 108.328 119.992 108.328 121.336C108.328 122.68 109.272 123.752 110.424 123.752ZM106.616 128.52V117.496H108.312V118.616C108.92 117.816 109.928 117.496 110.52 117.496C112.648 117.496 114.152 119.08 114.152 121.336C114.152 123.608 112.648 125.192 110.52 125.192C109.912 125.192 108.92 124.856 108.312 124.056V128.52H106.616ZM115.735 113.704H117.431V125.128H115.735V113.704ZM119.773 117.496H121.469V125.128H119.773V117.496ZM119.661 114.648C119.661 114.088 120.061 113.688 120.621 113.688C121.181 113.688 121.581 114.088 121.581 114.648C121.581 115.208 121.181 115.608 120.621 115.608C120.061 115.608 119.661 115.208 119.661 114.648ZM127.208 125.176C125.048 125.176 123.528 123.592 123.528 121.352C123.528 119.096 125.048 117.512 127.208 117.512C129.576 117.512 130.328 119.448 130.376 119.576C130.84 120.664 130.696 121.88 130.696 122.008H125.192C125.384 123.032 126.248 123.736 127.208 123.736C128.472 123.736 128.984 123 129.112 122.776L130.472 123.384C130.104 124.248 129.032 125.176 127.208 125.176ZM125.192 120.664H129.096C128.936 119.72 128.392 118.952 127.208 118.952C126.184 118.952 125.384 119.672 125.192 120.664ZM132.424 125.144V117.512H134.12V118.632C134.632 117.912 135.56 117.432 136.456 117.48V119.048C135.096 118.984 134.12 120.184 134.12 121.352V125.144H132.424ZM138.841 122.52C139.177 123.352 140.009 123.736 140.521 123.736C141.321 123.736 141.833 123.432 141.833 122.904C141.833 122.424 141.129 122.2 140.345 121.928C139.305 121.56 137.833 121.064 137.833 119.592C137.833 118.248 139.065 117.432 140.633 117.432C141.577 117.432 142.985 117.976 143.369 119.352L141.945 119.864C141.689 119.016 141.001 118.888 140.633 118.888C139.961 118.888 139.529 119.16 139.529 119.592C139.529 120.072 140.185 120.264 141.001 120.552C142.089 120.936 143.529 121.432 143.529 122.888C143.529 124.28 142.297 125.192 140.521 125.192C139.353 125.192 138.073 124.456 137.513 123.288L138.841 122.52ZM149.797 119.224C149.797 117.144 150.613 114.408 151.765 112.584H153.557C152.245 114.392 151.333 117.128 151.333 119.224C151.333 121.32 152.245 124.056 153.557 125.864H151.765C150.613 124.04 149.797 121.304 149.797 119.224ZM162.25 113.4V120.568H163.722V122.04H162.25V125.048H160.554V122.04H155.546L155.386 120.568L160.634 113.4H162.25ZM157.402 120.568H160.554V116.232L157.402 120.568ZM169.26 123.784C170.588 123.784 171.516 122.936 171.516 121.72C171.516 120.504 170.588 119.64 169.26 119.64C167.932 119.64 166.988 120.504 166.988 121.72C166.988 122.936 167.932 123.784 169.26 123.784ZM165.292 121.752C165.292 120.728 166.092 119.544 167.212 118.92C166.284 118.28 165.612 117.24 165.612 116.408C165.612 114.52 167.116 113.208 169.26 113.208C171.404 113.208 172.908 114.52 172.908 116.408C172.908 117.256 172.252 118.296 171.308 118.92C172.428 119.56 173.228 120.728 173.228 121.752C173.228 123.8 171.596 125.24 169.26 125.24C166.94 125.24 165.292 123.8 165.292 121.752ZM167.324 116.408C167.324 117.448 168.124 118.184 169.26 118.184C170.412 118.184 171.212 117.448 171.212 116.408C171.212 115.368 170.412 114.648 169.26 114.648C168.124 114.648 167.324 115.368 167.324 116.408ZM178.024 125.096L185.384 113.32H187.128L179.736 125.096H178.024ZM175.32 116.328C175.32 114.536 176.68 113.128 178.44 113.128C180.168 113.128 181.544 114.536 181.544 116.328C181.544 118.12 180.168 119.528 178.44 119.528C176.68 119.528 175.32 118.12 175.32 116.328ZM176.92 116.328C176.92 117.224 177.576 117.944 178.44 117.944C179.288 117.944 179.96 117.224 179.96 116.328C179.96 115.432 179.288 114.728 178.44 114.728C177.576 114.728 176.92 115.432 176.92 116.328ZM183.464 121.992C183.464 120.2 184.824 118.792 186.584 118.792C188.312 118.792 189.688 120.2 189.688 121.992C189.688 123.784 188.312 125.208 186.584 125.208C184.824 125.208 183.464 123.784 183.464 121.992ZM185.064 121.992C185.064 122.888 185.72 123.608 186.584 123.608C187.432 123.608 188.104 122.888 188.104 121.992C188.104 121.096 187.432 120.392 186.584 120.392C185.72 120.392 185.064 121.096 185.064 121.992ZM195.761 119.224C195.761 121.304 194.961 124.024 193.809 125.864H192.017C193.313 124.072 194.225 121.32 194.225 119.224C194.225 117.128 193.313 114.376 192.017 112.584H193.809C194.961 114.424 195.761 117.144 195.761 119.224Z" fill="#F47725"/>
<path d="M344.571 123.56C346.907 121.32 350.091 119.048 350.091 117.08C350.091 115.768 349.259 114.84 348.075 114.84C347.163 114.84 346.251 115.496 345.835 116.44L344.347 115.784C344.987 114.312 346.539 113.288 348.075 113.288C350.267 113.288 351.787 114.856 351.787 117.08C351.787 119.528 349.131 121.704 346.971 123.56H351.979V125.048H344.731L344.571 123.56ZM357.598 114.76C356.222 114.76 355.246 115.752 355.246 117.16C355.246 118.568 356.222 119.56 357.598 119.56C358.958 119.56 359.918 118.568 359.918 117.16C359.918 115.752 358.958 114.76 357.598 114.76ZM353.55 117.16C353.55 114.872 355.214 113.272 357.582 113.272C359.95 113.272 361.614 114.872 361.614 117.16C361.614 117.992 361.31 118.76 360.974 119.368L357.774 125.064H355.822L358.142 120.984C357.95 121.016 357.758 121.048 357.55 121.048C355.198 121.032 353.55 119.432 353.55 117.16ZM368.686 121.768C369.374 123.112 370.35 123.784 371.374 123.784C372.894 123.8 373.742 123.064 373.742 121.928C373.742 119.24 367.806 120.392 367.806 116.28C367.806 114.328 369.406 113.176 371.598 113.192C373.118 113.208 374.574 114.056 375.23 115.896L373.71 116.44C373.294 115.208 372.462 114.68 371.582 114.664C370.318 114.664 369.502 115.288 369.502 116.28C369.502 118.936 375.422 117.928 375.422 121.944C375.422 123.928 373.87 125.288 371.358 125.256C369.63 125.24 368.254 124.248 367.278 122.552L368.686 121.768ZM379.364 121.864C379.364 123.032 380.052 123.752 381.06 123.752C382.132 123.752 382.868 123.048 382.852 121.88V117.512H384.564V125.144H382.852V124.264C382.372 124.856 381.588 125.208 380.836 125.208C378.996 125.208 377.668 123.88 377.668 121.928V117.512H379.364V121.864ZM390.65 123.752C391.882 123.752 392.682 122.792 392.682 121.336C392.682 119.88 391.882 118.92 390.65 118.92C389.498 118.92 388.554 119.992 388.554 121.336C388.554 122.68 389.498 123.752 390.65 123.752ZM386.842 128.52V117.496H388.538V118.616C389.146 117.816 390.154 117.496 390.746 117.496C392.874 117.496 394.378 119.08 394.378 121.336C394.378 123.608 392.874 125.192 390.746 125.192C390.138 125.192 389.146 124.856 388.538 124.056V128.52H386.842ZM399.994 123.752C401.226 123.752 402.026 122.792 402.026 121.336C402.026 119.88 401.226 118.92 399.994 118.92C398.842 118.92 397.898 119.992 397.898 121.336C397.898 122.68 398.842 123.752 399.994 123.752ZM396.186 128.52V117.496H397.882V118.616C398.49 117.816 399.498 117.496 400.09 117.496C402.218 117.496 403.722 119.08 403.722 121.336C403.722 123.608 402.218 125.192 400.09 125.192C399.482 125.192 398.49 124.856 397.882 124.056V128.52H396.186ZM405.306 113.704H407.002V125.128H405.306V113.704ZM409.343 117.496H411.039V125.128H409.343V117.496ZM409.231 114.648C409.231 114.088 409.631 113.688 410.191 113.688C410.751 113.688 411.151 114.088 411.151 114.648C411.151 115.208 410.751 115.608 410.191 115.608C409.631 115.608 409.231 115.208 409.231 114.648ZM416.778 125.176C414.618 125.176 413.098 123.592 413.098 121.352C413.098 119.096 414.618 117.512 416.778 117.512C419.146 117.512 419.898 119.448 419.946 119.576C420.41 120.664 420.266 121.88 420.266 122.008H414.762C414.954 123.032 415.818 123.736 416.778 123.736C418.042 123.736 418.554 123 418.682 122.776L420.042 123.384C419.674 124.248 418.602 125.176 416.778 125.176ZM414.762 120.664H418.666C418.506 119.72 417.962 118.952 416.778 118.952C415.754 118.952 414.954 119.672 414.762 120.664ZM421.994 125.144V117.512H423.69V118.632C424.202 117.912 425.13 117.432 426.026 117.48V119.048C424.666 118.984 423.69 120.184 423.69 121.352V125.144H421.994ZM428.412 122.52C428.748 123.352 429.58 123.736 430.092 123.736C430.891 123.736 431.404 123.432 431.404 122.904C431.404 122.424 430.7 122.2 429.916 121.928C428.876 121.56 427.404 121.064 427.404 119.592C427.404 118.248 428.636 117.432 430.204 117.432C431.148 117.432 432.556 117.976 432.94 119.352L431.516 119.864C431.26 119.016 430.572 118.888 430.204 118.888C429.532 118.888 429.1 119.16 429.1 119.592C429.1 120.072 429.756 120.264 430.572 120.552C431.66 120.936 433.1 121.432 433.1 122.888C433.1 124.28 431.868 125.192 430.092 125.192C428.924 125.192 427.644 124.456 427.084 123.288L428.412 122.52ZM439.367 119.224C439.367 117.144 440.183 114.408 441.335 112.584H443.127C441.815 114.392 440.903 117.128 440.903 119.224C440.903 121.32 441.815 124.056 443.127 125.864H441.335C440.183 124.04 439.367 121.304 439.367 119.224ZM447.116 119.832L445.42 119.624L445.82 113.4H452.044V114.888H447.452L447.26 117.736C447.788 117.496 448.38 117.352 448.908 117.352C451.308 117.352 453.004 118.968 453.004 121.256C453.004 123.576 451.308 125.208 448.908 125.208C447.02 125.208 445.388 123.944 444.972 122.152L446.62 121.768C446.86 122.84 447.804 123.608 448.908 123.608C450.316 123.608 451.308 122.632 451.308 121.256C451.308 119.912 450.316 118.952 448.908 118.952C448.316 118.952 447.58 119.32 447.116 119.832ZM454.821 123.56C457.157 121.32 460.341 119.048 460.341 117.08C460.341 115.768 459.509 114.84 458.325 114.84C457.413 114.84 456.501 115.496 456.085 116.44L454.597 115.784C455.237 114.312 456.789 113.288 458.325 113.288C460.517 113.288 462.037 114.856 462.037 117.08C462.037 119.528 459.381 121.704 457.221 123.56H462.229V125.048H454.981L454.821 123.56ZM467.032 125.096L474.392 113.32H476.136L468.744 125.096H467.032ZM464.328 116.328C464.328 114.536 465.688 113.128 467.448 113.128C469.176 113.128 470.552 114.536 470.552 116.328C470.552 118.12 469.176 119.528 467.448 119.528C465.688 119.528 464.328 118.12 464.328 116.328ZM465.928 116.328C465.928 117.224 466.584 117.944 467.448 117.944C468.296 117.944 468.968 117.224 468.968 116.328C468.968 115.432 468.296 114.728 467.448 114.728C466.584 114.728 465.928 115.432 465.928 116.328ZM472.472 121.992C472.472 120.2 473.832 118.792 475.592 118.792C477.32 118.792 478.696 120.2 478.696 121.992C478.696 123.784 477.32 125.208 475.592 125.208C473.832 125.208 472.472 123.784 472.472 121.992ZM474.072 121.992C474.072 122.888 474.728 123.608 475.592 123.608C476.44 123.608 477.112 122.888 477.112 121.992C477.112 121.096 476.44 120.392 475.592 120.392C474.728 120.392 474.072 121.096 474.072 121.992ZM484.768 119.224C484.768 121.304 483.968 124.024 482.816 125.864H481.024C482.32 124.072 483.232 121.32 483.232 119.224C483.232 117.128 482.32 114.376 481.024 112.584H482.816C483.968 114.424 484.768 117.144 484.768 119.224Z" fill="#6D0CA6"/>
<path d="M638.746 123.656C640.346 123.656 641.418 121.864 641.418 119.224C641.418 116.568 640.346 114.776 638.746 114.776C637.146 114.776 636.058 116.568 636.058 119.224C636.058 121.864 637.146 123.656 638.746 123.656ZM634.362 119.224C634.362 115.736 636.17 113.288 638.746 113.288C641.306 113.288 643.114 115.736 643.114 119.224C643.114 122.696 641.306 125.16 638.746 125.16C636.17 125.16 634.362 122.696 634.362 119.224ZM650.186 121.768C650.874 123.112 651.85 123.784 652.874 123.784C654.394 123.8 655.242 123.064 655.242 121.928C655.242 119.24 649.306 120.392 649.306 116.28C649.306 114.328 650.906 113.176 653.098 113.192C654.618 113.208 656.074 114.056 656.73 115.896L655.21 116.44C654.794 115.208 653.962 114.68 653.082 114.664C651.818 114.664 651.002 115.288 651.002 116.28C651.002 118.936 656.922 117.928 656.922 121.944C656.922 123.928 655.37 125.288 652.858 125.256C651.13 125.24 649.754 124.248 648.778 122.552L650.186 121.768ZM660.864 121.864C660.864 123.032 661.552 123.752 662.56 123.752C663.632 123.752 664.368 123.048 664.352 121.88V117.512H666.064V125.144H664.352V124.264C663.872 124.856 663.088 125.208 662.336 125.208C660.496 125.208 659.168 123.88 659.168 121.928V117.512H660.864V121.864ZM672.15 123.752C673.382 123.752 674.182 122.792 674.182 121.336C674.182 119.88 673.382 118.92 672.15 118.92C670.998 118.92 670.054 119.992 670.054 121.336C670.054 122.68 670.998 123.752 672.15 123.752ZM668.342 128.52V117.496H670.038V118.616C670.646 117.816 671.654 117.496 672.246 117.496C674.374 117.496 675.878 119.08 675.878 121.336C675.878 123.608 674.374 125.192 672.246 125.192C671.638 125.192 670.646 124.856 670.038 124.056V128.52H668.342ZM681.494 123.752C682.726 123.752 683.526 122.792 683.526 121.336C683.526 119.88 682.726 118.92 681.494 118.92C680.342 118.92 679.398 119.992 679.398 121.336C679.398 122.68 680.342 123.752 681.494 123.752ZM677.686 128.52V117.496H679.382V118.616C679.99 117.816 680.998 117.496 681.59 117.496C683.718 117.496 685.222 119.08 685.222 121.336C685.222 123.608 683.718 125.192 681.59 125.192C680.982 125.192 679.99 124.856 679.382 124.056V128.52H677.686ZM686.806 113.704H688.502V125.128H686.806V113.704ZM690.843 117.496H692.539V125.128H690.843V117.496ZM690.731 114.648C690.731 114.088 691.131 113.688 691.691 113.688C692.251 113.688 692.651 114.088 692.651 114.648C692.651 115.208 692.251 115.608 691.691 115.608C691.131 115.608 690.731 115.208 690.731 114.648ZM698.278 125.176C696.118 125.176 694.598 123.592 694.598 121.352C694.598 119.096 696.118 117.512 698.278 117.512C700.646 117.512 701.398 119.448 701.446 119.576C701.91 120.664 701.766 121.88 701.766 122.008H696.262C696.454 123.032 697.318 123.736 698.278 123.736C699.542 123.736 700.054 123 700.182 122.776L701.542 123.384C701.174 124.248 700.102 125.176 698.278 125.176ZM696.262 120.664H700.166C700.006 119.72 699.462 118.952 698.278 118.952C697.254 118.952 696.454 119.672 696.262 120.664ZM703.494 125.144V117.512H705.19V118.632C705.702 117.912 706.63 117.432 707.526 117.48V119.048C706.166 118.984 705.19 120.184 705.19 121.352V125.144H703.494ZM709.912 122.52C710.248 123.352 711.08 123.736 711.592 123.736C712.391 123.736 712.904 123.432 712.904 122.904C712.904 122.424 712.2 122.2 711.416 121.928C710.376 121.56 708.904 121.064 708.904 119.592C708.904 118.248 710.136 117.432 711.704 117.432C712.648 117.432 714.056 117.976 714.44 119.352L713.016 119.864C712.76 119.016 712.072 118.888 711.704 118.888C711.032 118.888 710.6 119.16 710.6 119.592C710.6 120.072 711.256 120.264 712.072 120.552C713.16 120.936 714.6 121.432 714.6 122.888C714.6 124.28 713.368 125.192 711.592 125.192C710.424 125.192 709.144 124.456 708.584 123.288L709.912 122.52ZM720.867 119.224C720.867 117.144 721.683 114.408 722.835 112.584H724.627C723.315 114.392 722.403 117.128 722.403 119.224C722.403 121.32 723.315 124.056 724.627 125.864H722.835C721.683 124.04 720.867 121.304 720.867 119.224ZM730.824 123.656C732.424 123.656 733.496 121.864 733.496 119.224C733.496 116.568 732.424 114.776 730.824 114.776C729.224 114.776 728.136 116.568 728.136 119.224C728.136 121.864 729.224 123.656 730.824 123.656ZM726.44 119.224C726.44 115.736 728.248 113.288 730.824 113.288C733.384 113.288 735.192 115.736 735.192 119.224C735.192 122.696 733.384 125.16 730.824 125.16C728.248 125.16 726.44 122.696 726.44 119.224ZM739.985 125.096L747.345 113.32H749.089L741.697 125.096H739.985ZM737.281 116.328C737.281 114.536 738.641 113.128 740.401 113.128C742.129 113.128 743.505 114.536 743.505 116.328C743.505 118.12 742.129 119.528 740.401 119.528C738.641 119.528 737.281 118.12 737.281 116.328ZM738.881 116.328C738.881 117.224 739.537 117.944 740.401 117.944C741.249 117.944 741.921 117.224 741.921 116.328C741.921 115.432 741.249 114.728 740.401 114.728C739.537 114.728 738.881 115.432 738.881 116.328ZM745.425 121.992C745.425 120.2 746.785 118.792 748.545 118.792C750.273 118.792 751.649 120.2 751.649 121.992C751.649 123.784 750.273 125.208 748.545 125.208C746.785 125.208 745.425 123.784 745.425 121.992ZM747.025 121.992C747.025 122.888 747.681 123.608 748.545 123.608C749.393 123.608 750.065 122.888 750.065 121.992C750.065 121.096 749.393 120.392 748.545 120.392C747.681 120.392 747.025 121.096 747.025 121.992ZM757.722 119.224C757.722 121.304 756.922 124.024 755.77 125.864H753.978C755.274 124.072 756.186 121.32 756.186 119.224C756.186 117.128 755.274 114.376 753.978 112.584H755.77C756.922 114.424 757.722 117.144 757.722 119.224Z" fill="#3F3F46"/>
<rect y="144" width="815" height="256" fill="#F6F6F7"/>
<path d="M18.532 360.892V371.014H17.37V362.18L15.718 363.244L15.144 362.32L17.37 360.892H18.532Z" fill="#3F3F46"/>
<path d="M10.5 383C10.5 380.791 12.2909 379 14.5 379H20.5C22.7091 379 24.5 380.791 24.5 383V400H10.5V383Z" fill="url(#paint0_linear_4487_5576)"/>
<path d="M11.008 418.824C12.408 418.824 13.346 417.256 13.346 414.946C13.346 412.622 12.408 411.054 11.008 411.054C9.608 411.054 8.656 412.622 8.656 414.946C8.656 417.256 9.608 418.824 11.008 418.824ZM7.172 414.946C7.172 411.894 8.754 409.752 11.008 409.752C13.248 409.752 14.83 411.894 14.83 414.946C14.83 417.984 13.248 420.14 11.008 420.14C8.754 420.14 7.172 417.984 7.172 414.946ZM17.1338 418.586C17.6378 418.586 17.9878 418.95 17.9878 419.454C17.9878 419.972 17.6378 420.336 17.1338 420.336C16.6158 420.336 16.2518 419.972 16.2518 419.454C16.2518 418.95 16.6158 418.586 17.1338 418.586ZM21.9823 415.478L20.4983 415.296L20.8483 409.85H26.2943V411.152H22.2763L22.1083 413.644C22.5703 413.434 23.0883 413.308 23.5503 413.308C25.6503 413.308 27.1343 414.722 27.1343 416.724C27.1343 418.754 25.6503 420.182 23.5503 420.182C21.8983 420.182 20.4703 419.076 20.1063 417.508L21.5483 417.172C21.7583 418.11 22.5843 418.782 23.5503 418.782C24.7823 418.782 25.6503 417.928 25.6503 416.724C25.6503 415.548 24.7823 414.708 23.5503 414.708C23.0323 414.708 22.3883 415.03 21.9823 415.478Z" fill="#3F3F46"/>
<path d="M59.532 360.892V371.014H58.37V362.18L56.718 363.244L56.144 362.32L58.37 360.892H59.532Z" fill="#3F3F46"/>
<path d="M51.5 383C51.5 380.791 53.2909 379 55.5 379H61.5C63.7091 379 65.5 380.791 65.5 383V400H51.5V383Z" fill="url(#paint1_linear_4487_5576)"/>
<path d="M53.48 409.864V420.042L51.996 420.028V411.446L50.204 412.44L49.588 411.194L52.01 409.864H53.48ZM56.4756 418.586C56.9796 418.586 57.3296 418.95 57.3296 419.454C57.3296 419.972 56.9796 420.336 56.4756 420.336C55.9576 420.336 55.5936 419.972 55.5936 419.454C55.5936 418.95 55.9576 418.586 56.4756 418.586ZM63.256 418.824C64.656 418.824 65.594 417.256 65.594 414.946C65.594 412.622 64.656 411.054 63.256 411.054C61.856 411.054 60.904 412.622 60.904 414.946C60.904 417.256 61.856 418.824 63.256 418.824ZM59.42 414.946C59.42 411.894 61.002 409.752 63.256 409.752C65.496 409.752 67.078 411.894 67.078 414.946C67.078 417.984 65.496 420.14 63.256 420.14C61.002 420.14 59.42 417.984 59.42 414.946Z" fill="#3F3F46"/>
<path d="M100.532 360.892V371.014H99.37V362.18L97.718 363.244L97.144 362.32L99.37 360.892H100.532Z" fill="#3F3F46"/>
<path d="M92.5 383C92.5 380.791 94.2909 379 96.5 379H102.5C104.709 379 106.5 380.791 106.5 383V400H92.5V383Z" fill="url(#paint2_linear_4487_5576)"/>
<path d="M94.48 409.864V420.042L92.996 420.028V411.446L91.204 412.44L90.588 411.194L93.01 409.864H94.48ZM97.4756 418.586C97.9796 418.586 98.3296 418.95 98.3296 419.454C98.3296 419.972 97.9796 420.336 97.4756 420.336C96.9576 420.336 96.5936 419.972 96.5936 419.454C96.5936 418.95 96.9576 418.586 97.4756 418.586ZM102.324 415.478L100.84 415.296L101.19 409.85H106.636V411.152H102.618L102.45 413.644C102.912 413.434 103.43 413.308 103.892 413.308C105.992 413.308 107.476 414.722 107.476 416.724C107.476 418.754 105.992 420.182 103.892 420.182C102.24 420.182 100.812 419.076 100.448 417.508L101.89 417.172C102.1 418.11 102.926 418.782 103.892 418.782C105.124 418.782 105.992 417.928 105.992 416.724C105.992 415.548 105.124 414.708 103.892 414.708C103.374 414.708 102.73 415.03 102.324 415.478Z" fill="#3F3F46"/>
<path d="M140.116 282.09C141.446 282.09 142.37 281.138 142.37 279.78C142.37 278.408 141.446 277.456 140.116 277.456C138.828 277.456 137.904 278.408 137.904 279.78C137.904 281.138 138.828 282.09 140.116 282.09ZM136.742 279.78C136.742 279.052 136.98 278.408 137.274 277.876L140.116 272.864H141.46L139.374 276.504C139.626 276.462 139.878 276.42 140.144 276.42C142.146 276.42 143.532 277.806 143.532 279.78C143.532 281.74 142.132 283.126 140.144 283.126C138.142 283.126 136.742 281.74 136.742 279.78Z" fill="#3F3F46"/>
<path d="M133.5 295C133.5 292.791 135.291 291 137.5 291H143.5C145.709 291 147.5 292.791 147.5 295V400H133.5V295Z" fill="url(#paint3_linear_4487_5576)"/>
<path d="M130.896 418.74C132.94 416.78 135.726 414.792 135.726 413.07C135.726 411.922 134.998 411.11 133.962 411.11C133.164 411.11 132.366 411.684 132.002 412.51L130.7 411.936C131.26 410.648 132.618 409.752 133.962 409.752C135.88 409.752 137.21 411.124 137.21 413.07C137.21 415.212 134.886 417.116 132.996 418.74H137.378V420.042H131.036L130.896 418.74ZM139.69 418.586C140.194 418.586 140.544 418.95 140.544 419.454C140.544 419.972 140.194 420.336 139.69 420.336C139.172 420.336 138.808 419.972 138.808 419.454C138.808 418.95 139.172 418.586 139.69 418.586ZM146.471 418.824C147.871 418.824 148.809 417.256 148.809 414.946C148.809 412.622 147.871 411.054 146.471 411.054C145.071 411.054 144.119 412.622 144.119 414.946C144.119 417.256 145.071 418.824 146.471 418.824ZM142.635 414.946C142.635 411.894 144.217 409.752 146.471 409.752C148.711 409.752 150.293 411.894 150.293 414.946C150.293 417.984 148.711 420.14 146.471 420.14C144.217 420.14 142.635 417.984 142.635 414.946Z" fill="#3F3F46"/>
<path d="M179.366 298.31L178.204 298.142L178.54 292.864H183.706V293.9H179.66L179.464 296.812C179.968 296.546 180.542 296.392 181.06 296.392C183.09 296.392 184.532 297.778 184.532 299.738C184.532 301.74 183.09 303.154 181.06 303.154C179.478 303.154 178.106 302.09 177.756 300.578L178.89 300.312C179.114 301.334 180.01 302.048 181.06 302.048C182.418 302.048 183.37 301.096 183.37 299.738C183.37 298.422 182.418 297.498 181.06 297.498C180.486 297.498 179.786 297.834 179.366 298.31Z" fill="#3F3F46"/>
<path d="M174.5 315C174.5 312.791 176.291 311 178.5 311H184.5C186.709 311 188.5 312.791 188.5 315V400H174.5V315Z" fill="url(#paint4_linear_4487_5576)"/>
<path d="M171.896 418.74C173.94 416.78 176.726 414.792 176.726 413.07C176.726 411.922 175.998 411.11 174.962 411.11C174.164 411.11 173.366 411.684 173.002 412.51L171.7 411.936C172.26 410.648 173.618 409.752 174.962 409.752C176.88 409.752 178.21 411.124 178.21 413.07C178.21 415.212 175.886 417.116 173.996 418.74H178.378V420.042H172.036L171.896 418.74ZM180.69 418.586C181.194 418.586 181.544 418.95 181.544 419.454C181.544 419.972 181.194 420.336 180.69 420.336C180.172 420.336 179.808 419.972 179.808 419.454C179.808 418.95 180.172 418.586 180.69 418.586ZM185.539 415.478L184.055 415.296L184.405 409.85H189.851V411.152H185.833L185.665 413.644C186.127 413.434 186.645 413.308 187.107 413.308C189.207 413.308 190.691 414.722 190.691 416.724C190.691 418.754 189.207 420.182 187.107 420.182C185.455 420.182 184.027 419.076 183.663 417.508L185.105 417.172C185.315 418.11 186.141 418.782 187.107 418.782C188.339 418.782 189.207 417.928 189.207 416.724C189.207 415.548 188.339 414.708 187.107 414.708C186.589 414.708 185.945 415.03 185.539 415.478Z" fill="#3F3F46"/>
<path d="M219.532 154.892V165.014H218.37V156.18L216.718 157.244L216.144 156.32L218.37 154.892H219.532ZM226.892 159.778C227.788 160.324 228.306 161.304 228.306 162.144C228.306 163.88 226.934 165.098 224.988 165.098C223.042 165.098 221.67 163.866 221.67 162.116H222.832C222.832 163.264 223.728 164.062 224.988 164.062C226.262 164.062 227.158 163.264 227.158 162.13C227.158 161.052 226.262 160.282 225.016 160.282H224.274V159.246H225.016C226.178 159.246 227.018 158.56 227.018 157.566C227.018 156.544 226.206 155.83 225.072 155.83C223.924 155.83 223.126 156.558 223.126 157.594H221.964C221.964 155.942 223.238 154.794 225.072 154.794C226.878 154.794 228.166 155.928 228.166 157.552C228.166 158.322 227.704 159.232 226.892 159.778Z" fill="#3F3F46"/>
<path d="M215.5 177C215.5 174.791 217.291 173 219.5 173H225.5C227.709 173 229.5 174.791 229.5 177V400H215.5V177Z" fill="url(#paint5_linear_4487_5576)"/>
<path d="M217.604 414.778C218.514 415.31 219.088 416.304 219.088 417.158C219.088 418.894 217.66 420.126 215.63 420.126C213.614 420.126 212.186 418.866 212.186 417.074H213.67C213.67 418.096 214.482 418.81 215.63 418.81C216.806 418.81 217.646 418.096 217.646 417.074C217.646 416.094 216.82 415.394 215.658 415.394H214.93V414.148H215.672C216.736 414.148 217.492 413.518 217.492 412.622C217.492 411.712 216.764 411.082 215.728 411.082C214.692 411.082 213.978 411.726 213.978 412.636H212.494C212.494 410.942 213.824 409.766 215.728 409.766C217.604 409.766 218.934 410.914 218.934 412.538C218.934 413.322 218.43 414.246 217.604 414.778ZM221.395 418.586C221.899 418.586 222.249 418.95 222.249 419.454C222.249 419.972 221.899 420.336 221.395 420.336C220.877 420.336 220.513 419.972 220.513 419.454C220.513 418.95 220.877 418.586 221.395 418.586ZM228.176 418.824C229.576 418.824 230.514 417.256 230.514 414.946C230.514 412.622 229.576 411.054 228.176 411.054C226.776 411.054 225.824 412.622 225.824 414.946C225.824 417.256 226.776 418.824 228.176 418.824ZM224.34 414.946C224.34 411.894 225.922 409.752 228.176 409.752C230.416 409.752 231.998 411.894 231.998 414.946C231.998 417.984 230.416 420.14 228.176 420.14C225.922 420.14 224.34 417.984 224.34 414.946Z" fill="#3F3F46"/>
<path d="M263.088 249.132C264.376 249.132 265.272 248.306 265.272 247.13C265.272 245.996 264.376 245.184 263.088 245.184C261.814 245.184 260.904 245.996 260.904 247.13C260.904 248.306 261.814 249.132 263.088 249.132ZM259.742 247.116C259.742 246.234 260.428 245.212 261.394 244.666C260.582 244.106 260.008 243.21 260.008 242.482C260.008 240.844 261.282 239.696 263.088 239.696C264.908 239.696 266.182 240.844 266.182 242.482C266.182 243.21 265.622 244.12 264.796 244.666C265.762 245.226 266.448 246.234 266.448 247.116C266.448 248.908 265.062 250.154 263.088 250.154C261.128 250.154 259.742 248.908 259.742 247.116ZM261.184 242.468C261.184 243.462 261.968 244.162 263.088 244.162C264.222 244.162 265.02 243.462 265.02 242.468C265.02 241.432 264.222 240.718 263.088 240.718C261.968 240.718 261.184 241.432 261.184 242.468Z" fill="#3F3F46"/>
<path d="M256.5 262C256.5 259.791 258.291 258 260.5 258H266.5C268.709 258 270.5 259.791 270.5 262V400H256.5V262Z" fill="url(#paint6_linear_4487_5576)"/>
<path d="M259.104 414.778C260.014 415.31 260.588 416.304 260.588 417.158C260.588 418.894 259.16 420.126 257.13 420.126C255.114 420.126 253.686 418.866 253.686 417.074H255.17C255.17 418.096 255.982 418.81 257.13 418.81C258.306 418.81 259.146 418.096 259.146 417.074C259.146 416.094 258.32 415.394 257.158 415.394H256.43V414.148H257.172C258.236 414.148 258.992 413.518 258.992 412.622C258.992 411.712 258.264 411.082 257.228 411.082C256.192 411.082 255.478 411.726 255.478 412.636H253.994C253.994 410.942 255.324 409.766 257.228 409.766C259.104 409.766 260.434 410.914 260.434 412.538C260.434 413.322 259.93 414.246 259.104 414.778ZM262.895 418.586C263.399 418.586 263.749 418.95 263.749 419.454C263.749 419.972 263.399 420.336 262.895 420.336C262.377 420.336 262.013 419.972 262.013 419.454C262.013 418.95 262.377 418.586 262.895 418.586ZM267.744 415.478L266.26 415.296L266.61 409.85H272.056V411.152H268.038L267.87 413.644C268.332 413.434 268.85 413.308 269.312 413.308C271.412 413.308 272.896 414.722 272.896 416.724C272.896 418.754 271.412 420.182 269.312 420.182C267.66 420.182 266.232 419.076 265.868 417.508L267.31 417.172C267.52 418.11 268.346 418.782 269.312 418.782C270.544 418.782 271.412 417.928 271.412 416.724C271.412 415.548 270.544 414.708 269.312 414.708C268.794 414.708 268.15 415.03 267.744 415.478Z" fill="#3F3F46"/>
<path d="M302.366 298.31L301.204 298.142L301.54 292.864H306.706V293.9H302.66L302.464 296.812C302.968 296.546 303.542 296.392 304.06 296.392C306.09 296.392 307.532 297.778 307.532 299.738C307.532 301.74 306.09 303.154 304.06 303.154C302.478 303.154 301.106 302.09 300.756 300.578L301.89 300.312C302.114 301.334 303.01 302.048 304.06 302.048C305.418 302.048 306.37 301.096 306.37 299.738C306.37 298.422 305.418 297.498 304.06 297.498C303.486 297.498 302.786 297.834 302.366 298.31Z" fill="#3F3F46"/>
<path d="M297.5 315C297.5 312.791 299.291 311 301.5 311H307.5C309.709 311 311.5 312.791 311.5 315V400H297.5V315Z" fill="url(#paint7_linear_4487_5576)"/>
<path d="M300.192 409.85V416.122H301.48V417.41H300.192V420.042H298.708V417.41H294.326L294.186 416.122L298.778 409.85H300.192ZM295.95 416.122H298.708V412.328L295.95 416.122ZM303.792 418.586C304.296 418.586 304.646 418.95 304.646 419.454C304.646 419.972 304.296 420.336 303.792 420.336C303.274 420.336 302.91 419.972 302.91 419.454C302.91 418.95 303.274 418.586 303.792 418.586ZM310.572 418.824C311.972 418.824 312.91 417.256 312.91 414.946C312.91 412.622 311.972 411.054 310.572 411.054C309.172 411.054 308.22 412.622 308.22 414.946C308.22 417.256 309.172 418.824 310.572 418.824ZM306.736 414.946C306.736 411.894 308.318 409.752 310.572 409.752C312.812 409.752 314.394 411.894 314.394 414.946C314.394 417.984 312.812 420.14 310.572 420.14C308.318 420.14 306.736 417.984 306.736 414.946Z" fill="#3F3F46"/>
<path d="M343.366 298.31L342.204 298.142L342.54 292.864H347.706V293.9H343.66L343.464 296.812C343.968 296.546 344.542 296.392 345.06 296.392C347.09 296.392 348.532 297.778 348.532 299.738C348.532 301.74 347.09 303.154 345.06 303.154C343.478 303.154 342.106 302.09 341.756 300.578L342.89 300.312C343.114 301.334 344.01 302.048 345.06 302.048C346.418 302.048 347.37 301.096 347.37 299.738C347.37 298.422 346.418 297.498 345.06 297.498C344.486 297.498 343.786 297.834 343.366 298.31Z" fill="#3F3F46"/>
<path d="M338.5 315C338.5 312.791 340.291 311 342.5 311H348.5C350.709 311 352.5 312.791 352.5 315V400H338.5V315Z" fill="url(#paint8_linear_4487_5576)"/>
<path d="M341.692 409.85V416.122H342.98V417.41H341.692V420.042H340.208V417.41H335.826L335.686 416.122L340.278 409.85H341.692ZM337.45 416.122H340.208V412.328L337.45 416.122ZM345.292 418.586C345.796 418.586 346.146 418.95 346.146 419.454C346.146 419.972 345.796 420.336 345.292 420.336C344.774 420.336 344.41 419.972 344.41 419.454C344.41 418.95 344.774 418.586 345.292 418.586ZM350.14 415.478L348.656 415.296L349.006 409.85H354.452V411.152H350.434L350.266 413.644C350.728 413.434 351.246 413.308 351.708 413.308C353.808 413.308 355.292 414.722 355.292 416.724C355.292 418.754 353.808 420.182 351.708 420.182C350.056 420.182 348.628 419.076 348.264 417.508L349.706 417.172C349.916 418.11 350.742 418.782 351.708 418.782C352.94 418.782 353.808 417.928 353.808 416.724C353.808 415.548 352.94 414.708 351.708 414.708C351.19 414.708 350.546 415.03 350.14 415.478Z" fill="#3F3F46"/>
<path d="M387.964 332.778C388.86 333.324 389.378 334.304 389.378 335.144C389.378 336.88 388.006 338.098 386.06 338.098C384.114 338.098 382.742 336.866 382.742 335.116H383.904C383.904 336.264 384.8 337.062 386.06 337.062C387.334 337.062 388.23 336.264 388.23 335.13C388.23 334.052 387.334 333.282 386.088 333.282H385.346V332.246H386.088C387.25 332.246 388.09 331.56 388.09 330.566C388.09 329.544 387.278 328.83 386.144 328.83C384.996 328.83 384.198 329.558 384.198 330.594H383.036C383.036 328.942 384.31 327.794 386.144 327.794C387.95 327.794 389.238 328.928 389.238 330.552C389.238 331.322 388.776 332.232 387.964 332.778Z" fill="#3F3F46"/>
<path d="M379.5 350C379.5 347.791 381.291 346 383.5 346H389.5C391.709 346 393.5 347.791 393.5 350V400H379.5V350Z" fill="url(#paint9_linear_4487_5576)"/>
<path d="M378.076 415.478L376.592 415.296L376.942 409.85H382.388V411.152H378.37L378.202 413.644C378.664 413.434 379.182 413.308 379.644 413.308C381.744 413.308 383.228 414.722 383.228 416.724C383.228 418.754 381.744 420.182 379.644 420.182C377.992 420.182 376.564 419.076 376.2 417.508L377.642 417.172C377.852 418.11 378.678 418.782 379.644 418.782C380.876 418.782 381.744 417.928 381.744 416.724C381.744 415.548 380.876 414.708 379.644 414.708C379.126 414.708 378.482 415.03 378.076 415.478ZM385.546 418.586C386.05 418.586 386.4 418.95 386.4 419.454C386.4 419.972 386.05 420.336 385.546 420.336C385.028 420.336 384.664 419.972 384.664 419.454C384.664 418.95 385.028 418.586 385.546 418.586ZM392.326 418.824C393.726 418.824 394.664 417.256 394.664 414.946C394.664 412.622 393.726 411.054 392.326 411.054C390.926 411.054 389.974 412.622 389.974 414.946C389.974 417.256 390.926 418.824 392.326 418.824ZM388.49 414.946C388.49 411.894 390.072 409.752 392.326 409.752C394.566 409.752 396.148 411.894 396.148 414.946C396.148 417.984 394.566 420.14 392.326 420.14C390.072 420.14 388.49 417.984 388.49 414.946Z" fill="#3F3F46"/>
<path d="M428.532 360.892V371.014H427.37V362.18L425.718 363.244L425.144 362.32L427.37 360.892H428.532Z" fill="#3F3F46"/>
<path d="M420.5 383C420.5 380.791 422.291 379 424.5 379H430.5C432.709 379 434.5 380.791 434.5 383V400H420.5V383Z" fill="url(#paint10_linear_4487_5576)"/>
<path d="M419.576 415.478L418.092 415.296L418.442 409.85H423.888V411.152H419.87L419.702 413.644C420.164 413.434 420.682 413.308 421.144 413.308C423.244 413.308 424.728 414.722 424.728 416.724C424.728 418.754 423.244 420.182 421.144 420.182C419.492 420.182 418.064 419.076 417.7 417.508L419.142 417.172C419.352 418.11 420.178 418.782 421.144 418.782C422.376 418.782 423.244 417.928 423.244 416.724C423.244 415.548 422.376 414.708 421.144 414.708C420.626 414.708 419.982 415.03 419.576 415.478ZM427.046 418.586C427.55 418.586 427.9 418.95 427.9 419.454C427.9 419.972 427.55 420.336 427.046 420.336C426.528 420.336 426.164 419.972 426.164 419.454C426.164 418.95 426.528 418.586 427.046 418.586ZM431.894 415.478L430.41 415.296L430.76 409.85H436.206V411.152H432.188L432.02 413.644C432.482 413.434 433 413.308 433.462 413.308C435.562 413.308 437.046 414.722 437.046 416.724C437.046 418.754 435.562 420.182 433.462 420.182C431.81 420.182 430.382 419.076 430.018 417.508L431.46 417.172C431.67 418.11 432.496 418.782 433.462 418.782C434.694 418.782 435.562 417.928 435.562 416.724C435.562 415.548 434.694 414.708 433.462 414.708C432.944 414.708 432.3 415.03 431.894 415.478Z" fill="#3F3F46"/>
<path d="M470.454 310.878V317.22H471.882V318.242H470.454V321.014H469.292V318.242H464.882L464.742 317.22L469.334 310.878H470.454ZM466.156 317.22H469.292V312.88L466.156 317.22Z" fill="#3F3F46"/>
<path d="M461.5 333C461.5 330.791 463.291 329 465.5 329H471.5C473.709 329 475.5 330.791 475.5 333V400H461.5V333Z" fill="url(#paint11_linear_4487_5576)"/>
<path d="M461.7 418.838C462.904 418.838 463.758 417.97 463.758 416.752C463.758 415.506 462.904 414.638 461.7 414.638C460.51 414.638 459.67 415.506 459.67 416.752C459.67 417.97 460.51 418.838 461.7 418.838ZM458.186 416.752C458.186 416.01 458.452 415.352 458.746 414.806L461.546 409.822H463.254L461.224 413.392C461.392 413.364 461.56 413.336 461.742 413.336C463.8 413.35 465.242 414.75 465.242 416.752C465.242 418.74 463.786 420.14 461.714 420.14C459.642 420.14 458.186 418.74 458.186 416.752ZM467.546 418.586C468.05 418.586 468.4 418.95 468.4 419.454C468.4 419.972 468.05 420.336 467.546 420.336C467.028 420.336 466.664 419.972 466.664 419.454C466.664 418.95 467.028 418.586 467.546 418.586ZM474.326 418.824C475.726 418.824 476.664 417.256 476.664 414.946C476.664 412.622 475.726 411.054 474.326 411.054C472.926 411.054 471.974 412.622 471.974 414.946C471.974 417.256 472.926 418.824 474.326 418.824ZM470.49 414.946C470.49 411.894 472.072 409.752 474.326 409.752C476.566 409.752 478.148 411.894 478.148 414.946C478.148 417.984 476.566 420.14 474.326 420.14C472.072 420.14 470.49 417.984 470.49 414.946Z" fill="#3F3F46"/>
<path d="M509.41 393.076C510.88 393.076 511.902 391.382 511.902 388.946C511.902 386.51 510.88 384.816 509.41 384.816C507.926 384.816 506.89 386.51 506.89 388.946C506.89 391.382 507.926 393.076 509.41 393.076ZM505.728 388.946C505.728 385.922 507.24 383.794 509.41 383.794C511.552 383.794 513.064 385.922 513.064 388.946C513.064 391.97 511.552 394.112 509.41 394.112C507.24 394.112 505.728 391.97 505.728 388.946Z" fill="#3F3F46"/>
<path d="M503.2 418.838C504.404 418.838 505.258 417.97 505.258 416.752C505.258 415.506 504.404 414.638 503.2 414.638C502.01 414.638 501.17 415.506 501.17 416.752C501.17 417.97 502.01 418.838 503.2 418.838ZM499.686 416.752C499.686 416.01 499.952 415.352 500.246 414.806L503.046 409.822H504.754L502.724 413.392C502.892 413.364 503.06 413.336 503.242 413.336C505.3 413.35 506.742 414.75 506.742 416.752C506.742 418.74 505.286 420.14 503.214 420.14C501.142 420.14 499.686 418.74 499.686 416.752ZM509.046 418.586C509.55 418.586 509.9 418.95 509.9 419.454C509.9 419.972 509.55 420.336 509.046 420.336C508.528 420.336 508.164 419.972 508.164 419.454C508.164 418.95 508.528 418.586 509.046 418.586ZM513.894 415.478L512.41 415.296L512.76 409.85H518.206V411.152H514.188L514.02 413.644C514.482 413.434 515 413.308 515.462 413.308C517.562 413.308 519.046 414.722 519.046 416.724C519.046 418.754 517.562 420.182 515.462 420.182C513.81 420.182 512.382 419.076 512.018 417.508L513.46 417.172C513.67 418.11 514.496 418.782 515.462 418.782C516.694 418.782 517.562 417.928 517.562 416.724C517.562 415.548 516.694 414.708 515.462 414.708C514.944 414.708 514.3 415.03 513.894 415.478Z" fill="#3F3F46"/>
<path d="M551.964 332.778C552.86 333.324 553.378 334.304 553.378 335.144C553.378 336.88 552.006 338.098 550.06 338.098C548.114 338.098 546.742 336.866 546.742 335.116H547.904C547.904 336.264 548.8 337.062 550.06 337.062C551.334 337.062 552.23 336.264 552.23 335.13C552.23 334.052 551.334 333.282 550.088 333.282H549.346V332.246H550.088C551.25 332.246 552.09 331.56 552.09 330.566C552.09 329.544 551.278 328.83 550.144 328.83C548.996 328.83 548.198 329.558 548.198 330.594H547.036C547.036 328.942 548.31 327.794 550.144 327.794C551.95 327.794 553.238 328.928 553.238 330.552C553.238 331.322 552.776 332.232 551.964 332.778Z" fill="#3F3F46"/>
<path d="M543.5 350C543.5 347.791 545.291 346 547.5 346H553.5C555.709 346 557.5 347.791 557.5 350V400H543.5V350Z" fill="url(#paint12_linear_4487_5576)"/>
<path d="M543.22 420.07H541.596L545.586 411.11L540.91 411.124V409.808H547.07L547.21 411.11L543.22 420.07ZM549.54 418.586C550.044 418.586 550.394 418.95 550.394 419.454C550.394 419.972 550.044 420.336 549.54 420.336C549.022 420.336 548.658 419.972 548.658 419.454C548.658 418.95 549.022 418.586 549.54 418.586ZM556.321 418.824C557.721 418.824 558.659 417.256 558.659 414.946C558.659 412.622 557.721 411.054 556.321 411.054C554.921 411.054 553.969 412.622 553.969 414.946C553.969 417.256 554.921 418.824 556.321 418.824ZM552.485 414.946C552.485 411.894 554.067 409.752 556.321 409.752C558.561 409.752 560.143 411.894 560.143 414.946C560.143 417.984 558.561 420.14 556.321 420.14C554.067 420.14 552.485 417.984 552.485 414.946Z" fill="#3F3F46"/>
<path d="M591.41 393.076C592.88 393.076 593.902 391.382 593.902 388.946C593.902 386.51 592.88 384.816 591.41 384.816C589.926 384.816 588.89 386.51 588.89 388.946C588.89 391.382 589.926 393.076 591.41 393.076ZM587.728 388.946C587.728 385.922 589.24 383.794 591.41 383.794C593.552 383.794 595.064 385.922 595.064 388.946C595.064 391.97 593.552 394.112 591.41 394.112C589.24 394.112 587.728 391.97 587.728 388.946Z" fill="#3F3F46"/>
<path d="M584.22 420.07H582.596L586.586 411.11L581.91 411.124V409.808H588.07L588.21 411.11L584.22 420.07ZM590.54 418.586C591.044 418.586 591.394 418.95 591.394 419.454C591.394 419.972 591.044 420.336 590.54 420.336C590.022 420.336 589.658 419.972 589.658 419.454C589.658 418.95 590.022 418.586 590.54 418.586ZM595.389 415.478L593.905 415.296L594.255 409.85H599.701V411.152H595.683L595.515 413.644C595.977 413.434 596.495 413.308 596.957 413.308C599.057 413.308 600.541 414.722 600.541 416.724C600.541 418.754 599.057 420.182 596.957 420.182C595.305 420.182 593.877 419.076 593.513 417.508L594.955 417.172C595.165 418.11 595.991 418.782 596.957 418.782C598.189 418.782 599.057 417.928 599.057 416.724C599.057 415.548 598.189 414.708 596.957 414.708C596.439 414.708 595.795 415.03 595.389 415.478Z" fill="#3F3F46"/>
<path d="M632.41 393.076C633.88 393.076 634.902 391.382 634.902 388.946C634.902 386.51 633.88 384.816 632.41 384.816C630.926 384.816 629.89 386.51 629.89 388.946C629.89 391.382 630.926 393.076 632.41 393.076ZM628.728 388.946C628.728 385.922 630.24 383.794 632.41 383.794C634.552 383.794 636.064 385.922 636.064 388.946C636.064 391.97 634.552 394.112 632.41 394.112C630.24 394.112 628.728 391.97 628.728 388.946Z" fill="#3F3F46"/>
<path d="M625.658 418.936C626.82 418.936 627.632 418.194 627.632 417.13C627.632 416.066 626.82 415.31 625.658 415.31C624.496 415.31 623.67 416.066 623.67 417.13C623.67 418.194 624.496 418.936 625.658 418.936ZM622.186 417.158C622.186 416.262 622.886 415.226 623.866 414.68C623.054 414.12 622.466 413.21 622.466 412.482C622.466 410.83 623.782 409.682 625.658 409.682C627.534 409.682 628.85 410.83 628.85 412.482C628.85 413.224 628.276 414.134 627.45 414.68C628.43 415.24 629.13 416.262 629.13 417.158C629.13 418.95 627.702 420.21 625.658 420.21C623.628 420.21 622.186 418.95 622.186 417.158ZM623.964 412.482C623.964 413.392 624.664 414.036 625.658 414.036C626.666 414.036 627.366 413.392 627.366 412.482C627.366 411.572 626.666 410.942 625.658 410.942C624.664 410.942 623.964 411.572 623.964 412.482ZM631.437 418.586C631.941 418.586 632.291 418.95 632.291 419.454C632.291 419.972 631.941 420.336 631.437 420.336C630.919 420.336 630.555 419.972 630.555 419.454C630.555 418.95 630.919 418.586 631.437 418.586ZM638.217 418.824C639.617 418.824 640.555 417.256 640.555 414.946C640.555 412.622 639.617 411.054 638.217 411.054C636.817 411.054 635.865 412.622 635.865 414.946C635.865 417.256 636.817 418.824 638.217 418.824ZM634.381 414.946C634.381 411.894 635.963 409.752 638.217 409.752C640.457 409.752 642.039 411.894 642.039 414.946C642.039 417.984 640.457 420.14 638.217 420.14C635.963 420.14 634.381 417.984 634.381 414.946Z" fill="#3F3F46"/>
<path d="M673.41 393.076C674.88 393.076 675.902 391.382 675.902 388.946C675.902 386.51 674.88 384.816 673.41 384.816C671.926 384.816 670.89 386.51 670.89 388.946C670.89 391.382 671.926 393.076 673.41 393.076ZM669.728 388.946C669.728 385.922 671.24 383.794 673.41 383.794C675.552 383.794 677.064 385.922 677.064 388.946C677.064 391.97 675.552 394.112 673.41 394.112C671.24 394.112 669.728 391.97 669.728 388.946Z" fill="#3F3F46"/>
<path d="M667.158 418.936C668.32 418.936 669.132 418.194 669.132 417.13C669.132 416.066 668.32 415.31 667.158 415.31C665.996 415.31 665.17 416.066 665.17 417.13C665.17 418.194 665.996 418.936 667.158 418.936ZM663.686 417.158C663.686 416.262 664.386 415.226 665.366 414.68C664.554 414.12 663.966 413.21 663.966 412.482C663.966 410.83 665.282 409.682 667.158 409.682C669.034 409.682 670.35 410.83 670.35 412.482C670.35 413.224 669.776 414.134 668.95 414.68C669.93 415.24 670.63 416.262 670.63 417.158C670.63 418.95 669.202 420.21 667.158 420.21C665.128 420.21 663.686 418.95 663.686 417.158ZM665.464 412.482C665.464 413.392 666.164 414.036 667.158 414.036C668.166 414.036 668.866 413.392 668.866 412.482C668.866 411.572 668.166 410.942 667.158 410.942C666.164 410.942 665.464 411.572 665.464 412.482ZM672.937 418.586C673.441 418.586 673.791 418.95 673.791 419.454C673.791 419.972 673.441 420.336 672.937 420.336C672.419 420.336 672.055 419.972 672.055 419.454C672.055 418.95 672.419 418.586 672.937 418.586ZM677.785 415.478L676.301 415.296L676.651 409.85H682.097V411.152H678.079L677.911 413.644C678.373 413.434 678.891 413.308 679.353 413.308C681.453 413.308 682.937 414.722 682.937 416.724C682.937 418.754 681.453 420.182 679.353 420.182C677.701 420.182 676.273 419.076 675.909 417.508L677.351 417.172C677.561 418.11 678.387 418.782 679.353 418.782C680.585 418.782 681.453 417.928 681.453 416.724C681.453 415.548 680.585 414.708 679.353 414.708C678.835 414.708 678.191 415.03 677.785 415.478Z" fill="#3F3F46"/>
<path d="M714.41 393.076C715.88 393.076 716.902 391.382 716.902 388.946C716.902 386.51 715.88 384.816 714.41 384.816C712.926 384.816 711.89 386.51 711.89 388.946C711.89 391.382 712.926 393.076 714.41 393.076ZM710.728 388.946C710.728 385.922 712.24 383.794 714.41 383.794C716.552 383.794 718.064 385.922 718.064 388.946C718.064 391.97 716.552 394.112 714.41 394.112C712.24 394.112 710.728 391.97 710.728 388.946Z" fill="#3F3F46"/>
<path d="M707.728 411.04C706.524 411.04 705.67 411.908 705.67 413.14C705.67 414.372 706.524 415.24 707.728 415.24C708.918 415.24 709.758 414.372 709.758 413.14C709.758 411.908 708.918 411.04 707.728 411.04ZM704.186 413.14C704.186 411.138 705.642 409.738 707.714 409.738C709.786 409.738 711.242 411.138 711.242 413.14C711.242 413.868 710.976 414.54 710.682 415.072L707.882 420.056H706.174L708.204 416.486C708.036 416.514 707.868 416.542 707.686 416.542C705.628 416.528 704.186 415.128 704.186 413.14ZM713.546 418.586C714.05 418.586 714.4 418.95 714.4 419.454C714.4 419.972 714.05 420.336 713.546 420.336C713.028 420.336 712.664 419.972 712.664 419.454C712.664 418.95 713.028 418.586 713.546 418.586ZM720.326 418.824C721.726 418.824 722.664 417.256 722.664 414.946C722.664 412.622 721.726 411.054 720.326 411.054C718.926 411.054 717.974 412.622 717.974 414.946C717.974 417.256 718.926 418.824 720.326 418.824ZM716.49 414.946C716.49 411.894 718.072 409.752 720.326 409.752C722.566 409.752 724.148 411.894 724.148 414.946C724.148 417.984 722.566 420.14 720.326 420.14C718.072 420.14 716.49 417.984 716.49 414.946Z" fill="#3F3F46"/>
<path d="M755.41 393.076C756.88 393.076 757.902 391.382 757.902 388.946C757.902 386.51 756.88 384.816 755.41 384.816C753.926 384.816 752.89 386.51 752.89 388.946C752.89 391.382 753.926 393.076 755.41 393.076ZM751.728 388.946C751.728 385.922 753.24 383.794 755.41 383.794C757.552 383.794 759.064 385.922 759.064 388.946C759.064 391.97 757.552 394.112 755.41 394.112C753.24 394.112 751.728 391.97 751.728 388.946Z" fill="#3F3F46"/>
<path d="M749.228 411.04C748.024 411.04 747.17 411.908 747.17 413.14C747.17 414.372 748.024 415.24 749.228 415.24C750.418 415.24 751.258 414.372 751.258 413.14C751.258 411.908 750.418 411.04 749.228 411.04ZM745.686 413.14C745.686 411.138 747.142 409.738 749.214 409.738C751.286 409.738 752.742 411.138 752.742 413.14C752.742 413.868 752.476 414.54 752.182 415.072L749.382 420.056H747.674L749.704 416.486C749.536 416.514 749.368 416.542 749.186 416.542C747.128 416.528 745.686 415.128 745.686 413.14ZM755.046 418.586C755.55 418.586 755.9 418.95 755.9 419.454C755.9 419.972 755.55 420.336 755.046 420.336C754.528 420.336 754.164 419.972 754.164 419.454C754.164 418.95 754.528 418.586 755.046 418.586ZM759.894 415.478L758.41 415.296L758.76 409.85H764.206V411.152H760.188L760.02 413.644C760.482 413.434 761 413.308 761.462 413.308C763.562 413.308 765.046 414.722 765.046 416.724C765.046 418.754 763.562 420.182 761.462 420.182C759.81 420.182 758.382 419.076 758.018 417.508L759.46 417.172C759.67 418.11 760.496 418.782 761.462 418.782C762.694 418.782 763.562 417.928 763.562 416.724C763.562 415.548 762.694 414.708 761.462 414.708C760.944 414.708 760.3 415.03 759.894 415.478Z" fill="#3F3F46"/>
<path d="M796.41 393.076C797.88 393.076 798.902 391.382 798.902 388.946C798.902 386.51 797.88 384.816 796.41 384.816C794.926 384.816 793.89 386.51 793.89 388.946C793.89 391.382 794.926 393.076 796.41 393.076ZM792.728 388.946C792.728 385.922 794.24 383.794 796.41 383.794C798.552 383.794 800.064 385.922 800.064 388.946C800.064 391.97 798.552 394.112 796.41 394.112C794.24 394.112 792.728 391.97 792.728 388.946Z" fill="#3F3F46"/>
<path d="M782.48 409.864V420.042L780.996 420.028V411.446L779.204 412.44L778.588 411.194L781.01 409.864H782.48ZM788.36 418.824C789.76 418.824 790.698 417.256 790.698 414.946C790.698 412.622 789.76 411.054 788.36 411.054C786.96 411.054 786.008 412.622 786.008 414.946C786.008 417.256 786.96 418.824 788.36 418.824ZM784.524 414.946C784.524 411.894 786.106 409.752 788.36 409.752C790.6 409.752 792.182 411.894 792.182 414.946C792.182 417.984 790.6 420.14 788.36 420.14C786.106 420.14 784.524 417.984 784.524 414.946ZM797.369 418.824C798.769 418.824 799.707 417.256 799.707 414.946C799.707 412.622 798.769 411.054 797.369 411.054C795.969 411.054 795.017 412.622 795.017 414.946C795.017 417.256 795.969 418.824 797.369 418.824ZM793.533 414.946C793.533 411.894 795.115 409.752 797.369 409.752C799.609 409.752 801.191 411.894 801.191 414.946C801.191 417.984 799.609 420.14 797.369 420.14C795.115 420.14 793.533 417.984 793.533 414.946ZM803.495 418.586C803.999 418.586 804.349 418.95 804.349 419.454C804.349 419.972 803.999 420.336 803.495 420.336C802.977 420.336 802.613 419.972 802.613 419.454C802.613 418.95 802.977 418.586 803.495 418.586ZM810.276 418.824C811.676 418.824 812.614 417.256 812.614 414.946C812.614 412.622 811.676 411.054 810.276 411.054C808.876 411.054 807.924 412.622 807.924 414.946C807.924 417.256 808.876 418.824 810.276 418.824ZM806.44 414.946C806.44 411.894 808.022 409.752 810.276 409.752C812.516 409.752 814.098 411.894 814.098 414.946C814.098 417.984 812.516 420.14 810.276 420.14C808.022 420.14 806.44 417.984 806.44 414.946Z" fill="#3F3F46"/>
<rect x="1" y="145" width="241" height="254" rx="3" stroke="#F47725" stroke-width="2"/>
<path d="M12 435L18 446H6L12 435Z" fill="#F47725"/>
<path d="M3.085 455.32V465.64H8.429V467.128H1.389V455.32H3.085ZM12.9815 465.752C14.1655 465.752 14.9655 464.808 14.9655 463.352C14.9655 461.912 14.1655 460.952 12.9815 460.952C11.7975 460.952 10.9975 461.896 10.9975 463.352C10.9975 464.808 11.7815 465.752 12.9815 465.752ZM9.3015 463.352C9.3015 461.096 10.8215 459.496 12.9815 459.496C15.1415 459.496 16.6615 461.096 16.6615 463.352C16.6615 465.592 15.1415 467.208 12.9815 467.208C10.8215 467.208 9.3015 465.592 9.3015 463.352ZM28.0021 459.512L25.7621 467.144H24.1941L22.6901 462.216L21.2181 467.144H19.6501L17.3621 459.512H19.1221L20.4501 464.392L21.8261 459.512H23.5221L24.9461 464.392L26.2421 459.512H28.0021ZM32.294 467.176C30.134 467.176 28.614 465.592 28.614 463.352C28.614 461.096 30.134 459.512 32.294 459.512C34.662 459.512 35.414 461.448 35.462 461.576C35.926 462.664 35.782 463.88 35.782 464.008H30.278C30.47 465.032 31.334 465.736 32.294 465.736C33.558 465.736 34.07 465 34.198 464.776L35.558 465.384C35.19 466.248 34.118 467.176 32.294 467.176ZM30.278 462.664H34.182C34.022 461.72 33.478 460.952 32.294 460.952C31.27 460.952 30.47 461.672 30.278 462.664ZM38.6459 464.52C38.9819 465.352 39.8139 465.736 40.3259 465.736C41.1259 465.736 41.6379 465.432 41.6379 464.904C41.6379 464.424 40.9339 464.2 40.1499 463.928C39.1099 463.56 37.6379 463.064 37.6379 461.592C37.6379 460.248 38.8699 459.432 40.4379 459.432C41.3819 459.432 42.7899 459.976 43.1739 461.352L41.7499 461.864C41.4939 461.016 40.8059 460.888 40.4379 460.888C39.7659 460.888 39.3339 461.16 39.3339 461.592C39.3339 462.072 39.9899 462.264 40.8059 462.552C41.8939 462.936 43.3339 463.432 43.3339 464.888C43.3339 466.28 42.1019 467.192 40.3259 467.192C39.1579 467.192 37.8779 466.456 37.3179 465.288L38.6459 464.52ZM45.9874 467.144V460.968H44.5474V459.496H45.9874V456.824H47.6834V459.496H49.4914V460.968H47.6834V467.144H45.9874ZM59.2614 465.656C60.8614 465.656 61.9334 463.864 61.9334 461.224C61.9334 458.568 60.8614 456.776 59.2614 456.776C57.6614 456.776 56.5734 458.568 56.5734 461.224C56.5734 463.864 57.6614 465.656 59.2614 465.656ZM54.8774 461.224C54.8774 457.736 56.6854 455.288 59.2614 455.288C61.8214 455.288 63.6294 457.736 63.6294 461.224C63.6294 464.696 61.8214 467.16 59.2614 467.16C56.6854 467.16 54.8774 464.696 54.8774 461.224ZM66.2623 465.384C66.8383 465.384 67.2383 465.8 67.2383 466.376C67.2383 466.968 66.8383 467.384 66.2623 467.384C65.6703 467.384 65.2543 466.968 65.2543 466.376C65.2543 465.8 65.6703 465.384 66.2623 465.384ZM73.9794 455.416V467.048L72.2834 467.032V457.224L70.2354 458.36L69.5314 456.936L72.2994 455.416H73.9794ZM81.3075 455.416V467.048L79.6115 467.032V457.224L77.5635 458.36L76.8595 456.936L79.6275 455.416H81.3075Z" fill="#F47725"/>
<path d="M260 435L266 446H254L260 435Z" fill="#6D0CA6"/>
<path d="M190.587 465.768C193.083 465.768 194.763 463.944 194.763 461.224C194.763 458.504 193.083 456.68 190.587 456.68C188.091 456.68 186.427 458.504 186.427 461.224C186.427 463.944 188.091 465.768 190.587 465.768ZM190.587 455.192C194.043 455.192 196.475 457.688 196.475 461.224C196.475 464.76 194.043 467.256 190.587 467.256C187.147 467.256 184.715 464.76 184.715 461.224C184.715 457.688 187.147 455.192 190.587 455.192ZM205.624 459.512L202.392 467.144H200.92L197.72 459.512H199.576L201.656 464.856L203.752 459.512H205.624ZM209.919 467.176C207.759 467.176 206.239 465.592 206.239 463.352C206.239 461.096 207.759 459.512 209.919 459.512C212.287 459.512 213.039 461.448 213.087 461.576C213.551 462.664 213.407 463.88 213.407 464.008H207.903C208.095 465.032 208.959 465.736 209.919 465.736C211.183 465.736 211.695 465 211.823 464.776L213.183 465.384C212.815 466.248 211.743 467.176 209.919 467.176ZM211.807 462.664C211.647 461.72 211.103 460.952 209.919 460.952C208.895 460.952 208.095 461.672 207.903 462.664H211.807ZM215.135 467.144V459.512H216.831V460.632C217.343 459.912 218.271 459.432 219.167 459.48V461.048C217.807 460.984 216.831 462.184 216.831 463.352V467.144H215.135ZM223.652 467.208C221.54 467.208 220.036 465.608 220.036 463.368C220.036 461.128 221.54 459.528 223.652 459.528C224.404 459.528 225.236 459.88 225.844 460.6V459.512H227.54V467.144H225.844V466.12C225.236 466.888 224.404 467.208 223.652 467.208ZM223.764 465.768C224.884 465.768 225.844 464.76 225.86 463.368C225.844 461.976 224.884 460.968 223.764 460.968C222.548 460.968 221.732 461.912 221.732 463.368C221.732 464.808 222.548 465.768 223.764 465.768ZM229.603 455.704H231.299V467.128H229.603V455.704ZM233.384 455.704H235.08V467.128H233.384V455.704ZM247.317 455.32L251.701 467.128H249.893L248.709 463.912H243.861L242.629 467.128H240.821L245.285 455.32H247.317ZM244.405 462.44H248.149L246.309 457.464L244.405 462.44ZM259.389 459.512L256.157 467.144H254.685L251.485 459.512H253.341L255.421 464.856L257.517 459.512H259.389ZM263.685 467.176C261.525 467.176 260.005 465.592 260.005 463.352C260.005 461.096 261.525 459.512 263.685 459.512C266.053 459.512 266.805 461.448 266.853 461.576C267.317 462.664 267.173 463.88 267.173 464.008H261.669C261.861 465.032 262.725 465.736 263.685 465.736C264.949 465.736 265.461 465 265.589 464.776L266.949 465.384C266.581 466.248 265.509 467.176 263.685 467.176ZM265.573 462.664C265.413 461.72 264.869 460.952 263.685 460.952C262.661 460.952 261.861 461.672 261.669 462.664H265.573ZM268.901 467.144V459.512H270.597V460.632C271.109 459.912 272.036 459.432 272.933 459.48V461.048C271.573 460.984 270.597 462.184 270.597 463.352V467.144H268.901ZM277.418 467.208C275.306 467.208 273.802 465.608 273.802 463.368C273.802 461.128 275.306 459.528 277.418 459.528C278.17 459.528 279.002 459.88 279.61 460.6V459.512H281.306V467.144H279.61V466.12C279.002 466.888 278.17 467.208 277.418 467.208ZM277.53 465.768C278.65 465.768 279.61 464.76 279.626 463.368C279.61 461.976 278.65 460.968 277.53 460.968C276.314 460.968 275.498 461.912 275.498 463.368C275.498 464.808 276.314 465.768 277.53 465.768ZM286.904 465.736C288.12 465.736 289 464.664 289 463.336C289 462.04 288.12 460.952 286.904 460.952C285.704 460.952 284.888 461.896 284.888 463.336C284.888 464.792 285.704 465.736 286.904 465.736ZM290.696 466.568C290.696 468.744 289.224 470.536 286.888 470.536C285.608 470.536 284.376 470.008 283.624 468.76L284.968 467.864C285.528 468.68 286.072 469.032 286.888 469.032C288.248 469.032 289 467.96 289 466.712V466.04C288.408 466.792 287.528 467.192 286.808 467.192C284.696 467.192 283.192 465.592 283.192 463.352C283.192 461.112 284.696 459.496 286.808 459.496C287.592 459.496 288.472 459.896 289 460.616V459.496H290.696V466.568ZM295.935 467.176C293.775 467.176 292.255 465.592 292.255 463.352C292.255 461.096 293.775 459.512 295.935 459.512C298.303 459.512 299.055 461.448 299.103 461.576C299.567 462.664 299.423 463.88 299.423 464.008H293.919C294.111 465.032 294.975 465.736 295.935 465.736C297.199 465.736 297.711 465 297.839 464.776L299.199 465.384C298.831 466.248 297.759 467.176 295.935 467.176ZM297.823 462.664C297.663 461.72 297.119 460.952 295.935 460.952C294.911 460.952 294.111 461.672 293.919 462.664H297.823ZM311.039 461.032C312.079 461.64 312.735 462.776 312.735 463.752C312.735 465.736 311.103 467.144 308.783 467.144C306.479 467.144 304.847 465.704 304.847 463.656H306.543C306.543 464.824 307.471 465.64 308.783 465.64C310.127 465.64 311.087 464.824 311.087 463.656C311.087 462.536 310.143 461.736 308.815 461.736H307.983V460.312H308.831C310.047 460.312 310.911 459.592 310.911 458.568C310.911 457.528 310.079 456.808 308.895 456.808C307.711 456.808 306.895 457.544 306.895 458.584H305.199C305.199 456.648 306.719 455.304 308.895 455.304C311.039 455.304 312.559 456.616 312.559 458.472C312.559 459.368 311.983 460.424 311.039 461.032ZM315.372 465.384C315.948 465.384 316.348 465.8 316.348 466.376C316.348 466.968 315.948 467.384 315.372 467.384C314.78 467.384 314.364 466.968 314.364 466.376C314.364 465.8 314.78 465.384 315.372 465.384ZM324.945 461.032C325.985 461.64 326.641 462.776 326.641 463.752C326.641 465.736 325.009 467.144 322.689 467.144C320.385 467.144 318.753 465.704 318.753 463.656H320.449C320.449 464.824 321.377 465.64 322.689 465.64C324.033 465.64 324.993 464.824 324.993 463.656C324.993 462.536 324.049 461.736 322.721 461.736H321.889V460.312H322.737C323.953 460.312 324.817 459.592 324.817 458.568C324.817 457.528 323.985 456.808 322.801 456.808C321.617 456.808 320.801 457.544 320.801 458.584H319.105C319.105 456.648 320.625 455.304 322.801 455.304C324.945 455.304 326.465 456.616 326.465 458.472C326.465 459.368 325.889 460.424 324.945 461.032ZM331.102 467.08H329.246L333.806 456.84L328.462 456.856V455.352H335.502L335.662 456.84L331.102 467.08Z" fill="#6D0CA6"/>
<path d="M542.5 435L548.5 446H536.5L542.5 435Z" fill="#6D0CA6"/>
<path d="M506.014 455.32V467.128H504.302V461.8H498.734V467.128H497.038V455.32H498.734V460.328H504.302V455.32H506.014ZM508.601 459.496H510.297V467.128H508.601V459.496ZM509.449 455.688C510.009 455.688 510.409 456.088 510.409 456.648C510.409 457.208 510.009 457.608 509.449 457.608C508.889 457.608 508.489 457.208 508.489 456.648C508.489 456.088 508.889 455.688 509.449 455.688ZM516.068 465.736C517.284 465.736 518.164 464.664 518.164 463.336C518.164 462.04 517.284 460.952 516.068 460.952C514.868 460.952 514.052 461.896 514.052 463.336C514.052 464.792 514.868 465.736 516.068 465.736ZM519.86 466.568C519.86 468.744 518.388 470.536 516.052 470.536C514.772 470.536 513.54 470.008 512.788 468.76L514.132 467.864C514.692 468.68 515.236 469.032 516.052 469.032C517.412 469.032 518.164 467.96 518.164 466.712V466.04C517.572 466.792 516.692 467.192 515.972 467.192C513.86 467.192 512.356 465.592 512.356 463.352C512.356 461.112 513.86 459.496 515.972 459.496C516.756 459.496 517.636 459.896 518.164 460.616V459.496H519.86V466.568ZM527.267 462.968C527.267 461.704 526.659 460.904 525.747 460.904C524.691 460.904 523.875 461.896 523.875 463.128V467H522.179V455.704H523.875V460.408C524.339 459.816 525.091 459.432 525.747 459.432C527.635 459.432 528.979 460.84 528.979 462.776V467H527.267V462.968ZM534.521 467.176C532.361 467.176 530.841 465.592 530.841 463.352C530.841 461.096 532.361 459.512 534.521 459.512C536.889 459.512 537.641 461.448 537.689 461.576C538.153 462.664 538.009 463.88 538.009 464.008H532.505C532.697 465.032 533.561 465.736 534.521 465.736C535.785 465.736 536.297 465 536.425 464.776L537.785 465.384C537.417 466.248 536.345 467.176 534.521 467.176ZM536.409 462.664C536.249 461.72 535.705 460.952 534.521 460.952C533.497 460.952 532.697 461.672 532.505 462.664H536.409ZM540.872 464.52C541.208 465.352 542.04 465.736 542.552 465.736C543.352 465.736 543.864 465.432 543.864 464.904C543.864 464.424 543.16 464.2 542.376 463.928C541.336 463.56 539.864 463.064 539.864 461.592C539.864 460.248 541.096 459.432 542.664 459.432C543.608 459.432 545.016 459.976 545.4 461.352L543.976 461.864C543.72 461.016 543.032 460.888 542.664 460.888C541.992 460.888 541.56 461.16 541.56 461.592C541.56 462.072 542.216 462.264 543.032 462.552C544.12 462.936 545.56 463.432 545.56 464.888C545.56 466.28 544.328 467.192 542.552 467.192C541.384 467.192 540.104 466.456 539.544 465.288L540.872 464.52ZM548.214 467.144V460.968H546.774V459.496H548.214V456.824H549.91V459.496H551.718V460.968H549.91V467.144H548.214ZM561.136 465.672C562.512 465.672 563.488 464.68 563.488 463.288C563.488 461.864 562.512 460.872 561.136 460.872C559.776 460.872 558.816 461.864 558.816 463.288C558.816 464.68 559.776 465.672 561.136 465.672ZM557.12 463.288C557.12 462.44 557.424 461.688 557.76 461.064L560.96 455.368H562.912L560.592 459.448C560.784 459.416 560.976 459.384 561.184 459.384C563.536 459.4 565.184 461 565.184 463.288C565.184 465.56 563.52 467.16 561.152 467.16C558.784 467.16 557.12 465.56 557.12 463.288ZM567.817 465.384C568.393 465.384 568.793 465.8 568.793 466.376C568.793 466.968 568.393 467.384 567.817 467.384C567.225 467.384 566.809 466.968 566.809 466.376C566.809 465.8 567.225 465.384 567.817 465.384ZM575.246 456.76C573.87 456.76 572.894 457.752 572.894 459.16C572.894 460.568 573.87 461.56 575.246 461.56C576.606 461.56 577.566 460.568 577.566 459.16C577.566 457.752 576.606 456.76 575.246 456.76ZM579.262 459.16C579.262 459.992 578.958 460.76 578.622 461.368L575.422 467.064H573.47L575.79 462.984C575.598 463.016 575.406 463.048 575.198 463.048C572.846 463.032 571.198 461.432 571.198 459.16C571.198 456.872 572.862 455.272 575.23 455.272C577.598 455.272 579.262 456.872 579.262 459.16ZM581.063 465.56C583.399 463.32 586.583 461.048 586.583 459.08C586.583 457.768 585.751 456.84 584.567 456.84C583.655 456.84 582.743 457.496 582.327 458.44L580.839 457.784C581.479 456.312 583.031 455.288 584.567 455.288C586.759 455.288 588.279 456.856 588.279 459.08C588.279 461.528 585.623 463.704 583.463 465.56H588.471V467.048H581.223L581.063 465.56Z" fill="#6D0CA6"/>
<defs>
<linearGradient id="paint0_linear_4487_5576" x1="17.5" y1="379" x2="17.5" y2="400" gradientUnits="userSpaceOnUse">
<stop stop-color="#9735D0"/>
<stop offset="1" stop-color="#9735D0" stop-opacity="0.4"/>
</linearGradient>
<linearGradient id="paint1_linear_4487_5576" x1="58.5" y1="379" x2="58.5" y2="400" gradientUnits="userSpaceOnUse">
<stop stop-color="#9735D0"/>
<stop offset="1" stop-color="#9735D0" stop-opacity="0.4"/>
</linearGradient>
<linearGradient id="paint2_linear_4487_5576" x1="99.5" y1="379" x2="99.5" y2="400" gradientUnits="userSpaceOnUse">
<stop stop-color="#9735D0"/>
<stop offset="1" stop-color="#9735D0" stop-opacity="0.4"/>
</linearGradient>
<linearGradient id="paint3_linear_4487_5576" x1="140.5" y1="291" x2="140.5" y2="400" gradientUnits="userSpaceOnUse">
<stop stop-color="#9735D0"/>
<stop offset="1" stop-color="#9735D0" stop-opacity="0.4"/>
</linearGradient>
<linearGradient id="paint4_linear_4487_5576" x1="181.5" y1="311" x2="181.5" y2="400" gradientUnits="userSpaceOnUse">
<stop stop-color="#9735D0"/>
<stop offset="1" stop-color="#9735D0" stop-opacity="0.4"/>
</linearGradient>
<linearGradient id="paint5_linear_4487_5576" x1="222.5" y1="173" x2="222.5" y2="400" gradientUnits="userSpaceOnUse">
<stop stop-color="#9735D0"/>
<stop offset="1" stop-color="#9735D0" stop-opacity="0.4"/>
</linearGradient>
<linearGradient id="paint6_linear_4487_5576" x1="263.5" y1="258" x2="263.5" y2="400" gradientUnits="userSpaceOnUse">
<stop stop-color="#9735D0"/>
<stop offset="1" stop-color="#9735D0" stop-opacity="0.4"/>
</linearGradient>
<linearGradient id="paint7_linear_4487_5576" x1="304.5" y1="311" x2="304.5" y2="400" gradientUnits="userSpaceOnUse">
<stop stop-color="#9735D0"/>
<stop offset="1" stop-color="#9735D0" stop-opacity="0.4"/>
</linearGradient>
<linearGradient id="paint8_linear_4487_5576" x1="345.5" y1="311" x2="345.5" y2="400" gradientUnits="userSpaceOnUse">
<stop stop-color="#9735D0"/>
<stop offset="1" stop-color="#9735D0" stop-opacity="0.4"/>
</linearGradient>
<linearGradient id="paint9_linear_4487_5576" x1="386.5" y1="346" x2="386.5" y2="400" gradientUnits="userSpaceOnUse">
<stop stop-color="#9735D0"/>
<stop offset="1" stop-color="#9735D0" stop-opacity="0.4"/>
</linearGradient>
<linearGradient id="paint10_linear_4487_5576" x1="427.5" y1="379" x2="427.5" y2="400" gradientUnits="userSpaceOnUse">
<stop stop-color="#9735D0"/>
<stop offset="1" stop-color="#9735D0" stop-opacity="0.4"/>
</linearGradient>
<linearGradient id="paint11_linear_4487_5576" x1="468.5" y1="329" x2="468.5" y2="400" gradientUnits="userSpaceOnUse">
<stop stop-color="#9735D0"/>
<stop offset="1" stop-color="#9735D0" stop-opacity="0.4"/>
</linearGradient>
<linearGradient id="paint12_linear_4487_5576" x1="550.5" y1="346" x2="550.5" y2="400" gradientUnits="userSpaceOnUse">
<stop stop-color="#9735D0"/>
<stop offset="1" stop-color="#9735D0" stop-opacity="0.4"/>
</linearGradient>
</defs>
</svg>
