<svg width="452" height="469" viewBox="0 0 452 469" fill="none" xmlns="http://www.w3.org/2000/svg">
<ellipse cx="225.5" cy="254.5" rx="159.5" ry="159.5" stroke="#E4E4E7" stroke-width="2" stroke-linecap="round" stroke-dasharray="1 10"/>
<g filter="url(#filter0_d_15624_52092)">
<circle cx="226" cy="82" r="62" fill="white"/>
</g>
<path d="M205 91C205 87.6863 207.686 85 211 85H241C244.314 85 247 87.6863 247 91V101.5C247 104.814 244.314 107.5 241 107.5H211C207.686 107.5 205 104.814 205 101.5V91Z" fill="#6D0CA6"/>
<path d="M222.428 90.5942V101.261V101.261C222.428 102.021 222.428 102.401 222.153 102.554C221.878 102.708 221.503 102.538 220.751 102.198L220.751 102.198L219.123 100.571L219.123 100.571C218.868 100.456 218.741 100.399 218.605 100.399C218.468 100.399 218.341 100.456 218.086 100.571L218.086 100.571L216.251 102.198C215.499 102.538 215.124 102.708 214.849 102.554C214.574 102.401 214.574 102.021 214.574 101.261V89.0942L222.428 90.5942Z" fill="white"/>
<path d="M207.09 56.5C205.936 56.5 205 57.4075 205 58.527V96.25C206.2 92.05 220.75 94.75 247 94V58.527C247 57.4075 246.064 56.5 244.91 56.5H207.09Z" fill="#CC7DFA"/>
<path d="M215.502 66.4756C214.383 66.4756 213.477 67.3822 213.477 68.5006C213.477 69.619 214.383 70.5256 215.502 70.5256H220.591C221.709 70.5256 222.616 69.619 222.616 68.5006C222.616 67.3822 221.709 66.4756 220.591 66.4756H215.502Z" fill="white"/>
<path d="M215.502 74.8135C214.383 74.8135 213.477 75.7201 213.477 76.8385C213.477 77.9569 214.383 78.8635 215.502 78.8635H231.405C232.523 78.8635 233.43 77.9569 233.43 76.8385C233.43 75.7201 232.523 74.8135 231.405 74.8135H215.502Z" fill="white"/>
<path d="M222.242 182.488C222.83 182.488 223.352 182.278 223.808 181.858C224.264 181.438 224.618 180.856 224.87 180.112C225.122 179.356 225.248 178.486 225.248 177.502C225.248 176.518 225.122 175.648 224.87 174.892C224.618 174.136 224.264 173.548 223.808 173.128C223.352 172.708 222.83 172.498 222.242 172.498C221.654 172.498 221.126 172.708 220.658 173.128C220.202 173.548 219.848 174.136 219.596 174.892C219.344 175.648 219.218 176.518 219.218 177.502C219.218 178.486 219.344 179.356 219.596 180.112C219.848 180.856 220.202 181.438 220.658 181.858C221.126 182.278 221.654 182.488 222.242 182.488ZM217.31 177.502C217.31 176.206 217.52 175.054 217.94 174.046C218.36 173.026 218.942 172.234 219.686 171.67C220.43 171.106 221.282 170.824 222.242 170.824C223.19 170.824 224.036 171.106 224.78 171.67C225.524 172.234 226.106 173.026 226.526 174.046C226.946 175.054 227.156 176.206 227.156 177.502C227.156 178.786 226.946 179.938 226.526 180.958C226.106 181.966 225.524 182.758 224.78 183.334C224.036 183.898 223.19 184.18 222.242 184.18C221.294 184.18 220.442 183.898 219.686 183.334C218.942 182.758 218.36 181.966 217.94 180.958C217.52 179.938 217.31 178.786 217.31 177.502ZM233.79 184.054L231.882 184.036V173.002L229.578 174.28L228.786 172.678L231.9 170.968H233.79V184.054Z" fill="#6D0CA6"/>
<path d="M212.051 213.288C210.779 213.288 209.645 213 208.649 212.424C207.665 211.848 206.891 211.044 206.327 210.012C205.775 208.98 205.499 207.81 205.499 206.502C205.499 205.182 205.775 204.012 206.327 202.992C206.891 201.96 207.665 201.156 208.649 200.58C209.645 200.004 210.779 199.716 212.051 199.716C212.939 199.716 213.779 199.89 214.571 200.238C215.363 200.586 216.065 201.072 216.677 201.696L215.417 202.938C215.009 202.458 214.505 202.08 213.905 201.804C213.317 201.528 212.693 201.39 212.033 201.39C211.121 201.39 210.317 201.606 209.621 202.038C208.925 202.458 208.385 203.058 208.001 203.838C207.617 204.606 207.425 205.494 207.425 206.502C207.425 207.51 207.617 208.404 208.001 209.184C208.385 209.952 208.925 210.552 209.621 210.984C210.317 211.404 211.121 211.614 212.033 211.614C212.705 211.614 213.323 211.476 213.887 211.2C214.451 210.924 214.937 210.558 215.345 210.102L216.677 211.308C215.357 212.64 213.815 213.3 212.051 213.288ZM222.376 211.596C223.048 211.596 223.588 211.35 223.996 210.858C224.404 210.366 224.608 209.712 224.608 208.896C224.608 208.092 224.404 207.444 223.996 206.952C223.588 206.448 223.048 206.196 222.376 206.196C221.704 206.196 221.164 206.442 220.756 206.934C220.348 207.426 220.144 208.08 220.144 208.896C220.144 209.712 220.348 210.366 220.756 210.858C221.164 211.35 221.704 211.596 222.376 211.596ZM218.236 208.896C218.236 208.056 218.41 207.312 218.758 206.664C219.118 206.004 219.61 205.488 220.234 205.116C220.858 204.744 221.572 204.558 222.376 204.558C223.18 204.558 223.894 204.744 224.518 205.116C225.142 205.488 225.628 206.004 225.976 206.664C226.336 207.312 226.516 208.056 226.516 208.896C226.516 209.724 226.336 210.468 225.976 211.128C225.628 211.788 225.142 212.304 224.518 212.676C223.894 213.048 223.18 213.234 222.376 213.234C221.572 213.234 220.858 213.048 220.234 212.676C219.61 212.304 219.118 211.788 218.758 211.128C218.41 210.468 218.236 209.724 218.236 208.896ZM232.271 213.234C231.491 213.234 230.789 213.048 230.165 212.676C229.541 212.304 229.055 211.794 228.707 211.146C228.359 210.486 228.185 209.736 228.185 208.896C228.185 208.056 228.359 207.312 228.707 206.664C229.055 206.004 229.541 205.488 230.165 205.116C230.789 204.744 231.491 204.558 232.271 204.558C232.679 204.558 233.111 204.66 233.567 204.864C234.035 205.068 234.437 205.392 234.773 205.836V200.292H236.681V213.162H234.773V211.956C234.425 212.388 234.017 212.712 233.549 212.928C233.093 213.132 232.667 213.234 232.271 213.234ZM230.093 208.914C230.093 209.73 230.303 210.39 230.723 210.894C231.143 211.386 231.701 211.632 232.397 211.632C232.829 211.632 233.225 211.512 233.585 211.272C233.945 211.032 234.233 210.708 234.449 210.3C234.665 209.88 234.773 209.418 234.773 208.914C234.773 208.422 234.665 207.966 234.449 207.546C234.233 207.126 233.939 206.796 233.567 206.556C233.207 206.316 232.817 206.196 232.397 206.196C231.701 206.196 231.143 206.448 230.723 206.952C230.303 207.444 230.093 208.098 230.093 208.914ZM242.784 213.198C241.98 213.198 241.266 213.018 240.642 212.658C240.018 212.286 239.526 211.776 239.166 211.128C238.818 210.468 238.644 209.724 238.644 208.896C238.644 208.056 238.818 207.312 239.166 206.664C239.526 206.004 240.018 205.494 240.642 205.134C241.266 204.762 241.98 204.576 242.784 204.576C243.9 204.576 244.734 204.858 245.286 205.422C245.838 205.974 246.192 206.466 246.348 206.898C246.6 207.486 246.726 208.188 246.726 209.004C246.726 209.22 246.72 209.376 246.708 209.472C246.708 209.556 246.708 209.61 246.708 209.634H240.516C240.624 210.21 240.894 210.678 241.326 211.038C241.758 211.398 242.244 211.578 242.784 211.578C243.396 211.578 243.87 211.458 244.206 211.218C244.542 210.978 244.782 210.738 244.926 210.498L246.456 211.182C246.216 211.734 245.778 212.208 245.142 212.604C244.518 213 243.732 213.198 242.784 213.198ZM244.908 208.122C244.812 207.546 244.59 207.084 244.242 206.736C243.894 206.376 243.408 206.196 242.784 206.196C242.22 206.196 241.728 206.376 241.308 206.736C240.888 207.096 240.624 207.558 240.516 208.122H244.908Z" fill="#15151A"/>
<g filter="url(#filter1_d_15624_52092)">
<circle cx="90" cy="330" r="62" fill="white"/>
</g>
<path d="M71.6367 361.052H70.8015C67.772 361.052 66.2573 361.052 65.3161 360.111C64.375 359.17 64.375 357.655 64.375 354.626V351.053C64.375 349.387 64.375 348.554 64.8029 347.81C65.2309 347.066 65.8765 346.69 67.1676 345.939C75.6681 340.995 87.7402 338.212 95.7974 343.018C96.3388 343.341 96.8256 343.731 97.2417 344.198C99.035 346.212 98.9043 349.252 96.8375 351.056C96.4011 351.437 95.9359 351.726 95.4674 351.826C95.8524 351.782 96.2214 351.731 96.5735 351.675C99.502 351.207 101.96 349.642 104.211 347.942L110.018 343.556C112.065 342.009 115.103 342.009 117.151 343.555C118.994 344.947 119.558 347.239 118.392 349.107C117.033 351.285 115.119 354.072 113.28 355.775C111.439 357.48 108.698 359.002 106.46 360.082C103.981 361.279 101.243 361.968 98.4576 362.419C92.8084 363.334 86.9209 363.194 81.3291 362.042C78.1679 361.391 74.8848 361.052 71.6367 361.052Z" fill="#CC7DFA"/>
<path d="M75.4623 303.086C74.2836 303.086 73.3281 304.042 73.3281 305.221C73.3281 306.399 74.2836 307.355 75.4623 307.355H87.8667L87.8667 332.761C87.8667 333.939 88.8222 334.895 90.0009 334.895C91.1795 334.895 92.135 333.939 92.135 332.761V307.355H104.539C105.718 307.355 106.673 306.399 106.673 305.221C106.673 304.042 105.718 303.086 104.539 303.086H75.4623Z" fill="#CC7DFA"/>
<path fill-rule="evenodd" clip-rule="evenodd" d="M79.7891 332.76C79.7891 331.581 80.7446 330.626 81.9232 330.626H98.0771C99.2557 330.626 100.211 331.581 100.211 332.76C100.211 333.939 99.2557 334.894 98.0771 334.894H81.9232C80.7446 334.894 79.7891 333.939 79.7891 332.76Z" fill="#6D0CA6"/>
<path d="M103.447 309.545C103.825 309.014 104.614 309.014 104.992 309.545L110.361 317.082H98.0781L103.447 309.545Z" fill="#CC7DFA"/>
<path d="M110.361 317.083C110.361 320.473 107.6 323.241 104.219 323.241C100.839 323.241 98.0781 320.473 98.0781 317.083H110.361Z" fill="#6D0CA6"/>
<path d="M75.0133 309.545C75.3915 309.014 76.1802 309.014 76.5584 309.545L81.9271 317.082H69.6445L75.0133 309.545Z" fill="#CC7DFA"/>
<path d="M81.9271 317.082C81.9271 320.472 79.1664 323.241 75.7858 323.241C72.4053 323.241 69.6445 320.472 69.6445 317.082H81.9271Z" fill="#6D0CA6"/>
<path d="M84.9485 301.5C84.4247 301.5 83.9879 301.067 84.1313 300.564C84.709 298.533 87.1251 297 90 297C92.8749 297 95.291 298.533 95.8687 300.564C96.0121 301.067 95.5753 301.5 95.0515 301.5L84.9485 301.5Z" fill="#6D0CA6"/>
<path d="M84.8185 430.488C85.4065 430.488 85.9285 430.278 86.3845 429.858C86.8405 429.438 87.1945 428.856 87.4465 428.112C87.6985 427.356 87.8245 426.486 87.8245 425.502C87.8245 424.518 87.6985 423.648 87.4465 422.892C87.1945 422.136 86.8405 421.548 86.3845 421.128C85.9285 420.708 85.4065 420.498 84.8185 420.498C84.2305 420.498 83.7025 420.708 83.2345 421.128C82.7785 421.548 82.4245 422.136 82.1725 422.892C81.9205 423.648 81.7945 424.518 81.7945 425.502C81.7945 426.486 81.9205 427.356 82.1725 428.112C82.4245 428.856 82.7785 429.438 83.2345 429.858C83.7025 430.278 84.2305 430.488 84.8185 430.488ZM79.8865 425.502C79.8865 424.206 80.0965 423.054 80.5165 422.046C80.9365 421.026 81.5185 420.234 82.2625 419.67C83.0065 419.106 83.8585 418.824 84.8185 418.824C85.7665 418.824 86.6125 419.106 87.3565 419.67C88.1005 420.234 88.6825 421.026 89.1025 422.046C89.5225 423.054 89.7325 424.206 89.7325 425.502C89.7325 426.786 89.5225 427.938 89.1025 428.958C88.6825 429.966 88.1005 430.758 87.3565 431.334C86.6125 431.898 85.7665 432.18 84.8185 432.18C83.8705 432.18 83.0185 431.898 82.2625 431.334C81.5185 430.758 80.9365 429.966 80.5165 428.958C80.0965 427.938 79.8865 426.786 79.8865 425.502ZM91.7584 430.38C92.0104 430.128 92.3284 429.834 92.7124 429.498C93.0964 429.162 93.3904 428.898 93.5944 428.706C94.5664 427.842 95.3404 427.128 95.9164 426.564C96.4924 425.988 96.9784 425.4 97.3744 424.8C97.7704 424.2 97.9684 423.63 97.9684 423.09C97.9684 422.346 97.7524 421.74 97.3204 421.272C96.9004 420.804 96.3604 420.57 95.7004 420.57C95.1844 420.57 94.6924 420.738 94.2244 421.074C93.7684 421.41 93.4204 421.842 93.1804 422.37L91.5064 421.632C91.8664 420.804 92.4364 420.132 93.2164 419.616C94.0084 419.088 94.8364 418.824 95.7004 418.824C96.5164 418.824 97.2364 419.004 97.8604 419.364C98.4964 419.724 98.9884 420.228 99.3364 420.876C99.6964 421.524 99.8764 422.262 99.8764 423.09C99.8764 423.906 99.6304 424.716 99.1384 425.52C98.6584 426.324 98.0764 427.062 97.3924 427.734C96.7084 428.406 95.8264 429.204 94.7464 430.128L94.4584 430.38H100.092V432.054H91.9384L91.7584 430.38Z" fill="#6D0CA6"/>
<path d="M49.622 461.288C48.35 461.288 47.216 461 46.22 460.424C45.236 459.848 44.462 459.044 43.898 458.012C43.346 456.98 43.07 455.81 43.07 454.502C43.07 453.182 43.346 452.012 43.898 450.992C44.462 449.96 45.236 449.156 46.22 448.58C47.216 448.004 48.35 447.716 49.622 447.716C50.51 447.716 51.35 447.89 52.142 448.238C52.934 448.586 53.636 449.072 54.248 449.696L52.988 450.938C52.58 450.458 52.076 450.08 51.476 449.804C50.888 449.528 50.264 449.39 49.604 449.39C48.692 449.39 47.888 449.606 47.192 450.038C46.496 450.458 45.956 451.058 45.572 451.838C45.188 452.606 44.996 453.494 44.996 454.502C44.996 455.51 45.188 456.404 45.572 457.184C45.956 457.952 46.496 458.552 47.192 458.984C47.888 459.404 48.692 459.614 49.604 459.614C50.276 459.614 50.894 459.476 51.458 459.2C52.022 458.924 52.508 458.558 52.916 458.102L54.248 459.308C52.928 460.64 51.386 461.3 49.622 461.288ZM59.947 459.596C60.619 459.596 61.159 459.35 61.567 458.858C61.975 458.366 62.179 457.712 62.179 456.896C62.179 456.092 61.975 455.444 61.567 454.952C61.159 454.448 60.619 454.196 59.947 454.196C59.275 454.196 58.735 454.442 58.327 454.934C57.919 455.426 57.715 456.08 57.715 456.896C57.715 457.712 57.919 458.366 58.327 458.858C58.735 459.35 59.275 459.596 59.947 459.596ZM55.807 456.896C55.807 456.056 55.981 455.312 56.329 454.664C56.689 454.004 57.181 453.488 57.805 453.116C58.429 452.744 59.143 452.558 59.947 452.558C60.751 452.558 61.465 452.744 62.089 453.116C62.713 453.488 63.199 454.004 63.547 454.664C63.907 455.312 64.087 456.056 64.087 456.896C64.087 457.724 63.907 458.468 63.547 459.128C63.199 459.788 62.713 460.304 62.089 460.676C61.465 461.048 60.751 461.234 59.947 461.234C59.143 461.234 58.429 461.048 57.805 460.676C57.181 460.304 56.689 459.788 56.329 459.128C55.981 458.468 55.807 457.724 55.807 456.896ZM76.9359 456.284C76.9359 455.672 76.7859 455.18 76.4859 454.808C76.1859 454.436 75.7899 454.25 75.2979 454.25C74.7579 454.25 74.3139 454.436 73.9659 454.808C73.6299 455.18 73.4619 455.642 73.4619 456.194V461.162H71.5359V456.284C71.5359 455.672 71.3859 455.18 71.0859 454.808C70.7979 454.436 70.4139 454.25 69.9339 454.25C69.3939 454.25 68.9439 454.454 68.5839 454.862C68.2359 455.27 68.0619 455.78 68.0619 456.392V461.162H66.1539V452.576H68.0619V453.746C68.3259 453.398 68.6319 453.122 68.9799 452.918C69.3399 452.702 69.7179 452.594 70.1139 452.594C70.6179 452.594 71.1039 452.738 71.5719 453.026C72.0399 453.314 72.3999 453.686 72.6519 454.142C72.9519 453.686 73.3599 453.314 73.8759 453.026C74.3919 452.738 74.9079 452.594 75.4239 452.594C76.0959 452.594 76.6899 452.75 77.2059 453.062C77.7339 453.374 78.1419 453.806 78.4299 454.358C78.7179 454.898 78.8619 455.516 78.8619 456.212V461.162H76.9359V456.284ZM85.5722 459.596C86.2682 459.596 86.8202 459.35 87.2282 458.858C87.6482 458.354 87.8582 457.694 87.8582 456.878C87.8582 456.062 87.6482 455.408 87.2282 454.916C86.8202 454.412 86.2682 454.16 85.5722 454.16C85.1522 454.16 84.7562 454.28 84.3842 454.52C84.0242 454.76 83.7362 455.09 83.5202 455.51C83.3162 455.93 83.2142 456.386 83.2142 456.878C83.2142 457.37 83.3162 457.826 83.5202 458.246C83.7362 458.666 84.0242 458.996 84.3842 459.236C84.7562 459.476 85.1522 459.596 85.5722 459.596ZM81.2882 452.558H83.1962V453.818C83.5082 453.41 83.9042 453.098 84.3842 452.882C84.8642 452.666 85.2962 452.558 85.6802 452.558C86.4722 452.558 87.1742 452.744 87.7862 453.116C88.4102 453.476 88.8962 453.986 89.2442 454.646C89.5922 455.294 89.7662 456.038 89.7662 456.878C89.7662 457.718 89.5922 458.468 89.2442 459.128C88.8962 459.788 88.4102 460.304 87.7862 460.676C87.1742 461.036 86.4722 461.216 85.6802 461.216C85.2842 461.216 84.8462 461.108 84.3662 460.892C83.8982 460.676 83.5082 460.358 83.1962 459.938V464.96H81.2882V452.558ZM93.4559 448.292V461.144H91.5479V448.292H93.4559ZM97.9978 452.558V461.144H96.0898V452.558H97.9978ZM95.9638 449.354C95.9638 449.042 96.0658 448.784 96.2698 448.58C96.4738 448.376 96.7318 448.274 97.0438 448.274C97.3558 448.274 97.6138 448.376 97.8178 448.58C98.0218 448.784 98.1238 449.042 98.1238 449.354C98.1238 449.666 98.0218 449.924 97.8178 450.128C97.6138 450.332 97.3558 450.434 97.0438 450.434C96.7318 450.434 96.4738 450.332 96.2698 450.128C96.0658 449.924 95.9638 449.666 95.9638 449.354ZM104.383 461.234C103.603 461.234 102.901 461.048 102.277 460.676C101.665 460.304 101.185 459.794 100.837 459.146C100.489 458.486 100.315 457.742 100.315 456.914C100.315 456.086 100.489 455.348 100.837 454.7C101.185 454.04 101.665 453.524 102.277 453.152C102.901 452.78 103.603 452.594 104.383 452.594C104.827 452.594 105.265 452.696 105.697 452.9C106.129 453.104 106.513 453.404 106.849 453.8V452.576H108.757V461.162H106.849V460.01C106.525 460.418 106.147 460.724 105.715 460.928C105.283 461.132 104.839 461.234 104.383 461.234ZM102.223 456.914C102.223 457.718 102.433 458.372 102.853 458.876C103.273 459.368 103.825 459.614 104.509 459.614C104.929 459.614 105.319 459.5 105.679 459.272C106.039 459.032 106.327 458.708 106.543 458.3C106.759 457.88 106.867 457.418 106.867 456.914C106.867 456.41 106.759 455.954 106.543 455.546C106.327 455.126 106.039 454.802 105.679 454.574C105.319 454.334 104.929 454.214 104.509 454.214C103.825 454.214 103.273 454.46 102.853 454.952C102.433 455.444 102.223 456.098 102.223 456.914ZM116.948 456.428C116.948 455.744 116.78 455.21 116.444 454.826C116.108 454.43 115.646 454.232 115.058 454.232C114.47 454.244 113.978 454.46 113.582 454.88C113.186 455.288 112.994 455.804 113.006 456.428V461.162H111.098V452.576H113.006V453.746C113.282 453.41 113.63 453.134 114.05 452.918C114.47 452.702 114.884 452.594 115.292 452.594C115.88 452.594 116.444 452.726 116.984 452.99C117.524 453.254 117.968 453.668 118.316 454.232C118.676 454.796 118.856 455.504 118.856 456.356V461.162H116.948V456.428ZM124.699 459.398C125.035 459.398 125.377 459.32 125.725 459.164C126.085 458.996 126.385 458.78 126.625 458.516L127.939 459.83C127.567 460.238 127.081 460.574 126.481 460.838C125.881 461.09 125.311 461.216 124.771 461.216C123.931 461.216 123.181 461.036 122.521 460.676C121.861 460.304 121.345 459.788 120.973 459.128C120.601 458.468 120.415 457.724 120.415 456.896C120.415 456.056 120.601 455.312 120.973 454.664C121.345 454.004 121.861 453.488 122.521 453.116C123.181 452.744 123.931 452.558 124.771 452.558C125.335 452.558 125.905 452.69 126.481 452.954C127.057 453.206 127.543 453.542 127.939 453.962L126.625 455.258C126.385 454.994 126.085 454.784 125.725 454.628C125.377 454.46 125.035 454.376 124.699 454.376C123.991 454.376 123.415 454.604 122.971 455.06C122.539 455.516 122.323 456.128 122.323 456.896C122.323 457.652 122.539 458.258 122.971 458.714C123.415 459.17 123.991 459.398 124.699 459.398ZM133.213 461.198C132.409 461.198 131.695 461.018 131.071 460.658C130.447 460.286 129.955 459.776 129.595 459.128C129.247 458.468 129.073 457.724 129.073 456.896C129.073 456.056 129.247 455.312 129.595 454.664C129.955 454.004 130.447 453.494 131.071 453.134C131.695 452.762 132.409 452.576 133.213 452.576C134.329 452.576 135.163 452.858 135.715 453.422C136.267 453.974 136.621 454.466 136.777 454.898C137.029 455.486 137.155 456.188 137.155 457.004C137.155 457.22 137.149 457.376 137.137 457.472C137.137 457.556 137.137 457.61 137.137 457.634H130.945C131.053 458.21 131.323 458.678 131.755 459.038C132.187 459.398 132.673 459.578 133.213 459.578C133.825 459.578 134.299 459.458 134.635 459.218C134.971 458.978 135.211 458.738 135.355 458.498L136.885 459.182C136.645 459.734 136.207 460.208 135.571 460.604C134.947 461 134.161 461.198 133.213 461.198ZM135.337 456.122C135.241 455.546 135.019 455.084 134.671 454.736C134.323 454.376 133.837 454.196 133.213 454.196C132.649 454.196 132.157 454.376 131.737 454.736C131.317 455.096 131.053 455.558 130.945 456.122H135.337Z" fill="#15151A"/>
<g filter="url(#filter2_d_15624_52092)">
<circle cx="362" cy="330" r="62" fill="white"/>
</g>
<path d="M341.086 327.223C341.086 334.995 349.338 343.214 355.379 348.19C358.114 350.443 359.481 351.569 361.617 351.569C363.753 351.569 365.12 350.443 367.855 348.19C373.896 343.214 382.148 334.995 382.148 327.223C382.148 314.964 370.856 309.392 361.617 319.422C352.378 309.392 341.086 314.965 341.086 327.223Z" fill="#CC7DFA"/>
<path d="M357.98 330.169C358.149 329.905 358.29 329.687 358.415 329.499C358.521 329.7 358.639 329.934 358.781 330.216L362.011 336.623L362.011 336.623C362.325 337.246 362.633 337.856 362.941 338.299C363.272 338.773 363.853 339.423 364.784 339.442C365.716 339.461 366.319 338.836 366.665 338.376C366.989 337.946 367.318 337.348 367.653 336.739L367.757 336.549C368.174 335.79 368.437 335.316 368.669 334.974C368.883 334.658 369.007 334.555 369.099 334.498C369.192 334.441 369.336 334.379 369.694 334.341C370.083 334.3 370.591 334.298 371.402 334.298H372.915C373.698 334.298 374.332 333.606 374.332 332.753C374.332 331.899 373.698 331.207 372.915 331.207L371.34 331.207C370.609 331.207 369.962 331.207 369.42 331.265C368.833 331.327 368.261 331.465 367.703 331.809C367.146 332.153 366.743 332.617 366.392 333.135C366.068 333.612 365.735 334.217 365.359 334.901L365.359 334.901L365.269 335.065C365.105 335.362 364.969 335.611 364.847 335.824C364.732 335.606 364.604 335.352 364.451 335.048L361.222 328.644C360.931 328.066 360.641 327.49 360.346 327.068C360.025 326.607 359.474 325.998 358.591 325.946C357.708 325.894 357.1 326.435 356.735 326.856C356.4 327.241 356.055 327.779 355.709 328.319L355.125 329.23C354.695 329.898 354.426 330.315 354.194 330.615C353.979 330.892 353.86 330.983 353.772 331.032C353.684 331.082 353.548 331.137 353.217 331.17C352.858 331.206 352.391 331.207 351.643 331.207H350.249C349.466 331.207 348.832 331.899 348.832 332.753C348.832 333.606 349.466 334.298 350.249 334.298L351.7 334.298H351.7C352.374 334.298 352.972 334.298 353.475 334.248C354.021 334.193 354.554 334.073 355.081 333.774C355.608 333.475 356.003 333.067 356.357 332.611C356.684 332.19 357.026 331.655 357.413 331.053L357.98 330.169Z" fill="white"/>
<path fill-rule="evenodd" clip-rule="evenodd" d="M386.57 305.601C387.449 306.48 387.449 307.905 386.57 308.783L382.616 312.737C381.738 313.616 380.313 313.616 379.434 312.737C378.556 311.858 378.556 310.434 379.434 309.555L383.388 305.601C384.267 304.723 385.691 304.723 386.57 305.601Z" fill="#6D0CA6"/>
<path fill-rule="evenodd" clip-rule="evenodd" d="M343.439 348.732C344.318 349.611 344.318 351.036 343.439 351.914L339.485 355.868C338.607 356.747 337.182 356.747 336.304 355.868C335.425 354.989 335.425 353.565 336.304 352.686L340.257 348.732C341.136 347.854 342.56 347.854 343.439 348.732Z" fill="#6D0CA6"/>
<path fill-rule="evenodd" clip-rule="evenodd" d="M336.139 305.597C337.018 304.718 338.443 304.718 339.321 305.597L343.279 309.555C344.158 310.433 344.158 311.858 343.279 312.736C342.4 313.615 340.976 313.615 340.097 312.736L336.139 308.779C335.261 307.9 335.261 306.476 336.139 305.597Z" fill="#6D0CA6"/>
<path fill-rule="evenodd" clip-rule="evenodd" d="M379.439 348.896C380.317 348.018 381.742 348.018 382.621 348.896L386.578 352.854C387.457 353.732 387.457 355.157 386.578 356.036C385.7 356.914 384.275 356.914 383.396 356.036L379.439 352.078C378.56 351.2 378.56 349.775 379.439 348.896Z" fill="#6D0CA6"/>
<path fill-rule="evenodd" clip-rule="evenodd" d="M329.598 330.819C329.598 329.576 330.605 328.569 331.848 328.569H334.848C336.09 328.569 337.098 329.576 337.098 330.819C337.098 332.061 336.09 333.069 334.848 333.069H331.848C330.605 333.069 329.598 332.061 329.598 330.819Z" fill="#CC7DFA"/>
<path fill-rule="evenodd" clip-rule="evenodd" d="M386.924 330.819C386.924 329.576 387.932 328.569 389.174 328.569H392.174C393.417 328.569 394.424 329.576 394.424 330.819C394.424 332.061 393.417 333.069 392.174 333.069H389.174C387.932 333.069 386.924 332.061 386.924 330.819Z" fill="#CC7DFA"/>
<path fill-rule="evenodd" clip-rule="evenodd" d="M361.354 362.574C362.597 362.574 363.604 361.566 363.604 360.324V357.324C363.604 356.081 362.597 355.074 361.354 355.074C360.111 355.074 359.104 356.081 359.104 357.324V360.324C359.104 361.566 360.111 362.574 361.354 362.574Z" fill="#CC7DFA"/>
<path fill-rule="evenodd" clip-rule="evenodd" d="M361.357 305.25C362.6 305.25 363.607 304.243 363.607 303V300C363.607 298.757 362.6 297.75 361.357 297.75C360.114 297.75 359.107 298.757 359.107 300V303C359.107 304.243 360.114 305.25 361.357 305.25Z" fill="#CC7DFA"/>
<path d="M356.687 430.488C357.275 430.488 357.797 430.278 358.253 429.858C358.709 429.438 359.063 428.856 359.315 428.112C359.567 427.356 359.693 426.486 359.693 425.502C359.693 424.518 359.567 423.648 359.315 422.892C359.063 422.136 358.709 421.548 358.253 421.128C357.797 420.708 357.275 420.498 356.687 420.498C356.099 420.498 355.571 420.708 355.103 421.128C354.647 421.548 354.293 422.136 354.041 422.892C353.789 423.648 353.663 424.518 353.663 425.502C353.663 426.486 353.789 427.356 354.041 428.112C354.293 428.856 354.647 429.438 355.103 429.858C355.571 430.278 356.099 430.488 356.687 430.488ZM351.755 425.502C351.755 424.206 351.965 423.054 352.385 422.046C352.805 421.026 353.387 420.234 354.131 419.67C354.875 419.106 355.727 418.824 356.687 418.824C357.635 418.824 358.481 419.106 359.225 419.67C359.969 420.234 360.551 421.026 360.971 422.046C361.391 423.054 361.601 424.206 361.601 425.502C361.601 426.786 361.391 427.938 360.971 428.958C360.551 429.966 359.969 430.758 359.225 431.334C358.481 431.898 357.635 432.18 356.687 432.18C355.739 432.18 354.887 431.898 354.131 431.334C353.387 430.758 352.805 429.966 352.385 428.958C351.965 427.938 351.755 426.786 351.755 425.502ZM370.323 425.286C370.899 425.622 371.361 426.078 371.709 426.654C372.057 427.218 372.231 427.782 372.231 428.346C372.231 429.078 372.039 429.738 371.655 430.326C371.283 430.902 370.761 431.352 370.089 431.676C369.417 432 368.649 432.162 367.785 432.162C366.933 432.162 366.171 431.994 365.499 431.658C364.827 431.322 364.299 430.86 363.915 430.272C363.543 429.672 363.357 428.994 363.357 428.238H365.265C365.265 428.898 365.499 429.438 365.967 429.858C366.435 430.266 367.041 430.47 367.785 430.47C368.541 430.47 369.159 430.266 369.639 429.858C370.131 429.438 370.377 428.898 370.377 428.238C370.377 427.602 370.137 427.086 369.657 426.69C369.177 426.282 368.565 426.078 367.821 426.078H366.885V424.476H367.839C368.523 424.476 369.081 424.296 369.513 423.936C369.957 423.564 370.179 423.09 370.179 422.514C370.179 421.926 369.969 421.452 369.549 421.092C369.129 420.72 368.583 420.534 367.911 420.534C367.251 420.534 366.711 420.72 366.291 421.092C365.871 421.464 365.661 421.944 365.661 422.532H363.753C363.753 421.812 363.927 421.176 364.275 420.624C364.635 420.06 365.127 419.622 365.751 419.31C366.387 418.998 367.107 418.842 367.911 418.842C368.703 418.842 369.411 418.998 370.035 419.31C370.659 419.61 371.145 420.03 371.493 420.57C371.853 421.11 372.033 421.722 372.033 422.406C372.033 422.922 371.877 423.45 371.565 423.99C371.253 424.518 370.839 424.95 370.323 425.286Z" fill="#6D0CA6"/>
<path d="M325.217 461.288C323.945 461.288 322.811 461 321.815 460.424C320.831 459.848 320.057 459.044 319.493 458.012C318.941 456.98 318.665 455.81 318.665 454.502C318.665 453.182 318.941 452.012 319.493 450.992C320.057 449.96 320.831 449.156 321.815 448.58C322.811 448.004 323.945 447.716 325.217 447.716C326.105 447.716 326.945 447.89 327.737 448.238C328.529 448.586 329.231 449.072 329.843 449.696L328.583 450.938C328.175 450.458 327.671 450.08 327.071 449.804C326.483 449.528 325.859 449.39 325.199 449.39C324.287 449.39 323.483 449.606 322.787 450.038C322.091 450.458 321.551 451.058 321.167 451.838C320.783 452.606 320.591 453.494 320.591 454.502C320.591 455.51 320.783 456.404 321.167 457.184C321.551 457.952 322.091 458.552 322.787 458.984C323.483 459.404 324.287 459.614 325.199 459.614C325.871 459.614 326.489 459.476 327.053 459.2C327.617 458.924 328.103 458.558 328.511 458.102L329.843 459.308C328.523 460.64 326.981 461.3 325.217 461.288ZM335.542 459.596C336.214 459.596 336.754 459.35 337.162 458.858C337.57 458.366 337.774 457.712 337.774 456.896C337.774 456.092 337.57 455.444 337.162 454.952C336.754 454.448 336.214 454.196 335.542 454.196C334.87 454.196 334.33 454.442 333.922 454.934C333.514 455.426 333.31 456.08 333.31 456.896C333.31 457.712 333.514 458.366 333.922 458.858C334.33 459.35 334.87 459.596 335.542 459.596ZM331.402 456.896C331.402 456.056 331.576 455.312 331.924 454.664C332.284 454.004 332.776 453.488 333.4 453.116C334.024 452.744 334.738 452.558 335.542 452.558C336.346 452.558 337.06 452.744 337.684 453.116C338.308 453.488 338.794 454.004 339.142 454.664C339.502 455.312 339.682 456.056 339.682 456.896C339.682 457.724 339.502 458.468 339.142 459.128C338.794 459.788 338.308 460.304 337.684 460.676C337.06 461.048 336.346 461.234 335.542 461.234C334.738 461.234 334.024 461.048 333.4 460.676C332.776 460.304 332.284 459.788 331.924 459.128C331.576 458.468 331.402 457.724 331.402 456.896ZM347.473 456.428C347.473 455.744 347.305 455.21 346.969 454.826C346.633 454.43 346.171 454.232 345.583 454.232C344.995 454.244 344.503 454.46 344.107 454.88C343.711 455.288 343.519 455.804 343.531 456.428V461.162H341.623V452.576H343.531V453.746C343.807 453.41 344.155 453.134 344.575 452.918C344.995 452.702 345.409 452.594 345.817 452.594C346.405 452.594 346.969 452.726 347.509 452.99C348.049 453.254 348.493 453.668 348.841 454.232C349.201 454.796 349.381 455.504 349.381 456.356V461.162H347.473V456.428ZM352.848 458.21C353.028 458.642 353.304 458.978 353.676 459.218C354.048 459.458 354.402 459.578 354.738 459.578C355.194 459.578 355.554 459.5 355.818 459.344C356.082 459.176 356.214 458.942 356.214 458.642C356.214 458.402 356.082 458.21 355.818 458.066C355.554 457.922 355.128 457.748 354.54 457.544C353.964 457.34 353.49 457.148 353.118 456.968C352.746 456.788 352.416 456.53 352.128 456.194C351.852 455.846 351.714 455.42 351.714 454.916C351.714 454.172 352.014 453.584 352.614 453.152C353.214 452.708 353.964 452.486 354.864 452.486C355.248 452.486 355.65 452.564 356.07 452.72C356.502 452.876 356.886 453.116 357.222 453.44C357.57 453.764 357.81 454.166 357.942 454.646L356.34 455.222C356.208 454.802 355.998 454.514 355.71 454.358C355.434 454.202 355.152 454.124 354.864 454.124C354.48 454.124 354.174 454.196 353.946 454.34C353.73 454.484 353.622 454.676 353.622 454.916C353.622 455.156 353.742 455.342 353.982 455.474C354.222 455.606 354.654 455.78 355.278 455.996C355.854 456.2 356.328 456.398 356.7 456.59C357.084 456.77 357.414 457.028 357.69 457.364C357.978 457.7 358.122 458.12 358.122 458.624C358.122 459.404 357.81 460.034 357.186 460.514C356.562 460.982 355.746 461.216 354.738 461.216C354.066 461.216 353.412 461.024 352.776 460.64C352.14 460.244 351.666 459.722 351.354 459.074L352.848 458.21ZM364.089 461.198C363.285 461.198 362.571 461.018 361.947 460.658C361.323 460.286 360.831 459.776 360.471 459.128C360.123 458.468 359.949 457.724 359.949 456.896C359.949 456.056 360.123 455.312 360.471 454.664C360.831 454.004 361.323 453.494 361.947 453.134C362.571 452.762 363.285 452.576 364.089 452.576C365.205 452.576 366.039 452.858 366.591 453.422C367.143 453.974 367.497 454.466 367.653 454.898C367.905 455.486 368.031 456.188 368.031 457.004C368.031 457.22 368.025 457.376 368.013 457.472C368.013 457.556 368.013 457.61 368.013 457.634H361.821C361.929 458.21 362.199 458.678 362.631 459.038C363.063 459.398 363.549 459.578 364.089 459.578C364.701 459.578 365.175 459.458 365.511 459.218C365.847 458.978 366.087 458.738 366.231 458.498L367.761 459.182C367.521 459.734 367.083 460.208 366.447 460.604C365.823 461 365.037 461.198 364.089 461.198ZM366.213 456.122C366.117 455.546 365.895 455.084 365.547 454.736C365.199 454.376 364.713 454.196 364.089 454.196C363.525 454.196 363.033 454.376 362.613 454.736C362.193 455.096 361.929 455.558 361.821 456.122H366.213ZM375.896 456.428C375.896 455.744 375.728 455.21 375.392 454.826C375.056 454.43 374.594 454.232 374.006 454.232C373.418 454.244 372.926 454.46 372.53 454.88C372.134 455.288 371.942 455.804 371.954 456.428V461.162H370.046V452.576H371.954V453.746C372.23 453.41 372.578 453.134 372.998 452.918C373.418 452.702 373.832 452.594 374.24 452.594C374.828 452.594 375.392 452.726 375.932 452.99C376.472 453.254 376.916 453.668 377.264 454.232C377.624 454.796 377.804 455.504 377.804 456.356V461.162H375.896V456.428ZM381.272 458.21C381.452 458.642 381.728 458.978 382.1 459.218C382.472 459.458 382.826 459.578 383.162 459.578C383.618 459.578 383.978 459.5 384.242 459.344C384.506 459.176 384.638 458.942 384.638 458.642C384.638 458.402 384.506 458.21 384.242 458.066C383.978 457.922 383.552 457.748 382.964 457.544C382.388 457.34 381.914 457.148 381.542 456.968C381.17 456.788 380.84 456.53 380.552 456.194C380.276 455.846 380.138 455.42 380.138 454.916C380.138 454.172 380.438 453.584 381.038 453.152C381.638 452.708 382.388 452.486 383.288 452.486C383.672 452.486 384.074 452.564 384.494 452.72C384.926 452.876 385.31 453.116 385.646 453.44C385.994 453.764 386.234 454.166 386.366 454.646L384.764 455.222C384.632 454.802 384.422 454.514 384.134 454.358C383.858 454.202 383.576 454.124 383.288 454.124C382.904 454.124 382.598 454.196 382.37 454.34C382.154 454.484 382.046 454.676 382.046 454.916C382.046 455.156 382.166 455.342 382.406 455.474C382.646 455.606 383.078 455.78 383.702 455.996C384.278 456.2 384.752 456.398 385.124 456.59C385.508 456.77 385.838 457.028 386.114 457.364C386.402 457.7 386.546 458.12 386.546 458.624C386.546 459.404 386.234 460.034 385.61 460.514C384.986 460.982 384.17 461.216 383.162 461.216C382.49 461.216 381.836 461.024 381.2 460.64C380.564 460.244 380.09 459.722 379.778 459.074L381.272 458.21ZM390.816 457.472C390.816 458.12 390.99 458.636 391.338 459.02C391.686 459.404 392.148 459.596 392.724 459.596C393.336 459.596 393.828 459.41 394.2 459.038C394.572 458.654 394.752 458.138 394.74 457.49V452.576H396.666V461.162H394.74V460.172C394.476 460.496 394.14 460.754 393.732 460.946C393.324 461.138 392.904 461.234 392.472 461.234C391.788 461.234 391.176 461.078 390.636 460.766C390.096 460.454 389.67 460.022 389.358 459.47C389.058 458.906 388.908 458.264 388.908 457.544V452.576H390.816V457.472ZM400.309 458.21C400.489 458.642 400.765 458.978 401.137 459.218C401.509 459.458 401.863 459.578 402.199 459.578C402.655 459.578 403.015 459.5 403.279 459.344C403.543 459.176 403.675 458.942 403.675 458.642C403.675 458.402 403.543 458.21 403.279 458.066C403.015 457.922 402.589 457.748 402.001 457.544C401.425 457.34 400.951 457.148 400.579 456.968C400.207 456.788 399.877 456.53 399.589 456.194C399.313 455.846 399.175 455.42 399.175 454.916C399.175 454.172 399.475 453.584 400.075 453.152C400.675 452.708 401.425 452.486 402.325 452.486C402.709 452.486 403.111 452.564 403.531 452.72C403.963 452.876 404.347 453.116 404.683 453.44C405.031 453.764 405.271 454.166 405.403 454.646L403.801 455.222C403.669 454.802 403.459 454.514 403.171 454.358C402.895 454.202 402.613 454.124 402.325 454.124C401.941 454.124 401.635 454.196 401.407 454.34C401.191 454.484 401.083 454.676 401.083 454.916C401.083 455.156 401.203 455.342 401.443 455.474C401.683 455.606 402.115 455.78 402.739 455.996C403.315 456.2 403.789 456.398 404.161 456.59C404.545 456.77 404.875 457.028 405.151 457.364C405.439 457.7 405.583 458.12 405.583 458.624C405.583 459.404 405.271 460.034 404.647 460.514C404.023 460.982 403.207 461.216 402.199 461.216C401.527 461.216 400.873 461.024 400.237 460.64C399.601 460.244 399.127 459.722 398.815 459.074L400.309 458.21Z" fill="#15151A"/>
<defs>
<filter id="filter0_d_15624_52092" x="136" y="0" width="180" height="180" filterUnits="userSpaceOnUse" color-interpolation-filters="sRGB">
<feFlood flood-opacity="0" result="BackgroundImageFix"/>
<feColorMatrix in="SourceAlpha" type="matrix" values="0 0 0 0 0 0 0 0 0 0 0 0 0 0 0 0 0 0 127 0" result="hardAlpha"/>
<feOffset dy="8"/>
<feGaussianBlur stdDeviation="14"/>
<feComposite in2="hardAlpha" operator="out"/>
<feColorMatrix type="matrix" values="0 0 0 0 0 0 0 0 0 0 0 0 0 0 0 0 0 0 0.05 0"/>
<feBlend mode="normal" in2="BackgroundImageFix" result="effect1_dropShadow_15624_52092"/>
<feBlend mode="normal" in="SourceGraphic" in2="effect1_dropShadow_15624_52092" result="shape"/>
</filter>
<filter id="filter1_d_15624_52092" x="0" y="248" width="180" height="180" filterUnits="userSpaceOnUse" color-interpolation-filters="sRGB">
<feFlood flood-opacity="0" result="BackgroundImageFix"/>
<feColorMatrix in="SourceAlpha" type="matrix" values="0 0 0 0 0 0 0 0 0 0 0 0 0 0 0 0 0 0 127 0" result="hardAlpha"/>
<feOffset dy="8"/>
<feGaussianBlur stdDeviation="14"/>
<feComposite in2="hardAlpha" operator="out"/>
<feColorMatrix type="matrix" values="0 0 0 0 0 0 0 0 0 0 0 0 0 0 0 0 0 0 0.05 0"/>
<feBlend mode="normal" in2="BackgroundImageFix" result="effect1_dropShadow_15624_52092"/>
<feBlend mode="normal" in="SourceGraphic" in2="effect1_dropShadow_15624_52092" result="shape"/>
</filter>
<filter id="filter2_d_15624_52092" x="272" y="248" width="180" height="180" filterUnits="userSpaceOnUse" color-interpolation-filters="sRGB">
<feFlood flood-opacity="0" result="BackgroundImageFix"/>
<feColorMatrix in="SourceAlpha" type="matrix" values="0 0 0 0 0 0 0 0 0 0 0 0 0 0 0 0 0 0 127 0" result="hardAlpha"/>
<feOffset dy="8"/>
<feGaussianBlur stdDeviation="14"/>
<feComposite in2="hardAlpha" operator="out"/>
<feColorMatrix type="matrix" values="0 0 0 0 0 0 0 0 0 0 0 0 0 0 0 0 0 0 0.05 0"/>
<feBlend mode="normal" in2="BackgroundImageFix" result="effect1_dropShadow_15624_52092"/>
<feBlend mode="normal" in="SourceGraphic" in2="effect1_dropShadow_15624_52092" result="shape"/>
</filter>
</defs>
</svg>
