<svg width="452" height="498" viewBox="0 0 452 498" fill="none" xmlns="http://www.w3.org/2000/svg">
<ellipse cx="225.5" cy="254.5" rx="159.5" ry="159.5" stroke="#E4E4E7" stroke-width="2" stroke-linecap="round" stroke-dasharray="1 10"/>
<g filter="url(#filter0_d_8728_55633)">
<circle cx="226" cy="82" r="62" fill="white"/>
</g>
<path d="M205 91C205 87.6863 207.686 85 211 85H241C244.314 85 247 87.6863 247 91V101.5C247 104.814 244.314 107.5 241 107.5H211C207.686 107.5 205 104.814 205 101.5V91Z" fill="#6D0CA6"/>
<path d="M222.426 90.5942V101.261V101.261C222.426 102.021 222.426 102.401 222.151 102.554C221.876 102.708 221.501 102.538 220.749 102.198L220.749 102.198L219.121 100.571L219.121 100.571C218.867 100.456 218.739 100.399 218.603 100.399C218.466 100.399 218.339 100.456 218.084 100.571L218.084 100.571L216.249 102.198C215.498 102.538 215.122 102.708 214.847 102.554C214.572 102.401 214.572 102.021 214.572 101.261V89.0942L222.426 90.5942Z" fill="white"/>
<path d="M207.09 56.5C205.936 56.5 205 57.4075 205 58.527V96.25C206.2 92.05 220.75 94.75 247 94V58.527C247 57.4075 246.064 56.5 244.91 56.5H207.09Z" fill="#CC7DFA"/>
<path d="M215.501 66.4756C214.382 66.4756 213.476 67.3822 213.476 68.5006C213.476 69.619 214.382 70.5256 215.501 70.5256H220.59C221.708 70.5256 222.615 69.619 222.615 68.5006C222.615 67.3822 221.708 66.4756 220.59 66.4756H215.501Z" fill="white"/>
<path d="M215.501 74.8135C214.382 74.8135 213.476 75.7201 213.476 76.8385C213.476 77.9569 214.382 78.8635 215.501 78.8635H231.404C232.522 78.8635 233.429 77.9569 233.429 76.8385C233.429 75.7201 232.522 74.8135 231.404 74.8135H215.501Z" fill="white"/>
<path d="M222.242 182.488C224.042 182.488 225.248 180.472 225.248 177.502C225.248 174.514 224.042 172.498 222.242 172.498C220.442 172.498 219.218 174.514 219.218 177.502C219.218 180.472 220.442 182.488 222.242 182.488ZM217.31 177.502C217.31 173.578 219.344 170.824 222.242 170.824C225.122 170.824 227.156 173.578 227.156 177.502C227.156 181.408 225.122 184.18 222.242 184.18C219.344 184.18 217.31 181.408 217.31 177.502ZM233.79 170.968V184.054L231.882 184.036V173.002L229.578 174.28L228.786 172.678L231.9 170.968H233.79Z" fill="#6D0CA6"/>
<path d="M202.383 198.762C205.803 198.762 208.089 200.04 208.089 202.038C208.089 204.036 205.803 205.314 202.383 205.314C198.963 205.314 196.677 204.036 196.677 202.038C196.677 200.04 198.963 198.762 202.383 198.762ZM195.165 207.87V206.286H209.637V207.87H206.145V210.894H204.165V207.87H202.113V210.876H200.133V207.87H195.165ZM196.839 214.134V209.526H198.819V212.55H208.197V214.134H196.839ZM198.801 202.038C198.801 203.118 200.205 203.73 202.383 203.73C204.561 203.73 205.965 203.118 205.965 202.038C205.965 200.958 204.561 200.346 202.383 200.346C200.205 200.346 198.801 200.958 198.801 202.038ZM222.148 198.402H224.128V214.476H222.148V198.402ZM211.726 201.426V199.842H219.232V205.854H213.76V209.058C216.262 209.04 218.422 208.932 220.888 208.518L221.086 210.12C218.368 210.588 215.992 210.678 213.148 210.678H211.762V204.27H217.234V201.426H211.726ZM228.376 199.392H239.194V200.472C239.194 201.858 239.194 203.694 238.726 206.322H241.102V207.924H237.538V214.494H235.558V207.924H232.012V214.494H230.05V207.924H226.612V206.322H236.728C237.196 204.036 237.25 202.308 237.25 200.994H228.376V199.392ZM243.046 199.338H245.008V201.606H248.554V199.338H250.498V202.308H253.666V198.438H255.646V207.708H253.666V203.91H250.498V206.952H243.046V199.338ZM245.008 205.368H248.554V203.154H245.008V205.368ZM245.08 214.26V208.428H255.646V214.26H245.08ZM247.024 212.694H253.72V209.976H247.024V212.694Z" fill="#15151A"/>
<path d="M200.072 235.502C200.072 233.216 200.972 230.174 202.268 228.14H203.906C202.448 230.138 201.44 233.162 201.44 235.502C201.44 237.842 202.448 240.866 203.906 242.864H202.268C200.972 240.83 200.072 237.788 200.072 235.502ZM211.831 242.198C208.033 242.198 205.369 239.426 205.369 235.502C205.369 231.56 208.033 228.806 211.831 228.806C213.631 228.806 215.233 229.58 216.403 230.768L215.395 231.668C214.513 230.714 213.199 230.138 211.831 230.138C208.915 230.138 206.899 232.334 206.899 235.502C206.899 238.67 208.915 240.866 211.831 240.866C213.235 240.866 214.477 240.272 215.341 239.354L216.403 240.236C215.233 241.424 213.649 242.198 211.831 242.198ZM222.119 240.83C223.613 240.83 224.639 239.642 224.639 237.914C224.639 236.186 223.613 234.98 222.119 234.98C220.643 234.98 219.617 236.168 219.617 237.914C219.617 239.66 220.625 240.83 222.119 240.83ZM218.123 237.914C218.123 235.43 219.779 233.648 222.119 233.648C224.477 233.648 226.151 235.43 226.151 237.914C226.151 240.38 224.477 242.162 222.119 242.162C219.779 242.162 218.123 240.38 218.123 237.914ZM231.839 242.162C229.499 242.162 227.843 240.398 227.843 237.896C227.843 235.412 229.499 233.648 231.839 233.648C232.739 233.648 233.801 234.062 234.503 235.124V229.346H235.997V242.054H234.503V240.686C233.783 241.712 232.739 242.162 231.839 242.162ZM229.337 237.896C229.337 239.642 230.381 240.848 231.911 240.848C233.297 240.848 234.503 239.534 234.503 237.896C234.503 236.294 233.297 234.962 231.911 234.962C230.381 234.962 229.337 236.168 229.337 237.896ZM242.07 242.126C239.712 242.126 238.056 240.362 238.056 237.896C238.056 235.412 239.712 233.666 242.07 233.666C244.662 233.666 245.454 235.754 245.526 235.952C246.03 237.248 245.868 238.49 245.868 238.544H239.568C239.784 239.876 240.828 240.812 242.07 240.812C243.726 240.812 244.338 239.768 244.464 239.57L245.652 240.182C245.238 241.118 244.05 242.126 242.07 242.126ZM239.568 237.266L244.41 237.248C244.248 235.97 243.618 234.98 242.07 234.98C240.792 234.98 239.784 235.916 239.568 237.266ZM251.93 235.502C251.93 237.806 251.03 240.83 249.752 242.864H248.114C249.554 240.884 250.562 237.842 250.562 235.502C250.562 233.162 249.554 230.12 248.114 228.14H249.752C251.03 230.174 251.93 233.198 251.93 235.502Z" fill="#71717A"/>
<g filter="url(#filter1_d_8728_55633)">
<circle cx="90" cy="330" r="62" fill="white"/>
</g>
<path d="M71.6367 361.052H70.8015C67.772 361.052 66.2573 361.052 65.3161 360.111C64.375 359.17 64.375 357.655 64.375 354.626V351.053C64.375 349.387 64.375 348.554 64.8029 347.81C65.2309 347.066 65.8765 346.69 67.1676 345.939C75.6681 340.995 87.7402 338.212 95.7974 343.018C96.3388 343.341 96.8256 343.731 97.2417 344.198C99.035 346.212 98.9043 349.252 96.8375 351.056C96.4011 351.437 95.9359 351.726 95.4674 351.826C95.8524 351.782 96.2214 351.731 96.5735 351.675C99.502 351.207 101.96 349.642 104.211 347.942L110.018 343.556C112.065 342.009 115.103 342.009 117.151 343.555C118.994 344.947 119.558 347.239 118.392 349.107C117.033 351.285 115.119 354.072 113.28 355.775C111.439 357.48 108.698 359.002 106.46 360.082C103.981 361.279 101.243 361.968 98.4576 362.419C92.8084 363.334 86.9209 363.194 81.3291 362.042C78.1679 361.391 74.8848 361.052 71.6367 361.052Z" fill="#CC7DFA"/>
<path d="M75.4613 303.086C74.2826 303.086 73.3271 304.042 73.3271 305.221C73.3271 306.399 74.2826 307.355 75.4613 307.355H87.8657L87.8657 332.761C87.8657 333.939 88.8212 334.895 89.9999 334.895C91.1785 334.895 92.134 333.939 92.134 332.761V307.355H104.538C105.717 307.355 106.672 306.399 106.672 305.221C106.672 304.042 105.717 303.086 104.538 303.086H75.4613Z" fill="#CC7DFA"/>
<path fill-rule="evenodd" clip-rule="evenodd" d="M79.7891 332.76C79.7891 331.581 80.7446 330.626 81.9232 330.626H98.0771C99.2557 330.626 100.211 331.581 100.211 332.76C100.211 333.939 99.2557 334.894 98.0771 334.894H81.9232C80.7446 334.894 79.7891 333.939 79.7891 332.76Z" fill="#6D0CA6"/>
<path d="M103.446 309.545C103.824 309.014 104.613 309.014 104.991 309.545L110.36 317.082H98.0771L103.446 309.545Z" fill="#CC7DFA"/>
<path d="M110.36 317.083C110.36 320.473 107.599 323.241 104.218 323.241C100.838 323.241 98.0771 320.473 98.0771 317.083H110.36Z" fill="#6D0CA6"/>
<path d="M75.0142 309.545C75.3924 309.014 76.1812 309.014 76.5594 309.545L81.9281 317.082H69.6455L75.0142 309.545Z" fill="#CC7DFA"/>
<path d="M81.9281 317.082C81.9281 320.472 79.1673 323.241 75.7868 323.241C72.4063 323.241 69.6455 320.472 69.6455 317.082H81.9281Z" fill="#6D0CA6"/>
<path d="M84.9485 301.5C84.4247 301.5 83.9879 301.067 84.1313 300.564C84.709 298.533 87.1251 297 90 297C92.8749 297 95.291 298.533 95.8687 300.564C96.0121 301.067 95.5753 301.5 95.0515 301.5L84.9485 301.5Z" fill="#6D0CA6"/>
<path d="M84.8185 430.488C86.6185 430.488 87.8245 428.472 87.8245 425.502C87.8245 422.514 86.6185 420.498 84.8185 420.498C83.0185 420.498 81.7945 422.514 81.7945 425.502C81.7945 428.472 83.0185 430.488 84.8185 430.488ZM79.8865 425.502C79.8865 421.578 81.9205 418.824 84.8185 418.824C87.6985 418.824 89.7325 421.578 89.7325 425.502C89.7325 429.408 87.6985 432.18 84.8185 432.18C81.9205 432.18 79.8865 429.408 79.8865 425.502ZM91.7584 430.38C94.3864 427.86 97.9684 425.304 97.9684 423.09C97.9684 421.614 97.0324 420.57 95.7004 420.57C94.6744 420.57 93.6484 421.308 93.1804 422.37L91.5064 421.632C92.2264 419.976 93.9724 418.824 95.7004 418.824C98.1664 418.824 99.8764 420.588 99.8764 423.09C99.8764 425.844 96.8884 428.292 94.4584 430.38H100.092V432.054H91.9384L91.7584 430.38Z" fill="#6D0CA6"/>
<path d="M66.3832 446.762C69.8032 446.762 72.0892 448.04 72.0892 450.038C72.0892 452.036 69.8032 453.314 66.3832 453.314C62.9632 453.314 60.6772 452.036 60.6772 450.038C60.6772 448.04 62.9632 446.762 66.3832 446.762ZM59.1652 455.87V454.286H73.6372V455.87H70.1452V458.894H68.1652V455.87H66.1132V458.876H64.1332V455.87H59.1652ZM60.8392 462.134V457.526H62.8192V460.55H72.1972V462.134H60.8392ZM62.8012 450.038C62.8012 451.118 64.2052 451.73 66.3832 451.73C68.5612 451.73 69.9652 451.118 69.9652 450.038C69.9652 448.958 68.5612 448.346 66.3832 448.346C64.2052 448.346 62.8012 448.958 62.8012 450.038ZM86.1476 446.402H88.1276V462.476H86.1476V446.402ZM75.7256 449.426V447.842H83.2316V453.854H77.7596V457.058C80.2616 457.04 82.4216 456.932 84.8876 456.518L85.0856 458.12C82.3676 458.588 79.9916 458.678 77.1476 458.678H75.7616V452.27H81.2336V449.426H75.7256ZM102.402 446.42H104.274V462.44H102.402V446.42ZM90.324 457.922C92.61 456.482 93.6 453.602 93.6 450.794V449.75H90.846V448.13H98.064V449.75H95.526V450.794C95.526 453.494 96.462 456.23 98.73 457.562L97.56 458.984C96.102 458.102 95.13 456.59 94.572 454.772C94.032 456.752 93.024 458.426 91.512 459.38L90.324 457.922ZM96.894 453.62V452.018H99.18V446.726H101.016V461.684H99.18V453.62H96.894ZM108.09 447.59H119.106V449.174H110.07V453.692H119.25V455.276H114.552V458.93H120.852V460.55H106.344V458.93H112.59V455.276H108.09V447.59Z" fill="#15151A"/>
<path d="M38.7773 483.502C38.7773 481.216 39.6773 478.174 40.9733 476.14H42.6113C41.1533 478.138 40.1453 481.162 40.1453 483.502C40.1453 485.842 41.1533 488.866 42.6113 490.864H40.9733C39.6773 488.83 38.7773 485.788 38.7773 483.502ZM50.5361 490.198C46.7381 490.198 44.0741 487.426 44.0741 483.502C44.0741 479.56 46.7381 476.806 50.5361 476.806C52.3361 476.806 53.9381 477.58 55.1081 478.768L54.1001 479.668C53.2181 478.714 51.9041 478.138 50.5361 478.138C47.6201 478.138 45.6041 480.334 45.6041 483.502C45.6041 486.67 47.6201 488.866 50.5361 488.866C51.9401 488.866 53.1821 488.272 54.0461 487.354L55.1081 488.236C53.9381 489.424 52.3541 490.198 50.5361 490.198ZM60.8238 488.83C62.3178 488.83 63.3438 487.642 63.3438 485.914C63.3438 484.186 62.3178 482.98 60.8238 482.98C59.3478 482.98 58.3218 484.168 58.3218 485.914C58.3218 487.66 59.3298 488.83 60.8238 488.83ZM56.8278 485.914C56.8278 483.43 58.4838 481.648 60.8238 481.648C63.1818 481.648 64.8558 483.43 64.8558 485.914C64.8558 488.38 63.1818 490.162 60.8238 490.162C58.4838 490.162 56.8278 488.38 56.8278 485.914ZM77.6009 485.05C77.6009 483.826 76.8809 482.998 75.8369 482.998C74.6309 482.998 73.8029 483.79 73.8029 484.906V490.054H72.2909V485.05C72.2909 483.826 71.5889 482.998 70.5629 482.998C69.3389 482.998 68.4929 484.024 68.4929 485.212V490.054H66.9989V481.666H68.4929V482.872C68.9969 482.152 69.8249 481.666 70.6169 481.666C71.6609 481.666 72.6869 482.296 73.1729 483.214C73.7309 482.296 74.8289 481.666 75.8729 481.666C77.7629 481.666 79.1129 483.016 79.1129 484.942V490.054H77.6009V485.05ZM85.5157 488.83C87.0457 488.83 88.0717 487.642 88.0717 485.896C88.0717 484.168 87.0457 482.962 85.5157 482.962C84.1297 482.962 82.9597 484.294 82.9597 485.896C82.9597 487.516 84.1297 488.83 85.5157 488.83ZM81.4477 493.888V481.648H82.9417V483.07C83.5717 482.116 84.7237 481.648 85.5697 481.648C87.9097 481.648 89.5657 483.412 89.5657 485.896C89.5657 488.398 87.9097 490.162 85.5697 490.162C84.6877 490.162 83.5717 489.622 82.9417 488.722V493.888H81.4477ZM91.4613 477.346H92.9553V490.054H91.4613V477.346ZM95.6328 481.648H97.1268V490.054H95.6328V481.648ZM95.4708 478.39C95.4708 477.868 95.8488 477.49 96.3888 477.49C96.9108 477.49 97.2888 477.868 97.2888 478.39C97.2888 478.93 96.9108 479.308 96.3888 479.308C95.8488 479.308 95.4708 478.93 95.4708 478.39ZM103.468 490.162C101.146 490.162 99.4899 488.398 99.4899 485.932C99.4899 483.448 101.146 481.684 103.468 481.684C104.368 481.684 105.358 482.134 106.078 483.106V481.666H107.572V490.054H106.078V488.704C105.34 489.766 104.368 490.162 103.468 490.162ZM100.984 485.932C100.984 487.642 102.028 488.848 103.522 488.848C104.872 488.848 106.078 487.624 106.096 485.932C106.078 484.24 104.872 482.998 103.522 482.998C102.028 482.998 100.984 484.186 100.984 485.932ZM115.593 485.23C115.593 483.88 114.801 482.998 113.613 482.998C112.281 482.998 111.345 484.024 111.345 485.23V490.054H109.851V481.666H111.345V482.89C111.921 482.17 112.857 481.666 113.685 481.666C115.521 481.666 117.087 482.926 117.087 485.122V490.054H115.593V485.23ZM122.941 488.704C123.679 488.704 124.543 488.344 125.029 487.786L126.109 488.794C125.371 489.586 124.057 490.144 123.013 490.144C120.511 490.144 118.747 488.362 118.747 485.896C118.747 483.412 120.511 481.648 123.013 481.648C124.075 481.648 125.353 482.224 126.109 483.016L125.029 484.006C124.543 483.448 123.679 483.088 122.941 483.088C121.357 483.088 120.241 484.222 120.241 485.896C120.241 487.57 121.357 488.704 122.941 488.704ZM131.365 490.126C129.007 490.126 127.351 488.362 127.351 485.896C127.351 483.412 129.007 481.666 131.365 481.666C133.957 481.666 134.749 483.754 134.821 483.952C135.325 485.248 135.163 486.49 135.163 486.544H128.863C129.079 487.876 130.123 488.812 131.365 488.812C133.021 488.812 133.633 487.768 133.759 487.57L134.947 488.182C134.533 489.118 133.345 490.126 131.365 490.126ZM128.863 485.266L133.705 485.248C133.543 483.97 132.913 482.98 131.365 482.98C130.087 482.98 129.079 483.916 128.863 485.266ZM141.225 483.502C141.225 485.806 140.325 488.83 139.047 490.864H137.409C138.849 488.884 139.857 485.842 139.857 483.502C139.857 481.162 138.849 478.12 137.409 476.14H139.047C140.325 478.174 141.225 481.198 141.225 483.502Z" fill="#71717A"/>
<g filter="url(#filter2_d_8728_55633)">
<circle cx="362" cy="330" r="62" fill="white"/>
</g>
<path d="M341.089 327.223C341.089 334.995 349.341 343.214 355.382 348.19C358.117 350.443 359.484 351.569 361.62 351.569C363.756 351.569 365.123 350.443 367.858 348.19C373.899 343.214 382.151 334.995 382.151 327.223C382.151 314.964 370.859 309.392 361.62 319.422C352.381 309.392 341.089 314.965 341.089 327.223Z" fill="#CC7DFA"/>
<path d="M357.981 330.169C358.15 329.905 358.291 329.687 358.416 329.499C358.522 329.7 358.64 329.934 358.782 330.216L362.012 336.623L362.012 336.623C362.326 337.246 362.634 337.856 362.942 338.299C363.273 338.773 363.854 339.423 364.785 339.442C365.717 339.461 366.32 338.836 366.666 338.376C366.99 337.946 367.319 337.348 367.654 336.739L367.758 336.549C368.175 335.79 368.438 335.316 368.67 334.974C368.884 334.658 369.008 334.555 369.1 334.498C369.193 334.441 369.337 334.379 369.695 334.341C370.084 334.3 370.592 334.298 371.403 334.298H372.916C373.699 334.298 374.333 333.606 374.333 332.753C374.333 331.899 373.699 331.207 372.916 331.207L371.341 331.207C370.61 331.207 369.963 331.207 369.421 331.265C368.834 331.327 368.262 331.465 367.704 331.809C367.147 332.153 366.744 332.617 366.393 333.135C366.069 333.612 365.736 334.217 365.36 334.901L365.36 334.901L365.27 335.065C365.106 335.362 364.97 335.611 364.848 335.824C364.733 335.606 364.605 335.352 364.452 335.048L361.223 328.644C360.931 328.066 360.641 327.49 360.347 327.068C360.026 326.607 359.475 325.998 358.592 325.946C357.709 325.894 357.101 326.435 356.736 326.856C356.401 327.241 356.056 327.779 355.71 328.319L355.125 329.23C354.696 329.898 354.427 330.315 354.195 330.615C353.98 330.892 353.861 330.983 353.773 331.032C353.685 331.082 353.549 331.137 353.218 331.17C352.859 331.206 352.392 331.207 351.644 331.207H350.25C349.467 331.207 348.833 331.899 348.833 332.753C348.833 333.606 349.467 334.298 350.25 334.298L351.701 334.298H351.701C352.375 334.298 352.973 334.298 353.476 334.248C354.022 334.193 354.555 334.073 355.082 333.774C355.609 333.475 356.004 333.067 356.358 332.611C356.685 332.19 357.027 331.655 357.414 331.053L357.981 330.169Z" fill="white"/>
<path fill-rule="evenodd" clip-rule="evenodd" d="M386.571 305.601C387.45 306.48 387.45 307.905 386.571 308.783L382.617 312.737C381.739 313.616 380.314 313.616 379.435 312.737C378.557 311.858 378.557 310.434 379.435 309.555L383.389 305.601C384.268 304.723 385.692 304.723 386.571 305.601Z" fill="#6D0CA6"/>
<path fill-rule="evenodd" clip-rule="evenodd" d="M343.44 348.732C344.319 349.611 344.319 351.036 343.44 351.914L339.486 355.868C338.608 356.747 337.183 356.747 336.304 355.868C335.426 354.989 335.426 353.565 336.304 352.686L340.258 348.732C341.137 347.854 342.561 347.854 343.44 348.732Z" fill="#6D0CA6"/>
<path fill-rule="evenodd" clip-rule="evenodd" d="M336.14 305.597C337.019 304.718 338.444 304.718 339.322 305.597L343.28 309.555C344.159 310.433 344.159 311.858 343.28 312.736C342.401 313.615 340.977 313.615 340.098 312.736L336.14 308.779C335.262 307.9 335.262 306.476 336.14 305.597Z" fill="#6D0CA6"/>
<path fill-rule="evenodd" clip-rule="evenodd" d="M379.44 348.896C380.318 348.018 381.743 348.018 382.622 348.896L386.579 352.854C387.458 353.732 387.458 355.157 386.579 356.036C385.701 356.914 384.276 356.914 383.397 356.036L379.44 352.078C378.561 351.2 378.561 349.775 379.44 348.896Z" fill="#6D0CA6"/>
<path fill-rule="evenodd" clip-rule="evenodd" d="M329.6 330.819C329.6 329.576 330.607 328.569 331.85 328.569H334.85C336.092 328.569 337.1 329.576 337.1 330.819C337.1 332.061 336.092 333.069 334.85 333.069H331.85C330.607 333.069 329.6 332.061 329.6 330.819Z" fill="#CC7DFA"/>
<path fill-rule="evenodd" clip-rule="evenodd" d="M386.926 330.819C386.926 329.576 387.934 328.569 389.176 328.569H392.176C393.419 328.569 394.426 329.576 394.426 330.819C394.426 332.061 393.419 333.069 392.176 333.069H389.176C387.934 333.069 386.926 332.061 386.926 330.819Z" fill="#CC7DFA"/>
<path fill-rule="evenodd" clip-rule="evenodd" d="M361.356 362.574C362.599 362.574 363.606 361.566 363.606 360.324V357.324C363.606 356.081 362.599 355.074 361.356 355.074C360.113 355.074 359.106 356.081 359.106 357.324V360.324C359.106 361.566 360.113 362.574 361.356 362.574Z" fill="#CC7DFA"/>
<path fill-rule="evenodd" clip-rule="evenodd" d="M361.359 305.25C362.602 305.25 363.609 304.243 363.609 303V300C363.609 298.757 362.602 297.75 361.359 297.75C360.116 297.75 359.109 298.757 359.109 300V303C359.109 304.243 360.116 305.25 361.359 305.25Z" fill="#CC7DFA"/>
<path d="M356.687 430.488C358.487 430.488 359.693 428.472 359.693 425.502C359.693 422.514 358.487 420.498 356.687 420.498C354.887 420.498 353.663 422.514 353.663 425.502C353.663 428.472 354.887 430.488 356.687 430.488ZM351.755 425.502C351.755 421.578 353.789 418.824 356.687 418.824C359.567 418.824 361.601 421.578 361.601 425.502C361.601 429.408 359.567 432.18 356.687 432.18C353.789 432.18 351.755 429.408 351.755 425.502ZM370.323 425.286C371.493 425.97 372.231 427.248 372.231 428.346C372.231 430.578 370.395 432.162 367.785 432.162C365.193 432.162 363.357 430.542 363.357 428.238H365.265C365.265 429.552 366.309 430.47 367.785 430.47C369.297 430.47 370.377 429.552 370.377 428.238C370.377 426.978 369.315 426.078 367.821 426.078H366.885V424.476H367.839C369.207 424.476 370.179 423.666 370.179 422.514C370.179 421.344 369.243 420.534 367.911 420.534C366.579 420.534 365.661 421.362 365.661 422.532H363.753C363.753 420.354 365.463 418.842 367.911 418.842C370.323 418.842 372.033 420.318 372.033 422.406C372.033 423.414 371.385 424.602 370.323 425.286Z" fill="#6D0CA6"/>
<path d="M330.445 456.464C333.883 456.464 336.097 457.598 336.097 459.47C336.097 461.324 333.883 462.458 330.445 462.458C327.007 462.458 324.811 461.324 324.811 459.47C324.811 457.598 327.007 456.464 330.445 456.464ZM323.299 455.294V453.71H328.879V450.812H330.841V453.71H337.735V455.294H323.299ZM324.955 448.76V447.194H335.971V448.526C335.971 449.804 335.971 451.136 335.539 452.792L333.595 452.576C333.991 451.046 334.009 449.912 334.009 448.76H324.955ZM326.773 459.47C326.773 460.424 328.141 460.946 330.445 460.946C332.749 460.946 334.117 460.424 334.117 459.47C334.117 458.498 332.749 457.958 330.445 457.958C328.141 457.958 326.773 458.498 326.773 459.47ZM349.561 446.42H351.541V450.056H353.773V451.694H351.541V455.42H349.561V446.42ZM338.905 454.142C342.595 453.206 344.683 451.298 345.007 448.958H339.643V447.374H347.131C347.131 451.568 344.413 454.466 339.661 455.708L338.905 454.142ZM341.281 462.242V456.086H351.541V462.242H341.281ZM343.225 460.676H349.597V457.67H343.225V460.676ZM366.536 446.42H368.426V462.44H366.536V454.304H364.79V461.648H362.954V446.744H364.79V452.684H366.536V446.42ZM355.25 458.714V448.328H361.154V449.93H357.194V457.076C358.904 457.058 360.344 456.95 361.946 456.644L362.126 458.264C360.182 458.642 358.526 458.714 356.33 458.714H355.25ZM379.496 450.074H381.782V446.42H383.762V456.698H381.782V454.826H379.46V453.242H381.782V451.64H379.496V450.074ZM370.496 449.552V448.004H374.024V446.294H376.022V448.004H379.37V449.552H370.496ZM371.306 453.188C371.306 451.424 372.836 450.218 374.996 450.218C377.192 450.218 378.704 451.424 378.704 453.188C378.704 454.988 377.192 456.194 374.996 456.194C372.836 456.194 371.306 454.988 371.306 453.188ZM372.998 459.65C372.998 457.904 375.068 456.878 378.416 456.878C381.764 456.878 383.852 457.904 383.852 459.65C383.852 461.414 381.764 462.44 378.416 462.44C375.068 462.44 372.998 461.414 372.998 459.65ZM373.16 453.188C373.16 454.142 373.898 454.7 374.996 454.7C376.112 454.7 376.868 454.142 376.868 453.188C376.868 452.252 376.112 451.712 374.996 451.712C373.898 451.712 373.16 452.252 373.16 453.188ZM375.068 459.65C375.068 460.496 376.292 460.928 378.416 460.928C380.54 460.928 381.764 460.496 381.764 459.65C381.764 458.804 380.54 458.39 378.416 458.39C376.292 458.39 375.068 458.804 375.068 459.65ZM390.045 447.302H392.025V448.724C392.025 450.902 393.267 452.9 395.733 453.692L394.689 455.24C392.979 454.646 391.773 453.476 391.089 451.982C390.387 453.71 389.055 455.06 387.129 455.726L386.103 454.124C388.713 453.26 390.045 451.118 390.045 448.796V447.302ZM388.695 459.362C388.695 457.418 390.783 456.284 394.149 456.284C397.497 456.284 399.567 457.418 399.567 459.362C399.567 461.324 397.497 462.44 394.149 462.44C390.783 462.44 388.695 461.324 388.695 459.362ZM390.693 459.362C390.693 460.37 391.917 460.91 394.149 460.91C396.345 460.91 397.605 460.37 397.605 459.362C397.605 458.354 396.345 457.814 394.149 457.814C391.917 457.814 390.693 458.354 390.693 459.362ZM394.383 451.154V449.516H397.515V446.438H399.495V455.852H397.515V451.154H394.383Z" fill="#15151A"/>
<path d="M314.064 483.502C314.064 481.216 314.964 478.174 316.26 476.14H317.898C316.44 478.138 315.432 481.162 315.432 483.502C315.432 485.842 316.44 488.866 317.898 490.864H316.26C314.964 488.83 314.064 485.788 314.064 483.502ZM325.823 490.198C322.025 490.198 319.361 487.426 319.361 483.502C319.361 479.56 322.025 476.806 325.823 476.806C327.623 476.806 329.225 477.58 330.395 478.768L329.387 479.668C328.505 478.714 327.191 478.138 325.823 478.138C322.907 478.138 320.891 480.334 320.891 483.502C320.891 486.67 322.907 488.866 325.823 488.866C327.227 488.866 328.469 488.272 329.333 487.354L330.395 488.236C329.225 489.424 327.641 490.198 325.823 490.198ZM336.111 488.83C337.605 488.83 338.631 487.642 338.631 485.914C338.631 484.186 337.605 482.98 336.111 482.98C334.635 482.98 333.609 484.168 333.609 485.914C333.609 487.66 334.617 488.83 336.111 488.83ZM332.115 485.914C332.115 483.43 333.771 481.648 336.111 481.648C338.469 481.648 340.143 483.43 340.143 485.914C340.143 488.38 338.469 490.162 336.111 490.162C333.771 490.162 332.115 488.38 332.115 485.914ZM347.902 485.23C347.902 483.88 347.11 482.998 345.922 482.998C344.59 482.998 343.654 484.024 343.654 485.23V490.054H342.16V481.666H343.654V482.89C344.23 482.17 345.166 481.666 345.994 481.666C347.83 481.666 349.396 482.926 349.396 485.122V490.054H347.902V485.23ZM352.639 487.372C353.107 488.38 354.097 488.812 354.727 488.812C355.735 488.812 356.455 488.38 356.455 487.66C356.455 486.976 355.519 486.706 354.583 486.382C353.431 485.986 351.811 485.482 351.811 483.88C351.811 482.458 353.125 481.576 354.799 481.576C355.789 481.576 357.373 482.152 357.769 483.646L356.455 484.096C356.185 483.106 355.285 482.908 354.799 482.908C353.935 482.908 353.305 483.268 353.305 483.88C353.305 484.564 354.169 484.798 355.177 485.14C356.383 485.554 357.949 486.058 357.949 487.66C357.949 489.154 356.581 490.126 354.727 490.126C353.449 490.126 352.117 489.406 351.433 488.092L352.639 487.372ZM363.85 490.126C361.492 490.126 359.836 488.362 359.836 485.896C359.836 483.412 361.492 481.666 363.85 481.666C366.442 481.666 367.234 483.754 367.306 483.952C367.81 485.248 367.648 486.49 367.648 486.544H361.348C361.564 487.876 362.608 488.812 363.85 488.812C365.506 488.812 366.118 487.768 366.244 487.57L367.432 488.182C367.018 489.118 365.83 490.126 363.85 490.126ZM361.348 485.266L366.19 485.248C366.028 483.97 365.398 482.98 363.85 482.98C362.572 482.98 361.564 483.916 361.348 485.266ZM375.482 485.23C375.482 483.88 374.69 482.998 373.502 482.998C372.17 482.998 371.234 484.024 371.234 485.23V490.054H369.74V481.666H371.234V482.89C371.81 482.17 372.746 481.666 373.574 481.666C375.41 481.666 376.976 482.926 376.976 485.122V490.054H375.482V485.23ZM380.219 487.372C380.687 488.38 381.677 488.812 382.307 488.812C383.315 488.812 384.035 488.38 384.035 487.66C384.035 486.976 383.099 486.706 382.163 486.382C381.011 485.986 379.391 485.482 379.391 483.88C379.391 482.458 380.705 481.576 382.379 481.576C383.369 481.576 384.953 482.152 385.349 483.646L384.035 484.096C383.765 483.106 382.865 482.908 382.379 482.908C381.515 482.908 380.885 483.268 380.885 483.88C380.885 484.564 381.749 484.798 382.757 485.14C383.963 485.554 385.529 486.058 385.529 487.66C385.529 489.154 384.161 490.126 382.307 490.126C381.029 490.126 379.697 489.406 379.013 488.092L380.219 487.372ZM389.445 486.544C389.445 487.876 390.255 488.848 391.425 488.848C392.757 488.848 393.675 488.002 393.675 486.67V481.666H395.187V490.054H393.675V488.992C393.117 489.712 392.181 490.18 391.335 490.18C389.355 490.18 387.933 488.686 387.933 486.67V481.666H389.445V486.544ZM398.606 487.372C399.074 488.38 400.064 488.812 400.694 488.812C401.702 488.812 402.422 488.38 402.422 487.66C402.422 486.976 401.486 486.706 400.55 486.382C399.398 485.986 397.778 485.482 397.778 483.88C397.778 482.458 399.092 481.576 400.766 481.576C401.756 481.576 403.34 482.152 403.736 483.646L402.422 484.096C402.152 483.106 401.252 482.908 400.766 482.908C399.902 482.908 399.272 483.268 399.272 483.88C399.272 484.564 400.136 484.798 401.144 485.14C402.35 485.554 403.916 486.058 403.916 487.66C403.916 489.154 402.548 490.126 400.694 490.126C399.416 490.126 398.084 489.406 397.4 488.092L398.606 487.372ZM409.938 483.502C409.938 485.806 409.038 488.83 407.76 490.864H406.122C407.562 488.884 408.57 485.842 408.57 483.502C408.57 481.162 407.562 478.12 406.122 476.14H407.76C409.038 478.174 409.938 481.198 409.938 483.502Z" fill="#71717A"/>
<defs>
<filter id="filter0_d_8728_55633" x="136" y="0" width="180" height="180" filterUnits="userSpaceOnUse" color-interpolation-filters="sRGB">
<feFlood flood-opacity="0" result="BackgroundImageFix"/>
<feColorMatrix in="SourceAlpha" type="matrix" values="0 0 0 0 0 0 0 0 0 0 0 0 0 0 0 0 0 0 127 0" result="hardAlpha"/>
<feOffset dy="8"/>
<feGaussianBlur stdDeviation="14"/>
<feComposite in2="hardAlpha" operator="out"/>
<feColorMatrix type="matrix" values="0 0 0 0 0 0 0 0 0 0 0 0 0 0 0 0 0 0 0.05 0"/>
<feBlend mode="normal" in2="BackgroundImageFix" result="effect1_dropShadow_8728_55633"/>
<feBlend mode="normal" in="SourceGraphic" in2="effect1_dropShadow_8728_55633" result="shape"/>
</filter>
<filter id="filter1_d_8728_55633" x="0" y="248" width="180" height="180" filterUnits="userSpaceOnUse" color-interpolation-filters="sRGB">
<feFlood flood-opacity="0" result="BackgroundImageFix"/>
<feColorMatrix in="SourceAlpha" type="matrix" values="0 0 0 0 0 0 0 0 0 0 0 0 0 0 0 0 0 0 127 0" result="hardAlpha"/>
<feOffset dy="8"/>
<feGaussianBlur stdDeviation="14"/>
<feComposite in2="hardAlpha" operator="out"/>
<feColorMatrix type="matrix" values="0 0 0 0 0 0 0 0 0 0 0 0 0 0 0 0 0 0 0.05 0"/>
<feBlend mode="normal" in2="BackgroundImageFix" result="effect1_dropShadow_8728_55633"/>
<feBlend mode="normal" in="SourceGraphic" in2="effect1_dropShadow_8728_55633" result="shape"/>
</filter>
<filter id="filter2_d_8728_55633" x="272" y="248" width="180" height="180" filterUnits="userSpaceOnUse" color-interpolation-filters="sRGB">
<feFlood flood-opacity="0" result="BackgroundImageFix"/>
<feColorMatrix in="SourceAlpha" type="matrix" values="0 0 0 0 0 0 0 0 0 0 0 0 0 0 0 0 0 0 127 0" result="hardAlpha"/>
<feOffset dy="8"/>
<feGaussianBlur stdDeviation="14"/>
<feComposite in2="hardAlpha" operator="out"/>
<feColorMatrix type="matrix" values="0 0 0 0 0 0 0 0 0 0 0 0 0 0 0 0 0 0 0.05 0"/>
<feBlend mode="normal" in2="BackgroundImageFix" result="effect1_dropShadow_8728_55633"/>
<feBlend mode="normal" in="SourceGraphic" in2="effect1_dropShadow_8728_55633" result="shape"/>
</filter>
</defs>
</svg>
