<svg width="1212" height="385" viewBox="0 0 1212 385" fill="none" xmlns="http://www.w3.org/2000/svg">
<g filter="url(#filter0_d_6368_38489)">
<rect x="726" y="246" width="120" height="132" rx="8" fill="white" shape-rendering="crispEdges"/>
<path d="M768.197 275.604C770.609 275.604 772.355 276.99 772.355 278.988C772.355 280.95 770.609 282.354 768.197 282.354C765.803 282.354 764.039 280.95 764.039 278.988C764.039 276.99 765.803 275.604 768.197 275.604ZM763.013 283.452C765.875 283.452 769.871 283.434 773.327 282.894L773.453 284.352C772.067 284.622 770.645 284.784 769.259 284.892V290.454H767.279V285.018C765.821 285.072 764.453 285.09 763.247 285.09L763.013 283.452ZM765.947 278.988C765.947 280.068 766.901 280.734 768.197 280.734C769.511 280.734 770.465 280.068 770.465 278.988C770.465 277.89 769.511 277.224 768.197 277.224C766.901 277.224 765.947 277.89 765.947 278.988ZM774.317 290.958V274.92H776.297V290.958H774.317ZM790.05 274.938H792.03V284.604H790.05V281.292H787.8V279.69H790.05V274.938ZM778.764 277.998V276.432H782.436V274.776H784.398V276.432H788.088V277.998H778.764ZM779.628 281.508C779.628 279.816 781.23 278.628 783.426 278.628C785.64 278.628 787.206 279.816 787.206 281.508C787.206 283.2 785.64 284.37 783.426 284.37C781.23 284.37 779.628 283.2 779.628 281.508ZM781.464 290.76V285.342H792.03V290.76H781.464ZM781.536 281.508C781.536 282.372 782.31 282.912 783.426 282.912C784.542 282.912 785.316 282.372 785.316 281.508C785.316 280.626 784.542 280.104 783.426 280.104C782.31 280.104 781.536 280.626 781.536 281.508ZM783.408 289.194H790.104V286.926H783.408V289.194ZM798.312 275.802H800.292V277.224C800.292 279.402 801.534 281.4 804 282.192L802.956 283.74C801.246 283.146 800.04 281.976 799.356 280.482C798.654 282.21 797.322 283.56 795.396 284.226L794.37 282.624C796.98 281.76 798.312 279.618 798.312 277.296V275.802ZM796.962 287.862C796.962 285.918 799.05 284.784 802.416 284.784C805.764 284.784 807.834 285.918 807.834 287.862C807.834 289.824 805.764 290.94 802.416 290.94C799.05 290.94 796.962 289.824 796.962 287.862ZM798.96 287.862C798.96 288.87 800.184 289.41 802.416 289.41C804.612 289.41 805.872 288.87 805.872 287.862C805.872 286.854 804.612 286.314 802.416 286.314C800.184 286.314 798.96 286.854 798.96 287.862ZM802.65 279.654V278.016H805.782V274.938H807.762V284.352H805.782V279.654H802.65ZM765.695 303.92H767.675V307.556H769.907V309.194H767.675V312.92H765.695V303.92ZM755.039 311.642C758.729 310.706 760.817 308.798 761.141 306.458H755.777V304.874H763.265C763.265 309.068 760.547 311.966 755.795 313.208L755.039 311.642ZM757.415 319.742V313.586H767.675V319.742H757.415ZM759.359 318.176H765.731V315.17H759.359V318.176ZM770.88 316.358H777.072V312.668H779.052V316.358H785.388V317.978H770.88V316.358ZM771.312 311.408C774.642 310.868 777.018 308.438 777.018 306.062V304.874H779.106V306.062C779.106 308.474 781.5 310.868 784.83 311.408L783.984 313.082C781.284 312.542 779.106 310.976 778.062 308.906C777 310.976 774.804 312.542 772.122 313.082L771.312 311.408ZM798.402 303.92H800.292V319.94H798.402V311.804H796.656V319.148H794.82V304.244H796.656V310.184H798.402V303.92ZM787.116 316.214V305.828H793.02V307.43H789.06V314.576C790.77 314.558 792.21 314.45 793.812 314.144L793.992 315.764C792.048 316.142 790.392 316.214 788.196 316.214H787.116ZM802.758 305.846H805.368V304.082H807.24V305.846H809.832V307.412H807.24V307.502C807.24 309.23 808.266 310.886 810.264 311.588L809.364 313.064C807.906 312.542 806.916 311.552 806.34 310.31C805.782 311.66 804.774 312.758 803.28 313.334L802.362 311.876C804.396 311.084 805.368 309.338 805.368 307.502V307.412H802.758V305.846ZM804.99 316.088V314.504H815.916V319.958H813.954V316.088H804.99ZM810.66 313.676V304.208H812.532V308.042H814.026V303.938H815.916V313.766H814.026V309.626H812.532V313.676H810.66ZM749.343 333.442H751.431V334.252C751.431 336.25 753.663 338.32 757.029 338.788L756.255 340.354C753.555 339.94 751.431 338.608 750.387 336.808C749.361 338.626 747.237 339.94 744.519 340.354L743.745 338.788C747.129 338.32 749.343 336.286 749.343 334.252V333.442ZM743.133 343.378V341.758H757.623V343.378H751.323V348.958H749.343V343.378H743.133ZM770.115 332.92H772.095V341.812H770.115V332.92ZM759.657 335.26V333.676H766.983V338.266H761.619V339.922C764.355 339.904 766.317 339.814 768.549 339.436L768.783 341.038C766.299 341.452 764.157 341.524 761.043 341.524H759.675V336.772H765.039V335.26H759.657ZM761.547 348.76V342.532H763.509V344.098H770.151V342.532H772.095V348.76H761.547ZM763.509 347.158H770.151V345.628H763.509V347.158ZM779.574 333.91H787.206V340.606H779.574V333.91ZM780.51 347.41C783.588 347.122 785.496 345.772 785.676 344.494H781.14V343H785.712V341.614H787.728V343H792.264V344.494H787.746C787.926 345.736 789.834 347.104 792.858 347.41L792.228 348.904C789.636 348.634 787.674 347.608 786.702 346.294C785.73 347.626 783.768 348.634 781.158 348.904L780.51 347.41ZM781.5 339.04H785.298V335.476H781.5V339.04ZM789.996 342.064V332.938H791.994V342.064H789.996ZM809.859 332.938H811.839V341.092H809.859V332.938ZM798.609 339.508C801.183 338.698 802.533 336.646 802.533 334.54V333.334H804.531V334.54C804.531 336.574 805.881 338.482 808.383 339.256L807.429 340.786C805.593 340.21 804.279 339.004 803.559 337.492C802.839 339.13 801.489 340.444 799.563 341.092L798.609 339.508ZM801.291 343.378V341.848H811.839V345.988H803.271V347.266H812.307V348.814H801.327V344.566H809.895V343.378H801.291ZM826.059 332.938H827.931V343H826.059V338.644H824.547V342.46H822.693V333.244H824.547V337.042H826.059V332.938ZM814.251 336.232V334.666H817.257V333.082H819.201V334.666H822.171V336.232H814.251ZM814.809 339.616C814.809 337.96 816.231 336.844 818.229 336.844C820.245 336.844 821.667 337.96 821.667 339.616C821.667 341.29 820.245 342.388 818.229 342.388C816.231 342.388 814.809 341.29 814.809 339.616ZM816.555 339.616C816.555 340.462 817.239 340.984 818.229 340.984C819.219 340.984 819.921 340.462 819.921 339.616C819.921 338.77 819.219 338.284 818.229 338.284C817.239 338.284 816.555 338.77 816.555 339.616ZM817.131 346.078C817.131 344.242 819.165 343.216 822.567 343.216C825.987 343.216 828.021 344.242 828.021 346.078C828.021 347.896 825.987 348.94 822.567 348.94C819.165 348.94 817.131 347.896 817.131 346.078ZM819.093 346.078C819.093 346.996 820.317 347.446 822.567 347.446C824.835 347.446 826.041 346.996 826.041 346.078C826.041 345.142 824.835 344.692 822.567 344.692C820.317 344.692 819.093 345.142 819.093 346.078Z" fill="#15151A"/>
<rect x="766" y="232" width="40" height="28" rx="14" fill="#9735D0"/>
<path d="M784.132 246.832L782.436 246.624L782.836 240.4H789.06V241.888H784.468L784.276 244.736C784.804 244.496 785.396 244.352 785.924 244.352C788.324 244.352 790.02 245.968 790.02 248.256C790.02 250.576 788.324 252.208 785.924 252.208C784.036 252.208 782.404 250.944 781.988 249.152L783.636 248.768C783.876 249.84 784.82 250.608 785.924 250.608C787.332 250.608 788.324 249.632 788.324 248.256C788.324 246.912 787.332 245.952 785.924 245.952C785.332 245.952 784.596 246.32 784.132 246.832Z" fill="white"/>
</g>
<g filter="url(#filter1_d_6368_38489)">
<rect x="6" y="18" width="120" height="132" rx="8" fill="white" shape-rendering="crispEdges"/>
<path d="M40.8352 77.234V79.754C40.8352 80.714 40.9852 81.656 41.2852 82.58C41.5972 83.504 42.0412 84.332 42.6172 85.064C43.1932 85.784 43.8832 86.342 44.6872 86.738L43.4812 88.304C42.6412 87.872 41.9152 87.26 41.3032 86.468C40.6912 85.676 40.2112 84.758 39.8632 83.714C39.5032 84.83 38.9992 85.814 38.3512 86.666C37.7032 87.518 36.9352 88.166 36.0472 88.61L34.8592 87.008C35.6872 86.612 36.4012 86.036 37.0012 85.28C37.6132 84.512 38.0752 83.648 38.3872 82.688C38.7112 81.728 38.8732 80.75 38.8732 79.754V77.234H40.8352ZM45.6052 75.938H47.6032V82.22H50.0512V83.876H47.6032V91.958H45.6052V75.938ZM62.2016 80.168V75.938H64.1816V87.62H62.2016V81.77H59.4116V80.168H62.2016ZM50.8256 84.2C52.0496 83.78 53.0036 83.102 53.6876 82.166C54.3716 81.23 54.7136 80.21 54.7136 79.106V78.674H51.3836V77.09H59.9876V78.674H56.7116V79.106C56.7116 80.126 57.0356 81.08 57.6836 81.968C58.3436 82.844 59.2616 83.48 60.4376 83.876L59.4656 85.424C58.6016 85.124 57.8516 84.686 57.2156 84.11C56.5916 83.534 56.0996 82.85 55.7396 82.058C55.3916 82.922 54.8816 83.678 54.2096 84.326C53.5496 84.974 52.7576 85.454 51.8336 85.766L50.8256 84.2ZM53.7236 86.63H55.7216V90.05H64.5776V91.634H53.7236V86.63ZM79.788 76.658V78.242H75.216C75.288 78.758 75.54 79.244 75.972 79.7C76.404 80.156 76.998 80.552 77.754 80.888C78.51 81.212 79.38 81.428 80.364 81.536L79.626 83.12C78.222 82.94 77.016 82.556 76.008 81.968C75 81.368 74.28 80.636 73.848 79.772C73.416 80.636 72.696 81.368 71.688 81.968C70.68 82.556 69.474 82.94 68.07 83.12L67.332 81.536C68.316 81.428 69.186 81.212 69.942 80.888C70.698 80.552 71.292 80.156 71.724 79.7C72.156 79.232 72.408 78.746 72.48 78.242H67.926V76.658H79.788ZM66.594 84.02H81.102V85.604H75V88.52H73.02V85.604H66.594V84.02ZM68.34 87.062H70.32V90.068H79.5V91.652H68.34V87.062ZM95.5564 75.902V91.976H93.5764V75.902H95.5564ZM83.1724 77.234H85.1344V81.248H88.9684V77.234H90.9124V88.178H83.1724V77.234ZM88.9684 86.594V82.796H85.1344V86.594H88.9684Z" fill="#15151A"/>
<rect x="46" y="4" width="40" height="28" rx="14" fill="#9735D0"/>
<path d="M67.7763 12.416V24.048L66.0803 24.032V14.224L64.0323 15.36L63.3283 13.936L66.0963 12.416H67.7763Z" fill="white"/>
</g>
<path fill-rule="evenodd" clip-rule="evenodd" d="M155.47 77.4697C155.763 77.1768 156.237 77.1768 156.53 77.4697L163.061 84L156.53 90.5303C156.237 90.8232 155.763 90.8232 155.47 90.5303C155.177 90.2374 155.177 89.7626 155.47 89.4697L160.939 84L155.47 78.5303C155.177 78.2374 155.177 77.7626 155.47 77.4697Z" fill="#27272A"/>
<path fill-rule="evenodd" clip-rule="evenodd" d="M148.25 84C148.25 83.5858 148.586 83.25 149 83.25L161.75 83.25V84.75L149 84.75C148.586 84.75 148.25 84.4142 148.25 84Z" fill="#27272A"/>
<g filter="url(#filter2_d_6368_38489)">
<rect x="186" y="18" width="120" height="132" rx="8" fill="white" shape-rendering="crispEdges"/>
<path d="M215.147 70.42H229.655V72.04H226.127V77.44H224.111V72.04H220.619V77.44H218.585V72.04H215.147V70.42ZM216.641 65.56C216.641 63.382 218.963 62.032 222.347 62.032C225.749 62.032 228.071 63.382 228.071 65.56C228.071 67.738 225.749 69.106 222.347 69.106C218.963 69.106 216.641 67.738 216.641 65.56ZM218.675 65.56C218.675 66.82 220.115 67.522 222.347 67.522C224.597 67.522 226.055 66.82 226.055 65.56C226.055 64.336 224.597 63.598 222.347 63.598C220.115 63.598 218.675 64.336 218.675 65.56ZM230.844 63.976H233.778V61.852H235.722V63.976H238.62V65.542H230.844V63.976ZM231.276 70.15C231.276 67.954 232.734 66.406 234.75 66.406C236.784 66.406 238.242 67.954 238.242 70.15C238.242 72.364 236.784 73.912 234.75 73.912C232.734 73.912 231.276 72.364 231.276 70.15ZM233.022 70.15C233.022 71.446 233.742 72.256 234.75 72.256C235.758 72.256 236.496 71.446 236.496 70.15C236.496 68.872 235.758 68.044 234.75 68.044C233.742 68.044 233.022 68.872 233.022 70.15ZM239.268 76.72V61.762H241.122V68.026H242.67V61.42H244.542V77.44H242.67V69.628H241.122V76.72H239.268ZM251.796 62.104C254.208 62.104 255.954 63.49 255.954 65.488C255.954 67.45 254.208 68.854 251.796 68.854C249.402 68.854 247.638 67.45 247.638 65.488C247.638 63.49 249.402 62.104 251.796 62.104ZM246.612 69.952C249.474 69.952 253.47 69.934 256.926 69.394L257.052 70.852C255.666 71.122 254.244 71.284 252.858 71.392V76.954H250.878V71.518C249.42 71.572 248.052 71.59 246.846 71.59L246.612 69.952ZM249.546 65.488C249.546 66.568 250.5 67.234 251.796 67.234C253.11 67.234 254.064 66.568 254.064 65.488C254.064 64.39 253.11 63.724 251.796 63.724C250.5 63.724 249.546 64.39 249.546 65.488ZM257.916 77.458V61.42H259.896V77.458H257.916ZM273.648 61.438H275.628V71.104H273.648V67.792H271.398V66.19H273.648V61.438ZM262.362 64.498V62.932H266.034V61.276H267.996V62.932H271.686V64.498H262.362ZM263.226 68.008C263.226 66.316 264.828 65.128 267.024 65.128C269.238 65.128 270.804 66.316 270.804 68.008C270.804 69.7 269.238 70.87 267.024 70.87C264.828 70.87 263.226 69.7 263.226 68.008ZM265.062 77.26V71.842H275.628V77.26H265.062ZM265.134 68.008C265.134 68.872 265.908 69.412 267.024 69.412C268.14 69.412 268.914 68.872 268.914 68.008C268.914 67.126 268.14 66.604 267.024 66.604C265.908 66.604 265.134 67.126 265.134 68.008ZM267.006 75.694H273.702V73.426H267.006V75.694ZM215.147 102.894H218.477V98.808C217.217 98.07 216.461 96.936 216.461 95.514C216.461 92.94 218.963 91.284 222.383 91.284C225.821 91.284 228.305 92.94 228.305 95.514C228.305 96.936 227.549 98.07 226.307 98.808V102.894H229.655V104.496H215.147V102.894ZM218.405 95.514C218.405 97.188 220.025 98.196 222.383 98.196C224.741 98.196 226.361 97.188 226.361 95.514C226.361 93.858 224.741 92.832 222.383 92.832C220.025 92.832 218.405 93.858 218.405 95.514ZM220.457 102.894H224.327V99.546C223.733 99.672 223.067 99.744 222.383 99.744C221.699 99.744 221.051 99.672 220.457 99.546V102.894ZM242.13 90.438H244.11V102.012H242.13V90.438ZM231.15 95.514C231.15 93.156 233.022 91.482 235.434 91.482C237.864 91.482 239.718 93.156 239.718 95.514C239.718 97.836 237.864 99.528 235.434 99.528C233.022 99.528 231.15 97.836 231.15 95.514ZM233.076 95.514C233.076 96.9 234.102 97.8 235.434 97.8C236.766 97.8 237.792 96.9 237.792 95.514C237.792 94.092 236.766 93.192 235.434 93.192C234.102 93.192 233.076 94.092 233.076 95.514ZM233.598 106.134V100.86H235.56V104.55H244.542V106.134H233.598ZM246.81 92.004H255.684V93.588H254.172V100.806C254.892 100.752 255.594 100.698 256.26 100.608L256.368 102.048C253.092 102.606 249.384 102.678 246.63 102.678L246.414 101.04H248.322V93.588H246.81V92.004ZM250.248 101.004C250.914 100.986 251.58 100.968 252.264 100.932V93.588H250.248V101.004ZM257.07 106.458V90.438H259.068V96.63H261.498V98.268H259.068V106.458H257.07ZM266.808 91.338C269.256 91.338 271.092 92.94 271.092 95.208C271.092 97.476 269.256 99.078 266.808 99.078C264.36 99.078 262.524 97.476 262.524 95.208C262.524 92.94 264.36 91.338 266.808 91.338ZM264.306 102.156V100.572H274.872V106.458H272.892V102.156H264.306ZM264.45 95.208C264.45 96.576 265.458 97.422 266.808 97.422C268.158 97.422 269.166 96.576 269.166 95.208C269.166 93.858 268.158 93.012 266.808 93.012C265.458 93.012 264.45 93.858 264.45 95.208ZM272.892 99.834V90.438H274.872V94.326H277.104V95.964H274.872V99.834H272.892Z" fill="#15151A"/>
<rect x="226" y="4" width="40" height="28" rx="14" fill="#9735D0"/>
<path d="M242.415 22.56C244.751 20.32 247.935 18.048 247.935 16.08C247.935 14.768 247.103 13.84 245.919 13.84C245.007 13.84 244.095 14.496 243.679 15.44L242.191 14.784C242.831 13.312 244.383 12.288 245.919 12.288C248.111 12.288 249.631 13.856 249.631 16.08C249.631 18.528 246.975 20.704 244.815 22.56H249.823V24.048H242.575L242.415 22.56Z" fill="white"/>
</g>
<path fill-rule="evenodd" clip-rule="evenodd" d="M335.47 77.4697C335.763 77.1768 336.237 77.1768 336.53 77.4697L343.061 84L336.53 90.5303C336.237 90.8232 335.763 90.8232 335.47 90.5303C335.177 90.2374 335.177 89.7626 335.47 89.4697L340.939 84L335.47 78.5303C335.177 78.2374 335.177 77.7626 335.47 77.4697Z" fill="#27272A"/>
<path fill-rule="evenodd" clip-rule="evenodd" d="M328.25 84C328.25 83.5858 328.586 83.25 329 83.25L341.75 83.25V84.75L329 84.75C328.586 84.75 328.25 84.4142 328.25 84Z" fill="#27272A"/>
<g filter="url(#filter3_d_6368_38489)">
<rect x="366" y="18" width="120" height="132" rx="8" fill="white" shape-rendering="crispEdges"/>
<path d="M408.197 62.104C410.609 62.104 412.355 63.49 412.355 65.488C412.355 67.45 410.609 68.854 408.197 68.854C405.803 68.854 404.039 67.45 404.039 65.488C404.039 63.49 405.803 62.104 408.197 62.104ZM403.013 69.952C405.875 69.952 409.871 69.934 413.327 69.394L413.453 70.852C412.067 71.122 410.645 71.284 409.259 71.392V76.954H407.279V71.518C405.821 71.572 404.453 71.59 403.247 71.59L403.013 69.952ZM405.947 65.488C405.947 66.568 406.901 67.234 408.197 67.234C409.511 67.234 410.465 66.568 410.465 65.488C410.465 64.39 409.511 63.724 408.197 63.724C406.901 63.724 405.947 64.39 405.947 65.488ZM414.317 77.458V61.42H416.297V77.458H414.317ZM430.05 61.438H432.03V71.104H430.05V67.792H427.8V66.19H430.05V61.438ZM418.764 64.498V62.932H422.436V61.276H424.398V62.932H428.088V64.498H418.764ZM419.628 68.008C419.628 66.316 421.23 65.128 423.426 65.128C425.64 65.128 427.206 66.316 427.206 68.008C427.206 69.7 425.64 70.87 423.426 70.87C421.23 70.87 419.628 69.7 419.628 68.008ZM421.464 77.26V71.842H432.03V77.26H421.464ZM421.536 68.008C421.536 68.872 422.31 69.412 423.426 69.412C424.542 69.412 425.316 68.872 425.316 68.008C425.316 67.126 424.542 66.604 423.426 66.604C422.31 66.604 421.536 67.126 421.536 68.008ZM423.408 75.694H430.104V73.426H423.408V75.694ZM438.312 62.302H440.292V63.724C440.292 65.902 441.534 67.9 444 68.692L442.956 70.24C441.246 69.646 440.04 68.476 439.356 66.982C438.654 68.71 437.322 70.06 435.396 70.726L434.37 69.124C436.98 68.26 438.312 66.118 438.312 63.796V62.302ZM436.962 74.362C436.962 72.418 439.05 71.284 442.416 71.284C445.764 71.284 447.834 72.418 447.834 74.362C447.834 76.324 445.764 77.44 442.416 77.44C439.05 77.44 436.962 76.324 436.962 74.362ZM438.96 74.362C438.96 75.37 440.184 75.91 442.416 75.91C444.612 75.91 445.872 75.37 445.872 74.362C445.872 73.354 444.612 72.814 442.416 72.814C440.184 72.814 438.96 73.354 438.96 74.362ZM442.65 66.154V64.516H445.782V61.438H447.762V70.852H445.782V66.154H442.65ZM410.88 100.05H425.37V101.67H419.106V106.476H417.108V101.67H410.88V100.05ZM411.69 97.53C414.858 97.134 416.892 95.514 417.09 93.894H412.212V92.31H417.108V90.456H419.106V92.31H424.02V93.894H419.124C419.322 95.478 421.374 97.134 424.524 97.53L423.822 99.078C421.176 98.754 419.142 97.584 418.116 96.036C417.09 97.602 415.038 98.736 412.374 99.078L411.69 97.53ZM435.216 94.416H437.934V90.438H439.914V99.942H437.934V96.018H435.216V94.416ZM426.576 98.34C429.096 97.458 430.446 95.316 430.446 93.156V93.066H427.116V91.482H435.72V93.066H432.444V93.156C432.444 95.118 433.704 97.08 436.17 97.926L435.18 99.474C433.416 98.862 432.174 97.656 431.49 96.144C430.788 97.854 429.474 99.24 427.566 99.906L426.576 98.34ZM429.114 103.416C429.114 101.508 431.184 100.356 434.55 100.356C437.898 100.356 439.968 101.508 439.968 103.416C439.968 105.342 437.898 106.458 434.55 106.458C431.184 106.458 429.114 105.342 429.114 103.416ZM431.094 103.416C431.094 104.406 432.336 104.946 434.55 104.946C436.746 104.946 438.006 104.406 438.006 103.416C438.006 102.408 436.746 101.868 434.55 101.868C432.336 101.868 431.094 102.408 431.094 103.416Z" fill="#15151A"/>
<rect x="406" y="4" width="40" height="28" rx="14" fill="#9735D0"/>
<path d="M428.249 18.032C429.289 18.64 429.945 19.776 429.945 20.752C429.945 22.736 428.313 24.144 425.993 24.144C423.689 24.144 422.057 22.704 422.057 20.656H423.753C423.753 21.824 424.681 22.64 425.993 22.64C427.337 22.64 428.297 21.824 428.297 20.656C428.297 19.536 427.353 18.736 426.025 18.736H425.193V17.312H426.041C427.257 17.312 428.121 16.592 428.121 15.568C428.121 14.528 427.289 13.808 426.105 13.808C424.921 13.808 424.105 14.544 424.105 15.584H422.409C422.409 13.648 423.929 12.304 426.105 12.304C428.249 12.304 429.769 13.616 429.769 15.472C429.769 16.368 429.193 17.424 428.249 18.032Z" fill="white"/>
</g>
<path fill-rule="evenodd" clip-rule="evenodd" d="M515.47 77.4697C515.763 77.1768 516.237 77.1768 516.53 77.4697L523.061 84L516.53 90.5303C516.237 90.8232 515.763 90.8232 515.47 90.5303C515.177 90.2374 515.177 89.7626 515.47 89.4697L520.939 84L515.47 78.5303C515.177 78.2374 515.177 77.7626 515.47 77.4697Z" fill="#27272A"/>
<path fill-rule="evenodd" clip-rule="evenodd" d="M508.25 84C508.25 83.5858 508.586 83.25 509 83.25L521.75 83.25V84.75L509 84.75C508.586 84.75 508.25 84.4142 508.25 84Z" fill="#27272A"/>
<g filter="url(#filter4_d_6368_38489)">
<rect x="546" y="18" width="120" height="132" rx="8" fill="white" shape-rendering="crispEdges"/>
<path d="M588.197 62.104C590.609 62.104 592.355 63.49 592.355 65.488C592.355 67.45 590.609 68.854 588.197 68.854C585.803 68.854 584.039 67.45 584.039 65.488C584.039 63.49 585.803 62.104 588.197 62.104ZM583.013 69.952C585.875 69.952 589.871 69.934 593.327 69.394L593.453 70.852C592.067 71.122 590.645 71.284 589.259 71.392V76.954H587.279V71.518C585.821 71.572 584.453 71.59 583.247 71.59L583.013 69.952ZM585.947 65.488C585.947 66.568 586.901 67.234 588.197 67.234C589.511 67.234 590.465 66.568 590.465 65.488C590.465 64.39 589.511 63.724 588.197 63.724C586.901 63.724 585.947 64.39 585.947 65.488ZM594.317 77.458V61.42H596.297V77.458H594.317ZM610.05 61.438H612.03V71.104H610.05V67.792H607.8V66.19H610.05V61.438ZM598.764 64.498V62.932H602.436V61.276H604.398V62.932H608.088V64.498H598.764ZM599.628 68.008C599.628 66.316 601.23 65.128 603.426 65.128C605.64 65.128 607.206 66.316 607.206 68.008C607.206 69.7 605.64 70.87 603.426 70.87C601.23 70.87 599.628 69.7 599.628 68.008ZM601.464 77.26V71.842H612.03V77.26H601.464ZM601.536 68.008C601.536 68.872 602.31 69.412 603.426 69.412C604.542 69.412 605.316 68.872 605.316 68.008C605.316 67.126 604.542 66.604 603.426 66.604C602.31 66.604 601.536 67.126 601.536 68.008ZM603.408 75.694H610.104V73.426H603.408V75.694ZM618.312 62.302H620.292V63.724C620.292 65.902 621.534 67.9 624 68.692L622.956 70.24C621.246 69.646 620.04 68.476 619.356 66.982C618.654 68.71 617.322 70.06 615.396 70.726L614.37 69.124C616.98 68.26 618.312 66.118 618.312 63.796V62.302ZM616.962 74.362C616.962 72.418 619.05 71.284 622.416 71.284C625.764 71.284 627.834 72.418 627.834 74.362C627.834 76.324 625.764 77.44 622.416 77.44C619.05 77.44 616.962 76.324 616.962 74.362ZM618.96 74.362C618.96 75.37 620.184 75.91 622.416 75.91C624.612 75.91 625.872 75.37 625.872 74.362C625.872 73.354 624.612 72.814 622.416 72.814C620.184 72.814 618.96 73.354 618.96 74.362ZM622.65 66.154V64.516H625.782V61.438H627.762V70.852H625.782V66.154H622.65ZM602.202 90.42H604.182V98.52H602.202V97.152H598.404V95.64H602.202V94.056H598.602C597.612 96.504 595.272 98.088 591.744 98.88L591.096 97.296C594.84 96.486 596.676 94.812 596.928 92.688H591.96V91.104H599.124C599.124 91.608 599.088 92.094 599.016 92.562H602.202V90.42ZM593.706 100.716V99.168H604.182V103.398H595.704V104.73H604.578V106.296H593.742V101.904H602.202V100.716H593.706ZM615.216 94.416H617.934V90.438H619.914V99.942H617.934V96.018H615.216V94.416ZM606.576 98.34C609.096 97.458 610.446 95.316 610.446 93.156V93.066H607.116V91.482H615.72V93.066H612.444V93.156C612.444 95.118 613.704 97.08 616.17 97.926L615.18 99.474C613.416 98.862 612.174 97.656 611.49 96.144C610.788 97.854 609.474 99.24 607.566 99.906L606.576 98.34ZM609.114 103.416C609.114 101.508 611.184 100.356 614.55 100.356C617.898 100.356 619.968 101.508 619.968 103.416C619.968 105.342 617.898 106.458 614.55 106.458C611.184 106.458 609.114 105.342 609.114 103.416ZM611.094 103.416C611.094 104.406 612.336 104.946 614.55 104.946C616.746 104.946 618.006 104.406 618.006 103.416C618.006 102.408 616.746 101.868 614.55 101.868C612.336 101.868 611.094 102.408 611.094 103.416Z" fill="#15151A"/>
<rect x="586" y="4" width="40" height="28" rx="14" fill="#9735D0"/>
<path d="M608.695 12.4V19.568H610.167V21.04H608.695V24.048H606.999V21.04H601.991L601.831 19.568L607.079 12.4H608.695ZM603.847 19.568H606.999V15.232L603.847 19.568Z" fill="white"/>
</g>
<path fill-rule="evenodd" clip-rule="evenodd" d="M695.47 77.4697C695.763 77.1768 696.237 77.1768 696.53 77.4697L703.061 84L696.53 90.5303C696.237 90.8232 695.763 90.8232 695.47 90.5303C695.177 90.2374 695.177 89.7626 695.47 89.4697L700.939 84L695.47 78.5303C695.177 78.2374 695.177 77.7626 695.47 77.4697Z" fill="#27272A"/>
<path fill-rule="evenodd" clip-rule="evenodd" d="M688.25 84C688.25 83.5858 688.586 83.25 689 83.25L701.75 83.25V84.75L689 84.75C688.586 84.75 688.25 84.4142 688.25 84Z" fill="#27272A"/>
<g filter="url(#filter5_d_6368_38489)">
<rect x="726" y="18" width="120" height="132" rx="8" fill="white" shape-rendering="crispEdges"/>
<path d="M755.147 78.368H758.837V76.172H760.817V78.368H764.525V79.97H755.147V78.368ZM756.029 84.794C756.029 82.598 757.667 81.032 759.845 81.032C762.005 81.032 763.643 82.598 763.643 84.794C763.643 86.972 762.005 88.556 759.845 88.556C757.667 88.556 756.029 86.972 756.029 84.794ZM757.847 84.794C757.847 86.072 758.693 86.9 759.845 86.9C760.961 86.9 761.807 86.072 761.807 84.794C761.807 83.516 760.961 82.688 759.845 82.688C758.693 82.688 757.847 83.516 757.847 84.794ZM764.201 84.002V82.364H766.505V75.938H768.467V91.958H766.505V84.002H764.201ZM770.88 83.66H774.246V81.608C773.058 81.086 772.374 80.276 772.374 79.232C772.374 77.324 774.606 76.19 778.116 76.19C781.626 76.19 783.858 77.324 783.858 79.232C783.858 80.276 783.174 81.104 781.95 81.626V83.66H785.352V85.208H770.88V83.66ZM772.554 89.06C772.554 87.224 774.642 86.18 778.098 86.18C781.536 86.18 783.624 87.224 783.624 89.06C783.624 90.914 781.536 91.958 778.098 91.958C774.642 91.958 772.554 90.914 772.554 89.06ZM774.408 79.232C774.408 80.222 775.776 80.762 778.116 80.762C780.438 80.762 781.806 80.222 781.806 79.232C781.806 78.242 780.438 77.702 778.116 77.702C775.776 77.702 774.408 78.242 774.408 79.232ZM774.552 89.06C774.552 89.978 775.794 90.446 778.098 90.446C780.384 90.446 781.626 89.978 781.626 89.06C781.626 88.16 780.384 87.692 778.098 87.692C775.794 87.692 774.552 88.16 774.552 89.06ZM776.208 83.66H779.988V82.13C779.412 82.22 778.782 82.256 778.116 82.256C777.432 82.256 776.784 82.22 776.208 82.13V83.66ZM797.07 75.902H799.068V82.184H801.426V83.822H799.068V91.94H797.07V75.902ZM786.54 87.566C790.41 85.586 792.48 82.85 792.858 79.196H787.386V77.594H794.856C794.856 82.31 792.93 86.414 787.656 89.06L786.54 87.566ZM804.234 76.226H806.196V80.096H815.214V81.68H804.234V76.226ZM802.362 84.83V83.228H816.834V84.83H802.362ZM804.018 88.952C804.018 87.08 806.106 86.018 809.562 86.018C813 86.018 815.088 87.08 815.088 88.952C815.088 90.824 813 91.922 809.562 91.922C806.106 91.922 804.018 90.824 804.018 88.952ZM806.016 88.952C806.016 89.888 807.276 90.374 809.562 90.374C811.848 90.374 813.09 89.888 813.09 88.952C813.09 88.016 811.848 87.53 809.562 87.53C807.276 87.53 806.016 88.016 806.016 88.952Z" fill="#15151A"/>
</g>
<path d="M870.712 73.08V77.112H869.228V73.08L865.63 66.78H867.352L869.97 71.442L872.588 66.78H874.31L870.712 73.08ZM876.79 77.154C876.165 77.154 875.61 77.014 875.124 76.734C874.639 76.4447 874.256 76.048 873.976 75.544C873.706 75.0307 873.57 74.452 873.57 73.808C873.57 73.1547 873.706 72.576 873.976 72.072C874.256 71.5587 874.639 71.162 875.124 70.882C875.61 70.5927 876.165 70.448 876.79 70.448C877.658 70.448 878.307 70.6673 878.736 71.106C879.166 71.5353 879.441 71.918 879.562 72.254C879.758 72.7113 879.856 73.2573 879.856 73.892C879.856 74.06 879.852 74.1813 879.842 74.256C879.842 74.3213 879.842 74.3633 879.842 74.382H875.026C875.11 74.83 875.32 75.194 875.656 75.474C875.992 75.754 876.37 75.894 876.79 75.894C877.266 75.894 877.635 75.8007 877.896 75.614C878.158 75.4273 878.344 75.2407 878.456 75.054L879.646 75.586C879.46 76.0153 879.119 76.384 878.624 76.692C878.139 77 877.528 77.154 876.79 77.154ZM878.442 73.206C878.368 72.758 878.195 72.3987 877.924 72.128C877.654 71.848 877.276 71.708 876.79 71.708C876.352 71.708 875.969 71.848 875.642 72.128C875.316 72.408 875.11 72.7673 875.026 73.206H878.442ZM882.348 74.83C882.488 75.166 882.703 75.4273 882.992 75.614C883.282 75.8007 883.557 75.894 883.818 75.894C884.173 75.894 884.453 75.8333 884.658 75.712C884.864 75.5813 884.966 75.3993 884.966 75.166C884.966 74.9793 884.864 74.83 884.658 74.718C884.453 74.606 884.122 74.4707 883.664 74.312C883.216 74.1533 882.848 74.004 882.558 73.864C882.269 73.724 882.012 73.5233 881.788 73.262C881.574 72.9913 881.466 72.66 881.466 72.268C881.466 71.6893 881.7 71.232 882.166 70.896C882.633 70.5507 883.216 70.378 883.916 70.378C884.215 70.378 884.528 70.4387 884.854 70.56C885.19 70.6813 885.489 70.868 885.75 71.12C886.021 71.372 886.208 71.6847 886.31 72.058L885.064 72.506C884.962 72.1793 884.798 71.9553 884.574 71.834C884.36 71.7127 884.14 71.652 883.916 71.652C883.618 71.652 883.38 71.708 883.202 71.82C883.034 71.932 882.95 72.0813 882.95 72.268C882.95 72.4547 883.044 72.5993 883.23 72.702C883.417 72.8047 883.753 72.94 884.238 73.108C884.686 73.2667 885.055 73.4207 885.344 73.57C885.643 73.71 885.9 73.9107 886.114 74.172C886.338 74.4333 886.45 74.76 886.45 75.152C886.45 75.7587 886.208 76.2487 885.722 76.622C885.237 76.986 884.602 77.168 883.818 77.168C883.296 77.168 882.787 77.0187 882.292 76.72C881.798 76.412 881.429 76.006 881.186 75.502L882.348 74.83Z" fill="#15151A"/>
<path fill-rule="evenodd" clip-rule="evenodd" d="M875.47 88.4697C875.763 88.1768 876.237 88.1768 876.53 88.4697L883.061 95L876.53 101.53C876.237 101.823 875.763 101.823 875.47 101.53C875.177 101.237 875.177 100.763 875.47 100.47L880.939 95L875.47 89.5303C875.177 89.2374 875.177 88.7626 875.47 88.4697Z" fill="#27272A"/>
<path fill-rule="evenodd" clip-rule="evenodd" d="M868.25 95C868.25 94.5858 868.586 94.25 869 94.25L881.75 94.25V95.75L869 95.75C868.586 95.75 868.25 95.4142 868.25 95Z" fill="#27272A"/>
<g filter="url(#filter6_d_6368_38489)">
<rect x="906" y="18" width="120" height="132" rx="8" fill="white" shape-rendering="crispEdges"/>
<path d="M957.09 81.68H959.088V83.732H965.352V85.298H950.88V83.732H957.09V81.68ZM951.564 80.978C954.516 80.726 956.388 79.52 956.712 78.206H952.194V76.64H964.056V78.206H959.52C959.844 79.52 961.698 80.726 964.668 80.978L963.984 82.526C961.086 82.22 958.962 81.086 958.116 79.466C957.27 81.086 955.146 82.22 952.248 82.526L951.564 80.978ZM952.554 89.15C952.554 87.35 954.624 86.342 958.098 86.342C961.554 86.342 963.624 87.35 963.624 89.15C963.624 90.95 961.554 91.94 958.098 91.94C954.624 91.94 952.554 90.95 952.554 89.15ZM954.552 89.15C954.552 90.032 955.794 90.464 958.098 90.464C960.402 90.464 961.626 90.032 961.626 89.15C961.626 88.286 960.402 87.854 958.098 87.854C955.794 87.854 954.552 88.286 954.552 89.15ZM966.612 88.484H970.428V85.802H968.34V80.582H977.466V78.584H968.304V77.018H979.428V82.13H970.284V84.218H979.788V85.802H977.448V88.484H981.12V90.086H966.612V88.484ZM972.372 88.484H975.522V85.802H972.372V88.484Z" fill="#15151A"/>
</g>
<path fill-rule="evenodd" clip-rule="evenodd" d="M1055.47 77.4697C1055.76 77.1768 1056.24 77.1768 1056.53 77.4697L1063.06 84L1056.53 90.5303C1056.24 90.8232 1055.76 90.8232 1055.47 90.5303C1055.18 90.2374 1055.18 89.7626 1055.47 89.4697L1060.94 84L1055.47 78.5303C1055.18 78.2374 1055.18 77.7626 1055.47 77.4697Z" fill="#27272A"/>
<path fill-rule="evenodd" clip-rule="evenodd" d="M1048.25 84C1048.25 83.5858 1048.59 83.25 1049 83.25L1061.75 83.25V84.75L1049 84.75C1048.59 84.75 1048.25 84.4142 1048.25 84Z" fill="#27272A"/>
<g filter="url(#filter7_d_6368_38489)">
<rect x="1086" y="18" width="120" height="132" rx="8" fill="white" shape-rendering="crispEdges"/>
<path d="M1130.88 73.894H1137.13V70.762H1132.48V62.482H1134.44V65.092H1141.79V62.482H1143.75V70.762H1139.09V73.894H1145.39V75.514H1130.88V73.894ZM1134.44 69.178H1141.79V66.658H1134.44V69.178ZM1148.11 62.878H1159.57V64.426C1159.57 66.424 1159.57 68.656 1158.98 72.004L1156.98 71.788C1157.59 68.674 1157.59 66.388 1157.59 64.48H1148.11V62.878ZM1146.61 75.388V73.768H1151.94V68.188H1153.9V73.768H1161.1V75.388H1146.61ZM1124.86 98.502C1124.86 96.162 1125.78 93.084 1127.08 91.032H1129.09C1127.62 93.066 1126.59 96.144 1126.59 98.502C1126.59 100.86 1127.62 103.938 1129.09 105.972H1127.08C1125.78 103.92 1124.86 100.842 1124.86 98.502ZM1142.15 90.42H1144.13V106.44H1142.15V90.42ZM1130.97 102.066C1135.13 100.068 1137.02 97.35 1137.36 93.696H1131.76V92.094H1139.39C1139.39 96.9 1137.58 100.932 1132 103.632L1130.97 102.066ZM1146.61 99.096H1152.86V97.746H1148.45V93.534H1157.36V92.292H1148.41V90.78H1159.3V94.938H1150.37V96.234H1159.64V97.746H1154.84V99.096H1161.12V100.698H1146.61V99.096ZM1148.21 103.308V101.706H1159.41V106.368H1157.43V103.308H1148.21ZM1167.11 98.502C1167.11 100.842 1166.21 103.902 1164.92 105.972H1162.9C1164.36 103.956 1165.39 100.86 1165.39 98.502C1165.39 96.144 1164.36 93.048 1162.9 91.032H1164.92C1166.21 93.102 1167.11 96.162 1167.11 98.502Z" fill="#15151A"/>
</g>
<path d="M786.177 184.112H784.567L779.443 176.328V184.112H777.959V173.78H779.569L784.679 181.55V173.78H786.177V184.112ZM791.152 182.908C791.674 182.908 792.094 182.717 792.412 182.334C792.729 181.951 792.888 181.443 792.888 180.808C792.888 180.183 792.729 179.679 792.412 179.296C792.094 178.904 791.674 178.708 791.152 178.708C790.629 178.708 790.209 178.899 789.892 179.282C789.574 179.665 789.416 180.173 789.416 180.808C789.416 181.443 789.574 181.951 789.892 182.334C790.209 182.717 790.629 182.908 791.152 182.908ZM787.932 180.808C787.932 180.155 788.067 179.576 788.338 179.072C788.618 178.559 789 178.157 789.486 177.868C789.971 177.579 790.526 177.434 791.152 177.434C791.777 177.434 792.332 177.579 792.818 177.868C793.303 178.157 793.681 178.559 793.952 179.072C794.232 179.576 794.372 180.155 794.372 180.808C794.372 181.452 794.232 182.031 793.952 182.544C793.681 183.057 793.303 183.459 792.818 183.748C792.332 184.037 791.777 184.182 791.152 184.182C790.526 184.182 789.971 184.037 789.486 183.748C789 183.459 788.618 183.057 788.338 182.544C788.067 182.031 787.932 181.452 787.932 180.808Z" fill="#15151A"/>
<path fill-rule="evenodd" clip-rule="evenodd" d="M792.53 201.47C792.823 201.763 792.823 202.237 792.53 202.53L786 209.061L779.47 202.53C779.177 202.237 779.177 201.763 779.47 201.47C779.763 201.177 780.237 201.177 780.53 201.47L786 206.939L791.47 201.47C791.763 201.177 792.237 201.177 792.53 201.47Z" fill="#27272A"/>
<path fill-rule="evenodd" clip-rule="evenodd" d="M786 194.25C786.414 194.25 786.75 194.586 786.75 195L786.75 207.75L785.25 207.75L785.25 195C785.25 194.586 785.586 194.25 786 194.25Z" fill="#27272A"/>
<path fill-rule="evenodd" clip-rule="evenodd" d="M239.47 180.53C239.177 180.237 239.177 179.763 239.47 179.47L246 172.939L252.53 179.47C252.823 179.763 252.823 180.237 252.53 180.53C252.237 180.823 251.763 180.823 251.47 180.53L246 175.061L240.53 180.53C240.237 180.823 239.763 180.823 239.47 180.53Z" fill="#27272A"/>
<path d="M714 312L246 312L246 182" stroke="#27272A" stroke-width="1.5" stroke-linecap="round" stroke-dasharray="4 5"/>
<defs>
<filter id="filter0_d_6368_38489" x="720.658" y="227.993" width="130.685" height="156.685" filterUnits="userSpaceOnUse" color-interpolation-filters="sRGB">
<feFlood flood-opacity="0" result="BackgroundImageFix"/>
<feColorMatrix in="SourceAlpha" type="matrix" values="0 0 0 0 0 0 0 0 0 0 0 0 0 0 0 0 0 0 127 0" result="hardAlpha"/>
<feOffset dy="1.33562"/>
<feGaussianBlur stdDeviation="2.67123"/>
<feComposite in2="hardAlpha" operator="out"/>
<feColorMatrix type="matrix" values="0 0 0 0 0 0 0 0 0 0 0 0 0 0 0 0 0 0 0.1 0"/>
<feBlend mode="normal" in2="BackgroundImageFix" result="effect1_dropShadow_6368_38489"/>
<feBlend mode="normal" in="SourceGraphic" in2="effect1_dropShadow_6368_38489" result="shape"/>
</filter>
<filter id="filter1_d_6368_38489" x="0.657534" y="-0.00684941" width="130.685" height="156.685" filterUnits="userSpaceOnUse" color-interpolation-filters="sRGB">
<feFlood flood-opacity="0" result="BackgroundImageFix"/>
<feColorMatrix in="SourceAlpha" type="matrix" values="0 0 0 0 0 0 0 0 0 0 0 0 0 0 0 0 0 0 127 0" result="hardAlpha"/>
<feOffset dy="1.33562"/>
<feGaussianBlur stdDeviation="2.67123"/>
<feComposite in2="hardAlpha" operator="out"/>
<feColorMatrix type="matrix" values="0 0 0 0 0 0 0 0 0 0 0 0 0 0 0 0 0 0 0.1 0"/>
<feBlend mode="normal" in2="BackgroundImageFix" result="effect1_dropShadow_6368_38489"/>
<feBlend mode="normal" in="SourceGraphic" in2="effect1_dropShadow_6368_38489" result="shape"/>
</filter>
<filter id="filter2_d_6368_38489" x="180.658" y="-0.00684941" width="130.685" height="156.685" filterUnits="userSpaceOnUse" color-interpolation-filters="sRGB">
<feFlood flood-opacity="0" result="BackgroundImageFix"/>
<feColorMatrix in="SourceAlpha" type="matrix" values="0 0 0 0 0 0 0 0 0 0 0 0 0 0 0 0 0 0 127 0" result="hardAlpha"/>
<feOffset dy="1.33562"/>
<feGaussianBlur stdDeviation="2.67123"/>
<feComposite in2="hardAlpha" operator="out"/>
<feColorMatrix type="matrix" values="0 0 0 0 0 0 0 0 0 0 0 0 0 0 0 0 0 0 0.1 0"/>
<feBlend mode="normal" in2="BackgroundImageFix" result="effect1_dropShadow_6368_38489"/>
<feBlend mode="normal" in="SourceGraphic" in2="effect1_dropShadow_6368_38489" result="shape"/>
</filter>
<filter id="filter3_d_6368_38489" x="360.658" y="-0.00684941" width="130.685" height="156.685" filterUnits="userSpaceOnUse" color-interpolation-filters="sRGB">
<feFlood flood-opacity="0" result="BackgroundImageFix"/>
<feColorMatrix in="SourceAlpha" type="matrix" values="0 0 0 0 0 0 0 0 0 0 0 0 0 0 0 0 0 0 127 0" result="hardAlpha"/>
<feOffset dy="1.33562"/>
<feGaussianBlur stdDeviation="2.67123"/>
<feComposite in2="hardAlpha" operator="out"/>
<feColorMatrix type="matrix" values="0 0 0 0 0 0 0 0 0 0 0 0 0 0 0 0 0 0 0.1 0"/>
<feBlend mode="normal" in2="BackgroundImageFix" result="effect1_dropShadow_6368_38489"/>
<feBlend mode="normal" in="SourceGraphic" in2="effect1_dropShadow_6368_38489" result="shape"/>
</filter>
<filter id="filter4_d_6368_38489" x="540.658" y="-0.00684941" width="130.685" height="156.685" filterUnits="userSpaceOnUse" color-interpolation-filters="sRGB">
<feFlood flood-opacity="0" result="BackgroundImageFix"/>
<feColorMatrix in="SourceAlpha" type="matrix" values="0 0 0 0 0 0 0 0 0 0 0 0 0 0 0 0 0 0 127 0" result="hardAlpha"/>
<feOffset dy="1.33562"/>
<feGaussianBlur stdDeviation="2.67123"/>
<feComposite in2="hardAlpha" operator="out"/>
<feColorMatrix type="matrix" values="0 0 0 0 0 0 0 0 0 0 0 0 0 0 0 0 0 0 0.1 0"/>
<feBlend mode="normal" in2="BackgroundImageFix" result="effect1_dropShadow_6368_38489"/>
<feBlend mode="normal" in="SourceGraphic" in2="effect1_dropShadow_6368_38489" result="shape"/>
</filter>
<filter id="filter5_d_6368_38489" x="720.658" y="13.9932" width="130.685" height="142.685" filterUnits="userSpaceOnUse" color-interpolation-filters="sRGB">
<feFlood flood-opacity="0" result="BackgroundImageFix"/>
<feColorMatrix in="SourceAlpha" type="matrix" values="0 0 0 0 0 0 0 0 0 0 0 0 0 0 0 0 0 0 127 0" result="hardAlpha"/>
<feOffset dy="1.33562"/>
<feGaussianBlur stdDeviation="2.67123"/>
<feComposite in2="hardAlpha" operator="out"/>
<feColorMatrix type="matrix" values="0 0 0 0 0 0 0 0 0 0 0 0 0 0 0 0 0 0 0.1 0"/>
<feBlend mode="normal" in2="BackgroundImageFix" result="effect1_dropShadow_6368_38489"/>
<feBlend mode="normal" in="SourceGraphic" in2="effect1_dropShadow_6368_38489" result="shape"/>
</filter>
<filter id="filter6_d_6368_38489" x="900.658" y="13.9932" width="130.685" height="142.685" filterUnits="userSpaceOnUse" color-interpolation-filters="sRGB">
<feFlood flood-opacity="0" result="BackgroundImageFix"/>
<feColorMatrix in="SourceAlpha" type="matrix" values="0 0 0 0 0 0 0 0 0 0 0 0 0 0 0 0 0 0 127 0" result="hardAlpha"/>
<feOffset dy="1.33562"/>
<feGaussianBlur stdDeviation="2.67123"/>
<feComposite in2="hardAlpha" operator="out"/>
<feColorMatrix type="matrix" values="0 0 0 0 0 0 0 0 0 0 0 0 0 0 0 0 0 0 0.1 0"/>
<feBlend mode="normal" in2="BackgroundImageFix" result="effect1_dropShadow_6368_38489"/>
<feBlend mode="normal" in="SourceGraphic" in2="effect1_dropShadow_6368_38489" result="shape"/>
</filter>
<filter id="filter7_d_6368_38489" x="1080.66" y="13.9932" width="130.685" height="142.685" filterUnits="userSpaceOnUse" color-interpolation-filters="sRGB">
<feFlood flood-opacity="0" result="BackgroundImageFix"/>
<feColorMatrix in="SourceAlpha" type="matrix" values="0 0 0 0 0 0 0 0 0 0 0 0 0 0 0 0 0 0 127 0" result="hardAlpha"/>
<feOffset dy="1.33562"/>
<feGaussianBlur stdDeviation="2.67123"/>
<feComposite in2="hardAlpha" operator="out"/>
<feColorMatrix type="matrix" values="0 0 0 0 0 0 0 0 0 0 0 0 0 0 0 0 0 0 0.1 0"/>
<feBlend mode="normal" in2="BackgroundImageFix" result="effect1_dropShadow_6368_38489"/>
<feBlend mode="normal" in="SourceGraphic" in2="effect1_dropShadow_6368_38489" result="shape"/>
</filter>
</defs>
</svg>
