<svg width="562" height="567" viewBox="0 0 562 567" fill="none" xmlns="http://www.w3.org/2000/svg">
<ellipse cx="280.5" cy="276" rx="180.5" ry="181" stroke="#E4E4E7" stroke-width="2" stroke-linecap="round" stroke-dasharray="1 10"/>
<g filter="url(#filter0_d_4139_2231)">
<circle cx="279" cy="82" r="62" fill="white"/>
</g>
<g clip-path="url(#clip0_4139_2231)">
<path d="M257.119 57.2734C256 57.2734 255.094 58.1801 255.094 59.2984V99.5689C255.094 103.248 257.886 106.537 261.729 106.722C262.846 106.775 263.795 105.913 263.849 104.796C263.86 104.561 263.831 104.334 263.767 104.121L291.818 95.7848C292.066 96.6224 292.841 97.2334 293.76 97.2334C294.878 97.2334 295.785 96.3268 295.785 95.2084V59.2984C295.785 58.1801 294.878 57.2734 293.76 57.2734H257.119Z" fill="#CC7DFA"/>
<path d="M261.445 104.703H262.209C262.081 104.703 261.954 104.703 261.827 104.703C261.7 104.703 261.573 104.703 261.445 104.703Z" stroke="#CC7DFA" stroke-width="4.05" stroke-linecap="round" stroke-linejoin="round"/>
<path d="M267.804 93.0547C266.685 93.0547 265.779 93.9613 265.779 95.0797V98.2859C265.779 100.685 263.943 102.588 261.621 102.675C260.518 102.716 259.652 103.633 259.672 104.736C259.693 105.84 260.595 106.723 261.698 106.723H293.758C298.454 106.723 302.271 102.852 302.271 98.1577V95.0797C302.271 93.9613 301.364 93.0547 300.246 93.0547H267.804Z" fill="#6D0CA6"/>
<path d="M266.791 68.9453C265.672 68.9453 264.766 69.8519 264.766 70.9703C264.766 72.0887 265.672 72.9953 266.791 72.9953H271.88C272.998 72.9953 273.905 72.0887 273.905 70.9703C273.905 69.8519 272.998 68.9453 271.88 68.9453H266.791Z" fill="white"/>
<path d="M266.791 77.2817C265.672 77.2817 264.766 78.1884 264.766 79.3067C264.766 80.4251 265.672 81.3317 266.791 81.3317H282.694C283.812 81.3317 284.719 80.4251 284.719 79.3067C284.719 78.1884 283.812 77.2817 282.694 77.2817H266.791Z" fill="white"/>
</g>
<path d="M172.688 180.64C175.216 180.64 176.912 178.864 176.912 176.224C176.912 173.584 175.216 171.808 172.688 171.808L171.008 171.824V180.624L172.688 180.64ZM169.312 182.128V170.32H172.704C176.16 170.32 178.592 172.752 178.592 176.224C178.592 179.696 176.16 182.128 172.704 182.128H169.312ZM183.653 182.176C181.493 182.176 179.973 180.592 179.973 178.352C179.973 176.096 181.493 174.512 183.653 174.512C186.021 174.512 186.773 176.448 186.821 176.576C187.285 177.664 187.141 178.88 187.141 179.008H181.637C181.829 180.032 182.693 180.736 183.653 180.736C184.917 180.736 185.429 180 185.557 179.776L186.917 180.384C186.549 181.248 185.477 182.176 183.653 182.176ZM181.637 177.664H185.541C185.381 176.72 184.837 175.952 183.653 175.952C182.629 175.952 181.829 176.672 181.637 177.664ZM192.18 180.576C192.772 180.576 193.46 180.272 193.892 179.792L195.06 180.96C194.404 181.68 193.204 182.192 192.244 182.192C189.972 182.192 188.372 180.592 188.372 178.352C188.372 176.096 189.972 174.496 192.244 174.496C193.252 174.496 194.372 175.008 195.06 175.744L193.892 176.896C193.46 176.416 192.772 176.112 192.18 176.112C190.916 176.112 190.068 176.992 190.068 178.352C190.068 179.696 190.916 180.576 192.18 180.576ZM196.399 170.704H198.095V182.128H196.399V170.704ZM203.308 182.208C201.196 182.208 199.692 180.608 199.692 178.368C199.692 176.128 201.196 174.528 203.308 174.528C204.06 174.528 204.892 174.88 205.5 175.6V174.512H207.196V182.144H205.5V181.12C204.892 181.888 204.06 182.208 203.308 182.208ZM201.388 178.368C201.388 179.808 202.204 180.768 203.42 180.768C204.54 180.768 205.5 179.76 205.516 178.368C205.5 176.976 204.54 175.968 203.42 175.968C202.204 175.968 201.388 176.912 201.388 178.368ZM209.197 182.144V174.512H210.893V175.632C211.405 174.912 212.333 174.432 213.229 174.48V176.048C211.869 175.984 210.893 177.184 210.893 178.352V182.144H209.197ZM217.714 182.208C215.602 182.208 214.098 180.608 214.098 178.368C214.098 176.128 215.602 174.528 217.714 174.528C218.466 174.528 219.298 174.88 219.906 175.6V174.512H221.602V182.144H219.906V181.12C219.298 181.888 218.466 182.208 217.714 182.208ZM215.794 178.368C215.794 179.808 216.61 180.768 217.826 180.768C218.946 180.768 219.906 179.76 219.922 178.368C219.906 176.976 218.946 175.968 217.826 175.968C216.61 175.968 215.794 176.912 215.794 178.368ZM224.566 182.144V175.968H223.126V174.496H224.566V171.824H226.262V174.496H228.07V175.968H226.262V182.144H224.566ZM229.812 174.496H231.508V182.128H229.812V174.496ZM229.7 171.648C229.7 171.088 230.1 170.688 230.66 170.688C231.22 170.688 231.62 171.088 231.62 171.648C231.62 172.208 231.22 172.608 230.66 172.608C230.1 172.608 229.7 172.208 229.7 171.648ZM237.247 180.752C238.431 180.752 239.231 179.808 239.231 178.352C239.231 176.912 238.431 175.952 237.247 175.952C236.063 175.952 235.263 176.896 235.263 178.352C235.263 179.808 236.047 180.752 237.247 180.752ZM233.567 178.352C233.567 176.096 235.087 174.496 237.247 174.496C239.407 174.496 240.927 176.096 240.927 178.352C240.927 180.592 239.407 182.208 237.247 182.208C235.087 182.208 233.567 180.592 233.567 178.352ZM247.852 177.936C247.852 176.72 247.228 175.984 246.172 175.984C245.132 176 244.332 176.816 244.348 177.936V182.144H242.652V174.512H244.348V175.552C244.828 174.96 245.644 174.528 246.38 174.528C247.82 174.528 249.548 175.472 249.548 177.872V182.144H247.852V177.936ZM258.73 182.208C256.618 182.208 255.114 180.608 255.114 178.368C255.114 176.128 256.618 174.528 258.73 174.528C259.482 174.528 260.314 174.88 260.922 175.6V174.512H262.618V182.144H260.922V181.12C260.314 181.888 259.482 182.208 258.73 182.208ZM256.81 178.368C256.81 179.808 257.626 180.768 258.842 180.768C259.962 180.768 260.922 179.76 260.938 178.368C260.922 176.976 259.962 175.968 258.842 175.968C257.626 175.968 256.81 176.912 256.81 178.368ZM269.899 177.936C269.899 176.72 269.275 175.984 268.219 175.984C267.179 176 266.379 176.816 266.395 177.936V182.144H264.699V174.512H266.395V175.552C266.875 174.96 267.691 174.528 268.427 174.528C269.867 174.528 271.595 175.472 271.595 177.872V182.144H269.899V177.936ZM276.949 182.208C274.837 182.208 273.317 180.608 273.317 178.352C273.317 176.096 274.837 174.496 276.949 174.496C277.573 174.496 278.517 174.768 279.173 175.632V170.704H280.869V182.144H279.173V181.072C278.501 181.888 277.573 182.208 276.949 182.208ZM275.013 178.368C275.013 179.824 275.829 180.784 277.061 180.784C278.213 180.784 279.173 179.728 279.173 178.368C279.173 177.024 278.213 175.952 277.061 175.952C275.829 175.952 275.013 176.912 275.013 178.368ZM287.046 174.496H288.742V182.128H287.046V174.496ZM286.934 171.648C286.934 171.088 287.334 170.688 287.894 170.688C288.454 170.688 288.854 171.088 288.854 171.648C288.854 172.208 288.454 172.608 287.894 172.608C287.334 172.608 286.934 172.208 286.934 171.648ZM296.306 177.936C296.306 176.72 295.682 175.984 294.626 175.984C293.586 176 292.786 176.816 292.802 177.936V182.144H291.106V174.512H292.802V175.552C293.282 174.96 294.098 174.528 294.834 174.528C296.274 174.528 298.002 175.472 298.002 177.872V182.144H296.306V177.936ZM300.8 182.144V175.968H299.36V174.496H300.8V171.824H302.496V174.496H304.304V175.968H302.496V182.144H300.8ZM309.185 182.176C307.025 182.176 305.505 180.592 305.505 178.352C305.505 176.096 307.025 174.512 309.185 174.512C311.553 174.512 312.305 176.448 312.353 176.576C312.817 177.664 312.673 178.88 312.673 179.008H307.169C307.361 180.032 308.225 180.736 309.185 180.736C310.449 180.736 310.961 180 311.089 179.776L312.449 180.384C312.081 181.248 311.009 182.176 309.185 182.176ZM307.169 177.664H311.073C310.913 176.72 310.369 175.952 309.185 175.952C308.161 175.952 307.361 176.672 307.169 177.664ZM314.401 182.144V174.512H316.097V175.632C316.609 174.912 317.536 174.432 318.433 174.48V176.048C317.073 175.984 316.097 177.184 316.097 178.352V182.144H314.401ZM325.446 177.936C325.446 176.72 324.822 175.984 323.766 175.984C322.726 176 321.926 176.816 321.942 177.936V182.144H320.246V174.512H321.942V175.552C322.422 174.96 323.238 174.528 323.974 174.528C325.414 174.528 327.142 175.472 327.142 177.872V182.144H325.446V177.936ZM332.48 182.208C330.368 182.208 328.864 180.608 328.864 178.368C328.864 176.128 330.368 174.528 332.48 174.528C333.232 174.528 334.064 174.88 334.672 175.6V174.512H336.368V182.144H334.672V181.12C334.064 181.888 333.232 182.208 332.48 182.208ZM330.56 178.368C330.56 179.808 331.376 180.768 332.592 180.768C333.712 180.768 334.672 179.76 334.688 178.368C334.672 176.976 333.712 175.968 332.592 175.968C331.376 175.968 330.56 176.912 330.56 178.368ZM338.431 170.704H340.127V182.128H338.431V170.704ZM342.468 174.496H344.164V182.128H342.468V174.496ZM342.356 171.648C342.356 171.088 342.756 170.688 343.316 170.688C343.876 170.688 344.276 171.088 344.276 171.648C344.276 172.208 343.876 172.608 343.316 172.608C342.756 172.608 342.356 172.208 342.356 171.648ZM352.143 174.512V176.144L348.287 180.704H352.143V182.144H346.191V180.56L350.095 175.952H346.191V174.512H352.143ZM357.136 182.208C355.024 182.208 353.52 180.608 353.52 178.368C353.52 176.128 355.024 174.528 357.136 174.528C357.888 174.528 358.72 174.88 359.328 175.6V174.512H361.024V182.144H359.328V181.12C358.72 181.888 357.888 182.208 357.136 182.208ZM355.216 178.368C355.216 179.808 356.032 180.768 357.248 180.768C358.368 180.768 359.328 179.76 359.344 178.368C359.328 176.976 358.368 175.968 357.248 175.968C356.032 175.968 355.216 176.912 355.216 178.368ZM363.987 182.144V175.968H362.547V174.496H363.987V171.824H365.683V174.496H367.491V175.968H365.683V182.144H363.987ZM369.234 174.496H370.93V182.128H369.234V174.496ZM369.122 171.648C369.122 171.088 369.522 170.688 370.082 170.688C370.642 170.688 371.042 171.088 371.042 171.648C371.042 172.208 370.642 172.608 370.082 172.608C369.522 172.608 369.122 172.208 369.122 171.648ZM376.669 180.752C377.853 180.752 378.653 179.808 378.653 178.352C378.653 176.912 377.853 175.952 376.669 175.952C375.485 175.952 374.685 176.896 374.685 178.352C374.685 179.808 375.469 180.752 376.669 180.752ZM372.989 178.352C372.989 176.096 374.509 174.496 376.669 174.496C378.829 174.496 380.349 176.096 380.349 178.352C380.349 180.592 378.829 182.208 376.669 182.208C374.509 182.208 372.989 180.592 372.989 178.352ZM387.274 177.936C387.274 176.72 386.65 175.984 385.594 175.984C384.554 176 383.754 176.816 383.77 177.936V182.144H382.074V174.512H383.77V175.552C384.25 174.96 385.066 174.528 385.802 174.528C387.242 174.528 388.97 175.472 388.97 177.872V182.144H387.274V177.936ZM202.716 206.752C203.9 206.752 204.7 205.808 204.7 204.352C204.7 202.912 203.9 201.952 202.716 201.952C201.532 201.952 200.732 202.896 200.732 204.352C200.732 205.808 201.516 206.752 202.716 206.752ZM199.036 204.352C199.036 202.096 200.556 200.496 202.716 200.496C204.876 200.496 206.396 202.096 206.396 204.352C206.396 206.592 204.876 208.208 202.716 208.208C200.556 208.208 199.036 206.592 199.036 204.352ZM210.493 208.144H208.797V201.984H207.453V200.48H208.797V198.88C208.797 197.472 209.773 196.4 211.181 196.304C211.837 196.256 212.653 196.512 213.037 196.896L212.173 198.144C211.821 197.84 211.597 197.776 211.325 197.808C210.829 197.856 210.493 198.272 210.493 198.88V200.48H212.637V201.984H210.493V208.144ZM223.712 203.968C223.712 202.704 223.104 201.904 222.192 201.904C221.136 201.904 220.32 202.896 220.32 204.128V208H218.624V196.704H220.32V201.408C220.784 200.816 221.536 200.432 222.192 200.432C224.08 200.432 225.424 201.84 225.424 203.776V208H223.712V203.968ZM229.146 204.864C229.146 206.032 229.834 206.752 230.842 206.752C231.914 206.752 232.65 206.048 232.634 204.88V200.512H234.346V208.144H232.634V207.264C232.154 207.856 231.37 208.208 230.618 208.208C228.778 208.208 227.45 206.88 227.45 204.928V200.512H229.146V204.864ZM246.223 203.808C246.223 202.72 245.631 202 244.767 202C243.791 202 243.135 202.752 243.135 203.728V208.144H241.423V203.808C241.423 202.72 240.847 202 239.999 202C239.023 202 238.335 202.832 238.335 203.904V208.144H236.639V200.512H238.335V201.552C238.783 200.944 239.439 200.528 240.159 200.528C241.071 200.528 241.967 201.104 242.415 201.904C242.943 201.104 243.967 200.528 244.879 200.528C246.687 200.528 247.935 201.872 247.935 203.744V208.144H246.223V203.808ZM253.418 208.208C251.306 208.208 249.802 206.608 249.802 204.368C249.802 202.128 251.306 200.528 253.418 200.528C254.17 200.528 255.002 200.88 255.61 201.6V200.512H257.306V208.144H255.61V207.12C255.002 207.888 254.17 208.208 253.418 208.208ZM251.498 204.368C251.498 205.808 252.314 206.768 253.53 206.768C254.65 206.768 255.61 205.76 255.626 204.368C255.61 202.976 254.65 201.968 253.53 201.968C252.314 201.968 251.498 202.912 251.498 204.368ZM264.587 203.936C264.587 202.72 263.963 201.984 262.907 201.984C261.867 202 261.067 202.816 261.083 203.936V208.144H259.387V200.512H261.083V201.552C261.563 200.96 262.379 200.528 263.115 200.528C264.555 200.528 266.283 201.472 266.283 203.872V208.144H264.587V203.936ZM272.072 208.144V200.512H273.768V201.632C274.28 200.912 275.208 200.432 276.104 200.48V202.048C274.744 201.984 273.768 203.184 273.768 204.352V208.144H272.072ZM278.046 200.496H279.742V208.128H278.046V200.496ZM277.934 197.648C277.934 197.088 278.334 196.688 278.894 196.688C279.454 196.688 279.854 197.088 279.854 197.648C279.854 198.208 279.454 198.608 278.894 198.608C278.334 198.608 277.934 198.208 277.934 197.648ZM285.514 206.736C286.73 206.736 287.61 205.664 287.61 204.336C287.61 203.04 286.73 201.952 285.514 201.952C284.314 201.952 283.498 202.896 283.498 204.336C283.498 205.792 284.314 206.736 285.514 206.736ZM281.802 204.352C281.802 202.112 283.306 200.496 285.418 200.496C286.202 200.496 287.082 200.896 287.61 201.616V200.496H289.306V207.568C289.306 209.744 287.834 211.536 285.498 211.536C284.218 211.536 282.986 211.008 282.234 209.76L283.578 208.864C284.138 209.68 284.682 210.032 285.498 210.032C286.858 210.032 287.61 208.96 287.61 207.712V207.04C287.018 207.792 286.138 208.192 285.418 208.192C283.306 208.192 281.802 206.592 281.802 204.352ZM296.712 203.968C296.712 202.704 296.104 201.904 295.192 201.904C294.136 201.904 293.32 202.896 293.32 204.128V208H291.624V196.704H293.32V201.408C293.784 200.816 294.536 200.432 295.192 200.432C297.08 200.432 298.424 201.84 298.424 203.776V208H296.712V203.968ZM301.362 208.144V201.968H299.922V200.496H301.362V197.824H303.058V200.496H304.866V201.968H303.058V208.144H301.362ZM307.521 205.52C307.857 206.352 308.689 206.736 309.201 206.736C310.001 206.736 310.513 206.432 310.513 205.904C310.513 205.424 309.809 205.2 309.025 204.928C307.985 204.56 306.513 204.064 306.513 202.592C306.513 201.248 307.745 200.432 309.313 200.432C310.257 200.432 311.665 200.976 312.049 202.352L310.625 202.864C310.369 202.016 309.681 201.888 309.313 201.888C308.641 201.888 308.209 202.16 308.209 202.592C308.209 203.072 308.865 203.264 309.681 203.552C310.769 203.936 312.209 204.432 312.209 205.888C312.209 207.28 310.977 208.192 309.201 208.192C308.033 208.192 306.753 207.456 306.193 206.288L307.521 205.52ZM321.885 206.752C323.117 206.752 323.917 205.792 323.917 204.336C323.917 202.88 323.117 201.92 321.885 201.92C320.733 201.92 319.789 202.992 319.789 204.336C319.789 205.68 320.733 206.752 321.885 206.752ZM318.077 211.52V200.496H319.773V201.616C320.381 200.816 321.389 200.496 321.981 200.496C324.109 200.496 325.613 202.08 325.613 204.336C325.613 206.608 324.109 208.192 321.981 208.192C321.373 208.192 320.381 207.856 319.773 207.056V211.52H318.077ZM330.763 206.752C331.947 206.752 332.747 205.808 332.747 204.352C332.747 202.912 331.947 201.952 330.763 201.952C329.579 201.952 328.779 202.896 328.779 204.352C328.779 205.808 329.563 206.752 330.763 206.752ZM327.083 204.352C327.083 202.096 328.603 200.496 330.763 200.496C332.923 200.496 334.443 202.096 334.443 204.352C334.443 206.592 332.923 208.208 330.763 208.208C328.603 208.208 327.083 206.592 327.083 204.352ZM336.04 196.704H337.736V208.128H336.04V196.704ZM340.077 200.496H341.773V208.128H340.077V200.496ZM339.965 197.648C339.965 197.088 340.365 196.688 340.925 196.688C341.485 196.688 341.885 197.088 341.885 197.648C341.885 198.208 341.485 198.608 340.925 198.608C340.365 198.608 339.965 198.208 339.965 197.648ZM347.305 206.576C347.897 206.576 348.585 206.272 349.017 205.792L350.185 206.96C349.529 207.68 348.329 208.192 347.369 208.192C345.097 208.192 343.497 206.592 343.497 204.352C343.497 202.096 345.097 200.496 347.369 200.496C348.377 200.496 349.497 201.008 350.185 201.744L349.017 202.896C348.585 202.416 347.897 202.112 347.305 202.112C346.041 202.112 345.193 202.992 345.193 204.352C345.193 205.696 346.041 206.576 347.305 206.576ZM354.516 211.456H352.66L354.324 207.504L351.252 200.512H353.124L355.22 205.568L357.236 200.512H359.076L356.228 207.376L354.516 211.456Z" fill="#15151A"/>
<g filter="url(#filter1_d_4139_2231)">
<circle cx="472" cy="224" r="62" fill="white"/>
</g>
<g clip-path="url(#clip1_4139_2231)">
<path d="M472.75 197.75C466.063 197.75 460.75 203.169 460.75 209.75C460.75 216.331 466.063 221.75 472.75 221.75C479.437 221.75 484.75 216.331 484.75 209.75C484.75 203.169 479.437 197.75 472.75 197.75Z" fill="#6D0CA6"/>
<path d="M472.75 224.75C466.652 224.75 461.133 226.844 457.113 229.752C453.213 232.572 450.25 236.534 450.25 240.5C450.25 244.959 453.855 247.347 457.757 248.571C461.759 249.827 467.103 250.25 472.75 250.25C478.397 250.25 483.741 249.827 487.743 248.571C491.645 247.347 495.25 244.959 495.25 240.5C495.25 236.534 492.287 232.572 488.387 229.752C484.367 226.844 478.848 224.75 472.75 224.75Z" fill="#CC7DFA"/>
</g>
<path d="M433.061 312.32V324.128H431.349V318.8H425.781V324.128H424.085V312.32H425.781V317.328H431.349V312.32H433.061ZM437.232 320.864C437.232 322.032 437.92 322.752 438.928 322.752C440 322.752 440.736 322.048 440.72 320.88V316.512H442.432V324.144H440.72V323.264C440.24 323.856 439.456 324.208 438.704 324.208C436.864 324.208 435.536 322.88 435.536 320.928V316.512H437.232V320.864ZM454.309 319.808C454.309 318.72 453.717 318 452.853 318C451.877 318 451.221 318.752 451.221 319.728V324.144H449.509V319.808C449.509 318.72 448.933 318 448.085 318C447.109 318 446.421 318.832 446.421 319.904V324.144H444.725V316.512H446.421V317.552C446.869 316.944 447.525 316.528 448.245 316.528C449.157 316.528 450.053 317.104 450.501 317.904C451.029 317.104 452.053 316.528 452.965 316.528C454.773 316.528 456.021 317.872 456.021 319.744V324.144H454.309V319.808ZM461.503 324.208C459.391 324.208 457.887 322.608 457.887 320.368C457.887 318.128 459.391 316.528 461.503 316.528C462.255 316.528 463.087 316.88 463.695 317.6V316.512H465.391V324.144H463.695V323.12C463.087 323.888 462.255 324.208 461.503 324.208ZM459.583 320.368C459.583 321.808 460.399 322.768 461.615 322.768C462.735 322.768 463.695 321.76 463.711 320.368C463.695 318.976 462.735 317.968 461.615 317.968C460.399 317.968 459.583 318.912 459.583 320.368ZM472.673 319.936C472.673 318.72 472.049 317.984 470.993 317.984C469.953 318 469.153 318.816 469.169 319.936V324.144H467.473V316.512H469.169V317.552C469.649 316.96 470.465 316.528 471.201 316.528C472.641 316.528 474.369 317.472 474.369 319.872V324.144H472.673V319.936ZM480.158 324.144V316.512H481.854V317.632C482.366 316.912 483.294 316.432 484.19 316.48V318.048C482.83 317.984 481.854 319.184 481.854 320.352V324.144H480.158ZM486.132 316.496H487.828V324.128H486.132V316.496ZM486.02 313.648C486.02 313.088 486.42 312.688 486.98 312.688C487.54 312.688 487.94 313.088 487.94 313.648C487.94 314.208 487.54 314.608 486.98 314.608C486.42 314.608 486.02 314.208 486.02 313.648ZM493.599 322.736C494.815 322.736 495.695 321.664 495.695 320.336C495.695 319.04 494.815 317.952 493.599 317.952C492.399 317.952 491.583 318.896 491.583 320.336C491.583 321.792 492.399 322.736 493.599 322.736ZM489.887 320.352C489.887 318.112 491.391 316.496 493.503 316.496C494.287 316.496 495.167 316.896 495.695 317.616V316.496H497.391V323.568C497.391 325.744 495.919 327.536 493.583 327.536C492.303 327.536 491.071 327.008 490.319 325.76L491.663 324.864C492.223 325.68 492.767 326.032 493.583 326.032C494.943 326.032 495.695 324.96 495.695 323.712V323.04C495.103 323.792 494.223 324.192 493.503 324.192C491.391 324.192 489.887 322.592 489.887 320.352ZM504.798 319.968C504.798 318.704 504.19 317.904 503.278 317.904C502.222 317.904 501.406 318.896 501.406 320.128V324H499.71V312.704H501.406V317.408C501.87 316.816 502.622 316.432 503.278 316.432C505.166 316.432 506.51 317.84 506.51 319.776V324H504.798V319.968ZM509.448 324.144V317.968H508.008V316.496H509.448V313.824H511.144V316.496H512.952V317.968H511.144V324.144H509.448ZM515.607 321.52C515.943 322.352 516.775 322.736 517.287 322.736C518.087 322.736 518.599 322.432 518.599 321.904C518.599 321.424 517.895 321.2 517.111 320.928C516.071 320.56 514.599 320.064 514.599 318.592C514.599 317.248 515.831 316.432 517.399 316.432C518.343 316.432 519.751 316.976 520.135 318.352L518.711 318.864C518.455 318.016 517.767 317.888 517.399 317.888C516.727 317.888 516.295 318.16 516.295 318.592C516.295 319.072 516.951 319.264 517.767 319.552C518.855 319.936 520.295 320.432 520.295 321.888C520.295 323.28 519.063 324.192 517.287 324.192C516.119 324.192 514.839 323.456 514.279 322.288L515.607 321.52ZM403.366 342.496H405.062V350.128H403.366V342.496ZM403.254 339.648C403.254 339.088 403.654 338.688 404.214 338.688C404.774 338.688 405.174 339.088 405.174 339.648C405.174 340.208 404.774 340.608 404.214 340.608C403.654 340.608 403.254 340.208 403.254 339.648ZM417.122 345.808C417.122 344.72 416.53 344 415.666 344C414.69 344 414.034 344.752 414.034 345.728V350.144H412.322V345.808C412.322 344.72 411.746 344 410.898 344C409.922 344 409.234 344.832 409.234 345.904V350.144H407.538V342.512H409.234V343.552C409.682 342.944 410.338 342.528 411.058 342.528C411.97 342.528 412.866 343.104 413.314 343.904C413.842 343.104 414.866 342.528 415.778 342.528C417.586 342.528 418.834 343.872 418.834 345.744V350.144H417.122V345.808ZM424.799 348.752C426.031 348.752 426.831 347.792 426.831 346.336C426.831 344.88 426.031 343.92 424.799 343.92C423.647 343.92 422.703 344.992 422.703 346.336C422.703 347.68 423.647 348.752 424.799 348.752ZM420.991 353.52V342.496H422.687V343.616C423.295 342.816 424.303 342.496 424.895 342.496C427.023 342.496 428.527 344.08 428.527 346.336C428.527 348.608 427.023 350.192 424.895 350.192C424.287 350.192 423.295 349.856 422.687 349.056V353.52H420.991ZM433.613 350.208C431.501 350.208 429.997 348.608 429.997 346.368C429.997 344.128 431.501 342.528 433.613 342.528C434.365 342.528 435.197 342.88 435.805 343.6V342.512H437.501V350.144H435.805V349.12C435.197 349.888 434.365 350.208 433.613 350.208ZM431.693 346.368C431.693 347.808 432.509 348.768 433.725 348.768C434.845 348.768 435.805 347.76 435.821 346.368C435.805 344.976 434.845 343.968 433.725 343.968C432.509 343.968 431.693 344.912 431.693 346.368ZM442.859 348.576C443.451 348.576 444.139 348.272 444.571 347.792L445.739 348.96C445.083 349.68 443.883 350.192 442.923 350.192C440.651 350.192 439.051 348.592 439.051 346.352C439.051 344.096 440.651 342.496 442.923 342.496C443.931 342.496 445.051 343.008 445.739 343.744L444.571 344.896C444.139 344.416 443.451 344.112 442.859 344.112C441.595 344.112 440.747 344.992 440.747 346.352C440.747 347.696 441.595 348.576 442.859 348.576ZM448.167 350.144V343.968H446.727V342.496H448.167V339.824H449.863V342.496H451.671V343.968H449.863V350.144H448.167ZM460.769 350.208C458.657 350.208 457.153 348.608 457.153 346.368C457.153 344.128 458.657 342.528 460.769 342.528C461.521 342.528 462.353 342.88 462.961 343.6V342.512H464.657V350.144H462.961V349.12C462.353 349.888 461.521 350.208 460.769 350.208ZM458.849 346.368C458.849 347.808 459.665 348.768 460.881 348.768C462.001 348.768 462.961 347.76 462.977 346.368C462.961 344.976 462.001 343.968 460.881 343.968C459.665 343.968 458.849 344.912 458.849 346.368ZM467.904 347.52C468.24 348.352 469.072 348.736 469.584 348.736C470.384 348.736 470.896 348.432 470.896 347.904C470.896 347.424 470.192 347.2 469.408 346.928C468.368 346.56 466.896 346.064 466.896 344.592C466.896 343.248 468.128 342.432 469.696 342.432C470.64 342.432 472.048 342.976 472.432 344.352L471.008 344.864C470.752 344.016 470.064 343.888 469.696 343.888C469.024 343.888 468.592 344.16 468.592 344.592C468.592 345.072 469.248 345.264 470.064 345.552C471.152 345.936 472.592 346.432 472.592 347.888C472.592 349.28 471.36 350.192 469.584 350.192C468.416 350.192 467.136 349.456 466.576 348.288L467.904 347.52ZM475.247 347.52C475.583 348.352 476.415 348.736 476.927 348.736C477.727 348.736 478.239 348.432 478.239 347.904C478.239 347.424 477.535 347.2 476.751 346.928C475.711 346.56 474.239 346.064 474.239 344.592C474.239 343.248 475.471 342.432 477.039 342.432C477.983 342.432 479.391 342.976 479.775 344.352L478.351 344.864C478.095 344.016 477.407 343.888 477.039 343.888C476.367 343.888 475.935 344.16 475.935 344.592C475.935 345.072 476.591 345.264 477.407 345.552C478.495 345.936 479.935 346.432 479.935 347.888C479.935 349.28 478.703 350.192 476.927 350.192C475.759 350.192 474.479 349.456 473.919 348.288L475.247 347.52ZM485.239 350.176C483.079 350.176 481.559 348.592 481.559 346.352C481.559 344.096 483.079 342.512 485.239 342.512C487.607 342.512 488.359 344.448 488.407 344.576C488.871 345.664 488.727 346.88 488.727 347.008H483.223C483.415 348.032 484.279 348.736 485.239 348.736C486.503 348.736 487.015 348 487.143 347.776L488.503 348.384C488.135 349.248 487.063 350.176 485.239 350.176ZM483.223 345.664H487.127C486.967 344.72 486.423 343.952 485.239 343.952C484.215 343.952 483.415 344.672 483.223 345.664ZM491.591 347.52C491.927 348.352 492.759 348.736 493.271 348.736C494.071 348.736 494.583 348.432 494.583 347.904C494.583 347.424 493.879 347.2 493.095 346.928C492.055 346.56 490.583 346.064 490.583 344.592C490.583 343.248 491.815 342.432 493.383 342.432C494.327 342.432 495.735 342.976 496.119 344.352L494.695 344.864C494.439 344.016 493.751 343.888 493.383 343.888C492.711 343.888 492.279 344.16 492.279 344.592C492.279 345.072 492.935 345.264 493.751 345.552C494.839 345.936 496.279 346.432 496.279 347.888C496.279 349.28 495.047 350.192 493.271 350.192C492.103 350.192 490.823 349.456 490.263 348.288L491.591 347.52ZM498.935 347.52C499.271 348.352 500.103 348.736 500.615 348.736C501.415 348.736 501.927 348.432 501.927 347.904C501.927 347.424 501.223 347.2 500.439 346.928C499.399 346.56 497.927 346.064 497.927 344.592C497.927 343.248 499.159 342.432 500.727 342.432C501.671 342.432 503.079 342.976 503.463 344.352L502.039 344.864C501.783 344.016 501.095 343.888 500.727 343.888C500.055 343.888 499.623 344.16 499.623 344.592C499.623 345.072 500.279 345.264 501.095 345.552C502.183 345.936 503.623 346.432 503.623 347.888C503.623 349.28 502.391 350.192 500.615 350.192C499.447 350.192 498.167 349.456 497.607 348.288L498.935 347.52ZM515.247 345.808C515.247 344.72 514.655 344 513.791 344C512.815 344 512.159 344.752 512.159 345.728V350.144H510.447V345.808C510.447 344.72 509.871 344 509.023 344C508.047 344 507.359 344.832 507.359 345.904V350.144H505.663V342.512H507.359V343.552C507.807 342.944 508.463 342.528 509.183 342.528C510.095 342.528 510.991 343.104 511.439 343.904C511.967 343.104 512.991 342.528 513.903 342.528C515.711 342.528 516.959 343.872 516.959 345.744V350.144H515.247V345.808ZM522.505 350.176C520.345 350.176 518.825 348.592 518.825 346.352C518.825 344.096 520.345 342.512 522.505 342.512C524.873 342.512 525.625 344.448 525.673 344.576C526.137 345.664 525.993 346.88 525.993 347.008H520.489C520.681 348.032 521.545 348.736 522.505 348.736C523.769 348.736 524.281 348 524.409 347.776L525.769 348.384C525.401 349.248 524.329 350.176 522.505 350.176ZM520.489 345.664H524.393C524.233 344.72 523.689 343.952 522.505 343.952C521.481 343.952 520.681 344.672 520.489 345.664ZM533.001 345.936C533.001 344.72 532.377 343.984 531.321 343.984C530.281 344 529.481 344.816 529.497 345.936V350.144H527.801V342.512H529.497V343.552C529.977 342.96 530.793 342.528 531.529 342.528C532.969 342.528 534.697 343.472 534.697 345.872V350.144H533.001V345.936ZM537.495 350.144V343.968H536.055V342.496H537.495V339.824H539.191V342.496H540.999V343.968H539.191V350.144H537.495Z" fill="#15151A"/>
<g filter="url(#filter2_d_4139_2231)">
<circle cx="90" cy="224" r="62" fill="white"/>
</g>
<g clip-path="url(#clip2_4139_2231)">
<g clip-path="url(#clip3_4139_2231)">
<path d="M87.6769 217.357C87.3794 217.529 87.034 217.627 86.6656 217.627C85.5472 217.627 84.6406 216.72 84.6406 215.602V208.447C84.6406 205.438 87.0322 203.047 90.0406 203.047H112.856C115.864 203.047 118.256 205.438 118.256 208.447V223.702C118.256 226.71 115.864 229.102 112.856 229.102H106.003L102.966 232.926C102.582 233.41 101.998 233.692 101.381 233.692C100.763 233.692 100.179 233.41 99.7948 232.926L96.7579 229.102H93.2806C92.1622 229.102 91.2556 228.195 91.2556 227.077C91.2556 226.327 91.6632 225.672 92.2689 225.322L87.6769 217.357Z" fill="#6D0CA6"/>
<path d="M67.0875 214.93C64.0791 214.93 61.6875 217.321 61.6875 220.33V234.235C61.6875 237.243 64.0791 239.635 67.0875 239.635H73.8047L76.8417 243.459C77.2258 243.943 77.8098 244.225 78.4275 244.225C79.0452 244.225 79.6292 243.943 80.0133 243.459L83.0503 239.635H89.9025C92.9109 239.635 95.3025 237.243 95.3025 234.235V220.33C95.3025 217.321 92.9109 214.93 89.9025 214.93H67.0875Z" fill="#CC7DFA"/>
</g>
</g>
<path d="M50.3919 322.768C52.8879 322.768 54.5679 320.944 54.5679 318.224C54.5679 315.504 52.8879 313.68 50.3919 313.68C47.8959 313.68 46.2319 315.504 46.2319 318.224C46.2319 320.944 47.8959 322.768 50.3919 322.768ZM44.5199 318.224C44.5199 314.688 46.9519 312.192 50.3919 312.192C53.8479 312.192 56.2799 314.688 56.2799 318.224C56.2799 321.76 53.8479 324.256 50.3919 324.256C46.9519 324.256 44.5199 321.76 44.5199 318.224ZM62.0486 322.752C63.2806 322.752 64.0806 321.792 64.0806 320.336C64.0806 318.88 63.2806 317.92 62.0486 317.92C60.8966 317.92 59.9526 318.992 59.9526 320.336C59.9526 321.68 60.8966 322.752 62.0486 322.752ZM58.2406 327.52V316.496H59.9366V317.616C60.5446 316.816 61.5526 316.496 62.1446 316.496C64.2726 316.496 65.7766 318.08 65.7766 320.336C65.7766 322.608 64.2726 324.192 62.1446 324.192C61.5366 324.192 60.5446 323.856 59.9366 323.056V327.52H58.2406ZM70.9268 324.176C68.7668 324.176 67.2468 322.592 67.2468 320.352C67.2468 318.096 68.7668 316.512 70.9268 316.512C73.2948 316.512 74.0468 318.448 74.0948 318.576C74.5588 319.664 74.4148 320.88 74.4148 321.008H68.9108C69.1028 322.032 69.9668 322.736 70.9268 322.736C72.1908 322.736 72.7028 322 72.8308 321.776L74.1908 322.384C73.8228 323.248 72.7508 324.176 70.9268 324.176ZM68.9108 319.664H72.8148C72.6548 318.72 72.1108 317.952 70.9268 317.952C69.9028 317.952 69.1028 318.672 68.9108 319.664ZM76.1427 324.144V316.512H77.8387V317.632C78.3507 316.912 79.2787 316.432 80.1747 316.48V318.048C78.8147 317.984 77.8387 319.184 77.8387 320.352V324.144H76.1427ZM84.6597 324.208C82.5477 324.208 81.0437 322.608 81.0437 320.368C81.0437 318.128 82.5477 316.528 84.6597 316.528C85.4117 316.528 86.2437 316.88 86.8517 317.6V316.512H88.5477V324.144H86.8517V323.12C86.2437 323.888 85.4117 324.208 84.6597 324.208ZM82.7397 320.368C82.7397 321.808 83.5557 322.768 84.7717 322.768C85.8917 322.768 86.8517 321.76 86.8677 320.368C86.8517 318.976 85.8917 317.968 84.7717 317.968C83.5557 317.968 82.7397 318.912 82.7397 320.368ZM91.5108 324.144V317.968H90.0708V316.496H91.5108V313.824H93.2068V316.496H95.0148V317.968H93.2068V324.144H91.5108ZM96.7569 316.496H98.4529V324.128H96.7569V316.496ZM96.6449 313.648C96.6449 313.088 97.0449 312.688 97.6049 312.688C98.1649 312.688 98.5649 313.088 98.5649 313.648C98.5649 314.208 98.1649 314.608 97.6049 314.608C97.0449 314.608 96.6449 314.208 96.6449 313.648ZM104.192 322.752C105.376 322.752 106.176 321.808 106.176 320.352C106.176 318.912 105.376 317.952 104.192 317.952C103.008 317.952 102.208 318.896 102.208 320.352C102.208 321.808 102.992 322.752 104.192 322.752ZM100.512 320.352C100.512 318.096 102.032 316.496 104.192 316.496C106.352 316.496 107.872 318.096 107.872 320.352C107.872 322.592 106.352 324.208 104.192 324.208C102.032 324.208 100.512 322.592 100.512 320.352ZM114.798 319.936C114.798 318.72 114.174 317.984 113.118 317.984C112.078 318 111.278 318.816 111.294 319.936V324.144H109.598V316.512H111.294V317.552C111.774 316.96 112.59 316.528 113.326 316.528C114.766 316.528 116.494 317.472 116.494 319.872V324.144H114.798V319.936ZM125.739 322.752C126.923 322.752 127.723 321.808 127.723 320.352C127.723 318.912 126.923 317.952 125.739 317.952C124.555 317.952 123.755 318.896 123.755 320.352C123.755 321.808 124.539 322.752 125.739 322.752ZM122.059 320.352C122.059 318.096 123.579 316.496 125.739 316.496C127.899 316.496 129.419 318.096 129.419 320.352C129.419 322.592 127.899 324.208 125.739 324.208C123.579 324.208 122.059 322.592 122.059 320.352ZM133.517 324.144H131.821V317.984H130.477V316.48H131.821V314.88C131.821 313.472 132.797 312.4 134.205 312.304C134.861 312.256 135.677 312.512 136.061 312.896L135.197 314.144C134.845 313.84 134.621 313.776 134.349 313.808C133.853 313.856 133.517 314.272 133.517 314.88V316.48H135.661V317.984H133.517V324.144ZM16.2323 348.736C17.4483 348.736 18.3283 347.664 18.3283 346.336C18.3283 345.04 17.4483 343.952 16.2323 343.952C15.0323 343.952 14.2163 344.896 14.2163 346.336C14.2163 347.792 15.0323 348.736 16.2323 348.736ZM12.5203 346.352C12.5203 344.112 14.0243 342.496 16.1363 342.496C16.9203 342.496 17.8003 342.896 18.3283 343.616V342.496H20.0243V349.568C20.0243 351.744 18.5523 353.536 16.2163 353.536C14.9363 353.536 13.7043 353.008 12.9523 351.76L14.2963 350.864C14.8563 351.68 15.4003 352.032 16.2163 352.032C17.5763 352.032 18.3283 350.96 18.3283 349.712V349.04C17.7363 349.792 16.8563 350.192 16.1363 350.192C14.0243 350.192 12.5203 348.592 12.5203 346.352ZM22.1349 350.144V342.512H23.8309V343.632C24.3429 342.912 25.2709 342.432 26.1669 342.48V344.048C24.8069 343.984 23.8309 345.184 23.8309 346.352V350.144H22.1349ZM28.1085 342.496H29.8045V350.128H28.1085V342.496ZM27.9965 339.648C27.9965 339.088 28.3965 338.688 28.9565 338.688C29.5165 338.688 29.9165 339.088 29.9165 339.648C29.9165 340.208 29.5165 340.608 28.9565 340.608C28.3965 340.608 27.9965 340.208 27.9965 339.648ZM35.544 350.176C33.384 350.176 31.864 348.592 31.864 346.352C31.864 344.096 33.384 342.512 35.544 342.512C37.912 342.512 38.664 344.448 38.712 344.576C39.176 345.664 39.032 346.88 39.032 347.008H33.528C33.72 348.032 34.584 348.736 35.544 348.736C36.808 348.736 37.32 348 37.448 347.776L38.808 348.384C38.44 349.248 37.368 350.176 35.544 350.176ZM33.528 345.664H37.432C37.272 344.72 36.728 343.952 35.544 343.952C34.52 343.952 33.72 344.672 33.528 345.664ZM47.6393 342.512L44.4073 350.144H42.9353L39.7353 342.512H41.5913L43.6713 347.856L45.7673 342.512H47.6393ZM51.8706 350.208C49.7586 350.208 48.2546 348.608 48.2546 346.368C48.2546 344.128 49.7586 342.528 51.8706 342.528C52.6226 342.528 53.4546 342.88 54.0626 343.6V342.512H55.7586V350.144H54.0626V349.12C53.4546 349.888 52.6226 350.208 51.8706 350.208ZM49.9506 346.368C49.9506 347.808 50.7666 348.768 51.9826 348.768C53.1026 348.768 54.0626 347.76 54.0786 346.368C54.0626 344.976 53.1026 343.968 51.9826 343.968C50.7666 343.968 49.9506 344.912 49.9506 346.368ZM63.0399 345.936C63.0399 344.72 62.4159 343.984 61.3599 343.984C60.3199 344 59.5199 344.816 59.5359 345.936V350.144H57.8399V342.512H59.5359V343.552C60.0159 342.96 60.8319 342.528 61.5679 342.528C63.0079 342.528 64.7359 343.472 64.7359 345.872V350.144H63.0399V345.936ZM69.9298 348.576C70.5218 348.576 71.2098 348.272 71.6418 347.792L72.8098 348.96C72.1538 349.68 70.9538 350.192 69.9938 350.192C67.7218 350.192 66.1217 348.592 66.1217 346.352C66.1217 344.096 67.7218 342.496 69.9938 342.496C71.0018 342.496 72.1218 343.008 72.8098 343.744L71.6418 344.896C71.2098 344.416 70.5218 344.112 69.9298 344.112C68.6658 344.112 67.8178 344.992 67.8178 346.352C67.8178 347.696 68.6658 348.576 69.9298 348.576ZM77.4971 350.176C75.3371 350.176 73.8171 348.592 73.8171 346.352C73.8171 344.096 75.3371 342.512 77.4971 342.512C79.8651 342.512 80.6171 344.448 80.6651 344.576C81.1291 345.664 80.9851 346.88 80.9851 347.008H75.4811C75.6731 348.032 76.5371 348.736 77.4971 348.736C78.7611 348.736 79.2731 348 79.4011 347.776L80.7611 348.384C80.3931 349.248 79.3211 350.176 77.4971 350.176ZM75.4811 345.664H79.3851C79.2251 344.72 78.6811 343.952 77.4971 343.952C76.4731 343.952 75.6731 344.672 75.4811 345.664ZM96.489 345.808C96.489 344.72 95.897 344 95.033 344C94.057 344 93.401 344.752 93.401 345.728V350.144H91.689V345.808C91.689 344.72 91.113 344 90.265 344C89.289 344 88.601 344.832 88.601 345.904V350.144H86.905V342.512H88.601V343.552C89.049 342.944 89.705 342.528 90.425 342.528C91.337 342.528 92.233 343.104 92.681 343.904C93.209 343.104 94.233 342.528 95.145 342.528C96.953 342.528 98.201 343.872 98.201 345.744V350.144H96.489V345.808ZM103.747 350.176C101.587 350.176 100.067 348.592 100.067 346.352C100.067 344.096 101.587 342.512 103.747 342.512C106.115 342.512 106.867 344.448 106.915 344.576C107.379 345.664 107.235 346.88 107.235 347.008H101.731C101.923 348.032 102.787 348.736 103.747 348.736C105.011 348.736 105.523 348 105.651 347.776L107.011 348.384C106.643 349.248 105.571 350.176 103.747 350.176ZM101.731 345.664H105.635C105.475 344.72 104.931 343.952 103.747 343.952C102.723 343.952 101.923 344.672 101.731 345.664ZM112.274 348.576C112.866 348.576 113.554 348.272 113.986 347.792L115.154 348.96C114.498 349.68 113.298 350.192 112.338 350.192C110.066 350.192 108.465 348.592 108.465 346.352C108.465 344.096 110.066 342.496 112.338 342.496C113.346 342.496 114.466 343.008 115.154 343.744L113.986 344.896C113.554 344.416 112.866 344.112 112.274 344.112C111.01 344.112 110.162 344.992 110.162 346.352C110.162 347.696 111.01 348.576 112.274 348.576ZM121.837 345.968C121.837 344.704 121.229 343.904 120.317 343.904C119.261 343.904 118.445 344.896 118.445 346.128V350H116.749V338.704H118.445V343.408C118.909 342.816 119.661 342.432 120.317 342.432C122.205 342.432 123.549 343.84 123.549 345.776V350H121.837V345.968ZM129.027 350.208C126.915 350.208 125.411 348.608 125.411 346.368C125.411 344.128 126.915 342.528 129.027 342.528C129.779 342.528 130.611 342.88 131.219 343.6V342.512H132.915V350.144H131.219V349.12C130.611 349.888 129.779 350.208 129.027 350.208ZM127.107 346.368C127.107 347.808 127.923 348.768 129.139 348.768C130.259 348.768 131.219 347.76 131.235 346.368C131.219 344.976 130.259 343.968 129.139 343.968C127.923 343.968 127.107 344.912 127.107 346.368ZM140.196 345.936C140.196 344.72 139.572 343.984 138.516 343.984C137.476 344 136.676 344.816 136.692 345.936V350.144H134.996V342.512H136.692V343.552C137.172 342.96 137.988 342.528 138.724 342.528C140.164 342.528 141.892 343.472 141.892 345.872V350.144H140.196V345.936ZM144.046 342.496H145.742V350.128H144.046V342.496ZM143.934 339.648C143.934 339.088 144.334 338.688 144.894 338.688C145.454 338.688 145.854 339.088 145.854 339.648C145.854 340.208 145.454 340.608 144.894 340.608C144.334 340.608 143.934 340.208 143.934 339.648ZM149.162 347.52C149.498 348.352 150.33 348.736 150.842 348.736C151.641 348.736 152.154 348.432 152.154 347.904C152.154 347.424 151.45 347.2 150.666 346.928C149.626 346.56 148.154 346.064 148.154 344.592C148.154 343.248 149.386 342.432 150.954 342.432C151.898 342.432 153.306 342.976 153.69 344.352L152.266 344.864C152.01 344.016 151.322 343.888 150.954 343.888C150.282 343.888 149.85 344.16 149.85 344.592C149.85 345.072 150.506 345.264 151.322 345.552C152.41 345.936 153.85 346.432 153.85 347.888C153.85 349.28 152.618 350.192 150.842 350.192C149.674 350.192 148.394 349.456 147.834 348.288L149.162 347.52ZM165.473 345.808C165.473 344.72 164.881 344 164.017 344C163.041 344 162.385 344.752 162.385 345.728V350.144H160.673V345.808C160.673 344.72 160.097 344 159.249 344C158.273 344 157.585 344.832 157.585 345.904V350.144H155.889V342.512H157.585V343.552C158.033 342.944 158.689 342.528 159.409 342.528C160.321 342.528 161.217 343.104 161.665 343.904C162.193 343.104 163.217 342.528 164.129 342.528C165.937 342.528 167.185 343.872 167.185 345.744V350.144H165.473V345.808Z" fill="#15151A"/>
<g filter="url(#filter3_d_4139_2231)">
<circle cx="400" cy="434" r="62" fill="white"/>
</g>
<g clip-path="url(#clip4_4139_2231)">
<g clip-path="url(#clip5_4139_2231)">
<path fill-rule="evenodd" clip-rule="evenodd" d="M409.492 408.913C410.282 408.123 411.565 408.123 412.355 408.913L421.535 418.093C422.326 418.884 422.326 420.166 421.535 420.957C420.745 421.748 419.462 421.748 418.672 420.957L409.492 411.777C408.701 410.986 408.701 409.704 409.492 408.913Z" fill="#CC7DFA"/>
<path d="M406.958 414.179C406.577 413.798 406.06 413.584 405.521 413.586C404.982 413.587 404.466 413.804 404.087 414.187L392.08 426.329L379.938 438.336C379.621 438.649 379.416 439.059 379.355 439.5L377.87 450.3C377.784 450.932 378 451.568 378.453 452.017C378.907 452.465 379.546 452.673 380.177 452.579L390.977 450.959C391.405 450.894 391.802 450.694 392.108 450.388L404.115 438.381L404.123 438.373L416.265 426.366C416.649 425.987 416.865 425.471 416.867 424.932C416.868 424.393 416.655 423.875 416.273 423.494L406.958 414.179Z" fill="#CC7DFA"/>
<path fill-rule="evenodd" clip-rule="evenodd" d="M377.984 459.619C377.984 458.5 378.891 457.594 380.009 457.594H416.594C417.713 457.594 418.619 458.5 418.619 459.619C418.619 460.737 417.713 461.644 416.594 461.644H380.009C378.891 461.644 377.984 460.737 377.984 459.619Z" fill="#6D0CA6"/>
</g>
</g>
<path d="M282.611 522.32V523.808H276.675V527.312H281.779V528.784H276.675V532.64H282.611V534.128H274.979V522.32H282.611ZM285.63 531.52C285.966 532.352 286.798 532.736 287.31 532.736C288.11 532.736 288.622 532.432 288.622 531.904C288.622 531.424 287.918 531.2 287.134 530.928C286.094 530.56 284.622 530.064 284.622 528.592C284.622 527.248 285.854 526.432 287.422 526.432C288.366 526.432 289.774 526.976 290.158 528.352L288.734 528.864C288.478 528.016 287.79 527.888 287.422 527.888C286.75 527.888 286.318 528.16 286.318 528.592C286.318 529.072 286.974 529.264 287.79 529.552C288.878 529.936 290.318 530.432 290.318 531.888C290.318 533.28 289.086 534.192 287.31 534.192C286.142 534.192 284.862 533.456 284.302 532.288L285.63 531.52ZM292.972 534.144V527.968H291.532V526.496H292.972V523.824H294.668V526.496H296.476V527.968H294.668V534.144H292.972ZM301.293 534.208C299.181 534.208 297.677 532.608 297.677 530.368C297.677 528.128 299.181 526.528 301.293 526.528C302.045 526.528 302.877 526.88 303.485 527.6V526.512H305.181V534.144H303.485V533.12C302.877 533.888 302.045 534.208 301.293 534.208ZM299.373 530.368C299.373 531.808 300.189 532.768 301.405 532.768C302.525 532.768 303.485 531.76 303.501 530.368C303.485 528.976 302.525 527.968 301.405 527.968C300.189 527.968 299.373 528.912 299.373 530.368ZM311.291 534.224C310.747 534.224 309.787 533.984 309.083 533.088V534.16H307.387V522.704H309.083V527.648C309.787 526.72 310.747 526.512 311.307 526.512C313.419 526.512 314.939 528.112 314.939 530.368C314.939 532.624 313.419 534.224 311.291 534.224ZM309.083 530.384C309.083 531.744 310.027 532.8 311.195 532.8C312.427 532.8 313.243 531.84 313.243 530.384C313.243 528.928 312.427 527.984 311.195 527.984C310.027 527.984 309.083 529.056 309.083 530.384ZM316.54 522.704H318.236V534.128H316.54V522.704ZM320.577 526.496H322.273V534.128H320.577V526.496ZM320.465 523.648C320.465 523.088 320.865 522.688 321.425 522.688C321.985 522.688 322.385 523.088 322.385 523.648C322.385 524.208 321.985 524.608 321.425 524.608C320.865 524.608 320.465 524.208 320.465 523.648ZM325.693 531.52C326.029 532.352 326.861 532.736 327.373 532.736C328.173 532.736 328.685 532.432 328.685 531.904C328.685 531.424 327.981 531.2 327.197 530.928C326.157 530.56 324.685 530.064 324.685 528.592C324.685 527.248 325.917 526.432 327.485 526.432C328.429 526.432 329.837 526.976 330.221 528.352L328.797 528.864C328.541 528.016 327.853 527.888 327.485 527.888C326.813 527.888 326.381 528.16 326.381 528.592C326.381 529.072 327.037 529.264 327.853 529.552C328.941 529.936 330.381 530.432 330.381 531.888C330.381 533.28 329.149 534.192 327.373 534.192C326.205 534.192 324.925 533.456 324.365 532.288L325.693 531.52ZM337.368 529.968C337.368 528.704 336.76 527.904 335.848 527.904C334.792 527.904 333.976 528.896 333.976 530.128V534H332.28V522.704H333.976V527.408C334.44 526.816 335.192 526.432 335.848 526.432C337.736 526.432 339.08 527.84 339.08 529.776V534H337.368V529.968ZM350.833 529.808C350.833 528.72 350.241 528 349.377 528C348.401 528 347.745 528.752 347.745 529.728V534.144H346.033V529.808C346.033 528.72 345.457 528 344.609 528C343.633 528 342.945 528.832 342.945 529.904V534.144H341.249V526.512H342.945V527.552C343.393 526.944 344.049 526.528 344.769 526.528C345.681 526.528 346.577 527.104 347.025 527.904C347.553 527.104 348.577 526.528 349.489 526.528C351.297 526.528 352.545 527.872 352.545 529.744V534.144H350.833V529.808ZM358.091 534.176C355.931 534.176 354.411 532.592 354.411 530.352C354.411 528.096 355.931 526.512 358.091 526.512C360.459 526.512 361.211 528.448 361.259 528.576C361.723 529.664 361.579 530.88 361.579 531.008H356.075C356.267 532.032 357.131 532.736 358.091 532.736C359.355 532.736 359.867 532 359.995 531.776L361.355 532.384C360.987 533.248 359.915 534.176 358.091 534.176ZM356.075 529.664H359.979C359.819 528.72 359.275 527.952 358.091 527.952C357.067 527.952 356.267 528.672 356.075 529.664ZM368.587 529.936C368.587 528.72 367.963 527.984 366.907 527.984C365.867 528 365.067 528.816 365.083 529.936V534.144H363.387V526.512H365.083V527.552C365.563 526.96 366.379 526.528 367.115 526.528C368.555 526.528 370.283 527.472 370.283 529.872V534.144H368.587V529.936ZM373.081 534.144V527.968H371.641V526.496H373.081V523.824H374.777V526.496H376.585V527.968H374.777V534.144H373.081ZM385.683 534.208C383.571 534.208 382.067 532.608 382.067 530.368C382.067 528.128 383.571 526.528 385.683 526.528C386.435 526.528 387.267 526.88 387.875 527.6V526.512H389.571V534.144H387.875V533.12C387.267 533.888 386.435 534.208 385.683 534.208ZM383.763 530.368C383.763 531.808 384.579 532.768 385.795 532.768C386.915 532.768 387.875 531.76 387.891 530.368C387.875 528.976 386.915 527.968 385.795 527.968C384.579 527.968 383.763 528.912 383.763 530.368ZM396.852 529.936C396.852 528.72 396.228 527.984 395.172 527.984C394.132 528 393.332 528.816 393.348 529.936V534.144H391.652V526.512H393.348V527.552C393.828 526.96 394.644 526.528 395.38 526.528C396.82 526.528 398.548 527.472 398.548 529.872V534.144H396.852V529.936ZM403.902 534.208C401.79 534.208 400.27 532.608 400.27 530.352C400.27 528.096 401.79 526.496 403.902 526.496C404.526 526.496 405.47 526.768 406.126 527.632V522.704H407.822V534.144H406.126V533.072C405.454 533.888 404.526 534.208 403.902 534.208ZM401.966 530.368C401.966 531.824 402.782 532.784 404.014 532.784C405.166 532.784 406.126 531.728 406.126 530.368C406.126 529.024 405.166 527.952 404.014 527.952C402.782 527.952 401.966 528.912 401.966 530.368ZM413.999 526.496H415.695V534.128H413.999V526.496ZM413.887 523.648C413.887 523.088 414.287 522.688 414.847 522.688C415.407 522.688 415.807 523.088 415.807 523.648C415.807 524.208 415.407 524.608 414.847 524.608C414.287 524.608 413.887 524.208 413.887 523.648ZM427.755 529.808C427.755 528.72 427.163 528 426.299 528C425.323 528 424.667 528.752 424.667 529.728V534.144H422.955V529.808C422.955 528.72 422.379 528 421.531 528C420.555 528 419.867 528.832 419.867 529.904V534.144H418.171V526.512H419.867V527.552C420.315 526.944 420.971 526.528 421.691 526.528C422.603 526.528 423.499 527.104 423.947 527.904C424.475 527.104 425.499 526.528 426.411 526.528C428.219 526.528 429.467 527.872 429.467 529.744V534.144H427.755V529.808ZM435.431 532.752C436.663 532.752 437.463 531.792 437.463 530.336C437.463 528.88 436.663 527.92 435.431 527.92C434.279 527.92 433.335 528.992 433.335 530.336C433.335 531.68 434.279 532.752 435.431 532.752ZM431.623 537.52V526.496H433.319V527.616C433.927 526.816 434.935 526.496 435.527 526.496C437.655 526.496 439.159 528.08 439.159 530.336C439.159 532.608 437.655 534.192 435.527 534.192C434.919 534.192 433.927 533.856 433.319 533.056V537.52H431.623ZM440.743 522.704H442.439V534.128H440.743V522.704ZM447.716 534.176C445.556 534.176 444.036 532.592 444.036 530.352C444.036 528.096 445.556 526.512 447.716 526.512C450.084 526.512 450.836 528.448 450.884 528.576C451.348 529.664 451.204 530.88 451.204 531.008H445.7C445.892 532.032 446.756 532.736 447.716 532.736C448.98 532.736 449.492 532 449.62 531.776L450.98 532.384C450.612 533.248 449.54 534.176 447.716 534.176ZM445.7 529.664H449.604C449.444 528.72 448.9 527.952 447.716 527.952C446.692 527.952 445.892 528.672 445.7 529.664ZM462.708 529.808C462.708 528.72 462.116 528 461.252 528C460.276 528 459.62 528.752 459.62 529.728V534.144H457.908V529.808C457.908 528.72 457.332 528 456.484 528C455.508 528 454.82 528.832 454.82 529.904V534.144H453.124V526.512H454.82V527.552C455.268 526.944 455.924 526.528 456.644 526.528C457.556 526.528 458.452 527.104 458.9 527.904C459.428 527.104 460.452 526.528 461.364 526.528C463.172 526.528 464.42 527.872 464.42 529.744V534.144H462.708V529.808ZM469.966 534.176C467.806 534.176 466.286 532.592 466.286 530.352C466.286 528.096 467.806 526.512 469.966 526.512C472.334 526.512 473.086 528.448 473.134 528.576C473.598 529.664 473.454 530.88 473.454 531.008H467.95C468.142 532.032 469.006 532.736 469.966 532.736C471.23 532.736 471.742 532 471.87 531.776L473.23 532.384C472.862 533.248 471.79 534.176 469.966 534.176ZM467.95 529.664H471.854C471.694 528.72 471.15 527.952 469.966 527.952C468.942 527.952 468.142 528.672 467.95 529.664ZM480.462 529.936C480.462 528.72 479.838 527.984 478.782 527.984C477.742 528 476.942 528.816 476.958 529.936V534.144H475.262V526.512H476.958V527.552C477.438 526.96 478.254 526.528 478.99 526.528C480.43 526.528 482.158 527.472 482.158 529.872V534.144H480.462V529.936ZM484.956 534.144V527.968H483.516V526.496H484.956V523.824H486.652V526.496H488.46V527.968H486.652V534.144H484.956ZM493.277 534.208C491.165 534.208 489.661 532.608 489.661 530.368C489.661 528.128 491.165 526.528 493.277 526.528C494.029 526.528 494.861 526.88 495.469 527.6V526.512H497.165V534.144H495.469V533.12C494.861 533.888 494.029 534.208 493.277 534.208ZM491.357 530.368C491.357 531.808 492.173 532.768 493.389 532.768C494.509 532.768 495.469 531.76 495.485 530.368C495.469 528.976 494.509 527.968 493.389 527.968C492.173 527.968 491.357 528.912 491.357 530.368ZM500.128 534.144V527.968H498.688V526.496H500.128V523.824H501.824V526.496H503.632V527.968H501.824V534.144H500.128ZM505.374 526.496H507.07V534.128H505.374V526.496ZM505.262 523.648C505.262 523.088 505.662 522.688 506.222 522.688C506.782 522.688 507.182 523.088 507.182 523.648C507.182 524.208 506.782 524.608 506.222 524.608C505.662 524.608 505.262 524.208 505.262 523.648ZM512.81 532.752C513.994 532.752 514.794 531.808 514.794 530.352C514.794 528.912 513.994 527.952 512.81 527.952C511.626 527.952 510.826 528.896 510.826 530.352C510.826 531.808 511.61 532.752 512.81 532.752ZM509.13 530.352C509.13 528.096 510.65 526.496 512.81 526.496C514.97 526.496 516.49 528.096 516.49 530.352C516.49 532.592 514.97 534.208 512.81 534.208C510.65 534.208 509.13 532.592 509.13 530.352ZM523.415 529.936C523.415 528.72 522.791 527.984 521.735 527.984C520.695 528 519.895 528.816 519.911 529.936V534.144H518.215V526.512H519.911V527.552C520.391 526.96 521.207 526.528 521.943 526.528C523.383 526.528 525.111 527.472 525.111 529.872V534.144H523.415V529.936ZM328.388 558.752C329.572 558.752 330.372 557.808 330.372 556.352C330.372 554.912 329.572 553.952 328.388 553.952C327.204 553.952 326.404 554.896 326.404 556.352C326.404 557.808 327.188 558.752 328.388 558.752ZM324.708 556.352C324.708 554.096 326.228 552.496 328.388 552.496C330.548 552.496 332.068 554.096 332.068 556.352C332.068 558.592 330.548 560.208 328.388 560.208C326.228 560.208 324.708 558.592 324.708 556.352ZM336.165 560.144H334.469V553.984H333.125V552.48H334.469V550.88C334.469 549.472 335.445 548.4 336.853 548.304C337.509 548.256 338.325 548.512 338.709 548.896L337.845 550.144C337.493 549.84 337.269 549.776 336.997 549.808C336.501 549.856 336.165 550.272 336.165 550.88V552.48H338.309V553.984H336.165V560.144ZM349.384 555.968C349.384 554.704 348.776 553.904 347.864 553.904C346.808 553.904 345.992 554.896 345.992 556.128V560H344.296V548.704H345.992V553.408C346.456 552.816 347.208 552.432 347.864 552.432C349.752 552.432 351.096 553.84 351.096 555.776V560H349.384V555.968ZM354.818 556.864C354.818 558.032 355.506 558.752 356.514 558.752C357.586 558.752 358.322 558.048 358.306 556.88V552.512H360.017V560.144H358.306V559.264C357.826 559.856 357.042 560.208 356.29 560.208C354.45 560.208 353.122 558.88 353.122 556.928V552.512H354.818V556.864ZM371.895 555.808C371.895 554.72 371.303 554 370.439 554C369.463 554 368.807 554.752 368.807 555.728V560.144H367.095V555.808C367.095 554.72 366.519 554 365.671 554C364.695 554 364.007 554.832 364.007 555.904V560.144H362.311V552.512H364.007V553.552C364.455 552.944 365.111 552.528 365.831 552.528C366.743 552.528 367.639 553.104 368.087 553.904C368.615 553.104 369.639 552.528 370.551 552.528C372.359 552.528 373.607 553.872 373.607 555.744V560.144H371.895V555.808ZM379.089 560.208C376.977 560.208 375.473 558.608 375.473 556.368C375.473 554.128 376.977 552.528 379.089 552.528C379.841 552.528 380.673 552.88 381.281 553.6V552.512H382.977V560.144H381.281V559.12C380.673 559.888 379.841 560.208 379.089 560.208ZM377.169 556.368C377.169 557.808 377.985 558.768 379.201 558.768C380.321 558.768 381.281 557.76 381.297 556.368C381.281 554.976 380.321 553.968 379.201 553.968C377.985 553.968 377.169 554.912 377.169 556.368ZM390.259 555.936C390.259 554.72 389.635 553.984 388.579 553.984C387.539 554 386.739 554.816 386.755 555.936V560.144H385.059V552.512H386.755V553.552C387.235 552.96 388.051 552.528 388.787 552.528C390.227 552.528 391.955 553.472 391.955 555.872V560.144H390.259V555.936ZM397.744 560.144V552.512H399.44V553.632C399.952 552.912 400.88 552.432 401.776 552.48V554.048C400.416 553.984 399.44 555.184 399.44 556.352V560.144H397.744ZM403.718 552.496H405.414V560.128H403.718V552.496ZM403.606 549.648C403.606 549.088 404.006 548.688 404.566 548.688C405.126 548.688 405.526 549.088 405.526 549.648C405.526 550.208 405.126 550.608 404.566 550.608C404.006 550.608 403.606 550.208 403.606 549.648ZM411.185 558.736C412.401 558.736 413.281 557.664 413.281 556.336C413.281 555.04 412.401 553.952 411.185 553.952C409.985 553.952 409.169 554.896 409.169 556.336C409.169 557.792 409.985 558.736 411.185 558.736ZM407.473 556.352C407.473 554.112 408.977 552.496 411.089 552.496C411.873 552.496 412.753 552.896 413.281 553.616V552.496H414.977V559.568C414.977 561.744 413.505 563.536 411.169 563.536C409.889 563.536 408.657 563.008 407.905 561.76L409.249 560.864C409.809 561.68 410.353 562.032 411.169 562.032C412.529 562.032 413.281 560.96 413.281 559.712V559.04C412.689 559.792 411.809 560.192 411.089 560.192C408.977 560.192 407.473 558.592 407.473 556.352ZM422.384 555.968C422.384 554.704 421.776 553.904 420.864 553.904C419.808 553.904 418.992 554.896 418.992 556.128V560H417.296V548.704H418.992V553.408C419.456 552.816 420.208 552.432 420.864 552.432C422.752 552.432 424.096 553.84 424.096 555.776V560H422.384V555.968ZM427.034 560.144V553.968H425.594V552.496H427.034V549.824H428.73V552.496H430.538V553.968H428.73V560.144H427.034ZM433.193 557.52C433.529 558.352 434.361 558.736 434.873 558.736C435.673 558.736 436.185 558.432 436.185 557.904C436.185 557.424 435.481 557.2 434.697 556.928C433.657 556.56 432.185 556.064 432.185 554.592C432.185 553.248 433.417 552.432 434.985 552.432C435.929 552.432 437.337 552.976 437.721 554.352L436.297 554.864C436.041 554.016 435.353 553.888 434.985 553.888C434.313 553.888 433.881 554.16 433.881 554.592C433.881 555.072 434.537 555.264 435.353 555.552C436.441 555.936 437.881 556.432 437.881 557.888C437.881 559.28 436.649 560.192 434.873 560.192C433.705 560.192 432.425 559.456 431.865 558.288L433.193 557.52ZM447.556 558.752C448.788 558.752 449.588 557.792 449.588 556.336C449.588 554.88 448.788 553.92 447.556 553.92C446.404 553.92 445.46 554.992 445.46 556.336C445.46 557.68 446.404 558.752 447.556 558.752ZM443.748 563.52V552.496H445.444V553.616C446.052 552.816 447.06 552.496 447.652 552.496C449.78 552.496 451.284 554.08 451.284 556.336C451.284 558.608 449.78 560.192 447.652 560.192C447.044 560.192 446.052 559.856 445.444 559.056V563.52H443.748ZM456.435 558.752C457.619 558.752 458.419 557.808 458.419 556.352C458.419 554.912 457.619 553.952 456.435 553.952C455.251 553.952 454.451 554.896 454.451 556.352C454.451 557.808 455.235 558.752 456.435 558.752ZM452.755 556.352C452.755 554.096 454.275 552.496 456.435 552.496C458.595 552.496 460.115 554.096 460.115 556.352C460.115 558.592 458.595 560.208 456.435 560.208C454.275 560.208 452.755 558.592 452.755 556.352ZM461.712 548.704H463.408V560.128H461.712V548.704ZM465.749 552.496H467.445V560.128H465.749V552.496ZM465.637 549.648C465.637 549.088 466.037 548.688 466.597 548.688C467.157 548.688 467.557 549.088 467.557 549.648C467.557 550.208 467.157 550.608 466.597 550.608C466.037 550.608 465.637 550.208 465.637 549.648ZM472.977 558.576C473.569 558.576 474.257 558.272 474.689 557.792L475.857 558.96C475.201 559.68 474.001 560.192 473.041 560.192C470.769 560.192 469.169 558.592 469.169 556.352C469.169 554.096 470.769 552.496 473.041 552.496C474.049 552.496 475.169 553.008 475.857 553.744L474.689 554.896C474.257 554.416 473.569 554.112 472.977 554.112C471.713 554.112 470.865 554.992 470.865 556.352C470.865 557.696 471.713 558.576 472.977 558.576Z" fill="#15151A"/>
<g filter="url(#filter4_d_4139_2231)">
<circle cx="158" cy="434" r="62" fill="white"/>
</g>
<g clip-path="url(#clip6_4139_2231)">
<path d="M153.72 448.307C153.72 447.553 153.296 446.828 152.57 446.481C151.562 445.997 150.352 446.423 149.869 447.432L145.449 456.655C145.148 457.282 145.191 458.02 145.561 458.609C145.932 459.198 146.579 459.555 147.275 459.555H168.335C169.031 459.555 169.678 459.198 170.049 458.609C170.419 458.02 170.462 457.282 170.161 456.655L165.741 447.432C165.258 446.423 164.048 445.997 163.04 446.481C162.314 446.828 161.89 447.553 161.89 448.307H153.72Z" fill="#6D0CA6"/>
<path d="M137.785 407.977C134.745 407.977 132.25 410.392 132.25 413.46V444.845C132.25 447.913 134.745 450.329 137.785 450.329H177.695C180.735 450.329 183.23 447.913 183.23 444.845V413.46C183.23 410.392 180.735 407.977 177.695 407.977H137.785Z" fill="#CC7DFA"/>
<path fill-rule="evenodd" clip-rule="evenodd" d="M163.353 421.087C159.583 417.534 153.555 417.534 149.785 421.087C149.774 421.097 149.763 421.108 149.752 421.118C145.958 424.858 145.958 430.896 149.752 434.635C153.038 437.873 158.06 438.295 161.799 435.903L165.201 439.354C165.986 440.15 167.268 440.16 168.065 439.374C168.861 438.589 168.87 437.307 168.085 436.511L164.681 433.058C167.115 429.353 166.683 424.368 163.385 421.118C163.374 421.108 163.364 421.097 163.353 421.087ZM152.595 431.751C150.415 429.603 150.41 426.173 152.579 424.019C154.785 421.956 158.353 421.956 160.558 424.019C162.728 426.173 162.722 429.603 160.542 431.751C158.341 433.92 154.797 433.92 152.595 431.751Z" fill="white"/>
</g>
<path d="M108.996 531.664L105.492 525.44V534.128H103.796V522.32H105.636L109.748 529.536L113.844 522.32H115.7V534.128H114.004V525.44L110.484 531.664H108.996ZM121.466 532.752C122.65 532.752 123.45 531.808 123.45 530.352C123.45 528.912 122.65 527.952 121.466 527.952C120.282 527.952 119.482 528.896 119.482 530.352C119.482 531.808 120.266 532.752 121.466 532.752ZM117.786 530.352C117.786 528.096 119.306 526.496 121.466 526.496C123.626 526.496 125.146 528.096 125.146 530.352C125.146 532.592 123.626 534.208 121.466 534.208C119.306 534.208 117.786 532.592 117.786 530.352ZM132.071 529.936C132.071 528.72 131.447 527.984 130.391 527.984C129.351 528 128.551 528.816 128.567 529.936V534.144H126.871V526.512H128.567V527.552C129.047 526.96 129.863 526.528 130.599 526.528C132.039 526.528 133.767 527.472 133.767 529.872V534.144H132.071V529.936ZM135.921 526.496H137.617V534.128H135.921V526.496ZM135.809 523.648C135.809 523.088 136.209 522.688 136.769 522.688C137.329 522.688 137.729 523.088 137.729 523.648C137.729 524.208 137.329 524.608 136.769 524.608C136.209 524.608 135.809 524.208 135.809 523.648ZM140.941 534.144V527.968H139.501V526.496H140.941V523.824H142.637V526.496H144.445V527.968H142.637V534.144H140.941ZM149.325 532.752C150.509 532.752 151.309 531.808 151.309 530.352C151.309 528.912 150.509 527.952 149.325 527.952C148.141 527.952 147.341 528.896 147.341 530.352C147.341 531.808 148.125 532.752 149.325 532.752ZM145.645 530.352C145.645 528.096 147.165 526.496 149.325 526.496C151.485 526.496 153.005 528.096 153.005 530.352C153.005 532.592 151.485 534.208 149.325 534.208C147.165 534.208 145.645 532.592 145.645 530.352ZM154.651 534.144V526.512H156.347V527.632C156.859 526.912 157.786 526.432 158.683 526.48V528.048C157.323 527.984 156.347 529.184 156.347 530.352V534.144H154.651ZM160.624 526.496H162.32V534.128H160.624V526.496ZM160.512 523.648C160.512 523.088 160.912 522.688 161.472 522.688C162.032 522.688 162.432 523.088 162.432 523.648C162.432 524.208 162.032 524.608 161.472 524.608C160.912 524.608 160.512 524.208 160.512 523.648ZM169.884 529.936C169.884 528.72 169.26 527.984 168.204 527.984C167.164 528 166.364 528.816 166.38 529.936V534.144H164.684V526.512H166.38V527.552C166.86 526.96 167.676 526.528 168.412 526.528C169.852 526.528 171.58 527.472 171.58 529.872V534.144H169.884V529.936ZM177.014 532.736C178.23 532.736 179.11 531.664 179.11 530.336C179.11 529.04 178.23 527.952 177.014 527.952C175.814 527.952 174.998 528.896 174.998 530.336C174.998 531.792 175.814 532.736 177.014 532.736ZM173.302 530.352C173.302 528.112 174.806 526.496 176.918 526.496C177.702 526.496 178.582 526.896 179.11 527.616V526.496H180.806V533.568C180.806 535.744 179.334 537.536 176.998 537.536C175.718 537.536 174.486 537.008 173.734 535.76L175.078 534.864C175.638 535.68 176.182 536.032 176.998 536.032C178.358 536.032 179.11 534.96 179.11 533.712V533.04C178.518 533.792 177.638 534.192 176.918 534.192C174.806 534.192 173.302 532.592 173.302 530.352ZM190.152 534.208C188.04 534.208 186.536 532.608 186.536 530.368C186.536 528.128 188.04 526.528 190.152 526.528C190.904 526.528 191.736 526.88 192.344 527.6V526.512H194.04V534.144H192.344V533.12C191.736 533.888 190.904 534.208 190.152 534.208ZM188.232 530.368C188.232 531.808 189.048 532.768 190.264 532.768C191.384 532.768 192.344 531.76 192.36 530.368C192.344 528.976 191.384 527.968 190.264 527.968C189.048 527.968 188.232 528.912 188.232 530.368ZM201.321 529.936C201.321 528.72 200.697 527.984 199.641 527.984C198.601 528 197.801 528.816 197.817 529.936V534.144H196.121V526.512H197.817V527.552C198.297 526.96 199.113 526.528 199.849 526.528C201.289 526.528 203.017 527.472 203.017 529.872V534.144H201.321V529.936ZM208.371 534.208C206.259 534.208 204.739 532.608 204.739 530.352C204.739 528.096 206.259 526.496 208.371 526.496C208.995 526.496 209.939 526.768 210.595 527.632V522.704H212.291V534.144H210.595V533.072C209.923 533.888 208.995 534.208 208.371 534.208ZM206.435 530.368C206.435 531.824 207.251 532.784 208.483 532.784C209.635 532.784 210.595 531.728 210.595 530.368C210.595 529.024 209.635 527.952 208.483 527.952C207.251 527.952 206.435 528.912 206.435 530.368ZM125.719 558.64C128.247 558.64 129.943 556.864 129.943 554.224C129.943 551.584 128.247 549.808 125.719 549.808L124.039 549.824V558.624L125.719 558.64ZM122.343 560.128V548.32H125.735C129.191 548.32 131.623 550.752 131.623 554.224C131.623 557.696 129.191 560.128 125.735 560.128H122.343ZM133.593 552.496H135.289V560.128H133.593V552.496ZM133.481 549.648C133.481 549.088 133.881 548.688 134.441 548.688C135.001 548.688 135.401 549.088 135.401 549.648C135.401 550.208 135.001 550.608 134.441 550.608C133.881 550.608 133.481 550.208 133.481 549.648ZM138.708 557.52C139.044 558.352 139.876 558.736 140.388 558.736C141.188 558.736 141.7 558.432 141.7 557.904C141.7 557.424 140.996 557.2 140.212 556.928C139.172 556.56 137.7 556.064 137.7 554.592C137.7 553.248 138.932 552.432 140.5 552.432C141.444 552.432 142.852 552.976 143.236 554.352L141.812 554.864C141.556 554.016 140.868 553.888 140.5 553.888C139.828 553.888 139.396 554.16 139.396 554.592C139.396 555.072 140.052 555.264 140.868 555.552C141.956 555.936 143.396 556.432 143.396 557.888C143.396 559.28 142.164 560.192 140.388 560.192C139.22 560.192 137.94 559.456 137.38 558.288L138.708 557.52ZM148.492 558.576C149.084 558.576 149.772 558.272 150.204 557.792L151.372 558.96C150.716 559.68 149.516 560.192 148.556 560.192C146.284 560.192 144.684 558.592 144.684 556.352C144.684 554.096 146.284 552.496 148.556 552.496C149.564 552.496 150.684 553.008 151.372 553.744L150.204 554.896C149.772 554.416 149.084 554.112 148.492 554.112C147.228 554.112 146.38 554.992 146.38 556.352C146.38 557.696 147.228 558.576 148.492 558.576ZM152.712 548.704H154.408V560.128H152.712V548.704ZM159.685 558.752C160.869 558.752 161.669 557.808 161.669 556.352C161.669 554.912 160.869 553.952 159.685 553.952C158.501 553.952 157.701 554.896 157.701 556.352C157.701 557.808 158.485 558.752 159.685 558.752ZM156.005 556.352C156.005 554.096 157.525 552.496 159.685 552.496C161.845 552.496 163.365 554.096 163.365 556.352C163.365 558.592 161.845 560.208 159.685 560.208C157.525 560.208 156.005 558.592 156.005 556.352ZM166.146 557.52C166.482 558.352 167.314 558.736 167.826 558.736C168.626 558.736 169.138 558.432 169.138 557.904C169.138 557.424 168.434 557.2 167.65 556.928C166.61 556.56 165.138 556.064 165.138 554.592C165.138 553.248 166.37 552.432 167.938 552.432C168.882 552.432 170.29 552.976 170.674 554.352L169.25 554.864C168.994 554.016 168.306 553.888 167.938 553.888C167.266 553.888 166.834 554.16 166.834 554.592C166.834 555.072 167.49 555.264 168.306 555.552C169.394 555.936 170.834 556.432 170.834 557.888C170.834 559.28 169.602 560.192 167.826 560.192C166.658 560.192 165.378 559.456 164.818 558.288L166.146 557.52ZM174.63 556.864C174.63 558.032 175.318 558.752 176.326 558.752C177.398 558.752 178.134 558.048 178.118 556.88V552.512H179.83V560.144H178.118V559.264C177.638 559.856 176.854 560.208 176.102 560.208C174.262 560.208 172.934 558.88 172.934 556.928V552.512H174.63V556.864ZM181.932 560.144V552.512H183.628V553.632C184.14 552.912 185.068 552.432 185.964 552.48V554.048C184.604 553.984 183.628 555.184 183.628 556.352V560.144H181.932ZM190.513 560.176C188.353 560.176 186.833 558.592 186.833 556.352C186.833 554.096 188.353 552.512 190.513 552.512C192.881 552.512 193.633 554.448 193.681 554.576C194.145 555.664 194.001 556.88 194.001 557.008H188.497C188.689 558.032 189.553 558.736 190.513 558.736C191.777 558.736 192.289 558 192.417 557.776L193.777 558.384C193.409 559.248 192.337 560.176 190.513 560.176ZM188.497 555.664H192.401C192.241 554.72 191.697 553.952 190.513 553.952C189.489 553.952 188.689 554.672 188.497 555.664Z" fill="#15151A"/>
<defs>
<filter id="filter0_d_4139_2231" x="189" y="0" width="180" height="180" filterUnits="userSpaceOnUse" color-interpolation-filters="sRGB">
<feFlood flood-opacity="0" result="BackgroundImageFix"/>
<feColorMatrix in="SourceAlpha" type="matrix" values="0 0 0 0 0 0 0 0 0 0 0 0 0 0 0 0 0 0 127 0" result="hardAlpha"/>
<feOffset dy="8"/>
<feGaussianBlur stdDeviation="14"/>
<feComposite in2="hardAlpha" operator="out"/>
<feColorMatrix type="matrix" values="0 0 0 0 0 0 0 0 0 0 0 0 0 0 0 0 0 0 0.05 0"/>
<feBlend mode="normal" in2="BackgroundImageFix" result="effect1_dropShadow_4139_2231"/>
<feBlend mode="normal" in="SourceGraphic" in2="effect1_dropShadow_4139_2231" result="shape"/>
</filter>
<filter id="filter1_d_4139_2231" x="382" y="142" width="180" height="180" filterUnits="userSpaceOnUse" color-interpolation-filters="sRGB">
<feFlood flood-opacity="0" result="BackgroundImageFix"/>
<feColorMatrix in="SourceAlpha" type="matrix" values="0 0 0 0 0 0 0 0 0 0 0 0 0 0 0 0 0 0 127 0" result="hardAlpha"/>
<feOffset dy="8"/>
<feGaussianBlur stdDeviation="14"/>
<feComposite in2="hardAlpha" operator="out"/>
<feColorMatrix type="matrix" values="0 0 0 0 0 0 0 0 0 0 0 0 0 0 0 0 0 0 0.05 0"/>
<feBlend mode="normal" in2="BackgroundImageFix" result="effect1_dropShadow_4139_2231"/>
<feBlend mode="normal" in="SourceGraphic" in2="effect1_dropShadow_4139_2231" result="shape"/>
</filter>
<filter id="filter2_d_4139_2231" x="0" y="142" width="180" height="180" filterUnits="userSpaceOnUse" color-interpolation-filters="sRGB">
<feFlood flood-opacity="0" result="BackgroundImageFix"/>
<feColorMatrix in="SourceAlpha" type="matrix" values="0 0 0 0 0 0 0 0 0 0 0 0 0 0 0 0 0 0 127 0" result="hardAlpha"/>
<feOffset dy="8"/>
<feGaussianBlur stdDeviation="14"/>
<feComposite in2="hardAlpha" operator="out"/>
<feColorMatrix type="matrix" values="0 0 0 0 0 0 0 0 0 0 0 0 0 0 0 0 0 0 0.05 0"/>
<feBlend mode="normal" in2="BackgroundImageFix" result="effect1_dropShadow_4139_2231"/>
<feBlend mode="normal" in="SourceGraphic" in2="effect1_dropShadow_4139_2231" result="shape"/>
</filter>
<filter id="filter3_d_4139_2231" x="310" y="352" width="180" height="180" filterUnits="userSpaceOnUse" color-interpolation-filters="sRGB">
<feFlood flood-opacity="0" result="BackgroundImageFix"/>
<feColorMatrix in="SourceAlpha" type="matrix" values="0 0 0 0 0 0 0 0 0 0 0 0 0 0 0 0 0 0 127 0" result="hardAlpha"/>
<feOffset dy="8"/>
<feGaussianBlur stdDeviation="14"/>
<feComposite in2="hardAlpha" operator="out"/>
<feColorMatrix type="matrix" values="0 0 0 0 0 0 0 0 0 0 0 0 0 0 0 0 0 0 0.05 0"/>
<feBlend mode="normal" in2="BackgroundImageFix" result="effect1_dropShadow_4139_2231"/>
<feBlend mode="normal" in="SourceGraphic" in2="effect1_dropShadow_4139_2231" result="shape"/>
</filter>
<filter id="filter4_d_4139_2231" x="68" y="352" width="180" height="180" filterUnits="userSpaceOnUse" color-interpolation-filters="sRGB">
<feFlood flood-opacity="0" result="BackgroundImageFix"/>
<feColorMatrix in="SourceAlpha" type="matrix" values="0 0 0 0 0 0 0 0 0 0 0 0 0 0 0 0 0 0 127 0" result="hardAlpha"/>
<feOffset dy="8"/>
<feGaussianBlur stdDeviation="14"/>
<feComposite in2="hardAlpha" operator="out"/>
<feColorMatrix type="matrix" values="0 0 0 0 0 0 0 0 0 0 0 0 0 0 0 0 0 0 0.05 0"/>
<feBlend mode="normal" in2="BackgroundImageFix" result="effect1_dropShadow_4139_2231"/>
<feBlend mode="normal" in="SourceGraphic" in2="effect1_dropShadow_4139_2231" result="shape"/>
</filter>
<clipPath id="clip0_4139_2231">
<rect width="72" height="72" fill="white" transform="translate(243 46)"/>
</clipPath>
<clipPath id="clip1_4139_2231">
<rect width="72" height="72" fill="white" transform="translate(436 188)"/>
</clipPath>
<clipPath id="clip2_4139_2231">
<rect width="72" height="72" fill="white" transform="translate(54 188)"/>
</clipPath>
<clipPath id="clip3_4139_2231">
<rect width="57.375" height="48.06" fill="white" transform="translate(61.6875 199.672)"/>
</clipPath>
<clipPath id="clip4_4139_2231">
<rect width="72" height="72" fill="white" transform="translate(364 398)"/>
</clipPath>
<clipPath id="clip5_4139_2231">
<rect width="45.765" height="56.16" fill="white" transform="translate(377.039 405.617)"/>
</clipPath>
<clipPath id="clip6_4139_2231">
<rect width="72" height="72" fill="white" transform="translate(122 398)"/>
</clipPath>
</defs>
</svg>
