<svg width="562" height="573" viewBox="0 0 562 573" fill="none" xmlns="http://www.w3.org/2000/svg">
<ellipse cx="280.5" cy="276" rx="180.5" ry="181" stroke="#E4E4E7" stroke-width="2" stroke-linecap="round" stroke-dasharray="1 10"/>
<g filter="url(#filter0_d_3915_6009)">
<circle cx="279" cy="82" r="62" fill="white"/>
</g>
<g clip-path="url(#clip0_3915_6009)">
<path d="M257.119 57.2734C256 57.2734 255.094 58.1801 255.094 59.2984V99.5689C255.094 103.248 257.886 106.537 261.729 106.722C262.846 106.775 263.795 105.913 263.849 104.796C263.86 104.561 263.831 104.334 263.767 104.121L291.818 95.7848C292.066 96.6224 292.841 97.2334 293.76 97.2334C294.878 97.2334 295.785 96.3268 295.785 95.2084V59.2984C295.785 58.1801 294.878 57.2734 293.76 57.2734H257.119Z" fill="#CC7DFA"/>
<path d="M261.445 104.703H262.209C262.081 104.703 261.954 104.703 261.827 104.703C261.7 104.703 261.573 104.703 261.445 104.703Z" stroke="#CC7DFA" stroke-width="4.05" stroke-linecap="round" stroke-linejoin="round"/>
<path d="M267.804 93.0547C266.685 93.0547 265.779 93.9613 265.779 95.0797V98.2859C265.779 100.685 263.943 102.588 261.621 102.675C260.518 102.716 259.652 103.633 259.672 104.736C259.693 105.84 260.595 106.723 261.698 106.723H293.758C298.454 106.723 302.271 102.852 302.271 98.1577V95.0797C302.271 93.9613 301.364 93.0547 300.246 93.0547H267.804Z" fill="#6D0CA6"/>
<path d="M266.791 68.9453C265.672 68.9453 264.766 69.8519 264.766 70.9703C264.766 72.0887 265.672 72.9953 266.791 72.9953H271.88C272.998 72.9953 273.905 72.0887 273.905 70.9703C273.905 69.8519 272.998 68.9453 271.88 68.9453H266.791Z" fill="white"/>
<path d="M266.791 77.2817C265.672 77.2817 264.766 78.1884 264.766 79.3067C264.766 80.4251 265.672 81.3317 266.791 81.3317H282.694C283.812 81.3317 284.719 80.4251 284.719 79.3067C284.719 78.1884 283.812 77.2817 282.694 77.2817H266.791Z" fill="white"/>
</g>
<path d="M243.665 169.438H245.645V181.012H243.665V169.438ZM232.685 174.514C232.685 172.156 234.557 170.482 236.969 170.482C239.399 170.482 241.253 172.156 241.253 174.514C241.253 176.836 239.399 178.528 236.969 178.528C234.557 178.528 232.685 176.836 232.685 174.514ZM234.611 174.514C234.611 175.9 235.637 176.8 236.969 176.8C238.301 176.8 239.327 175.9 239.327 174.514C239.327 173.092 238.301 172.192 236.969 172.192C235.637 172.192 234.611 173.092 234.611 174.514ZM235.133 185.134V179.86H237.095V183.55H246.077V185.134H235.133ZM259.577 169.42H261.575V181.498H259.577V179.572H256.337V178.042H259.577V169.42ZM248.021 175.576C249.965 175.576 252.359 175.558 254.735 175.414C254.969 173.92 255.041 172.732 255.059 171.868H249.479V170.284H257.039V170.878C257.039 171.724 257.039 173.236 256.715 175.252C257.273 175.198 257.813 175.126 258.353 175.054L258.479 176.458C257.129 176.692 255.707 176.854 254.321 176.962V180.49H252.341V177.088C250.883 177.142 249.497 177.178 248.273 177.178L248.021 175.576ZM250.271 185.134V180.256H252.251V183.55H261.935V185.134H250.271ZM272.484 173.416H275.202V169.438H277.182V178.942H275.202V175.018H272.484V173.416ZM263.844 177.34C266.364 176.458 267.714 174.316 267.714 172.156V172.066H264.384V170.482H272.988V172.066H269.712V172.156C269.712 174.118 270.972 176.08 273.438 176.926L272.448 178.474C270.684 177.862 269.442 176.656 268.758 175.144C268.056 176.854 266.742 178.24 264.834 178.906L263.844 177.34ZM266.382 182.416C266.382 180.508 268.452 179.356 271.818 179.356C275.166 179.356 277.236 180.508 277.236 182.416C277.236 184.342 275.166 185.458 271.818 185.458C268.452 185.458 266.382 184.342 266.382 182.416ZM268.362 182.416C268.362 183.406 269.604 183.946 271.818 183.946C274.014 183.946 275.274 183.406 275.274 182.416C275.274 181.408 274.014 180.868 271.818 180.868C269.604 180.868 268.362 181.408 268.362 182.416ZM280.026 171.346H282.636V169.582H284.508V171.346H287.1V172.912H284.508V173.002C284.508 174.73 285.534 176.386 287.532 177.088L286.632 178.564C285.174 178.042 284.184 177.052 283.608 175.81C283.05 177.16 282.042 178.258 280.548 178.834L279.63 177.376C281.664 176.584 282.636 174.838 282.636 173.002V172.912H280.026V171.346ZM282.258 181.588V180.004H293.184V185.458H291.222V181.588H282.258ZM287.928 179.176V169.708H289.8V173.542H291.294V169.438H293.184V179.266H291.294V175.126H289.8V179.176H287.928ZM303.534 172.966H306.666V169.438H308.646V181.318H306.666V174.586H303.534V172.966ZM295.272 177.682C297.81 176.8 299.124 174.568 299.124 172.228V170.392H301.122V172.246C301.122 174.388 302.382 176.458 304.812 177.34L303.768 178.852C302.058 178.204 300.834 176.962 300.168 175.396C299.484 177.142 298.17 178.546 296.316 179.248L295.272 177.682ZM298.152 185.134V180.076H300.132V183.55H309.006V185.134H298.152ZM322.399 169.438H324.379V181.174H322.399V175.324H319.573C319.195 177.214 317.521 178.51 315.469 178.51C313.093 178.51 311.275 176.818 311.275 174.46C311.275 172.102 313.093 170.428 315.469 170.428C317.575 170.428 319.267 171.76 319.609 173.74H322.399V169.438ZM313.165 174.46C313.165 175.882 314.155 176.782 315.469 176.782C316.765 176.782 317.773 175.882 317.773 174.46C317.773 173.056 316.765 172.156 315.469 172.156C314.155 172.156 313.165 173.056 313.165 174.46ZM313.921 185.134V180.004H315.919V183.55H324.775V185.134H313.921ZM246.901 199.41H254.533V206.106H246.901V199.41ZM247.837 212.91C250.915 212.622 252.823 211.272 253.003 209.994H248.467V208.5H253.039V207.114H255.055V208.5H259.591V209.994H255.073C255.253 211.236 257.161 212.604 260.185 212.91L259.555 214.404C256.963 214.134 255.001 213.108 254.029 211.794C253.057 213.126 251.095 214.134 248.485 214.404L247.837 212.91ZM248.827 204.54H252.625V200.976H248.827V204.54ZM257.323 207.564V198.438H259.321V207.564H257.323ZM277.708 198.42H279.598V214.44H277.708V206.34H275.962V213.648H274.126V198.744H275.962V204.738H277.708V198.42ZM266.638 210.462V200.274H268.6V208.734C269.95 208.716 271.48 208.59 273.136 208.266L273.334 209.976C271.21 210.372 269.374 210.462 267.718 210.462H266.638ZM293.566 198.42H295.456V214.44H293.566V206.304H291.964V213.684H290.11V198.726H291.964V204.702H293.566V198.42ZM281.416 209.796C283.756 208.428 284.692 205.656 284.692 202.506V201.768H281.884V200.148H289.21V201.768H286.6V202.506C286.6 205.368 287.572 207.996 289.894 209.22L288.76 210.732C287.266 209.922 286.276 208.536 285.7 206.808C285.16 208.788 284.17 210.372 282.622 211.308L281.416 209.796ZM308.021 198.438H310.001V205.044H312.197V206.7H310.001V214.458H308.021V198.438ZM297.239 210.012C298.445 210.012 299.831 210.012 301.289 209.976V208.464C299.561 208.176 298.427 207.096 298.427 205.566C298.427 203.766 300.011 202.578 302.279 202.578C304.547 202.578 306.149 203.766 306.149 205.566C306.149 207.096 304.997 208.176 303.269 208.464V209.886C304.583 209.832 305.897 209.706 307.139 209.544L307.301 210.966C303.899 211.632 300.227 211.632 297.509 211.632L297.239 210.012ZM297.527 201.822V200.256H301.289V198.492H303.269V200.256H307.013V201.822H297.527ZM300.299 205.566C300.299 206.502 301.091 207.06 302.279 207.06C303.485 207.06 304.277 206.502 304.277 205.566C304.277 204.63 303.485 204.072 302.279 204.072C301.091 204.072 300.299 204.63 300.299 205.566Z" fill="#15151A"/>
<g filter="url(#filter1_d_3915_6009)">
<circle cx="472" cy="224" r="62" fill="white"/>
</g>
<g clip-path="url(#clip1_3915_6009)">
<path d="M472.75 197.75C466.063 197.75 460.75 203.169 460.75 209.75C460.75 216.331 466.063 221.75 472.75 221.75C479.437 221.75 484.75 216.331 484.75 209.75C484.75 203.169 479.437 197.75 472.75 197.75Z" fill="#6D0CA6"/>
<path d="M472.75 224.75C466.652 224.75 461.133 226.844 457.113 229.752C453.213 232.572 450.25 236.534 450.25 240.5C450.25 244.959 453.855 247.347 457.757 248.571C461.759 249.827 467.103 250.25 472.75 250.25C478.397 250.25 483.741 249.827 487.743 248.571C491.645 247.347 495.25 244.959 495.25 240.5C495.25 236.534 492.287 232.572 488.387 229.752C484.367 226.844 478.848 224.75 472.75 224.75Z" fill="#CC7DFA"/>
</g>
<path d="M436.665 311.438H438.645V323.012H436.665V311.438ZM425.685 316.514C425.685 314.156 427.557 312.482 429.969 312.482C432.399 312.482 434.253 314.156 434.253 316.514C434.253 318.836 432.399 320.528 429.969 320.528C427.557 320.528 425.685 318.836 425.685 316.514ZM427.611 316.514C427.611 317.9 428.637 318.8 429.969 318.8C431.301 318.8 432.327 317.9 432.327 316.514C432.327 315.092 431.301 314.192 429.969 314.192C428.637 314.192 427.611 315.092 427.611 316.514ZM428.133 327.134V321.86H430.095V325.55H439.077V327.134H428.133ZM452.577 311.42H454.575V323.498H452.577V321.572H449.337V320.042H452.577V311.42ZM441.021 317.576C442.965 317.576 445.359 317.558 447.735 317.414C447.969 315.92 448.041 314.732 448.059 313.868H442.479V312.284H450.039V312.878C450.039 313.724 450.039 315.236 449.715 317.252C450.273 317.198 450.813 317.126 451.353 317.054L451.479 318.458C450.129 318.692 448.707 318.854 447.321 318.962V322.49H445.341V319.088C443.883 319.142 442.497 319.178 441.273 319.178L441.021 317.576ZM443.271 327.134V322.256H445.251V325.55H454.935V327.134H443.271ZM461.272 312.32C462.568 312.32 463.684 312.806 464.44 313.616H468.202V311.438H470.182V320.852H468.202V318.818H464.422C463.666 319.61 462.55 320.078 461.272 320.078C458.878 320.078 457.078 318.458 457.078 316.208C457.078 313.94 458.878 312.32 461.272 312.32ZM458.95 316.208C458.95 317.54 459.94 318.404 461.272 318.404C462.604 318.404 463.558 317.54 463.558 316.208C463.558 314.84 462.604 313.994 461.272 313.994C459.94 313.994 458.95 314.84 458.95 316.208ZM459.382 324.326C459.382 322.346 461.47 321.194 464.818 321.194C468.148 321.194 470.236 322.346 470.236 324.326C470.236 326.288 468.148 327.44 464.818 327.44C461.47 327.44 459.382 326.288 459.382 324.326ZM461.326 324.326C461.326 325.352 462.586 325.91 464.818 325.91C467.05 325.91 468.292 325.352 468.292 324.326C468.292 323.282 467.05 322.724 464.818 322.724C462.586 322.724 461.326 323.282 461.326 324.326ZM465.322 317.216H468.202V315.2H465.322C465.412 315.524 465.448 315.848 465.448 316.208C465.448 316.568 465.412 316.892 465.322 317.216ZM483.16 311.438H485.14V313.904H487.3V315.524H485.14V317.36H487.3V318.962H485.14V321.644H483.16V311.438ZM472.63 314.624V313.058H476.356V311.312H478.336V313.058H482.062V314.624H472.63ZM473.458 318.098C473.458 316.388 475.042 315.254 477.346 315.254C479.65 315.254 481.252 316.388 481.252 318.098C481.252 319.826 479.65 320.96 477.346 320.96C475.042 320.96 473.458 319.826 473.458 318.098ZM474.682 324.614C474.682 322.85 476.734 321.806 480.01 321.806C483.286 321.806 485.32 322.85 485.32 324.614C485.32 326.396 483.286 327.44 480.01 327.44C476.734 327.44 474.682 326.396 474.682 324.614ZM475.348 318.098C475.348 318.98 476.158 319.502 477.346 319.502C478.534 319.502 479.344 318.98 479.344 318.098C479.344 317.216 478.534 316.712 477.346 316.712C476.158 316.712 475.348 317.216 475.348 318.098ZM476.662 324.614C476.662 325.496 477.868 325.946 480.01 325.946C482.17 325.946 483.376 325.496 483.376 324.614C483.376 323.75 482.17 323.3 480.01 323.3C477.868 323.3 476.662 323.75 476.662 324.614ZM497.506 314.12H499.648V311.438H501.628V321.266H499.648V318.656H497.524L497.632 319.988C494.608 320.492 491.098 320.528 488.542 320.528L488.344 318.908H490.126V314.138H488.758V312.536H497.2V314.138H495.796V318.692C496.39 318.656 496.966 318.602 497.506 318.53V317.054H499.648V315.686H497.506V314.12ZM490.846 324.488C490.846 322.616 492.898 321.536 496.282 321.536C499.648 321.536 501.7 322.616 501.7 324.488C501.7 326.36 499.648 327.44 496.282 327.44C492.898 327.44 490.846 326.36 490.846 324.488ZM492.052 318.872C492.664 318.854 493.294 318.836 493.906 318.8V314.138H492.052V318.872ZM492.808 324.488C492.808 325.424 494.032 325.946 496.282 325.946C498.496 325.946 499.738 325.424 499.738 324.488C499.738 323.552 498.496 323.048 496.282 323.048C494.032 323.048 492.808 323.552 492.808 324.488ZM514.535 311.402H516.533V317.684H518.891V319.322H516.533V327.44H514.535V311.402ZM504.005 323.066C507.875 321.086 509.945 318.35 510.323 314.696H504.851V313.094H512.321C512.321 317.81 510.395 321.914 505.121 324.56L504.005 323.066Z" fill="#15151A"/>
<g filter="url(#filter2_d_3915_6009)">
<circle cx="90" cy="224" r="62" fill="white"/>
</g>
<g clip-path="url(#clip2_3915_6009)">
<g clip-path="url(#clip3_3915_6009)">
<path d="M87.6769 217.357C87.3794 217.529 87.034 217.627 86.6656 217.627C85.5472 217.627 84.6406 216.72 84.6406 215.602V208.447C84.6406 205.438 87.0322 203.047 90.0406 203.047H112.856C115.864 203.047 118.256 205.438 118.256 208.447V223.702C118.256 226.71 115.864 229.102 112.856 229.102H106.003L102.966 232.926C102.582 233.41 101.998 233.692 101.381 233.692C100.763 233.692 100.179 233.41 99.7948 232.926L96.7579 229.102H93.2806C92.1622 229.102 91.2556 228.195 91.2556 227.077C91.2556 226.327 91.6632 225.672 92.2689 225.322L87.6769 217.357Z" fill="#6D0CA6"/>
<path d="M67.0875 214.93C64.0791 214.93 61.6875 217.321 61.6875 220.33V234.235C61.6875 237.243 64.0791 239.635 67.0875 239.635H73.8047L76.8417 243.459C77.2258 243.943 77.8098 244.225 78.4275 244.225C79.0452 244.225 79.6292 243.943 80.0133 243.459L83.0503 239.635H89.9025C92.9109 239.635 95.3025 237.243 95.3025 234.235V220.33C95.3025 217.321 92.9109 214.93 89.9025 214.93H67.0875Z" fill="#CC7DFA"/>
</g>
</g>
<path d="M27.1021 312.878H38.5681V314.426C38.5681 316.424 38.5681 318.656 37.9741 322.004L35.9761 321.788C36.5881 318.674 36.5881 316.388 36.5881 314.48H27.1021V312.878ZM25.6081 325.388V323.768H30.9361V318.188H32.8981V323.768H40.0981V325.388H25.6081ZM41.3405 319.214H55.8125V320.78H49.5485V322.094C52.4105 322.256 54.0845 323.192 54.0845 324.758C54.0845 326.486 52.0325 327.44 48.5585 327.44C45.0665 327.44 43.0145 326.486 43.0145 324.758C43.0145 323.192 44.6885 322.256 47.5685 322.094V320.78H41.3405V319.214ZM42.0245 317.054C45.2825 316.838 47.1545 315.758 47.4425 314.462H42.7625V312.914H47.5685V311.438H49.5665V312.914H54.3905V314.462H49.6925C49.9805 315.758 51.8345 316.838 55.0925 317.054L54.5165 318.566C51.6545 318.332 49.5665 317.45 48.5585 316.082C47.5685 317.45 45.4625 318.332 42.6185 318.566L42.0245 317.054ZM45.0125 324.758C45.0125 325.568 46.2365 325.982 48.5585 325.982C50.8625 325.982 52.0865 325.568 52.0865 324.758C52.0865 323.912 50.8625 323.516 48.5585 323.516C46.2365 323.516 45.0125 323.912 45.0125 324.758ZM57.5769 313.148H63.8049V317.324H65.6589V311.726H67.5129V326.684H65.6589V318.926H63.8049V323.336H57.5769V313.148ZM59.4129 321.788H61.9689V314.696H59.4129V321.788ZM68.8809 327.44V311.42H70.7529V327.44H68.8809ZM80.9054 313.022C80.9054 317.846 79.4834 322.004 73.7954 324.956L72.6974 323.444C75.3434 322.076 76.9814 320.474 77.9174 318.584L73.0394 319.016L72.7874 317.342L78.5294 317C78.7454 316.244 78.8894 315.434 78.9434 314.588H73.6154V313.022H80.9054ZM80.8694 319.304V317.684H84.1094V311.438H86.0894V327.458H84.1094V319.304H80.8694ZM99.8418 311.42H101.804V327.44H99.8418V311.42ZM89.4378 323.426V312.968H91.3998V321.734C93.6138 321.698 95.9718 321.536 98.4378 321.032L98.6718 322.688C95.8998 323.246 93.2898 323.426 90.8238 323.426H89.4378ZM105.584 312.086H117.446V313.67H112.892C113.162 315.02 115.034 316.226 118.058 316.514L117.356 318.08C114.476 317.774 112.352 316.622 111.506 315.002C110.66 316.622 108.536 317.774 105.638 318.08L104.954 316.514C107.96 316.226 109.85 315.002 110.12 313.67H105.584V312.086ZM104.27 320.366V318.8H118.742V320.366H104.27ZM105.98 327.278V321.752H116.996V327.278H105.98ZM107.924 325.694H115.052V323.318H107.924V325.694ZM124.151 319.358H138.659V320.924H132.521V323.876H130.505V320.924H124.151V319.358ZM125.681 315.056C125.681 313.04 127.967 311.762 131.387 311.762C134.825 311.762 137.093 313.04 137.093 315.056C137.093 317.072 134.825 318.332 131.387 318.332C127.967 318.332 125.681 317.072 125.681 315.056ZM125.897 327.134V322.382H127.895V325.532H137.057V327.134H125.897ZM127.805 315.056C127.805 316.136 129.209 316.748 131.387 316.748C133.565 316.748 134.969 316.136 134.969 315.056C134.969 313.958 133.565 313.346 131.387 313.346C129.209 313.346 127.805 313.958 127.805 315.056ZM144.275 312.32C145.571 312.32 146.687 312.806 147.443 313.616H151.205V311.438H153.185V320.852H151.205V318.818H147.425C146.669 319.61 145.553 320.078 144.275 320.078C141.881 320.078 140.081 318.458 140.081 316.208C140.081 313.94 141.881 312.32 144.275 312.32ZM141.953 316.208C141.953 317.54 142.943 318.404 144.275 318.404C145.607 318.404 146.561 317.54 146.561 316.208C146.561 314.84 145.607 313.994 144.275 313.994C142.943 313.994 141.953 314.84 141.953 316.208ZM142.385 324.326C142.385 322.346 144.473 321.194 147.821 321.194C151.151 321.194 153.239 322.346 153.239 324.326C153.239 326.288 151.151 327.44 147.821 327.44C144.473 327.44 142.385 326.288 142.385 324.326ZM144.329 324.326C144.329 325.352 145.589 325.91 147.821 325.91C150.053 325.91 151.295 325.352 151.295 324.326C151.295 323.282 150.053 322.724 147.821 322.724C145.589 322.724 144.329 323.282 144.329 324.326ZM148.325 317.216H151.205V315.2H148.325C148.415 315.524 148.451 315.848 148.451 316.208C148.451 316.568 148.415 316.892 148.325 317.216Z" fill="#15151A"/>
<g filter="url(#filter3_d_3915_6009)">
<circle cx="400" cy="434" r="62" fill="white"/>
</g>
<g clip-path="url(#clip4_3915_6009)">
<g clip-path="url(#clip5_3915_6009)">
<path fill-rule="evenodd" clip-rule="evenodd" d="M409.492 408.913C410.282 408.123 411.565 408.123 412.355 408.913L421.535 418.093C422.326 418.884 422.326 420.166 421.535 420.957C420.745 421.748 419.462 421.748 418.672 420.957L409.492 411.777C408.701 410.986 408.701 409.704 409.492 408.913Z" fill="#CC7DFA"/>
<path d="M406.958 414.179C406.577 413.798 406.06 413.584 405.521 413.586C404.982 413.587 404.466 413.804 404.087 414.187L392.08 426.329L379.938 438.336C379.621 438.649 379.416 439.059 379.355 439.5L377.87 450.3C377.784 450.932 378 451.568 378.453 452.017C378.907 452.465 379.546 452.673 380.177 452.579L390.977 450.959C391.405 450.894 391.802 450.694 392.108 450.388L404.115 438.381L404.123 438.373L416.265 426.366C416.649 425.987 416.865 425.471 416.867 424.932C416.868 424.393 416.655 423.875 416.273 423.494L406.958 414.179Z" fill="#CC7DFA"/>
<path fill-rule="evenodd" clip-rule="evenodd" d="M377.984 459.619C377.984 458.5 378.891 457.594 380.009 457.594H416.594C417.713 457.594 418.619 458.5 418.619 459.619C418.619 460.737 417.713 461.644 416.594 461.644H380.009C378.891 461.644 377.984 460.737 377.984 459.619Z" fill="#6D0CA6"/>
</g>
</g>
<path d="M364.665 521.438H366.645V533.012H364.665V521.438ZM353.685 526.514C353.685 524.156 355.557 522.482 357.969 522.482C360.399 522.482 362.253 524.156 362.253 526.514C362.253 528.836 360.399 530.528 357.969 530.528C355.557 530.528 353.685 528.836 353.685 526.514ZM355.611 526.514C355.611 527.9 356.637 528.8 357.969 528.8C359.301 528.8 360.327 527.9 360.327 526.514C360.327 525.092 359.301 524.192 357.969 524.192C356.637 524.192 355.611 525.092 355.611 526.514ZM356.133 537.134V531.86H358.095V535.55H367.077V537.134H356.133ZM380.577 521.42H382.575V533.498H380.577V531.572H377.337V530.042H380.577V521.42ZM369.021 527.576C370.965 527.576 373.359 527.558 375.735 527.414C375.969 525.92 376.041 524.732 376.059 523.868H370.479V522.284H378.039V522.878C378.039 523.724 378.039 525.236 377.715 527.252C378.273 527.198 378.813 527.126 379.353 527.054L379.479 528.458C378.129 528.692 376.707 528.854 375.321 528.962V532.49H373.341V529.088C371.883 529.142 370.497 529.178 369.273 529.178L369.021 527.576ZM371.271 537.134V532.256H373.251V535.55H382.935V537.134H371.271ZM393.484 525.416H396.202V521.438H398.182V530.942H396.202V527.018H393.484V525.416ZM384.844 529.34C387.364 528.458 388.714 526.316 388.714 524.156V524.066H385.384V522.482H393.988V524.066H390.712V524.156C390.712 526.118 391.972 528.08 394.438 528.926L393.448 530.474C391.684 529.862 390.442 528.656 389.758 527.144C389.056 528.854 387.742 530.24 385.834 530.906L384.844 529.34ZM387.382 534.416C387.382 532.508 389.452 531.356 392.818 531.356C396.166 531.356 398.236 532.508 398.236 534.416C398.236 536.342 396.166 537.458 392.818 537.458C389.452 537.458 387.382 536.342 387.382 534.416ZM389.362 534.416C389.362 535.406 390.604 535.946 392.818 535.946C395.014 535.946 396.274 535.406 396.274 534.416C396.274 533.408 395.014 532.868 392.818 532.868C390.604 532.868 389.362 533.408 389.362 534.416ZM401.026 523.346H403.636V521.582H405.508V523.346H408.1V524.912H405.508V525.002C405.508 526.73 406.534 528.386 408.532 529.088L407.632 530.564C406.174 530.042 405.184 529.052 404.608 527.81C404.05 529.16 403.042 530.258 401.548 530.834L400.63 529.376C402.664 528.584 403.636 526.838 403.636 525.002V524.912H401.026V523.346ZM403.258 533.588V532.004H414.184V537.458H412.222V533.588H403.258ZM408.928 531.176V521.708H410.8V525.542H412.294V521.438H414.184V531.266H412.294V527.126H410.8V531.176H408.928ZM424.534 524.966H427.666V521.438H429.646V533.318H427.666V526.586H424.534V524.966ZM416.272 529.682C418.81 528.8 420.124 526.568 420.124 524.228V522.392H422.122V524.246C422.122 526.388 423.382 528.458 425.812 529.34L424.768 530.852C423.058 530.204 421.834 528.962 421.168 527.396C420.484 529.142 419.17 530.546 417.316 531.248L416.272 529.682ZM419.152 537.134V532.076H421.132V535.55H430.006V537.134H419.152ZM443.399 521.438H445.379V533.174H443.399V527.324H440.573C440.195 529.214 438.521 530.51 436.469 530.51C434.093 530.51 432.275 528.818 432.275 526.46C432.275 524.102 434.093 522.428 436.469 522.428C438.575 522.428 440.267 523.76 440.609 525.74H443.399V521.438ZM434.165 526.46C434.165 527.882 435.155 528.782 436.469 528.782C437.765 528.782 438.773 527.882 438.773 526.46C438.773 525.056 437.765 524.156 436.469 524.156C435.155 524.156 434.165 525.056 434.165 526.46ZM434.921 537.134V532.004H436.919V535.55H445.775V537.134H434.921ZM363.343 550.942H365.431V551.752C365.431 553.75 367.663 555.82 371.029 556.288L370.255 557.854C367.555 557.44 365.431 556.108 364.387 554.308C363.361 556.126 361.237 557.44 358.519 557.854L357.745 556.288C361.129 555.82 363.343 553.786 363.343 551.752V550.942ZM357.133 560.878V559.258H371.623V560.878H365.323V566.458H363.343V560.878H357.133ZM384.115 550.42H386.095V559.312H384.115V550.42ZM373.657 552.76V551.176H380.983V555.766H375.619V557.422C378.355 557.404 380.317 557.314 382.549 556.936L382.783 558.538C380.299 558.952 378.157 559.024 375.043 559.024H373.675V554.272H379.039V552.76H373.657ZM375.547 566.26V560.032H377.509V561.598H384.151V560.032H386.095V566.26H375.547ZM377.509 564.658H384.151V563.128H377.509V564.658ZM393.574 551.41H401.206V558.106H393.574V551.41ZM394.51 564.91C397.588 564.622 399.496 563.272 399.676 561.994H395.14V560.5H399.712V559.114H401.728V560.5H406.264V561.994H401.746C401.926 563.236 403.834 564.604 406.858 564.91L406.228 566.404C403.636 566.134 401.674 565.108 400.702 563.794C399.73 565.126 397.768 566.134 395.158 566.404L394.51 564.91ZM395.5 556.54H399.298V552.976H395.5V556.54ZM403.996 559.564V550.438H405.994V559.564H403.996ZM423.841 550.402H425.839V566.476H423.841V550.402ZM413.113 557.242C413.113 553.768 414.859 551.572 417.271 551.572C419.683 551.572 421.429 553.768 421.429 557.242C421.429 560.734 419.683 562.93 417.271 562.93C414.859 562.93 413.113 560.734 413.113 557.242ZM415.021 557.242C415.021 559.708 415.939 561.148 417.271 561.148C418.603 561.148 419.521 559.708 419.521 557.242C419.521 554.794 418.603 553.372 417.271 553.372C415.939 553.372 415.021 554.794 415.021 557.242ZM440.059 550.438H441.931V560.5H440.059V556.144H438.547V559.96H436.693V550.744H438.547V554.542H440.059V550.438ZM428.251 553.732V552.166H431.257V550.582H433.201V552.166H436.171V553.732H428.251ZM428.809 557.116C428.809 555.46 430.231 554.344 432.229 554.344C434.245 554.344 435.667 555.46 435.667 557.116C435.667 558.79 434.245 559.888 432.229 559.888C430.231 559.888 428.809 558.79 428.809 557.116ZM430.555 557.116C430.555 557.962 431.239 558.484 432.229 558.484C433.219 558.484 433.921 557.962 433.921 557.116C433.921 556.27 433.219 555.784 432.229 555.784C431.239 555.784 430.555 556.27 430.555 557.116ZM431.131 563.578C431.131 561.742 433.165 560.716 436.567 560.716C439.987 560.716 442.021 561.742 442.021 563.578C442.021 565.396 439.987 566.44 436.567 566.44C433.165 566.44 431.131 565.396 431.131 563.578ZM433.093 563.578C433.093 564.496 434.317 564.946 436.567 564.946C438.835 564.946 440.041 564.496 440.041 563.578C440.041 562.642 438.835 562.192 436.567 562.192C434.317 562.192 433.093 562.642 433.093 563.578Z" fill="#15151A"/>
<g filter="url(#filter4_d_3915_6009)">
<circle cx="158" cy="434" r="62" fill="white"/>
</g>
<g clip-path="url(#clip6_3915_6009)">
<path d="M153.72 448.307C153.72 447.553 153.296 446.828 152.57 446.481C151.562 445.997 150.352 446.423 149.869 447.432L145.449 456.655C145.148 457.282 145.191 458.02 145.561 458.609C145.932 459.198 146.579 459.555 147.275 459.555H168.335C169.031 459.555 169.678 459.198 170.049 458.609C170.419 458.02 170.462 457.282 170.161 456.655L165.741 447.432C165.258 446.423 164.048 445.997 163.04 446.481C162.314 446.828 161.89 447.553 161.89 448.307H153.72Z" fill="#6D0CA6"/>
<path d="M137.785 407.977C134.745 407.977 132.25 410.392 132.25 413.46V444.845C132.25 447.913 134.745 450.329 137.785 450.329H177.695C180.735 450.329 183.23 447.913 183.23 444.845V413.46C183.23 410.392 180.735 407.977 177.695 407.977H137.785Z" fill="#CC7DFA"/>
<path fill-rule="evenodd" clip-rule="evenodd" d="M163.353 421.087C159.583 417.534 153.555 417.534 149.785 421.087C149.774 421.097 149.763 421.108 149.752 421.118C145.958 424.858 145.958 430.896 149.752 434.635C153.038 437.873 158.06 438.295 161.799 435.903L165.201 439.354C165.986 440.15 167.268 440.16 168.065 439.374C168.861 438.589 168.87 437.307 168.085 436.511L164.681 433.058C167.115 429.353 166.683 424.368 163.385 421.118C163.374 421.108 163.364 421.097 163.353 421.087ZM152.595 431.751C150.415 429.603 150.41 426.173 152.579 424.019C154.785 421.956 158.353 421.956 160.558 424.019C162.728 426.173 162.722 429.603 160.542 431.751C158.341 433.92 154.797 433.92 152.595 431.751Z" fill="white"/>
</g>
<path d="M99.4001 533.894H105.646V530.402H100.984V522.662H112.252V530.402H107.608V533.894H113.908V535.496H99.4001V533.894ZM102.928 528.836H110.326V524.228H102.928V528.836ZM126.437 521.42H128.399V537.44H126.437V521.42ZM116.033 533.426V522.968H117.995V531.734C120.209 531.698 122.567 531.536 125.033 531.032L125.267 532.688C122.495 533.246 119.885 533.426 117.419 533.426H116.033ZM142.241 521.402H144.203V537.476H142.241V528.818H139.253V527.234H142.241V521.402ZM131.585 533.768V522.806H138.983V524.426H133.547V527.27H138.389V528.836H133.547V532.166C135.977 532.148 137.777 532.076 139.829 531.734L140.027 533.318C137.705 533.696 135.689 533.768 132.845 533.768H131.585ZM157.847 521.438H159.827V531.212H157.847V521.438ZM147.389 523.994V522.41H154.715V527.108H149.351V528.836C152.087 528.818 154.049 528.746 156.281 528.368L156.515 529.952C154.031 530.366 151.889 530.438 148.775 530.438H147.407V525.614H152.771V523.994H147.389ZM149.045 534.47C149.045 532.598 151.115 531.518 154.499 531.518C157.847 531.518 159.935 532.598 159.935 534.47C159.935 536.36 157.847 537.44 154.499 537.44C151.115 537.44 149.045 536.36 149.045 534.47ZM151.025 534.47C151.025 535.424 152.249 535.91 154.499 535.91C156.713 535.91 157.973 535.424 157.973 534.47C157.973 533.552 156.713 533.066 154.499 533.066C152.249 533.066 151.025 533.552 151.025 534.47ZM167.306 522.41H174.938V529.106H167.306V522.41ZM168.242 535.91C171.32 535.622 173.228 534.272 173.408 532.994H168.872V531.5H173.444V530.114H175.46V531.5H179.996V532.994H175.478C175.658 534.236 177.566 535.604 180.59 535.91L179.96 537.404C177.368 537.134 175.406 536.108 174.434 534.794C173.462 536.126 171.5 537.134 168.89 537.404L168.242 535.91ZM169.232 527.54H173.03V523.976H169.232V527.54ZM177.728 530.564V521.438H179.726V530.564H177.728ZM193.523 531.464C196.961 531.464 199.175 532.598 199.175 534.47C199.175 536.324 196.961 537.458 193.523 537.458C190.085 537.458 187.889 536.324 187.889 534.47C187.889 532.598 190.085 531.464 193.523 531.464ZM186.377 530.294V528.71H191.957V525.812H193.919V528.71H200.813V530.294H186.377ZM188.033 523.76V522.194H199.049V523.526C199.049 524.804 199.049 526.136 198.617 527.792L196.673 527.576C197.069 526.046 197.087 524.912 197.087 523.76H188.033ZM189.851 534.47C189.851 535.424 191.219 535.946 193.523 535.946C195.827 535.946 197.195 535.424 197.195 534.47C197.195 533.498 195.827 532.958 193.523 532.958C191.219 532.958 189.851 533.498 189.851 534.47ZM206.087 522.734H208.085V525.254C208.085 528.206 209.597 531.158 212.171 532.292L211.019 533.894C209.165 533.03 207.833 531.32 207.113 529.232C206.393 531.482 205.025 533.318 203.099 534.236L201.911 532.598C204.539 531.428 206.087 528.35 206.087 525.254V522.734ZM213.305 537.476V521.402H215.285V537.476H213.305Z" fill="#15151A"/>
<defs>
<filter id="filter0_d_3915_6009" x="189" y="0" width="180" height="180" filterUnits="userSpaceOnUse" color-interpolation-filters="sRGB">
<feFlood flood-opacity="0" result="BackgroundImageFix"/>
<feColorMatrix in="SourceAlpha" type="matrix" values="0 0 0 0 0 0 0 0 0 0 0 0 0 0 0 0 0 0 127 0" result="hardAlpha"/>
<feOffset dy="8"/>
<feGaussianBlur stdDeviation="14"/>
<feComposite in2="hardAlpha" operator="out"/>
<feColorMatrix type="matrix" values="0 0 0 0 0 0 0 0 0 0 0 0 0 0 0 0 0 0 0.05 0"/>
<feBlend mode="normal" in2="BackgroundImageFix" result="effect1_dropShadow_3915_6009"/>
<feBlend mode="normal" in="SourceGraphic" in2="effect1_dropShadow_3915_6009" result="shape"/>
</filter>
<filter id="filter1_d_3915_6009" x="382" y="142" width="180" height="180" filterUnits="userSpaceOnUse" color-interpolation-filters="sRGB">
<feFlood flood-opacity="0" result="BackgroundImageFix"/>
<feColorMatrix in="SourceAlpha" type="matrix" values="0 0 0 0 0 0 0 0 0 0 0 0 0 0 0 0 0 0 127 0" result="hardAlpha"/>
<feOffset dy="8"/>
<feGaussianBlur stdDeviation="14"/>
<feComposite in2="hardAlpha" operator="out"/>
<feColorMatrix type="matrix" values="0 0 0 0 0 0 0 0 0 0 0 0 0 0 0 0 0 0 0.05 0"/>
<feBlend mode="normal" in2="BackgroundImageFix" result="effect1_dropShadow_3915_6009"/>
<feBlend mode="normal" in="SourceGraphic" in2="effect1_dropShadow_3915_6009" result="shape"/>
</filter>
<filter id="filter2_d_3915_6009" x="0" y="142" width="180" height="180" filterUnits="userSpaceOnUse" color-interpolation-filters="sRGB">
<feFlood flood-opacity="0" result="BackgroundImageFix"/>
<feColorMatrix in="SourceAlpha" type="matrix" values="0 0 0 0 0 0 0 0 0 0 0 0 0 0 0 0 0 0 127 0" result="hardAlpha"/>
<feOffset dy="8"/>
<feGaussianBlur stdDeviation="14"/>
<feComposite in2="hardAlpha" operator="out"/>
<feColorMatrix type="matrix" values="0 0 0 0 0 0 0 0 0 0 0 0 0 0 0 0 0 0 0.05 0"/>
<feBlend mode="normal" in2="BackgroundImageFix" result="effect1_dropShadow_3915_6009"/>
<feBlend mode="normal" in="SourceGraphic" in2="effect1_dropShadow_3915_6009" result="shape"/>
</filter>
<filter id="filter3_d_3915_6009" x="310" y="352" width="180" height="180" filterUnits="userSpaceOnUse" color-interpolation-filters="sRGB">
<feFlood flood-opacity="0" result="BackgroundImageFix"/>
<feColorMatrix in="SourceAlpha" type="matrix" values="0 0 0 0 0 0 0 0 0 0 0 0 0 0 0 0 0 0 127 0" result="hardAlpha"/>
<feOffset dy="8"/>
<feGaussianBlur stdDeviation="14"/>
<feComposite in2="hardAlpha" operator="out"/>
<feColorMatrix type="matrix" values="0 0 0 0 0 0 0 0 0 0 0 0 0 0 0 0 0 0 0.05 0"/>
<feBlend mode="normal" in2="BackgroundImageFix" result="effect1_dropShadow_3915_6009"/>
<feBlend mode="normal" in="SourceGraphic" in2="effect1_dropShadow_3915_6009" result="shape"/>
</filter>
<filter id="filter4_d_3915_6009" x="68" y="352" width="180" height="180" filterUnits="userSpaceOnUse" color-interpolation-filters="sRGB">
<feFlood flood-opacity="0" result="BackgroundImageFix"/>
<feColorMatrix in="SourceAlpha" type="matrix" values="0 0 0 0 0 0 0 0 0 0 0 0 0 0 0 0 0 0 127 0" result="hardAlpha"/>
<feOffset dy="8"/>
<feGaussianBlur stdDeviation="14"/>
<feComposite in2="hardAlpha" operator="out"/>
<feColorMatrix type="matrix" values="0 0 0 0 0 0 0 0 0 0 0 0 0 0 0 0 0 0 0.05 0"/>
<feBlend mode="normal" in2="BackgroundImageFix" result="effect1_dropShadow_3915_6009"/>
<feBlend mode="normal" in="SourceGraphic" in2="effect1_dropShadow_3915_6009" result="shape"/>
</filter>
<clipPath id="clip0_3915_6009">
<rect width="72" height="72" fill="white" transform="translate(243 46)"/>
</clipPath>
<clipPath id="clip1_3915_6009">
<rect width="72" height="72" fill="white" transform="translate(436 188)"/>
</clipPath>
<clipPath id="clip2_3915_6009">
<rect width="72" height="72" fill="white" transform="translate(54 188)"/>
</clipPath>
<clipPath id="clip3_3915_6009">
<rect width="57.375" height="48.06" fill="white" transform="translate(61.6875 199.672)"/>
</clipPath>
<clipPath id="clip4_3915_6009">
<rect width="72" height="72" fill="white" transform="translate(364 398)"/>
</clipPath>
<clipPath id="clip5_3915_6009">
<rect width="45.765" height="56.16" fill="white" transform="translate(377.039 405.617)"/>
</clipPath>
<clipPath id="clip6_3915_6009">
<rect width="72" height="72" fill="white" transform="translate(122 398)"/>
</clipPath>
</defs>
</svg>
