<svg width="1200" height="459" viewBox="0 0 1200 459" fill="none" xmlns="http://www.w3.org/2000/svg">
<rect y="388" width="1200" height="2" fill="#71717A"/>
<rect x="202" y="385" width="8" height="8" rx="4" fill="#3F3F46"/>
<rect x="421" y="385" width="8" height="8" rx="4" fill="#3F3F46"/>
<rect x="640" y="385" width="8" height="8" rx="4" fill="#3F3F46"/>
<rect x="859" y="385" width="8" height="8" rx="4" fill="#3F3F46"/>
<rect x="1079" y="385" width="8" height="8" rx="4" fill="#3F3F46"/>
<path d="M168.258 426.56C170.594 424.32 173.778 422.048 173.778 420.08C173.778 418.768 172.946 417.84 171.762 417.84C170.85 417.84 169.938 418.496 169.522 419.44L168.034 418.784C168.674 417.312 170.226 416.288 171.762 416.288C173.954 416.288 175.474 417.856 175.474 420.08C175.474 422.528 172.818 424.704 170.658 426.56H175.666V428.048H168.418L168.258 426.56ZM181.605 426.656C183.205 426.656 184.277 424.864 184.277 422.224C184.277 419.568 183.205 417.776 181.605 417.776C180.005 417.776 178.917 419.568 178.917 422.224C178.917 424.864 180.005 426.656 181.605 426.656ZM177.221 422.224C177.221 418.736 179.029 416.288 181.605 416.288C184.165 416.288 185.973 418.736 185.973 422.224C185.973 425.696 184.165 428.16 181.605 428.16C179.029 428.16 177.221 425.696 177.221 422.224ZM187.774 426.56C190.11 424.32 193.294 422.048 193.294 420.08C193.294 418.768 192.462 417.84 191.278 417.84C190.366 417.84 189.454 418.496 189.038 419.44L187.55 418.784C188.19 417.312 189.742 416.288 191.278 416.288C193.47 416.288 194.99 417.856 194.99 420.08C194.99 422.528 192.334 424.704 190.174 426.56H195.182V428.048H187.934L187.774 426.56ZM201.089 416.416V428.048L199.393 428.032V418.224L197.345 419.36L196.641 417.936L199.409 416.416H201.089ZM213.28 415.04H215.04V425.552H213.28V420.816H209.6V419.424H213.28V418.128H209.6V416.736H213.28V415.04ZM203.984 423.616V416H205.744V422.16C207.552 422.144 209.232 422.032 211.12 421.696L211.28 423.12C209.12 423.52 207.232 423.616 205.104 423.616H203.984ZM205.744 429.008V424.624H207.488V427.6H215.376V429.008H205.744ZM227.304 422.032C228.344 422.64 229 423.776 229 424.752C229 426.736 227.368 428.144 225.048 428.144C222.744 428.144 221.112 426.704 221.112 424.656H222.808C222.808 425.824 223.736 426.64 225.048 426.64C226.392 426.64 227.352 425.824 227.352 424.656C227.352 423.536 226.408 422.736 225.08 422.736H224.248V421.312H225.096C226.312 421.312 227.176 420.592 227.176 419.568C227.176 418.528 226.344 417.808 225.16 417.808C223.976 417.808 223.16 418.544 223.16 419.584H221.464C221.464 417.648 222.984 416.304 225.16 416.304C227.304 416.304 228.824 417.616 228.824 419.472C228.824 420.368 228.248 421.424 227.304 422.032ZM240.405 415.04H242.165V423.344H240.405V422.784H237.781V421.696H240.405V415.04ZM230.293 420.192C233.045 420.192 236.437 420.176 239.461 419.872L239.573 420.96C238.277 421.152 236.949 421.264 235.653 421.328V423.376H233.893V421.392C232.693 421.424 231.541 421.424 230.501 421.424L230.293 420.192ZM231.301 417.408C231.301 416.096 232.725 415.28 234.837 415.28C236.965 415.28 238.373 416.096 238.373 417.408C238.373 418.72 236.965 419.536 234.837 419.536C232.725 419.536 231.301 418.72 231.301 417.408ZM232.373 425.024V423.808H242.165V426.992H234.149V427.936H242.565V429.168H232.389V425.872H240.437V425.024H232.373ZM232.949 417.408C232.949 418.032 233.685 418.384 234.837 418.384C236.005 418.384 236.741 418.032 236.741 417.408C236.741 416.8 236.005 416.448 234.837 416.448C233.685 416.448 232.949 416.8 232.949 417.408Z" fill="#71717A"/>
<path d="M388.172 426.56C390.508 424.32 393.692 422.048 393.692 420.08C393.692 418.768 392.86 417.84 391.676 417.84C390.764 417.84 389.852 418.496 389.436 419.44L387.948 418.784C388.588 417.312 390.14 416.288 391.676 416.288C393.868 416.288 395.388 417.856 395.388 420.08C395.388 422.528 392.732 424.704 390.572 426.56H395.58V428.048H388.332L388.172 426.56ZM401.519 426.656C403.119 426.656 404.191 424.864 404.191 422.224C404.191 419.568 403.119 417.776 401.519 417.776C399.919 417.776 398.831 419.568 398.831 422.224C398.831 424.864 399.919 426.656 401.519 426.656ZM397.135 422.224C397.135 418.736 398.943 416.288 401.519 416.288C404.079 416.288 405.887 418.736 405.887 422.224C405.887 425.696 404.079 428.16 401.519 428.16C398.943 428.16 397.135 425.696 397.135 422.224ZM407.688 426.56C410.024 424.32 413.208 422.048 413.208 420.08C413.208 418.768 412.376 417.84 411.192 417.84C410.28 417.84 409.368 418.496 408.952 419.44L407.464 418.784C408.104 417.312 409.656 416.288 411.192 416.288C413.384 416.288 414.904 417.856 414.904 420.08C414.904 422.528 412.248 424.704 410.088 426.56H415.096V428.048H407.848L407.688 426.56ZM421.003 416.416V428.048L419.307 428.032V418.224L417.259 419.36L416.555 417.936L419.323 416.416H421.003ZM433.194 415.04H434.954V425.552H433.194V420.816H429.514V419.424H433.194V418.128H429.514V416.736H433.194V415.04ZM423.898 423.616V416H425.658V422.16C427.466 422.144 429.146 422.032 431.034 421.696L431.194 423.12C429.034 423.52 427.146 423.616 425.018 423.616H423.898ZM425.658 429.008V424.624H427.402V427.6H435.29V429.008H425.658ZM445.042 426.672C446.418 426.672 447.394 425.68 447.394 424.288C447.394 422.864 446.418 421.872 445.042 421.872C443.682 421.872 442.722 422.864 442.722 424.288C442.722 425.68 443.682 426.672 445.042 426.672ZM441.026 424.288C441.026 423.44 441.33 422.688 441.666 422.064L444.866 416.368H446.818L444.498 420.448C444.69 420.416 444.882 420.384 445.09 420.384C447.442 420.4 449.09 422 449.09 424.288C449.09 426.56 447.426 428.16 445.058 428.16C442.69 428.16 441.026 426.56 441.026 424.288ZM460.491 415.04H462.251V423.344H460.491V422.784H457.867V421.696H460.491V415.04ZM450.379 420.192C453.131 420.192 456.523 420.176 459.547 419.872L459.659 420.96C458.363 421.152 457.035 421.264 455.739 421.328V423.376H453.979V421.392C452.779 421.424 451.627 421.424 450.587 421.424L450.379 420.192ZM451.387 417.408C451.387 416.096 452.811 415.28 454.923 415.28C457.051 415.28 458.459 416.096 458.459 417.408C458.459 418.72 457.051 419.536 454.923 419.536C452.811 419.536 451.387 418.72 451.387 417.408ZM452.459 425.024V423.808H462.251V426.992H454.235V427.936H462.651V429.168H452.475V425.872H460.523V425.024H452.459ZM453.035 417.408C453.035 418.032 453.771 418.384 454.923 418.384C456.091 418.384 456.827 418.032 456.827 417.408C456.827 416.8 456.091 416.448 454.923 416.448C453.771 416.448 453.035 416.8 453.035 417.408Z" fill="#71717A"/>
<path d="M607.235 426.56C609.571 424.32 612.755 422.048 612.755 420.08C612.755 418.768 611.923 417.84 610.739 417.84C609.827 417.84 608.915 418.496 608.499 419.44L607.011 418.784C607.651 417.312 609.203 416.288 610.739 416.288C612.931 416.288 614.451 417.856 614.451 420.08C614.451 422.528 611.795 424.704 609.635 426.56H614.643V428.048H607.395L607.235 426.56ZM620.582 426.656C622.182 426.656 623.254 424.864 623.254 422.224C623.254 419.568 622.182 417.776 620.582 417.776C618.982 417.776 617.894 419.568 617.894 422.224C617.894 424.864 618.982 426.656 620.582 426.656ZM616.198 422.224C616.198 418.736 618.006 416.288 620.582 416.288C623.142 416.288 624.95 418.736 624.95 422.224C624.95 425.696 623.142 428.16 620.582 428.16C618.006 428.16 616.198 425.696 616.198 422.224ZM626.751 426.56C629.087 424.32 632.271 422.048 632.271 420.08C632.271 418.768 631.439 417.84 630.255 417.84C629.343 417.84 628.431 418.496 628.015 419.44L626.527 418.784C627.167 417.312 628.719 416.288 630.255 416.288C632.447 416.288 633.967 417.856 633.967 420.08C633.967 422.528 631.311 424.704 629.151 426.56H634.159V428.048H626.911L626.751 426.56ZM640.065 416.416V428.048L638.369 428.032V418.224L636.321 419.36L635.617 417.936L638.385 416.416H640.065ZM652.257 415.04H654.017V425.552H652.257V420.816H648.577V419.424H652.257V418.128H648.577V416.736H652.257V415.04ZM642.961 423.616V416H644.721V422.16C646.529 422.144 648.209 422.032 650.097 421.696L650.257 423.12C648.097 423.52 646.209 423.616 644.081 423.616H642.961ZM644.721 429.008V424.624H646.465V427.6H654.353V429.008H644.721ZM664.057 426.784C665.385 426.784 666.313 425.936 666.313 424.72C666.313 423.504 665.385 422.64 664.057 422.64C662.729 422.64 661.785 423.504 661.785 424.72C661.785 425.936 662.729 426.784 664.057 426.784ZM660.089 424.752C660.089 423.728 660.889 422.544 662.009 421.92C661.081 421.28 660.409 420.24 660.409 419.408C660.409 417.52 661.913 416.208 664.057 416.208C666.201 416.208 667.705 417.52 667.705 419.408C667.705 420.256 667.049 421.296 666.105 421.92C667.225 422.56 668.025 423.728 668.025 424.752C668.025 426.8 666.393 428.24 664.057 428.24C661.737 428.24 660.089 426.8 660.089 424.752ZM662.121 419.408C662.121 420.448 662.921 421.184 664.057 421.184C665.209 421.184 666.009 420.448 666.009 419.408C666.009 418.368 665.209 417.648 664.057 417.648C662.921 417.648 662.121 418.368 662.121 419.408ZM679.429 415.04H681.189V423.344H679.429V422.784H676.805V421.696H679.429V415.04ZM669.317 420.192C672.069 420.192 675.461 420.176 678.485 419.872L678.597 420.96C677.301 421.152 675.973 421.264 674.677 421.328V423.376H672.917V421.392C671.717 421.424 670.565 421.424 669.525 421.424L669.317 420.192ZM670.325 417.408C670.325 416.096 671.749 415.28 673.861 415.28C675.989 415.28 677.397 416.096 677.397 417.408C677.397 418.72 675.989 419.536 673.861 419.536C671.749 419.536 670.325 418.72 670.325 417.408ZM671.397 425.024V423.808H681.189V426.992H673.173V427.936H681.589V429.168H671.413V425.872H679.461V425.024H671.397ZM671.973 417.408C671.973 418.032 672.709 418.384 673.861 418.384C675.029 418.384 675.765 418.032 675.765 417.408C675.765 416.8 675.029 416.448 673.861 416.448C672.709 416.448 671.973 416.8 671.973 417.408Z" fill="#71717A"/>
<path d="M824.266 426.56C826.602 424.32 829.786 422.048 829.786 420.08C829.786 418.768 828.954 417.84 827.77 417.84C826.858 417.84 825.946 418.496 825.53 419.44L824.042 418.784C824.682 417.312 826.234 416.288 827.77 416.288C829.962 416.288 831.482 417.856 831.482 420.08C831.482 422.528 828.826 424.704 826.666 426.56H831.674V428.048H824.426L824.266 426.56ZM837.613 426.656C839.213 426.656 840.285 424.864 840.285 422.224C840.285 419.568 839.213 417.776 837.613 417.776C836.013 417.776 834.925 419.568 834.925 422.224C834.925 424.864 836.013 426.656 837.613 426.656ZM833.229 422.224C833.229 418.736 835.037 416.288 837.613 416.288C840.173 416.288 841.981 418.736 841.981 422.224C841.981 425.696 840.173 428.16 837.613 428.16C835.037 428.16 833.229 425.696 833.229 422.224ZM843.782 426.56C846.118 424.32 849.302 422.048 849.302 420.08C849.302 418.768 848.47 417.84 847.286 417.84C846.374 417.84 845.462 418.496 845.046 419.44L843.558 418.784C844.198 417.312 845.75 416.288 847.286 416.288C849.478 416.288 850.998 417.856 850.998 420.08C850.998 422.528 848.342 424.704 846.182 426.56H851.19V428.048H843.942L843.782 426.56ZM853.001 426.56C855.337 424.32 858.521 422.048 858.521 420.08C858.521 418.768 857.689 417.84 856.505 417.84C855.593 417.84 854.681 418.496 854.265 419.44L852.777 418.784C853.417 417.312 854.969 416.288 856.505 416.288C858.697 416.288 860.217 417.856 860.217 420.08C860.217 422.528 857.561 424.704 855.401 426.56H860.409V428.048H853.161L853.001 426.56ZM871.819 415.04H873.579V425.552H871.819V420.816H868.139V419.424H871.819V418.128H868.139V416.736H871.819V415.04ZM862.523 423.616V416H864.283V422.16C866.091 422.144 867.771 422.032 869.659 421.696L869.819 423.12C867.659 423.52 865.771 423.616 863.643 423.616H862.523ZM864.283 429.008V424.624H866.027V427.6H873.915V429.008H864.283ZM886.515 416.4V423.568H887.987V425.04H886.515V428.048H884.819V425.04H879.811L879.651 423.568L884.899 416.4H886.515ZM881.667 423.568H884.819V419.232L881.667 423.568ZM899.397 415.04H901.157V423.344H899.397V422.784H896.773V421.696H899.397V415.04ZM889.285 420.192C892.037 420.192 895.429 420.176 898.453 419.872L898.565 420.96C897.269 421.152 895.941 421.264 894.645 421.328V423.376H892.885V421.392C891.685 421.424 890.533 421.424 889.493 421.424L889.285 420.192ZM890.293 417.408C890.293 416.096 891.717 415.28 893.829 415.28C895.957 415.28 897.365 416.096 897.365 417.408C897.365 418.72 895.957 419.536 893.829 419.536C891.717 419.536 890.293 418.72 890.293 417.408ZM891.365 425.024V423.808H901.157V426.992H893.141V427.936H901.557V429.168H891.381V425.872H899.429V425.024H891.365ZM891.941 417.408C891.941 418.032 892.677 418.384 893.829 418.384C894.997 418.384 895.733 418.032 895.733 417.408C895.733 416.8 894.997 416.448 893.829 416.448C892.677 416.448 891.941 416.8 891.941 417.408Z" fill="#71717A"/>
<path d="M1046.2 426.56C1048.53 424.32 1051.72 422.048 1051.72 420.08C1051.72 418.768 1050.88 417.84 1049.7 417.84C1048.79 417.84 1047.88 418.496 1047.46 419.44L1045.97 418.784C1046.61 417.312 1048.16 416.288 1049.7 416.288C1051.89 416.288 1053.41 417.856 1053.41 420.08C1053.41 422.528 1050.76 424.704 1048.6 426.56H1053.6V428.048H1046.36L1046.2 426.56ZM1059.54 426.656C1061.14 426.656 1062.21 424.864 1062.21 422.224C1062.21 419.568 1061.14 417.776 1059.54 417.776C1057.94 417.776 1056.85 419.568 1056.85 422.224C1056.85 424.864 1057.94 426.656 1059.54 426.656ZM1055.16 422.224C1055.16 418.736 1056.97 416.288 1059.54 416.288C1062.1 416.288 1063.91 418.736 1063.91 422.224C1063.91 425.696 1062.1 428.16 1059.54 428.16C1056.97 428.16 1055.16 425.696 1055.16 422.224ZM1065.71 426.56C1068.05 424.32 1071.23 422.048 1071.23 420.08C1071.23 418.768 1070.4 417.84 1069.22 417.84C1068.3 417.84 1067.39 418.496 1066.98 419.44L1065.49 418.784C1066.13 417.312 1067.68 416.288 1069.22 416.288C1071.41 416.288 1072.93 417.856 1072.93 420.08C1072.93 422.528 1070.27 424.704 1068.11 426.56H1073.12V428.048H1065.87L1065.71 426.56ZM1074.93 426.56C1077.27 424.32 1080.45 422.048 1080.45 420.08C1080.45 418.768 1079.62 417.84 1078.43 417.84C1077.52 417.84 1076.61 418.496 1076.19 419.44L1074.71 418.784C1075.35 417.312 1076.9 416.288 1078.43 416.288C1080.63 416.288 1082.15 417.856 1082.15 420.08C1082.15 422.528 1079.49 424.704 1077.33 426.56H1082.34V428.048H1075.09L1074.93 426.56ZM1093.75 415.04H1095.51V425.552H1093.75V420.816H1090.07V419.424H1093.75V418.128H1090.07V416.736H1093.75V415.04ZM1084.45 423.616V416H1086.21V422.16C1088.02 422.144 1089.7 422.032 1091.59 421.696L1091.75 423.12C1089.59 423.52 1087.7 423.616 1085.57 423.616H1084.45ZM1086.21 429.008V424.624H1087.96V427.6H1095.85V429.008H1086.21ZM1104.48 428.08H1102.62L1107.18 417.84L1101.84 417.856V416.352H1108.88L1109.04 417.84L1104.48 428.08ZM1120.47 415.04H1122.23V423.344H1120.47V422.784H1117.84V421.696H1120.47V415.04ZM1110.36 420.192C1113.11 420.192 1116.5 420.176 1119.52 419.872L1119.64 420.96C1118.34 421.152 1117.01 421.264 1115.72 421.328V423.376H1113.96V421.392C1112.76 421.424 1111.6 421.424 1110.56 421.424L1110.36 420.192ZM1111.36 417.408C1111.36 416.096 1112.79 415.28 1114.9 415.28C1117.03 415.28 1118.44 416.096 1118.44 417.408C1118.44 418.72 1117.03 419.536 1114.9 419.536C1112.79 419.536 1111.36 418.72 1111.36 417.408ZM1112.44 425.024V423.808H1122.23V426.992H1114.21V427.936H1122.63V429.168H1112.45V425.872H1120.5V425.024H1112.44ZM1113.01 417.408C1113.01 418.032 1113.75 418.384 1114.9 418.384C1116.07 418.384 1116.8 418.032 1116.8 417.408C1116.8 416.8 1116.07 416.448 1114.9 416.448C1113.75 416.448 1113.01 416.8 1113.01 417.408Z" fill="#71717A"/>
<path d="M214 219L428.5 221L639.5 226.5L859.5 232L1073.5 247" stroke="#9735D0" stroke-width="2"/>
<circle cx="214" cy="219" r="6.5" stroke="#6D0CA6"/>
<circle cx="214" cy="219" r="4" fill="#6D0CA6"/>
<circle cx="429" cy="221" r="6.5" stroke="#6D0CA6"/>
<circle cx="429" cy="221" r="4" fill="#6D0CA6"/>
<circle cx="639" cy="226" r="6.5" stroke="#6D0CA6"/>
<circle cx="639" cy="226" r="4" fill="#6D0CA6"/>
<circle cx="859" cy="232" r="6.5" stroke="#6D0CA6"/>
<circle cx="859" cy="232" r="4" fill="#6D0CA6"/>
<circle cx="1074" cy="247" r="6.5" stroke="#6D0CA6"/>
<circle cx="1074" cy="247" r="4" fill="#6D0CA6"/>
<path d="M413.503 249.186L411.595 248.952L412.045 241.95H419.047V243.624H413.881L413.665 246.828C414.259 246.558 414.925 246.396 415.519 246.396C418.219 246.396 420.127 248.214 420.127 250.788C420.127 253.398 418.219 255.234 415.519 255.234C413.395 255.234 411.559 253.812 411.091 251.796L412.945 251.364C413.215 252.57 414.277 253.434 415.519 253.434C417.103 253.434 418.219 252.336 418.219 250.788C418.219 249.276 417.103 248.196 415.519 248.196C414.853 248.196 414.025 248.61 413.503 249.186ZM423.108 253.182C423.756 253.182 424.206 253.65 424.206 254.298C424.206 254.964 423.756 255.432 423.108 255.432C422.442 255.432 421.974 254.964 421.974 254.298C421.974 253.65 422.442 253.182 423.108 253.182ZM433.877 248.286C435.047 248.97 435.785 250.248 435.785 251.346C435.785 253.578 433.949 255.162 431.339 255.162C428.747 255.162 426.911 253.542 426.911 251.238H428.819C428.819 252.552 429.863 253.47 431.339 253.47C432.851 253.47 433.931 252.552 433.931 251.238C433.931 249.978 432.869 249.078 431.375 249.078H430.439V247.476H431.393C432.761 247.476 433.733 246.666 433.733 245.514C433.733 244.344 432.797 243.534 431.465 243.534C430.133 243.534 429.215 244.362 429.215 245.532H427.307C427.307 243.354 429.017 241.842 431.465 241.842C433.877 241.842 435.587 243.318 435.587 245.406C435.587 246.414 434.939 247.602 433.877 248.286ZM445.268 241.95V250.014H446.924V251.67H445.268V255.054H443.36V251.67H437.726L437.546 250.014L443.45 241.95H445.268ZM439.814 250.014H443.36V245.136L439.814 250.014Z" fill="#15151A"/>
<path d="M623.793 254.186L621.885 253.952L622.335 246.95H629.337V248.624H624.171L623.955 251.828C624.549 251.558 625.215 251.396 625.809 251.396C628.509 251.396 630.417 253.214 630.417 255.788C630.417 258.398 628.509 260.234 625.809 260.234C623.685 260.234 621.849 258.812 621.381 256.796L623.235 256.364C623.505 257.57 624.567 258.434 625.809 258.434C627.393 258.434 628.509 257.336 628.509 255.788C628.509 254.276 627.393 253.196 625.809 253.196C625.143 253.196 624.315 253.61 623.793 254.186ZM633.398 258.182C634.046 258.182 634.496 258.65 634.496 259.298C634.496 259.964 634.046 260.432 633.398 260.432C632.732 260.432 632.264 259.964 632.264 259.298C632.264 258.65 632.732 258.182 633.398 258.182ZM637.471 258.38C640.099 255.86 643.681 253.304 643.681 251.09C643.681 249.614 642.745 248.57 641.413 248.57C640.387 248.57 639.361 249.308 638.893 250.37L637.219 249.632C637.939 247.976 639.685 246.824 641.413 246.824C643.879 246.824 645.589 248.588 645.589 251.09C645.589 253.844 642.601 256.292 640.171 258.38H645.805V260.054H637.651L637.471 258.38ZM652.09 258.506C653.638 258.506 654.736 257.39 654.736 255.824C654.736 254.222 653.638 253.106 652.09 253.106C650.56 253.106 649.48 254.222 649.48 255.824C649.48 257.39 650.56 258.506 652.09 258.506ZM647.572 255.824C647.572 254.87 647.914 254.024 648.292 253.322L651.892 246.914H654.088L651.478 251.504C651.694 251.468 651.91 251.432 652.144 251.432C654.79 251.45 656.644 253.25 656.644 255.824C656.644 258.38 654.772 260.18 652.108 260.18C649.444 260.18 647.572 258.38 647.572 255.824Z" fill="#15151A"/>
<path d="M845.717 260.186L843.809 259.952L844.259 252.95H851.261V254.624H846.095L845.879 257.828C846.473 257.558 847.139 257.396 847.733 257.396C850.433 257.396 852.341 259.214 852.341 261.788C852.341 264.398 850.433 266.234 847.733 266.234C845.609 266.234 843.773 264.812 843.305 262.796L845.159 262.364C845.429 263.57 846.491 264.434 847.733 264.434C849.317 264.434 850.433 263.336 850.433 261.788C850.433 260.276 849.317 259.196 847.733 259.196C847.067 259.196 846.239 259.61 845.717 260.186ZM855.321 264.182C855.969 264.182 856.419 264.65 856.419 265.298C856.419 265.964 855.969 266.432 855.321 266.432C854.655 266.432 854.187 265.964 854.187 265.298C854.187 264.65 854.655 264.182 855.321 264.182ZM864.003 252.968V266.054L862.095 266.036V255.002L859.791 256.28L858.999 254.678L862.113 252.968H864.003ZM871.203 254.48C869.655 254.48 868.557 255.596 868.557 257.18C868.557 258.764 869.655 259.88 871.203 259.88C872.733 259.88 873.813 258.764 873.813 257.18C873.813 255.596 872.733 254.48 871.203 254.48ZM866.649 257.18C866.649 254.606 868.521 252.806 871.185 252.806C873.849 252.806 875.721 254.606 875.721 257.18C875.721 258.116 875.379 258.98 875.001 259.664L871.401 266.072H869.205L871.815 261.482C871.599 261.518 871.383 261.554 871.149 261.554C868.503 261.536 866.649 259.736 866.649 257.18Z" fill="#15151A"/>
<path d="M1060.31 275.186L1058.41 274.952L1058.86 267.95H1065.86V269.624H1060.69L1060.48 272.828C1061.07 272.558 1061.74 272.396 1062.33 272.396C1065.03 272.396 1066.94 274.214 1066.94 276.788C1066.94 279.398 1065.03 281.234 1062.33 281.234C1060.21 281.234 1058.37 279.812 1057.9 277.796L1059.76 277.364C1060.03 278.57 1061.09 279.434 1062.33 279.434C1063.91 279.434 1065.03 278.336 1065.03 276.788C1065.03 275.276 1063.91 274.196 1062.33 274.196C1061.66 274.196 1060.84 274.61 1060.31 275.186ZM1069.92 279.182C1070.57 279.182 1071.02 279.65 1071.02 280.298C1071.02 280.964 1070.57 281.432 1069.92 281.432C1069.25 281.432 1068.78 280.964 1068.78 280.298C1068.78 279.65 1069.25 279.182 1069.92 279.182ZM1078.6 267.968V281.054L1076.69 281.036V270.002L1074.39 271.28L1073.6 269.678L1076.71 267.968H1078.6ZM1088.21 274.286C1089.38 274.97 1090.12 276.248 1090.12 277.346C1090.12 279.578 1088.28 281.162 1085.67 281.162C1083.08 281.162 1081.25 279.542 1081.25 277.238H1083.15C1083.15 278.552 1084.2 279.47 1085.67 279.47C1087.19 279.47 1088.27 278.552 1088.27 277.238C1088.27 275.978 1087.2 275.078 1085.71 275.078H1084.77V273.476H1085.73C1087.1 273.476 1088.07 272.666 1088.07 271.514C1088.07 270.344 1087.13 269.534 1085.8 269.534C1084.47 269.534 1083.55 270.362 1083.55 271.532H1081.64C1081.64 269.354 1083.35 267.842 1085.8 267.842C1088.21 267.842 1089.92 269.318 1089.92 271.406C1089.92 272.414 1089.27 273.602 1088.21 274.286Z" fill="#15151A"/>
<path d="M198.662 247.186L196.754 246.952L197.204 239.95H204.206V241.624H199.04L198.824 244.828C199.418 244.558 200.084 244.396 200.678 244.396C203.378 244.396 205.286 246.214 205.286 248.788C205.286 251.398 203.378 253.234 200.678 253.234C198.554 253.234 196.718 251.812 196.25 249.796L198.104 249.364C198.374 250.57 199.436 251.434 200.678 251.434C202.262 251.434 203.378 250.336 203.378 248.788C203.378 247.276 202.262 246.196 200.678 246.196C200.012 246.196 199.184 246.61 198.662 247.186ZM208.266 251.182C208.914 251.182 209.364 251.65 209.364 252.298C209.364 252.964 208.914 253.432 208.266 253.432C207.6 253.432 207.132 252.964 207.132 252.298C207.132 251.65 207.6 251.182 208.266 251.182ZM219.036 246.286C220.206 246.97 220.944 248.248 220.944 249.346C220.944 251.578 219.108 253.162 216.498 253.162C213.906 253.162 212.07 251.542 212.07 249.238H213.978C213.978 250.552 215.022 251.47 216.498 251.47C218.01 251.47 219.09 250.552 219.09 249.238C219.09 247.978 218.028 247.078 216.534 247.078H215.598V245.476H216.552C217.92 245.476 218.892 244.666 218.892 243.514C218.892 242.344 217.956 241.534 216.624 241.534C215.292 241.534 214.374 242.362 214.374 243.532H212.466C212.466 241.354 214.176 239.842 216.624 239.842C219.036 239.842 220.746 241.318 220.746 243.406C220.746 244.414 220.098 245.602 219.036 246.286ZM225.134 247.186L223.226 246.952L223.676 239.95H230.678V241.624H225.512L225.296 244.828C225.89 244.558 226.556 244.396 227.15 244.396C229.85 244.396 231.758 246.214 231.758 248.788C231.758 251.398 229.85 253.234 227.15 253.234C225.026 253.234 223.19 251.812 222.722 249.796L224.576 249.364C224.846 250.57 225.908 251.434 227.15 251.434C228.734 251.434 229.85 250.336 229.85 248.788C229.85 247.276 228.734 246.196 227.15 246.196C226.484 246.196 225.656 246.61 225.134 247.186Z" fill="#15151A"/>
<path d="M198.687 154.186L196.779 153.952L197.229 146.95H204.231V148.624H199.065L198.849 151.828C199.443 151.558 200.109 151.396 200.703 151.396C203.403 151.396 205.311 153.214 205.311 155.788C205.311 158.398 203.403 160.234 200.703 160.234C198.579 160.234 196.743 158.812 196.275 156.796L198.129 156.364C198.399 157.57 199.461 158.434 200.703 158.434C202.287 158.434 203.403 157.336 203.403 155.788C203.403 154.276 202.287 153.196 200.703 153.196C200.037 153.196 199.209 153.61 198.687 154.186ZM208.291 158.182C208.939 158.182 209.389 158.65 209.389 159.298C209.389 159.964 208.939 160.432 208.291 160.432C207.625 160.432 207.157 159.964 207.157 159.298C207.157 158.65 207.625 158.182 208.291 158.182ZM216.649 148.48C215.101 148.48 214.003 149.596 214.003 151.18C214.003 152.764 215.101 153.88 216.649 153.88C218.179 153.88 219.259 152.764 219.259 151.18C219.259 149.596 218.179 148.48 216.649 148.48ZM212.095 151.18C212.095 148.606 213.967 146.806 216.631 146.806C219.295 146.806 221.167 148.606 221.167 151.18C221.167 152.116 220.825 152.98 220.447 153.664L216.847 160.072H214.651L217.261 155.482C217.045 155.518 216.829 155.554 216.595 155.554C213.949 155.536 212.095 153.736 212.095 151.18ZM227.837 158.488C229.637 158.488 230.843 156.472 230.843 153.502C230.843 150.514 229.637 148.498 227.837 148.498C226.037 148.498 224.813 150.514 224.813 153.502C224.813 156.472 226.037 158.488 227.837 158.488ZM222.905 153.502C222.905 149.578 224.939 146.824 227.837 146.824C230.717 146.824 232.751 149.578 232.751 153.502C232.751 157.408 230.717 160.18 227.837 160.18C224.939 160.18 222.905 157.408 222.905 153.502Z" fill="#15151A"/>
<path d="M413.687 151.186L411.779 150.952L412.229 143.95H419.231V145.624H414.065L413.849 148.828C414.443 148.558 415.109 148.396 415.703 148.396C418.403 148.396 420.311 150.214 420.311 152.788C420.311 155.398 418.403 157.234 415.703 157.234C413.579 157.234 411.743 155.812 411.275 153.796L413.129 153.364C413.399 154.57 414.461 155.434 415.703 155.434C417.287 155.434 418.403 154.336 418.403 152.788C418.403 151.276 417.287 150.196 415.703 150.196C415.037 150.196 414.209 150.61 413.687 151.186ZM423.291 155.182C423.939 155.182 424.389 155.65 424.389 156.298C424.389 156.964 423.939 157.432 423.291 157.432C422.625 157.432 422.157 156.964 422.157 156.298C422.157 155.65 422.625 155.182 423.291 155.182ZM431.649 145.48C430.101 145.48 429.003 146.596 429.003 148.18C429.003 149.764 430.101 150.88 431.649 150.88C433.179 150.88 434.259 149.764 434.259 148.18C434.259 146.596 433.179 145.48 431.649 145.48ZM427.095 148.18C427.095 145.606 428.967 143.806 431.631 143.806C434.295 143.806 436.167 145.606 436.167 148.18C436.167 149.116 435.825 149.98 435.447 150.664L431.847 157.072H429.651L432.261 152.482C432.045 152.518 431.829 152.554 431.595 152.554C428.949 152.536 427.095 150.736 427.095 148.18ZM442.837 155.488C444.637 155.488 445.843 153.472 445.843 150.502C445.843 147.514 444.637 145.498 442.837 145.498C441.037 145.498 439.813 147.514 439.813 150.502C439.813 153.472 441.037 155.488 442.837 155.488ZM437.905 150.502C437.905 146.578 439.939 143.824 442.837 143.824C445.717 143.824 447.751 146.578 447.751 150.502C447.751 154.408 445.717 157.18 442.837 157.18C439.939 157.18 437.905 154.408 437.905 150.502Z" fill="#15151A"/>
<path d="M623.687 151.186L621.779 150.952L622.229 143.95H629.231V145.624H624.065L623.849 148.828C624.443 148.558 625.109 148.396 625.703 148.396C628.403 148.396 630.311 150.214 630.311 152.788C630.311 155.398 628.403 157.234 625.703 157.234C623.579 157.234 621.743 155.812 621.275 153.796L623.129 153.364C623.399 154.57 624.461 155.434 625.703 155.434C627.287 155.434 628.403 154.336 628.403 152.788C628.403 151.276 627.287 150.196 625.703 150.196C625.037 150.196 624.209 150.61 623.687 151.186ZM633.291 155.182C633.939 155.182 634.389 155.65 634.389 156.298C634.389 156.964 633.939 157.432 633.291 157.432C632.625 157.432 632.157 156.964 632.157 156.298C632.157 155.65 632.625 155.182 633.291 155.182ZM641.649 145.48C640.101 145.48 639.003 146.596 639.003 148.18C639.003 149.764 640.101 150.88 641.649 150.88C643.179 150.88 644.259 149.764 644.259 148.18C644.259 146.596 643.179 145.48 641.649 145.48ZM637.095 148.18C637.095 145.606 638.967 143.806 641.631 143.806C644.295 143.806 646.167 145.606 646.167 148.18C646.167 149.116 645.825 149.98 645.447 150.664L641.847 157.072H639.651L642.261 152.482C642.045 152.518 641.829 152.554 641.595 152.554C638.949 152.536 637.095 150.736 637.095 148.18ZM652.837 155.488C654.637 155.488 655.843 153.472 655.843 150.502C655.843 147.514 654.637 145.498 652.837 145.498C651.037 145.498 649.813 147.514 649.813 150.502C649.813 153.472 651.037 155.488 652.837 155.488ZM647.905 150.502C647.905 146.578 649.939 143.824 652.837 143.824C655.717 143.824 657.751 146.578 657.751 150.502C657.751 154.408 655.717 157.18 652.837 157.18C649.939 157.18 647.905 154.408 647.905 150.502Z" fill="#15151A"/>
<path d="M843.635 155.186L841.727 154.952L842.177 147.95H849.179V149.624H844.013L843.797 152.828C844.391 152.558 845.057 152.396 845.651 152.396C848.351 152.396 850.259 154.214 850.259 156.788C850.259 159.398 848.351 161.234 845.651 161.234C843.527 161.234 841.691 159.812 841.223 157.796L843.077 157.364C843.347 158.57 844.409 159.434 845.651 159.434C847.235 159.434 848.351 158.336 848.351 156.788C848.351 155.276 847.235 154.196 845.651 154.196C844.985 154.196 844.157 154.61 843.635 155.186ZM853.239 159.182C853.887 159.182 854.337 159.65 854.337 160.298C854.337 160.964 853.887 161.432 853.239 161.432C852.573 161.432 852.105 160.964 852.105 160.298C852.105 159.65 852.573 159.182 853.239 159.182ZM861.507 159.632C863.001 159.632 864.045 158.678 864.045 157.31C864.045 155.942 863.001 154.97 861.507 154.97C860.013 154.97 858.951 155.942 858.951 157.31C858.951 158.678 860.013 159.632 861.507 159.632ZM857.043 157.346C857.043 156.194 857.943 154.862 859.203 154.16C858.159 153.44 857.403 152.27 857.403 151.334C857.403 149.21 859.095 147.734 861.507 147.734C863.919 147.734 865.611 149.21 865.611 151.334C865.611 152.288 864.873 153.458 863.811 154.16C865.071 154.88 865.971 156.194 865.971 157.346C865.971 159.65 864.135 161.27 861.507 161.27C858.897 161.27 857.043 159.65 857.043 157.346ZM859.329 151.334C859.329 152.504 860.229 153.332 861.507 153.332C862.803 153.332 863.703 152.504 863.703 151.334C863.703 150.164 862.803 149.354 861.507 149.354C860.229 149.354 859.329 150.164 859.329 151.334ZM872.285 149.48C870.737 149.48 869.639 150.596 869.639 152.18C869.639 153.764 870.737 154.88 872.285 154.88C873.815 154.88 874.895 153.764 874.895 152.18C874.895 150.596 873.815 149.48 872.285 149.48ZM867.731 152.18C867.731 149.606 869.603 147.806 872.267 147.806C874.931 147.806 876.803 149.606 876.803 152.18C876.803 153.116 876.461 153.98 876.083 154.664L872.483 161.072H870.287L872.897 156.482C872.681 156.518 872.465 156.554 872.231 156.554C869.585 156.536 867.731 154.736 867.731 152.18Z" fill="#15151A"/>
<path d="M1059.39 167.186L1057.48 166.952L1057.93 159.95H1064.93V161.624H1059.77L1059.55 164.828C1060.15 164.558 1060.81 164.396 1061.41 164.396C1064.11 164.396 1066.01 166.214 1066.01 168.788C1066.01 171.398 1064.11 173.234 1061.41 173.234C1059.28 173.234 1057.45 171.812 1056.98 169.796L1058.83 169.364C1059.1 170.57 1060.16 171.434 1061.41 171.434C1062.99 171.434 1064.11 170.336 1064.11 168.788C1064.11 167.276 1062.99 166.196 1061.41 166.196C1060.74 166.196 1059.91 166.61 1059.39 167.186ZM1068.99 171.182C1069.64 171.182 1070.09 171.65 1070.09 172.298C1070.09 172.964 1069.64 173.432 1068.99 173.432C1068.33 173.432 1067.86 172.964 1067.86 172.298C1067.86 171.65 1068.33 171.182 1068.99 171.182ZM1076.06 173.09H1073.97L1079.1 161.57L1073.09 161.588V159.896H1081.01L1081.19 161.57L1076.06 173.09ZM1085.41 167.186L1083.5 166.952L1083.95 159.95H1090.95V161.624H1085.78L1085.57 164.828C1086.16 164.558 1086.83 164.396 1087.42 164.396C1090.12 164.396 1092.03 166.214 1092.03 168.788C1092.03 171.398 1090.12 173.234 1087.42 173.234C1085.3 173.234 1083.46 171.812 1082.99 169.796L1084.85 169.364C1085.12 170.57 1086.18 171.434 1087.42 171.434C1089.01 171.434 1090.12 170.336 1090.12 168.788C1090.12 167.276 1089.01 166.196 1087.42 166.196C1086.76 166.196 1085.93 166.61 1085.41 167.186Z" fill="#15151A"/>
<path d="M0 68H82" stroke="#9735D0" stroke-width="2"/>
<g opacity="0.5">
<path d="M213.5 180H430H639.5L859 184.5L1074.5 197" stroke="#9735D0" stroke-width="2" stroke-dasharray="4 4"/>
<circle cx="214" cy="180" r="4" fill="#9735D0"/>
<circle cx="429" cy="181" r="4" fill="#9735D0"/>
<circle cx="639" cy="181" r="4" fill="#9735D0"/>
<circle cx="859" cy="185" r="4" fill="#9735D0"/>
<circle cx="1074" cy="197" r="4" fill="#9735D0"/>
<path d="M0 38H82" stroke="#9735D0" stroke-width="2" stroke-dasharray="4 4"/>
<circle cx="41" cy="38" r="4" fill="#9735D0"/>
</g>
<circle cx="41" cy="68" r="4" fill="#6D0CA6"/>
<circle cx="41" cy="68" r="6.5" stroke="#6D0CA6"/>
<path d="M106.544 30.632C108.656 30.632 110.224 31.912 110.224 33.768C110.224 35.608 108.656 36.872 106.544 36.872C104.448 36.872 102.896 35.608 102.896 33.768C102.896 31.912 104.448 30.632 106.544 30.632ZM104.24 33.768C104.24 34.952 105.232 35.752 106.544 35.752C107.888 35.752 108.864 34.952 108.864 33.768C108.864 32.568 107.888 31.752 106.544 31.752C105.232 31.752 104.24 32.568 104.24 33.768ZM105.024 39.08V37.992H114.16V41.464H106.4V42.92H114.624V44.024H105.072V40.44H112.784V39.08H105.024ZM112.768 37.32V30.136H114.16V37.32H112.768ZM126.064 30.136H127.456V35.88H129.728V37.032H127.456V44.216H126.064V30.136ZM116.512 33.48V32.36H120V30.312H121.408V32.36H124.816V33.48H116.512ZM117.28 37.848C117.28 35.944 118.736 34.6 120.72 34.6C122.72 34.6 124.176 35.944 124.176 37.848C124.176 39.768 122.72 41.096 120.72 41.096C118.736 41.096 117.28 39.768 117.28 37.848ZM118.608 37.848C118.608 39.096 119.488 39.944 120.72 39.944C121.952 39.944 122.832 39.096 122.832 37.848C122.832 36.616 121.952 35.736 120.72 35.736C119.488 35.736 118.608 36.616 118.608 37.848ZM140.753 30.12H142.145V44.2H140.753V30.12ZM130.721 40.504C134.465 38.712 136.305 36.072 136.577 32.76H131.377V31.624H137.985C137.985 35.736 136.209 39.304 131.457 41.608L130.721 40.504ZM150.225 34.312H151.601V35.928H157.313V37.048H144.561V35.928H150.225V34.312ZM145.217 34.12C147.681 33.928 149.793 32.936 149.985 31.64H145.729V30.552H156.129V31.64H151.857C152.049 32.936 154.161 33.928 156.641 34.12L156.193 35.16C153.761 34.952 151.665 34.04 150.929 32.616C150.177 34.04 148.081 34.952 145.649 35.16L145.217 34.12ZM145.745 39.928V38.856H150.225V37.576H151.617V38.856H156.097V39.928H145.745ZM146.689 42.424C146.689 41.208 148.209 40.584 150.913 40.584C153.633 40.584 155.137 41.208 155.137 42.424C155.137 43.656 153.633 44.28 150.913 44.28C148.209 44.28 146.689 43.656 146.689 42.424ZM148.113 42.424C148.113 43.032 149.105 43.336 150.913 43.336C152.737 43.336 153.729 43.032 153.729 42.424C153.729 41.816 152.737 41.528 150.913 41.528C149.105 41.528 148.113 41.816 148.113 42.424ZM158.546 37.512H171.266V38.632H158.546V37.512ZM159.922 33.416C159.922 31.656 161.874 30.6 164.898 30.6C167.922 30.6 169.874 31.656 169.874 33.416C169.874 35.176 167.922 36.248 164.898 36.248C161.874 36.248 159.922 35.176 159.922 33.416ZM160.178 43.912V39.832H161.554V42.776H169.858V43.912H160.178ZM161.346 33.416C161.346 34.488 162.738 35.128 164.898 35.128C167.074 35.128 168.45 34.488 168.45 33.416C168.45 32.344 167.074 31.736 164.898 31.736C162.738 31.736 161.346 32.344 161.346 33.416ZM172.514 37.304H185.266V38.424H179.698V41.208H178.306V38.424H172.514V37.304ZM174.114 43.912V39.864H175.506V42.792H183.858V43.912H174.114ZM174.146 35.768V30.792H183.618V35.768H174.146ZM175.506 34.648H182.258V31.88H175.506V34.648ZM196.018 30.136H197.41V36.072H199.538V37.24H197.41V44.216H196.018V30.136ZM186.354 40.408C187.474 40.408 188.77 40.408 190.114 40.36V38.888C188.53 38.68 187.474 37.72 187.474 36.328C187.474 34.744 188.834 33.72 190.802 33.72C192.77 33.72 194.146 34.744 194.146 36.328C194.146 37.72 193.09 38.68 191.506 38.888V40.312C192.754 40.248 194.018 40.152 195.186 39.976L195.298 40.984C192.274 41.56 188.994 41.576 186.562 41.576L186.354 40.408ZM186.594 32.92V31.816H190.114V30.152H191.506V31.816H194.994V32.92H186.594ZM188.786 36.328C188.786 37.272 189.602 37.864 190.802 37.864C192.018 37.864 192.834 37.272 192.834 36.328C192.834 35.384 192.018 34.776 190.802 34.776C189.602 34.776 188.786 35.384 188.786 36.328Z" fill="#3F3F46"/>
<path d="M113.152 60.136H114.48V69.016H113.152V65.048H111.456V68.52H110.16V60.408H111.456V63.912H113.152V60.136ZM102.512 62.888V61.768H105.408V60.248H106.768V61.768H109.616V62.888H102.512ZM103.088 65.976C103.088 64.52 104.32 63.56 106.08 63.56C107.856 63.56 109.088 64.52 109.088 65.976C109.088 67.448 107.856 68.392 106.08 68.392C104.32 68.392 103.088 67.448 103.088 65.976ZM104.32 65.976C104.32 66.824 105.04 67.384 106.08 67.384C107.12 67.384 107.856 66.824 107.856 65.976C107.856 65.128 107.12 64.6 106.08 64.6C105.04 64.6 104.32 65.128 104.32 65.976ZM105.12 71.72C105.12 70.152 106.88 69.256 109.824 69.256C112.8 69.256 114.56 70.152 114.56 71.72C114.56 73.288 112.8 74.184 109.824 74.184C106.88 74.184 105.12 73.288 105.12 71.72ZM106.48 71.72C106.48 72.632 107.728 73.128 109.824 73.128C111.952 73.128 113.168 72.632 113.168 71.72C113.168 70.792 111.952 70.312 109.824 70.312C107.728 70.312 106.48 70.792 106.48 71.72ZM116.592 67.352H122.256V65.752H118.272V60.472H119.648V62.008H126.272V60.472H127.664V65.752H123.632V67.352H129.312V68.472H116.592V67.352ZM118 70.92V69.816H127.744V74.216H126.368V70.92H118ZM119.648 64.648H126.272V63.08H119.648V64.648Z" fill="#3F3F46"/>
</svg>
