<svg width="1200" height="459" viewBox="0 0 1200 459" fill="none" xmlns="http://www.w3.org/2000/svg">
<rect y="388" width="1200" height="2" fill="#71717A"/>
<rect x="202" y="385" width="8" height="8" rx="4" fill="#3F3F46"/>
<rect x="421" y="385" width="8" height="8" rx="4" fill="#3F3F46"/>
<rect x="640" y="385" width="8" height="8" rx="4" fill="#3F3F46"/>
<rect x="859" y="385" width="8" height="8" rx="4" fill="#3F3F46"/>
<rect x="1079" y="385" width="8" height="8" rx="4" fill="#3F3F46"/>
<path d="M169.636 425.664L166.132 419.44V428.128H164.436V416.32H166.276L170.388 423.536L174.484 416.32H176.34V428.128H174.644V419.44L171.124 425.664H169.636ZM182.043 428.208C179.931 428.208 178.427 426.608 178.427 424.368C178.427 422.128 179.931 420.528 182.043 420.528C182.795 420.528 183.627 420.88 184.235 421.6V420.512H185.931V428.144H184.235V427.12C183.627 427.888 182.795 428.208 182.043 428.208ZM180.123 424.368C180.123 425.808 180.939 426.768 182.155 426.768C183.275 426.768 184.235 425.76 184.251 424.368C184.235 422.976 183.275 421.968 182.155 421.968C180.939 421.968 180.123 422.912 180.123 424.368ZM187.932 428.144V420.512H189.628V421.632C190.14 420.912 191.068 420.432 191.964 420.48V422.048C190.604 421.984 189.628 423.184 189.628 424.352V428.144H187.932ZM196.305 426.576C196.897 426.576 197.585 426.272 198.017 425.792L199.185 426.96C198.529 427.68 197.329 428.192 196.369 428.192C194.097 428.192 192.497 426.592 192.497 424.352C192.497 422.096 194.097 420.496 196.369 420.496C197.377 420.496 198.497 421.008 199.185 421.744L198.017 422.896C197.585 422.416 196.897 422.112 196.305 422.112C195.041 422.112 194.193 422.992 194.193 424.352C194.193 425.696 195.041 426.576 196.305 426.576ZM205.868 423.968C205.868 422.704 205.26 421.904 204.348 421.904C203.292 421.904 202.476 422.896 202.476 424.128V428H200.78V416.704H202.476V421.408C202.94 420.816 203.692 420.432 204.348 420.432C206.236 420.432 207.58 421.84 207.58 423.776V428H205.868V423.968ZM213.446 426.56C215.782 424.32 218.966 422.048 218.966 420.08C218.966 418.768 218.134 417.84 216.95 417.84C216.038 417.84 215.126 418.496 214.71 419.44L213.222 418.784C213.862 417.312 215.414 416.288 216.95 416.288C219.142 416.288 220.662 417.856 220.662 420.08C220.662 422.528 218.006 424.704 215.846 426.56H220.854V428.048H213.606L213.446 426.56ZM226.793 426.656C228.393 426.656 229.465 424.864 229.465 422.224C229.465 419.568 228.393 417.776 226.793 417.776C225.193 417.776 224.105 419.568 224.105 422.224C224.105 424.864 225.193 426.656 226.793 426.656ZM222.409 422.224C222.409 418.736 224.217 416.288 226.793 416.288C229.353 416.288 231.161 418.736 231.161 422.224C231.161 425.696 229.353 428.16 226.793 428.16C224.217 428.16 222.409 425.696 222.409 422.224ZM232.962 426.56C235.298 424.32 238.482 422.048 238.482 420.08C238.482 418.768 237.65 417.84 236.466 417.84C235.554 417.84 234.642 418.496 234.226 419.44L232.738 418.784C233.378 417.312 234.93 416.288 236.466 416.288C238.658 416.288 240.178 417.856 240.178 420.08C240.178 422.528 237.522 424.704 235.362 426.56H240.37V428.048H233.122L232.962 426.56ZM246.276 416.416V428.048L244.58 428.032V418.224L242.532 419.36L241.828 417.936L244.596 416.416H246.276Z" fill="#71717A"/>
<path d="M395.345 424.528C395.345 426.704 393.809 428.24 391.633 428.24C390.241 428.24 388.833 427.328 388.241 426.048L389.761 425.312C390.161 426.16 390.929 426.752 391.649 426.752C392.817 426.752 393.633 425.824 393.633 424.528V416.32H395.345V424.528ZM399.474 424.864C399.474 426.032 400.162 426.752 401.17 426.752C402.242 426.752 402.978 426.048 402.962 424.88V420.512H404.674V428.144H402.962V427.264C402.482 427.856 401.698 428.208 400.946 428.208C399.106 428.208 397.778 426.88 397.778 424.928V420.512H399.474V424.864ZM412.056 423.936C412.056 422.72 411.432 421.984 410.376 421.984C409.336 422 408.536 422.816 408.552 423.936V428.144H406.856V420.512H408.552V421.552C409.032 420.96 409.848 420.528 410.584 420.528C412.024 420.528 413.752 421.472 413.752 423.872V428.144H412.056V423.936ZM419.153 428.176C416.993 428.176 415.473 426.592 415.473 424.352C415.473 422.096 416.993 420.512 419.153 420.512C421.521 420.512 422.273 422.448 422.321 422.576C422.785 423.664 422.641 424.88 422.641 425.008H417.137C417.329 426.032 418.193 426.736 419.153 426.736C420.417 426.736 420.929 426 421.057 425.776L422.417 426.384C422.049 427.248 420.977 428.176 419.153 428.176ZM417.137 423.664H421.041C420.881 422.72 420.337 421.952 419.153 421.952C418.129 421.952 417.329 422.672 417.137 423.664ZM428.305 426.56C430.641 424.32 433.825 422.048 433.825 420.08C433.825 418.768 432.993 417.84 431.809 417.84C430.897 417.84 429.985 418.496 429.569 419.44L428.081 418.784C428.721 417.312 430.273 416.288 431.809 416.288C434.001 416.288 435.521 417.856 435.521 420.08C435.521 422.528 432.865 424.704 430.705 426.56H435.713V428.048H428.465L428.305 426.56ZM441.652 426.656C443.252 426.656 444.324 424.864 444.324 422.224C444.324 419.568 443.252 417.776 441.652 417.776C440.052 417.776 438.964 419.568 438.964 422.224C438.964 424.864 440.052 426.656 441.652 426.656ZM437.268 422.224C437.268 418.736 439.076 416.288 441.652 416.288C444.212 416.288 446.02 418.736 446.02 422.224C446.02 425.696 444.212 428.16 441.652 428.16C439.076 428.16 437.268 425.696 437.268 422.224ZM447.821 426.56C450.157 424.32 453.341 422.048 453.341 420.08C453.341 418.768 452.509 417.84 451.325 417.84C450.413 417.84 449.501 418.496 449.085 419.44L447.597 418.784C448.237 417.312 449.789 416.288 451.325 416.288C453.517 416.288 455.037 417.856 455.037 420.08C455.037 422.528 452.381 424.704 450.221 426.56H455.229V428.048H447.981L447.821 426.56ZM461.136 416.416V428.048L459.44 428.032V418.224L457.392 419.36L456.688 417.936L459.456 416.416H461.136Z" fill="#71717A"/>
<path d="M604.957 416.32L609.341 428.128H607.533L606.349 424.912H601.501L600.269 428.128H598.461L602.925 416.32H604.957ZM602.045 423.44H605.789L603.949 418.464L602.045 423.44ZM612.583 424.864C612.583 426.032 613.271 426.752 614.279 426.752C615.351 426.752 616.087 426.048 616.071 424.88V420.512H617.783V428.144H616.071V427.264C615.591 427.856 614.807 428.208 614.055 428.208C612.215 428.208 610.887 426.88 610.887 424.928V420.512H612.583V424.864ZM623.373 426.736C624.589 426.736 625.469 425.664 625.469 424.336C625.469 423.04 624.589 421.952 623.373 421.952C622.173 421.952 621.357 422.896 621.357 424.336C621.357 425.792 622.173 426.736 623.373 426.736ZM619.661 424.352C619.661 422.112 621.165 420.496 623.277 420.496C624.061 420.496 624.941 420.896 625.469 421.616V420.496H627.165V427.568C627.165 429.744 625.693 431.536 623.357 431.536C622.077 431.536 620.845 431.008 620.093 429.76L621.437 428.864C621.997 429.68 622.541 430.032 623.357 430.032C624.717 430.032 625.469 428.96 625.469 427.712V427.04C624.877 427.792 623.997 428.192 623.277 428.192C621.165 428.192 619.661 426.592 619.661 424.352ZM631.224 424.864C631.224 426.032 631.912 426.752 632.92 426.752C633.992 426.752 634.728 426.048 634.712 424.88V420.512H636.424V428.144H634.712V427.264C634.232 427.856 633.448 428.208 632.696 428.208C630.856 428.208 629.528 426.88 629.528 424.928V420.512H631.224V424.864ZM639.662 425.52C639.998 426.352 640.83 426.736 641.342 426.736C642.141 426.736 642.654 426.432 642.654 425.904C642.654 425.424 641.95 425.2 641.166 424.928C640.126 424.56 638.654 424.064 638.654 422.592C638.654 421.248 639.886 420.432 641.454 420.432C642.398 420.432 643.806 420.976 644.19 422.352L642.766 422.864C642.51 422.016 641.822 421.888 641.454 421.888C640.782 421.888 640.35 422.16 640.35 422.592C640.35 423.072 641.006 423.264 641.822 423.552C642.91 423.936 644.35 424.432 644.35 425.888C644.35 427.28 643.118 428.192 641.342 428.192C640.174 428.192 638.894 427.456 638.334 426.288L639.662 425.52ZM647.003 428.144V421.968H645.563V420.496H647.003V417.824H648.699V420.496H650.507V421.968H648.699V428.144H647.003ZM656.149 426.56C658.485 424.32 661.669 422.048 661.669 420.08C661.669 418.768 660.837 417.84 659.653 417.84C658.741 417.84 657.829 418.496 657.413 419.44L655.925 418.784C656.565 417.312 658.117 416.288 659.653 416.288C661.845 416.288 663.365 417.856 663.365 420.08C663.365 422.528 660.709 424.704 658.549 426.56H663.557V428.048H656.309L656.149 426.56ZM669.496 426.656C671.096 426.656 672.168 424.864 672.168 422.224C672.168 419.568 671.096 417.776 669.496 417.776C667.896 417.776 666.808 419.568 666.808 422.224C666.808 424.864 667.896 426.656 669.496 426.656ZM665.112 422.224C665.112 418.736 666.92 416.288 669.496 416.288C672.056 416.288 673.864 418.736 673.864 422.224C673.864 425.696 672.056 428.16 669.496 428.16C666.92 428.16 665.112 425.696 665.112 422.224ZM675.665 426.56C678.001 424.32 681.185 422.048 681.185 420.08C681.185 418.768 680.353 417.84 679.169 417.84C678.257 417.84 677.345 418.496 676.929 419.44L675.441 418.784C676.081 417.312 677.633 416.288 679.169 416.288C681.361 416.288 682.881 417.856 682.881 420.08C682.881 422.528 680.225 424.704 678.065 426.56H683.073V428.048H675.825L675.665 426.56ZM688.979 416.416V428.048L687.283 428.032V418.224L685.235 419.36L684.531 417.936L687.299 416.416H688.979Z" fill="#71717A"/>
<path d="M831.856 416.32L836.24 428.128H834.432L833.248 424.912H828.4L827.168 428.128H825.36L829.824 416.32H831.856ZM828.944 423.44H832.688L830.848 418.464L828.944 423.44ZM842.002 426.752C843.234 426.752 844.034 425.792 844.034 424.336C844.034 422.88 843.234 421.92 842.002 421.92C840.85 421.92 839.906 422.992 839.906 424.336C839.906 425.68 840.85 426.752 842.002 426.752ZM838.194 431.52V420.496H839.89V421.616C840.498 420.816 841.506 420.496 842.098 420.496C844.226 420.496 845.73 422.08 845.73 424.336C845.73 426.608 844.226 428.192 842.098 428.192C841.49 428.192 840.498 427.856 839.89 427.056V431.52H838.194ZM847.361 428.144V420.512H849.057V421.632C849.569 420.912 850.497 420.432 851.393 420.48V422.048C850.033 421.984 849.057 423.184 849.057 424.352V428.144H847.361ZM853.335 420.496H855.031V428.128H853.335V420.496ZM853.223 417.648C853.223 417.088 853.623 416.688 854.183 416.688C854.743 416.688 855.143 417.088 855.143 417.648C855.143 418.208 854.743 418.608 854.183 418.608C853.623 418.608 853.223 418.208 853.223 417.648ZM857.267 416.704H858.963V428.128H857.267V416.704ZM864.719 426.56C867.055 424.32 870.239 422.048 870.239 420.08C870.239 418.768 869.407 417.84 868.223 417.84C867.311 417.84 866.399 418.496 865.983 419.44L864.495 418.784C865.135 417.312 866.687 416.288 868.223 416.288C870.415 416.288 871.935 417.856 871.935 420.08C871.935 422.528 869.279 424.704 867.119 426.56H872.127V428.048H864.879L864.719 426.56ZM878.066 426.656C879.666 426.656 880.738 424.864 880.738 422.224C880.738 419.568 879.666 417.776 878.066 417.776C876.466 417.776 875.378 419.568 875.378 422.224C875.378 424.864 876.466 426.656 878.066 426.656ZM873.682 422.224C873.682 418.736 875.49 416.288 878.066 416.288C880.626 416.288 882.434 418.736 882.434 422.224C882.434 425.696 880.626 428.16 878.066 428.16C875.49 428.16 873.682 425.696 873.682 422.224ZM884.235 426.56C886.571 424.32 889.755 422.048 889.755 420.08C889.755 418.768 888.923 417.84 887.739 417.84C886.827 417.84 885.915 418.496 885.499 419.44L884.011 418.784C884.651 417.312 886.203 416.288 887.739 416.288C889.931 416.288 891.451 417.856 891.451 420.08C891.451 422.528 888.795 424.704 886.635 426.56H891.643V428.048H884.395L884.235 426.56ZM893.454 426.56C895.79 424.32 898.974 422.048 898.974 420.08C898.974 418.768 898.142 417.84 896.958 417.84C896.046 417.84 895.134 418.496 894.718 419.44L893.23 418.784C893.87 417.312 895.422 416.288 896.958 416.288C899.15 416.288 900.67 417.856 900.67 420.08C900.67 422.528 898.014 424.704 895.854 426.56H900.862V428.048H893.614L893.454 426.56Z" fill="#71717A"/>
<path d="M1056.05 424.528C1056.05 426.704 1054.51 428.24 1052.34 428.24C1050.94 428.24 1049.54 427.328 1048.94 426.048L1050.46 425.312C1050.86 426.16 1051.63 426.752 1052.35 426.752C1053.52 426.752 1054.34 425.824 1054.34 424.528V416.32H1056.05V424.528ZM1060.18 424.864C1060.18 426.032 1060.86 426.752 1061.87 426.752C1062.94 426.752 1063.68 426.048 1063.66 424.88V420.512H1065.38V428.144H1063.66V427.264C1063.18 427.856 1062.4 428.208 1061.65 428.208C1059.81 428.208 1058.48 426.88 1058.48 424.928V420.512H1060.18V424.864ZM1067.43 416.704H1069.13V428.128H1067.43V416.704ZM1074.05 431.456H1072.19L1073.86 427.504L1070.78 420.512H1072.66L1074.75 425.568L1076.77 420.512H1078.61L1075.76 427.376L1074.05 431.456ZM1084.07 426.56C1086.41 424.32 1089.59 422.048 1089.59 420.08C1089.59 418.768 1088.76 417.84 1087.57 417.84C1086.66 417.84 1085.75 418.496 1085.33 419.44L1083.85 418.784C1084.49 417.312 1086.04 416.288 1087.57 416.288C1089.77 416.288 1091.29 417.856 1091.29 420.08C1091.29 422.528 1088.63 424.704 1086.47 426.56H1091.48V428.048H1084.23L1084.07 426.56ZM1097.42 426.656C1099.02 426.656 1100.09 424.864 1100.09 422.224C1100.09 419.568 1099.02 417.776 1097.42 417.776C1095.82 417.776 1094.73 419.568 1094.73 422.224C1094.73 424.864 1095.82 426.656 1097.42 426.656ZM1093.03 422.224C1093.03 418.736 1094.84 416.288 1097.42 416.288C1099.98 416.288 1101.79 418.736 1101.79 422.224C1101.79 425.696 1099.98 428.16 1097.42 428.16C1094.84 428.16 1093.03 425.696 1093.03 422.224ZM1103.59 426.56C1105.92 424.32 1109.11 422.048 1109.11 420.08C1109.11 418.768 1108.27 417.84 1107.09 417.84C1106.18 417.84 1105.27 418.496 1104.85 419.44L1103.36 418.784C1104 417.312 1105.55 416.288 1107.09 416.288C1109.28 416.288 1110.8 417.856 1110.8 420.08C1110.8 422.528 1108.15 424.704 1105.99 426.56H1110.99V428.048H1103.75L1103.59 426.56ZM1112.81 426.56C1115.14 424.32 1118.33 422.048 1118.33 420.08C1118.33 418.768 1117.49 417.84 1116.31 417.84C1115.4 417.84 1114.49 418.496 1114.07 419.44L1112.58 418.784C1113.22 417.312 1114.77 416.288 1116.31 416.288C1118.5 416.288 1120.02 417.856 1120.02 420.08C1120.02 422.528 1117.37 424.704 1115.21 426.56H1120.21V428.048H1112.97L1112.81 426.56Z" fill="#71717A"/>
<path d="M214 219L428.5 221L639.5 226.5L859.5 232L1073.5 247" stroke="#9735D0" stroke-width="2"/>
<circle cx="214" cy="219" r="6.5" stroke="#6D0CA6"/>
<circle cx="214" cy="219" r="4" fill="#6D0CA6"/>
<circle cx="429" cy="221" r="6.5" stroke="#6D0CA6"/>
<circle cx="429" cy="221" r="4" fill="#6D0CA6"/>
<circle cx="639" cy="226" r="6.5" stroke="#6D0CA6"/>
<circle cx="639" cy="226" r="4" fill="#6D0CA6"/>
<circle cx="859" cy="232" r="6.5" stroke="#6D0CA6"/>
<circle cx="859" cy="232" r="4" fill="#6D0CA6"/>
<circle cx="1074" cy="247" r="6.5" stroke="#6D0CA6"/>
<circle cx="1074" cy="247" r="4" fill="#6D0CA6"/>
<path d="M413.503 249.186L411.595 248.952L412.045 241.95H419.047V243.624H413.881L413.665 246.828C414.259 246.558 414.925 246.396 415.519 246.396C418.219 246.396 420.127 248.214 420.127 250.788C420.127 253.398 418.219 255.234 415.519 255.234C413.395 255.234 411.559 253.812 411.091 251.796L412.945 251.364C413.215 252.57 414.277 253.434 415.519 253.434C417.103 253.434 418.219 252.336 418.219 250.788C418.219 249.276 417.103 248.196 415.519 248.196C414.853 248.196 414.025 248.61 413.503 249.186ZM423.108 253.182C423.756 253.182 424.206 253.65 424.206 254.298C424.206 254.964 423.756 255.432 423.108 255.432C422.442 255.432 421.974 254.964 421.974 254.298C421.974 253.65 422.442 253.182 423.108 253.182ZM433.877 248.286C435.047 248.97 435.785 250.248 435.785 251.346C435.785 253.578 433.949 255.162 431.339 255.162C428.747 255.162 426.911 253.542 426.911 251.238H428.819C428.819 252.552 429.863 253.47 431.339 253.47C432.851 253.47 433.931 252.552 433.931 251.238C433.931 249.978 432.869 249.078 431.375 249.078H430.439V247.476H431.393C432.761 247.476 433.733 246.666 433.733 245.514C433.733 244.344 432.797 243.534 431.465 243.534C430.133 243.534 429.215 244.362 429.215 245.532H427.307C427.307 243.354 429.017 241.842 431.465 241.842C433.877 241.842 435.587 243.318 435.587 245.406C435.587 246.414 434.939 247.602 433.877 248.286ZM445.268 241.95V250.014H446.924V251.67H445.268V255.054H443.36V251.67H437.726L437.546 250.014L443.45 241.95H445.268ZM439.814 250.014H443.36V245.136L439.814 250.014Z" fill="#15151A"/>
<path d="M623.793 254.186L621.885 253.952L622.335 246.95H629.337V248.624H624.171L623.955 251.828C624.549 251.558 625.215 251.396 625.809 251.396C628.509 251.396 630.417 253.214 630.417 255.788C630.417 258.398 628.509 260.234 625.809 260.234C623.685 260.234 621.849 258.812 621.381 256.796L623.235 256.364C623.505 257.57 624.567 258.434 625.809 258.434C627.393 258.434 628.509 257.336 628.509 255.788C628.509 254.276 627.393 253.196 625.809 253.196C625.143 253.196 624.315 253.61 623.793 254.186ZM633.398 258.182C634.046 258.182 634.496 258.65 634.496 259.298C634.496 259.964 634.046 260.432 633.398 260.432C632.732 260.432 632.264 259.964 632.264 259.298C632.264 258.65 632.732 258.182 633.398 258.182ZM637.471 258.38C640.099 255.86 643.681 253.304 643.681 251.09C643.681 249.614 642.745 248.57 641.413 248.57C640.387 248.57 639.361 249.308 638.893 250.37L637.219 249.632C637.939 247.976 639.685 246.824 641.413 246.824C643.879 246.824 645.589 248.588 645.589 251.09C645.589 253.844 642.601 256.292 640.171 258.38H645.805V260.054H637.651L637.471 258.38ZM652.09 258.506C653.638 258.506 654.736 257.39 654.736 255.824C654.736 254.222 653.638 253.106 652.09 253.106C650.56 253.106 649.48 254.222 649.48 255.824C649.48 257.39 650.56 258.506 652.09 258.506ZM647.572 255.824C647.572 254.87 647.914 254.024 648.292 253.322L651.892 246.914H654.088L651.478 251.504C651.694 251.468 651.91 251.432 652.144 251.432C654.79 251.45 656.644 253.25 656.644 255.824C656.644 258.38 654.772 260.18 652.108 260.18C649.444 260.18 647.572 258.38 647.572 255.824Z" fill="#15151A"/>
<path d="M845.717 260.186L843.809 259.952L844.259 252.95H851.261V254.624H846.095L845.879 257.828C846.473 257.558 847.139 257.396 847.733 257.396C850.433 257.396 852.341 259.214 852.341 261.788C852.341 264.398 850.433 266.234 847.733 266.234C845.609 266.234 843.773 264.812 843.305 262.796L845.159 262.364C845.429 263.57 846.491 264.434 847.733 264.434C849.317 264.434 850.433 263.336 850.433 261.788C850.433 260.276 849.317 259.196 847.733 259.196C847.067 259.196 846.239 259.61 845.717 260.186ZM855.321 264.182C855.969 264.182 856.419 264.65 856.419 265.298C856.419 265.964 855.969 266.432 855.321 266.432C854.655 266.432 854.187 265.964 854.187 265.298C854.187 264.65 854.655 264.182 855.321 264.182ZM864.003 252.968V266.054L862.095 266.036V255.002L859.791 256.28L858.999 254.678L862.113 252.968H864.003ZM871.203 254.48C869.655 254.48 868.557 255.596 868.557 257.18C868.557 258.764 869.655 259.88 871.203 259.88C872.733 259.88 873.813 258.764 873.813 257.18C873.813 255.596 872.733 254.48 871.203 254.48ZM866.649 257.18C866.649 254.606 868.521 252.806 871.185 252.806C873.849 252.806 875.721 254.606 875.721 257.18C875.721 258.116 875.379 258.98 875.001 259.664L871.401 266.072H869.205L871.815 261.482C871.599 261.518 871.383 261.554 871.149 261.554C868.503 261.536 866.649 259.736 866.649 257.18Z" fill="#15151A"/>
<path d="M1060.31 275.186L1058.41 274.952L1058.86 267.95H1065.86V269.624H1060.69L1060.48 272.828C1061.07 272.558 1061.74 272.396 1062.33 272.396C1065.03 272.396 1066.94 274.214 1066.94 276.788C1066.94 279.398 1065.03 281.234 1062.33 281.234C1060.21 281.234 1058.37 279.812 1057.9 277.796L1059.76 277.364C1060.03 278.57 1061.09 279.434 1062.33 279.434C1063.91 279.434 1065.03 278.336 1065.03 276.788C1065.03 275.276 1063.91 274.196 1062.33 274.196C1061.66 274.196 1060.84 274.61 1060.31 275.186ZM1069.92 279.182C1070.57 279.182 1071.02 279.65 1071.02 280.298C1071.02 280.964 1070.57 281.432 1069.92 281.432C1069.25 281.432 1068.78 280.964 1068.78 280.298C1068.78 279.65 1069.25 279.182 1069.92 279.182ZM1078.6 267.968V281.054L1076.69 281.036V270.002L1074.39 271.28L1073.6 269.678L1076.71 267.968H1078.6ZM1088.21 274.286C1089.38 274.97 1090.12 276.248 1090.12 277.346C1090.12 279.578 1088.28 281.162 1085.67 281.162C1083.08 281.162 1081.25 279.542 1081.25 277.238H1083.15C1083.15 278.552 1084.2 279.47 1085.67 279.47C1087.19 279.47 1088.27 278.552 1088.27 277.238C1088.27 275.978 1087.2 275.078 1085.71 275.078H1084.77V273.476H1085.73C1087.1 273.476 1088.07 272.666 1088.07 271.514C1088.07 270.344 1087.13 269.534 1085.8 269.534C1084.47 269.534 1083.55 270.362 1083.55 271.532H1081.64C1081.64 269.354 1083.35 267.842 1085.8 267.842C1088.21 267.842 1089.92 269.318 1089.92 271.406C1089.92 272.414 1089.27 273.602 1088.21 274.286Z" fill="#15151A"/>
<path d="M198.662 247.186L196.754 246.952L197.204 239.95H204.206V241.624H199.04L198.824 244.828C199.418 244.558 200.084 244.396 200.678 244.396C203.378 244.396 205.286 246.214 205.286 248.788C205.286 251.398 203.378 253.234 200.678 253.234C198.554 253.234 196.718 251.812 196.25 249.796L198.104 249.364C198.374 250.57 199.436 251.434 200.678 251.434C202.262 251.434 203.378 250.336 203.378 248.788C203.378 247.276 202.262 246.196 200.678 246.196C200.012 246.196 199.184 246.61 198.662 247.186ZM208.266 251.182C208.914 251.182 209.364 251.65 209.364 252.298C209.364 252.964 208.914 253.432 208.266 253.432C207.6 253.432 207.132 252.964 207.132 252.298C207.132 251.65 207.6 251.182 208.266 251.182ZM219.036 246.286C220.206 246.97 220.944 248.248 220.944 249.346C220.944 251.578 219.108 253.162 216.498 253.162C213.906 253.162 212.07 251.542 212.07 249.238H213.978C213.978 250.552 215.022 251.47 216.498 251.47C218.01 251.47 219.09 250.552 219.09 249.238C219.09 247.978 218.028 247.078 216.534 247.078H215.598V245.476H216.552C217.92 245.476 218.892 244.666 218.892 243.514C218.892 242.344 217.956 241.534 216.624 241.534C215.292 241.534 214.374 242.362 214.374 243.532H212.466C212.466 241.354 214.176 239.842 216.624 239.842C219.036 239.842 220.746 241.318 220.746 243.406C220.746 244.414 220.098 245.602 219.036 246.286ZM225.134 247.186L223.226 246.952L223.676 239.95H230.678V241.624H225.512L225.296 244.828C225.89 244.558 226.556 244.396 227.15 244.396C229.85 244.396 231.758 246.214 231.758 248.788C231.758 251.398 229.85 253.234 227.15 253.234C225.026 253.234 223.19 251.812 222.722 249.796L224.576 249.364C224.846 250.57 225.908 251.434 227.15 251.434C228.734 251.434 229.85 250.336 229.85 248.788C229.85 247.276 228.734 246.196 227.15 246.196C226.484 246.196 225.656 246.61 225.134 247.186Z" fill="#15151A"/>
<path d="M198.687 154.186L196.779 153.952L197.229 146.95H204.231V148.624H199.065L198.849 151.828C199.443 151.558 200.109 151.396 200.703 151.396C203.403 151.396 205.311 153.214 205.311 155.788C205.311 158.398 203.403 160.234 200.703 160.234C198.579 160.234 196.743 158.812 196.275 156.796L198.129 156.364C198.399 157.57 199.461 158.434 200.703 158.434C202.287 158.434 203.403 157.336 203.403 155.788C203.403 154.276 202.287 153.196 200.703 153.196C200.037 153.196 199.209 153.61 198.687 154.186ZM208.291 158.182C208.939 158.182 209.389 158.65 209.389 159.298C209.389 159.964 208.939 160.432 208.291 160.432C207.625 160.432 207.157 159.964 207.157 159.298C207.157 158.65 207.625 158.182 208.291 158.182ZM216.649 148.48C215.101 148.48 214.003 149.596 214.003 151.18C214.003 152.764 215.101 153.88 216.649 153.88C218.179 153.88 219.259 152.764 219.259 151.18C219.259 149.596 218.179 148.48 216.649 148.48ZM212.095 151.18C212.095 148.606 213.967 146.806 216.631 146.806C219.295 146.806 221.167 148.606 221.167 151.18C221.167 152.116 220.825 152.98 220.447 153.664L216.847 160.072H214.651L217.261 155.482C217.045 155.518 216.829 155.554 216.595 155.554C213.949 155.536 212.095 153.736 212.095 151.18ZM227.837 158.488C229.637 158.488 230.843 156.472 230.843 153.502C230.843 150.514 229.637 148.498 227.837 148.498C226.037 148.498 224.813 150.514 224.813 153.502C224.813 156.472 226.037 158.488 227.837 158.488ZM222.905 153.502C222.905 149.578 224.939 146.824 227.837 146.824C230.717 146.824 232.751 149.578 232.751 153.502C232.751 157.408 230.717 160.18 227.837 160.18C224.939 160.18 222.905 157.408 222.905 153.502Z" fill="#15151A"/>
<path d="M413.687 151.186L411.779 150.952L412.229 143.95H419.231V145.624H414.065L413.849 148.828C414.443 148.558 415.109 148.396 415.703 148.396C418.403 148.396 420.311 150.214 420.311 152.788C420.311 155.398 418.403 157.234 415.703 157.234C413.579 157.234 411.743 155.812 411.275 153.796L413.129 153.364C413.399 154.57 414.461 155.434 415.703 155.434C417.287 155.434 418.403 154.336 418.403 152.788C418.403 151.276 417.287 150.196 415.703 150.196C415.037 150.196 414.209 150.61 413.687 151.186ZM423.291 155.182C423.939 155.182 424.389 155.65 424.389 156.298C424.389 156.964 423.939 157.432 423.291 157.432C422.625 157.432 422.157 156.964 422.157 156.298C422.157 155.65 422.625 155.182 423.291 155.182ZM431.649 145.48C430.101 145.48 429.003 146.596 429.003 148.18C429.003 149.764 430.101 150.88 431.649 150.88C433.179 150.88 434.259 149.764 434.259 148.18C434.259 146.596 433.179 145.48 431.649 145.48ZM427.095 148.18C427.095 145.606 428.967 143.806 431.631 143.806C434.295 143.806 436.167 145.606 436.167 148.18C436.167 149.116 435.825 149.98 435.447 150.664L431.847 157.072H429.651L432.261 152.482C432.045 152.518 431.829 152.554 431.595 152.554C428.949 152.536 427.095 150.736 427.095 148.18ZM442.837 155.488C444.637 155.488 445.843 153.472 445.843 150.502C445.843 147.514 444.637 145.498 442.837 145.498C441.037 145.498 439.813 147.514 439.813 150.502C439.813 153.472 441.037 155.488 442.837 155.488ZM437.905 150.502C437.905 146.578 439.939 143.824 442.837 143.824C445.717 143.824 447.751 146.578 447.751 150.502C447.751 154.408 445.717 157.18 442.837 157.18C439.939 157.18 437.905 154.408 437.905 150.502Z" fill="#15151A"/>
<path d="M623.687 151.186L621.779 150.952L622.229 143.95H629.231V145.624H624.065L623.849 148.828C624.443 148.558 625.109 148.396 625.703 148.396C628.403 148.396 630.311 150.214 630.311 152.788C630.311 155.398 628.403 157.234 625.703 157.234C623.579 157.234 621.743 155.812 621.275 153.796L623.129 153.364C623.399 154.57 624.461 155.434 625.703 155.434C627.287 155.434 628.403 154.336 628.403 152.788C628.403 151.276 627.287 150.196 625.703 150.196C625.037 150.196 624.209 150.61 623.687 151.186ZM633.291 155.182C633.939 155.182 634.389 155.65 634.389 156.298C634.389 156.964 633.939 157.432 633.291 157.432C632.625 157.432 632.157 156.964 632.157 156.298C632.157 155.65 632.625 155.182 633.291 155.182ZM641.649 145.48C640.101 145.48 639.003 146.596 639.003 148.18C639.003 149.764 640.101 150.88 641.649 150.88C643.179 150.88 644.259 149.764 644.259 148.18C644.259 146.596 643.179 145.48 641.649 145.48ZM637.095 148.18C637.095 145.606 638.967 143.806 641.631 143.806C644.295 143.806 646.167 145.606 646.167 148.18C646.167 149.116 645.825 149.98 645.447 150.664L641.847 157.072H639.651L642.261 152.482C642.045 152.518 641.829 152.554 641.595 152.554C638.949 152.536 637.095 150.736 637.095 148.18ZM652.837 155.488C654.637 155.488 655.843 153.472 655.843 150.502C655.843 147.514 654.637 145.498 652.837 145.498C651.037 145.498 649.813 147.514 649.813 150.502C649.813 153.472 651.037 155.488 652.837 155.488ZM647.905 150.502C647.905 146.578 649.939 143.824 652.837 143.824C655.717 143.824 657.751 146.578 657.751 150.502C657.751 154.408 655.717 157.18 652.837 157.18C649.939 157.18 647.905 154.408 647.905 150.502Z" fill="#15151A"/>
<path d="M843.635 155.186L841.727 154.952L842.177 147.95H849.179V149.624H844.013L843.797 152.828C844.391 152.558 845.057 152.396 845.651 152.396C848.351 152.396 850.259 154.214 850.259 156.788C850.259 159.398 848.351 161.234 845.651 161.234C843.527 161.234 841.691 159.812 841.223 157.796L843.077 157.364C843.347 158.57 844.409 159.434 845.651 159.434C847.235 159.434 848.351 158.336 848.351 156.788C848.351 155.276 847.235 154.196 845.651 154.196C844.985 154.196 844.157 154.61 843.635 155.186ZM853.239 159.182C853.887 159.182 854.337 159.65 854.337 160.298C854.337 160.964 853.887 161.432 853.239 161.432C852.573 161.432 852.105 160.964 852.105 160.298C852.105 159.65 852.573 159.182 853.239 159.182ZM861.507 159.632C863.001 159.632 864.045 158.678 864.045 157.31C864.045 155.942 863.001 154.97 861.507 154.97C860.013 154.97 858.951 155.942 858.951 157.31C858.951 158.678 860.013 159.632 861.507 159.632ZM857.043 157.346C857.043 156.194 857.943 154.862 859.203 154.16C858.159 153.44 857.403 152.27 857.403 151.334C857.403 149.21 859.095 147.734 861.507 147.734C863.919 147.734 865.611 149.21 865.611 151.334C865.611 152.288 864.873 153.458 863.811 154.16C865.071 154.88 865.971 156.194 865.971 157.346C865.971 159.65 864.135 161.27 861.507 161.27C858.897 161.27 857.043 159.65 857.043 157.346ZM859.329 151.334C859.329 152.504 860.229 153.332 861.507 153.332C862.803 153.332 863.703 152.504 863.703 151.334C863.703 150.164 862.803 149.354 861.507 149.354C860.229 149.354 859.329 150.164 859.329 151.334ZM872.285 149.48C870.737 149.48 869.639 150.596 869.639 152.18C869.639 153.764 870.737 154.88 872.285 154.88C873.815 154.88 874.895 153.764 874.895 152.18C874.895 150.596 873.815 149.48 872.285 149.48ZM867.731 152.18C867.731 149.606 869.603 147.806 872.267 147.806C874.931 147.806 876.803 149.606 876.803 152.18C876.803 153.116 876.461 153.98 876.083 154.664L872.483 161.072H870.287L872.897 156.482C872.681 156.518 872.465 156.554 872.231 156.554C869.585 156.536 867.731 154.736 867.731 152.18Z" fill="#15151A"/>
<path d="M1059.39 167.186L1057.48 166.952L1057.93 159.95H1064.93V161.624H1059.77L1059.55 164.828C1060.15 164.558 1060.81 164.396 1061.41 164.396C1064.11 164.396 1066.01 166.214 1066.01 168.788C1066.01 171.398 1064.11 173.234 1061.41 173.234C1059.28 173.234 1057.45 171.812 1056.98 169.796L1058.83 169.364C1059.1 170.57 1060.16 171.434 1061.41 171.434C1062.99 171.434 1064.11 170.336 1064.11 168.788C1064.11 167.276 1062.99 166.196 1061.41 166.196C1060.74 166.196 1059.91 166.61 1059.39 167.186ZM1068.99 171.182C1069.64 171.182 1070.09 171.65 1070.09 172.298C1070.09 172.964 1069.64 173.432 1068.99 173.432C1068.33 173.432 1067.86 172.964 1067.86 172.298C1067.86 171.65 1068.33 171.182 1068.99 171.182ZM1076.06 173.09H1073.97L1079.1 161.57L1073.09 161.588V159.896H1081.01L1081.19 161.57L1076.06 173.09ZM1085.41 167.186L1083.5 166.952L1083.95 159.95H1090.95V161.624H1085.78L1085.57 164.828C1086.16 164.558 1086.83 164.396 1087.42 164.396C1090.12 164.396 1092.03 166.214 1092.03 168.788C1092.03 171.398 1090.12 173.234 1087.42 173.234C1085.3 173.234 1083.46 171.812 1082.99 169.796L1084.85 169.364C1085.12 170.57 1086.18 171.434 1087.42 171.434C1089.01 171.434 1090.12 170.336 1090.12 168.788C1090.12 167.276 1089.01 166.196 1087.42 166.196C1086.76 166.196 1085.93 166.61 1085.41 167.186Z" fill="#15151A"/>
<path d="M0 68H82" stroke="#9735D0" stroke-width="2"/>
<g opacity="0.5">
<path d="M213.5 180H430H639.5L859 184.5L1074.5 197" stroke="#9735D0" stroke-width="2" stroke-dasharray="4 4"/>
<circle cx="214" cy="180" r="4" fill="#9735D0"/>
<circle cx="429" cy="181" r="4" fill="#9735D0"/>
<circle cx="639" cy="181" r="4" fill="#9735D0"/>
<circle cx="859" cy="185" r="4" fill="#9735D0"/>
<circle cx="1074" cy="197" r="4" fill="#9735D0"/>
<path d="M0 38H82" stroke="#9735D0" stroke-width="2" stroke-dasharray="4 4"/>
<circle cx="41" cy="38" r="4" fill="#9735D0"/>
</g>
<circle cx="41" cy="68" r="4" fill="#6D0CA6"/>
<circle cx="41" cy="68" r="6.5" stroke="#6D0CA6"/>
<path d="M114.496 36.984C114.496 37.384 114.48 37.896 114.48 37.944C114.48 41.256 112.144 43.112 109.008 43.176C105.648 43.176 103.264 40.712 103.264 37.224C103.264 33.736 105.648 31.288 109.008 31.288C112.64 31.288 113.888 34.104 113.888 34.104L112.72 34.664C112.72 34.664 111.776 32.472 109.008 32.472C106.416 32.472 104.608 34.424 104.608 37.224C104.608 40.04 106.416 41.992 109.008 41.992C111.408 41.912 113.184 40.68 113.2 38.136H109.216V36.984H114.496ZM119.761 41.96C121.089 41.96 122.001 40.904 122.001 39.368C122.001 37.832 121.089 36.76 119.761 36.76C118.449 36.76 117.537 37.816 117.537 39.368C117.537 40.92 118.433 41.96 119.761 41.96ZM116.209 39.368C116.209 37.16 117.681 35.576 119.761 35.576C121.857 35.576 123.345 37.16 123.345 39.368C123.345 41.56 121.857 43.144 119.761 43.144C117.681 43.144 116.209 41.56 116.209 39.368ZM128.402 41.96C129.73 41.96 130.642 40.904 130.642 39.368C130.642 37.832 129.73 36.76 128.402 36.76C127.09 36.76 126.178 37.816 126.178 39.368C126.178 40.92 127.074 41.96 128.402 41.96ZM124.85 39.368C124.85 37.16 126.322 35.576 128.402 35.576C130.498 35.576 131.986 37.16 131.986 39.368C131.986 41.56 130.498 43.144 128.402 43.144C126.322 43.144 124.85 41.56 124.85 39.368ZM137.042 43.144C134.962 43.144 133.49 41.576 133.49 39.352C133.49 37.144 134.962 35.576 137.042 35.576C137.842 35.576 138.786 35.944 139.41 36.888V31.752H140.738V43.048H139.41V41.832C138.77 42.744 137.842 43.144 137.042 43.144ZM134.818 39.352C134.818 40.904 135.746 41.976 137.106 41.976C138.338 41.976 139.41 40.808 139.41 39.352C139.41 37.928 138.338 36.744 137.106 36.744C135.746 36.744 134.818 37.816 134.818 39.352ZM156.616 35.592L154.408 43.048H153.192L151.56 37.832L149.96 43.048H148.744L146.488 35.592H147.864L149.368 40.776L150.872 35.592H152.216L153.784 40.792L155.24 35.592H156.616ZM160.823 41.96C162.151 41.96 163.063 40.904 163.063 39.368C163.063 37.832 162.151 36.76 160.823 36.76C159.511 36.76 158.599 37.816 158.599 39.368C158.599 40.92 159.495 41.96 160.823 41.96ZM157.271 39.368C157.271 37.16 158.743 35.576 160.823 35.576C162.919 35.576 164.407 37.16 164.407 39.368C164.407 41.56 162.919 43.144 160.823 43.144C158.743 43.144 157.271 41.56 157.271 39.368ZM166.12 43.048V35.592H167.448V36.824C167.944 36.024 168.952 35.48 169.944 35.528V36.808C168.584 36.76 167.448 37.944 167.448 39.256V43.048H166.12ZM173.233 31.752V39.128L176.273 35.592H178.065L175.185 38.904L178.113 43.048H176.481L174.241 39.912L173.233 41.112V43.048H171.905V31.752H173.233ZM183.803 41.96C185.163 41.96 186.075 40.904 186.075 39.352C186.075 37.816 185.163 36.744 183.803 36.744C182.571 36.744 181.531 37.928 181.531 39.352C181.531 40.792 182.571 41.96 183.803 41.96ZM180.187 46.456V35.576H181.515V36.84C182.075 35.992 183.099 35.576 183.851 35.576C185.931 35.576 187.403 37.144 187.403 39.352C187.403 41.576 185.931 43.144 183.851 43.144C183.067 43.144 182.075 42.664 181.515 41.864V46.456H180.187ZM189.088 31.752H190.416V43.048H189.088V31.752ZM195.636 43.144C193.572 43.144 192.1 41.576 192.1 39.384C192.1 37.176 193.572 35.608 195.636 35.608C196.436 35.608 197.316 36.008 197.956 36.872V35.592H199.284V43.048H197.956V41.848C197.3 42.792 196.436 43.144 195.636 43.144ZM193.428 39.384C193.428 40.904 194.356 41.976 195.684 41.976C196.884 41.976 197.956 40.888 197.972 39.384C197.956 37.88 196.884 36.776 195.684 36.776C194.356 36.776 193.428 37.832 193.428 39.384ZM204.663 41.848C205.319 41.848 206.087 41.528 206.519 41.032L207.479 41.928C206.823 42.632 205.655 43.128 204.727 43.128C202.503 43.128 200.935 41.544 200.935 39.352C200.935 37.144 202.503 35.576 204.727 35.576C205.671 35.576 206.807 36.088 207.479 36.792L206.519 37.672C206.087 37.176 205.319 36.856 204.663 36.856C203.255 36.856 202.263 37.864 202.263 39.352C202.263 40.84 203.255 41.848 204.663 41.848ZM212.152 43.112C210.056 43.112 208.584 41.544 208.584 39.352C208.584 37.144 210.056 35.592 212.152 35.592C214.456 35.592 215.16 37.448 215.224 37.624C215.672 38.776 215.528 39.88 215.528 39.928H209.928C210.12 41.112 211.048 41.944 212.152 41.944C213.624 41.944 214.168 41.016 214.28 40.84L215.336 41.384C214.968 42.216 213.912 43.112 212.152 43.112ZM209.928 38.792L214.232 38.776C214.088 37.64 213.528 36.76 212.152 36.76C211.016 36.76 210.12 37.592 209.928 38.792ZM224.476 41.848C225.132 41.848 225.9 41.528 226.332 41.032L227.292 41.928C226.636 42.632 225.468 43.128 224.54 43.128C222.316 43.128 220.748 41.544 220.748 39.352C220.748 37.144 222.316 35.576 224.54 35.576C225.484 35.576 226.62 36.088 227.292 36.792L226.332 37.672C225.9 37.176 225.132 36.856 224.476 36.856C223.068 36.856 222.076 37.864 222.076 39.352C222.076 40.84 223.068 41.848 224.476 41.848ZM230.201 39.928C230.201 41.112 230.921 41.976 231.961 41.976C233.145 41.976 233.961 41.224 233.961 40.04V35.592H235.305V43.048H233.961V42.104C233.465 42.744 232.633 43.16 231.881 43.16C230.121 43.16 228.857 41.832 228.857 40.04V35.592H230.201V39.928ZM237.447 31.752H238.775V43.048H237.447V31.752ZM241.487 43.048V36.76H240.127V35.576H241.487V33H242.831V35.576H244.591V36.76H242.831V43.048H241.487ZM247.435 39.928C247.435 41.112 248.155 41.976 249.195 41.976C250.379 41.976 251.195 41.224 251.195 40.04V35.592H252.539V43.048H251.195V42.104C250.699 42.744 249.867 43.16 249.115 43.16C247.355 43.16 246.091 41.832 246.091 40.04V35.592H247.435V39.928ZM254.73 43.048V35.592H256.058V36.824C256.554 36.024 257.562 35.48 258.554 35.528V36.808C257.194 36.76 256.058 37.944 256.058 39.256V43.048H254.73ZM263.058 43.112C260.962 43.112 259.49 41.544 259.49 39.352C259.49 37.144 260.962 35.592 263.058 35.592C265.362 35.592 266.066 37.448 266.13 37.624C266.578 38.776 266.434 39.88 266.434 39.928H260.834C261.026 41.112 261.954 41.944 263.058 41.944C264.53 41.944 265.074 41.016 265.186 40.84L266.242 41.384C265.874 42.216 264.818 43.112 263.058 43.112ZM260.834 38.792L265.138 38.776C264.994 37.64 264.434 36.76 263.058 36.76C261.922 36.76 261.026 37.592 260.834 38.792Z" fill="#3F3F46"/>
<path d="M111.968 61.4V73.048H110.624V67.656H104.72V73.048H103.376V61.4H104.72V66.472H110.624V61.4H111.968ZM117.651 73.144C115.587 73.144 114.115 71.576 114.115 69.384C114.115 67.176 115.587 65.608 117.651 65.608C118.451 65.608 119.331 66.008 119.971 66.872V65.592H121.299V73.048H119.971V71.848C119.315 72.792 118.451 73.144 117.651 73.144ZM115.443 69.384C115.443 70.904 116.371 71.976 117.699 71.976C118.899 71.976 119.971 70.888 119.987 69.384C119.971 67.88 118.899 66.776 117.699 66.776C116.371 66.776 115.443 67.832 115.443 69.384ZM127.037 71.96C128.397 71.96 129.309 70.904 129.309 69.352C129.309 67.816 128.397 66.744 127.037 66.744C125.805 66.744 124.765 67.928 124.765 69.352C124.765 70.792 125.805 71.96 127.037 71.96ZM123.421 76.456V65.576H124.749V66.84C125.309 65.992 126.333 65.576 127.085 65.576C129.165 65.576 130.637 67.144 130.637 69.352C130.637 71.576 129.165 73.144 127.085 73.144C126.301 73.144 125.309 72.664 124.749 71.864V76.456H123.421ZM136.162 71.96C137.522 71.96 138.434 70.904 138.434 69.352C138.434 67.816 137.522 66.744 136.162 66.744C134.93 66.744 133.89 67.928 133.89 69.352C133.89 70.792 134.93 71.96 136.162 71.96ZM132.546 76.456V65.576H133.874V66.84C134.434 65.992 135.458 65.576 136.21 65.576C138.29 65.576 139.762 67.144 139.762 69.352C139.762 71.576 138.29 73.144 136.21 73.144C135.426 73.144 134.434 72.664 133.874 71.864V76.456H132.546ZM141.655 65.576H142.983V73.048H141.655V65.576ZM141.511 62.68C141.511 62.216 141.847 61.88 142.327 61.88C142.791 61.88 143.127 62.216 143.127 62.68C143.127 63.16 142.791 63.496 142.327 63.496C141.847 63.496 141.511 63.16 141.511 62.68ZM150.492 68.76C150.492 67.56 149.788 66.776 148.732 66.776C147.548 66.776 146.716 67.688 146.716 68.76V73.048H145.388V65.592H146.716V66.68C147.228 66.04 148.06 65.592 148.796 65.592C150.428 65.592 151.82 66.712 151.82 68.664V73.048H150.492V68.76ZM157.199 73.112C155.103 73.112 153.631 71.544 153.631 69.352C153.631 67.144 155.103 65.592 157.199 65.592C159.503 65.592 160.207 67.448 160.271 67.624C160.719 68.776 160.575 69.88 160.575 69.928H154.975C155.167 71.112 156.095 71.944 157.199 71.944C158.671 71.944 159.215 71.016 159.327 70.84L160.383 71.384C160.015 72.216 158.959 73.112 157.199 73.112ZM154.975 68.792L159.279 68.776C159.135 67.64 158.575 66.76 157.199 66.76C156.063 66.76 155.167 67.592 154.975 68.792ZM163.203 70.664C163.619 71.56 164.499 71.944 165.059 71.944C165.955 71.944 166.595 71.56 166.595 70.92C166.595 70.312 165.763 70.072 164.931 69.784C163.907 69.432 162.467 68.984 162.467 67.56C162.467 66.296 163.635 65.512 165.123 65.512C166.003 65.512 167.411 66.024 167.763 67.352L166.595 67.752C166.355 66.872 165.555 66.696 165.123 66.696C164.355 66.696 163.795 67.016 163.795 67.56C163.795 68.168 164.563 68.376 165.459 68.68C166.531 69.048 167.923 69.496 167.923 70.92C167.923 72.248 166.707 73.112 165.059 73.112C163.923 73.112 162.739 72.472 162.131 71.304L163.203 70.664ZM170.343 70.664C170.759 71.56 171.639 71.944 172.199 71.944C173.095 71.944 173.735 71.56 173.735 70.92C173.735 70.312 172.903 70.072 172.071 69.784C171.047 69.432 169.607 68.984 169.607 67.56C169.607 66.296 170.775 65.512 172.263 65.512C173.143 65.512 174.551 66.024 174.903 67.352L173.735 67.752C173.495 66.872 172.695 66.696 172.263 66.696C171.495 66.696 170.935 67.016 170.935 67.56C170.935 68.168 171.703 68.376 172.599 68.68C173.671 69.048 175.063 69.496 175.063 70.92C175.063 72.248 173.847 73.112 172.199 73.112C171.063 73.112 169.879 72.472 169.271 71.304L170.343 70.664Z" fill="#3F3F46"/>
</svg>
