<svg width="90" height="90" viewBox="0 0 90 90" fill="none" xmlns="http://www.w3.org/2000/svg">
<g id="Content">
<g id="Content_2">
<path id="Vector (Stroke)" opacity="0.3" fill-rule="evenodd" clip-rule="evenodd" d="M52.976 35.4493C51.7507 34.7531 50.2493 34.7531 49.024 35.4493L43.344 38.6766C42.0929 39.3874 41.32 40.7155 41.32 42.1544L41.32 47.8456C41.32 49.2845 42.0929 50.6126 43.344 51.3234L49.024 54.5507C50.2493 55.2469 51.7507 55.2469 52.976 54.5507L58.656 51.3234C59.9071 50.6126 60.68 49.2845 60.68 47.8456V42.1544C60.68 40.7155 59.9071 39.3874 58.656 38.6766L52.976 35.4493ZM73 37.1557C73 34.2778 71.4543 31.6217 68.9521 30.2L54.9521 22.2455C52.5013 20.853 49.4987 20.853 47.0479 22.2455L33.0479 30.2C30.5457 31.6217 29 34.2778 29 37.1557V52.8443C29 55.7222 30.5457 58.3783 33.0479 59.8L47.0479 67.7545C49.4987 69.147 52.5013 69.147 54.9521 67.7545L68.9521 59.8C71.4543 58.3783 73 55.7222 73 52.8443V37.1557Z" fill="url(#paint0_linear_10865_27010)"/>
<path id="Vector" d="M47.4413 38.7427C51.5859 41.0223 51.5859 46.9777 47.4413 49.2573L25.8915 61.1097C21.8928 63.309 17 60.416 17 55.8524L17 32.1476C17 27.584 21.8928 24.691 25.8915 26.8903L47.4413 38.7427Z" fill="url(#paint1_linear_10865_27010)"/>
</g>
</g>
<defs>
<linearGradient id="paint0_linear_10865_27010" x1="73" y1="23.125" x2="26.2047" y2="64.4146" gradientUnits="userSpaceOnUse">
<stop stop-color="#9735D0"/>
<stop offset="1" stop-color="#F47725"/>
</linearGradient>
<linearGradient id="paint1_linear_10865_27010" x1="37" y1="22" x2="37" y2="78.5" gradientUnits="userSpaceOnUse">
<stop offset="0.1" stop-color="#9735D0"/>
<stop offset="0.9" stop-color="#F47725"/>
</linearGradient>
</defs>
</svg>
