<svg width="72" height="72" viewBox="0 0 72 72" fill="none" xmlns="http://www.w3.org/2000/svg">
<rect width="72" height="72" rx="16" fill="#282828"/>
<path d="M18.2656 25.4834C18.2656 24.9574 18.5462 24.4714 19.0017 24.2084L27.842 19.1045C28.2975 18.8415 28.8587 18.8415 29.3142 19.1045L38.1545 24.2084C38.61 24.4714 38.8906 24.9574 38.8906 25.4833V33.7077C38.8906 34.841 37.6637 35.5493 36.6823 34.9827L33.9492 33.4047C33.4937 33.1417 33.2131 32.6557 33.2131 32.1298L33.2131 28.7562C33.2131 28.2302 32.9325 27.7442 32.477 27.4812L29.3086 25.652C28.8531 25.389 28.292 25.389 27.8365 25.652L24.6681 27.4812C24.2126 27.7442 23.932 28.2302 23.932 28.7562L23.932 32.4146C23.932 32.9406 24.2126 33.4266 24.6681 33.6896L26.3532 34.6624C27.3347 35.2291 27.3347 36.6457 26.3532 37.2123L23.6267 38.7865C23.1712 39.0494 22.61 39.0494 22.1545 38.7865L19.0017 36.9662C18.5462 36.7032 18.2656 36.2172 18.2656 35.6912L18.2656 25.4834Z" fill="#00B6AD"/>
<path d="M53.7187 46.517C53.7187 47.0429 53.4381 47.5289 52.9826 47.7919L44.1423 52.8958C43.6868 53.1588 43.1256 53.1588 42.6701 52.8958L33.8298 47.7919C33.3743 47.5289 33.0938 47.0429 33.0938 46.517L33.0938 38.3493C33.0937 37.216 34.3206 36.5077 35.302 37.0744L38.0352 38.6523C38.4906 38.9153 38.7712 39.4013 38.7712 39.9273V43.2442C38.7712 43.7701 39.0518 44.2561 39.5073 44.5191L42.6757 46.3483C43.1312 46.6113 43.6924 46.6113 44.1478 46.3483L47.3162 44.5191C47.7717 44.2561 48.0523 43.7701 48.0523 43.2442V39.5857C48.0523 39.0597 47.7717 38.5737 47.3162 38.3107L45.6311 37.3379C44.6496 36.7712 44.6496 35.3546 45.6311 34.788L48.3576 33.2138C48.8131 32.9509 49.3743 32.9509 49.8298 33.2138L52.9826 35.0341C53.4381 35.2971 53.7187 35.7831 53.7187 36.3091V46.517Z" fill="#00B6AD"/>
</svg>
