<svg width="72" height="72" viewBox="0 0 72 72" fill="none" xmlns="http://www.w3.org/2000/svg">
<rect width="72" height="72" rx="16" fill="#282828"/>
<path d="M34.9871 18.6282C35.6164 18.2548 36.3993 18.2548 37.0285 18.6282L40.6095 20.7532C41.9153 21.5281 41.9153 23.4182 40.6095 24.1931L37.0285 26.3182C36.3993 26.6916 35.6164 26.6916 34.9871 26.3182L31.4061 24.1931C30.1004 23.4182 30.1004 21.5281 31.4061 20.7532L34.9871 18.6282Z" fill="#A04CE2"/>
<path d="M34.9871 45.6809C35.6164 45.3075 36.3993 45.3075 37.0285 45.6809L40.6095 47.806C41.9153 48.5808 41.9153 50.471 40.6095 51.2459L37.0285 53.3709C36.3993 53.7443 35.6164 53.7443 34.9871 53.3709L31.4061 51.2459C30.1004 50.471 30.1004 48.5808 31.4061 47.806L34.9871 45.6809Z" fill="#A04CE2"/>
<path d="M50.1235 26.331C50.75 26.6935 51.1318 27.3661 51.1218 28.0899L51.0609 32.4976C51.0396 34.0404 49.3533 34.979 48.0308 34.1842L44.4643 32.0408C43.8626 31.6792 43.4945 31.0285 43.4945 30.3265L43.4945 25.9638C43.4945 24.4235 45.1626 23.4613 46.496 24.2326L50.1235 26.331Z" fill="#A04CE2"/>
<path d="M21.8765 26.331C21.25 26.6935 20.8682 27.3661 20.8782 28.0899L20.9391 32.4976C20.9604 34.0404 22.6467 34.979 23.9692 34.1842L27.5357 32.0408C28.1374 31.6792 28.5055 31.0285 28.5055 30.3265L28.5055 25.9638C28.5055 24.4235 26.8374 23.4613 25.504 24.2326L21.8765 26.331Z" fill="#A04CE2"/>
<path d="M50.1235 45.6192C50.75 45.2567 51.1318 44.5841 51.1218 43.8603L51.0609 39.4526C51.0396 37.9098 49.3533 36.9712 48.0308 37.766L44.4643 39.9094C43.8626 40.271 43.4945 40.9217 43.4945 41.6237L43.4945 45.9864C43.4945 47.5267 45.1626 48.4889 46.496 47.7176L50.1235 45.6192Z" fill="#A04CE2"/>
<path d="M21.8765 45.6192C21.25 45.2567 20.8682 44.5841 20.8782 43.8603L20.9391 39.4526C20.9604 37.9098 22.6467 36.9712 23.9692 37.766L27.5357 39.9094C28.1374 40.271 28.5055 40.9217 28.5055 41.6237L28.5055 45.9864C28.5055 47.5267 26.8374 48.4889 25.504 47.7176L21.8765 45.6192Z" fill="#A04CE2"/>
</svg>
