<svg width="48" height="48" viewBox="0 0 48 48" fill="none" xmlns="http://www.w3.org/2000/svg">
<rect width="48" height="48" rx="12" fill="#282828"/>
<path d="M26.0913 13.4921L26.8913 14.2921C27.2819 14.6826 27.2819 15.3158 26.8913 15.7063L25.5459 17.0518C25.3584 17.2393 25.104 17.3447 24.8388 17.3447H23.1581C22.8929 17.3447 22.6385 17.2393 22.451 17.0518L21.1055 15.7063C20.715 15.3158 20.715 14.6826 21.1055 14.2921L21.9055 13.4921C22.0931 13.3046 22.3474 13.1992 22.6127 13.1992H25.3842C25.6494 13.1992 25.9038 13.3046 26.0913 13.4921Z" fill="#007BD6"/>
<path d="M34.5118 26.0923L33.7118 26.8923C33.3213 27.2828 32.6881 27.2828 32.2976 26.8923L30.9521 25.5469C30.7646 25.3593 30.6592 25.105 30.6592 24.8398L30.6592 23.1591C30.6592 22.8939 30.7646 22.6395 30.9521 22.452L32.2976 21.1065C32.6881 20.716 33.3213 20.716 33.7118 21.1065L34.5118 21.9065C34.6993 22.0941 34.8047 22.3484 34.8047 22.6136L34.8047 25.3852C34.8047 25.6504 34.6993 25.9048 34.5118 26.0923Z" fill="#007BD6"/>
<path d="M13.496 26.0923L14.296 26.8923C14.6865 27.2828 15.3197 27.2828 15.7102 26.8923L17.0557 25.5469C17.2432 25.3593 17.3486 25.105 17.3486 24.8398L17.3486 23.1591C17.3486 22.8939 17.2432 22.6395 17.0557 22.452L15.7102 21.1065C15.3197 20.716 14.6865 20.716 14.296 21.1065L13.496 21.9065C13.3085 22.0941 13.2031 22.3484 13.2031 22.6136L13.2031 25.3852C13.2031 25.6504 13.3085 25.9048 13.496 26.0923Z" fill="#007BD6"/>
<path d="M33.005 18.1057L33.005 19.3928C33.005 19.9451 32.5573 20.3928 32.005 20.3928L29.8994 20.3928C29.6342 20.3928 29.3799 20.2874 29.1923 20.0999L27.8954 18.803C27.7079 18.6154 27.6025 18.3611 27.6025 18.0959L27.6025 15.9903C27.6025 15.438 28.0502 14.9903 28.6025 14.9903L29.8895 14.9903C30.1548 14.9903 30.4091 15.0956 30.5966 15.2832L32.7121 17.3986C32.8997 17.5862 33.005 17.8405 33.005 18.1057Z" fill="#007BD6"/>
<path d="M15.0028 18.1057L15.0028 19.3928C15.0028 19.9451 15.4505 20.3928 16.0028 20.3928L18.1084 20.3928C18.3736 20.3928 18.628 20.2874 18.8155 20.0999L20.1124 18.803C20.3 18.6154 20.4053 18.3611 20.4053 18.0959L20.4053 15.9903C20.4053 15.438 19.9576 14.9903 19.4053 14.9903L18.1183 14.9903C17.8531 14.9903 17.5987 15.0956 17.4112 15.2832L15.2957 17.3986C15.1082 17.5862 15.0028 17.8405 15.0028 18.1057Z" fill="#007BD6"/>
<path d="M26.0913 34.5069L26.8913 33.7069C27.2819 33.3164 27.2819 32.6832 26.8913 32.2927L25.5459 30.9473C25.3584 30.7597 25.104 30.6544 24.8388 30.6544H23.1581C22.8929 30.6544 22.6385 30.7597 22.451 30.9473L21.1055 32.2927C20.715 32.6832 20.715 33.3164 21.1055 33.7069L21.9055 34.5069C22.0931 34.6944 22.3474 34.7998 22.6127 34.7998H25.3842C25.6494 34.7998 25.9038 34.6944 26.0913 34.5069Z" fill="#007BD6"/>
<path d="M33.005 29.8923L33.005 28.6053C33.005 28.053 32.5573 27.6053 32.005 27.6053L29.8994 27.6053C29.6342 27.6053 29.3799 27.7106 29.1923 27.8981L27.8954 29.1951C27.7079 29.3826 27.6025 29.637 27.6025 29.9022L27.6025 32.0078C27.6025 32.5601 28.0502 33.0078 28.6025 33.0078L29.8895 33.0078C30.1548 33.0078 30.4091 32.9024 30.5966 32.7149L32.7121 30.5994C32.8997 30.4119 33.005 30.1575 33.005 29.8923Z" fill="#007BD6"/>
<path d="M15.0028 29.8923L15.0028 28.6053C15.0028 28.053 15.4505 27.6053 16.0028 27.6053L18.1084 27.6053C18.3736 27.6053 18.628 27.7106 18.8155 27.8981L20.1124 29.1951C20.3 29.3826 20.4053 29.637 20.4053 29.9022L20.4053 32.0078C20.4053 32.5601 19.9576 33.0078 19.4053 33.0078L18.1183 33.0078C17.8531 33.0078 17.5987 32.9024 17.4112 32.7149L15.2957 30.5994C15.1082 30.4119 15.0028 30.1575 15.0028 29.8923Z" fill="#007BD6"/>
</svg>
