<svg width="72" height="72" viewBox="0 0 72 72" fill="none" xmlns="http://www.w3.org/2000/svg">
<rect width="72" height="72" rx="16" fill="#282828"/>
<path d="M39.1331 20.2391L40.3331 21.4391C40.9189 22.0249 40.9189 22.9747 40.3331 23.5605L38.3149 25.5786C38.0336 25.8599 37.6521 26.018 37.2543 26.018H34.7332C34.3354 26.018 33.9539 25.8599 33.6726 25.5786L31.6544 23.5605C31.0686 22.9747 31.0686 22.0249 31.6544 21.4391L32.8544 20.2391C33.1357 19.9578 33.5172 19.7998 33.9151 19.7998H38.0724C38.4703 19.7998 38.8518 19.9578 39.1331 20.2391Z" fill="#007BD6"/>
<path d="M51.756 39.1399L50.556 40.3399C49.9702 40.9257 49.0204 40.9257 48.4347 40.3399L46.4165 38.3218C46.1352 38.0405 45.9771 37.6589 45.9771 37.2611L45.9771 34.7401C45.9771 34.3422 46.1352 33.9607 46.4165 33.6794L48.4347 31.6612C49.0204 31.0755 49.9702 31.0755 50.556 31.6612L51.756 32.8612C52.0373 33.1426 52.1953 33.5241 52.1953 33.9219L52.1953 38.0793C52.1953 38.4771 52.0373 38.8586 51.756 39.1399Z" fill="#007BD6"/>
<path d="M20.2362 39.1399L21.4362 40.3399C22.022 40.9257 22.9717 40.9257 23.5575 40.3399L25.5757 38.3218C25.857 38.0405 26.015 37.6589 26.015 37.2611L26.015 34.7401C26.015 34.3422 25.857 33.9607 25.5757 33.6794L23.5575 31.6612C22.9717 31.0755 22.022 31.0755 21.4362 31.6612L20.2362 32.8612C19.9549 33.1426 19.7969 33.5241 19.7969 33.9219L19.7969 38.0793C19.7969 38.4771 19.9549 38.8586 20.2362 39.1399Z" fill="#007BD6"/>
<path d="M49.4997 27.1601L49.4997 29.0907C49.4997 29.9191 48.8281 30.5907 47.9997 30.5907L44.8413 30.5907C44.4435 30.5907 44.062 30.4326 43.7807 30.1513L41.8353 28.2059C41.554 27.9246 41.3959 27.5431 41.3959 27.1453L41.3959 23.9869C41.3959 23.1585 42.0675 22.4869 42.8959 22.4869L44.8265 22.4869C45.2243 22.4869 45.6059 22.6449 45.8872 22.9262L49.0604 26.0994C49.3417 26.3807 49.4997 26.7623 49.4997 27.1601Z" fill="#007BD6"/>
<path d="M22.4925 27.1601L22.4925 29.0907C22.4925 29.9191 23.1641 30.5907 23.9925 30.5907L27.1509 30.5907C27.5487 30.5907 27.9302 30.4326 28.2115 30.1513L30.1569 28.2059C30.4382 27.9246 30.5963 27.5431 30.5963 27.1453L30.5963 23.9869C30.5963 23.1585 29.9247 22.4869 29.0963 22.4869L27.1657 22.4869C26.7679 22.4869 26.3863 22.6449 26.105 22.9262L22.9318 26.0994C22.6505 26.3807 22.4925 26.7623 22.4925 27.1601Z" fill="#007BD6"/>
<path d="M39.1331 51.7609L40.3331 50.5609C40.9189 49.9751 40.9189 49.0253 40.3331 48.4395L38.3149 46.4214C38.0336 46.1401 37.6521 45.982 37.2543 45.982H34.7332C34.3354 45.982 33.9539 46.1401 33.6726 46.4214L31.6544 48.4395C31.0686 49.0253 31.0686 49.9751 31.6544 50.5609L32.8544 51.7609C33.1357 52.0422 33.5172 52.2002 33.9151 52.2002H38.0724C38.4703 52.2002 38.8518 52.0422 39.1331 51.7609Z" fill="#007BD6"/>
<path d="M49.4997 44.8399L49.4997 42.9093C49.4997 42.0809 48.8281 41.4093 47.9997 41.4093L44.8413 41.4093C44.4435 41.4093 44.062 41.5674 43.7807 41.8487L41.8353 43.7941C41.554 44.0754 41.3959 44.4569 41.3959 44.8547L41.3959 48.0131C41.3959 48.8415 42.0675 49.5131 42.8959 49.5131L44.8265 49.5131C45.2243 49.5131 45.6059 49.3551 45.8872 49.0738L49.0604 45.9006C49.3417 45.6193 49.4997 45.2377 49.4997 44.8399Z" fill="#007BD6"/>
<path d="M22.4925 44.8399L22.4925 42.9093C22.4925 42.0809 23.1641 41.4093 23.9925 41.4093L27.1509 41.4093C27.5487 41.4093 27.9302 41.5674 28.2115 41.8487L30.1569 43.7941C30.4382 44.0754 30.5963 44.4569 30.5963 44.8547L30.5963 48.0131C30.5963 48.8415 29.9247 49.5131 29.0963 49.5131L27.1657 49.5131C26.7679 49.5131 26.3863 49.3551 26.105 49.0738L22.9318 45.9006C22.6505 45.6193 22.4925 45.2377 22.4925 44.8399Z" fill="#007BD6"/>
</svg>
