<svg width="180" height="180" viewBox="0 0 180 180" fill="none" xmlns="http://www.w3.org/2000/svg">
<g filter="url(#filter0_d_8462_4580)">
<circle cx="90" cy="82" r="62" fill="white"/>
</g>
<path d="M101.398 62.8528C100.919 62.6266 100.384 62.5 99.8182 62.5H80.1818C79.6163 62.5 79.0806 62.6266 78.6019 62.8528L89.2334 71.299C89.6816 71.655 90.3185 71.655 90.7667 71.299L101.398 62.8528Z" fill="#6D0CA6"/>
<path d="M77.4622 65.0599C77.1538 64.8146 76.6929 64.9206 76.601 65.3023C76.535 65.5762 76.5 65.8622 76.5 66.1562V78.3438C76.5 80.363 78.1484 82 80.1818 82H99.8182C101.852 82 103.5 80.363 103.5 78.3438V66.1562C103.5 65.8622 103.465 65.5763 103.399 65.3023C103.307 64.9207 102.846 64.8147 102.538 65.06L92.3001 73.2023C90.9554 74.2706 89.0447 74.2706 87.7 73.2023L77.4622 65.0599Z" fill="#6D0CA6"/>
<path d="M71.6367 110.054H70.8015C67.772 110.054 66.2573 110.054 65.3161 109.113C64.375 108.171 64.375 106.657 64.375 103.627V100.054C64.375 98.3883 64.375 97.5552 64.8029 96.8113C65.2309 96.0673 65.8765 95.6918 67.1676 94.9409C75.6681 89.9969 87.7402 87.2138 95.7974 92.0195C96.3388 92.3424 96.8256 92.7321 97.2417 93.1995C99.035 95.2138 98.9043 98.2539 96.8375 100.058C96.4011 100.439 95.9359 100.728 95.4674 100.828C95.8524 100.783 96.2214 100.732 96.5735 100.676C99.502 100.209 101.96 98.644 104.211 96.9439L110.018 92.5573C112.065 91.0108 115.103 91.0105 117.151 92.5566C118.994 93.9484 119.558 96.2401 118.392 98.1081C117.033 100.286 115.119 103.073 113.28 104.776C111.439 106.481 108.698 108.004 106.46 109.084C103.981 110.28 101.243 110.97 98.4576 111.421C92.8084 112.335 86.9209 112.195 81.3291 111.043C78.1679 110.392 74.8848 110.054 71.6367 110.054Z" fill="#CC7DFA"/>
<defs>
<filter id="filter0_d_8462_4580" x="0" y="0" width="180" height="180" filterUnits="userSpaceOnUse" color-interpolation-filters="sRGB">
<feFlood flood-opacity="0" result="BackgroundImageFix"/>
<feColorMatrix in="SourceAlpha" type="matrix" values="0 0 0 0 0 0 0 0 0 0 0 0 0 0 0 0 0 0 127 0" result="hardAlpha"/>
<feOffset dy="8"/>
<feGaussianBlur stdDeviation="14"/>
<feComposite in2="hardAlpha" operator="out"/>
<feColorMatrix type="matrix" values="0 0 0 0 0 0 0 0 0 0 0 0 0 0 0 0 0 0 0.05 0"/>
<feBlend mode="normal" in2="BackgroundImageFix" result="effect1_dropShadow_8462_4580"/>
<feBlend mode="normal" in="SourceGraphic" in2="effect1_dropShadow_8462_4580" result="shape"/>
</filter>
</defs>
</svg>
