<svg width="180" height="180" viewBox="0 0 180 180" fill="none" xmlns="http://www.w3.org/2000/svg">
<g filter="url(#filter0_d_8462_4568)">
<circle cx="90" cy="82" r="62" fill="white"/>
</g>
<g clip-path="url(#clip0_8462_4568)">
<path d="M95.1654 97.8059L99.5854 107.029H78.5254L82.9454 97.8059" fill="#6D0CA6"/>
<path d="M95.1654 97.8059L99.5854 107.029H78.5254L82.9454 97.8059" stroke="#6D0CA6" stroke-width="4.05" stroke-linecap="round" stroke-linejoin="round"/>
<path d="M112.455 94.346C112.455 96.2675 110.895 97.8048 108.945 97.8048H69.0354C67.0854 97.8048 65.5254 96.2675 65.5254 94.346V62.961C65.5254 61.0394 67.0854 59.5022 69.0354 59.5022H108.945C110.895 59.5022 112.455 61.0394 112.455 62.961V94.346Z" fill="#CC7DFA" stroke="#CC7DFA" stroke-width="4.05" stroke-linecap="round" stroke-linejoin="round"/>
<path d="M93.2151 72.058C96.2051 75.0044 96.2051 79.7442 93.2151 82.6905C90.2251 85.6369 85.4151 85.6369 82.4251 82.6905C79.4351 79.7442 79.4351 75.0044 82.4251 72.058C85.4151 69.2398 90.2251 69.2398 93.2151 72.058Z" stroke="white" stroke-width="4.05" stroke-linecap="round" stroke-linejoin="round"/>
<path d="M93.4746 82.9459L97.8946 87.4295" stroke="white" stroke-width="4.05" stroke-linecap="round" stroke-linejoin="round"/>
</g>
<defs>
<filter id="filter0_d_8462_4568" x="0" y="0" width="180" height="180" filterUnits="userSpaceOnUse" color-interpolation-filters="sRGB">
<feFlood flood-opacity="0" result="BackgroundImageFix"/>
<feColorMatrix in="SourceAlpha" type="matrix" values="0 0 0 0 0 0 0 0 0 0 0 0 0 0 0 0 0 0 127 0" result="hardAlpha"/>
<feOffset dy="8"/>
<feGaussianBlur stdDeviation="14"/>
<feComposite in2="hardAlpha" operator="out"/>
<feColorMatrix type="matrix" values="0 0 0 0 0 0 0 0 0 0 0 0 0 0 0 0 0 0 0.05 0"/>
<feBlend mode="normal" in2="BackgroundImageFix" result="effect1_dropShadow_8462_4568"/>
<feBlend mode="normal" in="SourceGraphic" in2="effect1_dropShadow_8462_4568" result="shape"/>
</filter>
<clipPath id="clip0_8462_4568">
<rect width="52.65" height="52.65" fill="white" transform="translate(62.9253 56.4249)"/>
</clipPath>
</defs>
</svg>
