<svg width="101" height="100" viewBox="0 0 101 100" fill="none" xmlns="http://www.w3.org/2000/svg">
<path d="M47.269 26.3984C41.9842 26.3984 37.7856 30.6815 37.7856 35.8818C37.7856 41.0821 41.9842 45.3652 47.269 45.3652C52.5538 45.3652 56.7524 41.0821 56.7524 35.8818C56.7524 30.6815 52.5538 26.3984 47.269 26.3984Z" fill="#6D0CA6"/>
<path d="M47.268 47.0202C42.5391 47.0202 38.2599 48.6437 35.1387 50.9009C32.1275 53.0785 29.7656 56.1876 29.7656 59.3675C29.7656 62.9935 32.7088 64.8901 35.7224 65.8359C38.8267 66.8102 42.9473 67.1325 47.268 67.1325C51.5887 67.1325 55.7093 66.8102 58.8136 65.8359C61.8272 64.8901 64.7704 62.9935 64.7704 59.3675C64.7704 56.1876 62.4085 53.0785 59.3973 50.9009C56.2761 48.6437 51.9969 47.0202 47.268 47.0202Z" fill="#6D0CA6"/>
<path fill-rule="evenodd" clip-rule="evenodd" d="M47.2651 9.91406C26.9128 9.91406 10.4141 26.4128 10.4141 46.7651C10.4141 67.1173 26.9128 83.616 47.2651 83.616C56.3161 83.616 64.6051 80.353 71.0196 74.9391L85.2492 89.1687C86.4696 90.3891 88.4483 90.3891 89.6687 89.1687C90.8891 87.9483 90.8891 85.9696 89.6687 84.7492L75.4391 70.5196C80.853 64.1051 84.116 55.8161 84.116 46.7651C84.116 26.4128 67.6173 9.91406 47.2651 9.91406ZM16.6641 46.7651C16.6641 29.8646 30.3646 16.1641 47.2651 16.1641C64.1655 16.1641 77.866 29.8646 77.866 46.7651C77.866 63.6655 64.1655 77.366 47.2651 77.366C30.3646 77.366 16.6641 63.6655 16.6641 46.7651Z" fill="#CC7DFA"/>
<path fill-rule="evenodd" clip-rule="evenodd" d="M77.3067 76.8067C79.3407 74.7728 82.6385 74.7728 84.6724 76.8067L91.1403 83.2746C93.1743 85.3086 93.1743 88.6064 91.1403 90.6403C89.1064 92.6743 85.8086 92.6743 83.7746 90.6403L77.3067 84.1724C75.2728 82.1385 75.2728 78.8407 77.3067 76.8067Z" fill="#6D0CA6"/>
</svg>
