<svg width="304" height="404" viewBox="0 0 304 404" fill="none" xmlns="http://www.w3.org/2000/svg">
<path d="M19.6187 17.864V28.042L18.1347 28.028V19.446L16.3427 20.44L15.7267 19.194L18.1487 17.864H19.6187ZM25.4982 26.824C26.8982 26.824 27.8362 25.256 27.8362 22.946C27.8362 20.622 26.8982 19.054 25.4982 19.054C24.0982 19.054 23.1462 20.622 23.1462 22.946C23.1462 25.256 24.0982 26.824 25.4982 26.824ZM21.6622 22.946C21.6622 19.894 23.2442 17.752 25.4982 17.752C27.7382 17.752 29.3202 19.894 29.3202 22.946C29.3202 25.984 27.7382 28.14 25.4982 28.14C23.2442 28.14 21.6622 25.984 21.6622 22.946Z" fill="#3F3F46"/>
<path d="M25.8061 53.04C24.6021 53.04 23.7481 53.908 23.7481 55.14C23.7481 56.372 24.6021 57.24 25.8061 57.24C26.9961 57.24 27.8361 56.372 27.8361 55.14C27.8361 53.908 26.9961 53.04 25.8061 53.04ZM22.2641 55.14C22.2641 53.138 23.7201 51.738 25.7921 51.738C27.8641 51.738 29.3201 53.138 29.3201 55.14C29.3201 55.868 29.0541 56.54 28.7601 57.072L25.9601 62.056H24.2521L26.2821 58.486C26.1141 58.514 25.9461 58.542 25.7641 58.542C23.7061 58.528 22.2641 57.128 22.2641 55.14Z" fill="#3F3F46"/>
<path d="M25.8455 94.936C27.0075 94.936 27.8195 94.194 27.8195 93.13C27.8195 92.066 27.0075 91.31 25.8455 91.31C24.6835 91.31 23.8575 92.066 23.8575 93.13C23.8575 94.194 24.6835 94.936 25.8455 94.936ZM22.3735 93.158C22.3735 92.262 23.0735 91.226 24.0535 90.68C23.2415 90.12 22.6535 89.21 22.6535 88.482C22.6535 86.83 23.9695 85.682 25.8455 85.682C27.7215 85.682 29.0375 86.83 29.0375 88.482C29.0375 89.224 28.4635 90.134 27.6375 90.68C28.6175 91.24 29.3175 92.262 29.3175 93.158C29.3175 94.95 27.8895 96.21 25.8455 96.21C23.8155 96.21 22.3735 94.95 22.3735 93.158ZM24.1515 88.482C24.1515 89.392 24.8515 90.036 25.8455 90.036C26.8535 90.036 27.5535 89.392 27.5535 88.482C27.5535 87.572 26.8535 86.942 25.8455 86.942C24.8515 86.942 24.1515 87.572 24.1515 88.482Z" fill="#3F3F46"/>
<path d="M25.304 130.07H23.68L27.67 121.11L22.994 121.124V119.808H29.154L29.294 121.11L25.304 130.07Z" fill="#3F3F46"/>
<path d="M25.7781 162.838C26.9821 162.838 27.8361 161.97 27.8361 160.752C27.8361 159.506 26.9821 158.638 25.7781 158.638C24.5881 158.638 23.7481 159.506 23.7481 160.752C23.7481 161.97 24.5881 162.838 25.7781 162.838ZM22.2641 160.752C22.2641 160.01 22.5301 159.352 22.8241 158.806L25.6241 153.822H27.3321L25.3021 157.392C25.4701 157.364 25.6381 157.336 25.8201 157.336C27.8781 157.35 29.3201 158.75 29.3201 160.752C29.3201 162.74 27.8641 164.14 25.7921 164.14C23.7201 164.14 22.2641 162.74 22.2641 160.752Z" fill="#3F3F46"/>
<path d="M24.1541 193.478L22.6701 193.296L23.0201 187.85H28.4661V189.152H24.4481L24.2801 191.644C24.7421 191.434 25.2601 191.308 25.7221 191.308C27.8221 191.308 29.3061 192.722 29.3061 194.724C29.3061 196.754 27.8221 198.182 25.7221 198.182C24.0701 198.182 22.6421 197.076 22.2781 195.508L23.7201 195.172C23.9301 196.11 24.7561 196.782 25.7221 196.782C26.9541 196.782 27.8221 195.928 27.8221 194.724C27.8221 193.548 26.9541 192.708 25.7221 192.708C25.2041 192.708 24.5601 193.03 24.1541 193.478Z" fill="#3F3F46"/>
<path d="M28.024 221.85V228.122H29.312V229.41H28.024V232.042H26.54V229.41H22.158L22.018 228.122L26.61 221.85H28.024ZM23.782 228.122H26.54V224.328L23.782 228.122Z" fill="#3F3F46"/>
<path d="M27.8325 260.778C28.7425 261.31 29.3165 262.304 29.3165 263.158C29.3165 264.894 27.8885 266.126 25.8585 266.126C23.8425 266.126 22.4145 264.866 22.4145 263.074H23.8985C23.8985 264.096 24.7105 264.81 25.8585 264.81C27.0345 264.81 27.8745 264.096 27.8745 263.074C27.8745 262.094 27.0485 261.394 25.8865 261.394H25.1585V260.148H25.9005C26.9645 260.148 27.7205 259.518 27.7205 258.622C27.7205 257.712 26.9925 257.082 25.9565 257.082C24.9205 257.082 24.2065 257.726 24.2065 258.636H22.7225C22.7225 256.942 24.0525 255.766 25.9565 255.766C27.8325 255.766 29.1625 256.914 29.1625 258.538C29.1625 259.322 28.6585 260.246 27.8325 260.778Z" fill="#3F3F46"/>
<path d="M22.8296 298.74C24.8736 296.78 27.6596 294.792 27.6596 293.07C27.6596 291.922 26.9316 291.11 25.8956 291.11C25.0976 291.11 24.2996 291.684 23.9356 292.51L22.6336 291.936C23.1936 290.648 24.5516 289.752 25.8956 289.752C27.8136 289.752 29.1436 291.124 29.1436 293.07C29.1436 295.212 26.8196 297.116 24.9296 298.74H29.3116V300.042H22.9696L22.8296 298.74Z" fill="#3F3F46"/>
<path d="M28.6284 323.864V334.042L27.1444 334.028V325.446L25.3524 326.44L24.7364 325.194L27.1584 323.864H28.6284Z" fill="#3F3F46"/>
<path d="M25.4982 366.824C26.8982 366.824 27.8362 365.256 27.8362 362.946C27.8362 360.622 26.8982 359.054 25.4982 359.054C24.0982 359.054 23.1462 360.622 23.1462 362.946C23.1462 365.256 24.0982 366.824 25.4982 366.824ZM21.6622 362.946C21.6622 359.894 23.2442 357.752 25.4982 357.752C27.7382 357.752 29.3202 359.894 29.3202 362.946C29.3202 365.984 27.7382 368.14 25.4982 368.14C23.2442 368.14 21.6622 365.984 21.6622 362.946Z" fill="#3F3F46"/>
<rect x="42" width="262" height="374" fill="#F6F6F7"/>
<path d="M214.773 226.032C215.813 226.64 216.469 227.776 216.469 228.752C216.469 230.736 214.837 232.144 212.517 232.144C210.213 232.144 208.581 230.704 208.581 228.656H210.277C210.277 229.824 211.205 230.64 212.517 230.64C213.861 230.64 214.821 229.824 214.821 228.656C214.821 227.536 213.877 226.736 212.549 226.736H211.717V225.312H212.565C213.781 225.312 214.645 224.592 214.645 223.568C214.645 222.528 213.813 221.808 212.629 221.808C211.445 221.808 210.629 222.544 210.629 223.584H208.933C208.933 221.648 210.453 220.304 212.629 220.304C214.773 220.304 216.293 221.616 216.293 223.472C216.293 224.368 215.717 225.424 214.773 226.032ZM219.106 230.384C219.682 230.384 220.082 230.8 220.082 231.376C220.082 231.968 219.682 232.384 219.106 232.384C218.514 232.384 218.098 231.968 218.098 231.376C218.098 230.8 218.514 230.384 219.106 230.384ZM228.679 226.032C229.719 226.64 230.375 227.776 230.375 228.752C230.375 230.736 228.743 232.144 226.423 232.144C224.119 232.144 222.487 230.704 222.487 228.656H224.183C224.183 229.824 225.111 230.64 226.423 230.64C227.767 230.64 228.727 229.824 228.727 228.656C228.727 227.536 227.783 226.736 226.455 226.736H225.623V225.312H226.471C227.687 225.312 228.551 224.592 228.551 223.568C228.551 222.528 227.719 221.808 226.535 221.808C225.351 221.808 224.535 222.544 224.535 223.584H222.839C222.839 221.648 224.359 220.304 226.535 220.304C228.679 220.304 230.199 221.616 230.199 223.472C230.199 224.368 229.623 225.424 228.679 226.032ZM234.836 232.08H232.98L237.54 221.84L232.196 221.856V220.352H239.236L239.396 221.84L234.836 232.08Z" fill="#3F3F46"/>
<path d="M189 249C189 246.791 190.791 245 193 245H255C257.209 245 259 246.791 259 249V374H189V249Z" fill="url(#paint0_linear_4141_2307)"/>
<path d="M105.508 263.56C107.844 261.32 111.028 259.048 111.028 257.08C111.028 255.768 110.196 254.84 109.012 254.84C108.1 254.84 107.188 255.496 106.772 256.44L105.284 255.784C105.924 254.312 107.476 253.288 109.012 253.288C111.204 253.288 112.724 254.856 112.724 257.08C112.724 259.528 110.068 261.704 107.908 263.56H112.916V265.048H105.668L105.508 263.56ZM115.559 263.384C116.135 263.384 116.535 263.8 116.535 264.376C116.535 264.968 116.135 265.384 115.559 265.384C114.967 265.384 114.551 264.968 114.551 264.376C114.551 263.8 114.967 263.384 115.559 263.384ZM125.804 253.4V260.568H127.276V262.04H125.804V265.048H124.108V262.04H119.1L118.94 260.568L124.188 253.4H125.804ZM120.956 260.568H124.108V256.232L120.956 260.568ZM135.039 259.032C136.079 259.64 136.735 260.776 136.735 261.752C136.735 263.736 135.103 265.144 132.783 265.144C130.479 265.144 128.847 263.704 128.847 261.656H130.543C130.543 262.824 131.471 263.64 132.783 263.64C134.127 263.64 135.087 262.824 135.087 261.656C135.087 260.536 134.143 259.736 132.815 259.736H131.983V258.312H132.831C134.047 258.312 134.911 257.592 134.911 256.568C134.911 255.528 134.079 254.808 132.895 254.808C131.711 254.808 130.895 255.544 130.895 256.584H129.199C129.199 254.648 130.719 253.304 132.895 253.304C135.039 253.304 136.559 254.616 136.559 256.472C136.559 257.368 135.983 258.424 135.039 259.032Z" fill="#3F3F46"/>
<path d="M86 282C86 279.791 87.7909 278 90 278H152C154.209 278 156 279.791 156 282V374H86V282Z" fill="url(#paint1_linear_4141_2307)"/>
<rect width="102" height="30" transform="translate(71 14)" fill="#F47725"/>
<path d="M106.934 23.85V24.886H101.712V28.274H106.22V29.31H101.712V33.006H106.934V34.042H100.536V23.85H106.934ZM109.708 31.298C110.24 32.362 111.136 33.118 112.186 33.118C113.558 33.146 114.412 32.446 114.412 31.354C114.412 28.75 109.176 29.842 109.176 26.3C109.176 24.662 110.548 23.724 112.368 23.738C113.768 23.766 114.902 24.508 115.392 25.992L114.342 26.356C114.034 25.362 113.278 24.788 112.354 24.774C111.178 24.76 110.338 25.32 110.338 26.3C110.338 28.876 115.574 27.826 115.574 31.368C115.574 33.048 114.258 34.182 112.172 34.154C110.688 34.126 109.554 33.3 108.714 31.83L109.708 31.298ZM126.84 28.736C126.84 29.086 126.826 29.534 126.826 29.576C126.826 32.474 124.782 34.098 122.038 34.154C119.098 34.154 117.012 31.998 117.012 28.946C117.012 25.894 119.098 23.752 122.038 23.752C125.216 23.752 126.308 26.216 126.308 26.216L125.286 26.706C125.286 26.706 124.46 24.788 122.038 24.788C119.77 24.788 118.188 26.496 118.188 28.946C118.188 31.41 119.77 33.118 122.038 33.118C124.138 33.048 125.692 31.97 125.706 29.744H122.22V28.736H126.84ZM129.054 28.26H135.032V29.422H129.054V28.26ZM140.106 33.09C141.436 33.09 142.36 32.138 142.36 30.78C142.36 29.408 141.436 28.456 140.106 28.456C138.818 28.456 137.894 29.408 137.894 30.78C137.894 32.138 138.818 33.09 140.106 33.09ZM136.732 30.78C136.732 30.052 136.97 29.408 137.264 28.876L140.106 23.864H141.45L139.364 27.504C139.616 27.462 139.868 27.42 140.134 27.42C142.136 27.42 143.522 28.806 143.522 30.78C143.522 32.74 142.122 34.126 140.134 34.126C138.132 34.126 136.732 32.74 136.732 30.78Z" fill="white"/>
<rect width="102" height="30" transform="translate(173 14)" fill="#9735D0"/>
<path d="M208.934 23.85V24.886H203.712V28.274H208.22V29.31H203.712V33.006H208.934V34.042H202.536V23.85H208.934ZM211.708 31.298C212.24 32.362 213.136 33.118 214.186 33.118C215.558 33.146 216.412 32.446 216.412 31.354C216.412 28.75 211.176 29.842 211.176 26.3C211.176 24.662 212.548 23.724 214.368 23.738C215.768 23.766 216.902 24.508 217.392 25.992L216.342 26.356C216.034 25.362 215.278 24.788 214.354 24.774C213.178 24.76 212.338 25.32 212.338 26.3C212.338 28.876 217.574 27.826 217.574 31.368C217.574 33.048 216.258 34.182 214.172 34.154C212.688 34.126 211.554 33.3 210.714 31.83L211.708 31.298ZM228.84 28.736C228.84 29.086 228.826 29.534 228.826 29.576C228.826 32.474 226.782 34.098 224.038 34.154C221.098 34.154 219.012 31.998 219.012 28.946C219.012 25.894 221.098 23.752 224.038 23.752C227.216 23.752 228.308 26.216 228.308 26.216L227.286 26.706C227.286 26.706 226.46 24.788 224.038 24.788C221.77 24.788 220.188 26.496 220.188 28.946C220.188 31.41 221.77 33.118 224.038 33.118C226.138 33.048 227.692 31.97 227.706 29.744H224.22V28.736H228.84ZM231.054 28.26H237.032V29.422H231.054V28.26ZM240.356 29.31L239.194 29.142L239.53 23.864H244.696V24.9H240.65L240.454 27.812C240.958 27.546 241.532 27.392 242.05 27.392C244.08 27.392 245.522 28.778 245.522 30.738C245.522 32.74 244.08 34.154 242.05 34.154C240.468 34.154 239.096 33.09 238.746 31.578L239.88 31.312C240.104 32.334 241 33.048 242.05 33.048C243.408 33.048 244.36 32.096 244.36 30.738C244.36 29.422 243.408 28.498 242.05 28.498C241.476 28.498 240.776 28.834 240.356 29.31Z" fill="white"/>
<g filter="url(#filter0_d_4141_2307)">
<rect x="130" y="161" width="85" height="48" rx="24" fill="white" shape-rendering="crispEdges"/>
<path d="M147.966 180.012V184.404H152.358V186.312H147.966V190.686H146.076V186.312H141.684V184.404H146.076V180.012H147.966ZM164.588 190.32C166.588 190.32 167.928 188.08 167.928 184.78C167.928 181.46 166.588 179.22 164.588 179.22C162.588 179.22 161.228 181.46 161.228 184.78C161.228 188.08 162.588 190.32 164.588 190.32ZM159.108 184.78C159.108 180.42 161.368 177.36 164.588 177.36C167.788 177.36 170.048 180.42 170.048 184.78C170.048 189.12 167.788 192.2 164.588 192.2C161.368 192.2 159.108 189.12 159.108 184.78ZM173.34 189.98C174.06 189.98 174.56 190.5 174.56 191.22C174.56 191.96 174.06 192.48 173.34 192.48C172.6 192.48 172.08 191.96 172.08 191.22C172.08 190.5 172.6 189.98 173.34 189.98ZM182.626 179.2C180.906 179.2 179.686 180.44 179.686 182.2C179.686 183.96 180.906 185.2 182.626 185.2C184.326 185.2 185.526 183.96 185.526 182.2C185.526 180.44 184.326 179.2 182.626 179.2ZM177.566 182.2C177.566 179.34 179.646 177.34 182.606 177.34C185.566 177.34 187.646 179.34 187.646 182.2C187.646 183.24 187.266 184.2 186.846 184.96L182.846 192.08H180.406L183.306 186.98C183.066 187.02 182.826 187.06 182.566 187.06C179.626 187.04 177.566 185.04 177.566 182.2ZM198.177 177.5V186.46H200.017V188.3H198.177V192.06H196.057V188.3H189.797L189.597 186.46L196.157 177.5H198.177ZM192.117 186.46H196.057V181.04L192.117 186.46Z" fill="#6D0CA6"/>
</g>
<path d="M103.047 395.56C105.383 393.32 108.567 391.048 108.567 389.08C108.567 387.768 107.735 386.84 106.551 386.84C105.639 386.84 104.727 387.496 104.311 388.44L102.823 387.784C103.463 386.312 105.015 385.288 106.551 385.288C108.743 385.288 110.263 386.856 110.263 389.08C110.263 391.528 107.607 393.704 105.447 395.56H110.455V397.048H103.207L103.047 395.56ZM116.394 395.656C117.994 395.656 119.066 393.864 119.066 391.224C119.066 388.568 117.994 386.776 116.394 386.776C114.794 386.776 113.706 388.568 113.706 391.224C113.706 393.864 114.794 395.656 116.394 395.656ZM112.01 391.224C112.01 387.736 113.818 385.288 116.394 385.288C118.954 385.288 120.762 387.736 120.762 391.224C120.762 394.696 118.954 397.16 116.394 397.16C113.818 397.16 112.01 394.696 112.01 391.224ZM122.563 395.56C124.899 393.32 128.083 391.048 128.083 389.08C128.083 387.768 127.251 386.84 126.067 386.84C125.155 386.84 124.243 387.496 123.827 388.44L122.339 387.784C122.979 386.312 124.531 385.288 126.067 385.288C128.259 385.288 129.779 386.856 129.779 389.08C129.779 391.528 127.123 393.704 124.963 395.56H129.971V397.048H122.723L122.563 395.56ZM131.782 395.56C134.118 393.32 137.302 391.048 137.302 389.08C137.302 387.768 136.47 386.84 135.286 386.84C134.374 386.84 133.462 387.496 133.046 388.44L131.558 387.784C132.198 386.312 133.75 385.288 135.286 385.288C137.478 385.288 138.998 386.856 138.998 389.08C138.998 391.528 136.342 393.704 134.182 395.56H139.19V397.048H131.942L131.782 395.56Z" fill="#3F3F46"/>
<path d="M205.43 395.56C207.766 393.32 210.95 391.048 210.95 389.08C210.95 387.768 210.118 386.84 208.934 386.84C208.022 386.84 207.11 387.496 206.694 388.44L205.206 387.784C205.846 386.312 207.398 385.288 208.934 385.288C211.126 385.288 212.646 386.856 212.646 389.08C212.646 391.528 209.99 393.704 207.83 395.56H212.838V397.048H205.59L205.43 395.56ZM218.777 395.656C220.377 395.656 221.449 393.864 221.449 391.224C221.449 388.568 220.377 386.776 218.777 386.776C217.177 386.776 216.089 388.568 216.089 391.224C216.089 393.864 217.177 395.656 218.777 395.656ZM214.393 391.224C214.393 387.736 216.201 385.288 218.777 385.288C221.337 385.288 223.145 387.736 223.145 391.224C223.145 394.696 221.337 397.16 218.777 397.16C216.201 397.16 214.393 394.696 214.393 391.224ZM224.946 395.56C227.282 393.32 230.466 391.048 230.466 389.08C230.466 387.768 229.634 386.84 228.45 386.84C227.538 386.84 226.626 387.496 226.21 388.44L224.722 387.784C225.362 386.312 226.914 385.288 228.45 385.288C230.642 385.288 232.162 386.856 232.162 389.08C232.162 391.528 229.506 393.704 227.346 395.56H232.354V397.048H225.106L224.946 395.56ZM240.117 391.032C241.157 391.64 241.813 392.776 241.813 393.752C241.813 395.736 240.181 397.144 237.861 397.144C235.557 397.144 233.925 395.704 233.925 393.656H235.621C235.621 394.824 236.549 395.64 237.861 395.64C239.205 395.64 240.165 394.824 240.165 393.656C240.165 392.536 239.221 391.736 237.893 391.736H237.061V390.312H237.909C239.125 390.312 239.989 389.592 239.989 388.568C239.989 387.528 239.157 386.808 237.973 386.808C236.789 386.808 235.973 387.544 235.973 388.584H234.277C234.277 386.648 235.797 385.304 237.973 385.304C240.117 385.304 241.637 386.616 241.637 388.472C241.637 389.368 241.061 390.424 240.117 391.032Z" fill="#3F3F46"/>
<defs>
<filter id="filter0_d_4141_2307" x="115" y="150" width="115" height="78" filterUnits="userSpaceOnUse" color-interpolation-filters="sRGB">
<feFlood flood-opacity="0" result="BackgroundImageFix"/>
<feColorMatrix in="SourceAlpha" type="matrix" values="0 0 0 0 0 0 0 0 0 0 0 0 0 0 0 0 0 0 127 0" result="hardAlpha"/>
<feOffset dy="4"/>
<feGaussianBlur stdDeviation="7.5"/>
<feComposite in2="hardAlpha" operator="out"/>
<feColorMatrix type="matrix" values="0 0 0 0 0 0 0 0 0 0 0 0 0 0 0 0 0 0 0.15 0"/>
<feBlend mode="normal" in2="BackgroundImageFix" result="effect1_dropShadow_4141_2307"/>
<feBlend mode="normal" in="SourceGraphic" in2="effect1_dropShadow_4141_2307" result="shape"/>
</filter>
<linearGradient id="paint0_linear_4141_2307" x1="224" y1="245" x2="224" y2="374" gradientUnits="userSpaceOnUse">
<stop stop-color="#9735D0"/>
<stop offset="1" stop-color="#9735D0" stop-opacity="0.4"/>
</linearGradient>
<linearGradient id="paint1_linear_4141_2307" x1="121" y1="278" x2="121" y2="374" gradientUnits="userSpaceOnUse">
<stop stop-color="#E4E4E7"/>
<stop offset="1" stop-color="#E4E4E4" stop-opacity="0.4"/>
</linearGradient>
</defs>
</svg>
