<svg width="101" height="100" viewBox="0 0 101 100" fill="none" xmlns="http://www.w3.org/2000/svg">
<path d="M22.6482 14.3335H21.4882C17.2806 14.3335 15.1768 14.3335 13.8696 15.6406C12.5625 16.9478 12.5625 19.0516 12.5625 23.2592V28.2215C12.5625 30.5356 12.5625 31.6926 13.1569 32.7258C13.7512 33.7591 14.6479 34.2806 16.4412 35.3236C28.2474 42.1902 45.0142 46.0556 56.2048 39.3811C56.9566 38.9326 57.6328 38.3913 58.2107 37.7422C60.7014 34.9446 60.5198 30.7222 57.6493 28.2169C57.0432 27.6878 56.3971 27.2866 55.7464 27.1471C56.2811 27.2091 56.7936 27.2801 57.2826 27.3581C61.35 28.0069 64.7643 30.1804 67.8901 32.5416L75.9552 38.6342C78.7985 40.782 83.0185 40.7824 85.8623 38.6351C88.4225 36.702 89.2053 33.5191 87.5867 30.9247C85.6992 27.8992 83.0399 24.0286 80.4864 21.6636C77.9292 19.2952 74.1222 17.1807 71.0143 15.6806C67.5715 14.0189 63.7681 13.0614 59.8995 12.4352C52.0534 11.1651 43.8762 11.3589 36.1098 12.959C31.7193 13.8635 27.1595 14.3335 22.6482 14.3335Z" fill="#CC7DFA"/>
<circle cx="19.809" cy="19.809" r="19.809" transform="matrix(1 0 0 -1 44.2188 89.8984)" fill="#6D0CA6"/>
<path fill-rule="evenodd" clip-rule="evenodd" d="M65.3315 60.7865C65.3315 60.0673 64.7485 59.4844 64.0294 59.4844C63.3103 59.4844 62.7273 60.0673 62.7273 60.7865V61.1642C60.1962 61.6633 58.0703 63.5873 58.0703 66.2196C58.0703 68.8519 60.1962 70.7759 62.7273 71.275V76.3622C61.428 75.9404 60.6745 74.9149 60.6745 73.9812C60.6745 73.2621 60.0915 72.6792 59.3724 72.6792C58.6533 72.6792 58.0703 73.2621 58.0703 73.9812C58.0703 76.6136 60.1962 78.5376 62.7273 79.0366V79.4144C62.7273 80.1335 63.3103 80.7165 64.0294 80.7165C64.7485 80.7165 65.3315 80.1335 65.3315 79.4144V79.0366C67.8626 78.5376 69.9884 76.6136 69.9884 73.9812C69.9884 71.3489 67.8626 69.4249 65.3315 68.9258V63.8387C66.6308 64.2605 67.3843 65.2859 67.3843 66.2196C67.3843 66.9387 67.9672 67.5217 68.6864 67.5217C69.4055 67.5217 69.9884 66.9387 69.9884 66.2196C69.9884 63.5873 67.8626 61.6633 65.3315 61.1642V60.7865ZM62.7273 63.8387C61.428 64.2605 60.6745 65.2859 60.6745 66.2196C60.6745 67.1533 61.428 68.1788 62.7273 68.6005V63.8387ZM65.3315 71.6003V76.3622C66.6308 75.9404 67.3843 74.9149 67.3843 73.9812C67.3843 73.0476 66.6308 72.0221 65.3315 71.6003Z" fill="white"/>
</svg>
