<svg width="540" height="244" viewBox="0 0 540 244" fill="none" xmlns="http://www.w3.org/2000/svg">
<path d="M82.9043 81.64C80.8403 81.64 79.3763 83.128 79.3763 85.24C79.3763 87.352 80.8403 88.84 82.9043 88.84C84.9443 88.84 86.3843 87.352 86.3843 85.24C86.3843 83.128 84.9443 81.64 82.9043 81.64ZM76.8323 85.24C76.8323 81.808 79.3283 79.408 82.8803 79.408C86.4323 79.408 88.9283 81.808 88.9283 85.24C88.9283 86.488 88.4723 87.64 87.9683 88.552L83.1683 97.096H80.2403L83.7203 90.976C83.4323 91.024 83.1443 91.072 82.8323 91.072C79.3043 91.048 76.8323 88.648 76.8323 85.24ZM97.2218 95.176C99.2138 95.176 100.606 93.904 100.606 92.08C100.606 90.256 99.2138 88.96 97.2218 88.96C95.2298 88.96 93.8138 90.256 93.8138 92.08C93.8138 93.904 95.2298 95.176 97.2218 95.176ZM91.2698 92.128C91.2698 90.592 92.4698 88.816 94.1498 87.88C92.7578 86.92 91.7498 85.36 91.7498 84.112C91.7498 81.28 94.0058 79.312 97.2218 79.312C100.438 79.312 102.694 81.28 102.694 84.112C102.694 85.384 101.71 86.944 100.294 87.88C101.974 88.84 103.174 90.592 103.174 92.128C103.174 95.2 100.726 97.36 97.2218 97.36C93.7418 97.36 91.2698 95.2 91.2698 92.128ZM94.3178 84.112C94.3178 85.672 95.5178 86.776 97.2218 86.776C98.9498 86.776 100.15 85.672 100.15 84.112C100.15 82.552 98.9498 81.472 97.2218 81.472C95.5178 81.472 94.3178 82.552 94.3178 84.112Z" fill="#15151A"/>
<path d="M52 127C52 124.791 53.7909 123 56 123H124C126.209 123 128 124.791 128 127V199H52V127Z" fill="url(#paint0_linear_3769_8177)"/>
<path d="M71.2272 234.38C73.8552 231.86 77.4372 229.304 77.4372 227.09C77.4372 225.614 76.5012 224.57 75.1692 224.57C74.1432 224.57 73.1172 225.308 72.6492 226.37L70.9752 225.632C71.6952 223.976 73.4412 222.824 75.1692 222.824C77.6352 222.824 79.3452 224.588 79.3452 227.09C79.3452 229.844 76.3572 232.292 73.9272 234.38H79.5612V236.054H71.4072L71.2272 234.38ZM86.2423 234.488C88.0423 234.488 89.2483 232.472 89.2483 229.502C89.2483 226.514 88.0423 224.498 86.2423 224.498C84.4423 224.498 83.2183 226.514 83.2183 229.502C83.2183 232.472 84.4423 234.488 86.2423 234.488ZM81.3103 229.502C81.3103 225.578 83.3443 222.824 86.2423 222.824C89.1223 222.824 91.1563 225.578 91.1563 229.502C91.1563 233.408 89.1223 236.18 86.2423 236.18C83.3443 236.18 81.3103 233.408 81.3103 229.502ZM93.1823 234.38C95.8103 231.86 99.3923 229.304 99.3923 227.09C99.3923 225.614 98.4563 224.57 97.1243 224.57C96.0983 224.57 95.0723 225.308 94.6043 226.37L92.9303 225.632C93.6503 223.976 95.3963 222.824 97.1243 222.824C99.5903 222.824 101.3 224.588 101.3 227.09C101.3 229.844 98.3123 232.292 95.8823 234.38H101.516V236.054H93.3623L93.1823 234.38ZM108.161 222.968V236.054L106.253 236.036V225.002L103.949 226.28L103.157 224.678L106.271 222.968H108.161Z" fill="#3F3F46"/>
<path d="M257.852 10.624V28.072L255.308 28.048V13.336L252.236 15.04L251.18 12.904L255.332 10.624H257.852ZM270.667 19.048C272.227 19.96 273.211 21.664 273.211 23.128C273.211 26.104 270.763 28.216 267.283 28.216C263.827 28.216 261.379 26.056 261.379 22.984H263.923C263.923 24.736 265.315 25.96 267.283 25.96C269.299 25.96 270.739 24.736 270.739 22.984C270.739 21.304 269.323 20.104 267.331 20.104H266.083V17.968H267.355C269.179 17.968 270.475 16.888 270.475 15.352C270.475 13.792 269.227 12.712 267.451 12.712C265.675 12.712 264.451 13.816 264.451 15.376H261.907C261.907 12.472 264.187 10.456 267.451 10.456C270.667 10.456 272.947 12.424 272.947 15.208C272.947 16.552 272.083 18.136 270.667 19.048ZM282.111 25.984C284.511 25.984 286.119 23.296 286.119 19.336C286.119 15.352 284.511 12.664 282.111 12.664C279.711 12.664 278.079 15.352 278.079 19.336C278.079 23.296 279.711 25.984 282.111 25.984ZM275.535 19.336C275.535 14.104 278.247 10.432 282.111 10.432C285.951 10.432 288.663 14.104 288.663 19.336C288.663 24.544 285.951 28.24 282.111 28.24C278.247 28.24 275.535 24.544 275.535 19.336Z" fill="#15151A"/>
<path d="M232 58C232 55.7909 233.791 54 236 54H304C306.209 54 308 55.7909 308 58V199H232V58Z" fill="url(#paint1_linear_3769_8177)"/>
<path d="M249.803 234.38C252.431 231.86 256.013 229.304 256.013 227.09C256.013 225.614 255.077 224.57 253.745 224.57C252.719 224.57 251.693 225.308 251.225 226.37L249.551 225.632C250.271 223.976 252.017 222.824 253.745 222.824C256.211 222.824 257.921 224.588 257.921 227.09C257.921 229.844 254.933 232.292 252.503 234.38H258.137V236.054H249.983L249.803 234.38ZM264.818 234.488C266.618 234.488 267.824 232.472 267.824 229.502C267.824 226.514 266.618 224.498 264.818 224.498C263.018 224.498 261.794 226.514 261.794 229.502C261.794 232.472 263.018 234.488 264.818 234.488ZM259.886 229.502C259.886 225.578 261.92 222.824 264.818 222.824C267.698 222.824 269.732 225.578 269.732 229.502C269.732 233.408 267.698 236.18 264.818 236.18C261.92 236.18 259.886 233.408 259.886 229.502ZM271.758 234.38C274.386 231.86 277.968 229.304 277.968 227.09C277.968 225.614 277.032 224.57 275.7 224.57C274.674 224.57 273.648 225.308 273.18 226.37L271.506 225.632C272.226 223.976 273.972 222.824 275.7 222.824C278.166 222.824 279.876 224.588 279.876 227.09C279.876 229.844 276.888 232.292 274.458 234.38H280.092V236.054H271.938L271.758 234.38ZM282.13 234.38C284.758 231.86 288.34 229.304 288.34 227.09C288.34 225.614 287.404 224.57 286.072 224.57C285.046 224.57 284.02 225.308 283.552 226.37L281.878 225.632C282.598 223.976 284.344 222.824 286.072 222.824C288.538 222.824 290.248 224.588 290.248 227.09C290.248 229.844 287.26 232.292 284.83 234.38H290.464V236.054H282.31L282.13 234.38Z" fill="#3F3F46"/>
<path d="M437.852 46.624V64.072L435.308 64.048V49.336L432.236 51.04L431.18 48.904L435.332 46.624H437.852ZM447.931 61.984C450.331 61.984 451.939 59.296 451.939 55.336C451.939 51.352 450.331 48.664 447.931 48.664C445.531 48.664 443.899 51.352 443.899 55.336C443.899 59.296 445.531 61.984 447.931 61.984ZM441.355 55.336C441.355 50.104 444.067 46.432 447.931 46.432C451.771 46.432 454.483 50.104 454.483 55.336C454.483 60.544 451.771 64.24 447.931 64.24C444.067 64.24 441.355 60.544 441.355 55.336ZM466.112 55.048C467.672 55.96 468.656 57.664 468.656 59.128C468.656 62.104 466.208 64.216 462.728 64.216C459.272 64.216 456.824 62.056 456.824 58.984H459.368C459.368 60.736 460.76 61.96 462.728 61.96C464.744 61.96 466.184 60.736 466.184 58.984C466.184 57.304 464.768 56.104 462.776 56.104H461.528V53.968H462.8C464.624 53.968 465.92 52.888 465.92 51.352C465.92 49.792 464.672 48.712 462.896 48.712C461.12 48.712 459.896 49.816 459.896 51.376H457.352C457.352 48.472 459.632 46.456 462.896 46.456C466.112 46.456 468.392 48.424 468.392 51.208C468.392 52.552 467.528 54.136 466.112 55.048Z" fill="#15151A"/>
<path d="M412 94C412 91.7909 413.791 90 416 90H484C486.209 90 488 91.7909 488 94V199H412V94Z" fill="url(#paint2_linear_3769_8177)"/>
<path d="M429.672 234.38C432.3 231.86 435.882 229.304 435.882 227.09C435.882 225.614 434.946 224.57 433.614 224.57C432.588 224.57 431.562 225.308 431.094 226.37L429.42 225.632C430.14 223.976 431.886 222.824 433.614 222.824C436.08 222.824 437.79 224.588 437.79 227.09C437.79 229.844 434.802 232.292 432.372 234.38H438.006V236.054H429.852L429.672 234.38ZM444.687 234.488C446.487 234.488 447.693 232.472 447.693 229.502C447.693 226.514 446.487 224.498 444.687 224.498C442.887 224.498 441.663 226.514 441.663 229.502C441.663 232.472 442.887 234.488 444.687 234.488ZM439.755 229.502C439.755 225.578 441.789 222.824 444.687 222.824C447.567 222.824 449.601 225.578 449.601 229.502C449.601 233.408 447.567 236.18 444.687 236.18C441.789 236.18 439.755 233.408 439.755 229.502ZM451.627 234.38C454.255 231.86 457.837 229.304 457.837 227.09C457.837 225.614 456.901 224.57 455.569 224.57C454.543 224.57 453.517 225.308 453.049 226.37L451.375 225.632C452.095 223.976 453.841 222.824 455.569 222.824C458.035 222.824 459.745 224.588 459.745 227.09C459.745 229.844 456.757 232.292 454.327 234.38H459.961V236.054H451.807L451.627 234.38ZM468.694 229.286C469.864 229.97 470.602 231.248 470.602 232.346C470.602 234.578 468.766 236.162 466.156 236.162C463.564 236.162 461.728 234.542 461.728 232.238H463.636C463.636 233.552 464.68 234.47 466.156 234.47C467.668 234.47 468.748 233.552 468.748 232.238C468.748 230.978 467.686 230.078 466.192 230.078H465.256V228.476H466.21C467.578 228.476 468.55 227.666 468.55 226.514C468.55 225.344 467.614 224.534 466.282 224.534C464.95 224.534 464.032 225.362 464.032 226.532H462.124C462.124 224.354 463.834 222.842 466.282 222.842C468.694 222.842 470.404 224.318 470.404 226.406C470.404 227.414 469.756 228.602 468.694 229.286Z" fill="#3F3F46"/>
<defs>
<linearGradient id="paint0_linear_3769_8177" x1="90" y1="123" x2="90" y2="199" gradientUnits="userSpaceOnUse">
<stop stop-color="#F47725"/>
<stop offset="1" stop-color="#F47725" stop-opacity="0.4"/>
</linearGradient>
<linearGradient id="paint1_linear_3769_8177" x1="270" y1="54" x2="270" y2="199" gradientUnits="userSpaceOnUse">
<stop stop-color="#F47725"/>
<stop offset="1" stop-color="#F47725" stop-opacity="0.4"/>
</linearGradient>
<linearGradient id="paint2_linear_3769_8177" x1="450" y1="90" x2="450" y2="199" gradientUnits="userSpaceOnUse">
<stop stop-color="#F47725"/>
<stop offset="1" stop-color="#F47725" stop-opacity="0.4"/>
</linearGradient>
</defs>
</svg>
