<svg width="101" height="100" viewBox="0 0 101 100" fill="none" xmlns="http://www.w3.org/2000/svg">
<path d="M80.9923 40.4141C76.4542 40.4141 72.849 44.0923 72.849 48.5573C72.849 53.0224 76.4542 56.7006 80.9923 56.7006C85.5304 56.7006 89.1356 53.0224 89.1356 48.5573C89.1356 44.0923 85.5304 40.4141 80.9923 40.4141Z" fill="#6D0CA6"/>
<path d="M80.9924 57.5236C77.0068 57.5236 73.4005 58.8913 70.7672 60.7957C68.2401 62.6232 66.1953 65.2746 66.1953 68.0432C66.1953 71.242 68.8007 72.8783 71.3302 73.6722C73.9472 74.4936 77.4006 74.7607 80.9924 74.7607C84.5843 74.7607 88.0376 74.4936 90.6546 73.6722C93.1842 72.8783 95.7895 71.242 95.7895 68.0432C95.7895 65.2746 93.7448 62.6232 91.2176 60.7957C88.5843 58.8913 84.978 57.5236 80.9924 57.5236Z" fill="#6D0CA6"/>
<path d="M20.0392 40.4141C15.501 40.4141 11.8959 44.0923 11.8959 48.5573C11.8959 53.0224 15.501 56.7006 20.0392 56.7006C24.5773 56.7006 28.1824 53.0224 28.1824 48.5573C28.1824 44.0923 24.5773 40.4141 20.0392 40.4141Z" fill="#6D0CA6"/>
<path d="M20.0393 57.5236C16.0537 57.5236 12.4474 58.8913 9.8141 60.7957C7.28696 62.6232 5.24219 65.2746 5.24219 68.0432C5.24219 71.242 7.84755 72.8783 10.3771 73.6722C12.9941 74.4936 16.4474 74.7607 20.0393 74.7607C23.6312 74.7607 27.0845 74.4936 29.7015 73.6722C32.231 72.8783 34.8364 71.242 34.8364 68.0432C34.8364 65.2746 32.7916 62.6232 30.2645 60.7957C27.6312 58.8913 24.0249 57.5236 20.0393 57.5236Z" fill="#6D0CA6"/>
<path d="M50.5119 37.5C45.1998 37.5 40.9794 41.8051 40.9794 47.0326C40.9794 52.26 45.1998 56.5652 50.5119 56.5652C55.8241 56.5652 60.0445 52.26 60.0445 47.0326C60.0445 41.8051 55.8241 37.5 50.5119 37.5Z" fill="#CC7DFA"/>
<path d="M50.5107 58.4565C45.7283 58.4565 41.4006 60.0985 38.2452 62.3805C35.1959 64.5857 32.8281 67.718 32.8281 70.8997C32.8281 74.5117 35.7565 76.4151 38.8082 77.3729C41.9473 78.3582 46.122 78.6859 50.5107 78.6859C54.8993 78.6859 59.0741 78.3582 62.2132 77.3729C65.2649 76.4151 68.1933 74.5117 68.1933 70.8997C68.1933 67.718 65.8255 64.5857 62.7762 62.3805C59.6208 60.0985 55.2931 58.4565 50.5107 58.4565Z" fill="#CC7DFA"/>
<path d="M29.7812 26.4358C29.7812 28.5298 32.0273 30.7445 33.6714 32.0853C34.4157 32.6922 34.7878 32.9957 35.3691 32.9957C35.9504 32.9957 36.3226 32.6922 37.0669 32.0853C38.711 30.7446 40.957 28.5298 40.957 26.4357C40.957 23.1327 37.8836 21.6314 35.3691 24.3338C32.8547 21.6314 29.7812 23.1328 29.7812 26.4358Z" fill="#6D0CA6"/>
<path d="M60.0547 26.4358C60.0547 28.5298 62.3007 30.7445 63.9448 32.0853C64.6891 32.6922 65.0613 32.9957 65.6426 32.9957C66.2239 32.9957 66.596 32.6922 67.3403 32.0853C68.9844 30.7446 71.2304 28.5298 71.2304 26.4357C71.2304 23.1327 68.157 21.6314 65.6426 24.3338C63.1281 21.6314 60.0547 23.1328 60.0547 26.4358Z" fill="#6D0CA6"/>
</svg>
