<svg width="1212" height="385" viewBox="0 0 1212 385" fill="none" xmlns="http://www.w3.org/2000/svg">
<g filter="url(#filter0_d_15629_6153)">
<rect x="704" y="246" width="164" height="132" rx="8" fill="white" shape-rendering="crispEdges"/>
<rect x="766" y="232" width="40" height="28" rx="14" fill="#9735D0"/>
<path d="M784.132 246.832L782.436 246.624L782.836 240.4H789.06V241.888H784.468L784.276 244.736C784.804 244.496 785.396 244.352 785.924 244.352C788.324 244.352 790.02 245.968 790.02 248.256C790.02 250.576 788.324 252.208 785.924 252.208C784.036 252.208 782.404 250.944 781.988 249.152L783.636 248.768C783.876 249.84 784.82 250.608 785.924 250.608C787.332 250.608 788.324 249.632 788.324 248.256C788.324 246.912 787.332 245.952 785.924 245.952C785.332 245.952 784.596 246.32 784.132 246.832Z" fill="white"/>
<path d="M743.813 277.64C744.645 277.64 745.381 277.459 746.021 277.096C746.661 276.723 747.157 276.205 747.509 275.544C747.861 274.872 748.037 274.099 748.037 273.224C748.037 272.349 747.861 271.581 747.509 270.92C747.157 270.248 746.661 269.731 746.021 269.368C745.381 268.995 744.645 268.808 743.813 268.808L742.133 268.824V277.624L743.813 277.64ZM740.437 267.32H743.829C744.97 267.32 745.983 267.571 746.869 268.072C747.765 268.573 748.463 269.272 748.965 270.168C749.466 271.064 749.717 272.083 749.717 273.224C749.717 274.365 749.466 275.384 748.965 276.28C748.463 277.176 747.765 277.875 746.869 278.376C745.983 278.877 744.97 279.128 743.829 279.128H740.437V267.32ZM754.778 279.176C754.064 279.176 753.429 279.016 752.874 278.696C752.32 278.365 751.882 277.912 751.562 277.336C751.253 276.749 751.098 276.088 751.098 275.352C751.098 274.605 751.253 273.944 751.562 273.368C751.882 272.781 752.32 272.328 752.874 272.008C753.429 271.677 754.064 271.512 754.778 271.512C755.77 271.512 756.512 271.763 757.002 272.264C757.493 272.755 757.808 273.192 757.946 273.576C758.17 274.099 758.282 274.723 758.282 275.448C758.282 275.64 758.277 275.779 758.266 275.864C758.266 275.939 758.266 275.987 758.266 276.008H752.762C752.858 276.52 753.098 276.936 753.482 277.256C753.866 277.576 754.298 277.736 754.778 277.736C755.322 277.736 755.744 277.629 756.042 277.416C756.341 277.203 756.554 276.989 756.682 276.776L758.042 277.384C757.829 277.875 757.44 278.296 756.874 278.648C756.32 279 755.621 279.176 754.778 279.176ZM756.666 274.664C756.581 274.152 756.384 273.741 756.074 273.432C755.765 273.112 755.333 272.952 754.778 272.952C754.277 272.952 753.84 273.112 753.466 273.432C753.093 273.752 752.858 274.163 752.762 274.664H756.666ZM763.642 279.144H762.17L758.97 271.512H760.826L762.906 276.856L765.002 271.512H766.874L763.642 279.144ZM771.169 279.176C770.454 279.176 769.82 279.016 769.265 278.696C768.71 278.365 768.273 277.912 767.953 277.336C767.644 276.749 767.489 276.088 767.489 275.352C767.489 274.605 767.644 273.944 767.953 273.368C768.273 272.781 768.71 272.328 769.265 272.008C769.82 271.677 770.454 271.512 771.169 271.512C772.161 271.512 772.902 271.763 773.393 272.264C773.884 272.755 774.198 273.192 774.337 273.576C774.561 274.099 774.673 274.723 774.673 275.448C774.673 275.64 774.668 275.779 774.657 275.864C774.657 275.939 774.657 275.987 774.657 276.008H769.153C769.249 276.52 769.489 276.936 769.873 277.256C770.257 277.576 770.689 277.736 771.169 277.736C771.713 277.736 772.134 277.629 772.433 277.416C772.732 277.203 772.945 276.989 773.073 276.776L774.433 277.384C774.22 277.875 773.83 278.296 773.265 278.648C772.71 279 772.012 279.176 771.169 279.176ZM773.057 274.664C772.972 274.152 772.774 273.741 772.465 273.432C772.156 273.112 771.724 272.952 771.169 272.952C770.668 272.952 770.23 273.112 769.857 273.432C769.484 273.752 769.249 274.163 769.153 274.664H773.057ZM778.033 267.704V279.128H776.337V267.704H778.033ZM783.31 277.752C783.907 277.752 784.387 277.533 784.75 277.096C785.112 276.659 785.294 276.077 785.294 275.352C785.294 274.637 785.112 274.061 784.75 273.624C784.387 273.176 783.907 272.952 783.31 272.952C782.712 272.952 782.232 273.171 781.87 273.608C781.507 274.045 781.326 274.627 781.326 275.352C781.326 276.077 781.507 276.659 781.87 277.096C782.232 277.533 782.712 277.752 783.31 277.752ZM779.63 275.352C779.63 274.605 779.784 273.944 780.094 273.368C780.414 272.781 780.851 272.323 781.406 271.992C781.96 271.661 782.595 271.496 783.31 271.496C784.024 271.496 784.659 271.661 785.214 271.992C785.768 272.323 786.2 272.781 786.51 273.368C786.83 273.944 786.99 274.605 786.99 275.352C786.99 276.088 786.83 276.749 786.51 277.336C786.2 277.923 785.768 278.381 785.214 278.712C784.659 279.043 784.024 279.208 783.31 279.208C782.595 279.208 781.96 279.043 781.406 278.712C780.851 278.381 780.414 277.923 780.094 277.336C779.784 276.749 779.63 276.088 779.63 275.352ZM792.619 277.752C793.238 277.752 793.728 277.533 794.091 277.096C794.464 276.648 794.651 276.061 794.651 275.336C794.651 274.611 794.464 274.029 794.091 273.592C793.728 273.144 793.238 272.92 792.619 272.92C792.246 272.92 791.894 273.027 791.563 273.24C791.243 273.453 790.987 273.747 790.795 274.12C790.614 274.493 790.523 274.899 790.523 275.336C790.523 275.773 790.614 276.179 790.795 276.552C790.987 276.925 791.243 277.219 791.563 277.432C791.894 277.645 792.246 277.752 792.619 277.752ZM788.811 271.496H790.507V272.616C790.784 272.253 791.136 271.976 791.563 271.784C791.99 271.592 792.374 271.496 792.715 271.496C793.419 271.496 794.043 271.661 794.587 271.992C795.142 272.312 795.574 272.765 795.883 273.352C796.192 273.928 796.347 274.589 796.347 275.336C796.347 276.083 796.192 276.749 795.883 277.336C795.574 277.923 795.142 278.381 794.587 278.712C794.043 279.032 793.419 279.192 792.715 279.192C792.363 279.192 791.974 279.096 791.547 278.904C791.131 278.712 790.784 278.429 790.507 278.056V282.52H788.811V271.496ZM805.371 279.208C804.677 279.208 804.053 279.043 803.499 278.712C802.955 278.381 802.528 277.928 802.219 277.352C801.909 276.765 801.755 276.104 801.755 275.368C801.755 274.632 801.909 273.976 802.219 273.4C802.528 272.813 802.955 272.355 803.499 272.024C804.053 271.693 804.677 271.528 805.371 271.528C805.765 271.528 806.155 271.619 806.539 271.8C806.923 271.981 807.264 272.248 807.563 272.6V271.512H809.259V279.144H807.563V278.12C807.275 278.483 806.939 278.755 806.555 278.936C806.171 279.117 805.776 279.208 805.371 279.208ZM803.451 275.368C803.451 276.083 803.637 276.664 804.011 277.112C804.384 277.549 804.875 277.768 805.483 277.768C805.856 277.768 806.203 277.667 806.523 277.464C806.843 277.251 807.099 276.963 807.291 276.6C807.483 276.227 807.579 275.816 807.579 275.368C807.579 274.92 807.483 274.515 807.291 274.152C807.099 273.779 806.843 273.491 806.523 273.288C806.203 273.075 805.856 272.968 805.483 272.968C804.875 272.968 804.384 273.187 804.011 273.624C803.637 274.061 803.451 274.643 803.451 275.368ZM816.54 274.936C816.54 274.328 816.391 273.853 816.092 273.512C815.793 273.16 815.383 272.984 814.86 272.984C814.337 272.995 813.9 273.187 813.548 273.56C813.196 273.923 813.025 274.381 813.036 274.936V279.144H811.34V271.512H813.036V272.552C813.281 272.253 813.591 272.008 813.964 271.816C814.337 271.624 814.705 271.528 815.068 271.528C815.591 271.528 816.092 271.645 816.572 271.88C817.052 272.115 817.447 272.483 817.756 272.984C818.076 273.485 818.236 274.115 818.236 274.872V279.144H816.54V274.936ZM823.59 279.208C822.896 279.208 822.272 279.043 821.718 278.712C821.163 278.381 820.731 277.928 820.422 277.352C820.112 276.765 819.958 276.099 819.958 275.352C819.958 274.605 820.112 273.944 820.422 273.368C820.731 272.781 821.163 272.323 821.718 271.992C822.272 271.661 822.896 271.496 823.59 271.496C823.952 271.496 824.336 271.587 824.742 271.768C825.158 271.949 825.515 272.237 825.814 272.632V267.704H827.51V279.144H825.814V278.072C825.504 278.456 825.142 278.744 824.726 278.936C824.32 279.117 823.942 279.208 823.59 279.208ZM821.654 275.368C821.654 276.093 821.84 276.68 822.214 277.128C822.587 277.565 823.083 277.784 823.702 277.784C824.086 277.784 824.438 277.677 824.758 277.464C825.078 277.251 825.334 276.963 825.526 276.6C825.718 276.227 825.814 275.816 825.814 275.368C825.814 274.931 825.718 274.525 825.526 274.152C825.334 273.779 825.072 273.485 824.742 273.272C824.422 273.059 824.075 272.952 823.702 272.952C823.083 272.952 822.587 273.176 822.214 273.624C821.84 274.061 821.654 274.643 821.654 275.368ZM748.57 297.496V305.128H746.874V297.496H748.57ZM746.762 294.648C746.762 294.371 746.853 294.141 747.034 293.96C747.215 293.779 747.445 293.688 747.722 293.688C747.999 293.688 748.229 293.779 748.41 293.96C748.591 294.141 748.682 294.371 748.682 294.648C748.682 294.925 748.591 295.155 748.41 295.336C748.229 295.517 747.999 295.608 747.722 295.608C747.445 295.608 747.215 295.517 747.034 295.336C746.853 295.155 746.762 294.925 746.762 294.648ZM760.63 300.808C760.63 300.264 760.496 299.827 760.23 299.496C759.963 299.165 759.611 299 759.174 299C758.694 299 758.299 299.165 757.99 299.496C757.691 299.827 757.542 300.237 757.542 300.728V305.144H755.83V300.808C755.83 300.264 755.696 299.827 755.43 299.496C755.174 299.165 754.832 299 754.406 299C753.926 299 753.526 299.181 753.206 299.544C752.896 299.907 752.742 300.36 752.742 300.904V305.144H751.046V297.512H752.742V298.552C752.976 298.243 753.248 297.997 753.558 297.816C753.878 297.624 754.214 297.528 754.566 297.528C755.014 297.528 755.446 297.656 755.862 297.912C756.278 298.168 756.598 298.499 756.822 298.904C757.088 298.499 757.451 298.168 757.91 297.912C758.368 297.656 758.827 297.528 759.286 297.528C759.883 297.528 760.411 297.667 760.87 297.944C761.339 298.221 761.702 298.605 761.958 299.096C762.214 299.576 762.342 300.125 762.342 300.744V305.144H760.63V300.808ZM768.306 303.752C768.925 303.752 769.416 303.533 769.778 303.096C770.152 302.648 770.338 302.061 770.338 301.336C770.338 300.611 770.152 300.029 769.778 299.592C769.416 299.144 768.925 298.92 768.306 298.92C767.933 298.92 767.581 299.027 767.25 299.24C766.93 299.453 766.674 299.747 766.482 300.12C766.301 300.493 766.21 300.899 766.21 301.336C766.21 301.773 766.301 302.179 766.482 302.552C766.674 302.925 766.93 303.219 767.25 303.432C767.581 303.645 767.933 303.752 768.306 303.752ZM764.498 297.496H766.194V298.616C766.472 298.253 766.824 297.976 767.25 297.784C767.677 297.592 768.061 297.496 768.402 297.496C769.106 297.496 769.73 297.661 770.274 297.992C770.829 298.312 771.261 298.765 771.57 299.352C771.88 299.928 772.034 300.589 772.034 301.336C772.034 302.083 771.88 302.749 771.57 303.336C771.261 303.923 770.829 304.381 770.274 304.712C769.73 305.032 769.106 305.192 768.402 305.192C768.05 305.192 767.661 305.096 767.234 304.904C766.818 304.712 766.472 304.429 766.194 304.056V308.52H764.498V297.496ZM775.314 293.704V305.128H773.618V293.704H775.314ZM780.591 305.176C779.876 305.176 779.242 305.016 778.687 304.696C778.132 304.365 777.695 303.912 777.375 303.336C777.066 302.749 776.911 302.088 776.911 301.352C776.911 300.605 777.066 299.944 777.375 299.368C777.695 298.781 778.132 298.328 778.687 298.008C779.242 297.677 779.876 297.512 780.591 297.512C781.583 297.512 782.324 297.763 782.815 298.264C783.306 298.755 783.62 299.192 783.759 299.576C783.983 300.099 784.095 300.723 784.095 301.448C784.095 301.64 784.09 301.779 784.079 301.864C784.079 301.939 784.079 301.987 784.079 302.008H778.575C778.671 302.52 778.911 302.936 779.295 303.256C779.679 303.576 780.111 303.736 780.591 303.736C781.135 303.736 781.556 303.629 781.855 303.416C782.154 303.203 782.367 302.989 782.495 302.776L783.855 303.384C783.642 303.875 783.252 304.296 782.687 304.648C782.132 305 781.434 305.176 780.591 305.176ZM782.479 300.664C782.394 300.152 782.196 299.741 781.887 299.432C781.578 299.112 781.146 298.952 780.591 298.952C780.09 298.952 779.652 299.112 779.279 299.432C778.906 299.752 778.671 300.163 778.575 300.664H782.479ZM795.583 300.808C795.583 300.264 795.449 299.827 795.183 299.496C794.916 299.165 794.564 299 794.127 299C793.647 299 793.252 299.165 792.943 299.496C792.644 299.827 792.495 300.237 792.495 300.728V305.144H790.783V300.808C790.783 300.264 790.649 299.827 790.383 299.496C790.127 299.165 789.785 299 789.359 299C788.879 299 788.479 299.181 788.159 299.544C787.849 299.907 787.695 300.36 787.695 300.904V305.144H785.999V297.512H787.695V298.552C787.929 298.243 788.201 297.997 788.511 297.816C788.831 297.624 789.167 297.528 789.519 297.528C789.967 297.528 790.399 297.656 790.815 297.912C791.231 298.168 791.551 298.499 791.775 298.904C792.041 298.499 792.404 298.168 792.863 297.912C793.321 297.656 793.78 297.528 794.239 297.528C794.836 297.528 795.364 297.667 795.823 297.944C796.292 298.221 796.655 298.605 796.911 299.096C797.167 299.576 797.295 300.125 797.295 300.744V305.144H795.583V300.808ZM802.841 305.176C802.126 305.176 801.492 305.016 800.937 304.696C800.382 304.365 799.945 303.912 799.625 303.336C799.316 302.749 799.161 302.088 799.161 301.352C799.161 300.605 799.316 299.944 799.625 299.368C799.945 298.781 800.382 298.328 800.937 298.008C801.492 297.677 802.126 297.512 802.841 297.512C803.833 297.512 804.574 297.763 805.065 298.264C805.556 298.755 805.87 299.192 806.009 299.576C806.233 300.099 806.345 300.723 806.345 301.448C806.345 301.64 806.34 301.779 806.329 301.864C806.329 301.939 806.329 301.987 806.329 302.008H800.825C800.921 302.52 801.161 302.936 801.545 303.256C801.929 303.576 802.361 303.736 802.841 303.736C803.385 303.736 803.806 303.629 804.105 303.416C804.404 303.203 804.617 302.989 804.745 302.776L806.105 303.384C805.892 303.875 805.502 304.296 804.937 304.648C804.382 305 803.684 305.176 802.841 305.176ZM804.729 300.664C804.644 300.152 804.446 299.741 804.137 299.432C803.828 299.112 803.396 298.952 802.841 298.952C802.34 298.952 801.902 299.112 801.529 299.432C801.156 299.752 800.921 300.163 800.825 300.664H804.729ZM813.337 300.936C813.337 300.328 813.187 299.853 812.889 299.512C812.59 299.16 812.179 298.984 811.657 298.984C811.134 298.995 810.697 299.187 810.345 299.56C809.993 299.923 809.822 300.381 809.833 300.936V305.144H808.137V297.512H809.833V298.552C810.078 298.253 810.387 298.008 810.761 297.816C811.134 297.624 811.502 297.528 811.865 297.528C812.387 297.528 812.889 297.645 813.369 297.88C813.849 298.115 814.243 298.483 814.553 298.984C814.873 299.485 815.033 300.115 815.033 300.872V305.144H813.337V300.936ZM817.831 298.968H816.391V297.496H817.831V294.824H819.527V297.496H821.335V298.968H819.527V305.144H817.831V298.968ZM726.05 331.208C725.357 331.208 724.733 331.043 724.178 330.712C723.634 330.381 723.208 329.928 722.898 329.352C722.589 328.765 722.434 328.104 722.434 327.368C722.434 326.632 722.589 325.976 722.898 325.4C723.208 324.813 723.634 324.355 724.178 324.024C724.733 323.693 725.357 323.528 726.05 323.528C726.445 323.528 726.834 323.619 727.218 323.8C727.602 323.981 727.944 324.248 728.242 324.6V323.512H729.938V331.144H728.242V330.12C727.954 330.483 727.618 330.755 727.234 330.936C726.85 331.117 726.456 331.208 726.05 331.208ZM724.13 327.368C724.13 328.083 724.317 328.664 724.69 329.112C725.064 329.549 725.554 329.768 726.162 329.768C726.536 329.768 726.882 329.667 727.202 329.464C727.522 329.251 727.778 328.963 727.97 328.6C728.162 328.227 728.258 327.816 728.258 327.368C728.258 326.92 728.162 326.515 727.97 326.152C727.778 325.779 727.522 325.491 727.202 325.288C726.882 325.075 726.536 324.968 726.162 324.968C725.554 324.968 725.064 325.187 724.69 325.624C724.317 326.061 724.13 326.643 724.13 327.368ZM735.893 323.512H737.589V324.632C737.845 324.269 738.186 323.981 738.613 323.768C739.039 323.555 739.477 323.459 739.925 323.48V325.048C739.487 325.027 739.087 325.128 738.725 325.352C738.373 325.565 738.095 325.853 737.893 326.216C737.69 326.579 737.589 326.957 737.589 327.352V331.144H735.893V323.512ZM743.562 323.496V331.128H741.866V323.496H743.562ZM741.754 320.648C741.754 320.371 741.845 320.141 742.026 319.96C742.208 319.779 742.437 319.688 742.714 319.688C742.992 319.688 743.221 319.779 743.402 319.96C743.584 320.141 743.674 320.371 743.674 320.648C743.674 320.925 743.584 321.155 743.402 321.336C743.221 321.517 742.992 321.608 742.714 321.608C742.437 321.608 742.208 321.517 742.026 321.336C741.845 321.155 741.754 320.925 741.754 320.648ZM746.982 328.52C747.142 328.904 747.387 329.203 747.718 329.416C748.048 329.629 748.363 329.736 748.662 329.736C749.067 329.736 749.387 329.667 749.622 329.528C749.856 329.379 749.974 329.171 749.974 328.904C749.974 328.691 749.856 328.52 749.622 328.392C749.387 328.264 749.008 328.109 748.486 327.928C747.974 327.747 747.552 327.576 747.222 327.416C746.891 327.256 746.598 327.027 746.342 326.728C746.096 326.419 745.974 326.04 745.974 325.592C745.974 324.931 746.24 324.408 746.774 324.024C747.307 323.629 747.974 323.432 748.774 323.432C749.115 323.432 749.472 323.501 749.846 323.64C750.23 323.779 750.571 323.992 750.87 324.28C751.179 324.568 751.392 324.925 751.51 325.352L750.086 325.864C749.968 325.491 749.782 325.235 749.526 325.096C749.28 324.957 749.03 324.888 748.774 324.888C748.432 324.888 748.16 324.952 747.958 325.08C747.766 325.208 747.67 325.379 747.67 325.592C747.67 325.805 747.776 325.971 747.99 326.088C748.203 326.205 748.587 326.36 749.142 326.552C749.654 326.733 750.075 326.909 750.406 327.08C750.747 327.24 751.04 327.469 751.286 327.768C751.542 328.067 751.67 328.44 751.67 328.888C751.67 329.581 751.392 330.141 750.838 330.568C750.283 330.984 749.558 331.192 748.662 331.192C748.064 331.192 747.483 331.021 746.918 330.68C746.352 330.328 745.931 329.864 745.654 329.288L746.982 328.52ZM755.217 326.664L757.937 323.512H760.225L757.249 326.92L760.161 331.144H758.097L756.033 328.184L755.217 329.144V331.144H753.521V319.704H755.217V326.664ZM762.56 328.52C762.72 328.904 762.965 329.203 763.296 329.416C763.627 329.629 763.941 329.736 764.24 329.736C764.645 329.736 764.965 329.667 765.2 329.528C765.435 329.379 765.552 329.171 765.552 328.904C765.552 328.691 765.435 328.52 765.2 328.392C764.965 328.264 764.587 328.109 764.064 327.928C763.552 327.747 763.131 327.576 762.8 327.416C762.469 327.256 762.176 327.027 761.92 326.728C761.675 326.419 761.552 326.04 761.552 325.592C761.552 324.931 761.819 324.408 762.352 324.024C762.885 323.629 763.552 323.432 764.352 323.432C764.693 323.432 765.051 323.501 765.424 323.64C765.808 323.779 766.149 323.992 766.448 324.28C766.757 324.568 766.971 324.925 767.088 325.352L765.664 325.864C765.547 325.491 765.36 325.235 765.104 325.096C764.859 324.957 764.608 324.888 764.352 324.888C764.011 324.888 763.739 324.952 763.536 325.08C763.344 325.208 763.248 325.379 763.248 325.592C763.248 325.805 763.355 325.971 763.568 326.088C763.781 326.205 764.165 326.36 764.72 326.552C765.232 326.733 765.653 326.909 765.984 327.08C766.325 327.24 766.619 327.469 766.864 327.768C767.12 328.067 767.248 328.44 767.248 328.888C767.248 329.581 766.971 330.141 766.416 330.568C765.861 330.984 765.136 331.192 764.24 331.192C763.643 331.192 763.061 331.021 762.496 330.68C761.931 330.328 761.509 329.864 761.232 329.288L762.56 328.52ZM782.716 326.808C782.716 326.264 782.582 325.827 782.316 325.496C782.049 325.165 781.697 325 781.26 325C780.78 325 780.385 325.165 780.076 325.496C779.777 325.827 779.628 326.237 779.628 326.728V331.144H777.916V326.808C777.916 326.264 777.782 325.827 777.516 325.496C777.26 325.165 776.918 325 776.492 325C776.012 325 775.612 325.181 775.292 325.544C774.982 325.907 774.828 326.36 774.828 326.904V331.144H773.132V323.512H774.828V324.552C775.062 324.243 775.334 323.997 775.644 323.816C775.964 323.624 776.3 323.528 776.652 323.528C777.1 323.528 777.532 323.656 777.948 323.912C778.364 324.168 778.684 324.499 778.908 324.904C779.174 324.499 779.537 324.168 779.996 323.912C780.454 323.656 780.913 323.528 781.372 323.528C781.969 323.528 782.497 323.667 782.956 323.944C783.425 324.221 783.788 324.605 784.044 325.096C784.3 325.576 784.428 326.125 784.428 326.744V331.144H782.716V326.808ZM788.422 323.496V331.128H786.726V323.496H788.422ZM786.614 320.648C786.614 320.371 786.704 320.141 786.886 319.96C787.067 319.779 787.296 319.688 787.574 319.688C787.851 319.688 788.08 319.779 788.262 319.96C788.443 320.141 788.534 320.371 788.534 320.648C788.534 320.925 788.443 321.155 788.262 321.336C788.08 321.517 787.851 321.608 787.574 321.608C787.296 321.608 787.067 321.517 786.886 321.336C786.704 321.155 786.614 320.925 786.614 320.648ZM791.745 324.968H790.305V323.496H791.745V320.824H793.441V323.496H795.249V324.968H793.441V331.144H791.745V324.968ZM798.687 323.496V331.128H796.991V323.496H798.687ZM796.879 320.648C796.879 320.371 796.97 320.141 797.151 319.96C797.333 319.779 797.562 319.688 797.839 319.688C798.117 319.688 798.346 319.779 798.527 319.96C798.709 320.141 798.799 320.371 798.799 320.648C798.799 320.925 798.709 321.155 798.527 321.336C798.346 321.517 798.117 321.608 797.839 321.608C797.562 321.608 797.333 321.517 797.151 321.336C796.97 321.155 796.879 320.925 796.879 320.648ZM804.459 329.736C804.853 329.736 805.211 329.629 805.531 329.416C805.851 329.203 806.101 328.915 806.283 328.552C806.464 328.179 806.555 327.773 806.555 327.336C806.555 326.909 806.464 326.515 806.283 326.152C806.101 325.779 805.851 325.485 805.531 325.272C805.211 325.059 804.853 324.952 804.459 324.952C803.861 324.952 803.376 325.171 803.003 325.608C802.629 326.045 802.443 326.621 802.443 327.336C802.443 328.061 802.624 328.643 802.987 329.08C803.36 329.517 803.851 329.736 804.459 329.736ZM800.747 327.352C800.747 326.616 800.901 325.955 801.211 325.368C801.52 324.781 801.947 324.323 802.491 323.992C803.045 323.661 803.669 323.496 804.363 323.496C804.768 323.496 805.168 323.597 805.563 323.8C805.968 323.992 806.299 324.264 806.555 324.616V323.496H808.251V330.568C808.251 331.293 808.091 331.96 807.771 332.568C807.461 333.176 807.019 333.656 806.443 334.008C805.867 334.36 805.2 334.536 804.443 334.536C803.771 334.536 803.147 334.387 802.571 334.088C802.005 333.8 801.541 333.357 801.179 332.76L802.523 331.864C802.811 332.28 803.099 332.579 803.387 332.76C803.685 332.941 804.037 333.032 804.443 333.032C805.093 333.032 805.605 332.808 805.979 332.36C806.363 331.912 806.555 331.363 806.555 330.712V330.04C806.267 330.403 805.92 330.685 805.515 330.888C805.12 331.091 804.736 331.192 804.363 331.192C803.669 331.192 803.045 331.027 802.491 330.696C801.947 330.365 801.52 329.912 801.211 329.336C800.901 328.749 800.747 328.088 800.747 327.352ZM813.425 331.208C812.732 331.208 812.108 331.043 811.553 330.712C811.009 330.381 810.583 329.928 810.273 329.352C809.964 328.765 809.809 328.104 809.809 327.368C809.809 326.632 809.964 325.976 810.273 325.4C810.583 324.813 811.009 324.355 811.553 324.024C812.108 323.693 812.732 323.528 813.425 323.528C813.82 323.528 814.209 323.619 814.593 323.8C814.977 323.981 815.319 324.248 815.617 324.6V323.512H817.313V331.144H815.617V330.12C815.329 330.483 814.993 330.755 814.609 330.936C814.225 331.117 813.831 331.208 813.425 331.208ZM811.505 327.368C811.505 328.083 811.692 328.664 812.065 329.112C812.439 329.549 812.929 329.768 813.537 329.768C813.911 329.768 814.257 329.667 814.577 329.464C814.897 329.251 815.153 328.963 815.345 328.6C815.537 328.227 815.633 327.816 815.633 327.368C815.633 326.92 815.537 326.515 815.345 326.152C815.153 325.779 814.897 325.491 814.577 325.288C814.257 325.075 813.911 324.968 813.537 324.968C812.929 324.968 812.439 325.187 812.065 325.624C811.692 326.061 811.505 326.643 811.505 327.368ZM820.276 324.968H818.836V323.496H820.276V320.824H821.972V323.496H823.78V324.968H821.972V331.144H820.276V324.968ZM827.219 323.496V331.128H825.523V323.496H827.219ZM825.411 320.648C825.411 320.371 825.501 320.141 825.683 319.96C825.864 319.779 826.093 319.688 826.371 319.688C826.648 319.688 826.877 319.779 827.059 319.96C827.24 320.141 827.331 320.371 827.331 320.648C827.331 320.925 827.24 321.155 827.059 321.336C826.877 321.517 826.648 321.608 826.371 321.608C826.093 321.608 825.864 321.517 825.683 321.336C825.501 321.155 825.411 320.925 825.411 320.648ZM832.958 329.752C833.555 329.752 834.035 329.533 834.398 329.096C834.761 328.659 834.942 328.077 834.942 327.352C834.942 326.637 834.761 326.061 834.398 325.624C834.035 325.176 833.555 324.952 832.958 324.952C832.361 324.952 831.881 325.171 831.518 325.608C831.155 326.045 830.974 326.627 830.974 327.352C830.974 328.077 831.155 328.659 831.518 329.096C831.881 329.533 832.361 329.752 832.958 329.752ZM829.278 327.352C829.278 326.605 829.433 325.944 829.742 325.368C830.062 324.781 830.499 324.323 831.054 323.992C831.609 323.661 832.243 323.496 832.958 323.496C833.673 323.496 834.307 323.661 834.862 323.992C835.417 324.323 835.849 324.781 836.158 325.368C836.478 325.944 836.638 326.605 836.638 327.352C836.638 328.088 836.478 328.749 836.158 329.336C835.849 329.923 835.417 330.381 834.862 330.712C834.307 331.043 833.673 331.208 832.958 331.208C832.243 331.208 831.609 331.043 831.054 330.712C830.499 330.381 830.062 329.923 829.742 329.336C829.433 328.749 829.278 328.088 829.278 327.352ZM843.563 326.936C843.563 326.328 843.414 325.853 843.115 325.512C842.817 325.16 842.406 324.984 841.883 324.984C841.361 324.995 840.923 325.187 840.571 325.56C840.219 325.923 840.049 326.381 840.059 326.936V331.144H838.363V323.512H840.059V324.552C840.305 324.253 840.614 324.008 840.987 323.816C841.361 323.624 841.729 323.528 842.091 323.528C842.614 323.528 843.115 323.645 843.595 323.88C844.075 324.115 844.47 324.483 844.779 324.984C845.099 325.485 845.259 326.115 845.259 326.872V331.144H843.563V326.936ZM757.513 354.52C757.673 354.904 757.918 355.203 758.249 355.416C758.58 355.629 758.894 355.736 759.193 355.736C759.598 355.736 759.918 355.667 760.153 355.528C760.388 355.379 760.505 355.171 760.505 354.904C760.505 354.691 760.388 354.52 760.153 354.392C759.918 354.264 759.54 354.109 759.017 353.928C758.505 353.747 758.084 353.576 757.753 353.416C757.422 353.256 757.129 353.027 756.873 352.728C756.628 352.419 756.505 352.04 756.505 351.592C756.505 350.931 756.772 350.408 757.305 350.024C757.838 349.629 758.505 349.432 759.305 349.432C759.646 349.432 760.004 349.501 760.377 349.64C760.761 349.779 761.102 349.992 761.401 350.28C761.71 350.568 761.924 350.925 762.041 351.352L760.617 351.864C760.5 351.491 760.313 351.235 760.057 351.096C759.812 350.957 759.561 350.888 759.305 350.888C758.964 350.888 758.692 350.952 758.489 351.08C758.297 351.208 758.201 351.379 758.201 351.592C758.201 351.805 758.308 351.971 758.521 352.088C758.734 352.205 759.118 352.36 759.673 352.552C760.185 352.733 760.606 352.909 760.937 353.08C761.278 353.24 761.572 353.469 761.817 353.768C762.073 354.067 762.201 354.44 762.201 354.888C762.201 355.581 761.924 356.141 761.369 356.568C760.814 356.984 760.089 357.192 759.193 357.192C758.596 357.192 758.014 357.021 757.449 356.68C756.884 356.328 756.462 355.864 756.185 355.288L757.513 354.52ZM764.855 350.968H763.415V349.496H764.855V346.824H766.551V349.496H768.359V350.968H766.551V357.144H764.855V350.968ZM769.877 349.512H771.573V350.632C771.829 350.269 772.17 349.981 772.597 349.768C773.024 349.555 773.461 349.459 773.909 349.48V351.048C773.472 351.027 773.072 351.128 772.709 351.352C772.357 351.565 772.08 351.853 771.877 352.216C771.674 352.579 771.573 352.957 771.573 353.352V357.144H769.877V349.512ZM778.394 357.208C777.701 357.208 777.077 357.043 776.522 356.712C775.978 356.381 775.551 355.928 775.242 355.352C774.933 354.765 774.778 354.104 774.778 353.368C774.778 352.632 774.933 351.976 775.242 351.4C775.551 350.813 775.978 350.355 776.522 350.024C777.077 349.693 777.701 349.528 778.394 349.528C778.789 349.528 779.178 349.619 779.562 349.8C779.946 349.981 780.287 350.248 780.586 350.6V349.512H782.282V357.144H780.586V356.12C780.298 356.483 779.962 356.755 779.578 356.936C779.194 357.117 778.799 357.208 778.394 357.208ZM776.474 353.368C776.474 354.083 776.661 354.664 777.034 355.112C777.407 355.549 777.898 355.768 778.506 355.768C778.879 355.768 779.226 355.667 779.546 355.464C779.866 355.251 780.122 354.963 780.314 354.6C780.506 354.227 780.602 353.816 780.602 353.368C780.602 352.92 780.506 352.515 780.314 352.152C780.122 351.779 779.866 351.491 779.546 351.288C779.226 351.075 778.879 350.968 778.506 350.968C777.898 350.968 777.407 351.187 777.034 351.624C776.661 352.061 776.474 352.643 776.474 353.368ZM785.245 350.968H783.805V349.496H785.245V346.824H786.941V349.496H788.749V350.968H786.941V357.144H785.245V350.968ZM793.63 357.176C792.915 357.176 792.281 357.016 791.726 356.696C791.171 356.365 790.734 355.912 790.414 355.336C790.105 354.749 789.95 354.088 789.95 353.352C789.95 352.605 790.105 351.944 790.414 351.368C790.734 350.781 791.171 350.328 791.726 350.008C792.281 349.677 792.915 349.512 793.63 349.512C794.622 349.512 795.363 349.763 795.854 350.264C796.345 350.755 796.659 351.192 796.798 351.576C797.022 352.099 797.134 352.723 797.134 353.448C797.134 353.64 797.129 353.779 797.118 353.864C797.118 353.939 797.118 353.987 797.118 354.008H791.614C791.71 354.52 791.95 354.936 792.334 355.256C792.718 355.576 793.15 355.736 793.63 355.736C794.174 355.736 794.595 355.629 794.894 355.416C795.193 355.203 795.406 354.989 795.534 354.776L796.894 355.384C796.681 355.875 796.291 356.296 795.726 356.648C795.171 357 794.473 357.176 793.63 357.176ZM795.518 352.664C795.433 352.152 795.235 351.741 794.926 351.432C794.617 351.112 794.185 350.952 793.63 350.952C793.129 350.952 792.691 351.112 792.318 351.432C791.945 351.752 791.71 352.163 791.614 352.664H795.518ZM802.396 355.736C802.791 355.736 803.148 355.629 803.468 355.416C803.788 355.203 804.039 354.915 804.22 354.552C804.402 354.179 804.492 353.773 804.492 353.336C804.492 352.909 804.402 352.515 804.22 352.152C804.039 351.779 803.788 351.485 803.468 351.272C803.148 351.059 802.791 350.952 802.396 350.952C801.799 350.952 801.314 351.171 800.94 351.608C800.567 352.045 800.38 352.621 800.38 353.336C800.38 354.061 800.562 354.643 800.924 355.08C801.298 355.517 801.788 355.736 802.396 355.736ZM798.684 353.352C798.684 352.616 798.839 351.955 799.148 351.368C799.458 350.781 799.884 350.323 800.428 349.992C800.983 349.661 801.607 349.496 802.3 349.496C802.706 349.496 803.106 349.597 803.5 349.8C803.906 349.992 804.236 350.264 804.492 350.616V349.496H806.188V356.568C806.188 357.293 806.028 357.96 805.708 358.568C805.399 359.176 804.956 359.656 804.38 360.008C803.804 360.36 803.138 360.536 802.38 360.536C801.708 360.536 801.084 360.387 800.508 360.088C799.943 359.8 799.479 359.357 799.116 358.76L800.46 357.864C800.748 358.28 801.036 358.579 801.324 358.76C801.623 358.941 801.975 359.032 802.38 359.032C803.031 359.032 803.543 358.808 803.916 358.36C804.3 357.912 804.492 357.363 804.492 356.712V356.04C804.204 356.403 803.858 356.685 803.452 356.888C803.058 357.091 802.674 357.192 802.3 357.192C801.607 357.192 800.983 357.027 800.428 356.696C799.884 356.365 799.458 355.912 799.148 355.336C798.839 354.749 798.684 354.088 798.684 353.352ZM809.543 360.456L811.207 356.504L808.135 349.512H810.007L812.103 354.568L814.119 349.512H815.959L813.111 356.376L811.399 360.456H809.543Z" fill="#15151A"/>
</g>
<g filter="url(#filter1_d_15629_6153)">
<rect x="6" y="18" width="120" height="132" rx="8" fill="white" shape-rendering="crispEdges"/>
<path d="M30.8943 69.484C32.3343 69.484 33.3423 68.458 33.3423 67C33.3423 65.56 32.3163 64.534 30.8763 64.534H27.9603V69.484H30.8943ZM26.0523 76.144V62.86H30.9483C33.4683 62.86 35.2323 64.57 35.2323 67C35.2323 69.43 33.4683 71.14 30.9483 71.14H27.9603V76.144H26.0523ZM37.1215 76.162V67.576H39.0295V68.836C39.6055 68.026 40.6495 67.486 41.6575 67.54V69.304C40.1275 69.232 39.0295 70.582 39.0295 71.896V76.162H37.1215ZM46.7751 76.198C44.3451 76.198 42.6351 74.416 42.6351 71.896C42.6351 69.358 44.3451 67.576 46.7751 67.576C49.4391 67.576 50.2851 69.754 50.3391 69.898C50.8611 71.122 50.6991 72.49 50.6991 72.634H44.5071C44.7231 73.786 45.6951 74.578 46.7751 74.578C48.1971 74.578 48.7731 73.75 48.9171 73.498L50.4471 74.182C50.0331 75.154 48.8271 76.198 46.7751 76.198ZM44.5071 71.122H48.8991C48.7191 70.06 48.1071 69.196 46.7751 69.196C45.6231 69.196 44.7231 70.006 44.5071 71.122ZM57.1249 74.596C58.5109 74.596 59.4109 73.516 59.4109 71.878C59.4109 70.24 58.5109 69.16 57.1249 69.16C55.8289 69.16 54.7669 70.366 54.7669 71.878C54.7669 73.39 55.8289 74.596 57.1249 74.596ZM52.8409 79.96V67.558H54.7489V68.818C55.4329 67.918 56.5669 67.558 57.2329 67.558C59.6269 67.558 61.3189 69.34 61.3189 71.878C61.3189 74.434 59.6269 76.216 57.2329 76.216C56.5489 76.216 55.4329 75.838 54.7489 74.938V79.96H52.8409ZM67.041 76.234C64.665 76.234 62.973 74.434 62.973 71.914C62.973 69.394 64.665 67.594 67.041 67.594C67.887 67.594 68.823 67.99 69.507 68.8V67.576H71.415V76.162H69.507V75.01C68.823 75.874 67.887 76.234 67.041 76.234ZM64.881 71.914C64.881 73.534 65.799 74.614 67.167 74.614C68.427 74.614 69.507 73.48 69.525 71.914C69.507 70.348 68.427 69.214 67.167 69.214C65.799 69.214 64.881 70.276 64.881 71.914ZM73.6664 76.162V67.576H75.5744V68.836C76.1504 68.026 77.1944 67.486 78.2024 67.54V69.304C76.6724 69.232 75.5744 70.582 75.5744 71.896V76.162H73.6664ZM83.32 76.198C80.89 76.198 79.18 74.416 79.18 71.896C79.18 69.358 80.89 67.576 83.32 67.576C85.984 67.576 86.83 69.754 86.884 69.898C87.406 71.122 87.244 72.49 87.244 72.634H81.052C81.268 73.786 82.24 74.578 83.32 74.578C84.742 74.578 85.318 73.75 85.462 73.498L86.992 74.182C86.578 75.154 85.372 76.198 83.32 76.198ZM81.052 71.122H85.444C85.264 70.06 84.652 69.196 83.32 69.196C82.168 69.196 81.268 70.006 81.052 71.122ZM93.9219 67.558H95.8299V76.144H93.9219V67.558ZM93.7959 64.354C93.7959 63.724 94.2459 63.274 94.8759 63.274C95.5059 63.274 95.9559 63.724 95.9559 64.354C95.9559 64.984 95.5059 65.434 94.8759 65.434C94.2459 65.434 93.7959 64.984 93.7959 64.354ZM104.339 71.428C104.339 70.06 103.637 69.232 102.449 69.232C101.279 69.25 100.379 70.168 100.397 71.428V76.162H98.4888V67.576H100.397V68.746C100.937 68.08 101.855 67.594 102.683 67.594C104.303 67.594 106.247 68.656 106.247 71.356V76.162H104.339V71.428ZM36.3935 105.234C34.0175 105.234 32.3255 103.434 32.3255 100.914C32.3255 98.394 34.0175 96.594 36.3935 96.594C37.2395 96.594 38.1755 96.99 38.8595 97.8V96.576H40.7675V105.162H38.8595V104.01C38.1755 104.874 37.2395 105.234 36.3935 105.234ZM34.2335 100.914C34.2335 102.534 35.1515 103.614 36.5195 103.614C37.7795 103.614 38.8595 102.48 38.8775 100.914C38.8595 99.348 37.7795 98.214 36.5195 98.214C35.1515 98.214 34.2335 99.276 34.2335 100.914ZM46.976 105.234C44.6 105.234 42.89 103.434 42.89 100.896C42.89 98.358 44.6 96.558 46.976 96.558C47.678 96.558 48.74 96.864 49.478 97.836V92.292H51.386V105.162H49.478V103.956C48.722 104.874 47.678 105.234 46.976 105.234ZM44.798 100.914C44.798 102.552 45.716 103.632 47.102 103.632C48.398 103.632 49.478 102.444 49.478 100.914C49.478 99.402 48.398 98.196 47.102 98.196C45.716 98.196 44.798 99.276 44.798 100.914ZM62.061 96.576L58.425 105.162H56.769L53.169 96.576H55.257L57.597 102.588L59.955 96.576H62.061ZM66.8213 105.234C64.4453 105.234 62.7533 103.434 62.7533 100.914C62.7533 98.394 64.4453 96.594 66.8213 96.594C67.6673 96.594 68.6033 96.99 69.2873 97.8V96.576H71.1953V105.162H69.2873V104.01C68.6033 104.874 67.6673 105.234 66.8213 105.234ZM64.6613 100.914C64.6613 102.534 65.5793 103.614 66.9473 103.614C68.2073 103.614 69.2873 102.48 69.3053 100.914C69.2873 99.348 68.2073 98.214 66.9473 98.214C65.5793 98.214 64.6613 99.276 64.6613 100.914ZM79.3867 100.428C79.3867 99.06 78.6847 98.232 77.4967 98.232C76.3267 98.25 75.4267 99.168 75.4447 100.428V105.162H73.5367V96.576H75.4447V97.746C75.9847 97.08 76.9027 96.594 77.7307 96.594C79.3507 96.594 81.2947 97.656 81.2947 100.356V105.162H79.3867V100.428ZM87.1378 103.398C87.8038 103.398 88.5778 103.056 89.0638 102.516L90.3778 103.83C89.6398 104.64 88.2898 105.216 87.2098 105.216C84.6538 105.216 82.8538 103.416 82.8538 100.896C82.8538 98.358 84.6538 96.558 87.2098 96.558C88.3438 96.558 89.6038 97.134 90.3778 97.962L89.0638 99.258C88.5778 98.718 87.8038 98.376 87.1378 98.376C85.7158 98.376 84.7618 99.366 84.7618 100.896C84.7618 102.408 85.7158 103.398 87.1378 103.398ZM95.6511 105.198C93.2211 105.198 91.5111 103.416 91.5111 100.896C91.5111 98.358 93.2211 96.576 95.6511 96.576C98.3151 96.576 99.1611 98.754 99.2151 98.898C99.7371 100.122 99.5751 101.49 99.5751 101.634H93.3831C93.5991 102.786 94.5711 103.578 95.6511 103.578C97.0731 103.578 97.6491 102.75 97.7931 102.498L99.3231 103.182C98.9091 104.154 97.7031 105.198 95.6511 105.198ZM93.3831 100.122H97.7751C97.5951 99.06 96.9831 98.196 95.6511 98.196C94.4991 98.196 93.5991 99.006 93.3831 100.122Z" fill="#15151A"/>
<rect x="46" y="4" width="40" height="28" rx="14" fill="#9735D0"/>
<path d="M67.7763 12.416V24.048L66.0803 24.032V14.224L64.0323 15.36L63.3283 13.936L66.0963 12.416H67.7763Z" fill="white"/>
</g>
<path fill-rule="evenodd" clip-rule="evenodd" d="M155.47 77.4697C155.763 77.1768 156.237 77.1768 156.53 77.4697L163.061 84L156.53 90.5303C156.237 90.8232 155.763 90.8232 155.47 90.5303C155.177 90.2374 155.177 89.7626 155.47 89.4697L160.939 84L155.47 78.5303C155.177 78.2374 155.177 77.7626 155.47 77.4697Z" fill="#27272A"/>
<path fill-rule="evenodd" clip-rule="evenodd" d="M148.25 84C148.25 83.5858 148.586 83.25 149 83.25L161.75 83.25V84.75L149 84.75C148.586 84.75 148.25 84.4142 148.25 84Z" fill="#27272A"/>
<g filter="url(#filter2_d_15629_6153)">
<rect x="186" y="18" width="120" height="132" rx="8" fill="white" shape-rendering="crispEdges"/>
<path d="M218.344 39.32V51.128H216.648V39.32H218.344ZM224.129 51.208C223.435 51.208 222.811 51.0427 222.257 50.712C221.702 50.3813 221.27 49.928 220.961 49.352C220.651 48.7653 220.497 48.0987 220.497 47.352C220.497 46.6053 220.651 45.944 220.961 45.368C221.27 44.7813 221.702 44.3227 222.257 43.992C222.811 43.6613 223.435 43.496 224.129 43.496C224.491 43.496 224.875 43.5867 225.281 43.768C225.697 43.9493 226.054 44.2373 226.353 44.632V39.704H228.049V51.144H226.353V50.072C226.043 50.456 225.681 50.744 225.265 50.936C224.859 51.1173 224.481 51.208 224.129 51.208ZM222.193 47.368C222.193 48.0933 222.379 48.68 222.753 49.128C223.126 49.5653 223.622 49.784 224.241 49.784C224.625 49.784 224.977 49.6773 225.297 49.464C225.617 49.2507 225.873 48.9627 226.065 48.6C226.257 48.2267 226.353 47.816 226.353 47.368C226.353 46.9307 226.257 46.5253 226.065 46.152C225.873 45.7787 225.611 45.4853 225.281 45.272C224.961 45.0587 224.614 44.952 224.241 44.952C223.622 44.952 223.126 45.176 222.753 45.624C222.379 46.0613 222.193 46.6427 222.193 47.368ZM233.474 51.176C232.759 51.176 232.124 51.016 231.57 50.696C231.015 50.3653 230.578 49.912 230.258 49.336C229.948 48.7493 229.794 48.088 229.794 47.352C229.794 46.6053 229.948 45.944 230.258 45.368C230.578 44.7813 231.015 44.328 231.57 44.008C232.124 43.6773 232.759 43.512 233.474 43.512C234.466 43.512 235.207 43.7627 235.698 44.264C236.188 44.7547 236.503 45.192 236.642 45.576C236.866 46.0987 236.978 46.7227 236.978 47.448C236.978 47.64 236.972 47.7787 236.962 47.864C236.962 47.9387 236.962 47.9867 236.962 48.008H231.458C231.554 48.52 231.794 48.936 232.178 49.256C232.562 49.576 232.994 49.736 233.474 49.736C234.018 49.736 234.439 49.6293 234.738 49.416C235.036 49.2027 235.25 48.9893 235.378 48.776L236.738 49.384C236.524 49.8747 236.135 50.296 235.57 50.648C235.015 51 234.316 51.176 233.474 51.176ZM235.362 46.664C235.276 46.152 235.079 45.7413 234.77 45.432C234.46 45.112 234.028 44.952 233.474 44.952C232.972 44.952 232.535 45.112 232.162 45.432C231.788 45.752 231.554 46.1627 231.458 46.664H235.362ZM243.97 46.936C243.97 46.328 243.82 45.8533 243.522 45.512C243.223 45.16 242.812 44.984 242.29 44.984C241.767 44.9947 241.33 45.1867 240.978 45.56C240.626 45.9227 240.455 46.3813 240.466 46.936V51.144H238.77V43.512H240.466V44.552C240.711 44.2533 241.02 44.008 241.394 43.816C241.767 43.624 242.135 43.528 242.498 43.528C243.02 43.528 243.522 43.6453 244.002 43.88C244.482 44.1147 244.876 44.4827 245.186 44.984C245.506 45.4853 245.666 46.1147 245.666 46.872V51.144H243.97V46.936ZM248.464 44.968H247.024V43.496H248.464V40.824H250.16V43.496H251.968V44.968H250.16V51.144H248.464V44.968ZM255.406 43.496V51.128H253.71V43.496H255.406ZM253.598 40.648C253.598 40.3707 253.689 40.1413 253.87 39.96C254.051 39.7787 254.281 39.688 254.558 39.688C254.835 39.688 255.065 39.7787 255.246 39.96C255.427 40.1413 255.518 40.3707 255.518 40.648C255.518 40.9253 255.427 41.1547 255.246 41.336C255.065 41.5173 254.835 41.608 254.558 41.608C254.281 41.608 254.051 41.5173 253.87 41.336C253.689 41.1547 253.598 40.9253 253.598 40.648ZM258.618 51.144V44.984H257.274V43.48H258.618V41.88C258.618 41.4 258.724 40.9627 258.938 40.568C259.162 40.1733 259.466 39.864 259.85 39.64C260.234 39.416 260.671 39.304 261.162 39.304C261.482 39.304 261.802 39.3627 262.122 39.48C262.442 39.5867 262.687 39.7253 262.858 39.896L261.994 41.144C261.727 40.92 261.482 40.808 261.258 40.808C260.98 40.808 260.751 40.904 260.57 41.096C260.399 41.288 260.314 41.5493 260.314 41.88V43.48H262.458V44.984H260.314V51.144H258.618ZM265.324 54.456L266.988 50.504L263.916 43.512H265.788L267.884 48.568L269.9 43.512H271.74L268.892 50.376L267.18 54.456H265.324ZM222.771 74.52C222.931 74.904 223.176 75.2027 223.507 75.416C223.838 75.6293 224.152 75.736 224.451 75.736C224.856 75.736 225.176 75.6667 225.411 75.528C225.646 75.3787 225.763 75.1707 225.763 74.904C225.763 74.6907 225.646 74.52 225.411 74.392C225.176 74.264 224.798 74.1093 224.275 73.928C223.763 73.7467 223.342 73.576 223.011 73.416C222.68 73.256 222.387 73.0267 222.131 72.728C221.886 72.4187 221.763 72.04 221.763 71.592C221.763 70.9307 222.03 70.408 222.563 70.024C223.096 69.6293 223.763 69.432 224.563 69.432C224.904 69.432 225.262 69.5013 225.635 69.64C226.019 69.7787 226.36 69.992 226.659 70.28C226.968 70.568 227.182 70.9253 227.299 71.352L225.875 71.864C225.758 71.4907 225.571 71.2347 225.315 71.096C225.07 70.9573 224.819 70.888 224.563 70.888C224.222 70.888 223.95 70.952 223.747 71.08C223.555 71.208 223.459 71.3787 223.459 71.592C223.459 71.8053 223.566 71.9707 223.779 72.088C223.992 72.2053 224.376 72.36 224.931 72.552C225.443 72.7333 225.864 72.9093 226.195 73.08C226.536 73.24 226.83 73.4693 227.075 73.768C227.331 74.0667 227.459 74.44 227.459 74.888C227.459 75.5813 227.182 76.1413 226.627 76.568C226.072 76.984 225.347 77.192 224.451 77.192C223.854 77.192 223.272 77.0213 222.707 76.68C222.142 76.328 221.72 75.864 221.443 75.288L222.771 74.52ZM232.699 77.208C232.005 77.208 231.381 77.0427 230.827 76.712C230.283 76.3813 229.856 75.928 229.547 75.352C229.237 74.7653 229.083 74.104 229.083 73.368C229.083 72.632 229.237 71.976 229.547 71.4C229.856 70.8133 230.283 70.3547 230.827 70.024C231.381 69.6933 232.005 69.528 232.699 69.528C233.093 69.528 233.483 69.6187 233.867 69.8C234.251 69.9813 234.592 70.248 234.891 70.6V69.512H236.587V77.144H234.891V76.12C234.603 76.4827 234.267 76.7547 233.883 76.936C233.499 77.1173 233.104 77.208 232.699 77.208ZM230.779 73.368C230.779 74.0827 230.965 74.664 231.339 75.112C231.712 75.5493 232.203 75.768 232.811 75.768C233.184 75.768 233.531 75.6667 233.851 75.464C234.171 75.2507 234.427 74.9627 234.619 74.6C234.811 74.2267 234.907 73.816 234.907 73.368C234.907 72.92 234.811 72.5147 234.619 72.152C234.427 71.7787 234.171 71.4907 233.851 71.288C233.531 71.0747 233.184 70.968 232.811 70.968C232.203 70.968 231.712 71.1867 231.339 71.624C230.965 72.0613 230.779 72.6427 230.779 73.368ZM239.782 77.144V70.984H238.438V69.48H239.782V67.88C239.782 67.4 239.888 66.9627 240.102 66.568C240.326 66.1733 240.63 65.864 241.014 65.64C241.398 65.416 241.835 65.304 242.326 65.304C242.646 65.304 242.966 65.3627 243.286 65.48C243.606 65.5867 243.851 65.7253 244.022 65.896L243.158 67.144C242.891 66.92 242.646 66.808 242.422 66.808C242.144 66.808 241.915 66.904 241.734 67.096C241.563 67.288 241.478 67.5493 241.478 67.88V69.48H243.622V70.984H241.478V77.144H239.782ZM248.278 77.176C247.564 77.176 246.929 77.016 246.374 76.696C245.82 76.3653 245.382 75.912 245.062 75.336C244.753 74.7493 244.598 74.088 244.598 73.352C244.598 72.6053 244.753 71.944 245.062 71.368C245.382 70.7813 245.82 70.328 246.374 70.008C246.929 69.6773 247.564 69.512 248.278 69.512C249.27 69.512 250.012 69.7627 250.502 70.264C250.993 70.7547 251.308 71.192 251.446 71.576C251.67 72.0987 251.782 72.7227 251.782 73.448C251.782 73.64 251.777 73.7787 251.766 73.864C251.766 73.9387 251.766 73.9867 251.766 74.008H246.262C246.358 74.52 246.598 74.936 246.982 75.256C247.366 75.576 247.798 75.736 248.278 75.736C248.822 75.736 249.244 75.6293 249.542 75.416C249.841 75.2027 250.054 74.9893 250.182 74.776L251.542 75.384C251.329 75.8747 250.94 76.296 250.374 76.648C249.82 77 249.121 77.176 248.278 77.176ZM250.166 72.664C250.081 72.152 249.884 71.7413 249.574 71.432C249.265 71.112 248.833 70.952 248.278 70.952C247.777 70.952 247.34 71.112 246.966 71.432C246.593 71.752 246.358 72.1627 246.262 72.664H250.166ZM254.206 70.968H252.766V69.496H254.206V66.824H255.902V69.496H257.71V70.968H255.902V77.144H254.206V70.968ZM260.129 80.456L261.793 76.504L258.721 69.512H260.593L262.689 74.568L264.705 69.512H266.545L263.697 76.376L261.985 80.456H260.129ZM209.73 103.208C209.037 103.208 208.413 103.043 207.858 102.712C207.314 102.381 206.887 101.928 206.578 101.352C206.269 100.765 206.114 100.104 206.114 99.368C206.114 98.632 206.269 97.976 206.578 97.4C206.887 96.8133 207.314 96.3547 207.858 96.024C208.413 95.6933 209.037 95.528 209.73 95.528C210.125 95.528 210.514 95.6187 210.898 95.8C211.282 95.9813 211.623 96.248 211.922 96.6V95.512H213.618V103.144H211.922V102.12C211.634 102.483 211.298 102.755 210.914 102.936C210.53 103.117 210.135 103.208 209.73 103.208ZM207.81 99.368C207.81 100.083 207.997 100.664 208.37 101.112C208.743 101.549 209.234 101.768 209.842 101.768C210.215 101.768 210.562 101.667 210.882 101.464C211.202 101.251 211.458 100.963 211.65 100.6C211.842 100.227 211.938 99.816 211.938 99.368C211.938 98.92 211.842 98.5147 211.65 98.152C211.458 97.7787 211.202 97.4907 210.882 97.288C210.562 97.0747 210.215 96.968 209.842 96.968C209.234 96.968 208.743 97.1867 208.37 97.624C207.997 98.0613 207.81 98.6427 207.81 99.368ZM220.899 98.936C220.899 98.328 220.75 97.8533 220.451 97.512C220.153 97.16 219.742 96.984 219.219 96.984C218.697 96.9947 218.259 97.1867 217.907 97.56C217.555 97.9227 217.385 98.3813 217.395 98.936V103.144H215.699V95.512H217.395V96.552C217.641 96.2533 217.95 96.008 218.323 95.816C218.697 95.624 219.065 95.528 219.427 95.528C219.95 95.528 220.451 95.6453 220.931 95.88C221.411 96.1147 221.806 96.4827 222.115 96.984C222.435 97.4853 222.595 98.1147 222.595 98.872V103.144H220.899V98.936ZM227.949 103.208C227.256 103.208 226.632 103.043 226.077 102.712C225.522 102.381 225.09 101.928 224.781 101.352C224.472 100.765 224.317 100.099 224.317 99.352C224.317 98.6053 224.472 97.944 224.781 97.368C225.09 96.7813 225.522 96.3227 226.077 95.992C226.632 95.6613 227.256 95.496 227.949 95.496C228.312 95.496 228.696 95.5867 229.101 95.768C229.517 95.9493 229.874 96.2373 230.173 96.632V91.704H231.869V103.144H230.173V102.072C229.864 102.456 229.501 102.744 229.085 102.936C228.68 103.117 228.301 103.208 227.949 103.208ZM226.013 99.368C226.013 100.093 226.2 100.68 226.573 101.128C226.946 101.565 227.442 101.784 228.061 101.784C228.445 101.784 228.797 101.677 229.117 101.464C229.437 101.251 229.693 100.963 229.885 100.6C230.077 100.227 230.173 99.816 230.173 99.368C230.173 98.9307 230.077 98.5253 229.885 98.152C229.693 97.7787 229.432 97.4853 229.101 97.272C228.781 97.0587 228.434 96.952 228.061 96.952C227.442 96.952 226.946 97.176 226.573 97.624C226.2 98.0613 226.013 98.6427 226.013 99.368ZM243.134 98.968C243.134 98.3387 242.995 97.8373 242.718 97.464C242.441 97.0907 242.073 96.904 241.614 96.904C241.273 96.904 240.958 97.0053 240.67 97.208C240.382 97.4 240.153 97.6667 239.982 98.008C239.822 98.3493 239.742 98.7227 239.742 99.128V103H238.046V91.704H239.742V96.408C239.977 96.1093 240.265 95.8747 240.606 95.704C240.947 95.5227 241.283 95.432 241.614 95.432C242.233 95.432 242.787 95.576 243.278 95.864C243.769 96.152 244.153 96.552 244.43 97.064C244.707 97.5653 244.846 98.136 244.846 98.776V103H243.134V98.968ZM250.388 103.176C249.673 103.176 249.038 103.016 248.484 102.696C247.929 102.365 247.492 101.912 247.172 101.336C246.862 100.749 246.708 100.088 246.708 99.352C246.708 98.6053 246.862 97.944 247.172 97.368C247.492 96.7813 247.929 96.328 248.484 96.008C249.038 95.6773 249.673 95.512 250.388 95.512C251.38 95.512 252.121 95.7627 252.612 96.264C253.102 96.7547 253.417 97.192 253.556 97.576C253.78 98.0987 253.892 98.7227 253.892 99.448C253.892 99.64 253.886 99.7787 253.876 99.864C253.876 99.9387 253.876 99.9867 253.876 100.008H248.372C248.468 100.52 248.708 100.936 249.092 101.256C249.476 101.576 249.908 101.736 250.388 101.736C250.932 101.736 251.353 101.629 251.652 101.416C251.95 101.203 252.164 100.989 252.292 100.776L253.652 101.384C253.438 101.875 253.049 102.296 252.484 102.648C251.929 103 251.23 103.176 250.388 103.176ZM252.276 98.664C252.19 98.152 251.993 97.7413 251.684 97.432C251.374 97.112 250.942 96.952 250.388 96.952C249.886 96.952 249.449 97.112 249.076 97.432C248.702 97.752 248.468 98.1627 248.372 98.664H252.276ZM259.058 103.208C258.365 103.208 257.741 103.043 257.186 102.712C256.642 102.381 256.215 101.928 255.906 101.352C255.597 100.765 255.442 100.104 255.442 99.368C255.442 98.632 255.597 97.976 255.906 97.4C256.215 96.8133 256.642 96.3547 257.186 96.024C257.741 95.6933 258.365 95.528 259.058 95.528C259.453 95.528 259.842 95.6187 260.226 95.8C260.61 95.9813 260.951 96.248 261.25 96.6V95.512H262.946V103.144H261.25V102.12C260.962 102.483 260.626 102.755 260.242 102.936C259.858 103.117 259.463 103.208 259.058 103.208ZM257.138 99.368C257.138 100.083 257.325 100.664 257.698 101.112C258.071 101.549 258.562 101.768 259.17 101.768C259.543 101.768 259.89 101.667 260.21 101.464C260.53 101.251 260.786 100.963 260.978 100.6C261.17 100.227 261.266 99.816 261.266 99.368C261.266 98.92 261.17 98.5147 260.978 98.152C260.786 97.7787 260.53 97.4907 260.21 97.288C259.89 97.0747 259.543 96.968 259.17 96.968C258.562 96.968 258.071 97.1867 257.698 97.624C257.325 98.0613 257.138 98.6427 257.138 99.368ZM266.705 91.704V103.128H265.009V91.704H266.705ZM269.394 96.968H267.954V95.496H269.394V92.824H271.09V95.496H272.898V96.968H271.09V103.144H269.394V96.968ZM279.728 98.968C279.728 98.3387 279.589 97.8373 279.312 97.464C279.034 97.0907 278.666 96.904 278.208 96.904C277.866 96.904 277.552 97.0053 277.264 97.208C276.976 97.4 276.746 97.6667 276.576 98.008C276.416 98.3493 276.336 98.7227 276.336 99.128V103H274.64V91.704H276.336V96.408C276.57 96.1093 276.858 95.8747 277.2 95.704C277.541 95.5227 277.877 95.432 278.208 95.432C278.826 95.432 279.381 95.576 279.872 95.864C280.362 96.152 280.746 96.552 281.024 97.064C281.301 97.5653 281.44 98.136 281.44 98.776V103H279.728V98.968ZM223.493 124.968C223.493 124.339 223.355 123.837 223.077 123.464C222.8 123.091 222.432 122.904 221.973 122.904C221.632 122.904 221.317 123.005 221.029 123.208C220.741 123.4 220.512 123.667 220.341 124.008C220.181 124.349 220.101 124.723 220.101 125.128V129H218.405V117.704H220.101V122.408C220.336 122.109 220.624 121.875 220.965 121.704C221.307 121.523 221.643 121.432 221.973 121.432C222.592 121.432 223.147 121.576 223.637 121.864C224.128 122.152 224.512 122.552 224.789 123.064C225.067 123.565 225.205 124.136 225.205 124.776V129H223.493V124.968ZM230.683 129.208C229.99 129.208 229.366 129.043 228.811 128.712C228.267 128.381 227.84 127.928 227.531 127.352C227.222 126.765 227.067 126.104 227.067 125.368C227.067 124.632 227.222 123.976 227.531 123.4C227.84 122.813 228.267 122.355 228.811 122.024C229.366 121.693 229.99 121.528 230.683 121.528C231.078 121.528 231.467 121.619 231.851 121.8C232.235 121.981 232.576 122.248 232.875 122.6V121.512H234.571V129.144H232.875V128.12C232.587 128.483 232.251 128.755 231.867 128.936C231.483 129.117 231.088 129.208 230.683 129.208ZM228.763 125.368C228.763 126.083 228.95 126.664 229.323 127.112C229.696 127.549 230.187 127.768 230.795 127.768C231.168 127.768 231.515 127.667 231.835 127.464C232.155 127.251 232.411 126.963 232.603 126.6C232.795 126.227 232.891 125.816 232.891 125.368C232.891 124.92 232.795 124.515 232.603 124.152C232.411 123.779 232.155 123.491 231.835 123.288C231.515 123.075 231.168 122.968 230.795 122.968C230.187 122.968 229.696 123.187 229.323 123.624C228.95 124.061 228.763 124.643 228.763 125.368ZM242.534 123.144L238.678 127.704H242.534V129.144H236.582V127.56L240.486 122.952H236.582V121.512H242.534V123.144ZM247.527 129.208C246.834 129.208 246.21 129.043 245.655 128.712C245.111 128.381 244.684 127.928 244.375 127.352C244.066 126.765 243.911 126.104 243.911 125.368C243.911 124.632 244.066 123.976 244.375 123.4C244.684 122.813 245.111 122.355 245.655 122.024C246.21 121.693 246.834 121.528 247.527 121.528C247.922 121.528 248.311 121.619 248.695 121.8C249.079 121.981 249.42 122.248 249.719 122.6V121.512H251.415V129.144H249.719V128.12C249.431 128.483 249.095 128.755 248.711 128.936C248.327 129.117 247.932 129.208 247.527 129.208ZM245.607 125.368C245.607 126.083 245.794 126.664 246.167 127.112C246.54 127.549 247.031 127.768 247.639 127.768C248.012 127.768 248.359 127.667 248.679 127.464C248.999 127.251 249.255 126.963 249.447 126.6C249.639 126.227 249.735 125.816 249.735 125.368C249.735 124.92 249.639 124.515 249.447 124.152C249.255 123.779 248.999 123.491 248.679 123.288C248.359 123.075 248.012 122.968 247.639 122.968C247.031 122.968 246.54 123.187 246.167 123.624C245.794 124.061 245.607 124.643 245.607 125.368ZM253.416 121.512H255.112V122.632C255.368 122.269 255.709 121.981 256.136 121.768C256.563 121.555 257 121.459 257.448 121.48V123.048C257.011 123.027 256.611 123.128 256.248 123.352C255.896 123.565 255.619 123.853 255.416 124.216C255.213 124.579 255.112 124.957 255.112 125.352V129.144H253.416V121.512ZM261.949 129.208C261.256 129.208 260.632 129.043 260.077 128.712C259.522 128.381 259.09 127.928 258.781 127.352C258.472 126.765 258.317 126.099 258.317 125.352C258.317 124.605 258.472 123.944 258.781 123.368C259.09 122.781 259.522 122.323 260.077 121.992C260.632 121.661 261.256 121.496 261.949 121.496C262.312 121.496 262.696 121.587 263.101 121.768C263.517 121.949 263.874 122.237 264.173 122.632V117.704H265.869V129.144H264.173V128.072C263.864 128.456 263.501 128.744 263.085 128.936C262.68 129.117 262.301 129.208 261.949 129.208ZM260.013 125.368C260.013 126.093 260.2 126.68 260.573 127.128C260.946 127.565 261.442 127.784 262.061 127.784C262.445 127.784 262.797 127.677 263.117 127.464C263.437 127.251 263.693 126.963 263.885 126.6C264.077 126.227 264.173 125.816 264.173 125.368C264.173 124.931 264.077 124.525 263.885 124.152C263.693 123.779 263.432 123.485 263.101 123.272C262.781 123.059 262.434 122.952 262.061 122.952C261.442 122.952 260.946 123.176 260.573 123.624C260.2 124.061 260.013 124.643 260.013 125.368ZM269.287 126.52C269.447 126.904 269.692 127.203 270.023 127.416C270.353 127.629 270.668 127.736 270.967 127.736C271.372 127.736 271.692 127.667 271.927 127.528C272.161 127.379 272.279 127.171 272.279 126.904C272.279 126.691 272.161 126.52 271.927 126.392C271.692 126.264 271.313 126.109 270.791 125.928C270.279 125.747 269.857 125.576 269.527 125.416C269.196 125.256 268.903 125.027 268.647 124.728C268.401 124.419 268.279 124.04 268.279 123.592C268.279 122.931 268.545 122.408 269.079 122.024C269.612 121.629 270.279 121.432 271.079 121.432C271.42 121.432 271.777 121.501 272.151 121.64C272.535 121.779 272.876 121.992 273.175 122.28C273.484 122.568 273.697 122.925 273.815 123.352L272.391 123.864C272.273 123.491 272.087 123.235 271.831 123.096C271.585 122.957 271.335 122.888 271.079 122.888C270.737 122.888 270.465 122.952 270.263 123.08C270.071 123.208 269.975 123.379 269.975 123.592C269.975 123.805 270.081 123.971 270.295 124.088C270.508 124.205 270.892 124.36 271.447 124.552C271.959 124.733 272.38 124.909 272.711 125.08C273.052 125.24 273.345 125.469 273.591 125.768C273.847 126.067 273.975 126.44 273.975 126.888C273.975 127.581 273.697 128.141 273.143 128.568C272.588 128.984 271.863 129.192 270.967 129.192C270.369 129.192 269.788 129.021 269.223 128.68C268.657 128.328 268.236 127.864 267.959 127.288L269.287 126.52Z" fill="#15151A"/>
<rect x="226" y="4" width="40" height="28" rx="14" fill="#9735D0"/>
<path d="M242.415 22.56C244.751 20.32 247.935 18.048 247.935 16.08C247.935 14.768 247.103 13.84 245.919 13.84C245.007 13.84 244.095 14.496 243.679 15.44L242.191 14.784C242.831 13.312 244.383 12.288 245.919 12.288C248.111 12.288 249.631 13.856 249.631 16.08C249.631 18.528 246.975 20.704 244.815 22.56H249.823V24.048H242.575L242.415 22.56Z" fill="white"/>
</g>
<path fill-rule="evenodd" clip-rule="evenodd" d="M335.47 77.4697C335.763 77.1768 336.237 77.1768 336.53 77.4697L343.061 84L336.53 90.5303C336.237 90.8232 335.763 90.8232 335.47 90.5303C335.177 90.2374 335.177 89.7626 335.47 89.4697L340.939 84L335.47 78.5303C335.177 78.2374 335.177 77.7626 335.47 77.4697Z" fill="#27272A"/>
<path fill-rule="evenodd" clip-rule="evenodd" d="M328.25 84C328.25 83.5858 328.586 83.25 329 83.25L341.75 83.25V84.75L329 84.75C328.586 84.75 328.25 84.4142 328.25 84Z" fill="#27272A"/>
<g filter="url(#filter3_d_15629_6153)">
<rect x="366" y="18" width="120" height="132" rx="8" fill="white" shape-rendering="crispEdges"/>
<path d="M396.945 62.86V64.534H390.267V68.476H396.009V70.132H390.267V74.47H396.945V76.144H388.359V62.86H396.945ZM400.342 73.21C400.72 74.146 401.656 74.578 402.232 74.578C403.132 74.578 403.708 74.236 403.708 73.642C403.708 73.102 402.916 72.85 402.034 72.544C400.864 72.13 399.208 71.572 399.208 69.916C399.208 68.404 400.594 67.486 402.358 67.486C403.42 67.486 405.004 68.098 405.436 69.646L403.834 70.222C403.546 69.268 402.772 69.124 402.358 69.124C401.602 69.124 401.116 69.43 401.116 69.916C401.116 70.456 401.854 70.672 402.772 70.996C403.996 71.428 405.616 71.986 405.616 73.624C405.616 75.19 404.23 76.216 402.232 76.216C400.918 76.216 399.478 75.388 398.848 74.074L400.342 73.21ZM408.601 76.162V69.214H406.981V67.558H408.601V64.552H410.509V67.558H412.543V69.214H410.509V76.162H408.601ZM414.503 67.558H416.411V76.144H414.503V67.558ZM414.377 64.354C414.377 63.724 414.827 63.274 415.457 63.274C416.087 63.274 416.537 63.724 416.537 64.354C416.537 64.984 416.087 65.434 415.457 65.434C414.827 65.434 414.377 64.984 414.377 64.354ZM429.978 71.284C429.978 70.06 429.312 69.25 428.34 69.25C427.242 69.25 426.504 70.096 426.504 71.194V76.162H424.578V71.284C424.578 70.06 423.93 69.25 422.976 69.25C421.878 69.25 421.104 70.186 421.104 71.392V76.162H419.196V67.576H421.104V68.746C421.608 68.062 422.346 67.594 423.156 67.594C424.182 67.594 425.19 68.242 425.694 69.142C426.288 68.242 427.44 67.594 428.466 67.594C430.5 67.594 431.904 69.106 431.904 71.212V76.162H429.978V71.284ZM438.071 76.234C435.695 76.234 434.003 74.434 434.003 71.914C434.003 69.394 435.695 67.594 438.071 67.594C438.917 67.594 439.853 67.99 440.537 68.8V67.576H442.445V76.162H440.537V75.01C439.853 75.874 438.917 76.234 438.071 76.234ZM435.911 71.914C435.911 73.534 436.829 74.614 438.197 74.614C439.457 74.614 440.537 73.48 440.555 71.914C440.537 70.348 439.457 69.214 438.197 69.214C436.829 69.214 435.911 70.276 435.911 71.914ZM445.779 76.162V69.214H444.159V67.558H445.779V64.552H447.687V67.558H449.721V69.214H447.687V76.162H445.779ZM455.212 76.198C452.782 76.198 451.072 74.416 451.072 71.896C451.072 69.358 452.782 67.576 455.212 67.576C457.876 67.576 458.722 69.754 458.776 69.898C459.298 71.122 459.136 72.49 459.136 72.634H452.944C453.16 73.786 454.132 74.578 455.212 74.578C456.634 74.578 457.21 73.75 457.354 73.498L458.884 74.182C458.47 75.154 457.264 76.198 455.212 76.198ZM452.944 71.122H457.336C457.156 70.06 456.544 69.196 455.212 69.196C454.06 69.196 453.16 70.006 452.944 71.122ZM408.459 105.162V96.576H410.367V97.836C410.943 97.026 411.987 96.486 412.995 96.54V98.304C411.465 98.232 410.367 99.582 410.367 100.896V105.162H408.459ZM415.18 96.558H417.088V105.144H415.18V96.558ZM415.054 93.354C415.054 92.724 415.504 92.274 416.134 92.274C416.764 92.274 417.214 92.724 417.214 93.354C417.214 93.984 416.764 94.434 416.134 94.434C415.504 94.434 415.054 93.984 415.054 93.354ZM420.935 102.21C421.313 103.146 422.249 103.578 422.825 103.578C423.725 103.578 424.301 103.236 424.301 102.642C424.301 102.102 423.509 101.85 422.627 101.544C421.457 101.13 419.801 100.572 419.801 98.916C419.801 97.404 421.187 96.486 422.951 96.486C424.013 96.486 425.597 97.098 426.029 98.646L424.427 99.222C424.139 98.268 423.365 98.124 422.951 98.124C422.195 98.124 421.709 98.43 421.709 98.916C421.709 99.456 422.447 99.672 423.365 99.996C424.589 100.428 426.209 100.986 426.209 102.624C426.209 104.19 424.823 105.216 422.825 105.216C421.511 105.216 420.071 104.388 419.441 103.074L420.935 102.21ZM430.2 92.292V100.122L433.26 96.576H435.834L432.486 100.41L435.762 105.162H433.44L431.118 101.832L430.2 102.912V105.162H428.292V92.292H430.2ZM438.46 102.21C438.838 103.146 439.774 103.578 440.35 103.578C441.25 103.578 441.826 103.236 441.826 102.642C441.826 102.102 441.034 101.85 440.152 101.544C438.982 101.13 437.326 100.572 437.326 98.916C437.326 97.404 438.712 96.486 440.476 96.486C441.538 96.486 443.122 97.098 443.554 98.646L441.952 99.222C441.664 98.268 440.89 98.124 440.476 98.124C439.72 98.124 439.234 98.43 439.234 98.916C439.234 99.456 439.972 99.672 440.89 99.996C442.114 100.428 443.734 100.986 443.734 102.624C443.734 104.19 442.348 105.216 440.35 105.216C439.036 105.216 437.596 104.388 436.966 103.074L438.46 102.21Z" fill="#15151A"/>
<rect x="406" y="4" width="40" height="28" rx="14" fill="#9735D0"/>
<path d="M428.249 18.032C429.289 18.64 429.945 19.776 429.945 20.752C429.945 22.736 428.313 24.144 425.993 24.144C423.689 24.144 422.057 22.704 422.057 20.656H423.753C423.753 21.824 424.681 22.64 425.993 22.64C427.337 22.64 428.297 21.824 428.297 20.656C428.297 19.536 427.353 18.736 426.025 18.736H425.193V17.312H426.041C427.257 17.312 428.121 16.592 428.121 15.568C428.121 14.528 427.289 13.808 426.105 13.808C424.921 13.808 424.105 14.544 424.105 15.584H422.409C422.409 13.648 423.929 12.304 426.105 12.304C428.249 12.304 429.769 13.616 429.769 15.472C429.769 16.368 429.193 17.424 428.249 18.032Z" fill="white"/>
</g>
<path fill-rule="evenodd" clip-rule="evenodd" d="M515.47 77.4697C515.763 77.1768 516.237 77.1768 516.53 77.4697L523.061 84L516.53 90.5303C516.237 90.8232 515.763 90.8232 515.47 90.5303C515.177 90.2374 515.177 89.7626 515.47 89.4697L520.939 84L515.47 78.5303C515.177 78.2374 515.177 77.7626 515.47 77.4697Z" fill="#27272A"/>
<path fill-rule="evenodd" clip-rule="evenodd" d="M508.25 84C508.25 83.5858 508.586 83.25 509 83.25L521.75 83.25V84.75L509 84.75C508.586 84.75 508.25 84.4142 508.25 84Z" fill="#27272A"/>
<g filter="url(#filter4_d_15629_6153)">
<rect x="546" y="18" width="120" height="132" rx="8" fill="white" shape-rendering="crispEdges"/>
<path d="M566.441 74.47C569.285 74.47 571.193 72.472 571.193 69.502C571.193 66.532 569.285 64.534 566.441 64.534L564.551 64.552V74.452L566.441 74.47ZM562.643 76.144V62.86H566.459C570.347 62.86 573.083 65.596 573.083 69.502C573.083 73.408 570.347 76.144 566.459 76.144H562.643ZM578.777 76.198C576.347 76.198 574.637 74.416 574.637 71.896C574.637 69.358 576.347 67.576 578.777 67.576C581.441 67.576 582.287 69.754 582.341 69.898C582.863 71.122 582.701 72.49 582.701 72.634H576.509C576.725 73.786 577.697 74.578 578.777 74.578C580.199 74.578 580.775 73.75 580.919 73.498L582.449 74.182C582.035 75.154 580.829 76.198 578.777 76.198ZM576.509 71.122H580.901C580.721 70.06 580.109 69.196 578.777 69.196C577.625 69.196 576.725 70.006 576.509 71.122ZM585.446 76.162V69.214H583.826V67.558H585.446V64.552H587.354V67.558H589.388V69.214H587.354V76.162H585.446ZM594.879 76.198C592.449 76.198 590.739 74.416 590.739 71.896C590.739 69.358 592.449 67.576 594.879 67.576C597.543 67.576 598.389 69.754 598.443 69.898C598.965 71.122 598.803 72.49 598.803 72.634H592.611C592.827 73.786 593.799 74.578 594.879 74.578C596.301 74.578 596.877 73.75 597.021 73.498L598.551 74.182C598.137 75.154 596.931 76.198 594.879 76.198ZM592.611 71.122H597.003C596.823 70.06 596.211 69.196 594.879 69.196C593.727 69.196 592.827 70.006 592.611 71.122ZM600.746 76.162V67.576H602.654V68.836C603.23 68.026 604.274 67.486 605.282 67.54V69.304C603.752 69.232 602.654 70.582 602.654 71.896V76.162H600.746ZM618.231 71.284C618.231 70.06 617.565 69.25 616.593 69.25C615.495 69.25 614.757 70.096 614.757 71.194V76.162H612.831V71.284C612.831 70.06 612.183 69.25 611.229 69.25C610.131 69.25 609.357 70.186 609.357 71.392V76.162H607.449V67.576H609.357V68.746C609.861 68.062 610.599 67.594 611.409 67.594C612.435 67.594 613.443 68.242 613.947 69.142C614.541 68.242 615.693 67.594 616.719 67.594C618.753 67.594 620.157 69.106 620.157 71.212V76.162H618.231V71.284ZM622.742 67.558H624.65V76.144H622.742V67.558ZM622.616 64.354C622.616 63.724 623.066 63.274 623.696 63.274C624.326 63.274 624.776 63.724 624.776 64.354C624.776 64.984 624.326 65.434 623.696 65.434C623.066 65.434 622.616 64.984 622.616 64.354ZM633.159 71.428C633.159 70.06 632.457 69.232 631.269 69.232C630.099 69.25 629.199 70.168 629.217 71.428V76.162H627.309V67.576H629.217V68.746C629.757 68.08 630.675 67.594 631.503 67.594C633.123 67.594 635.067 68.656 635.067 71.356V76.162H633.159V71.428ZM641.144 76.198C638.714 76.198 637.004 74.416 637.004 71.896C637.004 69.358 638.714 67.576 641.144 67.576C643.808 67.576 644.654 69.754 644.708 69.898C645.23 71.122 645.068 72.49 645.068 72.634H638.876C639.092 73.786 640.064 74.578 641.144 74.578C642.566 74.578 643.142 73.75 643.286 73.498L644.816 74.182C644.402 75.154 643.196 76.198 641.144 76.198ZM638.876 71.122H643.268C643.088 70.06 642.476 69.196 641.144 69.196C639.992 69.196 639.092 70.006 638.876 71.122ZM588.459 105.162V96.576H590.367V97.836C590.943 97.026 591.987 96.486 592.995 96.54V98.304C591.465 98.232 590.367 99.582 590.367 100.896V105.162H588.459ZM595.18 96.558H597.088V105.144H595.18V96.558ZM595.054 93.354C595.054 92.724 595.504 92.274 596.134 92.274C596.764 92.274 597.214 92.724 597.214 93.354C597.214 93.984 596.764 94.434 596.134 94.434C595.504 94.434 595.054 93.984 595.054 93.354ZM600.935 102.21C601.313 103.146 602.249 103.578 602.825 103.578C603.725 103.578 604.301 103.236 604.301 102.642C604.301 102.102 603.509 101.85 602.627 101.544C601.457 101.13 599.801 100.572 599.801 98.916C599.801 97.404 601.187 96.486 602.951 96.486C604.013 96.486 605.597 97.098 606.029 98.646L604.427 99.222C604.139 98.268 603.365 98.124 602.951 98.124C602.195 98.124 601.709 98.43 601.709 98.916C601.709 99.456 602.447 99.672 603.365 99.996C604.589 100.428 606.209 100.986 606.209 102.624C606.209 104.19 604.823 105.216 602.825 105.216C601.511 105.216 600.071 104.388 599.441 103.074L600.935 102.21ZM610.2 92.292V100.122L613.26 96.576H615.834L612.486 100.41L615.762 105.162H613.44L611.118 101.832L610.2 102.912V105.162H608.292V92.292H610.2ZM618.46 102.21C618.838 103.146 619.774 103.578 620.35 103.578C621.25 103.578 621.826 103.236 621.826 102.642C621.826 102.102 621.034 101.85 620.152 101.544C618.982 101.13 617.326 100.572 617.326 98.916C617.326 97.404 618.712 96.486 620.476 96.486C621.538 96.486 623.122 97.098 623.554 98.646L621.952 99.222C621.664 98.268 620.89 98.124 620.476 98.124C619.72 98.124 619.234 98.43 619.234 98.916C619.234 99.456 619.972 99.672 620.89 99.996C622.114 100.428 623.734 100.986 623.734 102.624C623.734 104.19 622.348 105.216 620.35 105.216C619.036 105.216 617.596 104.388 616.966 103.074L618.46 102.21Z" fill="#15151A"/>
<rect x="586" y="4" width="40" height="28" rx="14" fill="#9735D0"/>
<path d="M608.695 12.4V19.568H610.167V21.04H608.695V24.048H606.999V21.04H601.991L601.831 19.568L607.079 12.4H608.695ZM603.847 19.568H606.999V15.232L603.847 19.568Z" fill="white"/>
</g>
<path fill-rule="evenodd" clip-rule="evenodd" d="M695.47 77.4697C695.763 77.1768 696.237 77.1768 696.53 77.4697L703.061 84L696.53 90.5303C696.237 90.8232 695.763 90.8232 695.47 90.5303C695.177 90.2374 695.177 89.7626 695.47 89.4697L700.939 84L695.47 78.5303C695.177 78.2374 695.177 77.7626 695.47 77.4697Z" fill="#27272A"/>
<path fill-rule="evenodd" clip-rule="evenodd" d="M688.25 84C688.25 83.5858 688.586 83.25 689 83.25L701.75 83.25V84.75L689 84.75C688.586 84.75 688.25 84.4142 688.25 84Z" fill="#27272A"/>
<g filter="url(#filter5_d_15629_6153)">
<rect x="726" y="18" width="120" height="132" rx="8" fill="white" shape-rendering="crispEdges"/>
<path d="M748.809 77.36L753.741 90.644H751.707L750.375 87.026H744.921L743.535 90.644H741.501L746.523 77.36H748.809ZM745.533 85.37H749.745L747.675 79.772L745.533 85.37ZM758.306 88.898C758.972 88.898 759.746 88.556 760.232 88.016L761.546 89.33C760.808 90.14 759.458 90.716 758.378 90.716C755.822 90.716 754.022 88.916 754.022 86.396C754.022 83.858 755.822 82.058 758.378 82.058C759.512 82.058 760.772 82.634 761.546 83.462L760.232 84.758C759.746 84.218 758.972 83.876 758.306 83.876C756.884 83.876 755.93 84.866 755.93 86.396C755.93 87.908 756.884 88.898 758.306 88.898ZM766.585 88.898C767.251 88.898 768.025 88.556 768.511 88.016L769.825 89.33C769.087 90.14 767.737 90.716 766.657 90.716C764.101 90.716 762.301 88.916 762.301 86.396C762.301 83.858 764.101 82.058 766.657 82.058C767.791 82.058 769.051 82.634 769.825 83.462L768.511 84.758C768.025 84.218 767.251 83.876 766.585 83.876C765.163 83.876 764.209 84.866 764.209 86.396C764.209 87.908 765.163 88.898 766.585 88.898ZM775.098 90.698C772.668 90.698 770.958 88.916 770.958 86.396C770.958 83.858 772.668 82.076 775.098 82.076C777.762 82.076 778.608 84.254 778.662 84.398C779.184 85.622 779.022 86.99 779.022 87.134H772.83C773.046 88.286 774.018 89.078 775.098 89.078C776.52 89.078 777.096 88.25 777.24 87.998L778.77 88.682C778.356 89.654 777.15 90.698 775.098 90.698ZM772.83 85.622H777.222C777.042 84.56 776.43 83.696 775.098 83.696C773.946 83.696 773.046 84.506 772.83 85.622ZM785.448 89.096C786.834 89.096 787.734 88.016 787.734 86.378C787.734 84.74 786.834 83.66 785.448 83.66C784.152 83.66 783.09 84.866 783.09 86.378C783.09 87.89 784.152 89.096 785.448 89.096ZM781.164 94.46V82.058H783.072V83.318C783.756 82.418 784.89 82.058 785.556 82.058C787.95 82.058 789.642 83.84 789.642 86.378C789.642 88.934 787.95 90.716 785.556 90.716C784.872 90.716 783.756 90.338 783.072 89.438V94.46H781.164ZM792.279 90.662V83.714H790.659V82.058H792.279V79.052H794.187V82.058H796.221V83.714H794.187V90.662H792.279ZM801.64 90.734C799.264 90.734 797.572 88.934 797.572 86.414C797.572 83.894 799.264 82.094 801.64 82.094C802.486 82.094 803.422 82.49 804.106 83.3V82.076H806.014V90.662H804.106V89.51C803.422 90.374 802.486 90.734 801.64 90.734ZM799.48 86.414C799.48 88.034 800.398 89.114 801.766 89.114C803.026 89.114 804.106 87.98 804.124 86.414C804.106 84.848 803.026 83.714 801.766 83.714C800.398 83.714 799.48 84.776 799.48 86.414ZM812.888 90.752C812.276 90.752 811.196 90.482 810.404 89.474V90.68H808.496V77.792H810.404V83.354C811.196 82.31 812.276 82.076 812.906 82.076C815.282 82.076 816.992 83.876 816.992 86.414C816.992 88.952 815.282 90.752 812.888 90.752ZM810.404 86.432C810.404 87.962 811.466 89.15 812.78 89.15C814.166 89.15 815.084 88.07 815.084 86.432C815.084 84.794 814.166 83.732 812.78 83.732C811.466 83.732 810.404 84.938 810.404 86.432ZM818.793 77.792H820.701V90.644H818.793V77.792ZM826.637 90.698C824.207 90.698 822.497 88.916 822.497 86.396C822.497 83.858 824.207 82.076 826.637 82.076C829.301 82.076 830.147 84.254 830.201 84.398C830.723 85.622 830.561 86.99 830.561 87.134H824.369C824.585 88.286 825.557 89.078 826.637 89.078C828.059 89.078 828.635 88.25 828.779 87.998L830.309 88.682C829.895 89.654 828.689 90.698 826.637 90.698ZM824.369 85.622H828.761C828.581 84.56 827.969 83.696 826.637 83.696C825.485 83.696 824.585 84.506 824.369 85.622Z" fill="#15151A"/>
</g>
<path d="M870.712 73.08V77.112H869.228V73.08L865.63 66.78H867.352L869.97 71.442L872.588 66.78H874.31L870.712 73.08ZM876.79 77.154C876.165 77.154 875.61 77.014 875.124 76.734C874.639 76.4447 874.256 76.048 873.976 75.544C873.706 75.0307 873.57 74.452 873.57 73.808C873.57 73.1547 873.706 72.576 873.976 72.072C874.256 71.5587 874.639 71.162 875.124 70.882C875.61 70.5927 876.165 70.448 876.79 70.448C877.658 70.448 878.307 70.6673 878.736 71.106C879.166 71.5353 879.441 71.918 879.562 72.254C879.758 72.7113 879.856 73.2573 879.856 73.892C879.856 74.06 879.852 74.1813 879.842 74.256C879.842 74.3213 879.842 74.3633 879.842 74.382H875.026C875.11 74.83 875.32 75.194 875.656 75.474C875.992 75.754 876.37 75.894 876.79 75.894C877.266 75.894 877.635 75.8007 877.896 75.614C878.158 75.4273 878.344 75.2407 878.456 75.054L879.646 75.586C879.46 76.0153 879.119 76.384 878.624 76.692C878.139 77 877.528 77.154 876.79 77.154ZM878.442 73.206C878.368 72.758 878.195 72.3987 877.924 72.128C877.654 71.848 877.276 71.708 876.79 71.708C876.352 71.708 875.969 71.848 875.642 72.128C875.316 72.408 875.11 72.7673 875.026 73.206H878.442ZM882.348 74.83C882.488 75.166 882.703 75.4273 882.992 75.614C883.282 75.8007 883.557 75.894 883.818 75.894C884.173 75.894 884.453 75.8333 884.658 75.712C884.864 75.5813 884.966 75.3993 884.966 75.166C884.966 74.9793 884.864 74.83 884.658 74.718C884.453 74.606 884.122 74.4707 883.664 74.312C883.216 74.1533 882.848 74.004 882.558 73.864C882.269 73.724 882.012 73.5233 881.788 73.262C881.574 72.9913 881.466 72.66 881.466 72.268C881.466 71.6893 881.7 71.232 882.166 70.896C882.633 70.5507 883.216 70.378 883.916 70.378C884.215 70.378 884.528 70.4387 884.854 70.56C885.19 70.6813 885.489 70.868 885.75 71.12C886.021 71.372 886.208 71.6847 886.31 72.058L885.064 72.506C884.962 72.1793 884.798 71.9553 884.574 71.834C884.36 71.7127 884.14 71.652 883.916 71.652C883.618 71.652 883.38 71.708 883.202 71.82C883.034 71.932 882.95 72.0813 882.95 72.268C882.95 72.4547 883.044 72.5993 883.23 72.702C883.417 72.8047 883.753 72.94 884.238 73.108C884.686 73.2667 885.055 73.4207 885.344 73.57C885.643 73.71 885.9 73.9107 886.114 74.172C886.338 74.4333 886.45 74.76 886.45 75.152C886.45 75.7587 886.208 76.2487 885.722 76.622C885.237 76.986 884.602 77.168 883.818 77.168C883.296 77.168 882.787 77.0187 882.292 76.72C881.798 76.412 881.429 76.006 881.186 75.502L882.348 74.83Z" fill="#15151A"/>
<path fill-rule="evenodd" clip-rule="evenodd" d="M875.47 88.4697C875.763 88.1768 876.237 88.1768 876.53 88.4697L883.061 95L876.53 101.53C876.237 101.823 875.763 101.823 875.47 101.53C875.177 101.237 875.177 100.763 875.47 100.47L880.939 95L875.47 89.5303C875.177 89.2374 875.177 88.7626 875.47 88.4697Z" fill="#27272A"/>
<path fill-rule="evenodd" clip-rule="evenodd" d="M868.25 95C868.25 94.5858 868.586 94.25 869 94.25L881.75 94.25V95.75L869 95.75C868.586 95.75 868.25 95.4142 868.25 95Z" fill="#27272A"/>
<g filter="url(#filter6_d_15629_6153)">
<rect x="906" y="18" width="120" height="132" rx="8" fill="white" shape-rendering="crispEdges"/>
<path d="M950.873 90.788C947.021 90.788 944.321 87.98 944.321 84.002C944.321 80.006 947.021 77.216 950.873 77.216C952.691 77.216 954.311 77.99 955.499 79.196L954.239 80.438C953.447 79.502 952.187 78.89 950.855 78.89C948.101 78.89 946.247 80.942 946.247 84.002C946.247 87.062 948.101 89.114 950.855 89.114C952.277 89.114 953.411 88.466 954.167 87.602L955.499 88.808C954.311 90.014 952.781 90.806 950.873 90.788ZM957.608 77.792H959.516V90.644H957.608V77.792ZM965.452 89.096C966.784 89.096 967.684 88.034 967.684 86.396C967.684 84.776 966.784 83.696 965.452 83.696C964.12 83.696 963.22 84.758 963.22 86.396C963.22 88.034 964.102 89.096 965.452 89.096ZM961.312 86.396C961.312 83.858 963.022 82.058 965.452 82.058C967.882 82.058 969.592 83.858 969.592 86.396C969.592 88.916 967.882 90.734 965.452 90.734C963.022 90.734 961.312 88.916 961.312 86.396ZM972.721 87.71C973.099 88.646 974.035 89.078 974.611 89.078C975.511 89.078 976.087 88.736 976.087 88.142C976.087 87.602 975.295 87.35 974.413 87.044C973.243 86.63 971.587 86.072 971.587 84.416C971.587 82.904 972.973 81.986 974.737 81.986C975.799 81.986 977.383 82.598 977.815 84.146L976.213 84.722C975.925 83.768 975.151 83.624 974.737 83.624C973.981 83.624 973.495 83.93 973.495 84.416C973.495 84.956 974.233 85.172 975.151 85.496C976.375 85.928 977.995 86.486 977.995 88.124C977.995 89.69 976.609 90.716 974.611 90.716C973.297 90.716 971.857 89.888 971.227 88.574L972.721 87.71ZM983.962 90.698C981.532 90.698 979.822 88.916 979.822 86.396C979.822 83.858 981.532 82.076 983.962 82.076C986.626 82.076 987.472 84.254 987.526 84.398C988.048 85.622 987.886 86.99 987.886 87.134H981.694C981.91 88.286 982.882 89.078 983.962 89.078C985.384 89.078 985.96 88.25 986.104 87.998L987.634 88.682C987.22 89.654 986.014 90.698 983.962 90.698ZM981.694 85.622H986.086C985.906 84.56 985.294 83.696 983.962 83.696C982.81 83.696 981.91 84.506 981.694 85.622Z" fill="#15151A"/>
</g>
<path fill-rule="evenodd" clip-rule="evenodd" d="M1055.47 77.4697C1055.76 77.1768 1056.24 77.1768 1056.53 77.4697L1063.06 84L1056.53 90.5303C1056.24 90.8232 1055.76 90.8232 1055.47 90.5303C1055.18 90.2374 1055.18 89.7626 1055.47 89.4697L1060.94 84L1055.47 78.5303C1055.18 78.2374 1055.18 77.7626 1055.47 77.4697Z" fill="#27272A"/>
<path fill-rule="evenodd" clip-rule="evenodd" d="M1048.25 84C1048.25 83.5858 1048.59 83.25 1049 83.25L1061.75 83.25V84.75L1049 84.75C1048.59 84.75 1048.25 84.4142 1048.25 84Z" fill="#27272A"/>
<g filter="url(#filter7_d_15629_6153)">
<rect x="1086" y="18" width="120" height="132" rx="8" fill="white" shape-rendering="crispEdges"/>
<path d="M1122.12 69.484C1123.58 69.484 1124.57 68.53 1124.57 67C1124.57 65.47 1123.58 64.534 1122.12 64.534H1119.22V69.484H1122.12ZM1117.31 76.144V62.86H1122.35C1124.78 62.86 1126.47 64.516 1126.47 66.964C1126.49 68.692 1125.56 70.168 1123.56 70.888L1127.1 76.144H1124.8L1121.43 71.158H1119.22V76.144H1117.31ZM1132.5 76.198C1130.07 76.198 1128.36 74.416 1128.36 71.896C1128.36 69.358 1130.07 67.576 1132.5 67.576C1135.16 67.576 1136.01 69.754 1136.06 69.898C1136.58 71.122 1136.42 72.49 1136.42 72.634H1130.23C1130.44 73.786 1131.42 74.578 1132.5 74.578C1133.92 74.578 1134.49 73.75 1134.64 73.498L1136.17 74.182C1135.75 75.154 1134.55 76.198 1132.5 76.198ZM1130.23 71.122H1134.62C1134.44 70.06 1133.83 69.196 1132.5 69.196C1131.34 69.196 1130.44 70.006 1130.23 71.122ZM1142.85 74.596C1144.23 74.596 1145.13 73.516 1145.13 71.878C1145.13 70.24 1144.23 69.16 1142.85 69.16C1141.55 69.16 1140.49 70.366 1140.49 71.878C1140.49 73.39 1141.55 74.596 1142.85 74.596ZM1138.56 79.96V67.558H1140.47V68.818C1141.15 67.918 1142.29 67.558 1142.95 67.558C1145.35 67.558 1147.04 69.34 1147.04 71.878C1147.04 74.434 1145.35 76.216 1142.95 76.216C1142.27 76.216 1141.15 75.838 1140.47 74.938V79.96H1138.56ZM1152.83 74.596C1154.17 74.596 1155.07 73.534 1155.07 71.896C1155.07 70.276 1154.17 69.196 1152.83 69.196C1151.5 69.196 1150.6 70.258 1150.6 71.896C1150.6 73.534 1151.48 74.596 1152.83 74.596ZM1148.69 71.896C1148.69 69.358 1150.4 67.558 1152.83 67.558C1155.26 67.558 1156.97 69.358 1156.97 71.896C1156.97 74.416 1155.26 76.234 1152.83 76.234C1150.4 76.234 1148.69 74.416 1148.69 71.896ZM1158.83 76.162V67.576H1160.73V68.836C1161.31 68.026 1162.35 67.486 1163.36 67.54V69.304C1161.83 69.232 1160.73 70.582 1160.73 71.896V76.162H1158.83ZM1166.48 76.162V69.214H1164.86V67.558H1166.48V64.552H1168.39V67.558H1170.42V69.214H1168.39V76.162H1166.48ZM1115.43 98.502C1115.43 96.162 1116.35 93.084 1117.65 91.032H1119.66C1118.19 93.066 1117.16 96.144 1117.16 98.502C1117.16 100.86 1118.19 103.938 1119.66 105.972H1117.65C1116.35 103.92 1115.43 100.842 1115.43 98.502ZM1122.06 105.162V96.576H1123.97V97.836C1124.54 97.026 1125.59 96.486 1126.6 96.54V98.304C1125.07 98.232 1123.97 99.582 1123.97 100.896V105.162H1122.06ZM1131.71 105.198C1129.28 105.198 1127.57 103.416 1127.57 100.896C1127.57 98.358 1129.28 96.576 1131.71 96.576C1134.38 96.576 1135.22 98.754 1135.28 98.898C1135.8 100.122 1135.64 101.49 1135.64 101.634H1129.45C1129.66 102.786 1130.63 103.578 1131.71 103.578C1133.14 103.578 1133.71 102.75 1133.86 102.498L1135.39 103.182C1134.97 104.154 1133.77 105.198 1131.71 105.198ZM1129.45 100.122H1133.84C1133.66 99.06 1133.05 98.196 1131.71 98.196C1130.56 98.196 1129.66 99.006 1129.45 100.122ZM1141.31 103.398C1141.97 103.398 1142.75 103.056 1143.23 102.516L1144.55 103.83C1143.81 104.64 1142.46 105.216 1141.38 105.216C1138.82 105.216 1137.02 103.416 1137.02 100.896C1137.02 98.358 1138.82 96.558 1141.38 96.558C1142.51 96.558 1143.77 97.134 1144.55 97.962L1143.23 99.258C1142.75 98.718 1141.97 98.376 1141.31 98.376C1139.88 98.376 1138.93 99.366 1138.93 100.896C1138.93 102.408 1139.88 103.398 1141.31 103.398ZM1149.82 103.596C1151.15 103.596 1152.05 102.534 1152.05 100.896C1152.05 99.276 1151.15 98.196 1149.82 98.196C1148.49 98.196 1147.59 99.258 1147.59 100.896C1147.59 102.534 1148.47 103.596 1149.82 103.596ZM1145.68 100.896C1145.68 98.358 1147.39 96.558 1149.82 96.558C1152.25 96.558 1153.96 98.358 1153.96 100.896C1153.96 103.416 1152.25 105.234 1149.82 105.234C1147.39 105.234 1145.68 103.416 1145.68 100.896ZM1155.81 105.162V96.576H1157.72V97.836C1158.29 97.026 1159.34 96.486 1160.35 96.54V98.304C1158.82 98.232 1157.72 99.582 1157.72 100.896V105.162H1155.81ZM1165.41 105.234C1163.03 105.234 1161.32 103.434 1161.32 100.896C1161.32 98.358 1163.03 96.558 1165.41 96.558C1166.11 96.558 1167.17 96.864 1167.91 97.836V92.292H1169.82V105.162H1167.91V103.956C1167.16 104.874 1166.11 105.234 1165.41 105.234ZM1163.23 100.914C1163.23 102.552 1164.15 103.632 1165.54 103.632C1166.83 103.632 1167.91 102.444 1167.91 100.914C1167.91 99.402 1166.83 98.196 1165.54 98.196C1164.15 98.196 1163.23 99.276 1163.23 100.914ZM1176.55 98.502C1176.55 100.842 1175.65 103.902 1174.35 105.972H1172.33C1173.79 103.956 1174.82 100.86 1174.82 98.502C1174.82 96.144 1173.79 93.048 1172.33 91.032H1174.35C1175.65 93.102 1176.55 96.162 1176.55 98.502Z" fill="#15151A"/>
</g>
<path d="M786.177 184.112H784.567L779.443 176.328V184.112H777.959V173.78H779.569L784.679 181.55V173.78H786.177V184.112ZM791.152 182.908C791.674 182.908 792.094 182.717 792.412 182.334C792.729 181.951 792.888 181.443 792.888 180.808C792.888 180.183 792.729 179.679 792.412 179.296C792.094 178.904 791.674 178.708 791.152 178.708C790.629 178.708 790.209 178.899 789.892 179.282C789.574 179.665 789.416 180.173 789.416 180.808C789.416 181.443 789.574 181.951 789.892 182.334C790.209 182.717 790.629 182.908 791.152 182.908ZM787.932 180.808C787.932 180.155 788.067 179.576 788.338 179.072C788.618 178.559 789 178.157 789.486 177.868C789.971 177.579 790.526 177.434 791.152 177.434C791.777 177.434 792.332 177.579 792.818 177.868C793.303 178.157 793.681 178.559 793.952 179.072C794.232 179.576 794.372 180.155 794.372 180.808C794.372 181.452 794.232 182.031 793.952 182.544C793.681 183.057 793.303 183.459 792.818 183.748C792.332 184.037 791.777 184.182 791.152 184.182C790.526 184.182 789.971 184.037 789.486 183.748C789 183.459 788.618 183.057 788.338 182.544C788.067 182.031 787.932 181.452 787.932 180.808Z" fill="#15151A"/>
<path fill-rule="evenodd" clip-rule="evenodd" d="M792.53 201.47C792.823 201.763 792.823 202.237 792.53 202.53L786 209.061L779.47 202.53C779.177 202.237 779.177 201.763 779.47 201.47C779.763 201.177 780.237 201.177 780.53 201.47L786 206.939L791.47 201.47C791.763 201.177 792.237 201.177 792.53 201.47Z" fill="#27272A"/>
<path fill-rule="evenodd" clip-rule="evenodd" d="M786 194.25C786.414 194.25 786.75 194.586 786.75 195L786.75 207.75L785.25 207.75L785.25 195C785.25 194.586 785.586 194.25 786 194.25Z" fill="#27272A"/>
<path fill-rule="evenodd" clip-rule="evenodd" d="M239.47 180.53C239.177 180.237 239.177 179.763 239.47 179.47L246 172.939L252.53 179.47C252.823 179.763 252.823 180.237 252.53 180.53C252.237 180.823 251.763 180.823 251.47 180.53L246 175.061L240.53 180.53C240.237 180.823 239.763 180.823 239.47 180.53Z" fill="#27272A"/>
<path d="M692 312L246 312L246 182" stroke="#27272A" stroke-width="1.5" stroke-linecap="round" stroke-dasharray="4 5"/>
<defs>
<filter id="filter0_d_15629_6153" x="698.658" y="227.993" width="174.685" height="156.685" filterUnits="userSpaceOnUse" color-interpolation-filters="sRGB">
<feFlood flood-opacity="0" result="BackgroundImageFix"/>
<feColorMatrix in="SourceAlpha" type="matrix" values="0 0 0 0 0 0 0 0 0 0 0 0 0 0 0 0 0 0 127 0" result="hardAlpha"/>
<feOffset dy="1.33562"/>
<feGaussianBlur stdDeviation="2.67123"/>
<feComposite in2="hardAlpha" operator="out"/>
<feColorMatrix type="matrix" values="0 0 0 0 0 0 0 0 0 0 0 0 0 0 0 0 0 0 0.1 0"/>
<feBlend mode="normal" in2="BackgroundImageFix" result="effect1_dropShadow_15629_6153"/>
<feBlend mode="normal" in="SourceGraphic" in2="effect1_dropShadow_15629_6153" result="shape"/>
</filter>
<filter id="filter1_d_15629_6153" x="0.657534" y="-0.00684941" width="130.685" height="156.685" filterUnits="userSpaceOnUse" color-interpolation-filters="sRGB">
<feFlood flood-opacity="0" result="BackgroundImageFix"/>
<feColorMatrix in="SourceAlpha" type="matrix" values="0 0 0 0 0 0 0 0 0 0 0 0 0 0 0 0 0 0 127 0" result="hardAlpha"/>
<feOffset dy="1.33562"/>
<feGaussianBlur stdDeviation="2.67123"/>
<feComposite in2="hardAlpha" operator="out"/>
<feColorMatrix type="matrix" values="0 0 0 0 0 0 0 0 0 0 0 0 0 0 0 0 0 0 0.1 0"/>
<feBlend mode="normal" in2="BackgroundImageFix" result="effect1_dropShadow_15629_6153"/>
<feBlend mode="normal" in="SourceGraphic" in2="effect1_dropShadow_15629_6153" result="shape"/>
</filter>
<filter id="filter2_d_15629_6153" x="180.658" y="-0.00684941" width="130.685" height="156.685" filterUnits="userSpaceOnUse" color-interpolation-filters="sRGB">
<feFlood flood-opacity="0" result="BackgroundImageFix"/>
<feColorMatrix in="SourceAlpha" type="matrix" values="0 0 0 0 0 0 0 0 0 0 0 0 0 0 0 0 0 0 127 0" result="hardAlpha"/>
<feOffset dy="1.33562"/>
<feGaussianBlur stdDeviation="2.67123"/>
<feComposite in2="hardAlpha" operator="out"/>
<feColorMatrix type="matrix" values="0 0 0 0 0 0 0 0 0 0 0 0 0 0 0 0 0 0 0.1 0"/>
<feBlend mode="normal" in2="BackgroundImageFix" result="effect1_dropShadow_15629_6153"/>
<feBlend mode="normal" in="SourceGraphic" in2="effect1_dropShadow_15629_6153" result="shape"/>
</filter>
<filter id="filter3_d_15629_6153" x="360.658" y="-0.00684941" width="130.685" height="156.685" filterUnits="userSpaceOnUse" color-interpolation-filters="sRGB">
<feFlood flood-opacity="0" result="BackgroundImageFix"/>
<feColorMatrix in="SourceAlpha" type="matrix" values="0 0 0 0 0 0 0 0 0 0 0 0 0 0 0 0 0 0 127 0" result="hardAlpha"/>
<feOffset dy="1.33562"/>
<feGaussianBlur stdDeviation="2.67123"/>
<feComposite in2="hardAlpha" operator="out"/>
<feColorMatrix type="matrix" values="0 0 0 0 0 0 0 0 0 0 0 0 0 0 0 0 0 0 0.1 0"/>
<feBlend mode="normal" in2="BackgroundImageFix" result="effect1_dropShadow_15629_6153"/>
<feBlend mode="normal" in="SourceGraphic" in2="effect1_dropShadow_15629_6153" result="shape"/>
</filter>
<filter id="filter4_d_15629_6153" x="540.658" y="-0.00684941" width="130.685" height="156.685" filterUnits="userSpaceOnUse" color-interpolation-filters="sRGB">
<feFlood flood-opacity="0" result="BackgroundImageFix"/>
<feColorMatrix in="SourceAlpha" type="matrix" values="0 0 0 0 0 0 0 0 0 0 0 0 0 0 0 0 0 0 127 0" result="hardAlpha"/>
<feOffset dy="1.33562"/>
<feGaussianBlur stdDeviation="2.67123"/>
<feComposite in2="hardAlpha" operator="out"/>
<feColorMatrix type="matrix" values="0 0 0 0 0 0 0 0 0 0 0 0 0 0 0 0 0 0 0.1 0"/>
<feBlend mode="normal" in2="BackgroundImageFix" result="effect1_dropShadow_15629_6153"/>
<feBlend mode="normal" in="SourceGraphic" in2="effect1_dropShadow_15629_6153" result="shape"/>
</filter>
<filter id="filter5_d_15629_6153" x="720.658" y="13.9932" width="130.685" height="142.685" filterUnits="userSpaceOnUse" color-interpolation-filters="sRGB">
<feFlood flood-opacity="0" result="BackgroundImageFix"/>
<feColorMatrix in="SourceAlpha" type="matrix" values="0 0 0 0 0 0 0 0 0 0 0 0 0 0 0 0 0 0 127 0" result="hardAlpha"/>
<feOffset dy="1.33562"/>
<feGaussianBlur stdDeviation="2.67123"/>
<feComposite in2="hardAlpha" operator="out"/>
<feColorMatrix type="matrix" values="0 0 0 0 0 0 0 0 0 0 0 0 0 0 0 0 0 0 0.1 0"/>
<feBlend mode="normal" in2="BackgroundImageFix" result="effect1_dropShadow_15629_6153"/>
<feBlend mode="normal" in="SourceGraphic" in2="effect1_dropShadow_15629_6153" result="shape"/>
</filter>
<filter id="filter6_d_15629_6153" x="900.658" y="13.9932" width="130.685" height="142.685" filterUnits="userSpaceOnUse" color-interpolation-filters="sRGB">
<feFlood flood-opacity="0" result="BackgroundImageFix"/>
<feColorMatrix in="SourceAlpha" type="matrix" values="0 0 0 0 0 0 0 0 0 0 0 0 0 0 0 0 0 0 127 0" result="hardAlpha"/>
<feOffset dy="1.33562"/>
<feGaussianBlur stdDeviation="2.67123"/>
<feComposite in2="hardAlpha" operator="out"/>
<feColorMatrix type="matrix" values="0 0 0 0 0 0 0 0 0 0 0 0 0 0 0 0 0 0 0.1 0"/>
<feBlend mode="normal" in2="BackgroundImageFix" result="effect1_dropShadow_15629_6153"/>
<feBlend mode="normal" in="SourceGraphic" in2="effect1_dropShadow_15629_6153" result="shape"/>
</filter>
<filter id="filter7_d_15629_6153" x="1080.66" y="13.9932" width="130.685" height="142.685" filterUnits="userSpaceOnUse" color-interpolation-filters="sRGB">
<feFlood flood-opacity="0" result="BackgroundImageFix"/>
<feColorMatrix in="SourceAlpha" type="matrix" values="0 0 0 0 0 0 0 0 0 0 0 0 0 0 0 0 0 0 127 0" result="hardAlpha"/>
<feOffset dy="1.33562"/>
<feGaussianBlur stdDeviation="2.67123"/>
<feComposite in2="hardAlpha" operator="out"/>
<feColorMatrix type="matrix" values="0 0 0 0 0 0 0 0 0 0 0 0 0 0 0 0 0 0 0.1 0"/>
<feBlend mode="normal" in2="BackgroundImageFix" result="effect1_dropShadow_15629_6153"/>
<feBlend mode="normal" in="SourceGraphic" in2="effect1_dropShadow_15629_6153" result="shape"/>
</filter>
</defs>
</svg>
