<svg width="764" height="505" viewBox="0 0 764 505" fill="none" xmlns="http://www.w3.org/2000/svg">
<g filter="url(#filter0_d_8588_11370)">
<circle cx="122" cy="91.9992" r="68.8889" fill="white"/>
</g>
<g clip-path="url(#clip0_8588_11370)">
<path d="M129.649 63.5C127.164 63.5 125.149 65.5147 125.149 68V120.5H148.999V68C148.999 65.5147 146.985 63.5 144.499 63.5H129.649Z" fill="#6D0CA6"/>
<path d="M108.5 99.5C108.5 97.0147 106.485 95 104 95H98C95.5147 95 93.5 97.0147 93.5 99.5V120.5H108.5V99.5Z" fill="#6D0CA6"/>
<path d="M136.549 77.3008C136.549 74.8155 134.535 72.8008 132.049 72.8008H109.399C106.914 72.8008 104.899 74.8155 104.899 77.3008V120.651H136.549V77.3008Z" fill="#CC7DFA"/>
<path d="M153.5 120.5C153.5 118.843 152.157 117.5 150.5 117.5H93.5C91.8431 117.5 90.5 118.843 90.5 120.5V122H153.5V120.5Z" fill="#CC7DFA"/>
<path d="M113.899 83.1494C112.657 83.1494 111.649 84.1568 111.649 85.3994C111.649 86.6421 112.657 87.6494 113.899 87.6494H127.699C128.942 87.6494 129.949 86.6421 129.949 85.3994C129.949 84.1568 128.942 83.1494 127.699 83.1494H113.899Z" fill="white"/>
<path d="M113.899 91.5488C112.657 91.5488 111.649 92.5562 111.649 93.7988C111.649 95.0415 112.657 96.0488 113.899 96.0488H127.699C128.942 96.0488 129.949 95.0415 129.949 93.7988C129.949 92.5562 128.942 91.5488 127.699 91.5488H113.899Z" fill="white"/>
<path d="M111.649 102.2C111.649 100.957 112.657 99.9497 113.899 99.9497H127.699C128.942 99.9497 129.949 100.957 129.949 102.2C129.949 103.442 128.942 104.45 127.699 104.45H113.899C112.657 104.45 111.649 103.442 111.649 102.2Z" fill="white"/>
<path d="M118.25 111.5L118.25 116.75H122.75L122.75 111.5C122.75 110.257 121.743 109.25 120.5 109.25C119.257 109.25 118.25 110.257 118.25 111.5Z" fill="white"/>
</g>
<path d="M77.4094 192.942C79.8394 192.942 81.6574 194.436 81.6574 196.56C81.6574 198.684 79.8394 200.16 77.4094 200.16C74.9974 200.16 73.1974 198.684 73.1974 196.56C73.1974 194.436 74.9974 192.942 77.4094 192.942ZM75.1054 196.56C75.1054 197.802 76.0954 198.558 77.4094 198.558C78.7594 198.558 79.7314 197.802 79.7314 196.56C79.7314 195.318 78.7594 194.544 77.4094 194.544C76.0954 194.544 75.1054 195.318 75.1054 196.56ZM75.6094 202.752V201.222H86.1574V205.416H77.5714V206.712H86.6074V208.26H75.6454V203.976H84.1954V202.752H75.6094ZM84.1774 200.52V192.438H86.1574V200.52H84.1774ZM94.8159 200.322C94.8159 199.494 95.5539 198.72 96.3999 198.72C97.2819 198.72 97.9839 199.494 97.9839 200.322C97.9839 201.168 97.2819 201.906 96.3999 201.906C95.5539 201.906 94.8159 201.168 94.8159 200.322ZM115.676 192.402H117.674V198.684H120.032V200.322H117.674V208.44H115.676V192.402ZM105.146 204.066C109.016 202.086 111.086 199.35 111.464 195.696H105.992V194.094H113.462C113.462 198.81 111.536 202.914 106.262 205.56L105.146 204.066ZM129.555 196.416H132.273V192.438H134.253V201.942H132.273V198.018H129.555V196.416ZM120.915 200.34C123.435 199.458 124.785 197.316 124.785 195.156V195.066H121.455V193.482H130.059V195.066H126.783V195.156C126.783 197.118 128.043 199.08 130.509 199.926L129.519 201.474C127.755 200.862 126.513 199.656 125.829 198.144C125.127 199.854 123.813 201.24 121.905 201.906L120.915 200.34ZM123.453 205.416C123.453 203.508 125.523 202.356 128.889 202.356C132.237 202.356 134.307 203.508 134.307 205.416C134.307 207.342 132.237 208.458 128.889 208.458C125.523 208.458 123.453 207.342 123.453 205.416ZM125.433 205.416C125.433 206.406 126.675 206.946 128.889 206.946C131.085 206.946 132.345 206.406 132.345 205.416C132.345 204.408 131.085 203.868 128.889 203.868C126.675 203.868 125.433 204.408 125.433 205.416ZM145.296 193.338C147.744 193.338 149.58 194.922 149.58 197.172C149.58 199.422 147.744 201.006 145.296 201.006C142.83 201.006 141.012 199.422 141.012 197.172C141.012 194.922 142.83 193.338 145.296 193.338ZM142.83 205.344C142.83 203.382 144.9 202.23 148.194 202.23C151.488 202.23 153.54 203.382 153.54 205.344C153.54 207.288 151.488 208.44 148.194 208.44C144.9 208.44 142.83 207.288 142.83 205.344ZM142.938 197.172C142.938 198.522 143.946 199.35 145.296 199.35C146.646 199.35 147.654 198.522 147.654 197.172C147.654 195.84 146.646 194.994 145.296 194.994C143.946 194.994 142.938 195.84 142.938 197.172ZM144.792 205.344C144.792 206.334 146.016 206.892 148.194 206.892C150.354 206.892 151.596 206.334 151.596 205.344C151.596 204.318 150.354 203.796 148.194 203.796C146.016 203.796 144.792 204.318 144.792 205.344ZM151.38 201.834V192.438H153.36V194.562H155.52V196.182H153.36V198.018H155.52V199.638H153.36V201.834H151.38ZM167.814 192.42H169.794V201.312H167.814V192.42ZM157.356 194.76V193.176H164.682V197.766H159.318V199.422C162.054 199.404 164.016 199.314 166.248 198.936L166.482 200.538C163.998 200.952 161.856 201.024 158.742 201.024H157.374V196.272H162.738V194.76H157.356ZM159.246 208.26V202.032H161.208V203.598H167.85V202.032H169.794V208.26H159.246ZM161.208 206.658H167.85V205.128H161.208V206.658Z" fill="#15151A"/>
<path fill-rule="evenodd" clip-rule="evenodd" d="M243.017 91.9998C243.017 91.3371 243.554 90.7998 244.217 90.7998H260.217C260.879 90.7998 261.417 91.3371 261.417 91.9998C261.417 92.6625 260.879 93.1998 260.217 93.1998H244.217C243.554 93.1998 243.017 92.6625 243.017 91.9998Z" fill="#71717A"/>
<path fill-rule="evenodd" clip-rule="evenodd" d="M252 101.2C251.337 101.2 250.8 100.663 250.8 99.9998L250.8 83.9998C250.8 83.3371 251.337 82.7998 252 82.7998C252.663 82.7998 253.2 83.3371 253.2 83.9998V99.9998C253.2 100.663 252.663 101.2 252 101.2Z" fill="#71717A"/>
<g filter="url(#filter1_d_8588_11370)">
<circle cx="382" cy="91.9992" r="68.8889" fill="white"/>
</g>
<g clip-path="url(#clip1_8588_11370)">
<path fill-rule="evenodd" clip-rule="evenodd" d="M387.056 65.4111C386.003 65 384.669 65 382 65C379.331 65 377.997 65 376.944 65.4111C375.541 65.9591 374.426 67.0104 373.845 68.3335C373.579 68.9375 373.476 69.64 373.435 70.6646C373.375 72.1703 372.556 73.5641 371.172 74.3175C369.788 75.0709 368.098 75.0428 366.685 74.3386C365.724 73.8595 365.027 73.5931 364.339 73.5077C362.833 73.3208 361.31 73.7056 360.105 74.5774C359.201 75.2313 358.534 76.3208 357.2 78.4998C355.865 80.6788 355.198 81.7683 355.049 82.8332C354.851 84.2532 355.259 85.6892 356.184 86.8254C356.606 87.344 357.199 87.78 358.12 88.3254C359.473 89.1272 360.344 90.493 360.344 92.0001C360.344 93.5069 359.473 94.8726 358.12 95.6743C357.199 96.2198 356.606 96.6558 356.184 97.1744C355.259 98.3106 354.851 99.7467 355.049 101.167C355.198 102.232 355.865 103.321 357.199 105.5C358.534 107.679 359.201 108.768 360.105 109.422C361.31 110.294 362.833 110.679 364.339 110.492C365.026 110.407 365.723 110.14 366.685 109.661C368.098 108.957 369.788 108.929 371.172 109.682C372.556 110.436 373.375 111.83 373.435 113.336C373.476 114.36 373.579 115.063 373.845 115.666C374.426 116.99 375.541 118.041 376.944 118.589C377.997 119 379.331 119 382 119C384.669 119 386.003 119 387.056 118.589C388.459 118.041 389.574 116.99 390.155 115.666C390.421 115.062 390.524 114.36 390.565 113.335C390.625 111.83 391.444 110.436 392.828 109.682C394.212 108.929 395.902 108.957 397.315 109.661C398.276 110.14 398.973 110.407 399.661 110.492C401.167 110.679 402.69 110.294 403.895 109.422C404.799 108.768 405.466 107.679 406.8 105.5C408.135 103.321 408.802 102.231 408.951 101.166C409.149 99.7465 408.741 98.3105 407.816 97.1742C407.394 96.6556 406.801 96.2196 405.88 95.6742C404.527 94.8724 403.656 93.5067 403.656 91.9998C403.656 90.493 404.527 89.1274 405.88 88.3258C406.801 87.7803 407.394 87.3443 407.816 86.8256C408.741 85.6894 409.149 84.2533 408.951 82.8334C408.802 81.7685 408.135 80.679 406.801 78.5C405.466 76.321 404.799 75.2315 403.895 74.5776C402.69 73.7058 401.167 73.321 399.661 73.5079C398.974 73.5933 398.277 73.8597 397.315 74.3388C395.902 75.0429 394.212 75.071 392.828 74.3176C391.444 73.5641 390.625 72.1703 390.565 70.6644C390.524 69.6399 390.421 68.9375 390.155 68.3335C389.574 67.0104 388.459 65.9591 387.056 65.4111Z" fill="#CC7DFA"/>
<path d="M391 92C391 96.9706 386.971 101 382 101C377.029 101 373 96.9706 373 92C373 87.0294 377.029 83 382 83C386.971 83 391 87.0294 391 92Z" fill="#6D0CA6"/>
</g>
<path d="M320.016 192.942C322.446 192.942 324.264 194.436 324.264 196.56C324.264 198.684 322.446 200.16 320.016 200.16C317.604 200.16 315.804 198.684 315.804 196.56C315.804 194.436 317.604 192.942 320.016 192.942ZM317.712 196.56C317.712 197.802 318.702 198.558 320.016 198.558C321.366 198.558 322.338 197.802 322.338 196.56C322.338 195.318 321.366 194.544 320.016 194.544C318.702 194.544 317.712 195.318 317.712 196.56ZM318.216 202.752V201.222H328.764V205.416H320.178V206.712H329.214V208.26H318.252V203.976H326.802V202.752H318.216ZM326.784 200.52V192.438H328.764V200.52H326.784ZM341.76 192.438H343.74V198.81H346.17V200.448H343.74V208.458H341.76V192.438ZM331.176 196.452V194.868H334.902V192.672H336.9V194.868H340.572V196.452H331.176ZM331.914 201.294C331.914 199.08 333.624 197.532 335.91 197.532C338.232 197.532 339.924 199.08 339.924 201.294C339.924 203.508 338.232 205.056 335.91 205.056C333.624 205.056 331.914 203.508 331.914 201.294ZM333.822 201.294C333.822 202.608 334.686 203.436 335.91 203.436C337.134 203.436 338.016 202.608 338.016 201.294C338.016 199.98 337.134 199.134 335.91 199.134C334.686 199.134 333.822 199.98 333.822 201.294ZM348.853 192.996H350.815V196.938H359.869V198.522H348.853V192.996ZM346.999 201.96V200.376H361.507V201.96H346.999ZM348.727 208.098V203.346H350.689V206.496H359.959V208.098H348.727ZM374.242 202.302C377.554 202.302 379.606 203.454 379.606 205.38C379.606 207.324 377.554 208.458 374.242 208.458C370.948 208.458 368.878 207.324 368.878 205.38C368.878 203.454 370.948 202.302 374.242 202.302ZM367.438 200.916V193.446H369.4V195.588H373.072V193.446H375.016V200.916H367.438ZM369.4 199.368H373.072V197.136H369.4V199.368ZM370.84 205.38C370.84 206.388 372.064 206.91 374.242 206.91C376.402 206.91 377.644 206.388 377.644 205.38C377.644 204.408 376.402 203.886 374.242 203.886C372.064 203.886 370.84 204.408 370.84 205.38ZM377.446 201.942V192.438H379.426V196.272H381.64V197.91H379.426V201.942H377.446ZM386.5 193.176H388.498V194.706C388.498 196.83 389.83 198.81 392.332 199.62L391.378 201.168C389.542 200.556 388.246 199.332 387.526 197.784C386.824 199.458 385.474 200.808 383.584 201.456L382.594 199.872C385.186 199.008 386.5 196.884 386.5 194.706V193.176ZM384.988 204.354V202.752H395.824V208.458H393.844V204.354H384.988ZM393.844 202.014V192.438H395.824V202.014H393.844ZM403.492 193.518C405.994 193.518 407.848 195.138 407.848 197.406C407.848 199.692 405.994 201.294 403.492 201.294C400.972 201.294 399.118 199.692 399.118 197.406C399.118 195.138 400.972 193.518 403.492 193.518ZM398.398 203.508C401.242 203.508 405.238 203.49 408.64 202.968L408.784 204.408C405.274 205.092 401.44 205.128 398.632 205.128L398.398 203.508ZM401.044 197.406C401.044 198.738 402.088 199.602 403.492 199.602C404.878 199.602 405.922 198.738 405.922 197.406C405.922 196.056 404.878 195.228 403.492 195.228C402.088 195.228 401.044 196.056 401.044 197.406ZM409.594 208.476V192.402H411.556V208.476H409.594ZM418.243 193.896H421.771V192.294H423.769V193.896H427.117V195.48H418.243V193.896ZM419.053 199.17C419.053 197.388 420.619 196.128 422.743 196.128C424.885 196.128 426.451 197.388 426.451 199.17C426.451 200.952 424.885 202.23 422.743 202.23C420.619 202.23 419.053 200.952 419.053 199.17ZM420.691 204.984V203.418H431.509V208.458H429.529V204.984H420.691ZM420.907 199.17C420.907 200.124 421.663 200.7 422.743 200.7C423.841 200.7 424.615 200.124 424.615 199.17C424.615 198.216 423.841 197.64 422.743 197.64C421.663 197.64 420.907 198.216 420.907 199.17ZM427.189 200.79V199.206H429.529V197.73H427.225V196.146H429.529V192.438H431.509V202.608H429.529V200.79H427.189ZM445.19 192.438H447.17V204.12H445.19V192.438ZM433.976 200.358C436.55 199.422 437.864 197.154 437.864 194.904V193.302H439.862V194.904C439.862 197.1 441.158 199.224 443.696 200.07L442.67 201.654C440.87 201.006 439.592 199.728 438.89 198.09C438.188 199.836 436.874 201.24 434.984 201.924L433.976 200.358ZM436.658 208.134V203.022H438.638V206.55H447.62V208.134H436.658Z" fill="#15151A"/>
<path fill-rule="evenodd" clip-rule="evenodd" d="M503.017 91.9998C503.017 91.3371 503.554 90.7998 504.217 90.7998H520.217C520.879 90.7998 521.417 91.3371 521.417 91.9998C521.417 92.6625 520.879 93.1998 520.217 93.1998H504.217C503.554 93.1998 503.017 92.6625 503.017 91.9998Z" fill="#71717A"/>
<path fill-rule="evenodd" clip-rule="evenodd" d="M512 101.2C511.337 101.2 510.8 100.663 510.8 99.9998L510.8 83.9998C510.8 83.3371 511.337 82.7998 512 82.7998C512.663 82.7998 513.2 83.3371 513.2 83.9998V99.9998C513.2 100.663 512.663 101.2 512 101.2Z" fill="#71717A"/>
<g filter="url(#filter2_d_8588_11370)">
<circle cx="642" cy="91.9992" r="68.8889" fill="white"/>
</g>
<g clip-path="url(#clip2_8588_11370)">
<path d="M657 65C657 62.5147 654.985 60.5 652.5 60.5H630C627.515 60.5 625.5 62.5147 625.5 65V87.5H657V65Z" fill="#6D0CA6"/>
<circle cx="642" cy="98" r="12" fill="white"/>
<path fill-rule="evenodd" clip-rule="evenodd" d="M642 122C655.255 122 666 111.255 666 98C666 84.7452 655.255 74 642 74C628.745 74 618 84.7452 618 98C618 111.255 628.745 122 642 122ZM642 89C641.148 89 640.578 90.0225 639.438 92.0675L639.143 92.5966C638.819 93.1777 638.657 93.4683 638.404 93.66C638.152 93.8517 637.837 93.9229 637.208 94.0652L636.636 94.1948C634.422 94.6957 633.315 94.9461 633.052 95.793C632.788 96.6398 633.543 97.5222 635.052 99.2869L635.443 99.7435C635.871 100.245 636.086 100.496 636.182 100.806C636.279 101.116 636.246 101.451 636.181 102.12L636.122 102.729C635.894 105.084 635.78 106.261 636.47 106.784C637.159 107.308 638.195 106.83 640.268 105.876L640.804 105.629C641.393 105.358 641.688 105.222 642 105.222C642.312 105.222 642.607 105.358 643.196 105.629L643.732 105.876C645.805 106.83 646.841 107.308 647.53 106.784C648.22 106.261 648.106 105.084 647.878 102.729L647.819 102.12C647.754 101.451 647.721 101.116 647.818 100.806C647.914 100.496 648.129 100.245 648.557 99.7435L648.948 99.2869C650.457 97.5222 651.212 96.6398 650.948 95.793C650.685 94.9461 649.578 94.6957 647.364 94.1948L646.792 94.0652C646.163 93.9229 645.848 93.8517 645.596 93.66C645.343 93.4683 645.181 93.1777 644.857 92.5966L644.562 92.0675C643.422 90.0225 642.852 89 642 89Z" fill="#CC7DFA"/>
</g>
<path d="M586.442 193.392H588.35V195.354C588.35 197.118 589.34 198.864 591.428 199.692L590.384 201.186C588.98 200.628 587.99 199.62 587.432 198.36C586.838 199.8 585.812 201.024 584.282 201.672L583.238 200.142C585.416 199.188 586.442 197.172 586.442 195.354V193.392ZM586.154 205.488C586.154 203.652 588.26 202.536 591.59 202.536C594.938 202.536 597.044 203.652 597.044 205.488C597.044 207.342 594.938 208.44 591.59 208.44C588.26 208.44 586.154 207.342 586.154 205.488ZM588.116 205.488C588.116 206.424 589.394 206.946 591.59 206.946C593.804 206.946 595.064 206.424 595.064 205.488C595.064 204.552 593.804 204.048 591.59 204.048C589.394 204.048 588.116 204.552 588.116 205.488ZM591.68 201.762V192.744H593.534V196.488H595.082V192.438H596.972V202.266H595.082V198.09H593.534V201.762H591.68ZM602.715 193.626C604.821 193.626 606.189 195.804 606.189 199.35C606.189 202.914 604.821 205.092 602.715 205.092C600.627 205.092 599.277 202.914 599.277 199.35C599.277 195.804 600.627 193.626 602.715 193.626ZM601.095 199.35C601.095 201.87 601.707 203.238 602.715 203.238C603.741 203.238 604.353 201.87 604.353 199.35C604.353 196.848 603.741 195.498 602.715 195.498C601.707 195.498 601.095 196.848 601.095 199.35ZM607.413 207.684V192.726H609.267V198.63H610.941V192.42H612.813V208.44H610.941V200.232H609.267V207.684H607.413ZM626.555 198.45H630.335V196.704H626.735C625.727 199.242 623.405 201.024 619.931 202.014L619.157 200.448C622.901 199.44 624.863 197.532 625.151 195.138H620.003V193.554H627.293C627.293 194.094 627.257 194.616 627.167 195.12H630.335V192.42H632.315V201.798H630.335V200.034H626.555V198.45ZM621.677 205.182C621.677 203.202 623.783 201.996 627.041 201.996C630.281 201.996 632.405 203.202 632.405 205.182C632.405 207.144 630.281 208.368 627.041 208.368C623.783 208.368 621.677 207.144 621.677 205.182ZM623.639 205.182C623.639 206.244 624.935 206.838 627.041 206.838C629.165 206.838 630.461 206.244 630.461 205.182C630.461 204.102 629.165 203.526 627.041 203.526C624.935 203.526 623.639 204.102 623.639 205.182ZM635.07 193.662H642.18V195.246H639.624V195.606C639.624 197.424 640.56 199.08 642.54 199.872L641.514 201.366C640.164 200.826 639.246 199.872 638.706 198.666C638.148 200.052 637.14 201.168 635.664 201.78L634.62 200.268C636.762 199.386 637.716 197.496 637.716 195.606V195.246H635.07V193.662ZM637.5 205.452C637.5 203.598 639.606 202.464 642.936 202.464C646.284 202.464 648.39 203.598 648.39 205.452C648.39 207.324 646.284 208.44 642.936 208.44C639.606 208.44 637.5 207.324 637.5 205.452ZM639.462 205.452C639.462 206.406 640.74 206.928 642.936 206.928C645.15 206.928 646.41 206.406 646.41 205.452C646.41 204.498 645.15 203.994 642.936 203.994C640.74 203.994 639.462 204.498 639.462 205.452ZM643.062 201.69V192.744H644.934V196.434H646.428V192.438H648.318V202.176H646.428V198.054H644.934V201.69H643.062ZM651.054 193.356H658.056V198.216H653.07V200.178C655.626 200.16 657.048 200.088 658.758 199.8L658.956 201.366C657.048 201.708 655.41 201.762 652.278 201.762H651.09V196.722H656.112V194.958H651.054V193.356ZM652.908 204.66V203.076H663.78V208.476H661.8V204.66H652.908ZM659.028 199.656V198.09H661.8V196.308H659.028V194.706H661.8V192.438H663.78V202.302H661.8V199.656H659.028ZM680.907 192.42H682.887V196.326H685.119V197.964H682.887V201.816H680.907V192.42ZM670.287 200.484C673.923 199.476 676.029 197.514 676.353 195.12H671.025V193.518H678.513C678.513 197.748 675.777 200.736 671.097 202.068L670.287 200.484ZM672.447 205.236C672.447 203.256 674.553 202.032 677.775 202.032C680.979 202.032 683.067 203.256 683.067 205.236C683.067 207.216 680.979 208.44 677.775 208.44C674.553 208.44 672.447 207.216 672.447 205.236ZM674.409 205.236C674.409 206.298 675.687 206.91 677.775 206.91C679.863 206.91 681.141 206.298 681.141 205.236C681.141 204.156 679.863 203.562 677.775 203.562C675.687 203.562 674.409 204.156 674.409 205.236ZM696.693 192.438H698.673V199.044H700.869V200.7H698.673V208.458H696.693V192.438ZM685.911 204.012C687.117 204.012 688.503 204.012 689.961 203.976V202.464C688.233 202.176 687.099 201.096 687.099 199.566C687.099 197.766 688.683 196.578 690.951 196.578C693.219 196.578 694.821 197.766 694.821 199.566C694.821 201.096 693.669 202.176 691.941 202.464V203.886C693.255 203.832 694.569 203.706 695.811 203.544L695.973 204.966C692.571 205.632 688.899 205.632 686.181 205.632L685.911 204.012ZM686.199 195.822V194.256H689.961V192.492H691.941V194.256H695.685V195.822H686.199ZM688.971 199.566C688.971 200.502 689.763 201.06 690.951 201.06C692.157 201.06 692.949 200.502 692.949 199.566C692.949 198.63 692.157 198.072 690.951 198.072C689.763 198.072 688.971 198.63 688.971 199.566Z" fill="#15151A"/>
<line x1="382.025" y1="239" x2="382.025" y2="290.3" stroke="#71717A" stroke-width="0.95" stroke-dasharray="2.85 2.85"/>
<path d="M189 346V299.6C189 295.403 192.403 292 196.6 292L567.4 292C571.597 292 575 295.403 575 299.6V346" stroke="#71717A" stroke-width="0.95" stroke-dasharray="2.85 2.85"/>
<g filter="url(#filter3_d_8588_11370)">
<rect x="6" y="378" width="366" height="120" rx="15.2" fill="white" shape-rendering="crispEdges"/>
<path d="M141.553 414.21H143.548V431.12H141.553V422.57H139.71V430.284H137.772V414.552H139.71V420.879H141.553V414.21ZM129.868 426.921V416.167H131.939V425.097C133.364 425.078 134.979 424.945 136.727 424.603L136.936 426.408C134.694 426.826 132.756 426.921 131.008 426.921H129.868ZM145.752 424.09H161.066V425.743H154.397V431.139H152.307V425.743H145.752V424.09ZM147.557 422.304V414.894H149.628V416.965H157.133V414.894H159.185V422.304H147.557ZM149.628 420.632H157.133V418.599H149.628V420.632ZM178.613 414.229H180.722V431.139H178.613V414.229ZM166.681 425.42H168.752V417.554H167.118V415.882H176.656V417.554H175.022V425.192C175.82 425.135 176.618 425.059 177.378 424.964L177.511 426.465C173.92 427.073 169.949 427.13 166.89 427.149L166.681 425.42ZM170.766 425.382C171.507 425.363 172.248 425.344 173.008 425.306V417.554H170.766V425.382ZM185.187 415.654H196.815V417.364H187.258V422.133H196.967V423.805H185.187V415.654ZM183.344 428.992V427.282H198.658V428.992H183.344ZM200.597 415.293H202.554V417.801H205.29V415.293H207.228V423.368H200.597V415.293ZM202.554 421.715H205.29V419.397H202.554V421.715ZM202.763 426.94V425.249H214.277V431.139H212.206V426.94H202.763ZM208.71 424.318V414.533H210.648V418.447H212.301V414.229H214.277V424.394H212.301V420.157H210.648V424.318H208.71ZM216.804 417.193H219.673V414.78H221.668V417.193H224.537V418.884H221.668V419.359C221.668 421.962 222.732 424.603 225.088 425.857L223.91 427.415C222.352 426.579 221.307 425.097 220.699 423.33C220.11 425.249 219.065 426.883 217.469 427.795L216.291 426.237C218.647 424.85 219.673 422.019 219.673 419.359V418.884H216.804V417.193ZM225.449 430.322V414.533H227.406V420.841H229.097V414.21H231.092V431.12H229.097V422.532H227.406V430.322H225.449ZM234.095 414.951H236.185V420.613C238.427 420.575 240.593 420.423 242.93 419.986L243.177 421.677C240.498 422.19 238.047 422.323 235.482 422.323H234.095V414.951ZM236.147 425.173V423.52H247.224V427.928H238.275V429.277H247.718V430.93H236.185V426.389H245.134V425.173H236.147ZM240.764 418.428V416.737H245.134V414.21H247.224V422.817H245.134V418.428H240.764Z" fill="#6D0CA6"/>
<path d="M49.6445 449.071H56.4674V450.268H51.098V457.775C53.7143 457.775 55.4585 457.69 57.4421 457.296L57.6131 458.493C55.4585 458.921 53.6288 459.006 50.7902 459.006H49.6445V449.071ZM55.6124 454.287V453.073H59.8361V447.635H61.3067V462.717H59.8361V454.287H55.6124ZM79.0478 447.652H80.4671V457.142H79.0478V452.902H77.2352V456.612H75.8501V447.943H77.2352V451.688H79.0478V447.652ZM67.6763 450.593V449.396H70.7714V447.772H72.2249V449.396H75.2687V450.593H67.6763ZM68.2919 453.893C68.2919 452.337 69.6086 451.311 71.4896 451.311C73.3877 451.311 74.7044 452.337 74.7044 453.893C74.7044 455.467 73.3877 456.476 71.4896 456.476C69.6086 456.476 68.2919 455.467 68.2919 453.893ZM69.6086 453.893C69.6086 454.8 70.3781 455.398 71.4896 455.398C72.6011 455.398 73.3877 454.8 73.3877 453.893C73.3877 452.987 72.6011 452.423 71.4896 452.423C70.3781 452.423 69.6086 452.987 69.6086 453.893ZM70.4636 460.032C70.4636 458.357 72.3446 457.399 75.491 457.399C78.6716 457.399 80.5526 458.357 80.5526 460.032C80.5526 461.708 78.6716 462.666 75.491 462.666C72.3446 462.666 70.4636 461.708 70.4636 460.032ZM71.9171 460.032C71.9171 461.007 73.2509 461.537 75.491 461.537C77.7653 461.537 79.0649 461.007 79.0649 460.032C79.0649 459.041 77.7653 458.528 75.491 458.528C73.2509 458.528 71.9171 459.041 71.9171 460.032ZM82.7247 455.364H88.7781V453.654H84.5202V448.011H85.9908V449.653H93.0702V448.011H94.5579V453.654H90.2487V455.364H96.3192V456.561H82.7247V455.364ZM84.2295 459.177V457.997H94.6434V462.7H93.1728V459.177H84.2295ZM85.9908 452.474H93.0702V450.798H85.9908V452.474ZM101.843 460.186C104.681 460.186 106.648 458.151 106.648 455.227C106.648 452.303 104.681 450.268 101.843 450.268H99.9277V460.186H101.843ZM98.4913 461.452V449.003H101.843C105.485 449.003 108.05 451.568 108.05 455.227C108.05 458.887 105.485 461.452 101.843 461.452H98.4913ZM113.431 461.554C111.225 461.554 109.651 459.878 109.651 457.536C109.651 455.176 111.225 453.5 113.431 453.5C114.286 453.5 115.226 453.928 115.91 454.851V453.483H117.329V461.452H115.91V460.169C115.209 461.178 114.286 461.554 113.431 461.554ZM111.071 457.536C111.071 459.16 112.063 460.306 113.482 460.306C114.764 460.306 115.91 459.143 115.927 457.536C115.91 455.928 114.764 454.748 113.482 454.748C112.063 454.748 111.071 455.877 111.071 457.536ZM122.13 465.077H120.574L122.25 460.99L119.035 453.483H120.591L123.002 459.297L125.311 453.483H126.85L122.13 465.077ZM133.478 448.285L129.887 462.272H128.45L132.058 448.285H133.478ZM137.193 458.1C137.843 459.4 138.937 460.323 140.219 460.323C141.895 460.357 142.938 459.502 142.938 458.168C142.938 454.988 136.543 456.322 136.543 451.995C136.543 449.995 138.219 448.849 140.442 448.866C142.152 448.9 143.537 449.807 144.135 451.619L142.853 452.064C142.477 450.85 141.553 450.149 140.425 450.131C138.988 450.114 137.962 450.798 137.962 451.995C137.962 455.142 144.358 453.859 144.358 458.186C144.358 460.238 142.75 461.623 140.202 461.588C138.39 461.554 137.005 460.545 135.979 458.75L137.193 458.1ZM148.301 458.117C148.301 459.383 149.071 460.306 150.182 460.306C151.448 460.306 152.32 459.502 152.32 458.237V453.483H153.756V461.452H152.32V460.443C151.79 461.127 150.901 461.571 150.097 461.571C148.216 461.571 146.865 460.152 146.865 458.237V453.483H148.301V458.117ZM156.098 461.452V453.483H157.517V454.8C158.047 453.945 159.124 453.363 160.184 453.415V454.783C158.731 454.731 157.517 455.997 157.517 457.399V461.452H156.098ZM169.65 453.483L166.316 461.452H165.016L161.699 453.483H163.255L165.666 459.519L168.077 453.483H169.65ZM174.217 461.52C171.976 461.52 170.403 459.844 170.403 457.502C170.403 455.142 171.976 453.483 174.217 453.483C176.679 453.483 177.431 455.467 177.5 455.655C177.979 456.886 177.825 458.066 177.825 458.117H171.84C172.045 459.383 173.037 460.272 174.217 460.272C175.79 460.272 176.371 459.28 176.491 459.092L177.619 459.673C177.226 460.562 176.098 461.52 174.217 461.52ZM171.84 456.903L176.44 456.886C176.286 455.672 175.687 454.731 174.217 454.731C173.002 454.731 172.045 455.621 171.84 456.903ZM181.83 465.077H180.274L181.949 460.99L178.735 453.483H180.291L182.702 459.297L185.01 453.483H186.549L181.83 465.077ZM203.223 447.652H204.642V457.142H203.223V452.902H201.411V456.612H200.025V447.943H201.411V451.688H203.223V447.652ZM191.852 450.593V449.396H194.947V447.772H196.4V449.396H199.444V450.593H191.852ZM192.467 453.893C192.467 452.337 193.784 451.311 195.665 451.311C197.563 451.311 198.88 452.337 198.88 453.893C198.88 455.467 197.563 456.476 195.665 456.476C193.784 456.476 192.467 455.467 192.467 453.893ZM193.784 453.893C193.784 454.8 194.553 455.398 195.665 455.398C196.776 455.398 197.563 454.8 197.563 453.893C197.563 452.987 196.776 452.423 195.665 452.423C194.553 452.423 193.784 452.987 193.784 453.893ZM194.639 460.032C194.639 458.357 196.52 457.399 199.666 457.399C202.847 457.399 204.728 458.357 204.728 460.032C204.728 461.708 202.847 462.666 199.666 462.666C196.52 462.666 194.639 461.708 194.639 460.032ZM196.092 460.032C196.092 461.007 197.426 461.537 199.666 461.537C201.941 461.537 203.24 461.007 203.24 460.032C203.24 459.041 201.941 458.528 199.666 458.528C197.426 458.528 196.092 459.041 196.092 460.032ZM206.9 455.364H212.953V453.654H208.696V448.011H210.166V449.653H217.246V448.011H218.733V453.654H214.424V455.364H220.495V456.561H206.9V455.364ZM208.405 459.177V457.997H218.819V462.7H217.348V459.177H208.405ZM210.166 452.474H217.246V450.798H210.166V452.474ZM221.846 459.554H227.899V456.39H223.436V448.678H224.907V451.311H232.397V448.678H233.867V456.39H229.37V459.554H235.475V460.785H221.846V459.554ZM224.907 455.193H232.397V452.508H224.907V455.193ZM238.502 449.003H248.71V450.217H239.972V454.817H248.864V456.014H238.502V449.003ZM236.792 460.665V459.451H250.42V460.665H236.792ZM266.947 447.652H268.367V457.142H266.947V452.902H265.135V456.612H263.75V447.943H265.135V451.688H266.947V447.652ZM255.576 450.593V449.396H258.671V447.772H260.125V449.396H263.168V450.593H255.576ZM256.192 453.893C256.192 452.337 257.508 451.311 259.389 451.311C261.287 451.311 262.604 452.337 262.604 453.893C262.604 455.467 261.287 456.476 259.389 456.476C257.508 456.476 256.192 455.467 256.192 453.893ZM257.508 453.893C257.508 454.8 258.278 455.398 259.389 455.398C260.501 455.398 261.287 454.8 261.287 453.893C261.287 452.987 260.501 452.423 259.389 452.423C258.278 452.423 257.508 452.987 257.508 453.893ZM258.363 460.032C258.363 458.357 260.244 457.399 263.391 457.399C266.571 457.399 268.452 458.357 268.452 460.032C268.452 461.708 266.571 462.666 263.391 462.666C260.244 462.666 258.363 461.708 258.363 460.032ZM259.817 460.032C259.817 461.007 261.151 461.537 263.391 461.537C265.665 461.537 266.965 461.007 266.965 460.032C266.965 459.041 265.665 458.528 263.391 458.528C261.151 458.528 259.817 459.041 259.817 460.032ZM270.624 455.364H276.678V453.654H272.42V448.011H273.89V449.653H280.97V448.011H282.458V453.654H278.148V455.364H284.219V456.561H270.624V455.364ZM272.129 459.177V457.997H282.543V462.7H281.072V459.177H272.129ZM273.89 452.474H280.97V450.798H273.89V452.474ZM296.959 447.635H298.378V462.683H296.959V447.635ZM285.536 458.391C288.751 456.493 290.29 453.876 290.546 450.747H286.203V449.533H292.017C292.017 451.004 291.812 452.423 291.333 453.74H293.812V448.028H295.215V461.93H293.812V454.937H290.803C289.914 456.681 288.494 458.22 286.391 459.468L285.536 458.391ZM304.415 448.934H305.902V451.551C305.902 454.304 307.63 457.074 309.87 458.1L308.998 459.297C307.27 458.459 305.885 456.732 305.184 454.612C304.5 456.852 303.081 458.699 301.303 459.588L300.396 458.357C302.688 457.296 304.415 454.424 304.415 451.551V448.934ZM311.34 462.717V447.618H312.828V462.717H311.34ZM315.889 449.02H323.943V450.217H322.473V455.073C323.208 455.022 323.943 454.954 324.627 454.868L324.73 455.98C321.737 456.441 318.232 456.527 315.667 456.527L315.496 455.296C316.077 455.296 316.693 455.279 317.343 455.279V450.217H315.889V449.02ZM317.753 462.358V457.673H319.224V461.161H327.825V462.358H317.753ZM318.779 455.244C319.532 455.227 320.284 455.193 321.053 455.159V450.217H318.779V455.244ZM325.67 458.716V447.652H327.158V452.166H329.364V453.415H327.158V458.716H325.67Z" fill="#71717A"/>
</g>
<g filter="url(#filter4_d_8588_11370)">
<rect x="392" y="378" width="366" height="120" rx="15.2" fill="white" shape-rendering="crispEdges"/>
<path d="M545.58 415.255C548.221 415.255 550.178 416.946 550.178 419.34C550.178 421.411 548.715 422.95 546.625 423.33V425.819C548.107 425.724 549.608 425.591 551.014 425.382L551.166 426.902C547.461 427.624 543.414 427.643 540.45 427.643L540.203 425.952C541.457 425.952 542.939 425.952 544.497 425.895V423.33C542.407 422.931 540.963 421.392 540.963 419.34C540.963 416.946 542.92 415.255 545.58 415.255ZM542.996 419.34C542.996 420.746 544.098 421.639 545.58 421.639C547.043 421.639 548.145 420.746 548.145 419.34C548.145 417.915 547.043 417.022 545.58 417.022C544.098 417.022 542.996 417.915 542.996 419.34ZM552.021 431.158V414.191H554.092V431.158H552.021ZM556.752 424.09H572.066V425.743H565.397V431.139H563.307V425.743H556.752V424.09ZM558.557 422.304V414.894H560.628V416.965H568.133V414.894H570.185V422.304H558.557ZM560.628 420.632H568.133V418.599H560.628V420.632ZM589.613 414.229H591.703V426.446H589.613V414.229ZM578.023 419.587C578.023 417.098 579.999 415.331 582.545 415.331C585.11 415.331 587.067 417.098 587.067 419.587C587.067 422.038 585.11 423.824 582.545 423.824C579.999 423.824 578.023 422.038 578.023 419.587ZM580.056 419.587C580.056 421.05 581.139 422 582.545 422C583.951 422 585.034 421.05 585.034 419.587C585.034 418.086 583.951 417.136 582.545 417.136C581.139 417.136 580.056 418.086 580.056 419.587ZM580.607 430.797V425.23H582.678V429.125H592.159V430.797H580.607ZM594.344 422.133H609.62V423.786H594.344V422.133ZM595.066 419.701C598.22 419.397 600.215 418.124 600.519 416.718H595.731V415.046H608.252V416.718H603.445C603.749 418.124 605.725 419.397 608.898 419.701L608.157 421.335C605.117 421.031 602.875 419.815 601.982 418.105C601.089 419.815 598.847 421.031 595.788 421.335L595.066 419.701ZM596.111 428.023C596.111 426.066 598.315 424.926 601.963 424.926C605.592 424.926 607.796 426.066 607.796 428.023C607.796 429.999 605.592 431.139 601.963 431.139C598.315 431.139 596.111 429.999 596.111 428.023ZM598.22 428.023C598.22 429.011 599.531 429.505 601.963 429.505C604.376 429.505 605.687 429.011 605.687 428.023C605.687 427.054 604.376 426.541 601.963 426.541C599.531 426.541 598.22 427.054 598.22 428.023Z" fill="#6D0CA6"/>
<path d="M496.699 447.618H498.204V453.688H500.546V454.937H498.204V462.683H496.699V447.618ZM486.644 458.733C490.44 456.818 492.475 453.996 492.8 450.456H487.379V449.242H494.305C494.305 453.551 492.373 457.416 487.482 459.861L486.644 458.733ZM502.787 448.268H513.902V449.465H509.319C509.456 451.055 511.713 452.354 514.415 452.628L513.868 453.808C511.337 453.5 509.165 452.389 508.344 450.747C507.524 452.389 505.335 453.5 502.804 453.808L502.274 452.628C504.959 452.354 507.233 451.055 507.37 449.465H502.787V448.268ZM501.539 456.373V455.176H507.592V452.953H509.063V455.176H515.167V456.373H501.539ZM503.043 458.989V457.809H513.457V462.7H511.987V458.989H503.043ZM527.343 447.652H528.831V458.75H527.343V447.652ZM516.758 455.809C519.015 455.073 520.503 453.192 520.503 451.157V450.798H517.134V449.618H520.503V447.72H521.991V449.618H525.325V450.798H521.974V451.157C521.974 453.09 523.478 454.851 525.753 455.535L525.052 456.698C523.29 456.151 521.956 454.988 521.272 453.5C520.606 455.108 519.272 456.373 517.493 456.971L516.758 455.809ZM519.135 462.358V457.724H520.606V461.161H529.275V462.358H519.135ZM541.588 447.652H543.075V453.996H545.35V455.244H543.075V462.7H541.588V447.652ZM531.259 458.63C532.456 458.63 533.841 458.63 535.278 458.579V457.006C533.585 456.783 532.456 455.757 532.456 454.27C532.456 452.577 533.91 451.482 536.013 451.482C538.116 451.482 539.587 452.577 539.587 454.27C539.587 455.757 538.458 456.783 536.765 457.006V458.528C538.099 458.459 539.45 458.357 540.698 458.168L540.818 459.246C537.586 459.861 534.081 459.878 531.482 459.878L531.259 458.63ZM531.516 450.627V449.447H535.278V447.669H536.765V449.447H540.493V450.627H531.516ZM533.858 454.27C533.858 455.279 534.731 455.911 536.013 455.911C537.313 455.911 538.185 455.279 538.185 454.27C538.185 453.261 537.313 452.611 536.013 452.611C534.731 452.611 533.858 453.261 533.858 454.27ZM557.252 447.635H558.739V462.683H557.252V447.635ZM546.53 458.733C550.531 456.818 552.498 453.996 552.789 450.456H547.231V449.242H554.293C554.293 453.637 552.395 457.45 547.317 459.913L546.53 458.733ZM565.426 448.336C567.427 448.336 568.948 449.465 569.256 451.192H572.232V447.652H573.719V455.706H572.232V452.406H569.256C568.983 454.15 567.444 455.33 565.426 455.33C563.169 455.33 561.527 453.893 561.527 451.824C561.527 449.755 563.169 448.336 565.426 448.336ZM562.946 451.824C562.946 453.158 563.972 454.082 565.426 454.082C566.862 454.082 567.888 453.158 567.888 451.824C567.888 450.473 566.862 449.567 565.426 449.567C563.972 449.567 562.946 450.473 562.946 451.824ZM564.041 462.495V456.458H565.511V458.271H572.249V456.458H573.719V462.495H564.041ZM565.511 461.298H572.249V459.451H565.511V461.298ZM591.067 447.652H592.555V458.613H591.067V447.652ZM580.516 452.406C580.516 450.217 582.226 448.678 584.467 448.678C586.724 448.678 588.417 450.217 588.417 452.406C588.417 454.577 586.724 456.116 584.467 456.116C582.226 456.116 580.516 454.577 580.516 452.406ZM581.97 452.406C581.97 453.825 583.047 454.817 584.467 454.817C585.886 454.817 586.98 453.825 586.98 452.406C586.98 450.952 585.886 449.96 584.467 449.96C583.047 449.96 581.97 450.952 581.97 452.406ZM582.859 462.358V457.502H584.33V461.161H592.999V462.358H582.859ZM595.154 454.783H608.749V455.98H595.154V454.783ZM595.89 452.748C598.574 452.457 600.832 451.175 600.968 449.618H596.403V448.404H607.518V449.618H602.935C603.072 451.192 605.312 452.457 608.031 452.748L607.484 453.911C604.953 453.62 602.781 452.525 601.96 450.901C601.139 452.525 598.951 453.62 596.42 453.911L595.89 452.748ZM596.779 459.947C596.779 458.22 598.711 457.211 601.943 457.211C605.158 457.211 607.107 458.22 607.107 459.947C607.107 461.674 605.158 462.683 601.943 462.683C598.711 462.683 596.779 461.674 596.779 459.947ZM598.267 459.947C598.267 460.956 599.618 461.503 601.943 461.503C604.252 461.503 605.603 460.956 605.603 459.947C605.603 458.955 604.252 458.391 601.943 458.391C599.618 458.391 598.267 458.955 598.267 459.947ZM615.17 455.227C615.17 453.056 616.025 450.166 617.256 448.233H618.812C617.427 450.131 616.47 453.004 616.47 455.227C616.47 457.45 617.427 460.323 618.812 462.221H617.256C616.025 460.289 615.17 457.399 615.17 455.227ZM623.084 448.028L622.024 451.482H620.998L621.562 448.028H623.084ZM629.405 449.054V461.417H627.985V450.627L625.967 451.927L625.266 450.798L627.985 449.054H629.405ZM636.188 450.166C634.581 450.166 633.435 451.328 633.435 452.987C633.435 454.646 634.581 455.826 636.188 455.826C637.778 455.826 638.89 454.646 638.89 452.987C638.89 451.328 637.778 450.166 636.188 450.166ZM632.016 452.987C632.016 450.593 633.726 448.9 636.171 448.9C638.599 448.9 640.309 450.593 640.309 452.987C640.309 453.859 640.018 454.663 639.659 455.296L636.188 461.417H634.546L637.094 456.989C636.804 457.04 636.479 457.091 636.154 457.091C633.726 457.074 632.016 455.398 632.016 452.987ZM646.504 455.142C646.983 453.962 648.18 453.158 649.377 453.209C649.873 453.261 650.557 453.483 651.018 453.774L652.455 454.663C652.763 454.868 653.156 455.005 653.378 455.005C653.977 455.039 654.558 454.629 654.797 453.996L656.183 454.526C655.721 455.723 654.524 456.544 653.293 456.476C652.848 456.458 652.181 456.236 651.685 455.928L650.215 455.022C649.941 454.851 649.565 454.697 649.291 454.68C648.71 454.663 648.111 455.09 647.872 455.706L646.504 455.142ZM662.281 455.227C662.281 457.416 661.426 460.289 660.212 462.221H658.656C660.024 460.34 660.981 457.45 660.981 455.227C660.981 453.004 660.024 450.114 658.656 448.233H660.212C661.426 450.166 662.281 453.038 662.281 455.227Z" fill="#71717A"/>
</g>
<path fill-rule="evenodd" clip-rule="evenodd" d="M197.849 357.151C198.317 357.62 198.317 358.38 197.849 358.848L189 367.697L180.152 358.848C179.683 358.38 179.683 357.62 180.152 357.151C180.62 356.683 181.38 356.683 181.849 357.151L189 364.303L196.152 357.151C196.62 356.683 197.38 356.683 197.849 357.151Z" fill="#9735D0"/>
<path fill-rule="evenodd" clip-rule="evenodd" d="M583.849 357.151C584.317 357.62 584.317 358.38 583.849 358.848L575 367.697L566.152 358.848C565.683 358.38 565.683 357.62 566.152 357.151C566.62 356.683 567.38 356.683 567.849 357.151L575 364.303L582.152 357.151C582.62 356.683 583.38 356.683 583.849 357.151Z" fill="#9735D0"/>
<defs>
<filter id="filter0_d_8588_11370" x="22.0002" y="0.888132" width="200" height="200" filterUnits="userSpaceOnUse" color-interpolation-filters="sRGB">
<feFlood flood-opacity="0" result="BackgroundImageFix"/>
<feColorMatrix in="SourceAlpha" type="matrix" values="0 0 0 0 0 0 0 0 0 0 0 0 0 0 0 0 0 0 127 0" result="hardAlpha"/>
<feOffset dy="8.88889"/>
<feGaussianBlur stdDeviation="15.5556"/>
<feComposite in2="hardAlpha" operator="out"/>
<feColorMatrix type="matrix" values="0 0 0 0 0 0 0 0 0 0 0 0 0 0 0 0 0 0 0.05 0"/>
<feBlend mode="normal" in2="BackgroundImageFix" result="effect1_dropShadow_8588_11370"/>
<feBlend mode="normal" in="SourceGraphic" in2="effect1_dropShadow_8588_11370" result="shape"/>
</filter>
<filter id="filter1_d_8588_11370" x="282" y="0.888132" width="200" height="200" filterUnits="userSpaceOnUse" color-interpolation-filters="sRGB">
<feFlood flood-opacity="0" result="BackgroundImageFix"/>
<feColorMatrix in="SourceAlpha" type="matrix" values="0 0 0 0 0 0 0 0 0 0 0 0 0 0 0 0 0 0 127 0" result="hardAlpha"/>
<feOffset dy="8.88889"/>
<feGaussianBlur stdDeviation="15.5556"/>
<feComposite in2="hardAlpha" operator="out"/>
<feColorMatrix type="matrix" values="0 0 0 0 0 0 0 0 0 0 0 0 0 0 0 0 0 0 0.05 0"/>
<feBlend mode="normal" in2="BackgroundImageFix" result="effect1_dropShadow_8588_11370"/>
<feBlend mode="normal" in="SourceGraphic" in2="effect1_dropShadow_8588_11370" result="shape"/>
</filter>
<filter id="filter2_d_8588_11370" x="542" y="0.888132" width="200" height="200" filterUnits="userSpaceOnUse" color-interpolation-filters="sRGB">
<feFlood flood-opacity="0" result="BackgroundImageFix"/>
<feColorMatrix in="SourceAlpha" type="matrix" values="0 0 0 0 0 0 0 0 0 0 0 0 0 0 0 0 0 0 127 0" result="hardAlpha"/>
<feOffset dy="8.88889"/>
<feGaussianBlur stdDeviation="15.5556"/>
<feComposite in2="hardAlpha" operator="out"/>
<feColorMatrix type="matrix" values="0 0 0 0 0 0 0 0 0 0 0 0 0 0 0 0 0 0 0.05 0"/>
<feBlend mode="normal" in2="BackgroundImageFix" result="effect1_dropShadow_8588_11370"/>
<feBlend mode="normal" in="SourceGraphic" in2="effect1_dropShadow_8588_11370" result="shape"/>
</filter>
<filter id="filter3_d_8588_11370" x="0.657534" y="373.993" width="376.685" height="130.685" filterUnits="userSpaceOnUse" color-interpolation-filters="sRGB">
<feFlood flood-opacity="0" result="BackgroundImageFix"/>
<feColorMatrix in="SourceAlpha" type="matrix" values="0 0 0 0 0 0 0 0 0 0 0 0 0 0 0 0 0 0 127 0" result="hardAlpha"/>
<feOffset dy="1.33562"/>
<feGaussianBlur stdDeviation="2.67123"/>
<feComposite in2="hardAlpha" operator="out"/>
<feColorMatrix type="matrix" values="0 0 0 0 0 0 0 0 0 0 0 0 0 0 0 0 0 0 0.1 0"/>
<feBlend mode="normal" in2="BackgroundImageFix" result="effect1_dropShadow_8588_11370"/>
<feBlend mode="normal" in="SourceGraphic" in2="effect1_dropShadow_8588_11370" result="shape"/>
</filter>
<filter id="filter4_d_8588_11370" x="386.658" y="373.993" width="376.685" height="130.685" filterUnits="userSpaceOnUse" color-interpolation-filters="sRGB">
<feFlood flood-opacity="0" result="BackgroundImageFix"/>
<feColorMatrix in="SourceAlpha" type="matrix" values="0 0 0 0 0 0 0 0 0 0 0 0 0 0 0 0 0 0 127 0" result="hardAlpha"/>
<feOffset dy="1.33562"/>
<feGaussianBlur stdDeviation="2.67123"/>
<feComposite in2="hardAlpha" operator="out"/>
<feColorMatrix type="matrix" values="0 0 0 0 0 0 0 0 0 0 0 0 0 0 0 0 0 0 0.1 0"/>
<feBlend mode="normal" in2="BackgroundImageFix" result="effect1_dropShadow_8588_11370"/>
<feBlend mode="normal" in="SourceGraphic" in2="effect1_dropShadow_8588_11370" result="shape"/>
</filter>
<clipPath id="clip0_8588_11370">
<rect width="72" height="72" fill="white" transform="translate(86 56)"/>
</clipPath>
<clipPath id="clip1_8588_11370">
<rect width="72" height="72" fill="white" transform="translate(346 56)"/>
</clipPath>
<clipPath id="clip2_8588_11370">
<rect width="72" height="72" fill="white" transform="translate(606 56)"/>
</clipPath>
</defs>
</svg>
